<?xml version="1.0" standalone="no"?>
<!DOCTYPE svg PUBLIC "-//W3C//DTD SVG 20010904//EN"
 "http://www.w3.org/TR/2001/REC-SVG-20010904/DTD/svg10.dtd">
<svg version="1.0" xmlns="http://www.w3.org/2000/svg"
 width="700.000000pt" height="700.000000pt" viewBox="0 0 700.000000 700.000000"
 preserveAspectRatio="xMidYMid meet">
<metadata>
Created by potrace 1.11, written by Peter Selinger 2001-2013
</metadata>
<g transform="translate(0.000000,700.000000) scale(0.100000,-0.100000)"
fill="#000000" stroke="none">
<path d="M4385 6478 c-16 -4 -82 -20 -145 -34 -139 -31 -126 -28 -230 -53 -47
-11 -101 -23 -120 -26 -19 -3 -100 -21 -180 -40 -80 -18 -286 -66 -459 -105
-173 -39 -339 -78 -370 -87 -44 -12 -124 -16 -381 -18 -287 -3 -332 -5 -380
-22 -93 -32 -154 -69 -216 -132 -38 -40 -71 -64 -94 -70 -19 -5 -89 -21 -155
-36 -66 -15 -194 -46 -285 -67 -91 -22 -176 -42 -190 -44 -14 -3 -33 -7 -42
-10 -10 -3 -30 -7 -45 -10 -16 -3 -55 -12 -88 -21 -33 -8 -71 -17 -85 -20
-114 -20 -296 -71 -345 -95 -141 -69 -237 -198 -271 -363 -8 -40 -5 -141 6
-190 6 -27 13 -59 16 -70 8 -44 48 -217 74 -330 16 -66 31 -131 34 -145 3 -14
12 -56 21 -95 9 -38 18 -80 21 -92 2 -12 15 -69 29 -125 13 -57 26 -114 29
-128 15 -69 26 -113 46 -200 12 -52 26 -113 31 -135 4 -22 26 -118 48 -214 23
-96 39 -176 37 -178 -2 -3 -26 7 -53 20 -202 102 -442 131 -573 69 -81 -39
-36 -92 143 -166 117 -49 301 -105 397 -122 14 -3 53 -14 88 -25 l62 -21 -19
-26 c-11 -15 -28 -36 -38 -47 -66 -70 -162 -246 -189 -346 -30 -112 -17 -338
20 -352 35 -14 101 98 182 303 10 25 26 59 35 77 10 17 28 51 40 74 23 46 33
42 42 -16 4 -26 40 -186 163 -720 14 -60 35 -148 46 -195 11 -47 22 -96 25
-110 2 -14 8 -42 13 -64 5 -21 6 -44 4 -50 -3 -7 9 -75 27 -152 17 -76 35
-155 39 -174 4 -19 18 -78 30 -130 12 -52 24 -106 26 -120 19 -97 70 -283 91
-329 30 -65 120 -159 183 -191 110 -56 221 -66 371 -32 52 12 182 42 289 66
185 42 769 176 1095 251 l151 35 1370 0 c1192 0 1378 2 1429 15 164 43 282
144 349 298 l31 72 0 2250 c0 1608 -4 2260 -11 2286 -51 168 -192 303 -364
350 -32 9 -204 13 -615 14 -313 1 -573 3 -577 4 -3 0 -12 18 -19 39 -22 68
-67 136 -129 194 -102 97 -202 136 -344 136 -50 0 -104 -5 -121 -10z"/>
</g>
</svg>
