<?xml version="1.0" encoding="utf-8"?>
<!-- Generator: Adobe Illustrator 22.1.0, SVG Export Plug-In . SVG Version: 6.00 Build 0)  -->
<svg version="1.1" id="Layer_2" xmlns="http://www.w3.org/2000/svg" xmlns:xlink="http://www.w3.org/1999/xlink" x="0px" y="0px"
	 viewBox="0 0 80 80" style="enable-background:new 0 0 80 80;" xml:space="preserve">
<style type="text/css">
	.st0{fill:#216468;}
	.st1{fill:#4DC1C4;}
</style>
<path class="st0" d="M67.8,38c0,0-12.2,9.9-27.2,9.9S13.4,38,13.4,38s12.2-9.9,27.2-9.9S67.8,38,67.8,38z"/>
<path class="st1" d="M64.1,38.1c0,0-10.5,7.2-23.5,7.2s-23.5-7.2-23.5-7.2s10.5-7.2,23.5-7.2S64.1,38.1,64.1,38.1z"/>
<circle class="st0" cx="40.6" cy="38.1" r="9"/>
<rect x="18" y="15.7" class="st1" width="2.2" height="11.5"/>
<rect x="18" y="15.7" transform="matrix(-1.836970e-16 1 -1 -1.836970e-16 40.5936 2.3162)" class="st1" width="2.2" height="11.5"/>
<rect x="61.2" y="13.1" class="st1" width="2.8" height="14.4"/>
<rect x="61.2" y="13.1" transform="matrix(-1.836970e-16 1 -1 -1.836970e-16 82.8876 -42.1905)" class="st1" width="2.8" height="14.4"/>
<rect x="32.7" y="53.6" class="st1" width="2" height="10.4"/>
<rect x="32.7" y="53.6" transform="matrix(-1.836970e-16 1 -1 -1.836970e-16 92.5379 25.0908)" class="st1" width="2" height="10.4"/>
<rect x="55.9" y="49.2" class="st1" width="1.5" height="7.7"/>
<rect x="55.9" y="49.2" transform="matrix(-1.836970e-16 1 -1 -1.836970e-16 109.6389 -3.6095)" class="st1" width="1.5" height="7.7"/>
<rect x="38.2" y="8.5" class="st1" width="1.4" height="7.2"/>
<rect x="38.2" y="8.5" transform="matrix(-1.836970e-16 1 -1 -1.836970e-16 51.0495 -26.7592)" class="st1" width="1.4" height="7.2"/>
<ellipse class="st1" cx="40.6" cy="38" rx="5" ry="7.1"/>
</svg>
