<?xml version="1.0" encoding="utf-8"?>
<!-- Generator: Adobe Illustrator 22.1.0, SVG Export Plug-In . SVG Version: 6.00 Build 0)  -->
<svg version="1.1" id="Layer_1" xmlns="http://www.w3.org/2000/svg" xmlns:xlink="http://www.w3.org/1999/xlink" x="0px" y="0px"
	 viewBox="0 0 80 80" style="enable-background:new 0 0 80 80;" xml:space="preserve">
<style type="text/css">
	.st0{fill:#B34A30;}
	.st1{fill:#B7A17B;}
	.st2{fill:#936342;}
	.st3{fill:#AB734C;}
	.st4{fill:#684730;}
	.st5{fill:#AAAAAA;}
</style>
<path class="st0" d="M17,70l1.2-7.2L11,62.6l16.5-7.7L17,70z"/>
<path class="st1" d="M12.6,18.9l2,44.4l1.8,2.7l43.7,8.4l0.4-0.6l-42.4-10l-1.2-1.2l-3.6-43.9L12.6,18.9z"/>
<path class="st0" d="M27,55.5L17,70l1.2-7.2L27,55.5z"/>
<path class="st2" d="M12.6,18.9c0,0,21.9-4.3,37.8,14.4s9.7,41.1,9.7,41.1s15.4-22.3-3.5-44.6C38.6,8.6,12.6,18.9,12.6,18.9z"/>
<path class="st3" d="M12.7,18c-1.5,0.4-0.1,0.8-0.1,0.8s23.7-5.2,39.6,13.5c13.2,15.5,10.6,36,7,41.9c-0.7,1.1,0.9,0.2,0.9,0.2
	S75.6,52,56.6,29.7C41.8,12.3,19.4,16.1,12.7,18z"/>
<path class="st4" d="M17.9,64.2l43.8-37.3l-1.3-1.6L16.9,62.6L17.9,64.2z"/>
<path class="st5" d="M60.2,26.8l0.2,5.5L69,19.5l-14,6.3L60.2,26.8z"/>
</svg>
