<?xml version="1.0" encoding="utf-8"?>
<!-- Generator: Adobe Illustrator 22.1.0, SVG Export Plug-In . SVG Version: 6.00 Build 0)  -->
<svg version="1.1" id="Calque_1" xmlns="http://www.w3.org/2000/svg" xmlns:xlink="http://www.w3.org/1999/xlink" x="0px" y="0px"
	 viewBox="0 0 80 80" style="enable-background:new 0 0 80 80;" xml:space="preserve">
<style type="text/css">
	.st0{fill:#FF5631;}
	.st1{display:none;fill:#AF7643;}
	.st2{fill:#F47231;}
	.st3{clip-path:url(#SVGID_2_);fill:#FF5631;}
	.st4{clip-path:url(#SVGID_4_);fill:#FF5631;}
	.st5{clip-path:url(#SVGID_8_);fill:#C1A376;}
	.st6{clip-path:url(#SVGID_10_);fill:#A58A67;}
	.st7{fill:#C1A376;}
	.st8{opacity:0.58;}
	.st9{clip-path:url(#SVGID_12_);fill:#AF7B58;}
	.st10{fill:#5959B3;}
	.st11{fill:none;}
</style>
<path class="st0" d="M46.8,13.3c0.3-0.4,0.3,5.3,0.6,5.4c0.3,0.1-1.9,7.7-2,8.4C45.2,27.8,40.9,20.3,46.8,13.3z"/>
<path class="st0" d="M69.8,16.9c1.2-1,1.5-3.1,1.6-3.6c0.4-2.3,3.8,4.9,2.4,10c-1.4,5.1-11,11.5-11.7,11.3"/>
<circle class="st1" cx="52.7" cy="19.2" r="16.3"/>
<g>
	<ellipse transform="matrix(0.1017 -0.9948 0.9948 0.1017 31.6602 77.8389)" class="st2" cx="58.9" cy="21.4" rx="11.9" ry="11.9"/>
	<g>
		<g>
			<defs>
				<path id="SVGID_1_" d="M67.6,30.8c-5.1,4.2-12.6,3.5-16.7-1.5c-4.2-5.1-5.4-12.6,0.6-17.3c5.2-4,13.4-3,17.6,2.1
					S72.6,26.7,67.6,30.8z"/>
			</defs>
			<clipPath id="SVGID_2_">
				<use xlink:href="#SVGID_1_"  style="overflow:visible;"/>
			</clipPath>
			<path class="st3" d="M61,9.9c12.4-0.1,7.9,17.1,1.5,18.8c-0.9,0.5-1.4,0-1.7,0.4c-1.6,1.4-2.7,3-4.7,2.8
				C50.5,31.5,73,34.5,73,34.5l3.2-17.9l-7.3-9.5C68.9,7.2,57.6,8.5,61,9.9z"/>
		</g>
		<g>
			<defs>
				<path id="SVGID_3_" d="M67.6,30.8c-5.1,4.2-12.6,3.5-16.7-1.5c-4.2-5.1-5.4-12.6,0.6-17.3c5.2-4,13.4-3,17.6,2.1
					S72.6,26.7,67.6,30.8z"/>
			</defs>
			<clipPath id="SVGID_4_">
				<use xlink:href="#SVGID_3_"  style="overflow:visible;"/>
			</clipPath>
			<path class="st4" d="M47.6,17.1c0.2-2.8,0.6,0.3,0.7,1.1c0.6,2.8,1,3.7,2.4,4.3c1,0.4,2.9,0.6,4.9-1.7c1.1-1.3,1-2.5,1-0.6
				c0,1.9-2.2,4.2-2.2,4.2l-3.7,4.8l-2.8-7.4L47.6,17.1z"/>
		</g>
	</g>
	<path class="st0" d="M56.7,20.2c0.1-0.3-0.3,1.3-0.6,3.4c-0.2,1.3,0.8,2.5,1.3,3.2c0.7,1-0.4,2.6-0.1,3c0.7,1-3.4-1.5-3.4-1.5
		l0.3-4.8l2.3-4.3L56.7,20.2z"/>
	<path class="st0" d="M57.2,26.6c0,0,3.3,3.3,7.3,0.8c4.7-3-1.3,4-1.3,4l-6.6-0.2L57.2,26.6z"/>
	<path class="st0" d="M48.8,14.4c-0.1,0.2-0.4,0.7-0.6,1l-0.1,0.1c0,0-0.5,1-0.3,1.9c0.1,0.9,0.5,0.8,1-0.3s2.7-3.1,3.5-4.5
		c0.8-1.5,2.5-0.6,3.5,0c1,0.6,2.5-0.7,4.3-0.8s1.3,1.3,2.6,1.4s0.5-0.5,3,0.4s4.6,2,5.2,3.5c1,2.5,0.1-1.8-0.8-3.9l0,0
		c-0.4-1.4-0.7-2.6-0.9-3.2c-2.6-7.2-10.7-9.2-11-9.2c-0.5,0-0.5,0.1-0.3,0.6c1.1,2.3-2.7,5.2-3.3,5s-0.6-1.2-0.8-1.1
		s-0.9,3-1.3,4.5c-0.2,0.6-1.1,2-1.6,2.4C49.7,13.3,48.9,14.1,48.8,14.4z M54.6,9.8L54.6,9.8L54.6,9.8L54.6,9.8z"/>
	<g>
		<defs>
			<path id="SVGID_5_" d="M54.6,9.8L54.6,9.8L54.6,9.8L54.6,9.8z"/>
		</defs>
		<clipPath id="SVGID_6_">
			<use xlink:href="#SVGID_5_"  style="overflow:visible;"/>
		</clipPath>
	</g>
	<g>
		<g>
			<defs>
				<path id="SVGID_7_" d="M22.8,77.6c4.1-6.6,18.4-30.8,21.3-33.3c2.7-2.4,7.7-5.7,9.1-6.3c2-0.9,10.3-2.3,14.2-6.4
					c4.6-4.6-3.4,1.4-10.8-0.8c-5.7-1.7-9.5-9.6-8.4-14.7c0.3-1.5-2.5,0-4.8,16.5c-1.5,10.6-28.7,39.9-29.7,42.1
					C12.2,78.2,20.7,81,22.8,77.6z"/>
			</defs>
			<clipPath id="SVGID_8_">
				<use xlink:href="#SVGID_7_"  style="overflow:visible;"/>
			</clipPath>
			<path class="st5" d="M22.7,77.5c4.1-6.6,18.2-31.1,21.3-33.3c3.1-2.2,7.1-5.5,9.1-6.3c2-0.8,10.3-2.3,14.2-6.4
				c4.6-4.6-2.9-1.3-10.6-2.1c-7.7-0.8-7-11.9-8.4-14.7s-3.3,8.5-5,17.7c-1.9,10.5-28.7,39.9-29.7,42.1C12,78.1,20.6,80.9,22.7,77.5
				z"/>
		</g>
		<g>
			<defs>
				<path id="SVGID_9_" d="M22.8,77.6c4.1-6.6,18.4-30.8,21.3-33.3c2.7-2.4,7.7-5.7,9.1-6.3c2-0.9,10.3-2.3,14.2-6.4
					c4.6-4.6-3.4,1.4-10.8-0.8c-5.7-1.7-9.5-9.6-8.4-14.7c0.3-1.5-2.5,0-4.8,16.5c-1.5,10.6-28.7,39.9-29.7,42.1
					C12.2,78.2,20.7,81,22.8,77.6z"/>
			</defs>
			<clipPath id="SVGID_10_">
				<use xlink:href="#SVGID_9_"  style="overflow:visible;"/>
			</clipPath>
			<path class="st6" d="M69.4,28.4c0,0-2.8,4.5-8.1,5.4c-11,1.9-18.7,7.5-23.3,16S22.1,75.2,20.8,76.1c-1.7,1-3.2,2.3-7.1,0.7
				c-3.8-1.6,4.9,5.1,4.9,5.1l23-10.8l32-43.6L69.4,28.4z"/>
		</g>
		<path class="st2" d="M68.1,19.2c0.3-2.1,0.5-1.3,0.4-3.6c-0.3-5.3-9.9-14.3-8.7-10.7c0.9,2.9-3.8,4.6-4.6,4.6
			c-1,0-1.2-2.8-1.6-0.8c-0.9,4.7-5.7,7.2-5.4,9.3"/>
	</g>
	<path class="st7" d="M47.8,21.9c1.1-2.3,0.8,4.6,5.7,1c2.7-2.1,3-6.3,3.5-4.7c0.6,2.2-1.4,6.1-1.5,7.5c-0.2,1.5,0.9,5.6,4.3,5.5
		L59,32.6l-12.2-2.1L47.8,21.9z"/>
	<g class="st8">
		<defs>
			<path id="SVGID_11_" class="st8" d="M59.8,31.2L59.8,31.2c-3.4,0.1-4.5-4-4.3-5.5c0.1-1.4,2-5.3,1.5-7.5
				c-0.4-1.6-0.7,2.6-3.5,4.7c-3.3,2.5-4.3-0.1-4.9-1.1c-0.6-2-0.8-4.1-0.5-5.8c0.3-1.5-2.5,0-4.8,16.5
				c-1.5,10.6-28.7,39.9-29.7,42.1c-1.5,3.6,7,6.4,9.2,3c4.1-6.6,18.4-30.8,21.3-33.3c2.7-2.4,7.7-5.7,9.1-6.3
				c2-0.9,10.3-2.3,14.2-6.4C71.3,27.6,66.1,31.4,59.8,31.2z"/>
		</defs>
		<clipPath id="SVGID_12_">
			<use xlink:href="#SVGID_11_"  style="overflow:visible;"/>
		</clipPath>
		<path class="st9" d="M44.5,25.7c0.6,1.4,1,5.1,0.3,6.4s1.4,0.9,2.6,0.7s1.7,0.9,0.7,2.4s-1.3,3,0.5,3s1.3,0.6,2,1.2s9.2,0,9.2,0
			l11.4-10.8l-7.3-10.8l-9.3-3.6l-7.8-1.7l-5,12.3L44.5,25.7z"/>
	</g>
	<path class="st10" d="M60.1,29.6"/>
	<path class="st11" d="M59.8,31.2L59.8,31.2c-3.4,0.1-4.5-4-4.3-5.5c0.1-1.4,2-5.3,1.5-7.5c-0.4-1.6-0.7,2.6-3.5,4.7
		c-3.3,2.5-4.3-0.1-4.9-1.1c-0.6-2-0.8-4.1-0.5-5.8c0.3-1.5-2.5,0-4.8,16.5c-1.5,10.6-28.7,39.9-29.7,42.1c-1.5,3.6,7,6.4,9.2,3
		c4.1-6.6,18.4-30.8,21.3-33.3c2.7-2.4,7.7-5.7,9.1-6.3c2-0.9,10.3-2.3,14.2-6.4C71.3,27.6,66.1,31.4,59.8,31.2z"/>
</g>
</svg>
