<?xml version="1.0" encoding="utf-8"?>
<!-- Generator: Adobe Illustrator 22.1.0, SVG Export Plug-In . SVG Version: 6.00 Build 0)  -->
<svg version="1.1" id="Layer_2_1_" xmlns="http://www.w3.org/2000/svg" xmlns:xlink="http://www.w3.org/1999/xlink" x="0px" y="0px"
	 viewBox="0 0 80 80" style="enable-background:new 0 0 80 80;" xml:space="preserve">
<style type="text/css">
	.st0{display:none;fill:#912D2D;}
	.st1{display:none;fill:#C64B4B;}
	.st2{clip-path:url(#SVGID_2_);fill:#C64B4B;}
	.st3{clip-path:url(#SVGID_4_);fill:#682121;}
	.st4{clip-path:url(#SVGID_6_);fill:#C64B4B;}
	.st5{clip-path:url(#SVGID_8_);fill:#682121;}
	.st6{clip-path:url(#SVGID_10_);fill:#C64B4B;}
	.st7{clip-path:url(#SVGID_12_);fill:#682121;}
	.st8{fill:#682121;}
	.st9{fill:#C64B4B;}
</style>
<polygon class="st0" points="36.8,6.7 8.4,27.3 19.2,60.7 54.3,60.7 65.1,27.3 "/>
<polygon class="st1" points="36.8,12.1 13.5,29 22.4,56.3 51.1,56.3 60,29 "/>
<g>
	<g>
		<defs>
			<path id="SVGID_1_" d="M62.6,53.2c0,3.1-2.5,5.5-5.5,5.5s-5.5-2.5-5.5-5.5s5.5-8.8,5.5-8.8S62.6,50.1,62.6,53.2z"/>
		</defs>
		<clipPath id="SVGID_2_">
			<use xlink:href="#SVGID_1_"  style="overflow:visible;"/>
		</clipPath>
		<path class="st2" d="M62.6,53.2c0,3.1-2.5,5.5-5.5,5.5s-5.5-2.5-5.5-5.5s5.5-8.8,5.5-8.8S62.6,50.1,62.6,53.2z"/>
	</g>
	<g>
		<defs>
			<path id="SVGID_3_" d="M62.6,53.2c0,3.1-2.5,5.5-5.5,5.5s-5.5-2.5-5.5-5.5s5.5-8.8,5.5-8.8S62.6,50.1,62.6,53.2z"/>
		</defs>
		<clipPath id="SVGID_4_">
			<use xlink:href="#SVGID_3_"  style="overflow:visible;"/>
		</clipPath>
		<path class="st3" d="M57.2,44.4c0,0,6.8,10.6,0.6,14.2l-0.6,1.7l9.8-0.6l-4-14L57.2,44.4z"/>
	</g>
</g>
<g>
	<g>
		<defs>
			<path id="SVGID_5_" d="M48.3,72.5c0,3.1-2.5,5.5-5.5,5.5s-5.5-2.5-5.5-5.5c0-3.1,5.5-8.8,5.5-8.8S48.3,69.4,48.3,72.5z"/>
		</defs>
		<clipPath id="SVGID_6_">
			<use xlink:href="#SVGID_5_"  style="overflow:visible;"/>
		</clipPath>
		<path class="st4" d="M48.3,72.5c0,3.1-2.5,5.5-5.5,5.5s-5.5-2.5-5.5-5.5c0-3.1,5.5-8.8,5.5-8.8S48.3,69.4,48.3,72.5z"/>
	</g>
	<g>
		<defs>
			<path id="SVGID_7_" d="M48.3,72.5c0,3.1-2.5,5.5-5.5,5.5s-5.5-2.5-5.5-5.5c0-3.1,5.5-8.8,5.5-8.8S48.3,69.4,48.3,72.5z"/>
		</defs>
		<clipPath id="SVGID_8_">
			<use xlink:href="#SVGID_7_"  style="overflow:visible;"/>
		</clipPath>
		<path class="st5" d="M42.8,63.7c0,0,6.8,10.6,0.6,14.2l-0.6,1.7l9.8-0.6l-4-14L42.8,63.7z"/>
	</g>
</g>
<g>
	<g>
		<defs>
			<path id="SVGID_9_" d="M33.2,58.3c0,3.1-2.5,5.5-5.5,5.5s-5.5-2.5-5.5-5.5c0-3,5.5-8.8,5.5-8.8S33.2,55.2,33.2,58.3z"/>
		</defs>
		<clipPath id="SVGID_10_">
			<use xlink:href="#SVGID_9_"  style="overflow:visible;"/>
		</clipPath>
		<path class="st6" d="M33.2,58.3c0,3.1-2.5,5.5-5.5,5.5s-5.5-2.5-5.5-5.5c0-3,5.5-8.8,5.5-8.8S33.2,55.2,33.2,58.3z"/>
	</g>
	<g>
		<defs>
			<path id="SVGID_11_" d="M33.2,58.3c0,3.1-2.5,5.5-5.5,5.5s-5.5-2.5-5.5-5.5c0-3,5.5-8.8,5.5-8.8S33.2,55.2,33.2,58.3z"/>
		</defs>
		<clipPath id="SVGID_12_">
			<use xlink:href="#SVGID_11_"  style="overflow:visible;"/>
		</clipPath>
		<path class="st7" d="M27.8,49.5c0,0,6.8,10.6,0.6,14.2l-0.6,1.7l9.8-0.6l-4-14L27.8,49.5z"/>
	</g>
</g>
<path class="st8" d="M68.8,31.7c0,0-12.2,9.9-27.3,9.9s-27.3-9.9-27.3-9.9s12.2-9.9,27.3-9.9S68.8,31.7,68.8,31.7z"/>
<path class="st9" d="M65,31.8c0,0-10.6,7.3-23.6,7.3s-23.6-7.3-23.6-7.3s10.6-7.2,23.6-7.2S65,31.8,65,31.8z"/>
<circle class="st8" cx="41.5" cy="31.8" r="9"/>
<ellipse class="st9" cx="41.6" cy="31.7" rx="5" ry="7.1"/>
</svg>
