<?xml version="1.0" encoding="utf-8"?>
<!-- Generator: Adobe Illustrator 21.0.0, SVG Export Plug-In . SVG Version: 6.00 Build 0)  -->
<svg version="1.1" id="Layer_1" xmlns="http://www.w3.org/2000/svg" xmlns:xlink="http://www.w3.org/1999/xlink" x="0px" y="0px"
	 viewBox="0 0 80 80" style="enable-background:new 0 0 80 80;" xml:space="preserve">
<style type="text/css">
	.st0{clip-path:url(#SVGID_2_);fill:#CCCCCC;}
	.st1{clip-path:url(#SVGID_4_);fill:#BCBCBC;}
	.st2{clip-path:url(#SVGID_6_);fill:#BCBCBC;}
	.st3{clip-path:url(#SVGID_8_);fill:#705E52;}
	.st4{clip-path:url(#SVGID_10_);fill:#605146;}
	.st5{fill:#605146;}
</style>
<g>
	<defs>
		<path id="SVGID_1_" d="M37.5,55.2c0,0,34.4-16.8,28.7-35.9C60.3,20.4,55,23.5,54.5,25c2.6-0.6,6.3-0.6,5.2,0.6
			c-0.4,0.4-7,2.4-9.1,4.9c-4.5,5.4-8.9,9.6-17.6,16.9"/>
	</defs>
	<clipPath id="SVGID_2_">
		<use xlink:href="#SVGID_1_"  style="overflow:visible;"/>
	</clipPath>
	<path class="st0" d="M37.5,55.2c0,0,34.4-16.8,28.7-35.9C60.3,20.4,55,23.5,54.5,25c2.6-0.6,6.3-0.6,5.2,0.6
		c-0.4,0.4-7,2.4-9.1,4.9c-4.5,5.4-8.9,9.6-17.6,16.9"/>
</g>
<g>
	<defs>
		<path id="SVGID_3_" d="M37.5,55.2c0,0,34.4-16.8,28.7-35.9C60.3,20.4,55,23.5,54.5,25c2.6-0.6,6.3-0.6,5.2,0.6
			c-0.4,0.4-7,2.4-9.1,4.9c-4.5,5.4-8.9,9.6-17.6,16.9"/>
	</defs>
	<clipPath id="SVGID_4_">
		<use xlink:href="#SVGID_3_"  style="overflow:visible;"/>
	</clipPath>
	<path class="st1" d="M65.5,17.6c0.5,2-0.9,7.9-3.6,12.3c-2.7,4.4-20.7,16.5-20.9,17c-0.2,0.5,3.5,3.8,3.5,3.8l20.3-9.2l3.9-21.1
		l0.8-4.7C69.6,15.7,65.1,15.6,65.5,17.6z"/>
</g>
<g>
	<defs>
		<path id="SVGID_5_" d="M37.5,55.2c0,0,34.4-16.8,28.7-35.9C60.3,20.4,55,23.5,54.5,25c2.6-0.6,6.3-0.6,5.2,0.6
			c-0.4,0.4-7,2.4-9.1,4.9c-4.5,5.4-8.9,9.6-17.6,16.9"/>
	</defs>
	<clipPath id="SVGID_6_">
		<use xlink:href="#SVGID_5_"  style="overflow:visible;"/>
	</clipPath>
	<path class="st2" d="M66.8,19.2c0,0-10.6,4.6-10.5,6.1s-4-0.9-4-0.9l7.7-6.7L66.8,19.2z"/>
</g>
<g>
	<g>
		<defs>
			<path id="SVGID_7_" d="M33.8,44.4c0.6-0.6,6.9,5.1,5.1,10S21.2,67,17.5,74.6c-3.7,7.6-10-0.2-9.4-2.1
				C10.9,63.8,23.2,55.2,33.8,44.4z"/>
		</defs>
		<clipPath id="SVGID_8_">
			<use xlink:href="#SVGID_7_"  style="overflow:visible;"/>
		</clipPath>
		<path class="st3" d="M33.8,44.4c0.6-0.6,6.9,5.1,5.1,10S21.2,67,17.5,74.6c-3.7,7.6-10-0.2-9.4-2.1C10.9,63.8,23.2,55.2,33.8,44.4
			z"/>
	</g>
	<g>
		<defs>
			<path id="SVGID_9_" d="M33.8,44.4c0.6-0.6,6.9,5.1,5.1,10S21.2,67,17.5,74.6c-3.7,7.6-10-0.2-9.4-2.1
				C10.9,63.8,23.2,55.2,33.8,44.4z"/>
		</defs>
		<clipPath id="SVGID_10_">
			<use xlink:href="#SVGID_9_"  style="overflow:visible;"/>
		</clipPath>
		<path class="st4" d="M42.1,47.3l10,8.4L33.4,76.1c0,0-20,3.4-22.2,1.7c-0.7-0.6,3-0.3,3.8-2.1c2.8-7.2,15.3-17.9,20.6-20.2
			c4.9-2.1,3-8.4,3-8.4h3.6V47.3z"/>
	</g>
</g>
<circle class="st5" cx="32.8" cy="52.9" r="1.4"/>
<circle class="st5" cx="13.9" cy="71" r="1.4"/>
</svg>
