<?xml version="1.0" encoding="utf-8"?>
<!-- Generator: Adobe Illustrator 21.0.0, SVG Export Plug-In . SVG Version: 6.00 Build 0)  -->
<svg version="1.1" id="Layer_1" xmlns="http://www.w3.org/2000/svg" xmlns:xlink="http://www.w3.org/1999/xlink" x="0px" y="0px"
	 viewBox="0 0 80 80" style="enable-background:new 0 0 80 80;" xml:space="preserve">
<style type="text/css">
	.st0{clip-path:url(#SVGID_2_);fill:#B5B5B6;}
	.st1{clip-path:url(#SVGID_2_);fill:#969696;}
	.st2{clip-path:url(#SVGID_4_);fill:#B5B5B6;}
	.st3{clip-path:url(#SVGID_4_);fill:#969696;}
</style>
<g>
	<g>
		<defs>
			<path id="SVGID_1_" d="M66.3,78.7c3.6-1.1,2.8-6-0.1-9.5C63.4,65.7,42.5,31,42.6,30c0.1-1,3.3-5,3-6.4c-0.3-1.4-13.5-23-13.8-23
				s9.1,18.2,9.1,18.2s-0.9,2.3-1.6,1.1C38.6,18.8,29,1.8,28.7,1.9s8.7,18.3,8.7,19.3c0,1-1.2,0.9-1.7,0.3
				c-0.5-0.6-9.8-18.2-10.4-17.6c-0.5,0.6,8.2,17.8,8,18.7c-0.2,0.9-1.3,1.1-1.9,0.2c-0.6-0.9-8.5-17.5-9-17.3
				C22,5.7,31.2,28.3,32.6,29.7c1.4,1.4,6.9,1.3,7.3,2.2c0.4,0.9,17.4,39.3,19.6,43.6C61.9,80.4,66.3,78.7,66.3,78.7z"/>
		</defs>
		<clipPath id="SVGID_2_">
			<use xlink:href="#SVGID_1_"  style="overflow:visible;"/>
		</clipPath>
		<path class="st0" d="M66.3,78.7c3.6-1.1,2.8-6-0.1-9.5C63.4,65.7,42.5,31,42.6,30c0.1-1,3.3-5,3-6.4c-0.3-1.4-13.5-23-13.8-23
			s9.1,18.2,9.1,18.2s-0.9,2.3-1.6,1.1C38.6,18.8,29,1.8,28.7,1.9s8.7,18.3,8.7,19.3c0,1-1.2,0.9-1.7,0.3
			c-0.5-0.6-9.8-18.2-10.4-17.6c-0.5,0.6,8.2,17.8,8,18.7c-0.2,0.9-1.3,1.1-1.9,0.2c-0.6-0.9-8.5-17.5-9-17.3
			C22,5.7,31.2,28.3,32.6,29.7c1.4,1.4,6.9,1.3,7.3,2.2c0.4,0.9,17.4,39.3,19.6,43.6C61.9,80.4,66.3,78.7,66.3,78.7z"/>
		<path class="st1" d="M65.3,79c0,0,3.8-1.4-0.1-7.2C61.4,66.1,42.6,30,42.6,30s27.8,40,28.2,40.4S73,82,73,82l-7.6,0.3L65.3,79z"/>
		<polygon class="st1" points="45.9,25 30.8,-1 32.1,-0.3 46.5,23.9 		"/>
		<path class="st1" d="M39.3,20.6C38.2,20.1,24.9-5.6,24.9-5.6l0.8,1l15.1,23.7C40.8,19.1,40.1,20.9,39.3,20.6z"/>
		<path class="st1" d="M35.8,22.1C34.9,21.6,21.4-3.5,21.4-3.5l0.9,0.8l14.8,24.5C37.1,21.8,36.4,22.5,35.8,22.1z"/>
		<path class="st1" d="M31.6,23.6C30,22,18.8-3.1,18.8-3.1l1.3,0.8l13,25.3C33.1,23,32.2,24.2,31.6,23.6z"/>
	</g>
	<g>
		<defs>
			<path id="SVGID_3_" d="M41,40.8L9.2,20.7c0,0-2.9-1.9-4,0.1s17.3,21.2,27.5,25.2s2.7-5,13.8,2.6s24,17.7,25.2,18
				c1.8,0.4,7.5-2.8,4.1-6C72.3,57.2,41,40.8,41,40.8z"/>
		</defs>
		<clipPath id="SVGID_4_">
			<use xlink:href="#SVGID_3_"  style="overflow:visible;"/>
		</clipPath>
		<path class="st2" d="M41,40.8L9.2,20.7c0,0-2.9-1.9-4,0.1s17.3,21.2,27.5,25.2s2.7-5,13.8,2.6s24,17.7,25.2,18
			c1.8,0.4,7.5-2.8,4.1-6C72.3,57.2,41,40.8,41,40.8z"/>
		<path class="st3" d="M5.2,20.7c0,0,2-0.6,2.7-0.1C8.5,21.1,43.5,43.2,44,43.3C44.5,43.4,74.8,61,74.8,61c1.9,2.4,1.2,3.5,0.9,3.8
			c-0.4,0.3,3.1-2.6,3.1-2.6L74.2,54L25.6,27L5.7,16.3L5.2,20.7z"/>
	</g>
</g>
</svg>
