<?xml version="1.0" encoding="utf-8"?>
<!-- Generator: Adobe Illustrator 22.1.0, SVG Export Plug-In . SVG Version: 6.00 Build 0)  -->
<svg version="1.0" id="Layer_1" xmlns="http://www.w3.org/2000/svg" xmlns:xlink="http://www.w3.org/1999/xlink" x="0px" y="0px"
	 viewBox="0 0 80 80" style="enable-background:new 0 0 80 80;" xml:space="preserve">
<style type="text/css">
	.st0{fill:#B5B5B6;}
	.st1{fill:#969696;}
</style>
<g>
	<path class="st0" d="M44.8,34.3c-1.4-2.5-2.3-4.1-2.2-4.3c0.1-0.9,2.4-3.9,2.9-5.6L31.9,0.8c0.8,2.1,9,18,9,18s0,0.1-0.1,0.3l0,0
		c0,0-0.7,1.8-1.5,1.5C38.6,20.3,33.1,10,29.1,2.4c-0.2-0.3-0.4-0.5-0.4-0.5c-0.3,0.1,8.7,18.3,8.7,19.3c0,0.4-0.2,0.6-0.4,0.7
		c-0.2,0.2-0.7,0.5-1.2,0.2c-0.6-0.3-6.3-10.7-10.4-18.2c-0.1,0-0.1-0.1-0.1,0c-0.5,0.6,8.2,17.8,8,18.7c-0.1,0.2-0.2,0.4-0.3,0.6
		c-0.3,0.3-0.9,0.9-1.4,0.4c-0.9-0.9-5-9.6-8.3-16.8c-0.5-0.9-0.8-1.4-0.9-1.3C22,5.7,31.2,28.3,32.6,29.7c1.4,1.4,6.9,1.3,7.3,2.2
		c0.1,0.3,2.1,4.8,4.8,10.9c1.7,0.9,3.9,2.1,6.4,3.4C48.7,41.6,46.4,37.3,44.8,34.3z"/>
	<path class="st1" d="M65.2,71.8c3.3,5,1,6.7,0.3,7.1c0.5-0.1,0.8-0.2,0.8-0.2c3.6-1.1,2.8-6-0.1-9.5c-1-1.2-4.1-6.1-7.7-12.1
		c-0.8-0.6-1.6-1.2-2.5-1.8C60,62.8,63.7,69.6,65.2,71.8z"/>
	<path class="st1" d="M45.6,23.6c-0.3-1.4-13.5-23-13.8-23c0,0,0,0.1,0.1,0.2l13.7,23.5C45.6,24.1,45.6,23.8,45.6,23.6z"/>
	<path class="st1" d="M39.3,20.6c0.8,0.3,1.5-1.5,1.5-1.5l0,0c-0.3,0.6-0.9,1.8-1.5,0.8c-0.6-1-8.4-14.7-10.2-17.5
		C33.1,10,38.6,20.3,39.3,20.6z"/>
	<path class="st1" d="M35.8,22.1c0.5,0.3,1,0,1.2-0.2c-0.4,0.2-1,0-1.3-0.4c-0.5-0.6-9-16.7-10.3-17.6
		C29.5,11.4,35.2,21.8,35.8,22.1z"/>
	<path class="st1" d="M33,23.2c-0.4,0.4-1.1,0.3-1.6-0.4c-0.5-0.7-5.9-12-8.1-16c3.3,7.2,7.4,15.9,8.3,16.8
		C32.1,24.1,32.7,23.5,33,23.2z"/>
	<path class="st0" d="M75.7,64.8C75.7,64.8,75.7,64.8,75.7,64.8C75.6,64.8,75.7,64.8,75.7,64.8c0.3-0.4,0.9-1.5-0.9-3.8
		c0,0-30.3-17.6-30.8-17.7C43.5,43.2,8.5,21.1,7.9,20.6c-0.6-0.4-2.2,0-2.6,0.1c0,0-0.1,0.1-0.1,0.1C4.1,22.8,22.5,42,32.7,46
		s2.7-5,13.8,2.6c0.4,0.3,0.8,0.5,1.2,0.8c4.9,11.1,10.6,23.7,11.8,26.1c1.8,3.6,4.6,3.6,6,3.4c0.7-0.4,3-2.1-0.3-7.1
		c-1.5-2.2-5.2-9-9.2-16.5c0.8,0.6,1.7,1.2,2.5,1.8c6.9,5,12.5,9.3,13.2,9.5c1.1,0.2,3.4-0.8,4.5-2.3C76,64.5,75.8,64.7,75.7,64.8z"
		/>
	<path class="st1" d="M75.7,64.8C75.7,64.8,75.7,64.8,75.7,64.8C75.7,64.8,75.6,64.8,75.7,64.8z"/>
	<path class="st1" d="M7.9,20.6C8.5,21.1,43.5,43.2,44,43.3C44.5,43.4,74.8,61,74.8,61c1.8,2.3,1.3,3.4,0.9,3.8
		c0.1-0.1,0.3-0.2,0.5-0.4c0.8-1.1,1-2.4-0.5-3.7c-2.1-2-14.3-8.8-23.6-13.9c-2.9-4.8-5.5-9.3-7.3-12.5c1.6,3,3.8,7.3,6.3,11.9
		c-2.4-1.3-4.7-2.5-6.4-3.4c-2.3-1.2-3.7-2-3.7-2L9.2,20.7c0,0-2.8-1.8-3.9,0C5.7,20.6,7.3,20.2,7.9,20.6z"/>
</g>
</svg>
