<?xml version="1.0" encoding="utf-8"?>
<!-- Generator: Adobe Illustrator 21.0.0, SVG Export Plug-In . SVG Version: 6.00 Build 0)  -->
<svg version="1.1" id="Layer_1" xmlns="http://www.w3.org/2000/svg" xmlns:xlink="http://www.w3.org/1999/xlink" x="0px" y="0px"
	 viewBox="0 0 80 80" style="enable-background:new 0 0 80 80;" xml:space="preserve">
<style type="text/css">
	.st0{clip-path:url(#SVGID_2_);fill:#CC9A69;}
	.st1{clip-path:url(#SVGID_2_);fill:#AD825A;}
	.st2{clip-path:url(#SVGID_4_);fill:#CC9A69;}
	.st3{clip-path:url(#SVGID_4_);fill:#AD825A;}
</style>
<g>
	<defs>
		<circle id="SVGID_1_" cx="25.8" cy="10.4" r="8.1"/>
	</defs>
	<clipPath id="SVGID_2_">
		<use xlink:href="#SVGID_1_"  style="overflow:visible;"/>
	</clipPath>
	<circle class="st0" cx="25.8" cy="10.4" r="8.1"/>
	<path class="st1" d="M21.4,3.6c0,0,5.5-0.6,8.2,2.9s3,7.6,1.4,10.2c-1.6,2.6,6.6-5.1,6.6-5.1L33.9-1.8h-9.2L21.4,3.6z"/>
</g>
<g>
	<defs>
		<path id="SVGID_3_" d="M28.6,22.1c0.9-1.3,3.5-6.3,7.2-6.3c3.7-0.1,26.7,10.9,28.9,14.8c2.2,3.9-21.4-4.7-21.4-4.7l4.5,11.4l11,12
			c0,0,18.2,8.5,16.8,10.9c-1.4,2.4-21.9-2.6-22.7-3.3s-7.7-8.6-7.7-8.6l-8.7,9.6c0,0,3.1,20.8,1,20.8S27.4,57.5,27.4,55.7
			c0-1.7,9.4-12.8,9.4-12.9S32,33.7,32,33.7l-3.9,10.6c0,0-13.8,2.6-17,1c-3.1-1.6,12.1-7.2,11.9-7S28.6,22.1,28.6,22.1z"/>
	</defs>
	<clipPath id="SVGID_4_">
		<use xlink:href="#SVGID_3_"  style="overflow:visible;"/>
	</clipPath>
	<path class="st2" d="M28.6,22.1c0.9-1.3,3.5-6.3,7.2-6.3c3.7-0.1,26.7,10.9,28.9,14.8c2.2,3.9-21.4-4.7-21.4-4.7l4.5,11.4l11,12
		c0,0,18.2,8.5,16.8,10.9c-1.4,2.4-21.9-2.6-22.7-3.3s-7.7-8.6-7.7-8.6l-8.7,9.6c0,0,3.1,20.8,1,20.8S27.4,57.5,27.4,55.7
		c0-1.7,9.4-12.8,9.4-12.9S32,33.7,32,33.7l-3.9,10.6c0,0-13.8,2.6-17,1c-3.1-1.6,12.1-7.2,11.9-7S28.6,22.1,28.6,22.1z"/>
	<path class="st3" d="M45.2,48.2c-1.7,0.1-10.2,9-10.2,10s3.4,16.7,1.9,20.1c-1.4,3.4,4.6-1.9,4.6-1.9l0.7-17.2L45.2,48.2z"/>
	<path class="st3" d="M34.7,13.6c-1,1.5-4.4,2.6-2,3.2c2.4,0.6,19.2,6.6,28,11.9c2.7,1.6,6.3,5.6,6.1,3.7
		C66.8,30.5,52.1,19,46.9,16.9S34.7,13.6,34.7,13.6z"/>
	<path class="st3" d="M43.3,25.8c-0.8-0.6-0.3,4.9,0.3,6.7c0.5,1.7,1.1,5.2,1.6,6.3c0.5,1.1,9.2,10.5,11.4,12
		c2.2,1.5,18.1,10.9,19.7,9.8S63.8,47.3,63.8,47.3l-10-10.5C53.8,36.8,43.8,26.2,43.3,25.8z"/>
</g>
</svg>
