<?xml version="1.0" encoding="utf-8"?>
<!-- Generator: Adobe Illustrator 22.1.0, SVG Export Plug-In . SVG Version: 6.00 Build 0)  -->
<svg version="1.0" id="Layer_1" xmlns="http://www.w3.org/2000/svg" xmlns:xlink="http://www.w3.org/1999/xlink" x="0px" y="0px"
	 viewBox="0 0 80 80" style="enable-background:new 0 0 80 80;" xml:space="preserve">
<style type="text/css">
	.st0{fill:#CC9A69;}
	.st1{fill:#AD825A;}
</style>
<g>
	<path class="st0" d="M25.8,18.5c2,0,3.9-0.7,5.3-2c1.5-2.6,1.2-6.6-1.5-10c-2.7-3.5-8.1-2.9-8.2-2.9c-2.2,1.4-3.7,3.9-3.7,6.8
		C17.7,14.9,21.3,18.5,25.8,18.5z"/>
	<path class="st1" d="M29.6,6.5c2.6,3.4,3,7.4,1.5,10c1.7-1.5,2.8-3.7,2.8-6.1c0-4.5-3.6-8.1-8.1-8.1c-1.6,0-3.1,0.5-4.4,1.3
		C21.5,3.6,26.9,3,29.6,6.5z"/>
	<path class="st0" d="M56.6,50.8c-2.2-1.5-10.9-10.9-11.4-12c-0.5-1.1-1.1-4.6-1.6-6.3c-0.6-1.8-1.1-7.3-0.3-6.7
		c0,0,0.1,0.1,0.2,0.2c1.8,0.6,18.1,6.5,20.9,5.6c-1.1-0.9-2.5-2.1-3.7-2.8c-8.6-5.2-24.9-11-27.8-11.9c-2.1,1.5-3.6,4.3-4.3,5.3
		c0,0-5.8,16.4-5.6,16.2s-15,5.4-11.9,7c3.2,1.6,17-1,17-1L32,33.7c0,0,4.8,9,4.8,9.1c0,0.1-9.4,11.2-9.4,12.9
		c0,1.7,6.8,19.8,9.5,22.6c0,0,0,0,0,0c1.5-3.4-1.9-19.1-1.9-20.1s8.5-9.9,10.2-10l0,0.1l0,0c0,0,6.9,7.9,7.7,8.6
		c0.8,0.7,18.8,5.1,22.2,3.7C71,59.5,58.5,52.1,56.6,50.8z"/>
	<path class="st1" d="M35,58.2c0,1,3.4,16.7,1.9,20.1c0,0,0,0,0,0c0.2,0.2,0.4,0.4,0.6,0.4c2.1,0-1-20.8-1-20.8l8.7-9.6l0-0.1
		C43.5,48.3,35,57.2,35,58.2z"/>
	<path class="st1" d="M64.4,31.5c0.4-0.1,0.6-0.4,0.3-0.9c-2.2-3.9-25.2-14.9-28.9-14.8c-1.1,0-2,0.4-2.9,1
		c2.9,0.8,19.2,6.7,27.8,11.9C61.9,29.4,63.3,30.6,64.4,31.5z"/>
	<path class="st1" d="M43.6,32.5c0.5,1.7,1.1,5.2,1.6,6.3c0.5,1.1,9.2,10.5,11.4,12c1.9,1.3,14.4,8.7,18.5,9.8
		c0.2-0.1,0.4-0.2,0.5-0.4c1.4-2.4-16.8-10.9-16.8-10.9l-11-12l-4.5-11.4c0,0,0.1,0,0.2,0.1c-0.1-0.1-0.1-0.1-0.2-0.2
		C42.5,25.2,43,30.7,43.6,32.5z"/>
</g>
</svg>
