<svg id="Layer_1" xmlns="http://www.w3.org/2000/svg" xmlns:xlink="http://www.w3.org/1999/xlink" viewBox="0 0 80 80"><style>.st0{fill:#9e8b51}.st1{fill:#a07755}</style><path class="st0" d="M45.1 32.9c-1.7 3.1-1.5 4.4 2.1 2.9 3.5-1.5 5.4-1.1 5.2-3.5-.2-2.5-5.2-3.3-7.3.6z"/><path class="st1" d="M40.7 28c-.6 3.5.1 4.7 2.9 2s4.8-2.8 3.7-5.1c-1-2.2-5.9-1.2-6.6 3.1z"/><path d="M56.9 29.4c-2.5 2.6-2.5 3.9 1.3 3.3s5.5.3 5.9-2.1c.5-2.4-4.1-4.4-7.2-1.2z" fill="#b5a978"/><path class="st1" d="M65.6 30.2c-.8 3.5-.2 4.7 2.8 2.2s4.9-2.5 4.1-4.8c-.9-2.3-5.9-1.7-6.9 2.6z"/><path class="st0" d="M56.2 22.6c3.5.5 4.4 1.5 1.1 3.4-3.4 1.9-4.1 3.7-5.9 2.1-1.9-1.6.5-6.1 4.8-5.5z"/><defs><path id="SVGID_1_" d="M79.1 32.1c-.7-2.5-4.4-1-7.5.7-1 .6-5.6 3.3-6.7 5.2s2.2.9-3.8 4.6c-6.4 3.9-14.7 4.3-17.3 4.8-.4-.4-.8-.9.2-1.2 1.7-.5 8.8-.6 14.2-3.9s3.9-5.6 1.7-6.8-8.6 1.5-11.1 2.2-14.3.4-19.3 1.7c-5 1.4-8 4.9-11.1 8.5C12.3 55 .4 57.4.2 60.1s13.6 13.3 16.1 12.6c2.5-.7 11.3-12.5 18.8-14.6s20.1-2.9 24.6-6c23.9-15.9 20.1-17.5 19.4-20z"/></defs><clipPath id="SVGID_2_"><use xlink:href="#SVGID_1_" overflow="visible"/></clipPath><path d="M79.1 32.1c-.7-2.5-4.4-1-7.5.7-1 .6-5.6 3.3-6.7 5.2s2.2.9-3.8 4.6c-6.4 3.9-14.7 4.3-17.3 4.8-.4-.4-.8-.9.2-1.2 1.7-.5 8.8-.6 14.2-3.9s3.9-5.6 1.7-6.8-8.6 1.5-11.1 2.2-14.3.4-19.3 1.7c-5 1.4-8 4.9-11.1 8.5C12.3 55 .4 57.4.2 60.1s13.6 13.3 16.1 12.6c2.5-.7 11.3-12.5 18.8-14.6s20.1-2.9 24.6-6c23.9-15.9 20.1-17.5 19.4-20z" clip-path="url(#SVGID_2_)" fill="#cc9a69"/><path d="M79.7 32.8c-.7 1.8-13.5 15.5-23.2 18.5s-26.3 4.7-30 9.5-12.6 11-13.3 12.6c-.8 1.6 7.3 1.5 7.6 1.5s24.5-10.4 25.7-11.2c1.2-.8 23-9.7 24.4-10.3C72.3 52.8 82.2 36 82.2 36l-2.5-3.2z" clip-path="url(#SVGID_2_)" fill="#b5885e"/></svg>