<svg id="Layer_1" xmlns="http://www.w3.org/2000/svg" xmlns:xlink="http://www.w3.org/1999/xlink" viewBox="0 0 80 80"><style>.st2{fill:#ddb552}.st3{fill:#ffd45c}</style><defs><path id="SVGID_1_" d="M79.1 32.1c-.7-2.5-4.4-1-7.5.7-1 .6-5.6 3.3-6.7 5.2s2.2.9-3.8 4.6c-6.4 3.9-14.7 4.3-17.3 4.8-.4-.4-.8-.9.2-1.2 1.7-.5 8.8-.6 14.2-3.9s3.9-5.6 1.7-6.8-8.6 1.5-11.1 2.2-14.3.4-19.3 1.7c-5 1.4-8 4.9-11.1 8.5C12.3 55 .4 57.4.2 60.1s13.6 13.3 16.1 12.6 11.3-12.5 18.8-14.6 20.1-2.9 24.6-6c23.9-15.9 20.1-17.5 19.4-20z"/></defs><clipPath id="SVGID_2_"><use xlink:href="#SVGID_1_" overflow="visible"/></clipPath><path d="M79.1 32.1c-.7-2.5-4.4-1-7.5.7-1 .6-5.6 3.3-6.7 5.2s2.2.9-3.8 4.6c-6.4 3.9-14.7 4.3-17.3 4.8-.4-.4-.8-.9.2-1.2 1.7-.5 8.8-.6 14.2-3.9s3.9-5.6 1.7-6.8-8.6 1.5-11.1 2.2-14.3.4-19.3 1.7c-5 1.4-8 4.9-11.1 8.5C12.3 55 .4 57.4.2 60.1s13.6 13.3 16.1 12.6 11.3-12.5 18.8-14.6 20.1-2.9 24.6-6c23.9-15.9 20.1-17.5 19.4-20z" clip-path="url(#SVGID_2_)" fill="#cc9a69"/><defs><path id="SVGID_3_" d="M79.1 32.1c-.7-2.5-4.4-1-7.5.7-1 .6-5.6 3.3-6.7 5.2s2.2.9-3.8 4.6c-6.4 3.9-14.7 4.3-17.3 4.8-.4-.4-.8-.9.2-1.2 1.7-.5 8.8-.6 14.2-3.9s3.9-5.6 1.7-6.8-8.6 1.5-11.1 2.2-14.3.4-19.3 1.7c-5 1.4-8 4.9-11.1 8.5C12.3 55 .4 57.4.2 60.1s13.6 13.3 16.1 12.6 11.3-12.5 18.8-14.6 20.1-2.9 24.6-6c23.9-15.9 20.1-17.5 19.4-20z"/></defs><clipPath id="SVGID_4_"><use xlink:href="#SVGID_3_" overflow="visible"/></clipPath><path d="M79.7 32.8c-.7 1.8-13.5 15.5-23.2 18.5s-26.3 4.7-30 9.5-12.6 11-13.3 12.6c-.8 1.6 7.3 1.5 7.6 1.5s24.5-10.4 25.7-11.2 23-9.7 24.4-10.3S82.2 36 82.2 36l-2.5-3.2z" clip-path="url(#SVGID_4_)" fill="#b5885e"/><g><ellipse transform="rotate(-6.31 57.2 30.4)" class="st2" cx="57.2" cy="30.4" rx="6.5" ry="3.7"/><ellipse transform="rotate(-6.31 57.2 29.3)" class="st3" cx="57.2" cy="29.3" rx="6.5" ry="3.7"/></g><g><ellipse transform="rotate(-81.07 68.18 24.93)" class="st2" cx="68.2" cy="24.9" rx="3.7" ry="6.5"/><ellipse transform="rotate(-81.07 68.5 23.88)" class="st3" cx="68.5" cy="23.9" rx="3.7" ry="6.5"/></g><g><ellipse transform="rotate(-86.95 41.65 31.38) scale(1.00002)" class="st2" cx="41.7" cy="31.4" rx="3.7" ry="6.5"/><ellipse transform="rotate(-86.95 41.79 30.3) scale(1.00002)" class="st3" cx="41.8" cy="30.3" rx="3.7" ry="6.5"/></g><g><ellipse transform="rotate(-16.84 50.2 22.3)" class="st2" cx="50.2" cy="22.3" rx="6.5" ry="3.7"/><ellipse transform="rotate(-16.84 50 21.2)" class="st3" cx="50" cy="21.2" rx="6.5" ry="3.7"/></g></svg>