<?xml version="1.0" encoding="utf-8"?>
<!-- Generator: Adobe Illustrator 22.1.0, SVG Export Plug-In . SVG Version: 6.00 Build 0)  -->
<svg version="1.0" id="Layer_1" xmlns="http://www.w3.org/2000/svg" xmlns:xlink="http://www.w3.org/1999/xlink" x="0px" y="0px"
	 viewBox="0 0 80 80" style="enable-background:new 0 0 80 80;" xml:space="preserve">
<style type="text/css">
	.st0{fill:#CC9A69;}
	.st1{fill:#B5885E;}
	.st2{fill:#DDB552;}
	.st3{fill:#FFD45C;}
</style>
<g>
	<path class="st0" d="M26.5,60.8c3.7-4.8,20.3-6.5,30-9.5c9.2-2.9,21.2-15.4,23-18.1c-0.1-0.4-0.3-0.7-0.4-1.1
		c-0.7-2.5-4.4-1-7.5,0.7c-1,0.6-5.6,3.3-6.7,5.2c-1.1,1.9,2.2,0.9-3.8,4.6c-6.4,3.9-14.7,4.3-17.3,4.8C43.4,47,43,46.5,44,46.2
		c1.7-0.5,8.8-0.6,14.2-3.9c5.4-3.3,3.9-5.6,1.7-6.8c-2.2-1.2-8.6,1.5-11.1,2.2s-14.3,0.4-19.3,1.7c-5,1.4-8,4.9-11.1,8.5
		c-6.1,7.1-18,9.5-18.2,12.2c-0.2,2.3,9.4,10,14,12.1C16.8,69.7,23.4,64.8,26.5,60.8z"/>
	<path class="st1" d="M56.5,51.3c-9.7,3-26.3,4.7-30,9.5c-3.1,4-9.7,8.9-12.3,11.4c0.9,0.4,1.7,0.6,2.1,0.5
		c2.5-0.7,11.3-12.5,18.8-14.6c7.5-2.1,20.1-2.9,24.6-6c20.5-13.6,20.6-16.7,19.8-18.9C77.7,35.9,65.7,48.4,56.5,51.3z"/>
	<path class="st2" d="M57.6,34.1c0,0,0.1,0,0.1,0c0.1,0,0.2,0,0.3-0.1c3.3-0.7,5.6-2.7,5.6-4.6c-0.5,1.7-2.9,3.2-6,3.6
		c-3.1,0.3-5.8-0.6-6.6-2.2c0.4-1.7,2.6-3.4,5.5-4c0.1,0,0.2,0,0.3-0.1c0,0,0,0,0,0c-0.1,0-0.2,0-0.3,0c0,0-0.1,0-0.1,0
		c-3.3,0.7-5.7,2.8-5.6,4.7C51.3,33.3,54.2,34.4,57.6,34.1z"/>
	<path class="st3" d="M51,30.8c0.8,1.6,3.5,2.5,6.6,2.2c3.1-0.3,5.5-1.9,6-3.6c0-0.1,0.1-0.3,0.1-0.4c0,0,0,0,0,0
		c-0.4-1.9-3.5-2.9-6.9-2.2c-0.1,0-0.2,0-0.3,0.1C53.6,27.4,51.4,29.1,51,30.8z"/>
	<path class="st2" d="M67.6,28.6c3.5,0.6,6.7-0.6,7-2.6c0-0.1,0-0.2,0-0.2c-0.9,1.5-3.6,2.3-6.7,1.8c-3.4-0.5-5.9-2.5-5.9-4.4
		c-0.2,0.3-0.3,0.5-0.3,0.8C61.4,25.9,64.1,28,67.6,28.6z"/>
	<path class="st3" d="M67.9,27.5c3,0.5,5.8-0.3,6.7-1.8c0.2-0.3,0.3-0.5,0.3-0.8c0.3-2-2.3-4.1-5.8-4.7c-3.5-0.6-6.7,0.6-7,2.6
		c0,0.1,0,0.2,0,0.2C62,25.1,64.5,27,67.9,27.5z"/>
	<path class="st2" d="M41.5,35.1c3.6,0.2,6.6-1.3,6.7-3.3c0-0.1,0-0.3,0-0.4c-0.7,1.7-3.4,2.8-6.5,2.7c-3.3-0.2-6-1.8-6.3-3.6
		c-0.1,0.2-0.1,0.4-0.2,0.7C35.1,33.1,37.9,34.9,41.5,35.1z"/>
	<path class="st3" d="M41.6,34c3.2,0.2,5.9-1,6.5-2.7c0.1-0.2,0.1-0.4,0.2-0.7c0.1-2-2.7-3.8-6.3-4c-3.6-0.2-6.6,1.3-6.7,3.3
		c0,0.1,0,0.3,0,0.4C35.6,32.2,38.2,33.8,41.6,34z"/>
	<path class="st2" d="M51.1,24.7c-3.2,1-6.3,0.4-7.2-1.3c0,0.3,0,0.5,0.1,0.8c0.6,2,3.9,2.7,7.3,1.7c3.4-1,5.7-3.5,5.1-5.4
		c0-0.1-0.1-0.2-0.1-0.3C56.2,21.9,54.1,23.8,51.1,24.7z"/>
	<path class="st3" d="M43.9,23.4c0.8,1.7,3.9,2.3,7.2,1.3c3-0.9,5.1-2.9,5.2-4.6c0-0.3,0-0.5-0.1-0.8c-0.6-2-3.9-2.7-7.3-1.7
		s-5.7,3.5-5.1,5.4C43.8,23.2,43.9,23.3,43.9,23.4z"/>
</g>
</svg>
