<?xml version="1.0" encoding="utf-8"?>
<!-- Generator: Adobe Illustrator 21.0.0, SVG Export Plug-In . SVG Version: 6.00 Build 0)  -->
<svg version="1.1" id="Layer_1" xmlns="http://www.w3.org/2000/svg" xmlns:xlink="http://www.w3.org/1999/xlink" x="0px" y="0px"
	 viewBox="0 0 80 80" style="enable-background:new 0 0 80 80;" xml:space="preserve">
<style type="text/css">
	.st0{clip-path:url(#SVGID_2_);fill:#CC9A69;}
	.st1{clip-path:url(#SVGID_4_);fill:#B5885E;}
	.st2{fill:#B7302C;}
	.st3{fill:#992626;}
</style>
<g>
	<defs>
		<path id="SVGID_1_" d="M79.1,32.1c-0.7-2.5-4.4-1-7.5,0.7c-1,0.6-5.6,3.3-6.7,5.2s2.2,0.9-3.8,4.6c-6.4,3.9-14.7,4.3-17.3,4.8
			C43.4,47,43,46.5,44,46.2c1.7-0.5,8.8-0.6,14.2-3.9s3.9-5.6,1.7-6.8s-8.6,1.5-11.1,2.2s-14.3,0.4-19.3,1.7c-5,1.4-8,4.9-11.1,8.5
			c-6.1,7.1-18,9.5-18.2,12.2s13.6,13.3,16.1,12.6c2.5-0.7,11.3-12.5,18.8-14.6s20.1-2.9,24.6-6C83.6,36.2,79.8,34.6,79.1,32.1z"/>
	</defs>
	<clipPath id="SVGID_2_">
		<use xlink:href="#SVGID_1_"  style="overflow:visible;"/>
	</clipPath>
	<path class="st0" d="M79.1,32.1c-0.7-2.5-4.4-1-7.5,0.7c-1,0.6-5.6,3.3-6.7,5.2s2.2,0.9-3.8,4.6c-6.4,3.9-14.7,4.3-17.3,4.8
		C43.4,47,43,46.5,44,46.2c1.7-0.5,8.8-0.6,14.2-3.9s3.9-5.6,1.7-6.8s-8.6,1.5-11.1,2.2s-14.3,0.4-19.3,1.7c-5,1.4-8,4.9-11.1,8.5
		c-6.1,7.1-18,9.5-18.2,12.2s13.6,13.3,16.1,12.6c2.5-0.7,11.3-12.5,18.8-14.6s20.1-2.9,24.6-6C83.6,36.2,79.8,34.6,79.1,32.1z"/>
</g>
<g>
	<defs>
		<path id="SVGID_3_" d="M79.1,32.1c-0.7-2.5-4.4-1-7.5,0.7c-1,0.6-5.6,3.3-6.7,5.2s2.2,0.9-3.8,4.6c-6.4,3.9-14.7,4.3-17.3,4.8
			C43.4,47,43,46.5,44,46.2c1.7-0.5,8.8-0.6,14.2-3.9s3.9-5.6,1.7-6.8s-8.6,1.5-11.1,2.2s-14.3,0.4-19.3,1.7c-5,1.4-8,4.9-11.1,8.5
			c-6.1,7.1-18,9.5-18.2,12.2s13.6,13.3,16.1,12.6c2.5-0.7,11.3-12.5,18.8-14.6s20.1-2.9,24.6-6C83.6,36.2,79.8,34.6,79.1,32.1z"/>
	</defs>
	<clipPath id="SVGID_4_">
		<use xlink:href="#SVGID_3_"  style="overflow:visible;"/>
	</clipPath>
	<path class="st1" d="M79.7,32.8C79,34.6,66.2,48.3,56.5,51.3s-26.3,4.7-30,9.5s-12.6,11-13.3,12.6c-0.8,1.6,7.3,1.5,7.6,1.5
		s24.5-10.4,25.7-11.2c1.2-0.8,23-9.7,24.4-10.3C72.3,52.8,82.2,36,82.2,36L79.7,32.8z"/>
</g>
<path class="st2" d="M40.5,33.9c2.1-0.4,10.5-0.7,12.5-0.9s8-2.7,9.6-1.7c1.5,0.9,5.2-1.6,6.9-2.1c1.7-0.5,5.1-11.7-17-10.5
	C29.9,19.9,31.5,35.5,40.5,33.9z"/>
<path class="st3" d="M37,33.6c0,0,12.1,1.5,11.2-4.3c0.6,3.3,3.9,3.1,7,2.6c2.9-0.4,5.6-1.1,5.9-3.7c0.6,5.9,7.7,1.2,9.3-0.2
	c-0.5,1.9-2,5.1-9.6,3.8c-2.3,1.5-8.3,2.1-11.9,1.7C44,37,39.3,34.2,37,33.6z"/>
</svg>
