<?xml version="1.0" encoding="utf-8"?>
<!-- Generator: Adobe Illustrator 22.1.0, SVG Export Plug-In . SVG Version: 6.00 Build 0)  -->
<svg version="1.1" id="Layer_1" xmlns="http://www.w3.org/2000/svg" xmlns:xlink="http://www.w3.org/1999/xlink" x="0px" y="0px"
	 viewBox="0 0 80 80" style="enable-background:new 0 0 80 80;" xml:space="preserve">
<style type="text/css">
	.st0{fill:#80122C;}
	.st1{fill:#EDEDED;}
	.st2{fill:#D66969;}
	.st3{opacity:6.000000e-02;fill:#FFFFFF;enable-background:new    ;}
</style>
<g id="Layer_2_1_">
	<path class="st0" d="M64.9,50.9c-1.3-1.2-12.3-10-12.3-10L31,37.4l-13.3,1.7l0.3,4.2c0,0,9.5,3.6,13.3,4.4s30,4.2,30,4.2L64.9,50.9
		z"/>
	<polygon class="st1" points="55.9,42.4 54.3,46 42.2,44.2 42.2,42.8 41.3,44.2 29.5,41 29.1,37 42.5,38.8 	"/>
	<path class="st2" d="M74.7,52.3c1.8-3.7-13.9-23.6-22.2-24.1c-3.6-0.2-5.1,2.4-8.7,1.9c-3.6-0.5-3.2-6.5-10.7-6.5S7,33.9,7.9,39.9
		c0.7,4.8,24.8-0.8,27.2-0.8s3.5,2.2,7.3,2.8s3.3,0.1,6.7-0.1C52.9,41.6,71.5,58.7,74.7,52.3z"/>
	<path class="st2" d="M7.9,39.9c0-4.6,26.1,6.3,33.9,7.4c7.8,1.1,30.9,1.8,32.8,4.1s-15.9,16-37.7,12.3C14.6,59.8,7.9,43.5,7.9,39.9
		z"/>
	<path class="st3" d="M65.1,45.7c4-1.4-7-12.1-9.9-13.1c-4-1.4-11.9,3.4-13.8,1c-1.9-2.4-9-5.8-16.2-1s4,2.1,9.5,2.7
		c0.7,0.1,4.7,2.6,8.7,3.3c3.9,0.7,7.9-0.5,9.9-0.3C58.8,38.8,62.4,46.7,65.1,45.7z"/>
	<path class="st3" d="M61.6,41.8c3.3-1.2-6-7.4-8.4-8.3c-3.3-1.1-10.3,3.3-11.9,1.3c-1.6-2-7.4-6.3-13.3-2.3s3,1.2,7.6,1.8
		c0.6,0.1,4.2,2.7,7.6,3.3c3.2,0.5,8.3-1.1,10-0.9C57.7,37.1,59.4,42.6,61.6,41.8z"/>
	<path class="st3" d="M65.5,55.1c-8.7,6.8-44.5,6.3-50.6-9.5C12,38.1,26,48.7,40.4,51.2C56.4,53.9,73,49.2,65.5,55.1z"/>
	<path class="st3" d="M58,55.1c-6.3,5-32.4,4.6-36.8-6.9c-2.1-5.5,8,2.3,18.6,4.1C51.4,54.3,63.4,50.9,58,55.1z"/>
</g>
</svg>
