<?xml version="1.0" encoding="utf-8"?>
<!-- Generator: Adobe Illustrator 22.1.0, SVG Export Plug-In . SVG Version: 6.00 Build 0)  -->
<svg version="1.1" id="Layer_1" xmlns="http://www.w3.org/2000/svg" xmlns:xlink="http://www.w3.org/1999/xlink" x="0px" y="0px"
	 viewBox="0 0 80 80" style="enable-background:new 0 0 80 80;" xml:space="preserve">
<style type="text/css">
	.st0{fill:#DB955A;}
	.st1{clip-path:url(#SVGID_2_);fill:#BF8051;}
	.st2{clip-path:url(#SVGID_4_);fill:#BF8051;}
	.st3{fill:#8888D8;}
</style>
<g>
	<g>
		<g>
			<g>
				<g>
					<path class="st0" d="M49.5,57.6l-3,0.1c-0.6,0-1.1,0.6-1.3,1.1c-0.4,1.5-1.3,4-4,7.5c-3,4-8.1,2-10.5,0.9
						c-0.7-0.4-1.6-0.2-2,0.5l-2.3,3.5l-3.2,4.9c-0.2,0.5-0.7,0.9-1.2,1c-4.3,0.7-18.8-7-15.8-14.9C12,47.4,8.4,36.7,9.7,33.5
						c1.3-3.3,4.5-21.2,27.7-12.8c21.1,7.6,14,23.1,12.5,25.8c-0.1,0.3-0.2,0.6-0.2,0.9l1,8.3C50.8,56.4,50.3,57.4,49.5,57.6z"/>
				</g>
			</g>
		</g>
	</g>
	<g>
		<g>
			<g>
				<g>
					<g>
						<g>
							<g>
								<defs>
									<path id="SVGID_1_" d="M49.5,57.6l-3,0.1c-0.6,0-1.1,0.6-1.3,1.1c-0.4,1.5-1.3,4-4,7.5c-3,4-8.1,2-10.5,0.9
										c-0.7-0.4-1.6-0.2-2,0.5l-2.3,3.5l-0.1,0.2c-0.3,0.4-0.8,0.8-1.3,0.9c-4.1,0.7-23.8,3-18.7-10.1C12,47.4,8.4,36.7,9.7,33.5
										c1.3-3.3,4.5-21.2,27.7-12.8c21.1,7.6,14,23.1,12.5,25.8c-0.1,0.3-0.2,0.6-0.2,0.9l1,8.3C50.8,56.4,50.3,57.4,49.5,57.6z"
										/>
								</defs>
								<clipPath id="SVGID_2_">
									<use xlink:href="#SVGID_1_"  style="overflow:visible;"/>
								</clipPath>
								<path class="st1" d="M41.5,46.3l-3,0.8c-1.2,0.4-2.6,0.2-3.7-0.3c-1.4-0.6-2.9-0.7-4.4-0.2c-1.5,0.7-3.3,0.5-4.7-0.3
									L22,44.4l-3-1.8c-2.1-1.3-3.3-3.6-2.9-6l0.8-3.9c0-0.3,0.1-0.7,0.2-0.9l1.2-3.6c0.4-1.3,1.2-2.5,2.4-3.1l0.5-0.3
									c1.2-0.7,2.5-1.1,3.8-0.9l6.3,0.7c0.1-0.1,0.4,0,0.5,0l6.6,1.3l1.1,0.4l2.9,1.2c2,0.9,3.3,2.7,3.5,4.9l0.3,3.9
									c0,0.5,0,0.8,0.1,1.1l0.2,0.9c0.6,2.6-0.3,5-2.5,6.6l-1,0.6C42.5,45.7,41.9,45.8,41.5,46.3z"/>
							</g>
						</g>
					</g>
				</g>
			</g>
		</g>
	</g>
	<g>
		<g>
			<g>
				<g>
					<g>
						<g>
							<g>
								<defs>
									<path id="SVGID_3_" d="M49.5,57.6l-3,0.1c-0.6,0-1.1,0.6-1.3,1.1c-0.4,1.5-1.3,4-4,7.5c-3,4-8.1,2-10.5,0.9
										c-0.7-0.4-1.6-0.2-2,0.5l-2.3,3.5l-0.1,0.2c-0.3,0.4-0.8,0.8-1.3,0.9c-4.1,0.7-23.8,3-18.7-10.1C12,47.4,8.4,36.7,9.7,33.5
										c1.3-3.3,4.5-21.2,27.7-12.8c21.1,7.6,14,23.1,12.5,25.8c-0.1,0.3-0.2,0.6-0.2,0.9l1,8.3C50.8,56.4,50.3,57.4,49.5,57.6z"
										/>
								</defs>
								<clipPath id="SVGID_4_">
									<use xlink:href="#SVGID_3_"  style="overflow:visible;"/>
								</clipPath>
								<path class="st2" d="M30.2,70.5c-14-9-14.8-15.6-14.8-15.6c15,17.5,28,14.8,28,14.8"/>
							</g>
						</g>
					</g>
				</g>
			</g>
		</g>
	</g>
</g>
<g>
	<path class="st3" d="M16.7,14.6c0.8-1.4,2.1-2.4,3.4-3.3c1.3-0.9,2.8-1.6,4.3-2.2c3-1.2,6.3-1.8,9.5-1.7c3.3,0.1,6.5,0.8,9.4,2.1
		c0.7,0.3,1.5,0.7,2.2,1c0.7,0.4,1.4,0.8,2,1.3l1,0.7c0.3,0.3,0.6,0.5,0.9,0.8c0.6,0.5,1.2,1,1.7,1.6c-2.9-1.1-5.7-2.4-8.6-3.1
		c-2.9-0.7-5.8-1.2-8.7-1.3s-5.9,0.2-8.8,0.9c-1.4,0.4-2.9,0.7-4.3,1.3C19.4,13,18,13.7,16.7,14.6z"/>
</g>
<g>
	<path class="st3" d="M42.4,17.6c1.6-0.3,3.3-0.2,5,0.1c1.6,0.3,3.3,0.8,4.8,1.5c3.1,1.4,5.9,3.8,7.7,7c1.8,3.1,2.3,6.8,1.9,10.2
		c-0.4,3.4-1.6,6.5-3.4,9.3c0.2-3.3,0.5-6.4,0.3-9.4c-0.2-3-0.9-5.8-2.3-8.2C55,25.8,53,23.7,50.6,22C48.2,20.2,45.4,18.8,42.4,17.6
		z"/>
</g>
<g>
	<path class="st3" d="M42.4,4.4c4.4,0,8.8,0.7,13,2.4c1,0.5,2.1,0.8,3.1,1.4L60,9.1c0.2,0.1,0.5,0.3,0.7,0.4l0.7,0.5
		c0.9,0.7,1.8,1.3,2.6,2.2c0.8,0.8,1.7,1.6,2.3,2.5c2.9,3.6,4.5,8.1,4.8,12.7c0.4,4.5-0.6,9-2.4,13c0.7-4.3,0.9-8.6,0.1-12.7
		c-0.7-4.1-2.4-7.9-4.9-11.1s-5.8-5.8-9.5-7.7C50.7,7,46.6,5.6,42.4,4.4z"/>
</g>
</svg>
