<?xml version="1.0" encoding="utf-8"?>
<!-- Generator: Adobe Illustrator 22.1.0, SVG Export Plug-In . SVG Version: 6.00 Build 0)  -->
<svg version="1.0" id="Layer_1" xmlns="http://www.w3.org/2000/svg" xmlns:xlink="http://www.w3.org/1999/xlink" x="0px" y="0px"
	 viewBox="0 0 80 80" style="enable-background:new 0 0 80 80;" xml:space="preserve">
<style type="text/css">
	.st0{fill:#CE3E3E;}
</style>
<path class="st0" d="M42.5,32.2c-8.8-10-19.7-18.6-31.2-19.8C-13.8,9.8,18.6,28.7,26.1,32c3.3,1.5,6.4,3.2,9.2,5
	c-9.6,6.8-17.5,15.2-19.7,24.7c-5.5,24.6,8.5,3.7,13-3.3c1.7-2.7,7.7-8.5,15-15c9.5,8.4,15.3,17.7,19.1,22.3
	c3.1,3.7-3.1-11.3-14.4-26.4C59.2,30,71.6,20.5,77.8,17.7C84.8,14.5,62.5,20.3,42.5,32.2z"/>
</svg>
