<svg id="Layer_1" xmlns="http://www.w3.org/2000/svg" xmlns:xlink="http://www.w3.org/1999/xlink" viewBox="0 0 80 80"><style>.st2{clip-path:url(#SVGID_2_);fill:#bf8051}.st3{fill:#b7b7b7}</style><defs><path id="SVGID_1_" d="M43.6 40.5l-2.8 3.2c-.3.3-.5.9-.3 1.4.3.7-15.4 6-2.9 14.7 2 1.4 4.7-.4 6.5.4.3.1 0 1.2.2 2.2.2.9.9 1.8.9 2 .2 4.3-3.4 5.1-5.6 5.5-.7.1-1.2-.1-1.5-.1l-2.7 5.3c0 .4-16.6-.6-18.6-3.6C13.1 58.6 8 60.7 3.1 51.6.5 46.9.3 32.9 12.5 27.9c18.1-6 23.3 3.9 23.7 6.5.1.2.2.5.3.7l7.1 3.5c.4.5.5 1.4 0 1.9z"/></defs><clipPath id="SVGID_2_"><use xlink:href="#SVGID_1_" overflow="visible"/></clipPath><path d="M43.6 40.5l-2.8 3.2c-.3.3-.5.9-.3 1.4.3.7-15.4 6-2.9 14.7 2 1.4 4.7-.4 6.5.4.3.1 0 1.2.2 2.2.2.9.9 1.8.9 2 .2 4.3-3.8 5.2-6 5.6-.7.1-1-.2-1.1-.2l-2.7 5.3c0 .4-16.6-.6-18.6-3.6C13.1 58.6 8 60.7 3.1 51.6.5 46.9.3 32.9 12.5 27.9c18.1-6 23.3 3.9 23.7 6.5.1.2.2.5.3.7l7.1 3.5c.4.5.5 1.4 0 1.9z" clip-path="url(#SVGID_2_)" fill="#db955a"/><path class="st2" d="M38.3 69.8s-10.9-2.2-13.2-4.6c0 0 1 4 16.3 6.3M26.9 26.4S3.1 26 4.6 45.9c.9 11.7 4.7 9.4 9.1 17.9s-13 1.9-13 1.9L-13 34 2.8 21.2l24.1 5.2z"/><path class="st3" d="M45.3 44.9l6.2-8.1 6.8-.7 8.5-6.3-7.2 9-7.3.1zM51.2 54.9l9.1-5.1 7.6 2.4 8.4-1.6-8 4.3-7.3-2.3zM40.7 54l7.1-8.4 6.3 1.8 7.7-4.2-7.2 6.3-5.9-1.3z"/></svg>