<svg id="Layer_1" xmlns="http://www.w3.org/2000/svg" viewBox="0 0 80 80"><style>.st2{fill:#444}</style><path d="M21.9 58.1l-13 8.7 2.6 2.6 11-2.8c.7-.3 1.4-.5 2.2-.5h35.9c5.6 0 10.3-4.5 10.4-10.2l.2-12.6c.1-5.8-3.8-13.1-12.2-13.1l-26.4 2.6c-5.7 0-10.3 4.6-10.4 10.3l-.3 15z" fill="#b5b5b5"/><path d="M19.3 55.6L8.9 66.8l11-2.8c.7-.3 1.4-.5 2.2-.5H58c5.6 0 10.3-4.5 10.4-10.2l.2-12.6c.1-5.8-4.6-10.6-10.4-10.6H29.9c-5.7 0-10.3 4.6-10.4 10.3l-.2 15.2z" fill="#d3d3d3"/><path class="st2" d="M28.6 37.9H50v1.9H28.6zM51.9 37.9h9.3v1.9h-9.3zM28.6 43.6h6.3v1.9h-6.3zM36.7 43.6H43v1.9h-6.3zM54.5 43.6H44.7v1.8h16.5v-1.8zM28.6 49.3h32.6v1.9H28.6zM28.6 55h8.1v1.9h-8.1zM38.7 55h22.6v1.9H38.7z"/></svg>