<?xml version="1.0" encoding="utf-8"?>
<!-- Generator: Adobe Illustrator 21.0.0, SVG Export Plug-In . SVG Version: 6.00 Build 0)  -->
<svg version="1.1" id="Layer_1" xmlns="http://www.w3.org/2000/svg" xmlns:xlink="http://www.w3.org/1999/xlink" x="0px" y="0px"
	 viewBox="0 0 80 80" style="enable-background:new 0 0 80 80;" xml:space="preserve">
<style type="text/css">
	.st0{fill:#CC9A69;}
	.st1{fill:#B5885E;}
	.st2{fill:#FFFFFF;}
</style>
<g>
	<g>
		<path class="st0" d="M45.3,64.1c-6.3,0-11.3-5-17.6-11.3c-1.9-1.9-3.5-3.5-5-4.9c-1.9-1.8-2.4-2.3-1.5-3.3
			c0.3-0.4,0.7-0.7,1.2-0.9c0.5-0.2,1.1-0.4,1.6-0.4c0.9,0,1.8,0.3,2.4,1l5,4.2c0.1,0.1,0.2,0.1,0.3,0.1c0.1,0,0.2,0,0.3-0.1
			c0.1-0.1,0.3-0.3,0.1-0.6l-10-20.3c-0.5-0.9-0.4-2,0.2-2.9c0.5-0.8,1.5-1.2,2.6-1.2c0.1,0,0.3,0,0.4,0c0.8,0.1,1.4,0.6,1.8,1.3
			l7.2,14.7c0.1,0.2,0.2,0.3,0.4,0.3c0.1,0,0.1,0,0.2-0.1c0.1-0.1,0.2-0.2,0.3-0.3c0-0.1,0-0.2,0-0.3l-1-2c-0.5-0.9-0.4-2,0.2-2.9
			c0.6-0.8,1.6-1.2,2.6-1.2c0.1,0,0.3,0,0.4,0c0.8,0.1,1.4,0.6,1.8,1.3l1.9,3.8c0.1,0.1,0.2,0.3,0.4,0.3c0.1,0,0.2,0,0.3-0.1
			c0.1-0.1,0.2-0.2,0.3-0.3c0-0.1,0-0.2,0-0.3c-0.1-0.3-0.7-1.6-0.8-1.7c-0.4-1-0.2-2,0.4-2.8c0.6-0.7,1.5-1.1,2.5-1.1
			c0.1,0,0.3,0,0.4,0c0.8,0.1,1.4,0.6,1.8,1.3l1.7,3.5c0.1,0.2,0.2,0.3,0.4,0.3c0.1,0,0.1,0,0.2-0.1c0.1-0.1,0.2-0.2,0.3-0.3
			c0-0.1,0-0.2,0-0.3L48,34.8c-0.2-0.6-0.3-1.2-0.1-1.7c0.2-0.6,0.6-1,1.2-1.2c0.3-0.1,0.5-0.2,0.8-0.2c0.9,0,1.7,0.5,2.1,1.3
			c0.1,0.2,5.9,11.5,5.9,11.6c3.2,6.6,0.5,14.6-6.1,17.8C49.5,63.6,47.4,64.1,45.3,64.1C45.3,64.1,45.3,64.1,45.3,64.1z"/>
		<path class="st0" d="M25,23.9c0.1,0,0.2,0,0.4,0c0.6,0.1,1.1,0.5,1.4,1L34,39.7c0.2,0.4,0.5,0.6,0.8,0.6c0.1,0,0.3,0,0.4-0.1
			c0.5-0.2,0.7-0.8,0.5-1.3l-0.9-2c-0.4-0.7-0.3-1.7,0.2-2.4c0.5-0.6,1.3-1,2.2-1c0.1,0,0.2,0,0.3,0c0.6,0.1,1.1,0.5,1.4,1l1.9,3.8
			c0.2,0.4,0.5,0.6,0.8,0.6c0.1,0,0.3,0,0.5-0.1c0.5-0.2,0.7-0.8,0.5-1.3c-0.1-0.2-0.7-1.5-0.8-1.7c-0.3-0.8-0.1-1.6,0.3-2.3
			c0.5-0.6,1.2-0.9,2.1-0.9c0.1,0,0.2,0,0.4,0c0.6,0.1,1.1,0.5,1.4,1l1.7,3.5c0.2,0.4,0.5,0.6,0.8,0.6c0.1,0,0.3,0,0.4-0.1
			c0.5-0.2,0.7-0.8,0.5-1.3l-0.9-1.9c-0.2-0.4-0.2-0.9-0.1-1.3c0.2-0.4,0.5-0.7,0.9-0.9c0.2-0.1,0.4-0.1,0.6-0.1
			c0.7,0,1.3,0.4,1.6,1c0.1,0.1,5.6,10.9,5.9,11.6c3.1,6.4,0.5,14.1-5.9,17.2c-2.3,1.1-4.3,1.6-6.3,1.6c-6.1,0-11-4.9-17.2-11.2
			c-1.6-1.6-3.2-3.3-5-5c-2.1-2-2-2.1-1.5-2.7c0.3-0.3,0.7-0.6,1-0.8c0.4-0.2,0.9-0.3,1.4-0.3c0.8,0,1.5,0.3,2.1,0.8l5,4.2
			c0.2,0.2,0.4,0.2,0.6,0.2c0.2,0,0.4-0.1,0.6-0.2c0.3-0.3,0.5-0.8,0.3-1.2l-10-20.3c-0.4-0.7-0.3-1.7,0.2-2.4
			C23.3,24.3,24.1,23.9,25,23.9 M25,22.9C25,22.9,25,22.9,25,22.9c-1.2,0-2.3,0.5-3,1.4c-0.7,1-0.8,2.4-0.2,3.4l9.9,20.2l-4.9-4.1
			c-0.7-0.7-1.7-1.1-2.7-1.1c-0.6,0-1.3,0.2-1.9,0.4c-0.5,0.2-1,0.6-1.4,1.1c-1.2,1.4-0.3,2.3,1.6,4c1.5,1.4,3.1,3,5,4.9
			c6.4,6.4,11.4,11.5,17.9,11.5c2.2,0,4.4-0.6,6.7-1.7c3.3-1.6,5.8-4.4,7-7.9c1.2-3.5,1-7.3-0.6-10.6c0-0.1-5.3-10.4-5.9-11.6l0,0
			c-0.5-1-1.5-1.6-2.5-1.6c-0.4,0-0.7,0.1-1,0.2l0,0l0,0c-0.6,0.3-1.1,0.8-1.4,1.5l0,0l0,0c-0.2,0.5-0.2,1.1,0,1.6l-0.6-1.3
			c-0.4-0.9-1.2-1.5-2.2-1.6c-0.2,0-0.3,0-0.5,0c-1.2,0-2.2,0.5-2.9,1.3c-0.7,0.8-0.9,2-0.6,3l-0.9-1.8c-0.4-0.9-1.2-1.5-2.2-1.6
			c-0.2,0-0.3,0-0.5,0c-1.2,0-2.3,0.5-3,1.4l0,0l0,0c-0.6,0.8-0.7,1.9-0.5,2.8l-6-12.3c-0.4-0.9-1.2-1.5-2.2-1.6
			C25.3,22.9,25.1,22.9,25,22.9L25,22.9L25,22.9z"/>
	</g>
	<path class="st1" d="M53.3,32.4c-0.9-1.7-3-2.5-4.7-1.7C47.9,31,47.4,31.4,47,32c-0.6-0.6-1.4-1-2.2-1.1c-1.7-0.2-3.2,0.4-4.2,1.6
		c-0.1,0.2-0.3,0.3-0.4,0.6c-0.6-0.8-1.5-1.3-2.4-1.4c-1.8-0.2-3.4,0.5-4.3,1.8c-0.1,0.1-0.1,0.2-0.2,0.3l-4.7-9.6
		c-0.6-1.2-1.7-2-2.9-2.1c-1.8-0.2-3.4,0.5-4.3,1.8c-0.9,1.3-1,2.9-0.3,4.3l7.9,16.1L27.4,43c-2.2-1.9-5.5-1.6-7.3,0.6
		c-1.8,2.1-0.2,3.6,1.6,5.3c1.8,1.7,3.4,3.4,5,5c8.4,8.4,15,15.2,25.7,9.9c7.3-3.6,10.4-12.4,6.8-19.7
		C58.9,43.3,53.5,32.9,53.3,32.4z M51.6,62c-9.4,4.6-15.3-1.3-23.5-9.6c-1.6-1.6-3.2-3.3-5-5c-2.1-2-2-2.1-1.5-2.7
		c0.3-0.3,0.7-0.6,1-0.8c1.1-0.6,2.5-0.4,3.5,0.5l5,4.2c0.3,0.3,0.9,0.3,1.2,0c0.3-0.3,0.5-0.8,0.3-1.2l-10-20.3
		c-0.4-0.7-0.3-1.7,0.2-2.4c0.5-0.7,1.5-1.1,2.5-1c0.6,0.1,1.1,0.5,1.4,1L34,39.7c0.2,0.5,0.8,0.7,1.3,0.5c0.5-0.2,0.7-0.8,0.5-1.3
		l-0.9-2c-0.4-0.7-0.3-1.7,0.2-2.4c0.6-0.7,1.5-1.1,2.5-1c0.6,0.1,1.1,0.5,1.4,1l1.9,3.8c0.2,0.5,0.8,0.7,1.3,0.5
		c0.5-0.2,0.7-0.8,0.5-1.3c-0.1-0.2-0.7-1.5-0.8-1.7c-0.3-0.8-0.1-1.6,0.3-2.3c0.6-0.7,1.4-1,2.4-0.9c0.6,0.1,1.1,0.5,1.4,1l1.7,3.5
		c0.2,0.5,0.8,0.7,1.3,0.5c0.5-0.2,0.7-0.8,0.5-1.3l-0.9-1.9c-0.2-0.4-0.2-0.9-0.1-1.3c0.2-0.4,0.5-0.7,0.9-0.9
		c0.8-0.3,1.8,0.1,2.2,0.9c0.1,0.1,5.6,10.9,5.9,11.6C60.6,51.2,57.9,58.9,51.6,62z"/>
</g>
<path class="st2" d="M50.8,20.3c-2.5-1.2-5.2-2-8-2.2c-2.4-0.2-4.8,0-7.1,0.6l1.6-2.8c0.3-0.5,0.1-1.2-0.4-1.4
	c-0.5-0.3-1.2-0.1-1.4,0.4l-3,5.3c-0.3,0.5-0.1,1.1,0.3,1.4l5.1,3.4c0.2,0.1,0.4,0.2,0.6,0.2c0.3,0,0.7-0.2,0.9-0.5
	c0.3-0.5,0.2-1.1-0.3-1.5l-3.5-2.3c2.3-0.7,4.7-0.9,7.1-0.7c2.5,0.2,5,0.9,7.2,2c0.1,0.1,0.3,0.1,0.5,0.1c0.4,0,0.8-0.2,0.9-0.6
	C51.6,21.2,51.4,20.5,50.8,20.3z"/>
</svg>
