<?xml version="1.0" encoding="utf-8"?>
<!-- Generator: Adobe Illustrator 21.0.0, SVG Export Plug-In . SVG Version: 6.00 Build 0)  -->
<svg version="1.1" id="Calque_1" xmlns="http://www.w3.org/2000/svg" xmlns:xlink="http://www.w3.org/1999/xlink" x="0px" y="0px"
	 viewBox="0 0 80 80" style="enable-background:new 0 0 80 80;" xml:space="preserve">
<style type="text/css">
	.st0{fill:#969696;}
	.st1{fill:#B5B5B6;}
	.st2{fill:#896E30;}
	.st3{fill:#CC9212;}
	.st4{fill:#917D56;}
</style>
<path class="st0" d="M33.7,61.9C38.1,57.2,74,18,70.5,14.5c-0.1-0.1-0.2-0.2-0.4-0.2L32.9,55.1c0.1,0,0.2,0.2,0.1,0.3
	C31.5,58.5,32.1,60.5,33.7,61.9z"/>
<path class="st1" d="M32.9,55.3l37.2-41c-5.5-1.1-41.7,37.6-44.2,40.3c1.6,1.6,3.7,2.3,6.8,0.6C32.7,55.2,32.8,55.2,32.9,55.3z"/>
<path class="st2" d="M18.6,73.6c1.4-1.3,5.8-5.5,8.9-8.8c-0.8-0.5-1.9-0.8-2.4-1.3c-0.7-0.8-1.2-1.8-1.9-2.8
	c-2.7,3.2-6.5,7.7-8.3,9.9C16.6,70.9,18,72.1,18.6,73.6z"/>
<path class="st3" d="M9.7,75c0,2.6,2.1,4.8,4.7,4.8c2.6,0,4.8-2.1,4.8-4.7c0-0.6-0.1-1.1-0.3-1.6c-0.5-1.6-2-2.8-3.7-3.1
	c-0.2-0.1-0.4-0.1-0.6-0.1C11.9,70.3,9.8,72.4,9.7,75z"/>
<path class="st4" d="M22.8,61.5c0.6,0.9,1.3,1.8,2.1,2.6c0.5,0.5,1.1,1.1,1.9,1.5c5.1,3.2,14.5,5.3,15.3,4.5c1-1,1.3-4.2,0.1-4.8
	c-1.1-0.6-5.7-1.3-8.1-3.5c-0.8-0.6-1.3-1.4-1.5-2.4c-0.2-1.1-0.1-2.3,0.4-3.4c0-0.3,0.2-0.4,0.3-0.7c0.1-0.1,0-0.2-0.1-0.3H33
	c-0.4,0.1-0.6,0.3-0.9,0.4c-1.5,0.6-2.9,0.6-3.9,0.3c-0.8-0.3-1.5-0.8-2.1-1.4c-1.9-2.1-2.9-5.6-3.9-7.6c-0.9-2-3.8-0.1-4.8,0.9
	C16.5,48.5,18.8,55.9,22.8,61.5z"/>
</svg>
