<?xml version="1.0" encoding="utf-8"?>
<!-- Generator: Adobe Illustrator 22.1.0, SVG Export Plug-In . SVG Version: 6.00 Build 0)  -->
<svg version="1.0" id="Layer_1" xmlns="http://www.w3.org/2000/svg" xmlns:xlink="http://www.w3.org/1999/xlink" x="0px" y="0px"
	 viewBox="0 0 80 80" style="enable-background:new 0 0 80 80;" xml:space="preserve">
<style type="text/css">
	.st0{fill:#CC9212;}
	.st1{fill:#969696;}
	.st2{fill:#B5B5B6;}
	.st3{fill:#917D56;}
	.st4{fill:#896E30;}
</style>
<path class="st0" d="M70.1,67c-0.2,0-0.5,0-0.7,0.1c-2,0.3-3.7,1.7-4.3,3.6c-0.2,0.6-0.3,1.2-0.3,1.8c0,3,2.5,5.4,5.5,5.4
	c3,0,5.4-2.5,5.4-5.5C75.6,69.4,73.1,67,70.1,67z"/>
<path class="st1" d="M48.6,49.7c-0.1-0.1,0-0.3,0.1-0.3L6,2.4c-0.2,0-0.4,0.1-0.5,0.2c-4,4.1,37.2,49.1,42.3,54.5
	C49.6,55.5,50.3,53.2,48.6,49.7z"/>
<path class="st2" d="M48.9,49.4c3.6,2,6,1.2,7.8-0.7C53.8,45.6,12.3,1.2,6,2.4l42.7,47.1C48.8,49.4,48.9,49.4,48.9,49.4z"/>
<path class="st3" d="M66.5,41.3c-1.1-1.1-4.4-3.2-5.4-1c-1.1,2.3-2.3,6.2-4.4,8.5c-0.7,0.7-1.5,1.3-2.4,1.6
	c-1.2,0.4-2.7,0.3-4.4-0.4c-0.3-0.1-0.6-0.3-1-0.5c-0.1,0-0.1,0-0.2,0c-0.1,0.1-0.2,0.2-0.1,0.3c0.1,0.3,0.3,0.5,0.4,0.8
	c0.6,1.5,0.7,2.7,0.5,3.8c-0.2,1.1-0.8,2.1-1.7,2.8c-2.8,2.5-7.9,3.2-9.2,3.9c-1.4,0.7-1,4.3,0.1,5.4c0.9,0.9,11.6-1.5,17.3-5
	c0.9-0.5,1.6-1.1,2.2-1.7c0.9-0.9,1.7-1.9,2.4-2.9C64.9,50.6,67.5,42.2,66.5,41.3z"/>
<path class="st4" d="M69.4,67.1c-2.1-2.5-5.7-6.7-8.9-10.3c-0.8,1.1-1.6,2-2.4,2.9c-0.6,0.6-1.3,1.1-2.2,1.7
	c3.6,3.8,7.6,7.7,9.2,9.2C65.8,68.8,67.4,67.4,69.4,67.1z"/>
</svg>
