<?xml version="1.0" encoding="utf-8"?>
<!-- Generator: Adobe Illustrator 22.1.0, SVG Export Plug-In . SVG Version: 6.00 Build 0)  -->
<svg version="1.1" id="Calque_1" xmlns="http://www.w3.org/2000/svg" xmlns:xlink="http://www.w3.org/1999/xlink" x="0px" y="0px"
	 viewBox="0 0 80 80" style="enable-background:new 0 0 80 80;" xml:space="preserve">
<style type="text/css">
	.st0{fill:#8888D8;}
	.st1{clip-path:url(#SVGID_2_);fill:#6F6FAD;}
	.st2{clip-path:url(#SVGID_4_);fill:#6F6FAD;}
	.st3{fill:#6F6FAD;}
	.st4{clip-path:url(#SVGID_6_);fill:#C1A376;}
	.st5{clip-path:url(#SVGID_8_);fill:#A58A67;}
	.st6{fill:#C1A376;}
	.st7{fill:#5959B3;}
	.st8{opacity:0.5;fill:#8888D8;enable-background:new    ;}
</style>
<g>
	<ellipse class="st0" cx="55.2" cy="21.4" rx="11.9" ry="11.9"/>
	<g>
		<g>
			<g>
				<defs>
					<path id="SVGID_1_" d="M63.9,30.8c-5.1,4.2-12.6,3.5-16.7-1.5C43,24.2,41.8,16.7,47.8,12c5.2-4,13.4-3,17.6,2.1
						S68.9,26.7,63.9,30.8z"/>
				</defs>
				<clipPath id="SVGID_2_">
					<use xlink:href="#SVGID_1_"  style="overflow:visible;"/>
				</clipPath>
				<path class="st1" d="M57.2,9.9c3.4,1.3,6,6,6.1,10.7c0,4.6-1.4,6.5-4.6,8.1c-0.9,0.5-1.4,0-1.7,0.4c-1.6,1.4-2.7,3-4.7,2.8
					c-5.5-0.4,17.1,2.7,17.1,2.7l3.2-17.9l-7.3-9.5C65.2,7.2,53.9,8.5,57.2,9.9z"/>
			</g>
		</g>
		<g>
			<g>
				<defs>
					<path id="SVGID_3_" d="M63.9,30.8c-5.1,4.2-12.6,3.5-16.7-1.5C43,24.2,41.8,16.7,47.8,12c5.2-4,13.4-3,17.6,2.1
						S68.9,26.7,63.9,30.8z"/>
				</defs>
				<clipPath id="SVGID_4_">
					<use xlink:href="#SVGID_3_"  style="overflow:visible;"/>
				</clipPath>
				<path class="st2" d="M43.8,17.1c0.2-2.8,0.6,0.3,0.7,1.1c0.6,2.8,1,3.7,2.4,4.3c1,0.4,2.9,0.6,4.9-1.7c1.1-1.3,1-2.5,1-0.6
					s-2.2,4.2-2.2,4.2l-3.7,4.8L44,21.8L43.8,17.1z"/>
			</g>
		</g>
	</g>
	<path class="st3" d="M52.9,20.2c0.1-0.3-0.3,1.3-0.6,3.4c-0.2,1.3,0.8,2.5,1.3,3.2c0.7,1-0.4,2.6-0.1,3c0.7,1-3.4-1.5-3.4-1.5
		l0.3-4.8l2.3-4.3L52.9,20.2z"/>
	<path class="st3" d="M53.4,26.6c0,0,3.3,3.3,7.3,0.8c4.7-3-1.3,4-1.3,4l-6.6-0.2L53.4,26.6z"/>
	<g>
		<g>
			<g>
				<defs>
					<path id="SVGID_5_" d="M19.1,77.6c4.1-6.6,18.4-30.8,21.3-33.3c2.7-2.4,7.7-5.7,9.1-6.3c2-0.9,10.3-2.3,14.2-6.4
						c4.6-4.6-3.4,1.4-10.8-0.8c-5.7-1.7-9.5-9.6-8.4-14.7c0.3-1.5-2.5,0-4.8,16.5c-1.5,10.5-28.8,39.8-29.8,42
						C8.4,78.2,17,81,19.1,77.6z"/>
				</defs>
				<clipPath id="SVGID_6_">
					<use xlink:href="#SVGID_5_"  style="overflow:visible;"/>
				</clipPath>
				<path class="st4" d="M19,77.5c4.1-6.6,18.2-31.1,21.3-33.3s7.1-5.5,9.1-6.3c2-0.8,10.3-2.3,14.2-6.4c4.6-4.6-2.9-1.3-10.6-2.1
					c-7.7-0.8-7-11.9-8.4-14.7s-3.3,8.5-5,17.7c-2,10.5-28.7,39.8-29.7,42C8.3,78.1,16.9,80.9,19,77.5z"/>
			</g>
		</g>
		<g>
			<g>
				<defs>
					<path id="SVGID_7_" d="M19.1,77.6c4.1-6.6,18.4-30.8,21.3-33.3c2.7-2.4,7.7-5.7,9.1-6.3c2-0.9,10.3-2.3,14.2-6.4
						c4.6-4.6-3.4,1.4-10.8-0.8c-5.7-1.7-9.5-9.6-8.4-14.7c0.3-1.5-2.5,0-4.8,16.5c-1.5,10.5-28.8,39.8-29.8,42
						C8.4,78.2,17,81,19.1,77.6z"/>
				</defs>
				<clipPath id="SVGID_8_">
					<use xlink:href="#SVGID_7_"  style="overflow:visible;"/>
				</clipPath>
				<path class="st5" d="M65.7,28.4c0,0-2.8,4.5-8.1,5.4c-11,1.9-18.7,7.5-23.3,16S18.4,75.2,17,76.1c-1.7,1-3.2,2.3-7.1,0.7
					c-3.8-1.6,4.9,5.1,4.9,5.1l23-10.8l32-43.6L65.7,28.4z"/>
			</g>
		</g>
	</g>
	<path class="st6" d="M44.1,21.9c1.1-2.3,0.8,4.6,5.7,1c2.7-2.1,3-6.3,3.5-4.7c0.6,2.2-1.4,6.1-1.5,7.5c-0.2,1.5,0.9,5.6,4.3,5.5
		l-0.8,1.4L43,30.5L44.1,21.9z"/>
	<path class="st7" d="M56.3,29.6"/>
</g>
<g>
	<path class="st8" d="M55.9,0c-12,0-21.6,9.7-21.6,21.6c0,0,0,0,0,0.1c1.2-4.2,3.4-7.2,5.2-9C42.7,6.9,48.8,3,55.9,3
		c10.3,0,18.7,8.4,18.7,18.7c0,3.2-0.8,6.3-2.3,8.9c-0.8,2.7-2.6,6.2-4.8,9.3c6-3.8,10-10.5,10-18.2C77.4,9.7,67.8,0,55.9,0z"/>
</g>
</svg>
