<?xml version="1.0" encoding="utf-8"?>
<!-- Generator: Adobe Illustrator 21.0.0, SVG Export Plug-In . SVG Version: 6.00 Build 0)  -->
<svg version="1.1" id="Layer_1" xmlns="http://www.w3.org/2000/svg" xmlns:xlink="http://www.w3.org/1999/xlink" x="0px" y="0px"
	 viewBox="0 0 80 80" style="enable-background:new 0 0 80 80;" xml:space="preserve">
<style type="text/css">
	.st0{display:none;fill:#CE3E3E;}
	.st1{fill:#3B9334;}
</style>
<path class="st0" d="M62.7,65.7c5.8,6.9-20.2-50-51.4-53.3C-13.8,9.8,18.6,28.7,26.1,32C46.7,41.1,56.9,58.8,62.7,65.7z"/>
<path class="st0" d="M77.8,17.7c11.5-5.2-55.3,13.4-62.2,44c-5.5,24.6,8.5,3.7,13-3.3S66.3,22.9,77.8,17.7z"/>
<g>
	<path class="st1" d="M68.8,48.8c-1.3,0.8-2.3,1.9-3.3,2.9c-1,1-2,2.1-3,3.2l-5.8,6.4l-5.8,6.3c-0.9,1-1.8,2.1-2.7,3.1
		c-0.4,0.5-0.8,1-1.2,1.5l-0.2,0.3l-0.2,0.3c-0.1,0.1-0.1,0.1-0.1,0.2l0,0l0-0.1c0,0,0-0.1,0.1-0.1l-8.9-0.3
		c-2.2-5.6-4.4-11.2-6.5-16.7l-6.4-16.7c-2.2-5.5-4.3-11-6.8-16.3c-1.3-2.6-2.6-5.2-4.2-7.6c-1.6-2.4-3.5-4.6-6.1-6.4
		c3.1,0.5,6,2.1,8.5,4.2c2.5,2,4.6,4.4,6.6,6.9c3.9,4.9,7.1,10.3,9.9,15.7c2.9,5.4,5.4,11,7.7,16.6c2.3,5.6,4.5,11.3,6.4,17.1
		l-8.9-0.3c0.1-0.2,0.2-0.4,0.3-0.6l0.2-0.3l0.1-0.2c0.2-0.2,0.4-0.5,0.5-0.7c0.3-0.4,0.6-0.7,0.9-1.1c0.6-0.6,1.2-1.2,1.7-1.7
		c1.1-1.1,2.3-2.1,3.5-3c2.3-1.9,4.8-3.6,7.3-5.3c2.5-1.6,5.1-3.1,7.8-4.5c1.4-0.7,2.8-1.3,4.2-1.8C65.7,49.2,67.2,48.7,68.8,48.8z"
		/>
</g>
</svg>
