<svg id="Layer_1" xmlns="http://www.w3.org/2000/svg" xmlns:xlink="http://www.w3.org/1999/xlink" viewBox="0 0 220 240"><style>.st0,.st1{fill:none}.st1{stroke:#534741;stroke-width:2.5;stroke-miterlimit:10}.st6{fill:#322014}.st7{fill:#3f2919}.st8{fill:#492f1d}.st9{fill:gray}.st19{fill:#6d4f38}.st20{fill:#b5885e}.st29{fill:#6b482d}</style><pattern y="240" width="31.3" height="31.3" patternUnits="userSpaceOnUse" id="SVGID_7_" viewBox="32.2 -63.5 31.3 31.3" overflow="visible"><path class="st0" d="M32.2-63.5h31.3v31.3H32.2z"/><path class="st0" d="M32.2-32.2h31.3v-31.3H32.2v31.3z"/><path class="st1" d="M63.5-63.5l31.3-31.3m-31.3 0l31.3 31.3m-62.6 0l31.3-31.3m-31.3 0l31.3 31.3m-62.6 0l31.3-31.3m-31.3 0l31.3 31.3m31.3 31.3l31.3-31.3m-31.3 0l31.3 31.3m-62.6 0l31.3-31.3m-31.3 0l31.3 31.3M.9-32.2l31.3-31.3m-31.3 0l31.3 31.3M63.5-.9l31.3-31.3m-31.3 0L94.8-.9M32.2-.9l31.3-31.3m-31.3 0L63.5-.9M.9-.9l31.3-31.3m-31.3 0L32.2-.9"/></pattern><defs><path id="SVGID_1_" d="M142.8 202.3l3.4 18 .1 12.2-2.4 7.5h-27.1l2.6-8.2-3.2-20.2z"/></defs><clipPath id="SVGID_2_"><use xlink:href="#SVGID_1_" overflow="visible"/></clipPath><path d="M142.8 202.3l3.4 18 .1 12.2-2.4 7.5h-27.1l2.6-8.2-3.2-20.2 26.6-9.3z" clip-path="url(#SVGID_2_)" fill="#6b482d"/><defs><path id="SVGID_3_" d="M142.8 202.3l3.4 18 .1 12.2-2.4 7.5h-27.1l2.6-8.2-3.2-20.2z"/></defs><clipPath id="SVGID_4_"><use xlink:href="#SVGID_3_" overflow="visible"/></clipPath><path d="M146.3 199.4l-.5 18.7-15.7 4.2-12 .6-4.1-23.5h32.3z" clip-path="url(#SVGID_4_)" fill="#5b3c27"/><g><defs><path id="SVGID_5_" d="M74.5 200.7l-5.1 17.1-2.4 13.9 1.9 8.3h27l-1.6-6.2 5.6-17-3.4-5.6z"/></defs><clipPath id="SVGID_6_"><use xlink:href="#SVGID_5_" overflow="visible"/></clipPath><path d="M74.5 200.7l-5.1 17.1-2.4 13.9 1.9 8.3h27l-1.6-6.2 5.6-17-3.4-5.6-22-10.5z" clip-path="url(#SVGID_6_)" fill="#6b482d"/><g><defs><path id="SVGID_8_" d="M74.5 200.7l-5.1 17.1-2.4 13.9 1.9 8.3h27l-1.6-6.2 5.6-17-3.4-5.6z"/></defs><clipPath id="SVGID_9_"><use xlink:href="#SVGID_8_" overflow="visible"/></clipPath><path d="M75.4 194.3l-4.3 18.2 14.4 5.6 13.9 2.4 7.2-18.2-31.2-8z" clip-path="url(#SVGID_9_)" fill="#5b3c27"/></g></g><g><path class="st6" d="M177.6 189.6v7l-3.7 1.7-4.9-.4-1.2 1.6.4 2.2 5.6 1.2 4.3-.7 4.5-4.7-2.3-7.8-2.7-.1z"/><path class="st7" d="M178.3 190.3v8.6l-1.3 4.4-4.4 1.1-3 1v1.8l1.8 1.2 4.9 1 5.6-5.3v-10.2l-1.1-4.3-2.5.7z"/><path class="st8" d="M187.1 177.6l1.3 12.9-3 11.9-4.9 9.4-3.5 2.2-2.6-1.3v-3l4.7-4.9.7-4.3-1.1-7.6-1.6-2.6-1.2 3.9-.6 4.6-2.1.4-3.3-1.7v-7.9l-.9-5.2 1.5-5.9 1.3-2 11.3-2.7 4 3.8z"/><path class="st6" d="M44 189l-2 6.7 3 2.7 4.9 1 .7 1.9-1.1 2-5.7-.4-3.9-2-3-5.7 4.5-6.8 2.6.6z"/><path class="st7" d="M43.2 189.5l-2.5 8.2-.1 4.6 4 2.3 2.6 1.8-.6 1.8-2.1.6-4.9-.4-3.9-6.7 3-9.8 2.2-3.8 2.3 1.4z"/><path class="st8" d="M40.2 174.8l-4.9 12-.5 12.3 1.9 10.3 2.8 3.1 2.8-.4.9-2.9-3.1-6.1.5-4.2 3.3-7 2.2-2.1.1 4.2-.7 4.5 1.8 1 3.7-.7 2.3-7.6 2.3-4.7.2-6.1-.7-2.3-10-5.8-4.9 2.5z"/><path class="st9" d="M146.1 115.8l2.6 12.9 5.1 13.5 1.1 7.9 8.6 6.6 5.6 23.8 12.1-.9 5.1-4-7-13.2 1.9-17.8-5.5-13.5-3.5-11.9-3.1-17.2-8.5-8.2-16.2 14.1 1.7 7.9zm-59.3 2.6l-4.2 12.4-6.8 12.7-2.1 7.7-4.7 4.9-13.2 23.5-11.9-2.4 1.4-3.7 7-19.8-2.1-10.6 4.5-14.1 5.8-10.6 5.2-16.6 3.5-5.9 20.2 14.8-2.6 7.7zm13.9-44.8l-9.1.4-5.1 9.8 11.3 8.1 13.7 1.9h9.9l19.6-4.9v-9.8l-7.4-7.8-3.4 2.7-3.7 5.4-5.1 3.2-8.2.9-3.3-3.8-5.9-3.9-3.3-2.2z"/><defs><path id="SVGID_10_" d="M100.1 78.3l-18 5.7L67 95.8l13.1 20.4 6 24.7-1.6 12.5-14.7 38.1-.6 11 24.7 14 16.8 1.8 9.1-3.1 9.6.4 19.1-4.8-3.7-29.1-3.3-11.4-6.3-22 1-13.1 1.8-5 5.2-4.8 3.3-12.3 12.9-11.2 7.3-5.4-17.8-11.4-13.7-5.1-4-1.7-11.7 10.9-8.8-1.1-8.2-6.8z"/></defs><clipPath id="SVGID_11_"><use xlink:href="#SVGID_10_" overflow="visible"/></clipPath><path d="M100.1 78.3l-18 5.7L67 95.8l13.1 20.4 6 24.7-1.6 12.5-14.7 38.1-.6 11 24.7 14 16.8 1.8 9.1-3.1 9.6.4 19.1-4.8-3.7-29.1-3.3-11.4-6.3-22 1-13.1 1.8-5 5.2-4.8 3.3-12.3 12.9-11.2 7.3-5.4-17.8-11.4-13.7-5.1-4-1.7-11.7 10.9-8.8-1.1-8.2-6.8-2.4-3z" clip-path="url(#SVGID_11_)" fill="#736357"/><defs><path id="SVGID_12_" d="M100.1 78.3l-18 5.7L67 95.8l13.1 20.4 6 24.7-1.6 12.5-14.7 38.1-.6 11 24.7 14 16.8 1.8 9.1-3.1 9.6.4 19.1-4.8-3.7-29.1-3.3-11.4-6.3-22 1-13.1 1.8-5 5.2-4.8 3.3-12.3 12.9-11.2 7.3-5.4-17.8-11.4-13.7-5.1-4-1.7-11.7 10.9-8.8-1.1-8.2-6.8z"/></defs><clipPath id="SVGID_13_"><use xlink:href="#SVGID_12_" overflow="visible"/></clipPath><pattern id="SVGID_14_" xlink:href="#SVGID_7_" patternTransform="matrix(1 0 0 -1 -1.76 -16038.54)"/><path d="M100.1 78.3l-18 5.7L67 95.8l13.1 20.4 6 24.7-1.6 12.5-14.7 38.1-.6 11 24.7 14 16.8 1.8 9.1-3.1 9.6.4 19.1-4.8-3.7-29.1-3.3-11.4-6.3-22 1-13.1 1.8-5 5.2-4.8 3.3-12.3 12.9-11.2 7.3-5.4-17.8-11.4-13.7-5.1-4-1.7-11.7 10.9-8.8-1.1-8.2-6.8-2.4-3z" clip-path="url(#SVGID_13_)" fill="url(#SVGID_14_)"/><g><defs><path id="SVGID_15_" d="M100.1 78.3l-18 5.7L67 95.8l13.1 20.4 6 24.7-1.6 12.5-14.7 38.1-.6 11 24.7 14 16.8 1.8 9.1-3.1 9.6.4 19.1-4.8-3.7-29.1-3.3-11.4-6.3-22 1-13.1 1.8-5 5.2-4.8 3.3-12.3 12.9-11.2 7.3-5.4-17.8-11.4-13.7-5.1-4-1.7-11.7 10.9-8.8-1.1-8.2-6.8z"/></defs><clipPath id="SVGID_16_"><use xlink:href="#SVGID_15_" overflow="visible"/></clipPath><path d="M80.6 153.1l21.9 3.3 20.5.1 17.2-3.5-2.2 7.2-15.4 3.2-18.6-.1-21.5-3.6-1.9-6.6z" clip-path="url(#SVGID_16_)" fill="#4c341f"/></g><g><path d="M148 157.4l2 8.1-3.4 4.7-10.1 3.7-3.7-1-2.3-3.6-1.7-5.1 19.2-6.8z" fill="#8c6239"/><path d="M127.4 153.7l12.1-7h5.6l4.9 10-5.2 5.6-14 4.4-5.5-4.5 2.1-8.5z" fill="#724d2f"/><path d="M139 157.4l3.8 5.6v5.7H141v-5.2l-3.1-4.7 1.1-1.4z" fill="#4c341f"/></g><path class="st9" d="M119.4 165.2l-7.1 1.5-7.1-1.5-.9-5 .9-4.6 7.1-.9 7.1.9.7 4.5-.7 5.1z"/><g><defs><path id="SVGID_17_" d="M90.5 76.5l17.1 16.1h16.1l11.2-16.1 3.6-25.6v-26l-13.4-12.5h-16.6l-13.9 9.9-8.1 27.3z"/></defs><clipPath id="SVGID_18_"><use xlink:href="#SVGID_17_" overflow="visible"/></clipPath><path d="M90.5 76.5l17.1 16.1h16.1l11.2-16.1 3.6-25.6v-26l-13.4-12.5h-16.6l-13.9 9.9-8.1 27.3 4 26.9z" clip-path="url(#SVGID_18_)" fill="#cc9a69"/><defs><path id="SVGID_19_" d="M90.5 76.5l17.1 16.1h16.1l11.2-16.1 3.6-25.6v-26l-13.4-12.5h-16.6l-13.9 9.9-8.1 27.3z"/></defs><clipPath id="SVGID_20_"><use xlink:href="#SVGID_19_" overflow="visible"/></clipPath><path d="M106.7 22.1l-.8 6.1-6.7 10.2-2 9 4.7 27.6 2.9 9.3 14.7 9.5-30.6 3.9-13.4-25.6 6.8-28.7 7.8-21.7 9.1-2 7.5 2.4z" clip-path="url(#SVGID_20_)" fill="#b5885e"/><defs><path id="SVGID_21_" d="M90.5 76.5l17.1 16.1h16.1l11.2-16.1 3.6-25.6v-26l-13.4-12.5h-16.6l-13.9 9.9-8.1 27.3z"/></defs><clipPath id="SVGID_22_"><use xlink:href="#SVGID_21_" overflow="visible"/></clipPath><path d="M104.6 23.7l7.3 3.3h4.9l14.2 6.4 11.8 10.7-1.8-9.5-12.5-17.7-24.4 3.4.5 3.4z" clip-path="url(#SVGID_22_)" fill="#b5885e"/><path class="st19" d="M110.3 25.2h6.2l15.6 6.6 10.7 12.3V30.3l7.5 5.7-7.5-12.3 7.5 1.8-9.8-7.7h5l-19.1-9.9h-20l-7.5 4.5v5.1l-5.4-.9-8.3 11.9-1.8 8.4 3.1-5.4-1.3 14.7L92.3 36l-.9 8.1 7.2-14.7 3.3-4.2-.9-3.5 9.3 3.5z"/><path class="st20" d="M95 46.9l5.9-2.6 4.2 1.2 4.1 3.1-1.3 1.4-5.6 2.4-5.7-1-3.9-3.1 2.3-1.4z"/><g><defs><path id="SVGID_23_" d="M95.9 48.1l4.5-1.7 3.9.7 3.4 1.8-3.2 1.7-3.6.3-3-1z"/></defs><clipPath id="SVGID_24_"><use xlink:href="#SVGID_23_" overflow="visible"/></clipPath><path d="M95.9 48.1l4.6-2.4 4 .8 3.2 2.4-3.2 1.7-3.6.3-3-1-2-1.8z" clip-path="url(#SVGID_24_)" fill="#fff"/></g><g><defs><path id="SVGID_25_" d="M95.9 48.1l4.5-1.7 3.9.7 3.4 1.8-3.2 1.7-3.6.3-3-1z"/></defs><clipPath id="SVGID_26_"><use xlink:href="#SVGID_25_" overflow="visible"/></clipPath><circle cx="102.5" cy="48.3" r="3.5" clip-path="url(#SVGID_26_)" fill="#3d5b37"/></g><g><path class="st20" d="M132.4 46.7l-6.1-2.2-4.1 1.6-3.8 3.4 1.4 1.4 5.8 1.9 5.6-1.6 3.6-3.3-2.4-1.2z"/><defs><path id="SVGID_27_" d="M131.6 47.9l-4.6-1.3-3.9 1.1-3.2 2 3.3 1.5 3.6-.1 3-1.2z"/></defs><clipPath id="SVGID_28_"><use xlink:href="#SVGID_27_" overflow="visible"/></clipPath><path d="M131.6 47.9l-4.8-1.9-3.9 1-3 2.7 3.3 1.5 3.6-.1 3-1.2 1.8-2z" clip-path="url(#SVGID_28_)" fill="#fff"/><g><defs><path id="SVGID_29_" d="M131.6 47.9l-4.6-1.3-3.9 1.1-3.2 2 3.3 1.5 3.6-.1 3-1.2z"/></defs><clipPath id="SVGID_30_"><use xlink:href="#SVGID_29_" overflow="visible"/></clipPath><circle cx="125.1" cy="48.7" r="3.5" clip-path="url(#SVGID_30_)" fill="#3d5b37"/></g></g><path class="st20" d="M116.1 52.8l2.3 5.4 1.1 4.6-1.6 1.3-3.3.6-1.4-1.8.1-3.8 2.8-6.3z"/><g><defs><path id="SVGID_31_" d="M137.6 66.4l.9 8.6v16.8l-3.3 11.8-3-2.2-5.7 11.2-3.6-4.1-6.1 13.3-3.8-12.2-3.2 1.7-5.9-7.7-3.8 1.4-3.1-8.9-2.2.9-2.3-9.9-3.1 1.6L87.6 75l3.1-10.7 6.3-2.5 8.5 5.6 8.3.9 9.1.9 7.6-3.8 3.2-2.7z"/></defs><clipPath id="SVGID_32_"><use xlink:href="#SVGID_31_" overflow="visible"/></clipPath><path d="M137.6 66.4l.9 8.6v16.8l-3.3 11.8-3-2.2-5.7 11.2-3.6-4.1-6.1 13.3-3.8-12.2-3.2 1.7-5.9-7.7-3.8 1.4-3.1-8.9-2.2.9-2.3-9.9-3.1 1.6L87.6 75l3.1-10.7 6.3-2.5 8.5 5.6 8.3.9 9.1.9 7.6-3.8 3.2-2.7 3.9 3.7z" clip-path="url(#SVGID_32_)" fill="#6d4f38"/><defs><path id="SVGID_33_" d="M137.6 66.4l.9 8.6v16.8l-3.3 11.8-3-2.2-5.7 11.2-3.6-4.1-6.1 13.3-3.8-12.2-3.2 1.7-5.9-7.7-3.8 1.4-3.1-8.9-2.2.9-2.3-9.9-3.1 1.6L87.6 75l3.1-10.7 6.3-2.5 8.5 5.6 8.3.9 9.1.9 7.6-3.8 3.2-2.7z"/></defs><clipPath id="SVGID_34_"><use xlink:href="#SVGID_33_" overflow="visible"/></clipPath><path d="M91.3 59.4l-1.8 12.1 1.4 10.2 3.7-1.5L96 90.3l3.9-.7 2 8.7 3.6-1.4 5 7.9 2.8-1.7 5 12.8-12.8 10.7-20.2-24.8-12.9-22.6s4-14 4.1-14.4c.1-.5 16.3-10.6 16.3-10.6l-1.5 5.2z" clip-path="url(#SVGID_34_)" fill="#5e4432"/><g><defs><path id="SVGID_35_" d="M137.6 66.4l.9 8.6v16.8l-3.3 11.8-3-2.2-5.7 11.2-3.6-4.1-6.1 13.3-3.8-12.2-3.2 1.7-5.9-7.7-3.8 1.4-3.1-8.9-2.2.9-2.3-9.9-3.1 1.6L87.6 75l3.1-10.7 6.3-2.5 8.5 5.6 8.3.9 9.1.9 7.6-3.8 3.2-2.7z"/></defs><clipPath id="SVGID_36_"><use xlink:href="#SVGID_35_" overflow="visible"/></clipPath><path d="M133.7 59.6l2.8 4.4-1.3 26.1-1.5 5.8-3.3-2.1-3.8 11.8-4.1-3.9-9.3 17.6s10.1 11.9 9.5 11C122 129.5 141 105 141 105l6.5-39.4-12.4-8.1-1.4 2.1z" clip-path="url(#SVGID_36_)" fill="#5e4432"/></g><path d="M105.4 73.8l6.8 3.3h7.6l5.5-3.3-4.9.8-8.2.1-6.8-.9z" fill="#cc9a69"/></g><path class="st19" d="M118.1 47.7l3.1-4.8 4.1-1.5h2.9l7 3.1-5.2-.9-3.4-.5-3.3 1-5.2 3.6zm-7.8 0l-3.1-4.8-3.3-1.5h-3.7l-7 3.1 6.9-1.1 5 .7 5.2 3.6z"/></g><g><path class="st29" d="M50.2 143.1l-2.4 1 .6 5.2-1.2 9.5-3.4 9.9-5.8 6.8 2.3 2.3 13.6 4h5.6l3.5-13.1 11.5-15.9-.1-2-24.2-7.7z"/><defs><path id="SVGID_37_" d="M48.6 142.5l2.2-3.7 1.3-1.8-.9-3.4 2.1-1.2 4.7 5.4 9.2 3.6 7.7.5 5.1.6v3.5l-3 .7-1.2 3-.6 2.6 1.1 2.8-9.4-1-12.4-3.5-9-6 1.1-1.8z"/></defs><clipPath id="SVGID_38_"><use xlink:href="#SVGID_37_" overflow="visible"/></clipPath><path d="M48.6 142.5l2.2-3.7 1.3-1.8-.9-3.4 2.1-1.2 4.7 5.4 9.2 3.6 7.7.5 5.1.6v3.5l-3 .7-1.8 2.3.4 4.3.7 1.8-9.4-1-12.4-3.5-9-6 1.1-1.8 2-.3z" clip-path="url(#SVGID_38_)" fill="#603813"/><g><defs><path id="SVGID_39_" d="M48.6 142.5l2.2-3.7 1.3-1.8-.9-3.4 2.1-1.2 4.7 5.4 9.2 3.6 7.7.5 5.1.6v3.5l-3 .7-1.2 3-.6 2.6 1.1 2.8-9.4-1-12.4-3.5-9-6 1.1-1.8z"/></defs><clipPath id="SVGID_40_"><use xlink:href="#SVGID_39_" overflow="visible"/></clipPath><path d="M49.7 134.6l6.6 6 10.4 3.6 9.4 2.5h5.1l-.6 6.5-10.9-1.7-13.7-3.1-7.6-5.8-3.1-4.1 4.4-3.9z" clip-path="url(#SVGID_40_)" fill="#4c341f"/></g></g><g><path class="st29" d="M180.1 143.3l2.5 1.3-1.2 5.3.5 9.9 2.6 10.4 5.3 7.5-2.5 2.2-14.3 2.8-5.8-.5-2.4-13.7-10.4-17.3.3-2.1 25.4-5.8z"/><defs><path id="SVGID_41_" d="M181.9 142.9l-2-4-1.2-1.9 1.2-3.5-2.1-1.3-5.2 5-9.8 2.9-7.9-.1-5.3.2-.3 3.5 3.1 1 .9 3.2.4 2.8-1.4 2.8 9.7-.3 13.1-2.5 9.7-5.3-1-2z"/></defs><clipPath id="SVGID_42_"><use xlink:href="#SVGID_41_" overflow="visible"/></clipPath><path d="M181.9 142.9l-2-4-1.2-1.9 1.2-3.5-2.1-1.3-5.2 5-9.8 2.9-7.9-.1-5.3.2-.3 3.5 3.1 1 1.6 2.5-.8 4.5-.9 1.8 9.7-.3 13.1-2.5 9.7-5.3-1-2-1.9-.5z" clip-path="url(#SVGID_42_)" fill="#603813"/><g><defs><path id="SVGID_43_" d="M181.9 142.9l-2-4-1.2-1.9 1.2-3.5-2.1-1.3-5.2 5-9.8 2.9-7.9-.1-5.3.2-.3 3.5 3.1 1 .9 3.2.4 2.8-1.4 2.8 9.7-.3 13.1-2.5 9.7-5.3-1-2z"/></defs><clipPath id="SVGID_44_"><use xlink:href="#SVGID_43_" overflow="visible"/></clipPath><path d="M181.4 134.7l-7.2 5.6-11.1 2.8-9.8 1.8-5.2-.5-.1 6.6 11.4-.7 14.4-2 8.3-5.3 3.5-3.9-4.2-4.4z" clip-path="url(#SVGID_44_)" fill="#4c341f"/></g></g></g></svg>