<svg id="Layer_1" xmlns="http://www.w3.org/2000/svg" xmlns:xlink="http://www.w3.org/1999/xlink" viewBox="0 0 220 240"><style>.st1{display:none;fill:#1e4f1e}.st2{fill:#1c4f31}.st9{clip-path:url(#SVGID_12_)}.st17{fill:#276627}.st18{fill:#ead95e}</style><path fill="#ddcc4e" d="M150.4 45.3l-.9-24-7.9 10.6-8.8-10.6-1.5 11.7-11.8-6.7L129 49z"/><path class="st1" d="M169 74.8l5.4-8.5-1.6-12.3-9.5-6.1 6.8 26.1zM107.2 55.8l-8.5 2.7L90 71.7l1.7 12.1 16.4-21.3z"/><path class="st2" d="M198.5 160.7l-3.5-1-6.7-7.9 5.3.5 3.5 2.1 2.6-1.9-.8-2.8h-4.7l-9.3-4.6 3.4-11.6-6.3-14.7-15.1-12.7-16.5-5.7-3.4 5.8 13.8 34.3 7.4 12.5-1.3.6 2 .8h.2l2.2.8-.6 2.1-1.8 2.3-1.2-.1.5 5 2.4-3.2 3.3-.3 4.4-2.8.8 4.2-2.7 3.2 4.5 2.9 4.3-3.2-2.3-2.9 2-6.6 8.2 6.6-.3 4 4.4.9 2.5-2.7z"/><path class="st2" d="M140.5 141.5l10.9 2.3 6.7-2.3 3.9-9.9-4.2-7.6-8.3-2.6-10.7 7z"/><path fill="#c1ad59" d="M167.6 56.7l5-5.8-3.1-11.1-6.2-1.3-7.3 5.6 4.6 9.4z"/><path d="M163.8 45.3l7.4 1.9-6.7 1.8-5.9-.6z"/><defs><path id="SVGID_1_" d="M172.6 118.6L157 106.2l-9.4 2.6L145 126l1.5 10 9.6.6 1.9 1.6-1.2 12.6 2.8 11.6-16.4 1.8-4.4 4.3-5.1 1.6v2.1h4.3l2.4-2.6 3.3-1.1h6.6l-2.3 3.7-8.9 2.7-5-.3-3.9 1.8 1.9 1.9h4.9l3.9-1.5 6.9-2.1 4.7-.4-7.2 9.1-4 2-.5 5.9h2.9l2.4-3.7 1.3-3.2 11-6.4 3.9-1.2 4.4 5.7-1 4.3 5 2.1 1.9-2.7-3.1-4.4.6-3.2 2.5-10.1 6.6-16.9 1.5-15.6z"/></defs><clipPath id="SVGID_2_"><use xlink:href="#SVGID_1_" overflow="visible"/></clipPath><path clip-path="url(#SVGID_2_)" fill="#276627" d="M172.6 118.6L157 106.2l-9.4 2.6L145 126l1.5 10 9.6.6 1.9 1.6-1.2 12.6 2.8 11.6-16.4 1.8-4.4 4.3-5.1 1.6v2.1h4.3l2.4-2.6 3.3-1.1h6.6l-2.3 3.7-8.9 2.7-5-.3-3.9 1.8 1.9 1.9h4.9l3.9-1.5 6.9-2.1 4.7-.4-7.2 9.1-4 2-.5 5.9h2.9l2.4-3.7 1.3-3.2 11-6.4 3.9-1.2 4.4 5.7-1 4.3 5 2.1 1.9-2.7-3.1-4.4.6-3.2 2.5-10.1 6.6-16.9 1.5-15.6z"/><defs><path id="SVGID_3_" d="M172.6 118.6L157 106.2l-9.4 2.6L145 126l1.5 10 9.6.6 1.9 1.6-1.2 12.6 2.8 11.6-16.4 1.8-4.4 4.3-5.1 1.6v2.1h4.3l2.4-2.6 3.3-1.1h6.6l-2.3 3.7-8.9 2.7-5-.3-3.9 1.8 1.9 1.9h4.9l3.9-1.5 6.9-2.1 4.7-.4-7.2 9.1-4 2-.5 5.9h2.9l2.4-3.7 1.3-3.2 11-6.4 3.9-1.2 4.4 5.7-1 4.3 5 2.1 1.9-2.7-3.1-4.4.6-3.2 2.5-10.1 6.6-16.9 1.5-15.6z"/></defs><clipPath id="SVGID_4_"><use xlink:href="#SVGID_3_" overflow="visible"/></clipPath><path clip-path="url(#SVGID_4_)" fill="#1e4f1e" d="M156.9 161.2l7.5 1.7 1.6 1.7-2.4-1-6.7-1.3"/><g><defs><path id="SVGID_5_" d="M130.7 46.1l-7.1-8.5-11.7-1.1-8.5 9.6 1.4 15.6-9.8 9.8-9.3 15.4-1.2 17.7 30.3 6.4-4.5 15.9-16.7 11.4-19.5 4 4.4 3.7 13.8 5 30.2 3.4 21.8-7.6 6.8-19.1v-13l8.3-11.9 9.5-20.4 4.3-11.9-2.5-10.4-6.9-11.5-1-5.2 1-5-7.9-4.4-6.6 4.4-1.9 4.8z"/></defs><clipPath id="SVGID_6_"><use xlink:href="#SVGID_5_" overflow="visible"/></clipPath><path clip-path="url(#SVGID_6_)" fill="#276627" d="M130.7 46.1l-7.1-8.5-11.7-1.1-8.5 9.6 1.4 15.6-9.8 9.8-9.3 15.4-1.2 17.7 30.3 6.4-4.5 15.9-16.7 11.4-15.1 4v3.7l13.8 5 30.2 3.4 21.8-7.6 6.8-19.1v-13l8.3-11.9 9.5-20.4 5.4-12.5-3.2-11.1-10.7-10-1-5.1 4.4-5.3-7.9-4.4-6.6 4.4-1.9 4.8z"/><defs><path id="SVGID_7_" d="M130.7 46.1l-7.1-8.5-11.7-1.1-8.5 9.6 1.4 15.6-9.8 9.8-9.3 15.4-1.2 17.7 30.3 6.4-4.5 15.9-16.7 11.4-19.5 4 4.4 3.7 13.8 5 30.2 3.4 21.8-7.6 6.8-19.1v-13l8.3-11.9 9.5-20.4 4.3-11.9-2.5-10.4-6.9-11.5-1-5.2 1-5-7.9-4.4-6.6 4.4-1.9 4.8z"/></defs><clipPath id="SVGID_8_"><use xlink:href="#SVGID_7_" overflow="visible"/></clipPath><path clip-path="url(#SVGID_8_)" fill="#1e4f1e" d="M131.3 43.2l-3.6 16.4-10.7 6.8-8 .9 8 .6 13.8-7.8 2.3-18z"/><g><defs><path id="SVGID_9_" d="M130.7 46.1l-7.1-8.5-11.7-1.1-8.5 9.6 1.4 15.6-9.8 9.8-9.3 15.4-1.2 17.7 30.3 6.4-4.5 15.9-16.7 11.4-19.5 4 4.4 3.7 13.8 5 30.2 3.4 21.8-7.6 6.8-19.1v-13l8.3-11.9 9.5-20.4 4.3-11.9-2.5-10.4-6.9-11.5-1-5.2 1-5-7.9-4.4-6.6 4.4-1.9 4.8z"/></defs><clipPath id="SVGID_10_"><use xlink:href="#SVGID_9_" overflow="visible"/></clipPath><path clip-path="url(#SVGID_10_)" fill="#1e4f1e" d="M154.7 52.1l2.4 1.6 5.1 2.7 6.6.6 6.8-2-5.7 3.4-8.4-.3-5.7-3.3-2.4-2.2-3-5.3z"/></g><g><defs><path id="SVGID_11_" d="M130.7 46.1l-7.1-8.5-11.7-1.1-8.5 9.6 1.4 15.6-9.8 9.8-9.3 15.4-1.2 17.7 30.3 6.4-4.5 15.9-16.7 11.4-19.5 4 4.4 3.7 13.8 5 30.2 3.4 21.8-7.6 6.8-19.1v-13l8.3-11.9 9.5-20.4 4.3-11.9-2.5-10.4-6.9-11.5-1-5.2 1-5-7.9-4.4-6.6 4.4-1.9 4.8z"/></defs><clipPath id="SVGID_12_"><use xlink:href="#SVGID_11_" overflow="visible"/></clipPath><g class="st9"><defs><path id="SVGID_13_" d="M114.8 111v-7.7l-5.6-9.1 11.2-9.4 20.1-7.7 28.7 1.6 10.8-1.2-14.1 24L156 126l-11.2 26.5-39.3 9.9-35.2-13.1 20.2-26.7 17.7-9.9z"/></defs><defs><path id="SVGID_14_" d="M114.8 111v-7.7l-5.6-9.1 11.2-9.4 20.1-7.7 28.7 1.6 10.8-1.2-14.1 24L156 126l-11.2 26.5-39.3 9.9-35.2-13.1 20.2-26.7 17.7-9.9z"/></defs><clipPath id="SVGID_15_"><use xlink:href="#SVGID_13_" overflow="visible"/></clipPath><clipPath id="SVGID_16_" clip-path="url(#SVGID_15_)"><use xlink:href="#SVGID_14_" overflow="visible"/></clipPath><path clip-path="url(#SVGID_16_)" fill="#9dad86" d="M114.8 111v-7.7l-8.2-9.1 13.8-9.4 20.1-7.7 28.7 1.6 10.8-1.2-14.1 24L156 126l-11.2 26.5-39.3 9.9-35.2-13.1 20.2-26.7 17.7-9.9z"/><path clip-path="url(#SVGID_16_)" fill="#8a9675" d="M174.6 64.6l-20.2 37.2-9.4 11.1-4.6 11.6-10.5 17.2-17.2 7.4-35.5-2.8 21 11.8 38.2 6 34.8-28.1 12.1-43.3z"/><g><defs><path id="SVGID_17_" d="M130.7 46.1l-7.1-8.5-11.7-1.1-8.5 9.6 1.4 15.6-9.8 9.8-9.3 15.4-1.2 17.7 30.3 6.4-4.5 15.9-16.7 11.4-19.5 4 4.4 3.7 13.8 5 30.2 3.4 21.8-7.6 6.8-19.1v-13l8.3-11.9 9.5-20.4 4.3-11.9-2.5-10.4-6.9-11.5-1-5.2 1-5-7.9-4.4-6.6 4.4-1.9 4.8z"/></defs><clipPath id="SVGID_18_"><use xlink:href="#SVGID_17_" overflow="visible"/></clipPath><g clip-path="url(#SVGID_18_)"><path class="st2" d="M102.8 88.5l18.1-14.9 22.8-4.8 31.9 1.8v.9l-31.8-1.2-22.3 4.8z"/></g></g></g><path clip-path="url(#SVGID_12_)" fill="#c1ad59" d="M106.6 53l7.9-10.6 7.9 5.5-1.3 10.1-11.6 2.2z"/><g class="st9"><defs><path id="SVGID_19_" d="M78.5 142.3l15.1-4 16.7-11.4 6.6-12.7-2.1-10.9-30.3 1.3-13.5 8.2-11.3 14.4-9 16.6v17.8l6.3 22.8 1.3 7.5 8.7 12.6 10.9 1 8.6 1.7 10.4-10.9 3.2 2.8.3 3.7 5 1.7 2.8-3.1v-2.3l-10-5.6-15.8-5.7 12.4 1.1 6 2.4 4.2 1.5 3.2-1.5-1.6-4.5h-4.2L90.6 184h-10l-2.1-2.1h12.1l5.5.5 1.3.9 3 .6h2.1l-.2-2.5-3.3-1.2-2.6-.1-7.3-2.6-14.6 1.2-1.1-12-3.6-9.3.4-2.9 8.3-12.2zm-19.9 41.6z"/></defs><clipPath id="SVGID_20_"><use xlink:href="#SVGID_19_" overflow="visible"/></clipPath><path clip-path="url(#SVGID_20_)" fill="#1e4f1e" d="M80.9 177.6l-10.1 3.5-6.5 2.8 6.2-4.2 8.3-2.1z"/></g><path clip-path="url(#SVGID_12_)" fill="#8a9675" d="M150.8 108.8l-20.6 5.6 8.9 1.9h9.4"/><path class="st9" d="M106.6 53l6.8-4.1 9-1-7.9 5.1z"/></g></g><path class="st2" d="M96.2 99.3l-17.1 2.2-13.6 2.4L50 114.6l-7.5 11-3.2 12.3-2.8 13.4-10 5.3-4.7.5-.5 3 2.8 1.5 4.3-2 4.1-1.5-5.1 6.3-3.8 1.5-.9 4 4 1.7 3.6-1.5.7-3.1 5.4-5.4 1.7 6.5-1 3.1 4.6 2.7 4.1-3.4-2.9-2.9.3-4.2 10.7 5.2-2.5-8.6 2-5h1.8l2.4-9.1 4.1-9.9 19.3-6 17.2-20.4z"/><path class="st17" d="M78.5 142.3l15.1-4 16.7-11.4 6.6-12.7-2.1-10.9-30.3 1.3-13.5 8.2-11.3 14.4-9 16.6v17.8l6.3 22.8 1.3 7.5 11.1 5.5 5.4-.6L82 200l2.6 3 3.4.7 2.4-1.7-2.1-2.9-3.7-1.2-5.3-5.9 4.1-.8 13 4.6.4.4.4 5.2 2.8 1 2.8-3.1V197l-4.1-4.3-16.3-4.9 12.4 1.1-.2.9 4.2 1.5 3.2-1.5-1.6-4.5h-4.2l-5.6-1.3-7.9.7-2.1-.7 2.6-.9 7.4-1.2 4.3.3 2.5 1.1-.2-.1.6-.6-.2-2.5-1.9-.9-.5.8-6.1-2.4-14.6 1.2-1.1-12-3.6-9.3.4-2.9 8.3-12.3zm-19.9 41.6z"/><path class="st17" d="M90.6 78.7l-6.8 15.5v25.9l18.6-11.7L97.7 89z"/><g><path class="st18" d="M103.1 145.9l7.4-9.2-1.3 4.6zM81.4 150.5L70 135.7l6.6 3.7zM93.2 142.4l1.3-8 .8 3.2zM85 145.4l4.5 6.7-2.8-1.8zM95.9 149.9l3.2-5.7-.3 2.6zM85.3 139.7l-2.1-12.8L82 132z"/><g><path d="M95 159.7l-4.2.7 4 45.9 3.4.7"/><path fill="#e0e0e0" d="M94.6 153.9l-4.3-.2.5 6.7 4.2-.7z"/></g></g><path class="st17" d="M97.1 190.6l-1.2-.9v-3.4l.8-1.1.9.6M95.4 179.2l-.6 1.1.6 1.7 1.4 1v-3.4zM97.2 192.2l-1.3-.4-1.1 3.7 1.6 4.8 1.4 1.3.8-2.1z"/></svg>