<?xml version="1.0" encoding="utf-8"?>
<!-- Generator: Adobe Illustrator 22.1.0, SVG Export Plug-In . SVG Version: 6.00 Build 0)  -->
<svg version="1.0" id="Layer_1" xmlns="http://www.w3.org/2000/svg" xmlns:xlink="http://www.w3.org/1999/xlink" x="0px" y="0px"
	 viewBox="0 0 220 220" style="enable-background:new 0 0 220 220;" xml:space="preserve">
<style type="text/css">
	.st0{fill:none;}
	.st1{fill:#726322;}
	.st2{fill:#827325;}
	.st3{fill:#564D18;}
	.st4{fill:#982E38;}
	.st5{fill:#C8B383;}
	.st6{fill:#31272A;}
	.st7{fill:#44383D;}
	.st8{fill:#66581F;}
	.st9{fill:#C4985B;}
	.st10{fill:#A37C4D;}
	.st11{fill:#6D4F38;}
	.st12{fill:#5B412F;}
</style>
<g>
	<polygon class="st0" points="127.3,180 127.1,180 127.5,180.1 	"/>
	<polygon class="st0" points="122.7,180.2 123.6,178.9 126.7,177.2 127.8,177.7 120.1,169.4 119.7,166.5 117.5,168.8 116.7,167.2 
		114.2,174.3 	"/>
	<path class="st0" d="M157.8,58.7c-1.2,0-2.3-0.5-3.1-1.3l-0.1,1L138,80l-8.3,4.7L119.2,95l5.3-0.6l0.3-0.9l18.1-15l5.9-2.3l0.5,0.1
		l7.3-4.8l5.2-8.7l-3.7-4.1C158,58.7,157.9,58.7,157.8,58.7z"/>
	<path class="st1" d="M119.2,95l10.5-10.3L138,80l16.6-21.6l0.1-1c-0.8-0.8-1.3-1.9-1.3-3.1c0-1.6,0.9-3.1,2.2-3.8l0.9-6.5l-5.1-4.3
		l-2.3,1.5l-3.4-1.4l8.7-17L162,14l11-6.9l6.8-4.6l-11.6,3.7l-18,15L145.6,35l-6.6-5.5l-13.4-4l11.4,7.7l2.4,9l4.8,1.5l-3.1,8.5
		l-0.3,0.1L140,63.5l5.3-2.9l5.1-6.4l-0.7,5.3l-6.4,9.3l-11.4,6.5l-4.1,6l-12.4,11.5l-11.1-3.5l3.3,2.9l-3,2.4l7.8,7L119.2,95z"/>
	<path class="st2" d="M127.8,81.3l4.1-6l-1.5,0.9l-18.1,5.5L94,79.2l-16.2-6.3l-5.2-9l5,3.7l12.8,2.3l10.5-3.3l6.1-1.4l-1.3-3.2
		l-7.5-2.8l3.9-5.4l8.2-1.7l8.4,0.9l3.3,4.2l-6.7,4.3l-0.3,2.9l7.6,0.8l13.6,0.4l3.8-2.1l0.8-11.2l-9.2,2.9l-8-4l4.8-7.6l6.9-2.8
		l4.1,1.4l-2.4-9l-11.4-7.7l-6.2-1.9l-26.5,1.2L74.2,35.9l-6.6-11.4L46.9,13.3l-12-1.4l7.5,3.2l12.2,4.6l9.3,7.1l11.8,14.9l-3.9,1.9
		l-2.5-1l-5.7,10l3.6,14.6l20.9,16.9l16.2,5.2l11.1,3.5L127.8,81.3z M89.4,47.5l6.4,6.3l-7.1,5.7l-9.8-0.9L74,50.9l8-4.7L89.4,47.5z
		"/>
	<path class="st3" d="M128.4,43.6l-4.8,7.6l8,4l9.2-2.9l0.3-0.1l3.1-8.5l-4.8-1.5l-4.1-1.4L128.4,43.6z M140.4,44.2l-1.4,6.4l-6.6,3
		l-7.1-2.4l3.7-6.3l5.2-2.4L140.4,44.2z"/>
	<path class="st3" d="M78.9,58.6l9.8,0.9l7.1-5.7l-6.4-6.3L82,46.2l-8,4.7L78.9,58.6z M82.1,47.9l7.2,0.6l5,5.7L88,57.8l-5.7-0.5
		l-4.6-4.6L82.1,47.9z"/>
	<polygon class="st4" points="82.3,57.3 88,57.8 94.3,54.2 89.3,48.5 82.1,47.9 77.7,52.7 	"/>
	<polygon class="st4" points="129,44.9 125.3,51.2 132.4,53.6 139,50.6 140.4,44.2 134.2,42.5 	"/>
	<polygon class="st5" points="122.6,65.2 115,64.4 114.7,68.4 112,73.5 108.5,69 107,65.2 100.9,66.6 90.4,69.9 77.6,67.6 
		72.6,63.9 77.8,72.9 94,79.2 112.3,81.7 130.4,76.2 131.9,75.3 143.3,68.8 149.7,59.5 150.4,54.2 145.3,60.6 140,63.5 136.2,65.6 	
		"/>
	<polygon class="st1" points="112,73.5 114.7,68.4 115,64.4 115.3,61.5 122,57.2 118.7,53 110.3,52.1 102.1,53.8 98.2,59.2 
		105.7,62 107,65.2 108.5,69 	"/>
	<polygon class="st3" points="162,14 154.4,22.8 145.7,39.8 149.1,41.2 151.4,39.7 156.9,36.2 164.6,27.8 171.1,21.6 172.1,16.9 
		175,15.8 175,11.5 178.5,9.4 177.6,7 179.8,2.5 173,7.1 	"/>
	<polygon class="st3" points="75.7,41.7 63.9,26.8 54.6,19.7 42.4,15.1 34.9,11.9 38.2,16.8 37.7,19.1 43,19.8 40.4,23.7 44.6,24.9 
		46.6,28.6 54.8,33.8 64.1,40.4 69.3,42.6 71.8,43.6 	"/>
	<polygon class="st6" points="176.5,75.8 199.1,106.5 187.5,80.3 181.3,74.5 176.4,75.7 	"/>
	<path class="st6" d="M158.1,58.7l3.7,4.1l0.1-0.2l2.9-3.9l-2.9-2.9C161.3,57.4,159.9,58.5,158.1,58.7z"/>
	<polygon class="st7" points="199.1,106.5 176.5,75.8 176.4,75.7 174.7,76.1 172,78.6 173.3,80.9 177.2,87.9 	"/>
	<path class="st7" d="M153.4,54.3c0,1.2,0.5,2.3,1.3,3.1c0.8,0.8,1.9,1.3,3.1,1.3c0.1,0,0.2,0,0.3,0c1.8-0.1,3.2-1.3,3.8-2.9
		c0.2-0.5,0.3-1,0.3-1.5c0-2.4-2-4.4-4.4-4.4c-0.8,0-1.5,0.2-2.2,0.6C154.3,51.2,153.4,52.7,153.4,54.3z"/>
	<polygon class="st6" points="42.5,87.3 40.1,89.8 31.8,112.1 47.1,88.5 	"/>
	<polygon class="st6" points="49.1,95.6 51.7,90 51.7,90 	"/>
	<path class="st6" d="M63,70.8C63,70.8,63,70.8,63,70.8c-1.5,0-2.8-0.9-3.3-2.2l-1.3,1.5l2.6,3.4L63,70.8z"/>
	<polygon class="st7" points="49.7,89.1 47.1,88.5 31.8,112.1 49.1,95.6 51.7,90 	"/>
	<path class="st7" d="M63,70.8C63,70.8,63,70.8,63,70.8c2,0,3.6-1.6,3.6-3.6c0-2-1.6-3.6-3.6-3.6s-3.6,1.6-3.6,3.6
		c0,0.5,0.1,1,0.3,1.4C60.2,69.9,61.5,70.8,63,70.8z"/>
	<polygon class="st2" points="103,98.8 112.5,111.5 122.5,99.9 124.5,94.4 119.2,95 112.4,101.6 104.6,94.6 103.2,93.3 100.5,92.3 	
		"/>
	<polygon class="st2" points="73.9,83.5 71.6,82.6 62.5,75.5 60.9,73.5 58.4,70.1 57.6,69.1 52.8,67.3 49.3,67.4 49.5,71.6 53,71 
		56.9,76.9 52.3,71.8 49.5,71.6 49.5,71.7 45.6,71.8 46.3,76.4 49.6,75.7 54.6,80.8 49.2,76.6 46.4,76.9 46.4,76.9 42.2,78.2 
		44,82.7 43.9,82.3 47.1,80.8 53,84.9 46.8,81.9 44,82.7 41.6,84 42.4,87.3 42.5,87.3 47.1,88.5 49.7,89.1 51.7,90 51.7,90 
		54.7,91.3 65,89.8 66,90.3 68.2,85.7 	"/>
	<polygon class="st2" points="98.3,90.7 97.5,90.6 98.3,90.9 	"/>
	<polygon class="st1" points="53,84.9 47.1,80.8 43.9,82.3 44,82.7 46.8,81.9 	"/>
	<polygon class="st1" points="54.6,80.8 49.6,75.7 46.3,76.4 46.3,76.4 46.3,76.9 46.4,76.9 49.2,76.6 	"/>
	<polygon class="st1" points="56.9,76.9 53,71 49.5,71.6 49.4,71.6 49.5,71.6 52.3,71.8 	"/>
	<path class="st1" d="M174.7,76.1l1.7-0.4l4.8-1.2l0.7-0.2l0.8-3.3l-2.4-1.3l1.8-4.5l-4.3-1.3l0.8-5.1h-3.9l0.1-4.4h-3.4l-4.8,1.8
		l-1.9,2.5l-2.9,3.9l-0.1,0.2l-5.2,8.7l-7.3,4.8l6.2,1.5l2,2l1.2-1.2l12.4,0.8l0.9-0.8L174.7,76.1z M180,69.3l-0.2,0.4l-2.8-0.9
		l-6.2,2.9l6-3.9L180,69.3z M177.6,63.4l0.1,0.5l-2.9-0.3l-5.5,4.1l5-5.1L177.6,63.4z M171,57.9l3.6,0.6l-2.9,0.2l-4.7,5.1L171,57.9
		z"/>
	<polygon class="st8" points="170.8,71.7 177,68.8 179.8,69.7 180,69.3 176.8,67.8 	"/>
	<polygon class="st8" points="169.3,67.7 174.8,63.6 177.7,63.9 177.6,63.4 174.3,62.6 	"/>
	<polygon class="st8" points="171.7,58.7 174.6,58.5 171,57.9 167,63.8 	"/>
	<polygon class="st1" points="150.3,175 150.3,175 150.6,173.6 151.5,172.5 138.9,169.4 137.3,155.5 133.8,165.9 128.1,159.2 
		127.8,158.9 125,169.3 121.7,164.4 119.7,166.5 120.1,169.4 127.8,177.7 135,180.6 135.7,182.2 144.6,182.8 150.1,183.2 
		149.5,179.5 	"/>
	<polygon class="st8" points="137.3,155.5 138.9,169.4 151.5,172.5 152.6,171.1 154.1,171.1 144.2,166.7 143.5,159.9 143.5,160 	"/>
	<polygon class="st2" points="120.1,184.4 122,181.4 111.8,175 112.9,162.3 110.1,169.7 105,161.7 99,170.4 97,162.9 91.7,166.5 
		90.2,171.5 98.7,186.3 111,190.1 118.9,192.6 118.7,190 	"/>
	<polygon class="st1" points="122,181.4 122.7,180.2 114.2,174.3 116.7,167.2 113.5,160.7 112.9,162.3 111.8,175 	"/>
	<path class="st9" d="M149.3,76.3l-0.5-0.1l-5.9,2.3l-18.1,15l-0.3,0.9l-2,5.5l-10,11.6L103,98.8l-2.5-6.5l-0.2-0.6l-2-0.8l-0.8-0.3
		l-8.2-3.4l-10.6-2.4L74,83.5l-0.1,0l-5.7,2.2L66,90.3l-0.2,0.3L65.3,98l9.5,2.8l15,14.8l0.4,9.3l0,0.1l0,0.3l0.1,2.9l-0.3-0.3
		l-0.8,16.4l2.6,5.3l-4.5,20l4.4-3.1l5.3-3.6l2,7.5l6-8.7l5.1,8l2.8-7.4l0.6-1.6l3.2,6.5l0.8,1.6l2.2-2.3l2-2.1l3.3,4.9l2.8-10.4
		l0.3,0.3l1.6-5.8l5.4-8.8l-4.2-7.9l-0.6-6.3l-10.9-2.5l6.7-7l-3.4-3.4l7.9-5.6l6.6-4.4l7.2-8l2.8-9.5l9.3-7.3l2.7-1l0-0.1l-1.7-1.8
		l-2-2L149.3,76.3z M113,132.5l-4,1.2l-4.3-1l-7.2,2.1l6.6-4.9L113,132.5z M123.8,135.7l-4.2,4.6l-6.1,3.8l-7.2-0.5l-4.7,2.6
		l3.9-5.5l8,0.6l5.4-3.2L123.8,135.7z"/>
	<polygon class="st10" points="147.2,90 144.4,99.5 137.2,107.5 130.6,111.9 122.7,117.5 126.1,120.9 119.4,127.9 130.3,130.4 
		130.9,136.7 135.1,144.6 129.7,153.4 128.1,159.2 133.8,165.9 137.3,155.5 143.5,160 143.5,159.9 145.9,149.1 141.5,137.4 
		130.3,124.6 130.9,116.7 143.5,110.5 149.9,99.7 153,91.9 157.9,88.3 159.2,81.7 156.5,82.7 	"/>
	<polygon class="st10" points="97.5,134.8 104.7,132.7 109,133.7 113,132.5 104.1,129.9 	"/>
	<polygon class="st10" points="113.5,141.3 105.5,140.7 101.6,146.2 106.3,143.6 113.5,144.1 119.6,140.3 123.8,135.7 118.9,138.1 	
		"/>
	<polygon class="st10" points="74.8,100.8 65.3,98 73.2,101.6 80.7,109.1 87.9,115.8 90.2,124.9 89.8,115.6 	"/>
	<polygon class="st10" points="90.2,125.3 90,127.9 90.3,128.2 	"/>
	<polygon class="st11" points="140.6,203.4 134.5,193.8 131.3,182.9 127.5,180.1 127.1,180 122.8,180.2 123.6,178.9 122.7,180.2 
		122,181.4 120.1,184.4 118.7,190 118.9,192.6 119.1,195 122.9,199.1 129,204.4 132.7,214 136.5,216.4 141.2,209 	"/>
	<polygon class="st12" points="127.8,177.7 126.7,177.2 123.6,178.9 122.8,180.2 127.1,180 127.3,180 127.5,180.1 131.3,182.9 
		134.5,193.8 140.6,203.4 141.2,209 136.5,216.4 145.8,208.9 146.4,199.2 138.9,190 135.7,182.2 135,180.6 	"/>
	<polygon class="st11" points="174.3,186.5 165.1,182.4 158.5,174.3 154.1,174.2 150.3,175 149.5,179.5 150.1,183.2 150.3,184.7 
		152.4,188.8 157,191 164.1,193.3 170.6,200.2 174.7,200.9 176.1,193 	"/>
	<polygon class="st12" points="151.5,172.5 150.6,173.6 150.3,175 150.3,175 154.1,174.2 158.5,174.3 165.1,182.4 174.3,186.5 
		176.1,193 174.7,200.9 179.9,191.2 177.1,182.8 167.4,177.6 160.8,171 154.1,171.1 152.6,171.1 	"/>
</g>
</svg>
