<?xml version="1.0" encoding="utf-8"?>
<!-- Generator: Adobe Illustrator 21.0.0, SVG Export Plug-In . SVG Version: 6.00 Build 0)  -->
<svg version="1.1" id="Layer_1" xmlns="http://www.w3.org/2000/svg" xmlns:xlink="http://www.w3.org/1999/xlink" x="0px" y="0px"
	 viewBox="0 0 220 240" style="enable-background:new 0 0 220 240;" xml:space="preserve">
<style type="text/css">
	.st0{display:none;}
	.st1{display:inline;fill:#726322;}
	.st2{display:inline;}
	.st3{clip-path:url(#SVGID_2_);fill:#827325;}
	.st4{clip-path:url(#SVGID_4_);fill:#726322;}
	.st5{display:inline;fill:#564D18;}
	.st6{display:inline;fill:#982E38;}
	.st7{display:inline;fill:#C8B383;}
	.st8{display:inline;fill:none;stroke:#8C7C5D;stroke-width:0.75;stroke-miterlimit:10;}
	.st9{display:inline;fill:#827325;}
	.st10{display:inline;fill:#66581F;}
	.st11{clip-path:url(#SVGID_6_);fill:#726322;}
	.st12{clip-path:url(#SVGID_8_);fill:#66581F;}
	.st13{clip-path:url(#SVGID_10_);fill:#827325;}
	.st14{clip-path:url(#SVGID_12_);fill:#726322;}
	.st15{fill:#31272A;}
	.st16{fill:#44383D;}
	.st17{display:inline;fill:#BA1C11;}
	.st18{fill:#C4985B;}
	.st19{display:inline;fill:#A37C4D;}
	.st20{clip-path:url(#SVGID_14_);fill:#A37C4D;}
	.st21{clip-path:url(#SVGID_16_);fill:#A37C4D;}
	.st22{clip-path:url(#SVGID_18_);fill:#A37C4D;}
	.st23{clip-path:url(#SVGID_20_);fill:#A37C4D;}
	.st24{fill:#6D4F38;}
	.st25{fill:#5B412F;}
	.st26{display:inline;opacity:0.67;fill:#BA1C11;enable-background:new    ;}
	.st27{fill:#726322;}
	.st28{clip-path:url(#SVGID_22_);fill:#827325;}
	.st29{clip-path:url(#SVGID_24_);fill:#726322;}
	.st30{fill:#564D18;}
	.st31{fill:#982E38;}
	.st32{fill:#C8B383;}
	.st33{fill:none;stroke:#8C7C5D;stroke-width:0.75;stroke-miterlimit:10;}
	.st34{fill:#827325;}
	.st35{fill:#66581F;}
	.st36{fill:#B7302C;}
	.st37{fill:#A37C4D;}
	.st38{opacity:0.67;fill:#BA1C11;enable-background:new    ;}
	.st39{fill:#992626;}
</style>
<g id="Tête" class="st0">
	<path class="st1" d="M100.5,83l4.5,7.8l-6,6l18.6,6.5l1.5-7.9l15.8-12.3"/>
	<g class="st2">
		<g>
			<defs>
				<polygon id="SVGID_1_" points="68.7,47 79.5,32.4 101,22.7 127.5,24.5 146.3,32.7 162,49.1 158.5,63.1 139.5,82.7 115.6,92.8 
					89.5,81.1 70.6,61.9 				"/>
			</defs>
			<clipPath id="SVGID_2_">
				<use xlink:href="#SVGID_1_"  style="overflow:visible;"/>
			</clipPath>
			<path class="st3" d="M68.7,47l10.7-14.6l21.6-9.7l26.5,1.8l18.8,8.1L162,49.1l-3.5,14.1l-19,19.6l-23.9,10.1L89.5,81.1L70.6,61.9
				L68.7,47z"/>
		</g>
	</g>
	<g class="st2">
		<g>
			<defs>
				<polygon id="SVGID_3_" points="68.7,47 79.5,32.4 101,22.7 127.5,24.5 146.3,32.7 162,49.1 158.5,63.1 139.5,82.7 115.6,92.8 
					89.5,81.1 70.6,61.9 				"/>
			</defs>
			<clipPath id="SVGID_4_">
				<use xlink:href="#SVGID_3_"  style="overflow:visible;"/>
			</clipPath>
			<path class="st4" d="M130.2,24.4l13.6,11.7l2.4,15.4l-2.9,15.2l-14.1,16.2l-13.6,10l19.6,8.8l52.1-15.3L207,41.5L160,6.7
				L130.2,24.4z"/>
		</g>
	</g>
	<path class="st5" d="M149.8,47.4l-8.5-3.9l-7.2,2l-5.6,7l7.5,4.9l9.8-1.9L149.8,47.4z M79.3,46.5l8.5-3.8l7.2,2.1l5.6,7l-7.7,4.8
		l-9.6-2L79.3,46.5z"/>
	<path class="st6" d="M82.7,48.7l4.9-4.3l7.1,1.4L99,52l-6.7,2.9l-5.6-1.1L82.7,48.7z M146,47.4l-2.1,6.2l-6.9,2.2l-6.8-3.2l4.4-5.8
		L140,45L146,47.4z"/>
	<path class="st7" d="M115.5,63.9l-11.3,1.2l-10.8,2.1l-12.5-3.8l-4.5-4.2l4.1,9.5l15.4,8.1l17.9,4.6l18.6-3.4l13.7-5.9l7.4-8.5
		l1.3-5.2l-5.8,5.8l-9.6,3.9l-13.5-2L115.5,63.9z"/>
	<path class="st8" d="M82.4,68l1.7-2l2.2,4.2l3.5-2.7l2,5.8l4.2-5.1l4.8,8.4c0,0,3.1-9.6,3.4-9.2s3,10.6,3,10.6l6.3-11.7l4.1,11.7
		l3.2-9.8l4,8l3.4-6.5l3.2,6.2l2.7-6.1l2.1,3.5l3.1-4.1l2.2,2.3l1.9-3.5l2.5,2l1.3-3.3"/>
	<path class="st1" d="M115.2,51.8l-8.3,0.7l-4.5,4.9l7.1,3.6l2,7.3l3,4.9l3.3-4.8l1.4-6.8l7.1-3.5l-2.8-4.6L115.2,51.8z M149.9,43.6
		l8.4-18L178,12.8l11.9-2.3l-6.5,6.3l-13.5,7l-9.4,11.3L155,45.4L149.9,43.6z"/>
	<path class="st5" d="M189.9,10.5l-2.7,4.2l0.6,2.5l-3.7,1.7l-0.5,4.3l-3,0.8l-1.5,4.6l-7.2,5.4l-8.6,7.5l-8.3,4.1l-3.2-1.8
		l10.6-15.9L171,20l11.7-5.6L189.9,10.5z"/>
	<path class="st9" d="M83.8,37.6l-7.9-18.1L56.6,6L44.9,3.2l6.2,6.6l13.3,7.4l9,11.6l5.3,10.4L83.8,37.6z"/>
	<path class="st5" d="M44.9,3.2l2.7,5.2l-0.8,2.2L52,12l-3,3.6l4,1.7l1.6,3.9l7.6,6.1l8.5,7.6L78,39l4.1-1.4L72,21.4l-8.4-8.1
		L52,7.3L44.9,3.2z"/>
</g>
<g id="Corps" class="st0">
	<path class="st9" d="M103.2,93.3l-10.4-0.5l-9.1,8.3l6.2,13.2l3.8,13.9l0.7,15.9l0.4,11.3L118,158l15.6-5.7l-5.5-24.3l1.2-16.3
		l12-10.1l-4.9-6.3l-6.8-1.6L119.2,95l-6.8,6.6L103.2,93.3z"/>
	<path class="st9" d="M106.4,114.6l-11.8-2.2L79.5,97.3L65,89.8l-10.3,1.5l-5-2.2l-7.3-1.8L41.6,84l2.4-1.3l-1.8-4.5l4.2-1.3
		l-0.8-5.1l3.9-0.1l-0.2-4.3l3.5-0.1l4.8,1.8l4.9,6.4l9.1,7.1l15.8,6.2l10.9,1.9l2.3,15.5l10,6.3"/>
	<path class="st1" d="M44,82.7l2.8-0.8l6.2,3l-5.9-4.1l-3.2,1.5L44,82.7z M46.3,76.9l2.9-0.3l5.4,4.2l-5-5.1l-3.3,0.7L46.3,76.9z
		 M49.4,71.6l2.9,0.2l4.6,5.1L53,71L49.4,71.6z M129.4,108.3l11.8-2.3l9.9-19.7l7.6-7.7l12.4,0.8l3.6-3.3l7.3-1.8l0.8-3.3l-2.4-1.3
		l1.8-4.5l-4.3-1.3l0.8-5.1h-3.9l0.1-4.4h-3.4l-4.8,1.8l-4.8,6.4l-5.3,8.9l-10.8,7.1l-9.7,7.1l-8.4,6.2l-5.2,10.6"/>
	<path class="st10" d="M179.8,69.7l-2.8-0.9l-6.2,2.9l6-3.9l3.2,1.5L179.8,69.7z M177.7,63.9l-2.9-0.3l-5.5,4.1l5-5.1l3.3,0.8
		L177.7,63.9z M174.6,58.5l-2.9,0.2l-4.7,5.1l4-5.9L174.6,58.5z"/>
	<g class="st2">
		<g>
			<g>
				<defs>
					<polygon id="SVGID_5_" points="136.4,148.9 141.7,163 136.6,173.9 144.8,185.6 144.9,192.3 138,194.6 128.6,187.9 118.1,180.5 
						114.5,163.8 120.1,150.6 127,143.9 					"/>
				</defs>
				<clipPath id="SVGID_6_">
					<use xlink:href="#SVGID_5_"  style="overflow:visible;"/>
				</clipPath>
				<path class="st11" d="M136.4,148.9l5.3,14l-5.1,10.9l8.2,11.7l0.1,6.7l-6.9,2.3l-9.4-6.7l-10.5-7.4l-3.6-16.7l5.6-13.2l6.8-6.7
					L136.4,148.9z"/>
			</g>
		</g>
		<g>
			<g>
				<g>
					<defs>
						<polygon id="SVGID_7_" points="136.4,148.9 141.7,163 136.6,173.9 144.8,185.6 144.9,192.3 138,194.6 128.6,187.9 
							118.1,180.5 114.5,163.8 120.1,150.6 127,143.9 						"/>
					</defs>
					<clipPath id="SVGID_8_">
						<use xlink:href="#SVGID_7_"  style="overflow:visible;"/>
					</clipPath>
					<path class="st12" d="M136.4,160.7l-5.8,12.7l14.3,14.3l4.6-6.5l-8.8-7.1l-1.5-12.3L136.4,160.7z"/>
				</g>
			</g>
		</g>
	</g>
	<g class="st2">
		<g>
			<g>
				<defs>
					<polygon id="SVGID_9_" points="107.7,160.8 122.8,166.8 106,185.6 114.7,199 113.7,204.4 106,206.4 97.1,199.1 87.1,190.9 
						84.8,174 92.5,164.5 98.7,155.1 					"/>
				</defs>
				<clipPath id="SVGID_10_">
					<use xlink:href="#SVGID_9_"  style="overflow:visible;"/>
				</clipPath>
				<path class="st13" d="M107.7,160.8l15,6.1L106,185.6l8.7,13.3l-1,5.4l-7.7,2.1l-8.9-7.4l-10-8.1L84.8,174l7.7-9.5l6.2-9.5
					L107.7,160.8z"/>
			</g>
		</g>
		<g>
			<g>
				<g>
					<defs>
						<polygon id="SVGID_11_" points="107.7,160.8 122.8,166.8 106,185.6 114.7,199 113.7,204.4 106,206.4 97.1,199.1 87.1,190.9 
							84.8,174 92.5,164.5 98.7,155.1 						"/>
					</defs>
					<clipPath id="SVGID_12_">
						<use xlink:href="#SVGID_11_"  style="overflow:visible;"/>
					</clipPath>
					<path class="st14" d="M111.4,169.8l-7.9,15.6l12.6,17.5l-1.6-14.2l-3.7-5.9l4.1-6L111.4,169.8z"/>
				</g>
			</g>
		</g>
	</g>
	<path class="st9" d="M158,171.8l7.8,1.6l8.6,4.8l2.9,3.9l1.3,4.2l-2.9-3.3l-3.9-1.4l3.4,3.1l1,4.6l-3-3.3l-4.7-2.2l3.5,3.9l0.2,4.1
		l-2.4-3.4l-3.7-2.5l-0.8,3.4l1.8,3.7l-4.5-2.1l-2.1-4.5l-3.9-0.2l-4-4l-0.3-6.1L158,171.8z M119.7,192.3l4.5,6.5l7.8,6.1l4.7,1.2
		l4.4-0.4l-4.2-1.5l-2.8-3l4.2,1.9l4.6-0.9l-4.2-1.5l-3.9-3.4l5,1.7l3.9-1.4l-4.1-0.9l-3.7-2.4l2.8-2.1l4.1,0.2l-3.7-3.3l-5-0.2
		l-1.6-3.5l-5.3-2.1l-5.7,2.1L119.7,192.3z"/>
	<polyline class="st9" points="128.4,96.9 136,97.4 152.5,119.4 163.4,127.4 169.5,136.2 158.4,141.3 145.5,128.6 136.3,115.7 
		122.5,112.6 	"/>
	<polygon class="st10" points="153.3,141.9 153.3,147.5 163.1,149.7 170.5,147.5 175.3,145.1 177.2,140.4 176,138 171.6,142.1 	"/>
	<polygon class="st9" points="155.1,146.3 156.8,141.3 158.3,141.7 159.7,148 164,148 163.4,144.7 165.1,141.3 166.7,141.3 
		166.5,144.2 169.5,146.1 174.5,144.7 171.1,139.4 172,138.4 177.2,140.4 176.3,145.6 164.8,149.9 156.1,149.1 153.3,147.5 	"/>
	<g id="Armes" class="st2">
		<path class="st15" d="M164,134.5l14-5.8l21,0.2l-19,9l-16.9,1.3l-11.9,3.6l-0.8-3.1L164,134.5z"/>
		<path class="st16" d="M198.9,128.9l-27.3,5.8l-6.5,0.7l2.8,3.5l6.1-0.5l5.8-0.5L198.9,128.9z"/>
		
			<ellipse transform="matrix(0.4136 -0.9105 0.9105 0.4136 -39.0994 220.4713)" class="st16" cx="151.6" cy="140.6" rx="3.2" ry="3.2"/>
	</g>
	<polyline class="st9" points="87,92.8 78.8,97.5 71.7,124.1 64.6,135.5 62.2,146 74.4,146.6 81.6,129.9 85.3,114.5 97,106.5 	"/>
	<polygon class="st10" points="79.3,145.2 81.4,150.4 73.2,156.2 65.5,156.8 60.2,156.4 56.6,152.7 56.9,150 62.4,152.3 	"/>
	<polygon class="st17" points="79.7,141.6 72,137.7 68.1,140.1 61,141.1 56.2,149.4 62.2,155.1 74.4,153.2 80,148.5 	"/>
	<polygon class="st9" points="79.3,149.9 75.9,146 74.6,147 75.7,153.3 71.7,154.9 71.1,151.6 68.2,149.1 66.7,149.7 67.9,152.3 
		65.9,155.2 60.7,155.7 61.9,149.5 60.7,149 56.6,152.7 59.4,157.3 71.6,157 79.5,153 81.4,150.4 	"/>
	<polyline class="st9" points="97.8,149.1 92.5,161.5 90.5,173.3 90.5,178.4 93.7,194.5 105.2,193.9 103.9,177.5 105.8,172.3 
		107.9,163.3 113.3,146.3 	"/>
	<polyline class="st9" points="130.4,148.6 134.1,161.6 134.6,173.5 133.9,178.6 128.7,194.1 117.4,192.1 120.8,176 119.6,170.6 
		118.6,161.4 115.4,143.9 	"/>
	<path class="st1" d="M130.2,100.5l0.4,10.1l15,10.8l2.9,7.4l0.2,10l2.3,3.4l0.5,6.3l2.6,1.1l1.4-1.8l3.5,2.1l1.6-3.4l4.1,1.3
		l0.5-3.2l3.6,0.7l0.4-2.8l-0.9-4.2l-4.7-4.8l-6.7-5.5l-4.5-9.9l-4.6-8.9l-4-7.8l-11-4.3"/>
</g>
<g id="Vetements" class="st0">
	<g class="st2">
		<path class="st18" d="M100.5,92.3l2.5,6.5l9.5,12.7l10-11.6l2.3-6.4l7.2-0.2l9.3,3.6l6.9,7.6l8.3,14.7l-4,8l-8.3,2.9l-9.6-7.6
			l-3.4-7.4l-0.3,1.6l-0.6,7.9l6.5,13.8L139,156l-3.3,9.8l-7.9-7l-1,9.8l-5.5-5.8l-3.8,5.9l-4-8.1l-3.4,9l-5.1-8l-6,8.7l-2-7.5
			l-9.7,6.7l4.5-20l-1.3-9.4L90.2,125l-1.4-5.3l-0.5-2.3l-0.8,1.2l-3.8,11.1l-9.8-0.9l-5.8-4.8l0.8-12.2l6.7-12.7l8-5.8l7.3-2.7
			L100.5,92.3z"/>
	</g>
	<polygon class="st19" points="149.8,128.2 144.3,126.9 138.8,122.4 132.3,115.1 130.5,114.3 134.6,122.6 144.2,130.1 	"/>
	<polygon class="st19" points="131.2,115.1 130.5,114.3 127.2,125.4 121,130 127.3,130 127,137.7 131.2,146 131.2,156.8 
		132.6,163.1 135.7,165.9 139,156.1 136.8,138.4 130.3,124.6 	"/>
	<g class="st2">
		<g>
			<defs>
				<polygon id="SVGID_13_" points="100.3,91.7 103,98.8 112.5,111.5 122.5,99.9 124.8,93.5 142.9,78.5 148.8,76.2 155.5,77.8 
					159.2,81.6 157.9,88.3 153,91.9 149.9,99.7 143.5,110.5 130.9,116.7 130.3,124.6 141.5,137.4 145.9,149.1 143.5,160 
					137.3,155.5 133.8,165.9 127.8,158.9 125,169.3 121.7,164.4 117.5,168.8 113.5,160.7 110.1,169.7 105,161.7 99,170.4 97,162.9 
					87.3,169.6 91.8,149.6 89.2,144.3 90.2,125 87.9,115.8 80.7,109.1 73.2,101.6 65.3,98 65.8,90.6 68.2,85.7 74,83.5 78.7,84.8 
					89.3,87.2 				"/>
			</defs>
			<clipPath id="SVGID_14_">
				<use xlink:href="#SVGID_13_"  style="overflow:visible;"/>
			</clipPath>
			<path class="st20" d="M160.7,81.1l-4.2,1.6l-9.3,7.3l-2.8,9.5l-7.2,8l-6.6,4.4l-7.9,5.6l3.4,3.4l-6.7,7l10.9,2.5l0.6,6.3l4.2,7.9
				l-5.4,8.8l-2,7.1l7.4,7.3l3.9-8.1l6.1,1.8l3.6-13l-5.2-17.6l1.2-16.9l3.4-8.8l7.5-9.5l6.6-8.1l0.5-6.8L160.7,81.1z"/>
		</g>
	</g>
	<polyline class="st19" points="83.7,129.6 80,129.3 82.7,122.2 86.6,117.4 89.3,116.6 	"/>
	<path class="st19" d="M116.1,145l-5.6,2.8l-7.9-1.2l-4.3,5.2l4.9-2.2l7.1,1l6.4-3.3l4.5-4.3L116.1,145z"/>
	<path class="st19" d="M109.7,134.9l-8.9-2.6l-6.6,4.9l7.2-2.1l4.3,1L109.7,134.9z"/>
	<g class="st2">
		<g>
			<g>
				<defs>
					<polygon id="SVGID_15_" points="100.3,91.7 103,98.8 112.5,111.5 122.5,99.9 124.8,93.5 142.9,78.5 148.8,76.2 155.5,77.8 
						159.2,81.6 157.9,88.3 153,91.9 149.9,99.7 143.5,110.5 130.9,116.7 130.3,124.6 141.5,137.4 145.9,149.1 143.5,160 
						137.3,155.5 133.8,165.9 127.8,158.9 125,169.3 121.7,164.4 117.5,168.8 113.5,160.7 110.1,169.7 105,161.7 99,170.4 97,162.9 
						87.3,169.6 91.8,149.6 89.2,144.3 90.2,125 87.9,115.8 80.7,109.1 73.2,101.6 65.3,98 65.8,90.6 68.2,85.7 74,83.5 78.7,84.8 
						89.3,87.2 					"/>
				</defs>
				<clipPath id="SVGID_16_">
					<use xlink:href="#SVGID_15_"  style="overflow:visible;"/>
				</clipPath>
				<path class="st21" d="M113,132.5l-8.9-2.6l-6.6,4.9l7.2-2.1l4.3,1L113,132.5z"/>
			</g>
		</g>
	</g>
	<g class="st2">
		<g>
			<g>
				<defs>
					<polygon id="SVGID_17_" points="100.3,91.7 103,98.8 112.5,111.5 122.5,99.9 124.8,93.5 142.9,78.5 148.8,76.2 155.5,77.8 
						159.2,81.6 157.9,88.3 153,91.9 149.9,99.7 143.5,110.5 130.9,116.7 130.3,124.6 141.5,137.4 145.9,149.1 143.5,160 
						137.3,155.5 133.8,165.9 127.8,158.9 125,169.3 121.7,164.4 117.5,168.8 113.5,160.7 110.1,169.7 105,161.7 99,170.4 97,162.9 
						87.3,169.6 91.8,149.6 89.2,144.3 90.2,125 87.9,115.8 80.7,109.1 73.2,101.6 65.3,98 65.8,90.6 68.2,85.7 74,83.5 78.7,84.8 
						89.3,87.2 					"/>
				</defs>
				<clipPath id="SVGID_18_">
					<use xlink:href="#SVGID_17_"  style="overflow:visible;"/>
				</clipPath>
				<path class="st22" d="M118.9,138.1l-5.4,3.2l-8-0.6l-3.9,5.5l4.7-2.6l7.2,0.5l6.1-3.8l4.2-4.6L118.9,138.1z"/>
			</g>
		</g>
	</g>
	<g class="st2">
		<g>
			<g>
				<defs>
					<polygon id="SVGID_19_" points="100.3,91.7 103,98.8 112.5,111.5 122.5,99.9 124.8,93.5 142.9,78.5 148.8,76.2 155.5,77.8 
						159.2,81.6 157.9,88.3 153,91.9 149.9,99.7 143.5,110.5 130.9,116.7 130.3,124.6 141.5,137.4 145.9,149.1 143.5,160 
						137.3,155.5 133.8,165.9 127.8,158.9 125,169.3 121.7,164.4 117.5,168.8 113.5,160.7 110.1,169.7 105,161.7 99,170.4 97,162.9 
						87.3,169.6 91.8,149.6 89.2,144.3 90.2,125 87.9,115.8 80.7,109.1 73.2,101.6 65.3,98 65.8,90.6 68.2,85.7 74,83.5 78.7,84.8 
						89.3,87.2 					"/>
				</defs>
				<clipPath id="SVGID_20_">
					<use xlink:href="#SVGID_19_"  style="overflow:visible;"/>
				</clipPath>
				<path class="st23" d="M65.3,98l9.5,2.8l15,14.8l0.5,12.6L65.3,98z"/>
			</g>
		</g>
	</g>
	<g class="st2">
		<path class="st24" d="M111.3,196.6l-5-0.8l-4.9,2.7l-6.6,4.7l-10.2,1.3l-3.2,3.1l5.3,7.4l6.2,1.9l10.9-5.9l13.3,0.6l3.7-7.6
			l-4.5-4.7L111.3,196.6z"/>
		<path class="st25" d="M119.8,202.9l-0.9,4.4l-3.9,2.9l-11.3,0.5L93,214.5l-5.5-0.7l-6.1-6.1l5.1,10.8l9.3,2.9l10.7-5.1l10.1-1.5
			l5.3-7.3l-0.9-3.4L119.8,202.9z"/>
	</g>
	<g class="st2">
		<path class="st24" d="M116.5,191l-2.6,5.2l6.2,5.7l10.1-4l9.7,3.3l5.7-4.4l2.7-7.5l-3.6-1.9l-9,1.5l-6.8-2.4l-4.8-1l-4,1.9
			L116.5,191z"/>
		<path class="st25" d="M113.9,196.2l0.1,3.1l6.2,4.9l8.9-1.2l10.5,1.7l7.1-4.8l1.7-10.5l-3.7,6.8l-4.9,3.7l-9.6-2.1l-9.8,2.4
			l-3.3-2.4l-2.6-2.7L113.9,196.2z"/>
	</g>
	<g class="st2">
		<path class="st24" d="M99,185.5l-4.4-0.7l-4.3,2.4l-5.8,4.3l-9.1,1.2l-2.9,2.8l4.8,6.4l6.8,2.5l8.3-6l10.8,0.8l4.3-7.3l-4-4.2
			L99,185.5z"/>
		<path class="st25" d="M106.6,190.9l-1.7,3.4l-2.4,3.2l-10.1,0.6l-8.5,4.8l-5.7-2.1l-5.5-5.4l4.7,9.5l8.2,2.5l9.5-4.7l8.9-1.5
			l4.5-6.5l-0.8-3L106.6,190.9z"/>
	</g>
</g>
<g id="Armes_et_objets" class="st0">
	<polygon class="st26" points="79.8,146.6 81.4,150.4 81.2,153.4 79.2,159.1 78.7,158.1 78.4,156.4 79.1,155.1 79.5,153 78.9,149.4 
		78.9,148.4 	"/>
	<polygon class="st26" points="61.1,154 61.8,156.1 64.4,156.1 65.4,154.6 63.8,153.3 	"/>
	<path class="st26" d="M69,156.8l1-1.3h4.3l-1.6,2.3c0,0-1.2,3.7-1,3.9s-0.8-0.5-0.8-0.5l-0.3-1.6l-0.6-2.1L69,156.8z"/>
	<g id="Armes_1_" class="st2">
		<path class="st15" d="M159,142.5l-14.3,8.8l-23,3.5l19.3-13.1l18.3-4.4l12.3-6l1.5,3.3L159,142.5z"/>
		<path class="st16" d="M121.7,154.7l28.9-11.1l7-1.9l-3.7-3.3l-6.6,1.6l-6.3,1.5L121.7,154.7z"/>
		
			<ellipse transform="matrix(0.2647 -0.9643 0.9643 0.2647 -2.7247 263.5542)" class="st16" cx="171.5" cy="133.6" rx="3.6" ry="3.6"/>
	</g>
	<path class="st1" d="M148.6,138.7l2.3,3.4l0.5,6.3l2.6,1.1l1.4-1.8l3.5,2.1l1.6-3.4l4.1,1.3l0.5-3.2l3.6,0.7l0.4-2.8l-0.9-4.2
		l-4.7-4.8"/>
	<path class="st10" d="M155.5,147.2l1.1-2.2l-1.6-5.5l2.4,5.5l-1.7,2.4L155.5,147.2z M160.5,146.2l0.6-2.4l-2.7-5.1l3.6,4.8
		l-1.1,2.6L160.5,146.2z M165.4,144.3l0.2-2.4l-3.6-4.6l4.4,4.1L165.4,144.3z"/>
</g>
<g>
	<g id="Tête_1_">
		<path class="st27" d="M103.1,86l4.8,8.3l-6.4,6.4l19.8,6.9l1.5-8.4l16.8-13"/>
		<g>
			<g>
				<defs>
					<polygon id="SVGID_21_" points="69.3,47.7 80.7,32.2 103.6,21.9 131.7,23.9 151.7,32.5 168.4,49.9 164.6,64.9 144.5,85.6 
						119.1,96.4 91.3,83.9 71.3,63.5 					"/>
				</defs>
				<clipPath id="SVGID_22_">
					<use xlink:href="#SVGID_21_"  style="overflow:visible;"/>
				</clipPath>
				<path class="st28" d="M69.3,47.7l11.4-15.5l22.9-10.3l28.1,2l20,8.6l16.7,17.4l-3.8,15l-20.1,20.8l-25.4,10.8L91.3,83.9
					l-20-20.4L69.3,47.7z"/>
			</g>
		</g>
		<g>
			<g>
				<defs>
					<polygon id="SVGID_23_" points="69.3,47.7 80.7,32.2 103.6,21.9 131.7,23.9 151.7,32.5 168.4,49.9 164.6,64.9 144.5,85.6 
						119.1,96.4 91.3,83.9 71.3,63.5 					"/>
				</defs>
				<clipPath id="SVGID_24_">
					<use xlink:href="#SVGID_23_"  style="overflow:visible;"/>
				</clipPath>
				<path class="st29" d="M134.6,23.7l14.5,12.5l2.5,16.3l-3,16.1l-15,17.2l-14.5,10.6l20.8,9.4l55.3-16.3l20.9-47.6l-49.9-37
					L134.6,23.7z"/>
			</g>
		</g>
		<path class="st30" d="M155.4,48.1l-9-4.1l-7.6,2.1l-6,7.4l8,5.2l10.4-2L155.4,48.1z M80.5,47.2l9-4l7.6,2.3l6,7.4L95,58l-10.2-2.1
			L80.5,47.2z"/>
		<path class="st31" d="M84.2,49.5l5.2-4.5l7.5,1.5l4.6,6.6l-7.1,3l-6-1.2L84.2,49.5z M151.4,48.2l-2.3,6.6l-7.3,2.4l-7.2-3.4
			l4.7-6.2l5.8-1.9L151.4,48.2z"/>
		<path class="st32" d="M119,65.7L107,67l-11.5,2.2l-13.2-4l-4.8-4.5l4.4,10.1l16.3,8.6l19,4.9l19.8-3.6l14.5-6.2l7.9-9l1.4-5.5
			l-6.2,6.1l-10.2,4.2L130,68.1L119,65.7z"/>
		<path class="st33" d="M83.9,70l1.9-2.1l2.4,4.4l3.8-2.9l2.1,6.1l4.5-5.4l5.1,8.9c0,0,3.3-10.2,3.6-9.7s3.2,11.3,3.2,11.3l6.7-12.4
			l4.3,12.5l3.4-10.4l4.3,8.5l3.6-6.9l3.4,6.6l2.9-6.5l2.2,3.7l3.3-4.3l2.3,2.4l2-3.7l2.6,2.1l1.4-3.5"/>
		<path class="st27" d="M118.7,52.8l-8.9,0.8l-4.8,5.2l7.6,3.9l2.1,7.7l3.1,5.2l3.5-5.1l1.5-7.2l7.6-3.7l-3-4.8L118.7,52.8z
			 M155.6,44.2l8.9-19.1l20.8-13.6L198,9l-6.9,6.7l-14.3,7.4l-9.9,12l-6,11L155.6,44.2z"/>
		<path class="st30" d="M198,9l-2.9,4.5l0.7,2.6l-3.9,1.8l-0.5,4.5l-3.2,0.8l-1.6,4.8l-7.6,5.8l-9.1,7.9l-8.8,4.3l-3.4-1.9
			l11.2-16.9l9.1-8.4l12.4-5.9L198,9z"/>
		<path class="st34" d="M85.3,37.8L77,18.5L56.5,4.2L44,1.2l6.6,7L64.7,16l9.6,12.3l5.7,11L85.3,37.8z"/>
		<path class="st30" d="M44,1.2l2.9,5.6l-0.8,2.4l5.5,1.4l-3.2,3.8l4.3,1.8l1.7,4.1l8,6.5l9,8.1l7.7,4.3l4.3-1.5L72.8,20.5l-8.9-8.6
			L51.5,5.5L44,1.2z"/>
	</g>
	<path class="st34" d="M105.9,96.9l-11-0.5l-9.7,8.8l6.6,14l4,14.8l0.7,16.9l0.4,12l24.6,2.8l16.6-6.1l-5.8-25.8l1.3-17.3l12.7-10.7
		l-5.2-6.7l-7.3-1.7l-10.9,1.3l-7.2,7L105.9,96.9z"/>
	<polyline class="st34" points="88.7,96.4 80,101.3 72.5,129.6 65,141.8 62.4,152.8 75.4,153.5 83,135.8 86.9,119.5 99.4,111 	"/>
	<polygon class="st35" points="86.2,149.4 87.6,156.7 75.5,161.9 65.4,160.8 58.6,158.8 55,153.1 56,149.7 62.6,154.1 	"/>
	<polygon class="st36" points="87.7,144.8 78.7,137.7 73.1,139.8 63.7,139.3 55.3,148.7 61.6,157.6 77.8,158.5 86.2,153.8 	"/>
	<polygon class="st34" points="85,155.5 81.6,149.5 79.7,150.4 79.4,158.9 73.9,159.9 73.9,155.5 70.8,151.5 68.8,151.9 69.7,155.5 
		66.3,158.8 59.5,158.1 62.6,150.4 61.1,149.4 55,153.1 57.3,159.8 73.2,162.6 84.4,159.5 87.6,156.7 	"/>
	<polyline class="st34" points="99.5,156.2 93,169.4 90.5,181.8 90.5,187.3 97,202.9 108.6,203.8 106,186.2 111.5,180.9 116.1,167 
		118.6,153.2 	"/>
	<polyline class="st34" points="134.4,156.3 139.8,170.4 140.9,183.1 140.2,188.5 133.8,204.8 124.5,199.4 124.8,185.4 120.6,179.4 
		116.8,169.1 114.1,150.7 	"/>
	<polygon class="st27" points="138.3,172.1 138.3,180.5 138.3,185.5 135.6,195.2 138.2,193.6 140.3,187.9 140.9,183.1 140,172.1 	
		"/>
	<polygon class="st27" points="114.1,172.5 111.5,180.9 106,186.2 107.4,196.1 106,197.3 102.7,185.4 109.1,178.5 109.7,170.9 	"/>
	<path class="st27" d="M134.6,104.5l0.4,10.7l15.9,11.4l3.1,7.9l-1.1,9.6l3.7,4.6l0.6,6.7l2.8,1.2l1.5-1.9l3.7,2.2l1.7-3.6l4.4,1.4
		l0.5-3.4l3.8,0.7l0.5-3l-0.9-4.5l-2.1-7.6l-7.6-5.8l-7.1-8l-4.9-9.5l-4.3-8.2l-11.6-4.6"/>
	<g>
		<path class="st18" d="M103.1,95.9l2.6,6.9l10.1,13.5l10.6-12.3l2.4-6.8l7.6-0.3l9.9,3.9l7.3,8.1l8.8,15.6l-4.2,8.5l-8.8,3.1
			l-10.2-8.1l-3.6-7.9l-0.3,1.7l-0.6,8.4l6.9,14.7l2.4,18.7l-3.5,10.4l-8.4-7.4l-1,10.4l-5.8-6.2l-5.9,6.2l-3.5-5.3l-5.2,5.1
			l-2.7-7.3l-6.4,9.2l-2.1-8L89,177.9l4.8-21.2l-1.4-10l-0.3-16.2l-1.5-5.6l-0.5-2.5l-0.9,1.2l-3.6,10.5l-4.4,0.9l-6.4-0.6l-6.1-5.1
			l0.9-12.9l7.1-13.5l8.5-6.2L93,94L103.1,95.9z"/>
	</g>
	<polygon class="st37" points="155.4,133.9 149.6,132.6 143.8,127.8 136.8,120.1 134.9,119.2 139.3,128 149.5,136 	"/>
	<polygon class="st37" points="135.7,120.1 134.9,119.2 131.4,131 124.8,135.9 131.6,135.9 131.2,144 135.7,152.9 135.6,164.4 
		137.1,171.1 140.4,174 143.9,163.5 141.6,144.8 134.7,130.1 	"/>
	<polygon class="st37" points="90.2,121.5 88.3,122.5 84.2,127.6 81.3,135.1 85.7,134.2 87.5,128.8 90.3,123.2 	"/>
	<path class="st37" d="M119.6,151.8l-6,3l-8.4-1.3l-4.6,5.5l5.2-2.4l7.6,1.1l6.8-3.5l4.8-4.5L119.6,151.8z"/>
	<path class="st37" d="M112.8,141l-9.5-2.8l-7,5.2l7.6-2.2l4.6,1.1L112.8,141z"/>
	<g>
		<path class="st24" d="M122.7,199.1l-2.8,5.5l6.6,6l10.7-4.2l10.3,3.5l6.1-4.6l2.9-8l-3.8-2l-9.6,1.6l-4.2-3.6l-8.3,2.8l-7.5-1.5
			L122.7,199.1z"/>
		<path class="st25" d="M120,204.6l0.1,3.3l6.6,5.2l9.5-1.3l11.1,1.8l7.5-5.1l1.8-11.1l-3.9,7.2l-5.2,3.9l-10.2-2.2l-10.4,2.5
			l-3.5-2.5l-2.8-2.9L120,204.6z"/>
	</g>
	<g>
		<path class="st24" d="M101.5,196.5l-8.5-1.7l-0.7,1.9l-6.2,4.5l-9.6,1.3l-3,3l5.1,6.8l7.2,2.6l8.9-6.4l11.5,0.9l4.5-7.7l-2.4-6.9
			L101.5,196.5z"/>
		<path class="st25" d="M109.6,200.6l-1.8,3.6l-2.6,3.4l-10.7,0.7l-9.1,5.1l-6.1-2.2l-5.9-5.7l5,10.1l8.7,2.7l10.1-5l9.4-1.6
			l4.8-6.9l-0.9-3.2L109.6,200.6z"/>
	</g>
	<g id="Armes_et_objets_1_">
		<polygon class="st38" points="86.5,151.3 87.6,156.7 86.6,160.5 82.4,167.3 82,165.9 82.1,163.6 83.3,162.1 84.4,159.5 
			84.6,154.7 84.9,153.4 		"/>
		<path class="st38" d="M69.9,161.7l1.6-1.5l5.5,1.1l-2.7,2.6c0,0-2.5,4.5-2.3,4.7c0.2,0.3-0.8-0.8-0.8-0.8l0.1-2.1l-0.3-2.8
			L69.9,161.7z"/>
		<g id="Armes_2_">
			<path class="st15" d="M166.8,149.1l-19.1,11.8l-30.8,4.6l25.8-17.6l24.5-5.9l16.5-8.1l2,4.4L166.8,149.1z"/>
			<path class="st16" d="M116.9,165.5l38.7-14.9l9.4-2.5l-5-4.4l-8.8,2.1l-8.5,2.1L116.9,165.5z"/>
			
				<ellipse transform="matrix(0.2647 -0.9643 0.9643 0.2647 2.5816 277.8613)" class="st16" cx="183.5" cy="137.2" rx="4.8" ry="4.8"/>
		</g>
		<path class="st27" d="M152.8,144.1l3,4.6l0.7,8.4l3.5,1.5l1.9-2.4l4.7,2.8l2.2-4.5l5.5,1.8l0.7-4.3l4.9,0.9l0.6-3.8l-1.2-5.6
			l-6.2-6.4"/>
		<path class="st35" d="M162,155.4l1.5-2.9l-2.1-7.4l3.3,7.3l-2.2,3.3L162,155.4z M168.8,154.1l0.8-3.2l-3.6-6.8l4.8,6.4l-1.5,3.5
			L168.8,154.1z M175.4,151.6l0.3-3.2l-4.8-6.1l5.8,5.5L175.4,151.6z"/>
	</g>
</g>
<polygon class="st39" points="78.7,137.7 84.3,145.9 83.7,153.2 84.6,154.7 86.2,153.8 87.7,144.8 "/>
<polygon class="st36" points="73.4,142.1 69.9,136.3 60.5,134.6 54.3,139.5 54.3,145.3 60.6,147.8 63.3,146.9 56.5,143.9 
	56.9,140.8 61.1,137.7 67.6,138.6 70.9,141.6 "/>
<polygon class="st39" points="74.6,143.9 68.7,137.7 60.7,136.2 54.3,139.5 60.5,134.6 69.9,136.3 "/>
</svg>
