<svg id="Layer_1" xmlns="http://www.w3.org/2000/svg" xmlns:xlink="http://www.w3.org/1999/xlink" viewBox="0 0 220 240"><style>.st0{fill:#726322}.st3{fill:#564d18}.st4{fill:#982e38}.st7{fill:#827325}.st8{fill:#31272a}.st9{fill:#44383d}.st10{fill:#66581f}.st15{display:none;fill:#827325}.st21{fill:#6d4f38}.st22{fill:#5b412f}</style><g id="Tête"><path class="st0" d="M99.3 84.8l8.3 7.4-8.2 6.5 10.2 6.8 9.6-10.5 14.3-14"/><defs><path id="SVGID_1_" d="M63.6 52.6l9-15.7 20.3-12.1 26.5-1.2 19.6 5.9L156.5 44l-1.9 14.4L138 80l-22.6 12.8-27.3-8.7-20.9-16.9z"/></defs><clipPath id="SVGID_2_"><use xlink:href="#SVGID_1_" overflow="visible"/></clipPath><path clip-path="url(#SVGID_2_)" fill="#827325" d="M63.6 52.6l9-15.7 20.3-12.1 26.5-1.2 19.6 5.9L156.5 44l-1.9 14.4L138 80l-22.6 12.8-27.3-8.7-20.9-16.9z"/><defs><path id="SVGID_3_" d="M63.6 52.6l9-15.7 20.3-12.1 26.5-1.2 19.6 5.9L156.5 44l-1.9 14.4L138 80l-22.6 12.8-27.3-8.7-20.9-16.9z"/></defs><clipPath id="SVGID_4_"><use xlink:href="#SVGID_3_" overflow="visible"/></clipPath><path clip-path="url(#SVGID_4_)" fill="#726322" d="M122.1 23.1L137 33.2l4.1 15-1.1 15.4-12.2 17.7-12.4 11.5 20.5 6.5 50-21.2 14.4-46.8-50.7-29.2z"/><path class="st3" d="M144.2 43.7l-8.9-2.9-6.9 2.8-4.8 7.6 8 4 9.5-3zM74 50.9l8-4.7 7.4 1.3 6.4 6.3-7.1 5.7-9.8-.9z"/><path class="st4" d="M77.7 52.7l4.4-4.8 7.2.6 5 5.7-6.3 3.6-5.7-.5zM140.4 44.2l-1.4 6.4-6.6 3-7.1-2.4 3.7-6.3 5.2-2.4z"/><path fill="#c8b383" d="M112 64.1l-11.1 2.5-10.5 3.3-12.8-2.3-5-3.7 5.2 9L94 79.2l18.3 2.5 18.1-5.5 12.9-7.4 6.4-9.3.7-5.3-5.1 6.4-9.1 5-13.6-.4z"/><path d="M79.6 71.9l1.5-2.2 2.7 3.9 3.2-3.1 2.6 5.5 3.6-5.5 5.7 7.8s2-9.9 2.3-9.5 4.2 10.2 4.2 10.2l4.9-12.3 5.4 11.2 2.1-10.1 4.9 7.5 2.6-6.8 3.9 5.8 2-6.4 2.5 3.2 2.6-4.4 2.4 2 1.5-3.7 2.7 1.7.9-3.4" fill="none" stroke="#8c7c5d" stroke-width=".75" stroke-miterlimit="10"/><path class="st0" d="M110.3 52.1l-8.2 1.7-3.9 5.4 7.5 2.8 2.8 7 3.5 4.5 2.7-5.1.6-6.9 6.7-4.3-3.3-4.2zM143.9 40l6.3-18.8 18-15 11.6-3.7-5.7 7-12.6 8.5-8 12.3-4.4 10.9z"/><path class="st3" d="M179.8 2.5L177.6 7l.9 2.4-3.5 2.1v4.3l-2.9 1.1-1 4.7-6.5 6.2-7.7 8.4-7.8 5-3.4-1.4 8.7-17L162 14l11-6.9z"/><path class="st7" d="M77.5 41.6l-9.9-17.1-20.7-11.2-12-1.4 6.9 5.8 14.1 5.8L66.2 34l6.5 9.7z"/><path class="st3" d="M34.9 11.9l3.3 4.9-.5 2.3 5.3.7-2.6 3.9 4.2 1.2 2 3.7 8.2 5.2 9.3 6.6 7.7 3.2 3.9-1.9-11.8-14.9-9.3-7.1-12.2-4.6z"/></g><g id="Armes"><path class="st8" d="M172.4 66.2l15.1 14.1 11.6 26.2-21.9-18.6L166 67.6l-11.2-12.7 3.4-2.8z"/><path class="st9" d="M199.1 106.5l-22.6-30.7-4.5-7.7-2.7 5.5 4 7.3 3.9 7z"/><circle class="st9" cx="157.8" cy="54.3" r="4.4"/><g><path class="st8" d="M52 77.3L40.1 89.8l-8.3 22.3 17.3-16.5 8.2-17.5L66 67l-3-2.2z"/><path class="st9" d="M31.8 112.1L49 85.5l3.3-6.7-.4 10.8-2.8 6z"/><circle class="st9" cx="63" cy="67.2" r="3.6"/></g></g><g id="Corps"><path class="st7" d="M103.2 93.3l-10-3.6-9.5 11.4 6.2 13.2.4 13.9-1.1 16.1 5.5 11.2 23.2 2.6 25.1-3.4-15-26.6 1.2-16.3 12-10.1-4.2-11-7.5 3.1-10.3 1.2-6.8 6.6z"/><path class="st7" d="M106.4 114.6l-11.8-2.2-15.1-15.1L65 89.8l-10.3 1.5-5-2.2-7.3-1.8-.8-3.3 2.4-1.3-1.8-4.5 4.2-1.3-.8-5.1 3.9-.1-.2-4.3 3.5-.1 4.8 1.8 4.9 6.4 9.1 7.1 15.8 6.2 10.9 1.9 2.3 15.5 10 6.3"/><path class="st0" d="M44 82.7l2.8-.8 6.2 3-5.9-4.1-3.2 1.5zM46.3 76.9l2.9-.3 5.4 4.2-5-5.1-3.3.7zM49.4 71.6l2.9.2 4.6 5.1L53 71zM129.4 108.3l11.8-2.3 9.9-19.7 7.6-7.7 12.4.8 3.6-3.3 7.3-1.8.8-3.3-2.4-1.3 1.8-4.5-4.3-1.3.8-5.1h-3.9l.1-4.4h-3.4l-4.8 1.8-4.8 6.4-5.3 8.9-10.8 7.1-9.7 7.1-8.4 6.2-5.2 10.6"/><path class="st10" d="M179.8 69.7l-2.8-.9-6.2 2.9 6-3.9 3.2 1.5zM177.7 63.9l-2.9-.3-5.5 4.1 5-5.1 3.3.8zM174.6 58.5l-2.9.2-4.7 5.1 4-5.9z"/><g><defs><path id="SVGID_5_" d="M131.2 145.4l11.8 9.3 1.2 12 13.1 5.8 3.5 5.7-4.7 5.5-11.5-.9-12.8-.9-11.7-12.5-2-14.2 2.4-9.3z"/></defs><clipPath id="SVGID_6_"><use xlink:href="#SVGID_5_" overflow="visible"/></clipPath><path clip-path="url(#SVGID_6_)" fill="#726322" d="M131.2 145.4l11.8 9.3 1.2 12 13.1 5.8 3.5 5.7-4.7 5.5-11.5-.9-12.8-.9-11.7-12.5-2-14.2 2.4-9.3z"/><g><defs><path id="SVGID_7_" d="M131.2 145.4l11.8 9.3 1.2 12 13.1 5.8 3.5 5.7-4.7 5.5-11.5-.9-12.8-.9-11.7-12.5-2-14.2 2.4-9.3z"/></defs><clipPath id="SVGID_8_"><use xlink:href="#SVGID_7_" overflow="visible"/></clipPath><path clip-path="url(#SVGID_8_)" fill="#66581f" d="M137.3 155.5l1.6 13.9 19.6 4.9.6-7.9-11.2-1.6-7.6-9.8z"/></g></g><g><defs><path id="SVGID_9_" d="M106.5 150.6h16.2l-8.5 23.7 13.1 9.1 1.1 5.4-6.4 4.8-11-3.5-12.3-3.8-8.5-14.8 3.6-11.7 2.2-11.1z"/></defs><clipPath id="SVGID_10_"><use xlink:href="#SVGID_9_" overflow="visible"/></clipPath><path clip-path="url(#SVGID_10_)" fill="#827325" d="M106.5 150.6h16.2l-8.5 23.7 13.1 9.1 1.1 5.4-6.4 4.8-11-3.5-12.3-3.8-8.5-14.8 3.6-11.7 2.2-11.1z"/><g><defs><path id="SVGID_11_" d="M106.5 150.6h16.2l-8.5 23.7 13.1 9.1 1.1 5.4-6.4 4.8-11-3.5-12.3-3.8-8.5-14.8 3.6-11.7 2.2-11.1z"/></defs><clipPath id="SVGID_12_"><use xlink:href="#SVGID_11_" overflow="visible"/></clipPath><path clip-path="url(#SVGID_12_)" fill="#726322" d="M113.3 157.6l-1.5 17.4 18.2 11.5-6.8-12.6-5.6-4.1 1.5-7.1z"/></g></g><path class="st15" d="M158 171.8l7.8 1.6 8.6 4.8 2.9 3.9 1.3 4.2-2.9-3.3-3.9-1.4 3.4 3.1 1 4.6-3-3.3-4.7-2.2 3.5 3.9.2 4.1-2.4-3.4-3.7-2.5-.8 3.4 1.8 3.7-4.5-2.1-2.1-4.5-3.9-.2-4-4-.3-6.1zM119.7 192.3l4.5 6.5 7.8 6.1 4.7 1.2 4.4-.4-4.2-1.5-2.8-3 4.2 1.9 4.6-.9-4.2-1.5-3.9-3.4 5 1.7 3.9-1.4-4.1-.9-3.7-2.4 2.8-2.1 4.1.2-3.7-3.3-5-.2-1.6-3.5-5.3-2.1-5.7 2.1z"/></g><g id="Vetements"><defs><path id="SVGID_13_" d="M100.3 91.7l2.7 7.1 9.5 12.7 10-11.6 2.3-6.4 18.1-15 5.9-2.3 6.7 1.6 3.7 3.8-1.3 6.7-4.9 3.6-3.1 7.8-6.4 10.8-12.6 6.2-.6 7.9 11.2 12.8 4.4 11.7-2.4 10.9-6.2-4.5-3.5 10.4-6-7-2.8 10.4-3.3-4.9-4.2 4.4-4-8.1-3.4 9-5.1-8-6 8.7-2-7.5-9.7 6.7 4.5-20-2.6-5.3 1-19.3-2.3-9.2-7.2-6.7-7.5-7.5-7.9-3.6.5-7.4 2.4-4.9 5.8-2.2 4.7 1.3 10.6 2.4z"/></defs><clipPath id="SVGID_14_"><use xlink:href="#SVGID_13_" overflow="visible"/></clipPath><path clip-path="url(#SVGID_14_)" fill="#c4985b" d="M100.3 91.7l2.7 7.1 9.5 12.7 10-11.6 2.3-6.4 18.1-15 5.9-2.3 6.7 1.6 3.7 3.8-1.3 6.7-4.9 3.6-3.1 7.8-6.4 10.8-12.6 6.2-.6 7.9 11.2 12.8 4.4 11.7-2.4 10.9-6.2-4.5-3.5 10.4-6-7-2.8 10.4-3.3-4.9-4.2 4.4-4-8.1-3.4 9-5.1-8-6 8.7-2-7.5-9.7 6.7 4.5-20-2.6-5.3 1-19.3-2.3-9.2-7.2-6.7-7.5-7.5-7.9-3.6.5-7.4 2.4-4.9 5.8-2.2 4.7 1.3 10.6 2.4z"/><defs><path id="SVGID_15_" d="M100.3 91.7l2.7 7.1 9.5 12.7 10-11.6 2.3-6.4 18.1-15 5.9-2.3 6.7 1.6 3.7 3.8-1.3 6.7-4.9 3.6-3.1 7.8-6.4 10.8-12.6 6.2-.6 7.9 11.2 12.8 4.4 11.7-2.4 10.9-6.2-4.5-3.5 10.4-6-7-2.8 10.4-3.3-4.9-4.2 4.4-4-8.1-3.4 9-5.1-8-6 8.7-2-7.5-9.7 6.7 4.5-20-2.6-5.3 1-19.3-2.3-9.2-7.2-6.7-7.5-7.5-7.9-3.6.5-7.4 2.4-4.9 5.8-2.2 4.7 1.3 10.6 2.4z"/></defs><clipPath id="SVGID_16_"><use xlink:href="#SVGID_15_" overflow="visible"/></clipPath><path clip-path="url(#SVGID_16_)" fill="#a37c4d" d="M160.7 81.1l-4.2 1.6-9.3 7.3-2.8 9.5-7.2 8-6.6 4.4-7.9 5.6 3.4 3.4-6.7 7 10.9 2.5.6 6.3 4.2 7.9-5.4 8.8-2 7.1 7.4 7.3 3.9-8.1 6.1 1.8 3.6-13-5.2-17.6 1.2-16.9 3.4-8.8 7.5-9.5 6.6-8.1.5-6.8z"/><g><defs><path id="SVGID_17_" d="M100.3 91.7l2.7 7.1 9.5 12.7 10-11.6 2.3-6.4 18.1-15 5.9-2.3 6.7 1.6 3.7 3.8-1.3 6.7-4.9 3.6-3.1 7.8-6.4 10.8-12.6 6.2-.6 7.9 11.2 12.8 4.4 11.7-2.4 10.9-6.2-4.5-3.5 10.4-6-7-2.8 10.4-3.3-4.9-4.2 4.4-4-8.1-3.4 9-5.1-8-6 8.7-2-7.5-9.7 6.7 4.5-20-2.6-5.3 1-19.3-2.3-9.2-7.2-6.7-7.5-7.5-7.9-3.6.5-7.4 2.4-4.9 5.8-2.2 4.7 1.3 10.6 2.4z"/></defs><clipPath id="SVGID_18_"><use xlink:href="#SVGID_17_" overflow="visible"/></clipPath><path clip-path="url(#SVGID_18_)" fill="#a37c4d" d="M113 132.5l-8.9-2.6-6.6 4.9 7.2-2.1 4.3 1z"/></g><g><defs><path id="SVGID_19_" d="M100.3 91.7l2.7 7.1 9.5 12.7 10-11.6 2.3-6.4 18.1-15 5.9-2.3 6.7 1.6 3.7 3.8-1.3 6.7-4.9 3.6-3.1 7.8-6.4 10.8-12.6 6.2-.6 7.9 11.2 12.8 4.4 11.7-2.4 10.9-6.2-4.5-3.5 10.4-6-7-2.8 10.4-3.3-4.9-4.2 4.4-4-8.1-3.4 9-5.1-8-6 8.7-2-7.5-9.7 6.7 4.5-20-2.6-5.3 1-19.3-2.3-9.2-7.2-6.7-7.5-7.5-7.9-3.6.5-7.4 2.4-4.9 5.8-2.2 4.7 1.3 10.6 2.4z"/></defs><clipPath id="SVGID_20_"><use xlink:href="#SVGID_19_" overflow="visible"/></clipPath><path clip-path="url(#SVGID_20_)" fill="#a37c4d" d="M118.9 138.1l-5.4 3.2-8-.6-3.9 5.5 4.7-2.6 7.2.5 6.1-3.8 4.2-4.6z"/></g><g><defs><path id="SVGID_21_" d="M100.3 91.7l2.7 7.1 9.5 12.7 10-11.6 2.3-6.4 18.1-15 5.9-2.3 6.7 1.6 3.7 3.8-1.3 6.7-4.9 3.6-3.1 7.8-6.4 10.8-12.6 6.2-.6 7.9 11.2 12.8 4.4 11.7-2.4 10.9-6.2-4.5-3.5 10.4-6-7-2.8 10.4-3.3-4.9-4.2 4.4-4-8.1-3.4 9-5.1-8-6 8.7-2-7.5-9.7 6.7 4.5-20-2.6-5.3 1-19.3-2.3-9.2-7.2-6.7-7.5-7.5-7.9-3.6.5-7.4 2.4-4.9 5.8-2.2 4.7 1.3 10.6 2.4z"/></defs><clipPath id="SVGID_22_"><use xlink:href="#SVGID_21_" overflow="visible"/></clipPath><path clip-path="url(#SVGID_22_)" fill="#a37c4d" d="M65.3 98l9.5 2.8 15 14.8.5 12.6z"/></g><g><path class="st21" d="M118.7 190l.4 5 3.8 4.1 6.1 5.3 3.7 9.6 3.8 2.4 5.9-6.9.4-6.5-8.3-9.2-2.6-13.1-8.3-1.8-3.5 5.5z"/><path class="st22" d="M122.8 180.2l4.5-.2 3.7 3.1 3.2 10.9 6.2 9.5.6 5.5-4.5 7.4 9.3-7.5.6-9.7-7.5-9.2-3.9-9.4-8.3-3.4-3.1 1.7z"/></g><g><path class="st21" d="M150.3 184.7l2.1 4.1 4.6 2.2 7.1 2.3 6.5 6.9 4.1.7 2.5-7.9-2-7.2-10.1-3.4-5.8-9.6-8.7.8-1.1 5.9z"/><path class="st22" d="M150.3 175l3.9-.6 4.2.1 6.6 8.1 9.2 4.3 1.7 6.1-1.2 7.9 5.2-9.7-2.8-8.4-9.7-5.2-6.6-6.6-8.2.1-2 2.5z"/></g></g></svg>