<?xml version="1.0" encoding="utf-8"?>
<!-- Generator: Adobe Illustrator 22.1.0, SVG Export Plug-In . SVG Version: 6.00 Build 0)  -->
<svg version="1.1" id="Layer_2" xmlns="http://www.w3.org/2000/svg" xmlns:xlink="http://www.w3.org/1999/xlink" x="0px" y="0px"
	 viewBox="0 0 220 240" style="enable-background:new 0 0 220 240;" xml:space="preserve">
<style type="text/css">
	.st0{clip-path:url(#SVGID_2_);fill:#603813;}
	.st1{clip-path:url(#SVGID_2_);fill:#77675E;}
	.st2{fill:none;}
	.st3{fill:#3A3A3A;}
	.st4{fill:#754C24;}
	.st5{fill:#6D4323;}
	.st6{fill:#4C341F;}
	.st7{fill:#808080;}
	.st8{clip-path:url(#SVGID_4_);fill:#CC9A69;}
	.st9{fill:#B5885E;}
	.st10{clip-path:url(#SVGID_10_);fill:#FFFFFF;}
	.st11{clip-path:url(#SVGID_12_);fill:#56353D;}
	.st12{clip-path:url(#SVGID_14_);fill:#FFFFFF;}
	.st13{clip-path:url(#SVGID_16_);fill:#56353D;}
	.st14{clip-path:url(#SVGID_18_);fill:#423644;}
	.st15{clip-path:url(#SVGID_20_);fill:#362D38;}
	.st16{clip-path:url(#SVGID_22_);fill:#362D38;}
	.st17{fill:#CC9A69;}
	.st18{fill:#6D4F38;}
	.st19{fill:#5B3013;}
	.st20{fill:#603813;}
	.st21{fill:#77675E;}
	.st22{fill:#F2F2C2;}
	.st23{fill:#594D47;}
	.st24{fill:#0F826F;}
	.st25{fill:#0D6856;}
	.st26{clip-path:url(#SVGID_24_);fill:#CC9A69;}
	.st27{clip-path:url(#SVGID_24_);fill:#BC8D62;}
	.st28{clip-path:url(#SVGID_26_);fill:#CC9A69;}
	.st29{clip-path:url(#SVGID_26_);fill:#BC8D62;}
	.st30{clip-path:url(#SVGID_28_);fill:#CC9A69;}
	.st31{clip-path:url(#SVGID_28_);fill:#BC8D62;}
	.st32{fill:#B3B3B3;}
	.st33{fill:#841B0D;}
	.st34{fill:#898910;}
	.st35{fill:#6548CC;}
	.st36{fill:#31272A;}
	.st37{fill:#44383D;}
	.st38{fill:#B34A30;}
	.st39{fill:#684730;}
	.st40{fill:#AAAAAA;}
	.st41{fill:#8C6239;}
	.st42{fill:#724D2F;}
	.st43{fill:#66442B;}
	.st44{fill:#845A36;}
</style>
<g>
	<defs>
		<polygon id="SVGID_1_" points="190.5,93.6 170.4,87.9 152.6,77.2 126.2,64.6 112.7,111.3 96.1,163.7 109.7,235.9 111.7,240 
			155.5,240 158.1,211.1 167.1,190.3 187.4,175.9 199.2,154.6 205.6,128.2 204.5,111.9 200.8,100.3 		"/>
	</defs>
	<clipPath id="SVGID_2_">
		<use xlink:href="#SVGID_1_"  style="overflow:visible;"/>
	</clipPath>
	<polygon class="st0" points="190.6,92.4 168.9,87.5 152.7,76.4 126.2,64.6 112.7,111.3 96.1,163.7 109.7,235.9 111.7,240 
		155.5,240 158.1,211.1 167.1,190.3 187.4,175.9 199.2,154.6 205.6,128.2 205.6,107.8 	"/>
	<polygon class="st1" points="197.3,98.6 202.3,112.1 201.2,138.2 191.9,161.1 185.1,173.9 165,188.5 156.5,209.8 154.3,231.5 
		154.7,242.8 162.8,241.9 173.4,211.1 209.6,175.7 230.1,131 221,107.7 204.8,97.9 	"/>
</g>
<g>
	<path class="st2" d="M90.5,203.7l-10.1,0.1l-13,28.2c0,0-0.4,3.4-1,7.9h32.2l-4.8-14.2L90.5,203.7z"/>
	<path class="st3" d="M130.9,221.4l-7.5-42.6l-8.5-0.6l-26.3-6.6l-30.1-3.5l-8.1,0l-8.8,8.8l-6.1,33.5L32.1,240H65
		c0.6-4.5,2.3-7.9,2.3-7.9l13-28.2l10.1-0.1l3.3,22.1l4.8,14.2h34.9L130.9,221.4z"/>
</g>
<polygon class="st4" points="129.8,82.8 127.9,106.2 122.1,141.2 127.9,181.7 128.4,209.5 123.9,215.3 114.9,210.5 106.9,216.1 
	97.2,210.5 88.2,212.7 81,207.2 69.6,212.7 52.5,199.9 60.9,132.6 70.8,86.7 76.2,66.3 116.4,71.9 "/>
<polygon class="st5" points="86.8,64.6 91.5,84 91.5,106.2 88.5,123.5 89.1,131.4 86.7,142.3 81.3,146.8 75.4,163.7 70.8,184.6 
	66.4,201.9 66.8,210.6 52.5,199.9 71.3,89.2 "/>
<g>
	<path class="st6" d="M60.8,166.7l25.6,3.9l23.9,0.1l20.1-4.1l-2.6,8.4l-18,3.7l-21.7-0.1L63,174.4L60.8,166.7L60.8,166.7z"/>
	<path class="st7" d="M106.1,180.8l-8.3,1.8l-8.3-1.8l-1.1-5.8l1.1-5.4l8.3-1.1l8.3,1.1l0.8,5.3L106.1,180.8z"/>
</g>
<g>
	<g>
		<defs>
			<polygon id="SVGID_3_" points="84.1,74.1 98.2,92.1 113.7,94.5 126.8,80.7 134.1,56.6 137.9,31.6 126.9,17.6 110.9,15.1 
				96.1,22.6 84.3,47.6 			"/>
		</defs>
		<clipPath id="SVGID_4_">
			<use xlink:href="#SVGID_3_"  style="overflow:visible;"/>
		</clipPath>
		<path class="st8" d="M84.1,74.1l14.1,18l15.5,2.4l13.2-13.8l7.3-24.1l3.9-25l-11-14l-16-2.5l-14.8,7.5L84.3,47.6L84.1,74.1z"/>
	</g>
	<g>
		<defs>
			<polygon id="SVGID_5_" points="84.1,74.1 98.2,92.1 113.7,94.5 126.8,80.7 134.1,56.6 137.9,31.6 126.9,17.6 110.9,15.1 
				96.1,22.6 84.3,47.6 			"/>
		</defs>
		<clipPath id="SVGID_6_">
			<use xlink:href="#SVGID_5_"  style="overflow:visible;"/>
		</clipPath>
	</g>
	<g>
		<defs>
			<polygon id="SVGID_7_" points="84.1,74.1 98.2,92.1 113.7,94.5 126.8,80.7 134.1,56.6 137.9,31.6 126.9,17.6 110.9,15.1 
				96.1,22.6 84.3,47.6 			"/>
		</defs>
		<clipPath id="SVGID_8_">
			<use xlink:href="#SVGID_7_"  style="overflow:visible;"/>
		</clipPath>
	</g>
	<path class="st9" d="M92.8,46.3l6.1-1.6l3.9,1.8l3.5,3.6l-1.5,1.2L99,52.7l-5.3-1.8l-3.3-3.6C90.4,47.3,92.8,46.3,92.8,46.3z"/>
	<g>
		<g>
			<defs>
				<polygon id="SVGID_9_" points="93.5,47.6 98.1,46.6 101.8,47.9 104.8,50.1 101.4,51.3 97.9,51 95.2,49.6 				"/>
			</defs>
			<clipPath id="SVGID_10_">
				<use xlink:href="#SVGID_9_"  style="overflow:visible;"/>
			</clipPath>
			<path class="st10" d="M93.5,47.6l4.8-1.6l3.7,1.4l2.7,2.8l-3.3,1.2L97.9,51l-2.7-1.4L93.5,47.6z"/>
		</g>
	</g>
	<g>
		<g>
			<defs>
				<polygon id="SVGID_11_" points="93.5,47.6 98.1,46.6 101.8,47.9 104.8,50.1 101.4,51.3 97.9,51 95.2,49.6 				"/>
			</defs>
			<clipPath id="SVGID_12_">
				<use xlink:href="#SVGID_11_"  style="overflow:visible;"/>
			</clipPath>
			<circle class="st11" cx="99.8" cy="48.8" r="3.4"/>
		</g>
	</g>
	<g>
		<path class="st9" d="M128.8,51.7l-5.5-3l-4.2,0.9l-4.2,2.7l1.1,1.6l5.3,2.7l5.6-0.7l4-2.6L128.8,51.7L128.8,51.7z"/>
		<g>
			<defs>
				<polygon id="SVGID_13_" points="127.9,52.7 123.7,50.8 119.8,51.2 116.4,52.7 119.3,54.6 122.8,55.1 125.9,54.4 				"/>
			</defs>
			<clipPath id="SVGID_14_">
				<use xlink:href="#SVGID_13_"  style="overflow:visible;"/>
			</clipPath>
			<path class="st12" d="M127.9,52.7l-4.3-2.5l-3.9,0.4l-3.3,2.2l3,1.9l3.5,0.4l3.1-0.7L127.9,52.7z"/>
		</g>
		<g>
			<g>
				<defs>
					<polygon id="SVGID_15_" points="127.9,52.7 123.7,50.8 119.8,51.2 116.4,52.7 119.3,54.6 122.8,55.1 125.9,54.4 					"/>
				</defs>
				<clipPath id="SVGID_16_">
					<use xlink:href="#SVGID_15_"  style="overflow:visible;"/>
				</clipPath>
				<circle class="st13" cx="121.5" cy="52.5" r="3.4"/>
			</g>
		</g>
	</g>
	<path class="st9" d="M112.3,55.1l1.4,5.5l0.4,4.6l-1.7,1l-3.3,0.1l-1.1-1.9l0.7-3.6L112.3,55.1z"/>
	<g>
		<g>
			<defs>
				<polygon id="SVGID_17_" points="130.9,71.4 130.5,79.8 128,96 123.1,106.8 120.5,104.3 113.4,114.2 110.5,109.7 102.7,121.6 
					100.9,109.3 97.5,110.5 93,102.2 89.1,103 87.5,93.9 85.2,94.5 84.5,84.6 81.3,85.7 81.6,72.2 86.1,62.4 92.6,60.9 99.9,67.6 
					107.8,69.7 116.4,71.9 124.2,69.4 127.7,67.2 				"/>
			</defs>
			<clipPath id="SVGID_18_">
				<use xlink:href="#SVGID_17_"  style="overflow:visible;"/>
			</clipPath>
			<path class="st14" d="M130.9,71.4l-0.4,8.4L128,96l-4.9,10.9l-2.6-2.6l-7.1,9.9l-2.9-4.5l-7.8,11.9l-1.8-12.3l-3.3,1.2l-4.5-8.3
				l-3.9,0.8l-1.7-9l-2.3,0.5l-0.7-9.9l-3.2,1.1l0.3-13.4l4.6-9.8l6.3,0l7.5,5.1l7.9,2.1l8.6,2.2l7.9-2.5l3.7-0.1L130.9,71.4
				L130.9,71.4z"/>
		</g>
		<g>
			<defs>
				<polygon id="SVGID_19_" points="130.9,71.4 130.5,79.8 128,96 123.1,106.8 120.5,104.3 113.4,114.2 110.5,109.7 102.7,121.6 
					100.9,109.3 97.5,110.5 93,102.2 89.1,103 87.5,93.9 85.2,94.5 84.5,84.6 81.3,85.7 81.6,72.2 86.1,62.4 92.6,60.9 99.9,67.6 
					107.8,69.7 116.4,71.9 124.2,69.4 127.7,67.2 				"/>
			</defs>
			<clipPath id="SVGID_20_">
				<use xlink:href="#SVGID_19_"  style="overflow:visible;"/>
			</clipPath>
			<path class="st15" d="M87.4,57.8l-3.5,11.4l-0.2,10l3.8-0.9l-0.1,9.9l3.9-0.1l0.6,8.7l3.7-0.8l3.6,8.3l2.9-1.2l2.9,13.1
				l-13.9,8.4L75.4,97.7L66.3,74c0,0,5.9-12.9,6.1-13.2c0.2-0.5,17.3-7.8,17.3-7.8S87.4,57.8,87.4,57.8z"/>
		</g>
		<g>
			<g>
				<defs>
					<polygon id="SVGID_21_" points="130.9,71.4 130.5,79.8 128,96 123.1,106.8 120.5,104.3 113.4,114.2 110.5,109.7 102.7,121.6 
						100.9,109.3 97.5,110.5 93,102.2 89.1,103 87.5,93.9 85.2,94.5 84.5,84.6 81.3,85.7 81.6,72.2 86.1,62.4 92.6,60.9 99.9,67.6 
						107.8,69.7 116.4,71.9 124.2,69.4 127.9,69.8 					"/>
				</defs>
				<clipPath id="SVGID_22_">
					<use xlink:href="#SVGID_21_"  style="overflow:visible;"/>
				</clipPath>
				<path class="st16" d="M128.2,64.3l2.7,7.1l-5.8,22.4l-2.3,5.4l-2.9-2.5l-5.4,10.8l-3.4-4.4l-11.6,15.6c0,0,8,12.9,7.5,12
					c-0.6-0.9,21.4-21.6,21.4-21.6l12.1-36.9l-10.7-9.6L128.2,64.3L128.2,64.3z"/>
			</g>
		</g>
		<path class="st17" d="M98.9,73.7l6.1,4.2l7.3,1.1l5.8-2.4l-4.8,0l-7.9-1.1L98.9,73.7z"/>
	</g>
	<path class="st18" d="M114.9,50.5l3.7-4.2l4.2-0.8l2.8,0.4l6.3,4l-4.9-1.6l-3.2-1l-3.3,0.5C120.5,47.8,114.9,50.5,114.9,50.5z
		 M107.4,49.3l-2.3-5.1l-3-1.9l-3.6-0.5l-7.2,1.9l6.8,0l4.7,1.4L107.4,49.3z"/>
</g>
<polygon class="st19" points="129.4,76.8 128.4,87.2 127.9,106.2 121.7,139.2 127.6,179.6 128.4,207.3 132.9,240 133.4,240 
	134.2,229.3 130.2,207.2 132.5,176.4 131.3,149.6 137.2,124.5 133.9,88.5 131.9,70.7 129.9,70.4 "/>
<polygon class="st20" points="81.3,48.7 84.1,29.1 93.5,17.6 111,9.8 127.9,11.2 137.9,25.4 140.4,37.9 137.9,52.9 134.1,68.5 
	131.7,69.6 130.9,69.6 129.9,70.4 130.9,60.9 133.4,47.1 131.4,36.8 119.8,32.2 106.1,32.5 100.9,38.2 96.2,43.7 90.4,56.5 
	88.1,66.8 81.4,79 82.8,66.8 "/>
<polygon class="st21" points="132.9,68.3 132.6,71.3 153.5,78.3 168.9,88.9 188.1,93.8 197.7,99.7 200.8,100.3 189.8,91.3 
	168.8,86.7 153.8,76.4 137.9,70.4 134.1,68.5 "/>
<g>
	<path class="st20" d="M59.9,215.7l4.1-52.3L76.5,138l7.6-24.4l-0.8-26.8l3.6-18.9l-4.8-14.4l-7.9,3.1L53.8,69.3l-4.4,10.9l1.7,16.9
		l-6.4,22.1L41,132.7l-4.1,38.9c0,0-13.9,54.6-15.2,56.3c-0.7,0.9-4.1,6.6-7.3,12h51.5L59.9,215.7z"/>
</g>
<polygon class="st21" points="86.4,69.8 81.3,83.5 82.8,98.6 81.9,113.4 75.4,131.2 67.2,152 61.7,170.9 57.6,204.1 60.8,221.8 
	63.3,240 65.9,240 63.3,221.8 61,204.1 66.4,169.9 72.5,146.7 83.9,118.6 85.2,109.8 85.9,96.4 84.5,84.6 "/>
<g>
	<polygon class="st21" points="87.9,109.3 82.6,108.6 81.9,113.4 83.9,118.6 87,115.9 	"/>
	<polygon class="st21" points="71.6,160.7 66.9,160.2 64.5,164.8 65.6,170.8 69.6,167.1 	"/>
	<polygon class="st21" points="66.8,187.9 62.1,187.4 59.8,192.1 61.9,197.1 64.9,194.4 	"/>
	<polygon class="st21" points="65.2,210.6 60.6,211.4 60.6,216.5 63,220.8 65.1,217.4 	"/>
	<polygon class="st21" points="67.8,229.8 63.1,230.6 63.2,235.7 65.6,240 67.7,236.5 	"/>
</g>
<g>
	<polygon class="st21" points="208.3,125 203,124.2 202.3,129.1 204.3,134.2 207.3,131.5 	"/>
	<polygon class="st21" points="182.8,86.1 181.6,90.1 184.6,91.9 190.1,92.1 188.9,88.3 	"/>
	<polygon class="st21" points="202,153.4 197.1,151.1 195.1,155.6 195.5,161.1 199.2,159.4 	"/>
	<polygon class="st21" points="190.2,176.7 185.7,174.2 181.9,177.5 180,180.9 184.1,180.4 	"/>
	<polygon class="st21" points="168.6,193.3 164.3,192.9 162.3,197.1 162,201.4 165.5,199.2 	"/>
	<polygon class="st21" points="160.9,214 156.7,214.8 156,219.5 156.9,223.6 159.6,220.6 	"/>
	<polygon class="st21" points="159.2,235.2 155,236.1 154.4,240 158.3,240 	"/>
</g>
<polygon class="st19" points="140,20.7 127.6,8.4 108.1,7 93.2,12.4 84.5,26 81.3,45.6 79.6,52.7 66.4,59.1 53.8,69.3 49.1,83.2 
	50.1,93.8 46.5,103.3 41.2,121.6 34.4,152.3 34.4,174.4 26.9,199.7 20.9,220.3 18.4,230 11.9,240 21.2,240 27.2,225.5 35.2,208 
	36.5,191.4 43.5,170.1 41.5,151.1 52.5,122.6 57.6,105.9 59.7,84.8 66.4,73.7 79.2,64.2 84.1,52.6 88.2,38.5 99.4,23.4 114.9,18.9 
	130.9,22.7 137.9,41.8 129.9,70.4 132,75.4 142.6,39.6 "/>
<g>
	<g>
		<polygon class="st21" points="33.5,206.6 34.7,194.4 36.8,192.1 52.8,193 53.4,194.9 52.1,207.4 		"/>
		<polygon class="st22" points="32.9,206.3 34.1,194.1 36.3,191.8 52.5,193.3 52.9,194.7 51.5,207.2 		"/>
		<polygon class="st21" points="32.3,205.9 33.4,193.7 35.6,191.4 51.5,192.6 52.2,194.3 50.9,206.8 		"/>
		<polygon class="st23" points="35.1,204 35.7,197.5 38,195.2 47.9,195.9 49.4,198.9 48.9,204.8 		"/>
	</g>
	<polygon class="st6" points="28.3,203.7 29,218.3 37.6,225.8 51.2,221.8 53.9,205.2 39.3,204.2 	"/>
</g>
<g>
	<polygon class="st24" points="71,105.9 64.5,106.1 59.5,102.2 58.1,95.9 61.1,90.2 67,87.8 73.2,89.8 76.6,95.2 75.7,101.6 	"/>
	<polygon class="st25" points="71.3,89.2 65.8,90.2 63.3,95.1 63.3,98.4 58.4,97.2 57.6,95.5 61.1,90.2 67,87.8 	"/>
	<polygon class="st6" points="56.8,96.2 57.2,104.7 64.1,110.8 75.1,107.6 77.6,97.6 67.5,98.6 	"/>
</g>
<polygon class="st19" points="63.3,121.6 64.5,124.3 63.9,136.8 60.8,141.9 56.8,144.7 53.8,145.1 52.5,142.3 56.4,136.8 
	61.5,123.2 "/>
<g>
	<path class="st17" d="M74.6,124.4l-10.2-0.1l-8.6,0.9c0,0-3.9,12.6-4.1,12.4c-0.3-0.2,13.1,0.9,13.1,0.9l5.9-1.2L74.6,124.4z"/>
	<g>
		<defs>
			<polygon id="SVGID_23_" points="69.6,124.4 77.9,124.5 82.3,124.6 84.4,126.2 85,130.5 84.5,136.5 83.5,138.1 81.8,138.3 
				80.8,135.3 80.2,130.1 78.4,128.4 75.1,128.8 70.4,128.6 			"/>
		</defs>
		<clipPath id="SVGID_24_">
			<use xlink:href="#SVGID_23_"  style="overflow:visible;"/>
		</clipPath>
		<polygon class="st26" points="69,124.4 77.9,124.5 82.3,124.6 84.4,126.2 85,130.5 84.5,136.5 83.5,138.1 81.8,138.3 80.8,135.3 
			80.2,130.1 78.4,128.4 75.1,128.8 70.4,128.6 		"/>
		<polygon class="st27" points="68.8,125.6 69,124.3 77.3,125 80.8,125.5 82.6,126 83.8,127.2 84.3,129.8 84.2,133.1 83.9,136.1 
			82.9,138.5 84.9,137.6 85.5,126.9 82.5,124.1 78.4,123.4 73.3,124.2 68.8,123.7 67.8,125.8 		"/>
	</g>
	<g>
		<defs>
			<polyline id="SVGID_25_" points="71.2,127.7 78.3,127.5 80.9,128.9 81.6,132.8 82.3,138.9 81.9,140.3 80,140.6 78.9,140.2 
				78.1,139.3 77.3,133.4 76.2,132 72.2,131.8 69.3,132 			"/>
		</defs>
		<clipPath id="SVGID_26_">
			<use xlink:href="#SVGID_25_"  style="overflow:visible;"/>
		</clipPath>
		<polyline class="st28" points="71.2,127.7 78.3,127.5 80.9,128.9 81.6,132.8 82.3,138.9 81.9,140.3 80,140.6 78.9,140.2 
			78.1,139.3 77.3,133.4 76.2,132 72.2,131.8 69.3,132 		"/>
		<polygon class="st29" points="71.2,127.4 71.8,127.7 77.7,128.3 79.6,129 80.2,129.6 80.8,132.3 81.3,135.4 81.7,138.5 
			81.3,139.7 80,140.6 82.1,140.6 82.9,137.9 81.9,130.1 81.1,127.9 78.1,126.6 74.9,126.9 70.9,127 		"/>
	</g>
	<g>
		<defs>
			<polyline id="SVGID_27_" points="67.6,130.6 74.3,131.3 76.5,131.6 78.4,134 79,141 77.6,142.4 73.9,143.1 75.2,139.9 73.6,137 
				73.1,137.1 72,137.2 66.8,137.8 62.1,136.3 58.2,134.3 			"/>
		</defs>
		<clipPath id="SVGID_28_">
			<use xlink:href="#SVGID_27_"  style="overflow:visible;"/>
		</clipPath>
		<polyline class="st30" points="67.6,130.6 74.3,131.3 76.5,131.6 78.4,134 79,141 77.6,142.4 74.9,142.9 73,142.7 74.6,140.6 
			73.6,137 73.1,137.1 72,137.2 66.8,137.8 62.1,136.3 58.4,133.8 		"/>
		<polygon class="st31" points="66.8,130.4 72.9,131.9 76.1,132.5 77.1,134.3 77.9,137.4 78,140.6 77.3,141.9 75,142.9 77,143.4 
			79,142.2 80.2,139.5 79.1,134 77.6,131.7 74.1,130 67.3,130.2 		"/>
	</g>
</g>
<path class="st4" d="M51.4,75.4L35.9,91.3l-13.2,23.1L16,127.6l4.7,13.1l33.2,4.4v-2.1l5.1-6.4l4.4-15.1c0,0-8.5-1.5-9.5-1.5
	s-9.9,1.9-9.9,1.9l3.4-11.7l1.2-4.1l2.6-9.1L50,85.6L51.4,75.4z"/>
<polygon class="st20" points="136,62 137.9,68.7 153.5,78.3 134.2,74.7 133.1,71.7 "/>
<g>
	<g>
		<polygon class="st32" points="163.7,98.4 163.7,104.5 159.5,109.8 158.4,112.3 158.6,115 161.2,117.1 164.8,118.5 168.2,118.5 
			171.7,117.1 173.8,114.5 173.8,111.9 172.8,109.9 168.8,104.8 168.3,98.4 170.3,97.2 170.2,95.9 161.4,95.9 161.2,96.5 		"/>
		<rect x="160.5" y="99.8" class="st18" width="11" height="3"/>
		<polygon class="st33" points="164.5,107.2 161.3,109.6 160.2,112.9 162.4,116.1 166.1,117.1 168.8,117.1 171.6,115.3 172.3,112.2 
			170.6,109.2 168.2,107.2 		"/>
	</g>
	<g>
		<polygon class="st32" points="155.7,125.1 155.8,129.5 152.8,133.3 152.1,135.1 152.2,137.1 154.1,138.6 156.8,139.6 159.2,139.5 
			161.7,138.5 163.2,136.6 163.1,134.7 162.4,133.3 159.4,129.6 159,125.1 160.5,124.2 160.4,123.2 154.1,123.3 153.9,123.7 		"/>
		<polygon class="st34" points="156.4,131.4 154.1,133.2 153.3,135.6 155,137.9 157.6,138.5 159.6,138.5 161.6,137.2 162.1,135 
			160.8,132.8 159,131.4 		"/>
		<rect x="153.1" y="125.9" class="st18" width="8.6" height="2.3"/>
	</g>
	<g>
		<polygon class="st32" points="140.9,101.3 139.7,107.3 134.5,111.6 133,113.9 132.6,116.5 134.7,119.2 138,121.3 141.3,122 
			145,121.3 147.6,119.1 148,116.6 147.5,114.4 144.6,108.6 145.4,102.3 147.6,101.5 147.7,100.2 139.2,98.4 138.8,98.9 		"/>
		<rect x="137.1" y="103.2" transform="matrix(0.9796 0.2009 -0.2009 0.9796 23.9296 -26.52)" class="st18" width="11" height="3"/>
		<polygon class="st24" points="138.6,110.2 135.4,112.6 134.2,115.9 136.5,119.1 140.1,120 142.8,120 145.6,118.3 146.4,115.2 
			144.6,112.2 142.2,110.2 		"/>
	</g>
	<g>
		<polygon class="st32" points="182.6,113.4 183,119.5 179.1,125 178.1,127.5 178.5,130.2 181.1,132.2 184.9,133.4 188.3,133.2 
			191.7,131.6 193.6,128.8 193.4,126.3 192.3,124.4 188,119.4 187.2,113.1 189.1,111.8 188.9,110.5 180.2,111 180,111.6 		"/>
		
			<rect x="179.6" y="114.7" transform="matrix(0.9984 -5.702065e-02 5.702065e-02 0.9984 -6.3207 10.7443)" class="st18" width="11" height="3"/>
		<polygon class="st35" points="183.3,122.3 180.6,125.2 180,128.7 182.8,131.5 186.5,131.8 189.2,131.3 191.7,129.1 191.9,125.9 
			189.6,123.2 186.9,121.7 		"/>
	</g>
</g>
<g>
	<g id="Armes">
		<path class="st36" d="M178.7,175.9l2.4,7.4l-0.9,10.7l-3.9-10.1l0-8.7l-1.4-6.2l1.6-0.3L178.7,175.9z"/>
		<path class="st37" d="M180.2,194l-1.9-14.2l-2-4.6l0,2.6l0,3.1l0,3L180.2,194z"/>
		<circle class="st37" cx="176" cy="169.3" r="1.7"/>
	</g>
	
		<rect x="172.2" y="170.9" transform="matrix(0.9856 -0.1693 0.1693 0.9856 -26.5364 32.4344)" class="st18" width="9.5" height="1.9"/>
</g>
<g>
	<g id="Armes_1_">
		<path class="st36" d="M166.8,184.5l2.8,7.3l-0.4,10.8l-4.3-9.9l-0.4-8.7l-1.7-6.1l1.6-0.4L166.8,184.5z"/>
		<path class="st37" d="M169.1,202.5l-2.5-14.1l-2.2-4.5l0.1,2.6l0.1,3.1l0.2,3L169.1,202.5z"/>
		<circle class="st37" cx="163.8" cy="178.1" r="1.7"/>
	</g>
	
		<rect x="160.1" y="179.6" transform="matrix(0.977 -0.2131 0.2131 0.977 -34.678 39.2715)" class="st18" width="9.5" height="1.9"/>
</g>
<g>
	<path class="st38" d="M137.4,135.3l2.4,3.2l2.8-2.8l-3.1,9.5L137.4,135.3z"/>
	<path class="st38" d="M139.4,144.7l-2-9.4l2.4,3.2L139.4,144.7z"/>
	<path class="st39" d="M139.4,137.9l-1.6,31.4l1.1,0.1l1.5-31.3L139.4,137.9z"/>
	<path class="st40" d="M138.4,168.7l-2.3-2l1.9,8.2l2.8-7.9L138.4,168.7z"/>
</g>
<g>
	<path class="st38" d="M124.2,132.9l2.9,2.8l2.3-3.2l-1.6,9.8L124.2,132.9z"/>
	<path class="st38" d="M127.7,141.9l-3.5-9l2.9,2.8L127.7,141.9z"/>
	<path class="st39" d="M126.6,135.1l3.3,31.3l1.1-0.1l-3.4-31.2L126.6,135.1z"/>
	<path class="st40" d="M130.4,165.8l-2.5-1.6l3.1,7.8l1.5-8.3L130.4,165.8z"/>
</g>
<g>
	<polygon class="st6" points="123.6,152.4 137,154.3 152.2,154.3 162.9,154.3 184.3,152.8 197.2,148 196,151 186.8,155.2 
		173.1,157.2 162,157.2 150.2,157.2 134.6,157.2 126.5,156 124,155.2 	"/>
	<g>
		<path class="st41" d="M184.1,155.1l-0.1,5.1l-2.8,2.2l-6.6,0.5l-2-1.2l-0.8-2.5l-0.2-3.3L184.1,155.1L184.1,155.1z"/>
		<path class="st42" d="M172.4,149.5l8.4-2.2l3.3,0.9l1.3,6.8l-4,2.5l-9.1,0.3l-2.5-3.6L172.4,149.5z"/>
		<path class="st6" d="M178.8,153.6l1.3,4l-0.9,3.4l-1.1-0.3l0.9-3.1l-1.1-3.3L178.8,153.6L178.8,153.6z"/>
	</g>
	<polygon class="st43" points="172.7,149.4 174.8,148.9 175.3,149.4 175,153.7 174.9,157.7 173.1,157.8 173.2,156.8 172.5,151 	"/>
	<g>
		<path class="st41" d="M172.6,157.5l-1.3,5.9l-3.7,1.9l-7.7-0.9l-2.1-1.8l-0.3-3.1l0.5-3.8L172.6,157.5L172.6,157.5z"/>
		<path class="st42" d="M160.4,148.5l10.1-0.6l3.6,1.8l0,8l-5.2,1.9l-10.5-1.7l-2.1-4.7L160.4,148.5z"/>
		<path class="st6" d="M166.8,154.6l0.7,4.8l-1.8,3.7l-1.2-0.6l1.7-3.4l-0.5-4L166.8,154.6L166.8,154.6z"/>
	</g>
	<polygon class="st43" points="161,148.4 162.7,148.8 163.6,153.6 162.7,158.6 161.1,158.5 161.1,156.6 160.4,150.8 	"/>
	<g>
		<path class="st41" d="M160.2,157.9l-1.5,6.7l-4.3,2.2l-8.9-1l-2.4-2.1l-0.4-3.5l0.6-4.4L160.2,157.9L160.2,157.9z"/>
		<path class="st42" d="M146.2,147.6l11.6-0.7l4.2,2.1l0.7,4.7l-0.7,4.5l-5.9,2.2l-12.1-1.9l-2.4-5.4L146.2,147.6z"/>
		<path class="st6" d="M153.5,154.6l0.8,5.6l-2.1,4.2l-1.3-0.7l1.9-3.9l-0.6-4.6L153.5,154.6L153.5,154.6z"/>
	</g>
</g>
<polygon class="st44" points="160.8,158.6 160,158.9 159,163.7 159.9,164.6 160.8,164.6 159.7,163.1 "/>
<polygon class="st44" points="173.5,157.9 172.4,158.3 172,160.2 172.5,161.8 173.5,162.4 173.1,161.3 "/>
<g>
	<g>
		<polygon class="st17" points="200.1,93 196.2,93 192.1,93.2 192.9,93.8 197.9,98.1 201.5,95.8 		"/>
		<polygon class="st9" points="197.4,97.7 199.4,95.3 198.1,96.2 197.2,97.5 		"/>
	</g>
	<g>
		<polygon class="st17" points="205.3,103.5 201,106.5 196.5,107.3 195.2,109.9 195.9,111.4 198.3,112.1 203,111.1 209.7,106.6 
			210.1,105 209.7,103.8 206.8,102.5 		"/>
		<polygon class="st9" points="208.5,107.4 202.6,110.2 198.2,111.3 195.6,110.7 195.9,111.4 198.3,112.1 203,111.1 		"/>
	</g>
	<g>
		<polygon class="st17" points="202.9,98.2 198.4,102.4 193.1,104.1 192.1,107.5 193.2,109.2 196.1,109.6 201.5,107.5 208.6,101.1 
			208.9,99.2 208.2,97.9 204.5,96.8 		"/>
		<polygon class="st9" points="206,103.3 200.9,106.5 195.8,108.6 192.6,108.4 193.2,109.2 196.1,109.6 201.5,107.5 		"/>
	</g>
	<g>
		<polygon class="st17" points="199.4,95.3 195.3,100.2 190.2,102.5 188.9,105.1 190.2,106.6 193.2,106.7 198.2,104 204.6,96.8 
			204.6,94.9 203.8,93.6 200.1,93 		"/>
		<polygon class="st9" points="202.8,98.9 197.5,103.1 192.7,105.7 189.6,105.9 190.2,106.6 193.2,106.7 198.2,104 		"/>
	</g>
</g>
</svg>
