<?xml version="1.0" encoding="utf-8"?>
<!-- Generator: Adobe Illustrator 21.0.0, SVG Export Plug-In . SVG Version: 6.00 Build 0)  -->
<svg version="1.1" id="Layer_1" xmlns="http://www.w3.org/2000/svg" xmlns:xlink="http://www.w3.org/1999/xlink" x="0px" y="0px"
	 viewBox="0 0 220 220" style="enable-background:new 0 0 220 220;" xml:space="preserve">
<style type="text/css">
	.st0{clip-path:url(#SVGID_2_);fill:#5F44A3;}
	.st1{clip-path:url(#SVGID_2_);fill:#6655C5;}
	.st2{fill:#5A2AA3;}
	.st3{clip-path:url(#SVGID_4_);fill:#4D1261;}
	.st4{clip-path:url(#SVGID_4_);fill:#460045;}
	.st5{clip-path:url(#SVGID_6_);fill:#7378F5;}
	.st6{clip-path:url(#SVGID_6_);fill:#6C68D3;}
	.st7{fill:#5F36B7;}
	.st8{clip-path:url(#SVGID_8_);fill:#562C84;}
	.st9{clip-path:url(#SVGID_8_);fill:#511E6D;}
	.st10{clip-path:url(#SVGID_10_);fill:#7378F5;}
	.st11{clip-path:url(#SVGID_10_);fill:#6C68D3;}
	.st12{clip-path:url(#SVGID_12_);fill:#562C84;}
	.st13{clip-path:url(#SVGID_12_);fill:#511E6D;}
	.st14{clip-path:url(#SVGID_14_);fill:#7449E8;}
	.st15{clip-path:url(#SVGID_14_);fill:#765BEF;}
	.st16{fill:#682BDC;}
	.st17{clip-path:url(#SVGID_16_);fill:#5A1C92;}
	.st18{clip-path:url(#SVGID_16_);fill:#540E78;}
	.st19{clip-path:url(#SVGID_18_);fill:#735FF5;}
	.st20{clip-path:url(#SVGID_18_);fill:#6C33D3;}
	.st21{fill:#5F37B7;}
	.st22{clip-path:url(#SVGID_20_);fill:#561F84;}
	.st23{clip-path:url(#SVGID_20_);fill:#51096D;}
</style>
<g>
	<g>
		<g>
			<defs>
				<polygon id="SVGID_1_" points="114.3,87.6 118.4,117.4 115.5,147.8 119.6,165.5 116,168.7 119.4,177 112.2,192 101.4,196.5 
					92.5,192.8 88.6,181.2 93.9,167.1 97.9,164.3 97.1,159.8 102.6,142.8 107.7,128.4 106.9,106 101.3,84.4 				"/>
			</defs>
			<clipPath id="SVGID_2_">
				<use xlink:href="#SVGID_1_"  style="overflow:visible;"/>
			</clipPath>
			<polygon class="st0" points="114.3,87.6 118.4,117.4 115.5,147.8 119.6,165.5 116,168.7 119.4,177 112.2,192 101.4,196.5 
				92.5,192.8 88.6,181.2 93.9,167.1 97.9,164.3 97.1,159.8 102.6,142.8 107.7,128.4 106.9,106 101.3,84.4 			"/>
			<path class="st1" d="M106.3,96.4c0,0,1.9,7.2,2.2,7.9c0.3,0.7,1.2,13.3,1.2,13.3l-1.3,15.1l-3.7,15.7l-3.8,9l-2,3l0.6,4.2l-4,3.8
				l-4.1,8.3l-0.4,7.9l5.2,12.7L86,192.9l-7.8-22.2l11.2-38.6l13.2-25.9l-1.6-9L106.3,96.4z"/>
		</g>
		<polygon class="st2" points="137.2,94.4 131.7,99.3 125.6,96 119.2,96.9 115.9,99.4 106.9,98.6 101.4,101.3 94.9,104.3 
			85.9,105.5 81.6,102 97.8,83.6 113.9,84.7 		"/>
		<g>
			<defs>
				<polygon id="SVGID_3_" points="137.5,95.8 130,58 125.8,43.8 107.1,12.5 95.8,4.5 83.9,10.6 79.4,21.2 73.5,53.6 78.5,89.8 
					80.1,101.7 85.9,105.5 94.2,102.1 98.1,94.3 103.4,91.7 111.1,95.2 117.1,96.7 120.7,92.8 125.5,91 129.4,92.7 132.2,96.1 				
					"/>
			</defs>
			<clipPath id="SVGID_4_">
				<use xlink:href="#SVGID_3_"  style="overflow:visible;"/>
			</clipPath>
			<polygon class="st3" points="137.5,95.8 130,58 125.8,43.8 107.1,12.5 95.8,4.5 84.4,9.4 79.4,21.2 73.5,53.6 78.5,89.8 
				80.1,101.7 85.9,105.5 94.2,102.1 98.1,94.3 103.4,91.7 111.1,95.2 117.1,96.7 120.7,92.8 125.5,91 129.4,92.7 132.2,96.1 			"/>
			<polygon class="st4" points="94.4,-2.4 101.2,3.3 93.9,9.8 88.2,32.6 87.5,46.6 85.5,60.3 90.8,81.7 103.3,101.9 84.4,110.4 
				65,78.6 62.7,8.5 			"/>
		</g>
		<polygon class="st2" points="109.1,22.6 104.9,19 97.8,17.9 90.4,20.9 86.5,24.2 90.8,23.4 98.2,21 103.6,20.3 		"/>
		<polygon class="st2" points="117.4,35.9 109.9,34.6 103.9,35.4 98.5,37.3 102.3,36.8 107.9,36.1 114,36.4 		"/>
		<polygon class="st2" points="84.3,49.9 89.5,46.8 94.6,46.2 98.8,47.9 94,47.4 91.4,47.8 87.2,49.5 		"/>
		<polygon class="st2" points="118.8,52.2 113,50.8 106.1,51.7 99.7,54.8 96.5,58.7 100,57 104.1,54.8 109.5,52.5 112.5,52.1 		"/>
		<polygon class="st2" points="98.8,68.6 94.1,67.5 89.7,68.1 85.6,70.4 84.6,73.1 87.7,70 92.5,68.9 		"/>
		<polygon class="st2" points="125.9,67.5 121.5,65.9 113.7,67 109,70.6 115.3,68.2 120.4,67.5 		"/>
		<polygon class="st2" points="109.5,82.7 105.6,80.6 102.4,80.1 98,82.5 94.7,84.7 97.8,83.6 101.8,82 105.3,81.5 		"/>
	</g>
	<g>
		<g>
			<defs>
				<polygon id="SVGID_5_" points="83.5,131 83.5,155.2 89.1,179.2 87.7,193.7 90.9,195.8 89.1,202.8 96.5,214 105.6,216.4 
					112.2,212.5 114,202.8 108.3,192.2 104.8,190.4 105,186.7 98.8,173.7 93.2,162.8 91.3,145 93.5,127.1 				"/>
			</defs>
			<clipPath id="SVGID_6_">
				<use xlink:href="#SVGID_5_"  style="overflow:visible;"/>
			</clipPath>
			<polygon class="st5" points="83.5,131 83.5,155.2 89.1,179.2 87.7,193.7 90.9,195.8 89.1,202.8 96.5,214 105.6,216.4 
				112.2,212.5 114,202.8 108.3,192.2 104.8,190.4 105,186.7 98.8,173.7 93.2,162.8 91.3,145 93.5,127.1 			"/>
			<path class="st6" d="M90.8,137.2c0,0-0.7,5.9-0.9,6.5c-0.2,0.6,0.5,10.7,0.5,10.7l2.7,11.8l4.6,12.1l4,6.7l1.9,2.2v3.4l3.6,2.6
				l4.2,6.1l1.2,6.3l-2.8,10.7l7.7-4.6l3.8-18.5l-13.1-29.5l-13.3-19.2l0.3-7.3H90.8z"/>
		</g>
		<polygon class="st7" points="66,139 70.9,142.2 75.4,139 80.5,139 83.5,140.6 90.6,139 95.2,140.6 100.7,142.2 108,142.2 111,139 
			96.2,126.1 83.5,128.7 		"/>
		<g>
			<defs>
				<polygon id="SVGID_7_" points="65.9,140.1 67.7,109.2 69.5,97.4 81,70.5 89.2,62.9 99.3,66.5 104.1,74.4 112.2,99.6 
					112.2,128.9 112.2,138.6 108,142.2 101,140.4 97.1,134.7 92.5,133.2 86.8,136.8 82.3,138.6 78.9,135.9 74.9,135 72,136.8 
					70.1,139.8 				"/>
			</defs>
			<clipPath id="SVGID_8_">
				<use xlink:href="#SVGID_7_"  style="overflow:visible;"/>
			</clipPath>
			<polygon class="st8" points="65.9,140.1 67.7,109.2 69.5,97.4 81,70.5 89.2,62.9 98.8,65.6 104.1,74.4 112.2,99.6 112.2,128.9 
				112.2,138.6 108,142.2 101,140.4 97.1,134.7 92.5,133.2 86.8,136.8 82.3,138.6 78.9,135.9 74.9,135 72,136.8 70.1,139.8 			"/>
			<polygon class="st9" points="89.5,57.2 84.7,62.5 91.3,66.9 98.3,84.5 100.4,95.5 103.4,106.2 101.5,123.8 93.7,141.3 109.7,146 
				121.8,118.5 116,62.5 			"/>
		</g>
		<polygon class="st7" points="80.5,78.8 83.5,75.4 89.1,73.8 95.2,75.4 98.8,77.6 95.2,77.4 89.1,76.3 84.7,76.3 		"/>
		<polygon class="st7" points="75.4,90.3 81.2,88.4 86.1,88.4 90.6,89.3 87.5,89.3 83,89.3 78.2,90.3 		"/>
		<polygon class="st7" points="103.2,97.8 98.8,95.9 94.7,95.9 91.5,97.8 95.2,96.9 97.4,96.9 100.9,97.8 		"/>
		<polygon class="st7" points="76,103.3 80.5,101.6 86.1,101.6 91.5,103.3 94.5,106.1 91.5,105.2 88.1,103.9 83.5,102.6 81.1,102.6 
					"/>
		<polygon class="st7" points="93.7,114.3 97.4,112.9 100.9,112.9 104.4,114.3 105.5,116.3 102.7,114.2 98.8,113.8 		"/>
		<polygon class="st7" points="72.1,116.3 75.4,114.6 81.7,114.6 85.8,116.9 80.5,115.8 76.4,115.8 		"/>
		<polygon class="st7" points="86.8,126.6 89.6,124.5 92.1,123.8 95.9,125.2 98.8,126.6 96.2,126.1 92.8,125.2 89.9,125.2 		"/>
	</g>
	<g>
		<g>
			<defs>
				<polygon id="SVGID_9_" points="144.9,103.3 135.9,128.7 132.9,155.8 126.1,170.5 128.6,173.9 124.2,180.5 127.8,195 
					136.4,200.9 144.8,199.3 150.3,189.8 148.2,176.6 145.2,173.4 146.8,169.6 145.1,153.7 143.3,140.2 148,120.8 156.8,102.9 				
					"/>
			</defs>
			<clipPath id="SVGID_10_">
				<use xlink:href="#SVGID_9_"  style="overflow:visible;"/>
			</clipPath>
			<polygon class="st10" points="144.9,103.3 135.9,128.7 132.9,155.8 126.1,170.5 128.6,173.9 124.2,180.5 127.8,195 136.4,200.9 
				144.8,199.3 150.3,189.8 148.2,176.6 145.2,173.4 146.8,169.6 145.1,153.7 143.3,140.2 148,120.8 156.8,102.9 			"/>
			<path class="st11" d="M150.3,112.5c0,0-3,6-3.4,6.5c-0.4,0.5-3.5,11.4-3.5,11.4l-1.6,13.4l0.3,14.4l1.6,8.5l1.2,3l-1.2,3.5l2.8,4
				l2.1,8l-1.1,7l-6.9,10.2l9.8-1.9l10.8-18l-2.7-35.8l-6.8-25.1l3-7.6L150.3,112.5z"/>
		</g>
		<polygon class="st7" points="123.7,105.2 127.6,110.4 133.5,108.7 138.9,110.6 141.4,113.4 149.4,114.3 153.7,117.7 158.8,121.5 
			166.4,124.2 170.8,121.9 160,102.9 145.8,100.9 		"/>
		<g>
			<defs>
				<polygon id="SVGID_11_" points="123.2,106.3 136.5,74.7 142.8,63 164.8,39.1 176.2,34.2 185.4,41.7 187.5,51.7 186.7,81.1 
					175.8,111.8 172.2,121.9 166.4,124.2 159.8,119.7 157.8,112.2 153.6,108.9 146.3,110.6 140.8,110.8 138.4,106.7 134.5,104.3 
					130.7,105.1 127.7,107.6 				"/>
			</defs>
			<clipPath id="SVGID_12_">
				<use xlink:href="#SVGID_11_"  style="overflow:visible;"/>
			</clipPath>
			<polygon class="st12" points="123.2,106.3 136.5,74.7 142.8,63 164.8,39.1 176.2,34.2 185.2,40.5 187.5,51.7 186.7,81.1 
				175.8,111.8 172.2,121.9 166.4,124.2 159.8,119.7 157.8,112.2 153.6,108.9 146.3,110.6 140.8,110.8 138.4,106.7 134.5,104.3 
				130.7,105.1 127.7,107.6 			"/>
			<polygon class="st13" points="178.6,28.3 171.7,32.1 176.9,39.1 177.7,60.1 175.8,72.5 175,84.8 166.5,102.5 151.9,117.9 
				166.9,128.8 189.6,104.5 204.3,43.7 			"/>
		</g>
		<polygon class="st7" points="161.2,47.5 165.6,45.1 172,45.5 177.9,49.5 180.7,53.1 177.1,51.5 171.1,48.1 166.5,46.5 		"/>
		<polygon class="st7" points="151.6,57.7 158.3,57.9 163.5,59.7 167.8,62.3 164.6,61.2 159.9,59.5 154.5,58.7 		"/>
		<polygon class="st7" points="178,75.9 173.9,72.3 169.7,70.8 165.7,71.5 169.9,71.9 172.1,72.7 175.5,75 		"/>
		<polygon class="st7" points="147.4,71.6 152.8,71.5 158.6,73.5 163.6,77.3 165.7,81.4 162.9,79.3 159.8,76.6 155.5,73.6 153,72.7 
					"/>
		<polygon class="st7" points="161.9,89.6 166.2,89.5 170,90.8 173.1,93.6 173.4,96.1 171.4,92.9 167.3,91 		"/>
		<polygon class="st7" points="138.5,83.7 142.6,83.1 149.2,85.5 152.6,89.5 147.5,86.3 143.2,84.7 		"/>
		<polygon class="st7" points="150,99.9 153.8,98.8 156.6,99 160.1,101.9 162.6,104.4 160,102.9 156.8,100.7 153.8,99.7 		"/>
	</g>
	<g>
		<g>
			<defs>
				<polygon id="SVGID_13_" points="186.6,146.9 190,165.2 189.1,184 192.1,194.8 190,196.8 192.3,201.8 188.3,211.3 181.8,214.4 
					176.2,212.4 173.5,205.3 176.3,196.5 178.7,194.7 178.1,191.9 181,181.2 183.7,172.2 182.6,158.5 178.5,145.3 				"/>
			</defs>
			<clipPath id="SVGID_14_">
				<use xlink:href="#SVGID_13_"  style="overflow:visible;"/>
			</clipPath>
			<polygon class="st14" points="186.6,146.9 190,165.2 189.1,184 192.1,194.8 190,196.8 192.3,201.8 188.3,211.3 181.8,214.4 
				176.2,212.4 173.5,205.3 176.3,196.5 178.7,194.7 178.1,191.9 181,181.2 183.7,172.2 182.6,158.5 178.5,145.3 			"/>
			<path class="st15" d="M181.9,152.6c0,0,1.4,4.4,1.6,4.8s1.1,8.2,1.1,8.2l-0.4,9.3l-1.8,9.8l-2.1,5.6l-1.1,1.9l0.5,2.5l-2.4,2.4
				l-2.3,5.2l0,4.9l3.6,7.7l-6.5-2.4l-5.4-13.5l5.8-24.1l7.4-16.3l-1.2-5.5L181.9,152.6z"/>
		</g>
		<polygon class="st16" points="200.9,150.5 197.7,153.6 193.8,151.8 189.9,152.5 187.9,154.2 182.4,153.9 179.1,155.8 175.1,157.8 
			169.7,158.8 166.9,156.7 176.3,145 186.3,145.2 		"/>
		<g>
			<defs>
				<polygon id="SVGID_15_" points="201.1,151.3 195.5,128.3 192.5,119.6 180.1,100.9 172.8,96.3 165.7,100.4 163.2,107.1 
					160.6,127.1 164.6,149.3 166,156.6 169.7,158.8 174.7,156.4 176.8,151.5 180.1,149.8 184.9,151.7 188.6,152.5 190.7,149.9 
					193.6,148.7 196.1,149.7 197.9,151.7 				"/>
			</defs>
			<clipPath id="SVGID_16_">
				<use xlink:href="#SVGID_15_"  style="overflow:visible;"/>
			</clipPath>
			<polygon class="st17" points="201.1,151.3 195.5,128.3 192.5,119.6 180.1,100.9 172.8,96.3 166,99.6 163.2,107.1 160.6,127.1 
				164.6,149.3 166,156.6 169.7,158.8 174.7,156.4 176.8,151.5 180.1,149.8 184.9,151.7 188.6,152.5 190.7,149.9 193.6,148.7 
				196.1,149.7 197.9,151.7 			"/>
			<polygon class="st18" points="171.8,92.1 176.2,95.4 171.9,99.6 169,113.8 168.9,122.5 168.1,131 172,144 180.3,156.1 
				168.9,161.9 156,142.8 152.6,99.7 			"/>
		</g>
		<polygon class="st16" points="181.6,107.1 178.9,104.9 174.5,104.5 170,106.6 167.7,108.7 170.3,108.1 174.8,106.4 178.1,105.8 		
			"/>
		<polygon class="st16" points="187.1,115 182.4,114.4 178.7,115.1 175.5,116.4 177.8,116 181.2,115.4 185,115.4 		"/>
		<polygon class="st16" points="167.1,124.6 170.2,122.6 173.3,122 176,122.9 173,122.8 171.4,123.1 168.9,124.2 		"/>
		<polygon class="st16" points="188.4,125 184.8,124.3 180.6,125.1 176.7,127.1 174.8,129.6 177,128.5 179.4,127.1 182.7,125.4 
			184.5,125.1 		"/>
		<polygon class="st16" points="176.5,135.7 173.6,135.1 170.9,135.6 168.5,137.2 168,138.8 169.7,136.9 172.7,136.1 		"/>
		<polygon class="st16" points="193.2,134.2 190.4,133.4 185.7,134.3 182.9,136.6 186.7,135 189.8,134.4 		"/>
		<polygon class="st16" points="183.5,144 181.1,142.9 179.1,142.7 176.4,144.3 174.5,145.7 176.3,145 178.8,143.8 180.9,143.4 		
			"/>
	</g>
	<g>
		<g>
			<defs>
				<polygon id="SVGID_17_" points="37.8,109 34.4,127.3 35.3,146.1 32.3,156.9 34.4,158.9 32.1,163.9 36.1,173.4 42.6,176.5 
					48.2,174.4 50.9,167.4 48,158.6 45.7,156.7 46.3,154 43.4,143.3 40.7,134.3 41.8,120.6 45.8,107.4 				"/>
			</defs>
			<clipPath id="SVGID_18_">
				<use xlink:href="#SVGID_17_"  style="overflow:visible;"/>
			</clipPath>
			<polygon class="st19" points="37.8,109 34.4,127.3 35.3,146.1 32.3,156.9 34.4,158.9 32.1,163.9 36.1,173.4 42.6,176.5 
				48.2,174.4 50.9,167.4 48,158.6 45.7,156.7 46.3,154 43.4,143.3 40.7,134.3 41.8,120.6 45.8,107.4 			"/>
			<path class="st20" d="M42.4,114.7c0,0-1.4,4.4-1.6,4.8c-0.2,0.4-1.1,8.2-1.1,8.2l0.4,9.3l1.8,9.8l2.1,5.6l1.1,1.9l-0.5,2.5
				l2.4,2.4l2.3,5.2l0,4.9l-3.6,7.7l6.5-2.4l5.4-13.5l-5.8-24.1l-7.4-16.3l1.2-5.5L42.4,114.7z"/>
		</g>
		<polygon class="st21" points="23.5,112.6 26.7,115.7 30.6,113.9 34.4,114.6 36.4,116.2 42,116 45.3,117.8 49.2,119.8 54.7,120.8 
			57.5,118.8 48,107 38.1,107.2 		"/>
		<g>
			<defs>
				<polygon id="SVGID_19_" points="23.3,113.4 28.9,90.4 31.9,81.7 44.3,63 51.5,58.4 58.7,62.5 61.1,69.1 63.8,89.2 59.8,111.4 
					58.4,118.7 54.7,120.8 49.7,118.5 47.5,113.6 44.3,111.8 39.5,113.8 35.8,114.5 33.7,112 30.8,110.8 28.3,111.7 26.5,113.8 				
					"/>
			</defs>
			<clipPath id="SVGID_20_">
				<use xlink:href="#SVGID_19_"  style="overflow:visible;"/>
			</clipPath>
			<polygon class="st22" points="23.3,113.4 28.9,90.4 31.9,81.7 44.3,63 51.5,58.4 58.4,61.7 61.1,69.1 63.8,89.2 59.8,111.4 
				58.4,118.7 54.7,120.8 49.7,118.5 47.5,113.6 44.3,111.8 39.5,113.8 35.8,114.5 33.7,112 30.8,110.8 28.3,111.7 26.5,113.8 			
				"/>
			<polygon class="st23" points="52.6,54.1 48.2,57.5 52.5,61.7 55.4,75.9 55.4,84.5 56.2,93 52.4,106.1 44.1,118.1 55.5,123.9 
				68.4,104.9 71.8,61.8 			"/>
		</g>
		<polygon class="st21" points="42.8,69.1 45.5,67 49.9,66.6 54.3,68.6 56.7,70.8 54.1,70.1 49.6,68.5 46.3,67.8 		"/>
		<polygon class="st21" points="37.3,77.1 41.9,76.5 45.6,77.2 48.9,78.5 46.6,78.1 43.2,77.5 39.4,77.5 		"/>
		<polygon class="st21" points="57.3,86.6 54.2,84.6 51.1,84.1 48.4,85 51.4,84.8 53,85.1 55.5,86.3 		"/>
		<polygon class="st21" points="36,87.1 39.6,86.4 43.8,87.2 47.7,89.2 49.6,91.7 47.4,90.6 45,89.1 41.7,87.5 39.9,87.2 		"/>
		<polygon class="st21" points="47.8,97.8 50.8,97.2 53.5,97.7 55.9,99.3 56.4,100.9 54.6,98.9 51.7,98.1 		"/>
		<polygon class="st21" points="31.2,96.3 33.9,95.4 38.7,96.3 41.5,98.7 37.7,97.1 34.6,96.5 		"/>
		<polygon class="st21" points="40.9,106.1 43.3,104.9 45.3,104.8 47.9,106.3 49.9,107.8 48,107 45.6,105.9 43.5,105.5 		"/>
	</g>
</g>
</svg>
