<?xml version="1.0" encoding="utf-8"?>
<!-- Generator: Adobe Illustrator 21.0.0, SVG Export Plug-In . SVG Version: 6.00 Build 0)  -->
<svg version="1.1" id="Layer_1" xmlns="http://www.w3.org/2000/svg" xmlns:xlink="http://www.w3.org/1999/xlink" x="0px" y="0px"
	 viewBox="0 0 220 220" style="enable-background:new 0 0 220 220;" xml:space="preserve">
<style type="text/css">
	.st0{clip-path:url(#SVGID_2_);fill:#297296;}
	.st1{clip-path:url(#SVGID_2_);fill:#3083B8;}
	.st2{fill:#245896;}
	.st3{clip-path:url(#SVGID_4_);fill:#174054;}
	.st4{clip-path:url(#SVGID_4_);fill:#102C38;}
	.st5{clip-path:url(#SVGID_6_);fill:#3DA6E8;}
	.st6{clip-path:url(#SVGID_6_);fill:#3696C6;}
	.st7{fill:#2964AA;}
	.st8{clip-path:url(#SVGID_8_);fill:#205A77;}
	.st9{clip-path:url(#SVGID_8_);fill:#1B4C60;}
	.st10{clip-path:url(#SVGID_10_);fill:#3DA6E8;}
	.st11{clip-path:url(#SVGID_10_);fill:#3696C6;}
	.st12{clip-path:url(#SVGID_12_);fill:#205A77;}
	.st13{clip-path:url(#SVGID_12_);fill:#1B4C60;}
	.st14{clip-path:url(#SVGID_14_);fill:#3E77DB;}
	.st15{clip-path:url(#SVGID_14_);fill:#4089E2;}
	.st16{fill:#3259CF;}
	.st17{clip-path:url(#SVGID_16_);fill:#244A85;}
	.st18{clip-path:url(#SVGID_16_);fill:#1E3C6B;}
	.st19{clip-path:url(#SVGID_18_);fill:#3D8DE8;}
	.st20{clip-path:url(#SVGID_18_);fill:#3661C6;}
	.st21{fill:#2965AA;}
	.st22{clip-path:url(#SVGID_20_);fill:#204D77;}
	.st23{clip-path:url(#SVGID_20_);fill:#1B3760;}
</style>
<g>
	<g>
		<g>
			<defs>
				<polygon id="SVGID_1_" points="114.3,87.1 118.3,117 115.4,147.4 119.6,165.1 116,168.2 119.4,176.5 112.1,191.6 101.3,196.1 
					92.5,192.3 88.6,180.7 93.9,166.7 97.9,163.8 97.1,159.4 102.6,142.3 107.6,127.9 106.9,105.6 101.3,83.9 				"/>
			</defs>
			<clipPath id="SVGID_2_">
				<use xlink:href="#SVGID_1_"  style="overflow:visible;"/>
			</clipPath>
			<polygon class="st0" points="114.3,87.1 118.3,117 115.4,147.4 119.6,165.1 116,168.2 119.4,176.5 112.1,191.6 101.3,196.1 
				92.5,192.3 88.6,180.7 93.9,166.7 97.9,163.8 97.1,159.4 102.6,142.3 107.6,127.9 106.9,105.6 101.3,83.9 			"/>
			<path class="st1" d="M106.3,96c0,0,1.9,7.2,2.2,7.9s1.2,13.3,1.2,13.3l-1.3,15.1l-3.7,15.7l-3.8,9l-2,3l0.6,4.2l-4,3.8l-4.1,8.3
				l-0.4,7.9l5.2,12.7L86,192.4l-7.8-22.2l11.2-38.6l13.2-25.9l-1.6-9L106.3,96z"/>
		</g>
		<polygon class="st2" points="137.2,94 131.6,98.8 125.6,95.5 119.2,96.4 115.9,98.9 106.8,98.1 101.4,100.9 94.8,103.8 85.9,105 
			81.6,101.5 97.7,83.2 113.9,84.2 		"/>
		<g>
			<defs>
				<polygon id="SVGID_3_" points="137.4,95.3 130,57.6 125.8,43.3 107.1,12 95.7,4.1 83.9,10.2 79.4,20.7 73.5,53.1 78.4,89.3 
					80.1,101.3 85.9,105 94.2,101.6 98.1,93.9 103.4,91.2 111.1,94.7 117,96.2 120.7,92.3 125.4,90.5 129.4,92.3 132.2,95.7 				"/>
			</defs>
			<clipPath id="SVGID_4_">
				<use xlink:href="#SVGID_3_"  style="overflow:visible;"/>
			</clipPath>
			<polygon class="st3" points="137.4,95.3 130,57.6 125.8,43.3 107.1,12 95.7,4.1 84.4,8.9 79.4,20.7 73.5,53.1 78.4,89.3 
				80.1,101.3 85.9,105 94.2,101.6 98.1,93.9 103.4,91.2 111.1,94.7 117,96.2 120.7,92.3 125.4,90.5 129.4,92.3 132.2,95.7 			"/>
			<polygon class="st4" points="94.4,-2.9 101.2,2.8 93.9,9.3 88.2,32.1 87.5,46.2 85.5,59.9 90.8,81.3 103.3,101.4 84.4,110 
				64.9,78.1 62.7,8.1 			"/>
		</g>
		<polygon class="st2" points="109.1,22.2 104.9,18.5 97.7,17.5 90.4,20.5 86.4,23.7 90.7,22.9 98.2,20.5 103.5,19.8 		"/>
		<polygon class="st2" points="117.4,35.5 109.9,34.2 103.9,35 98.5,36.9 102.2,36.4 107.9,35.6 114,35.9 		"/>
		<polygon class="st2" points="84.3,49.4 89.5,46.4 94.6,45.7 98.8,47.4 94,46.9 91.4,47.3 87.2,49 		"/>
		<polygon class="st2" points="118.8,51.7 112.9,50.3 106.1,51.3 99.7,54.3 96.4,58.2 100,56.6 104,54.4 109.5,52 112.4,51.6 		"/>
		<polygon class="st2" points="98.8,68.2 94.1,67 89.7,67.6 85.6,70 84.6,72.6 87.6,69.6 92.5,68.5 		"/>
		<polygon class="st2" points="125.8,67 121.5,65.4 113.6,66.5 109,70.1 115.3,67.8 120.4,67.1 		"/>
		<polygon class="st2" points="109.4,82.2 105.5,80.1 102.4,79.7 98,82 94.7,84.2 97.7,83.2 101.8,81.5 105.3,81 		"/>
	</g>
	<g>
		<g>
			<defs>
				<polygon id="SVGID_5_" points="83.4,130.6 83.4,154.8 89,178.7 87.7,193.2 90.8,195.4 89,202.3 96.4,213.5 105.5,215.9 
					112.2,212 114,202.3 108.3,191.7 104.8,189.9 104.9,186.3 98.7,173.3 93.1,162.4 91.3,144.5 93.4,126.6 				"/>
			</defs>
			<clipPath id="SVGID_6_">
				<use xlink:href="#SVGID_5_"  style="overflow:visible;"/>
			</clipPath>
			<polygon class="st5" points="83.4,130.6 83.4,154.8 89,178.7 87.7,193.2 90.8,195.4 89,202.3 96.4,213.5 105.5,215.9 112.2,212 
				114,202.3 108.3,191.7 104.8,189.9 104.9,186.3 98.7,173.3 93.1,162.4 91.3,144.5 93.4,126.6 			"/>
			<path class="st6" d="M90.8,136.8c0,0-0.7,5.9-0.9,6.5c-0.2,0.6,0.5,10.7,0.5,10.7l2.7,11.8l4.6,12.1l4,6.7l1.9,2.2v3.4l3.6,2.6
				l4.2,6.1l1.2,6.3l-2.8,10.7l7.7-4.6l3.8-18.5l-13.1-29.5l-13.3-19.2l0.3-7.3H90.8z"/>
		</g>
		<polygon class="st7" points="65.9,138.5 70.9,141.8 75.3,138.5 80.5,138.5 83.4,140.2 90.5,138.5 95.2,140.2 100.7,141.8 
			108,141.8 111,138.5 96.1,125.7 83.4,128.2 		"/>
		<g>
			<defs>
				<polygon id="SVGID_7_" points="65.9,139.7 67.7,108.8 69.5,97 81,70 89.2,62.5 99.3,66 104,74 112.2,99.1 112.2,128.5 
					112.2,138.1 108,141.8 101,140 97.1,134.2 92.5,132.7 86.8,136.3 82.2,138.1 78.9,135.4 74.9,134.5 71.9,136.3 70.1,139.4 				
					"/>
			</defs>
			<clipPath id="SVGID_8_">
				<use xlink:href="#SVGID_7_"  style="overflow:visible;"/>
			</clipPath>
			<polygon class="st8" points="65.9,139.7 67.7,108.8 69.5,97 81,70 89.2,62.5 98.7,65.1 104,74 112.2,99.1 112.2,128.5 
				112.2,138.1 108,141.8 101,140 97.1,134.2 92.5,132.7 86.8,136.3 82.2,138.1 78.9,135.4 74.9,134.5 71.9,136.3 70.1,139.4 			"/>
			<polygon class="st9" points="89.5,56.8 84.7,62.1 91.2,66.4 98.2,84 100.3,95.1 103.4,105.8 101.5,123.4 93.7,140.8 109.7,145.5 
				121.7,118.1 115.9,62.1 			"/>
		</g>
		<polygon class="st7" points="80.5,78.3 83.4,74.9 89,73.4 95.2,74.9 98.7,77.1 95.2,76.9 89,75.8 84.7,75.8 		"/>
		<polygon class="st7" points="75.3,89.8 81.2,88 86,88 90.5,88.9 87.5,88.9 82.9,88.9 78.1,89.8 		"/>
		<polygon class="st7" points="103.2,97.3 98.7,95.5 94.6,95.5 91.5,97.3 95.2,96.4 97.3,96.4 100.8,97.3 		"/>
		<polygon class="st7" points="76,102.9 80.5,101.2 86,101.2 91.5,102.9 94.5,105.7 91.5,104.7 88,103.4 83.4,102.1 81,102.1 		"/>
		<polygon class="st7" points="93.7,113.8 97.3,112.4 100.9,112.4 104.4,113.8 105.5,115.8 102.7,113.7 98.7,113.4 		"/>
		<polygon class="st7" points="72,115.8 75.3,114.1 81.7,114.1 85.8,116.5 80.5,115.3 76.4,115.3 		"/>
		<polygon class="st7" points="86.7,126.2 89.6,124.1 92.1,123.4 95.9,124.8 98.7,126.2 96.1,125.7 92.7,124.8 89.9,124.8 		"/>
	</g>
	<g>
		<g>
			<defs>
				<polygon id="SVGID_9_" points="144.9,102.9 135.9,128.2 132.9,155.3 126.1,170.1 128.6,173.4 124.1,180.1 127.7,194.5 
					136.3,200.4 144.8,198.8 150.3,189.3 148.2,176.1 145.2,172.9 146.7,169.2 145.1,153.2 143.2,139.7 148,120.4 156.8,102.5 				
					"/>
			</defs>
			<clipPath id="SVGID_10_">
				<use xlink:href="#SVGID_9_"  style="overflow:visible;"/>
			</clipPath>
			<polygon class="st10" points="144.9,102.9 135.9,128.2 132.9,155.3 126.1,170.1 128.6,173.4 124.1,180.1 127.7,194.5 
				136.3,200.4 144.8,198.8 150.3,189.3 148.2,176.1 145.2,172.9 146.7,169.2 145.1,153.2 143.2,139.7 148,120.4 156.8,102.5 			"/>
			<path class="st11" d="M150.3,112.1c0,0-3,6-3.4,6.5c-0.4,0.5-3.5,11.4-3.5,11.4l-1.6,13.4l0.3,14.4l1.6,8.5l1.2,3l-1.2,3.5l2.8,4
				l2.1,8l-1.1,7l-6.9,10.2l9.8-1.9l10.8-18l-2.7-35.8l-6.8-25.1l3-7.6L150.3,112.1z"/>
		</g>
		<polygon class="st7" points="123.6,104.7 127.6,109.9 133.5,108.2 138.9,110.1 141.3,112.9 149.4,113.8 153.6,117.3 158.8,121 
			166.4,123.7 170.8,121.4 160,102.5 145.7,100.4 		"/>
		<g>
			<defs>
				<polygon id="SVGID_11_" points="123.1,105.9 136.5,74.2 142.8,62.5 164.8,38.6 176.2,33.7 185.4,41.2 187.4,51.3 186.7,80.6 
					175.8,111.3 172.2,121.5 166.4,123.7 159.8,119.2 157.8,111.7 153.6,108.5 146.2,110.1 140.8,110.4 138.3,106.3 134.5,103.8 
					130.7,104.6 127.7,107.1 				"/>
			</defs>
			<clipPath id="SVGID_12_">
				<use xlink:href="#SVGID_11_"  style="overflow:visible;"/>
			</clipPath>
			<polygon class="st12" points="123.1,105.9 136.5,74.2 142.8,62.5 164.8,38.6 176.2,33.7 185.2,40 187.4,51.3 186.7,80.6 
				175.8,111.3 172.2,121.5 166.4,123.7 159.8,119.2 157.8,111.7 153.6,108.5 146.2,110.1 140.8,110.4 138.3,106.3 134.5,103.8 
				130.7,104.6 127.7,107.1 			"/>
			<polygon class="st13" points="178.6,27.9 171.6,31.6 176.8,38.6 177.6,59.6 175.7,72 175,84.3 166.5,102.1 151.8,117.4 
				166.8,128.3 189.6,104 204.3,43.2 			"/>
		</g>
		<polygon class="st7" points="161.2,47.1 165.5,44.6 172,45.1 177.8,49 180.7,52.6 177.1,51.1 171.1,47.7 166.5,46 		"/>
		<polygon class="st7" points="151.5,57.2 158.3,57.4 163.4,59.2 167.8,61.9 164.6,60.7 159.8,59.1 154.4,58.2 		"/>
		<polygon class="st7" points="177.9,75.4 173.9,71.8 169.6,70.3 165.6,71.1 169.9,71.5 172.1,72.3 175.4,74.5 		"/>
		<polygon class="st7" points="147.4,71.1 152.7,71 158.5,73.1 163.6,76.9 165.7,80.9 162.9,78.8 159.8,76.1 155.4,73.1 152.9,72.2 
					"/>
		<polygon class="st7" points="161.8,89.2 166.2,89 169.9,90.3 173,93.1 173.4,95.6 171.3,92.4 167.3,90.6 		"/>
		<polygon class="st7" points="138.4,83.2 142.5,82.6 149.2,85 152.6,89 147.5,85.8 143.2,84.3 		"/>
		<polygon class="st7" points="150,99.5 153.8,98.4 156.6,98.6 160,101.4 162.5,103.9 160,102.5 156.8,100.3 153.8,99.2 		"/>
	</g>
	<g>
		<g>
			<defs>
				<polygon id="SVGID_13_" points="186.6,146.5 189.9,164.7 189,183.6 192.1,194.3 190,196.4 192.3,201.4 188.2,210.9 181.7,213.9 
					176.1,211.9 173.4,204.8 176.3,196 178.7,194.2 178.1,191.5 181,180.8 183.7,171.8 182.6,158.1 178.5,144.9 				"/>
			</defs>
			<clipPath id="SVGID_14_">
				<use xlink:href="#SVGID_13_"  style="overflow:visible;"/>
			</clipPath>
			<polygon class="st14" points="186.6,146.5 189.9,164.7 189,183.6 192.1,194.3 190,196.4 192.3,201.4 188.2,210.9 181.7,213.9 
				176.1,211.9 173.4,204.8 176.3,196 178.7,194.2 178.1,191.5 181,180.8 183.7,171.8 182.6,158.1 178.5,144.9 			"/>
			<path class="st15" d="M181.9,152.1c0,0,1.4,4.4,1.6,4.8c0.2,0.4,1.1,8.2,1.1,8.2l-0.4,9.3l-1.8,9.8l-2.1,5.6l-1.1,1.9l0.5,2.5
				l-2.4,2.4l-2.3,5.2l0,4.9l3.6,7.7l-6.5-2.4l-5.4-13.5l5.8-24.1l7.4-16.3l-1.2-5.5L181.9,152.1z"/>
		</g>
		<polygon class="st16" points="200.9,150 197.6,153.2 193.8,151.3 189.9,152.1 187.9,153.7 182.3,153.5 179,155.3 175.1,157.3 
			169.6,158.3 166.9,156.3 176.3,144.5 186.3,144.7 		"/>
		<g>
			<defs>
				<polygon id="SVGID_15_" points="201.1,150.9 195.4,127.8 192.4,119.2 180,100.4 172.8,95.9 165.7,100 163.2,106.6 160.5,126.7 
					164.6,148.8 165.9,156.2 169.6,158.3 174.6,156 176.8,151.1 180,149.3 184.9,151.3 188.5,152 190.7,149.5 193.6,148.3 
					196.1,149.2 197.8,151.2 				"/>
			</defs>
			<clipPath id="SVGID_16_">
				<use xlink:href="#SVGID_15_"  style="overflow:visible;"/>
			</clipPath>
			<polygon class="st17" points="201.1,150.9 195.4,127.8 192.4,119.2 180,100.4 172.8,95.9 166,99.2 163.2,106.6 160.5,126.7 
				164.6,148.8 165.9,156.2 169.6,158.3 174.6,156 176.8,151.1 180,149.3 184.9,151.3 188.5,152 190.7,149.5 193.6,148.3 
				196.1,149.2 197.8,151.2 			"/>
			<polygon class="st18" points="171.8,91.6 176.1,94.9 171.8,99.1 169,113.4 168.9,122 168.1,130.5 172,143.5 180.2,155.6 
				168.8,161.4 155.9,142.3 152.6,99.3 			"/>
		</g>
		<polygon class="st16" points="181.6,106.6 178.9,104.5 174.4,104.1 170,106.1 167.6,108.2 170.3,107.6 174.8,105.9 178.1,105.3 		
			"/>
		<polygon class="st16" points="187,114.6 182.4,114 178.7,114.7 175.4,116 177.7,115.6 181.2,114.9 184.9,115 		"/>
		<polygon class="st16" points="167.1,124.1 170.2,122.1 173.3,121.5 175.9,122.5 173,122.3 171.4,122.6 168.8,123.8 		"/>
		<polygon class="st16" points="188.4,124.5 184.7,123.9 180.5,124.6 176.7,126.7 174.8,129.2 176.9,128.1 179.4,126.6 182.6,125 
			184.5,124.7 		"/>
		<polygon class="st16" points="176.5,135.3 173.6,134.7 170.9,135.2 168.4,136.7 167.9,138.4 169.7,136.4 172.7,135.6 		"/>
		<polygon class="st16" points="193.1,133.8 190.4,132.9 185.6,133.8 182.9,136.2 186.7,134.5 189.8,134 		"/>
		<polygon class="st16" points="183.5,143.6 181,142.4 179.1,142.2 176.4,143.8 174.4,145.2 176.3,144.5 178.8,143.4 180.9,143 		
			"/>
	</g>
	<g>
		<g>
			<defs>
				<polygon id="SVGID_17_" points="37.7,108.5 34.4,126.8 35.3,145.6 32.3,156.4 34.4,158.4 32,163.4 36.1,172.9 42.6,176 
					48.2,174 50.9,166.9 48,158.1 45.6,156.3 46.2,153.5 43.4,142.9 40.6,133.9 41.7,120.1 45.8,106.9 				"/>
			</defs>
			<clipPath id="SVGID_18_">
				<use xlink:href="#SVGID_17_"  style="overflow:visible;"/>
			</clipPath>
			<polygon class="st19" points="37.7,108.5 34.4,126.8 35.3,145.6 32.3,156.4 34.4,158.4 32,163.4 36.1,172.9 42.6,176 48.2,174 
				50.9,166.9 48,158.1 45.6,156.3 46.2,153.5 43.4,142.9 40.6,133.9 41.7,120.1 45.8,106.9 			"/>
			<path class="st20" d="M42.4,114.2c0,0-1.4,4.4-1.6,4.8c-0.2,0.4-1.1,8.2-1.1,8.2l0.4,9.3l1.8,9.8l2.1,5.6l1.1,1.9l-0.5,2.5
				l2.4,2.4l2.3,5.2l0,4.9l-3.6,7.7l6.5-2.4l5.4-13.5l-5.8-24.1l-7.4-16.3l1.2-5.5L42.4,114.2z"/>
		</g>
		<polygon class="st21" points="23.4,112.1 26.7,115.2 30.5,113.4 34.4,114.1 36.4,115.8 42,115.5 45.3,117.4 49.2,119.4 
			54.7,120.4 57.4,118.3 48,106.6 38.1,106.8 		"/>
		<g>
			<defs>
				<polygon id="SVGID_19_" points="23.2,112.9 28.9,89.9 31.9,81.2 44.3,62.5 51.5,57.9 58.6,62 61.1,68.7 63.8,88.7 59.7,110.9 
					58.4,118.2 54.7,120.4 49.7,118 47.5,113.2 44.3,111.4 39.4,113.3 35.8,114.1 33.6,111.6 30.8,110.3 28.3,111.3 26.5,113.3 				
					"/>
			</defs>
			<clipPath id="SVGID_20_">
				<use xlink:href="#SVGID_19_"  style="overflow:visible;"/>
			</clipPath>
			<polygon class="st22" points="23.2,112.9 28.9,89.9 31.9,81.2 44.3,62.5 51.5,57.9 58.3,61.2 61.1,68.7 63.8,88.7 59.7,110.9 
				58.4,118.2 54.7,120.4 49.7,118 47.5,113.2 44.3,111.4 39.4,113.3 35.8,114.1 33.6,111.6 30.8,110.3 28.3,111.3 26.5,113.3 			
				"/>
			<polygon class="st23" points="52.5,53.7 48.2,57 52.5,61.2 55.3,75.4 55.4,84.1 56.2,92.6 52.4,105.6 44.1,117.7 55.5,123.5 
				68.4,104.4 71.7,61.3 			"/>
		</g>
		<polygon class="st21" points="42.7,68.7 45.4,66.5 49.9,66.1 54.3,68.2 56.7,70.3 54,69.7 49.5,68 46.2,67.4 		"/>
		<polygon class="st21" points="37.3,76.6 41.9,76 45.6,76.7 48.9,78 46.6,77.6 43.1,77 39.4,77 		"/>
		<polygon class="st21" points="57.3,86.2 54.1,84.2 51,83.6 48.4,84.6 51.3,84.4 52.9,84.7 55.5,85.8 		"/>
		<polygon class="st21" points="36,86.6 39.6,85.9 43.8,86.7 47.6,88.7 49.5,91.3 47.4,90.1 45,88.7 41.7,87.1 39.8,86.7 		"/>
		<polygon class="st21" points="47.8,97.3 50.7,96.7 53.4,97.2 55.9,98.8 56.4,100.4 54.6,98.5 51.6,97.7 		"/>
		<polygon class="st21" points="31.2,95.8 33.9,95 38.7,95.9 41.4,98.2 37.6,96.6 34.5,96 		"/>
		<polygon class="st21" points="40.8,105.7 43.3,104.5 45.3,104.3 47.9,105.9 49.9,107.3 48,106.6 45.5,105.4 43.4,105 		"/>
	</g>
</g>
</svg>
