<svg id="Layer_1" xmlns="http://www.w3.org/2000/svg" xmlns:xlink="http://www.w3.org/1999/xlink" viewBox="0 0 220 240"><style>.st3{fill:#ffb380}.st7{fill:#f0a12f}.st11{fill:#ffd397}.st15{fill:#ffc138}.st19{fill:#ffb08d}.st23{fill:#f29639}</style><path fill="#ffcf91" d="M15.3 136.5l13.7-5 18.1-12 21.3-17 14-12.1 13.7-17.1 2.1-2.9-7-6.6-27.6 5.8L38 82.4l-14.5 20.5-11.6 25z"/><defs><path id="SVGID_1_" d="M69.6 131.2l10.8 15.1 13.8 17.3 1.8 6 8.7 12.8 2.8 1.5 4-1.8 1.7-3.8 4.7-2.1 1.5-3.1 6.1-2.9 1.4-2.6 1.4-3.8-10.8-12.1-6.1-2.1-15.3-17.8L84.4 117z"/></defs><clipPath id="SVGID_2_"><use xlink:href="#SVGID_1_" overflow="visible"/></clipPath><path clip-path="url(#SVGID_2_)" fill="#ffcf91" d="M69.6 131.2l10.8 15.1 13.8 17.3 1.8 6 8.7 12.8 2.8 1.5 4-1.8 1.7-3.8 4.7-2.1 1.5-3.1 6.1-2.9 1.4-2.6 1.4-3.8-10.8-12.1-6.1-2.1-15.3-17.8L84.4 117z"/><defs><path id="SVGID_3_" d="M69.6 131.2l10.8 15.1 13.8 17.3 1.8 6 8.7 12.8 2.8 1.5 4-1.8 1.7-3.8 4.7-2.1 1.5-3.1 6.1-2.9 1.4-2.6 1.4-3.8-10.8-12.1-6.1-2.1-15.3-17.8L84.4 117z"/></defs><clipPath id="SVGID_4_"><use xlink:href="#SVGID_3_" overflow="visible"/></clipPath><path clip-path="url(#SVGID_4_)" fill="#ffb380" d="M80.4 132.8l2.6-5.1 5.8-.9 21 26.3 4.8 1.8 7.3 6.3 3.9 4.8-.4 5 7.5-5.9-11.6-17.6-18.6-11.9L90 119.7l-6.9-1.7-11.8 15.9.2 2.2z"/><path class="st3" d="M37.8 91.7l-1.3.7-14.6 40.1L38 93zM43.7 95l-.9 1.1 6.8 20.1L44.5 96zM40.2 95.4l-1.1 1 2.6 24.7-1-24.5zM38.9 93.5l-1.3.7-4.2 33.8 5.8-33.2zM50.4 79.8l1-1.1 42.3-5.3-42.1 7zM52.3 86.3l1.3-.6 18.1 11.1-18.6-9.5zM53.5 83l1.2-.9 23.5 8.1-23.7-6.4zM51.9 81.3l1-1.1 33.9 3.4-33.7-1.7z"/><g><defs><path id="SVGID_5_" d="M34.6 94l11.5 10.7 9.8 10.3 4.4 12.1 3.2 12 6-1 1.7-2.9L80 132l1.8-6 6-.6.8-4.5 3.8-3.2-1.9-3.2-10.8-6.4-9.3-5.2-18.6-26.1z"/></defs><clipPath id="SVGID_6_"><use xlink:href="#SVGID_5_" overflow="visible"/></clipPath><path clip-path="url(#SVGID_6_)" fill="#ff704d" d="M34.6 94l11.5 10.7 9.8 10.3 4.4 12.1 3.2 12 6-1 1.7-2.9L80 132l1.8-6 6-.6.8-4.5 3.8-3.2-1.9-3.2-10.8-6.4-9.3-5.2-18.6-26.1z"/><g><defs><path id="SVGID_7_" d="M34.6 94l11.5 10.7 9.8 10.3 4.4 12.1 3.2 12 6-1 1.7-2.9L80 132l1.8-6 6-.6.8-4.5 3.8-3.2-1.9-3.2-10.8-6.4-9.3-5.2-18.6-26.1z"/></defs><clipPath id="SVGID_8_"><use xlink:href="#SVGID_7_" overflow="visible"/></clipPath><path clip-path="url(#SVGID_8_)" fill="#f2583d" d="M48.3 83.1l-13 12.2 1.2 2.2 10.4-10.4 3.4-1.6 10.8 13.6 4.8 7.4 13.9 10.7 9.1 8.7 7.1-3.2.7-16.9L76.5 97 60 76.2z"/></g></g><path fill="#e45425" d="M15.3 136.5l-6.5-5-.5-9.7 2.6-27.6 16.4-24L48 56.9l23.4-3.7 13.7.2 12.6 5.1.5 11.9L87 69.1l-24.3 7.2-16.5 9.9-17.6 18.5-7.9 17.8z"/><g><path class="st7" d="M29.6 68.8l-3.2 1.3-.6 3.2 1.9.9 2.7-2.9zM70.3 55.7l-3.4-2 4.1-1.2 3.3 1.9zM50.4 68.1l-.7-2.5 2.1-.9 2 1.5-1.2 2.3zM13.3 94.6l-2.3-.8-.8 3.3 2.5 1.8 1.9-1.6zM86.2 55.3l-.7-1.9 1.8-.1 1.3 1.3zM75.8 64.1l1.3 2.2 1.8-.5-1-1.3zM30.7 92.5l.2 3.2 3.7.2v-3.2zM8.3 121l-1.1 2.4 2 2.1.5-2.2zM18.9 105.8l.9 1.9 1.9-.5.1-2-1.5-1.1zM46.8 79.5l.4 3.1 2.7-.4 1.1-2.6-2.5-.6zM35.6 77.4l.2 2 2.6-.3-1.3-1.5zM21.5 117.3l-1.1 4.3 2.6-.7.6-2.2zM98.8 62.9l-1.6-1-1 1.3 1.5 2.3 1.1.1zM13.5 130.7l1.5 1.9.7-.6-.1-1.9z"/></g><g><path fill="#ffe8a3" d="M61.8 52.7l14 11.8 24.5 12.2 32 12.6 22 7.7 27.4 4.3 4.6.5L189 90l-23.7-26.6-30.1-20-31.5-2.9-34.8 3z"/><defs><path id="SVGID_9_" d="M101.7 108.7L92 130l-10.3 26-5.4 5.7-8.6 17.7.1 3.9 4.5 3.3 5.3-.5 5.2 3.8 4.3-.3 7.1 4.8 3.6-.1 5.1-.8 6.5-19.4-1.6-8 9.9-28 8.8-22.2z"/></defs><clipPath id="SVGID_10_"><use xlink:href="#SVGID_9_" overflow="visible"/></clipPath><path clip-path="url(#SVGID_10_)" fill="#ffe8a3" d="M101.7 108.7L92 130l-10.3 26-5.4 5.7-8.6 17.7.1 3.9 4.5 3.3 5.3-.5 5.2 3.8 4.3-.3 7.1 4.8 3.6-.1 5.1-.8 6.5-19.4-1.6-8 9.9-28 8.8-22.2z"/><defs><path id="SVGID_11_" d="M101.7 108.7L92 130l-10.3 26-5.4 5.7-8.6 17.7.1 3.9 4.5 3.3 5.3-.5 5.2 3.8 4.3-.3 7.1 4.8 3.6-.1 5.1-.8 6.5-19.4-1.6-8 9.9-28 8.8-22.2z"/></defs><clipPath id="SVGID_12_"><use xlink:href="#SVGID_11_" overflow="visible"/></clipPath><path clip-path="url(#SVGID_12_)" fill="#ffd397" d="M106.7 121.5l7.2-.3 4.6 5.7-15.5 39.6 1 6.4-2.3 12-2.8 7.3-5.7 2.7 11.2 4.4 11.9-23.8 1.3-27.8 9.5-23.9-2.5-8.6-24.8-2.9-2.3 1.6z"/><path class="st11" d="M124.8 49.1l-1.5-1-53.1 9.2 53.4-7.1zM125 57.5l-1.8-.1-17.8 20 19-18.3zM122.4 54l-1.8-.6-25.5 18.4 26.3-16.4zM123.6 51.4l-1.5-1-39.7 16.7 39.9-14.6zM145.8 55.4l1.8.4 32.5 42.9L146 57.1zM139.9 61.5l1.5 1.1-.8 26.8-1.3-26.3zM144.3 60.7l1.7.8 6 30.9-8-30zM145.1 58l1.8.3 17.7 39.3-19.3-37.9z"/><g><defs><path id="SVGID_13_" d="M120.4 47.1l-4.5 19.3-5.1 17.2L100.3 96l-11.2 11 4.9 6h4.3l9 7.6 7.7-1.8 4.5 6.1 5.4-1.9 5.8 2.2 2.4-4.1.1-15.9-.1-13.3L150 55z"/></defs><clipPath id="SVGID_14_"><use xlink:href="#SVGID_13_" overflow="visible"/></clipPath><path clip-path="url(#SVGID_14_)" fill="#ff8058" d="M120.4 47.1l-4.5 19.3-5.1 17.2L100.3 96l-11.2 11 4.9 6h4.3l9 7.6 7.7-1.8 4.5 6.1 5.4-1.9 5.8 2.2 2.4-4.1.1-15.9-.1-13.3L150 55z"/><g><defs><path id="SVGID_15_" d="M120.4 47.1l-4.5 19.3-5.1 17.2L100.3 96l-11.2 11 4.9 6h4.3l9 7.6 7.7-1.8 4.5 6.1 5.4-1.9 5.8 2.2 2.4-4.1.1-15.9-.1-13.3L150 55z"/></defs><clipPath id="SVGID_16_"><use xlink:href="#SVGID_15_" overflow="visible"/></clipPath><path clip-path="url(#SVGID_16_)" fill="#ff6f4d" d="M140.9 55.2l-21.6-6.6-1.6 2.8 18 4.8 3.8 2.6-8.1 20.4-5 9.9-3 22-3.8 15.4 8 5.8 18.9-9.9-3-27.6 12.3-31.2z"/></g></g><path fill="#f5662d" d="M61.8 52.7l1.3-10.3 10.3-6.7 31.8-14.5 36.7 2.8 27.5 14.3 18.8 23.3 8.3 15.2 2.4 16.9-12.6 8.1-5.7-13.1-23.2-22.1-21.2-11.8-31.4-7.6-24.3 2.5z"/><g><path class="st15" d="M144.8 25.7l-3.5-2.7-3.9 1.4.3 2.6 4.8 1.1zM184.7 62l.1-4.9 3.9 3.7-.1 4.8zM158.7 48l2.2-2.3 2.4 1.8-.4 3-3.3.2zM106.3 24.1l-.6-3.1-4.1 1.3-.4 3.8 3 1.1zM195.1 79.2l1.8-2 1.1 1.9-.6 2.3zM179.1 73.3l-1.7 2.8 1.7 1.7.7-1.9zM119.6 41.7l-3.4 2.3 2.2 4.2 3.4-2zM74.3 35.2l-3.3.3-1 3.6 2.6-1zM97.6 37.3L96 39.4l1.8 1.8 2.2-1.1.3-2.4zM143.9 51.3l-3.1 2.3 2.1 2.7 3.5-.4-.8-3.1zM139.2 37.7l-2.1 1.5 1.9 2.6.9-2.3zM86.7 47.4l-5.5 1.4 2.5 2.4 2.7-.7zM194.8 97.7l.1-2.4-2.2-.2-1.5 3 .6 1.4zM66.9 47l-1.1 2.8 1.1.4 2-1.3z"/></g></g><g><path fill="#ffc495" d="M153.2 116.7l4.3 8.8 9.4 11.2 12.9 12.9 9.2 8.5 12.4 7.9 2.1 1.2 3.9-5.2-5.9-18-10.5-16.2-14.8-8.1-17.6-6z"/><defs><path id="SVGID_17_" d="M160.7 152.6l-9.2 8.3-10.6 10.6-3.9 1.6-7.9 6.8-.8 1.9 1.5 2.6 2.7.9 1.7 3 2.2.7 2.4 3.9 1.8.7 2.7.7 7.3-8.1.9-4.3 10.8-11.5 9-9z"/></defs><clipPath id="SVGID_18_"><use xlink:href="#SVGID_17_" overflow="visible"/></clipPath><path clip-path="url(#SVGID_18_)" fill="#ffc495" d="M160.7 152.6l-9.2 8.3-10.6 10.6-3.9 1.6-7.9 6.8-.8 1.9 1.5 2.6 2.7.9 1.7 3 2.2.7 2.4 3.9 1.8.7 2.7.7 7.3-8.1.9-4.3 10.8-11.5 9-9z"/><defs><path id="SVGID_19_" d="M160.7 152.6l-9.2 8.3-10.6 10.6-3.9 1.6-7.9 6.8-.8 1.9 1.5 2.6 2.7.9 1.7 3 2.2.7 2.4 3.9 1.8.7 2.7.7 7.3-8.1.9-4.3 10.8-11.5 9-9z"/></defs><clipPath id="SVGID_20_"><use xlink:href="#SVGID_19_" overflow="visible"/></clipPath><path clip-path="url(#SVGID_20_)" fill="#ffb08d" d="M160.5 159.9l3.6 1.4 1 3.8-16 16-.9 3.4-3.6 5.3-3 3-3.4.1 4.6 4.5 10.8-9 6.6-13.3 9.7-9.7.6-4.8-11.5-6.7-1.4.3z"/><path class="st19" d="M184.7 128.4l-.5-.9-27.9-6.7 27.6 7.8zM183 132.5l-.8-.4-13 6 13.2-4.9zM182.5 130.2l-.8-.6-16.3 3.6 16.3-2.5zM183.6 129.3l-.5-.9-22.9-.3 22.6 1.4zM193.6 135.9l.9.6 6.7 27.9-7.8-27.6zM189.5 137.6l.4.9-6 12.9 4.9-13.1zM191.8 138.2l.6.7-3.6 16.4 2.5-16.3zM192.7 137.1l.9.5.2 22.9-1.3-22.6z"/><g><defs><path id="SVGID_21_" d="M183 126.4l-6.3 8.5-6.2 7.3-7.7 3.9-7.8 3 1.1 4 2.1.9 2.8 5.6 4.1.8.9 3.9 3 .2 2.4 2.3 2-1.5 3.5-7.7 2.8-6.6 16.1-14.4z"/></defs><clipPath id="SVGID_22_"><use xlink:href="#SVGID_21_" overflow="visible"/></clipPath><path clip-path="url(#SVGID_22_)" fill="#ff6f54" d="M183 126.4l-6.3 8.5-6.2 7.3-7.7 3.9-7.8 3 1.1 4 2.1.9 2.8 5.6 4.1.8.9 3.9 3 .2 2.4 2.3 2-1.5 3.5-7.7 2.8-6.6 16.1-14.4z"/><g><defs><path id="SVGID_23_" d="M183 126.4l-6.3 8.5-6.2 7.3-7.7 3.9-7.8 3 1.1 4 2.1.9 2.8 5.6 4.1.8.9 3.9 3 .2 2.4 2.3 2-1.5 3.5-7.7 2.8-6.6 16.1-14.4z"/></defs><clipPath id="SVGID_24_"><use xlink:href="#SVGID_23_" overflow="visible"/></clipPath><path clip-path="url(#SVGID_24_)" fill="#fd634b" d="M191.3 134.8l-9.2-7.8-1.3 1 7.7 6.2 1.3 2-8.2 8.3-4.6 3.8-6.2 10-5.1 6.8 2.7 4.5 11.3-.8 4.4-14.1 12.7-12.6z"/></g></g><path fill="#e25228" d="M153.2 116.7l2.8-4.7 6.5-1.1 18.6-.3 17.3 9.1 10.4 12.9L213 148l.9 9.2-2.5 8.7-7.9 1.3v-7.6l-6.6-15.7-7.8-10.3-13.7-10.4-12.5-4z"/><g><path class="st23" d="M199.4 121.2l-1-2.1-2.3-.1-.4 1.3 2.1 1.6zM211.2 147.4l1.1-2.4 1.2 2.7-1.1 2.3zM201.5 135l1.6-.6.8 1.4-.9 1.4-1.6-.6zM181 112.2l.4-1.6-2.3-.3-1 1.8 1.2 1.2zM212.7 158.1l1.3-.6.1 1.1-.8 1zM206.1 151.7l-1.4 1 .4 1.2.8-.7zM183.7 123.7l-2.1.4.2 2.5 2.1-.3zM163 110.8l-1.7-.5-1.2 1.5 1.4.1zM173.9 116.8l-1.2.7.5 1.3 1.3-.1.6-1.1zM193.6 133.5l-2 .5.4 1.8 1.8.5.3-1.7zM194.2 125.8l-1.4.3.4 1.7 1-.9zM166.4 119.4l-2.9-.4.6 1.7 1.5.2zM208.6 167l.5-1.1-1-.6-1.4 1.2v.7zM156.9 115l-1.2 1.2.5.4 1.2-.2z"/></g></g></svg>