<svg id="Layer_1" xmlns="http://www.w3.org/2000/svg" viewBox="0 0 220 240"><style>.st0{fill:#ffb0a2}.st1{fill:#ffccc3}.st2{fill:#ffe6d5}.st3{fill:#ffc8b7}.st4{fill:#a14a53}.st5{fill:#bb586a}</style><path class="st0" d="M82.8 125.8l-5.5 20.1 5.8 41 16.2 16 18.7-1.7 17.1-14.3 4.6-23.8 6.6-11 .6-22.5 8-20.8 3.8-12.5-63.6-9.8L79.7 93l4 22.6z"/><path class="st1" d="M25.8 84.4l4.8-1-1.4 3.6L42 89.4l17.6-2.1 2.6 2.1L109 80l35.1-21.9 8.1-8.5s-26.4-15.7-31.4-17.2-66.6.5-66.6.5S36 45.8 32.9 47.1 17 55.5 17 55.5l-1 13 3.9 5.3 5.9 10.6z"/><path class="st1" d="M52 78.5l14.6 12.1 7.2 19.8 8.2 19 18.2 11.3.8-23.4-11-19.8 3.8-11 15.2-9.8"/><path class="st0" d="M35.2 62.1l1.4 6.8 10.1 5.7 9.4 2.5 11 4.6 4.7 7.6 3 7.8-1.9-9.3-5-8.3-11-5.1-6.9-1-9.2-5.3-3.2-4.6-2.1-7.6zM82.5 47.9l2.9 4.8-.1 4.5s-2.6 5.4-2.9 5.8c-.3.5-4.4 8.8-4.4 8.8l-1.7 11.6 2.3 11.2 5.9 18.7-3.2-5.3-3.8-14-3.2-12.7L77 69.8l4.4-7.8 2.7-6.2-1-4.1-4.4-6.7 3.8 2.9zM57.6 51.4l-.8 10.4 4 5.5 6.5 5.6 3.9 6.3-2.4-5.5-.8-2.9-5.4-3.8-3.7-4.4s-1.2-2.4-.7-3.4.4-6.4.4-6.4l-1-1.4z"/><path class="st2" d="M159.6 148.4l-6.1 13.9-10.1 7.7-11.4 3.8 3.7-8.2 1.6-8.5 8.5-6.6 10.5-7.8M80.4 95.3l4.9.2-2.3 3.1 11.8 5.6 17.6 2.6 2 2.6 47.6 3 35.7-16.1 13.9-9.6s-4.9-14.4-9.3-17.2c-4.4-2.8-81-16.7-81-16.7s-20.9 7.7-24.2 8.2c-3.3.5-17.6 4-17.6 4l-4.4 12.3 2.4 6.1 2.9 11.9z"/><path class="st2" d="M107.2 96.3l11 15.5 1.9 20.9 3 20.5 14.3.1 7.2-6.8-5.6-22 6.6-9.7 17.2-5.5"/><path class="st3" d="M106.1 124.8l1.1 6-2.3 15.5-2.1 11.6 2.9 5.4 10.5-10.7 3.7-12 4-13.3 4.4-4.3-5.8-7.4-13.5.7zM60.8 115.6l.8 1.4 2.5 2.6 4.3 8.8 6.7 16.3 1 20.7 5.8 12.9 3.3-9.6s-1-11.8-1.5-12.6-5.2-15.3-5.2-15.3l-2.7-11.4-2.8-10.7 2.1-1.4 1.2-4.9-6.7-6.6-6.5 2.6-2.3 7.2z"/><path class="st2" d="M94.9 140.3l.9 6.5 1.2 16.4s5 12.4 5.5 12.6c.5.2 6.4 8.3 6.4 8.3l3.5-5.6-2.3-8.1-3.5-12.8-.4-14.5 2.7-6.7-3.2-3.2-5.7-.9-5.1 8z"/><path class="st3" d="M119 151.4l-1.2 10.3-5.1 10.3-8.2 8.7-1.7 6.2 7.8-2.4 6.2-6.4 5.7-5.4 6.1-10.8 2.8-9.4-5.3-4.5z"/><path class="st1" d="M94.9 77.4v7l8.8 7.6 8.8 4.3 9.8 6.8 3.1 8.2 1.4 8.3v-9.5l-3.3-9-9.7-7.2-6.6-2.4-8-7.1-2.2-5.1-.5-7.9zM179.9 81l-.9 4.5-4 4.6-6.7 2.8-10.7 4.3-8.9 4.1-10.7 8.1-3 8.6v-6.7l3.9-6.9 4.4-4.3 10.9-4.6 7.2-2.3 8.4-3.8 4.7-2.1 2.9-2.9z"/><path class="st1" d="M144.2 73l1.9 5.3-1 4.4s-3.7 4.8-4 5.1c-.4.4-6.1 7.7-6.1 7.7l-3.9 11V118l2.1 19.5-2.1-5.8-.9-14.5-.6-13.1 4.9-10.8 5.9-6.8 3.9-5.5-.1-4.2-3-7.4 3 3.6zM119 71.4l-2.8 10.1 2.8 6.2 5.3 6.8 2.5 6.9-1.2-5.9-.3-3-4.5-4.9-2.8-5s-.7-2.6 0-3.5 1.6-6.2 1.6-6.2l-.6-1.5z"/><path class="st4" d="M151.4 50.7l3.3-4.8-5.3-7.8-26.3-11.7-28.9-3.1-34.1 3.5-21.2 5.3-15.8 11.3-8.9 13.5-1.5 11.7 7.6 9.7 5.5 6.1-1.1-3.4-3.4-7.2-1.7-7 3.8-9 13.5-8.6 29-6.1 24.9-3.7 26.4 1.5 15.5 3.7 12.8 1.8 3.4 2.3z"/><path class="st5" d="M75.1 77.6v-7.5l3.7-6.9 26.1-12.3 28.7-3.8 34.3 2.8 21.2 4.8 16.1 10.9 9.2 13.4-1.7 8.9-10.6 7.2-10.1 3.8 2.2-2.8 5.9-6.5 5.8-3.4-.7-6.2-13.7-8.2-29.1-5.5-25-3.1-26.4 2.1-13.3 1.9-14.8 4.2-3.4 2.4z"/><path fill="#b24f5b" d="M132 146.4l18.1-9.8h14.1l10.8 9.8 2.3 7.3-8.4 2-6.7-2.8-.5-3.8-4.6 2.6-7.5-1.6-5.1-4-5.7 1.7z"/><path class="st4" d="M102.8 121.4l8-10 8.7-1.3 10 7.2v8.5l-6.7-4.5-4-3.3-4.2 2.4-5.6 2.3-1.8 3.1h-4.4zM62 119.6l-2.1-7.1L62 106l9.1-2.9 4 2.9 4.1 5.3-4.1 6v-4.8l-3.4-3.9-5.9 1.5-2.5 1.2z"/><path fill="#b84445" d="M115.1 151.3l6.1-4.9h6.4l5.6 4.9v5.6l-4.3 3.9 1.5-3.9-2.3-4.6-4.1-1.5-5.4 2.8-3.5 3.3z"/><path class="st5" d="M94.2 142.3l-1-6.7 4.5-4.8h3.9l6.7 2.6 1.7 5.6-2.8-3.4-5.2-1-3.6 1-3 4.3z"/></svg>