<?xml version="1.0" encoding="utf-8"?>
<!-- Generator: Adobe Illustrator 22.1.0, SVG Export Plug-In . SVG Version: 6.00 Build 0)  -->
<svg version="1.0" id="Layer_1" xmlns="http://www.w3.org/2000/svg" xmlns:xlink="http://www.w3.org/1999/xlink" x="0px" y="0px"
	 viewBox="0 0 220 220" style="enable-background:new 0 0 220 220;" xml:space="preserve">
<style type="text/css">
	.st0{fill:none;}
	.st1{fill:#FFCF91;}
	.st2{fill:#FFB380;}
	.st3{fill:#FF704D;}
	.st4{fill:#F2583D;}
	.st5{fill:#E45425;}
	.st6{fill:#F0A12F;}
	.st7{fill:#FFE8A3;}
	.st8{fill:#FFD397;}
	.st9{fill:#FF8058;}
	.st10{fill:#FF6F4D;}
	.st11{fill:#F5662D;}
	.st12{fill:#FFC138;}
	.st13{fill:#FFC495;}
	.st14{fill:#FFB08D;}
	.st15{fill:#FF6F54;}
	.st16{fill:#FD634B;}
	.st17{fill:#E25228;}
	.st18{fill:#F29639;}
</style>
<g>
	<polygon class="st0" points="98.3,113 94,113 89.1,107 100.3,96 110.8,83.6 111.5,81.1 100.3,76.7 95.4,74.2 82.4,90.4 69.5,101.6 
		70.4,102.9 79.7,108.1 90.5,114.5 92.4,117.7 88.6,120.9 88.4,122.1 93,127.9 98.8,115 99.3,113.9 	"/>
	<polygon class="st1" points="93.7,73.4 85.8,69.5 62.7,76.3 60.6,77.5 	"/>
	<polygon class="st1" points="86.8,83.6 55.5,82 55.9,82.5 78.2,90.2 57.3,84.6 61.7,90.6 71.7,96.8 62.8,92.3 69.5,101.6 
		82.4,90.4 95.4,74.2 93.7,73.4 57.5,79.4 55.7,80.5 	"/>
	<polygon class="st1" points="49.6,116.2 45.5,104.2 40.8,99.8 41.7,121.1 39.3,98.4 38.7,97.8 33.4,128 37.3,96.5 36.8,96.1 
		36.7,96.2 21.9,132.5 34.1,98.9 28.6,104.7 22.7,118.1 23.6,118.7 23,120.9 21.2,121.4 20.7,122.5 15.3,136.5 29,131.5 47.1,119.5 
		54.5,113.6 46.9,105.6 	"/>
	<polygon class="st1" points="125.8,166 121.9,161.2 114.6,154.9 112.1,154 107.8,166.1 109.4,174.1 106.3,183.3 107.5,183.9 
		111.5,182.1 113.2,178.3 117.9,176.2 119.4,173.1 125.5,170.2 	"/>
	<polygon class="st1" points="88.8,126.8 83,127.7 80.4,132.8 72.8,135.6 80.4,146.3 83.8,150.6 91.8,130.5 	"/>
	<polygon class="st2" points="83,127.7 88.8,126.8 91.8,130.5 92,130 93,127.9 88.4,122.1 87.9,124.9 87.8,125.4 81.8,126 80,132 
		72.2,134.8 72.8,135.6 80.4,132.8 	"/>
	<polygon class="st2" points="114.6,154.9 121.9,161.2 125.8,166 125.5,170.2 125.5,170.2 126.9,167.6 128.3,163.8 117.5,151.7 
		113.4,150.3 112.1,154 	"/>
	<polygon class="st2" points="34.1,98.9 21.9,132.5 36.7,96.2 	"/>
	<polygon class="st2" points="46.9,105.6 46.1,104.7 45.5,104.2 49.6,116.2 	"/>
	<polygon class="st2" points="40.8,99.8 39.3,98.4 41.7,121.1 	"/>
	<polygon class="st2" points="33.4,128 38.7,97.8 37.4,96.6 37.3,96.5 	"/>
	<polygon class="st2" points="93.7,73.4 93.7,73.4 60.6,77.5 57.5,79.4 	"/>
	<polygon class="st2" points="61.7,90.6 62.8,92.3 71.7,96.8 	"/>
	<polygon class="st2" points="78.2,90.2 55.9,82.5 57.3,84.6 	"/>
	<polygon class="st2" points="86.8,83.6 55.7,80.5 54.8,81 55.5,82 	"/>
	<polygon class="st3" points="81.8,126 87.8,125.4 87.9,124.9 79.8,117.2 65.9,106.5 61.1,99.1 50.3,85.5 46.9,87.1 37.4,96.6 
		38.7,97.8 39.3,98.4 40.8,99.8 45.5,104.2 46.1,104.7 46.9,105.6 54.5,113.6 55.9,115 60.3,127.1 63.5,139.1 69.5,138.1 
		71.2,135.2 72.2,134.8 80,132 	"/>
	<polygon class="st4" points="92.4,117.7 90.5,114.5 79.7,108.1 70.4,102.9 69.5,101.6 62.8,92.3 61.7,90.6 57.3,84.6 55.9,82.5 
		55.5,82 54.8,81 46.2,86.2 36.8,96.1 37.3,96.5 37.4,96.6 46.9,87.1 50.3,85.5 61.1,99.1 65.9,106.5 79.8,117.2 87.9,124.9 
		88.4,122.1 88.6,120.9 	"/>
	<polygon class="st5" points="10.9,94.2 10.9,94.2 10.9,94.2 	"/>
	<path class="st5" d="M21.2,121.4l-0.8,0.2l1.1-4.3l1.2,0.8l5.9-13.4l5.5-5.8l2.6-2.7l0.1-0.1l9.4-9.9l8.6-5.2l0.9-0.5l1.8-1.1
		l3.1-1.9l2.1-1.2l23.1-6.8l-7.2-3.6l-1.5,0.4l-1-1.6l-0.3-0.2l-12-10.1L48,56.9l-18.7,12l0.3-0.1l0.8,2.5l-2.7,2.9l-1.9-0.9
		l0.2-1.2L11.1,93.8l2.2,0.8l1.3,2.7l-1.9,1.6l-2.1-1.5l-2.2,23.7l1.3,2.2l-0.5,2.2l-0.7-0.8l0.3,6.8l6.5,5l5.4-14L21.2,121.4z
		 M47.2,82.6l-0.4-3.1l1.7-0.5l2.5,0.6l-1.1,2.6L47.2,82.6z M51.8,64.7l2,1.5l-1.2,2.3l-2.2-0.4l-0.7-2.5L51.8,64.7z M37.1,77.6
		l1.3,1.5l-2.6,0.3l-0.2-2L37.1,77.6z M34.6,92.7v3.2l-3.7-0.2l-0.2-3.2L34.6,92.7z M20.3,104.1l1.5,1.1l-0.1,2l-1.9,0.5l-0.9-1.9
		L20.3,104.1z M15,132.6l-1.5-1.9l2.1-0.6l0.1,1.9L15,132.6z"/>
	<polygon class="st6" points="27.7,74.2 30.4,71.3 29.6,68.8 29.3,68.9 26.4,70.1 26,72.1 25.8,73.3 	"/>
	<polygon class="st6" points="52.6,68.5 53.8,66.2 51.8,64.7 49.7,65.6 50.4,68.1 	"/>
	<polygon class="st6" points="14.6,97.3 13.3,94.6 11.1,93.8 11,93.8 10.9,94.2 10.9,94.2 10.2,97.1 10.6,97.4 12.7,98.9 	"/>
	<polygon class="st6" points="77.1,66.3 78.6,65.9 76.1,64.7 	"/>
	<polygon class="st6" points="30.9,95.7 34.6,95.9 34.6,92.7 30.7,92.5 	"/>
	<polygon class="st6" points="9.7,123.3 8.4,121.1 8.3,121 7.2,123.4 8.5,124.7 9.2,125.5 	"/>
	<polygon class="st6" points="21.7,107.2 21.8,105.2 20.3,104.1 18.9,105.8 19.8,107.7 	"/>
	<polygon class="st6" points="51,79.6 48.5,79 46.8,79.5 47.2,82.6 49.9,82.2 	"/>
	<polygon class="st6" points="38.4,79.1 37.1,77.6 35.6,77.4 35.8,79.4 	"/>
	<polygon class="st6" points="20.4,121.6 21.2,121.4 23,120.9 23.6,118.7 22.7,118.1 21.5,117.3 	"/>
	<polygon class="st6" points="13.5,130.7 15,132.6 15.7,132 15.6,130.1 	"/>
	<polygon class="st7" points="157.4,66.6 154.6,65 180.1,98.7 150.8,62.9 148.4,61.6 164.6,97.6 146.6,62.3 146.3,63.1 152,92.4 
		145,66 141,74.6 140.6,89.4 140,76.9 134,89.9 154.3,97 181.7,101.3 186.3,101.8 180.6,88.7 	"/>
	<polygon class="st7" points="76.1,64.7 78.6,65.9 85.8,69.5 93.7,73.4 93.7,73.4 95.4,74.2 100.3,76.7 111.5,81.1 115.5,67.6 
		105.4,77.4 116.2,65.3 118,57.5 95.1,71.8 118.6,54.8 118.8,53.8 82.4,67.1 119.4,51.6 119.5,50.8 119.5,50.7 70.2,57.3 
		114.7,49.6 104.8,47.2 86.5,49.1 86.4,50.5 83.7,51.2 82,49.5 80.5,49.7 61.8,52.7 63.8,54.4 75.8,64.5 	"/>
	<polygon class="st7" points="101.7,184.9 104,172.9 103,166.5 118.5,126.9 113.9,121.2 106.7,121.5 98.8,115 93,127.9 92,130 
		91.8,130.5 83.8,150.6 81.7,156 76.3,161.7 67.7,179.4 67.8,183.3 72.3,186.6 77.6,186.1 82.8,189.9 87.1,189.6 94.2,194.4 
		94.3,194.4 98.9,192.2 	"/>
	<polygon class="st8" points="107.8,166.1 112.1,154 113.4,150.3 117.7,138.1 123.5,123.5 120,124.7 119.5,124.9 115,118.8 
		107.3,120.6 99.3,113.9 98.8,115 106.7,121.5 113.9,121.2 118.5,126.9 103,166.5 104,172.9 101.7,184.9 98.9,192.2 94.3,194.4 
		97.8,194.3 102.9,193.5 106.3,183.3 109.4,174.1 	"/>
	<polygon class="st8" points="114.7,49.6 70.2,57.3 119.5,50.7 	"/>
	<polygon class="st8" points="116.2,65.3 105.4,77.4 115.5,67.6 115.9,66.4 	"/>
	<polygon class="st8" points="95.1,71.8 118,57.5 118.6,54.8 	"/>
	<polygon class="st8" points="119.4,51.6 82.4,67.1 118.8,53.8 119.3,51.8 	"/>
	<polygon class="st8" points="180.1,98.7 154.6,65 150.8,62.9 	"/>
	<polygon class="st8" points="140.6,89.4 141,74.6 140,76.9 	"/>
	<polygon class="st8" points="152,92.4 146.3,63.1 145,66 	"/>
	<polygon class="st8" points="164.6,97.6 148.4,61.6 147.3,61 146.6,62.3 	"/>
	<polygon class="st9" points="123.4,111.1 126.4,89.1 131.4,79.2 139.5,58.8 135.7,56.2 119.3,51.8 118.8,53.8 118.6,54.8 118,57.5 
		116.2,65.3 115.9,66.4 115.5,67.6 111.5,81.1 110.8,83.6 100.3,96 89.1,107 94,113 98.3,113 99.3,113.9 107.3,120.6 115,118.8 
		119.5,124.9 120,124.7 	"/>
	<polygon class="st10" points="141,74.6 145,66 146.3,63.1 146.6,62.3 147.3,61 136.2,54.8 119.5,50.8 119.4,51.6 119.3,51.8 
		135.7,56.2 139.5,58.8 131.4,79.2 126.4,89.1 123.4,111.1 120,124.7 123.5,123.5 124.9,123 130.7,125.2 133.1,121.1 133.2,105.2 
		133.1,91.9 134,89.9 140,76.9 	"/>
	<path class="st11" d="M82,49.5l-0.8-0.7l5.5-1.4l-0.2,1.7l18.3-1.9l9.9,2.4l4.8,1.2l0.1,0l16.7,4l11.1,6.2l1.1,0.6l2.4,1.3l3.8,2.1
		l2.8,1.6l23.2,22.1l5.7,13.1l5.1-3.3l-0.2-0.4l1.5-3l2.2,0.2l0,1l4-2.6l-1.8-12.6l-2-1.9l1.5-1.7l-0.1-0.7l-7.8-14.3l-0.1,3.1
		l-3.9-3.6l0.1-4.6l-15.4-19.1L144,25.1l0.8,0.6l-2.3,2.4l-4.8-1.1l-0.3-2.6l1.7-0.6l-33.4-2.5l0.6,2.9l-2.1,3.1l-3-1.1l0.3-3.2
		L74.2,35.3l-1.6,2.8l-2.6,1l0.4-1.5l-7.3,4.8l-1.3,10.3l18.7-3L82,49.5z M145.6,52.8l0.8,3.1l-3.5,0.4l-2.1-2.7l3.1-2.3L145.6,52.8
		z M179.1,73.3l0.7,2.6l-0.7,1.9l-1.7-1.7L179.1,73.3z M160.9,45.7l2.4,1.8l-0.4,3l-3.3,0.2l-0.9-2.7L160.9,45.7z M139.2,37.7
		l0.7,1.8l-0.9,2.3l-1.9-2.6L139.2,37.7z M121.8,46.2l-3.4,2l-2.2-4.2l3.4-2.3L121.8,46.2z M97.6,37.3l2.7,0.4l-0.3,2.4l-2.2,1.1
		L96,39.4L97.6,37.3z M66.9,50.2l-1.1-0.4l1.1-2.8l2,1.9L66.9,50.2z"/>
	<polygon class="st12" points="137.7,27 142.5,28.1 144.8,25.7 144,25.1 141.3,23 139.1,23.8 137.4,24.4 	"/>
	<polygon class="st12" points="188.6,65.6 188.7,62.5 188.7,60.8 184.8,57.1 184.8,57.4 184.7,62 	"/>
	<polygon class="st12" points="162.9,50.5 163.3,47.5 160.9,45.7 158.7,48 159.6,50.7 	"/>
	<polygon class="st12" points="104.2,27.2 106.3,24.1 105.7,21.2 105.7,21 101.6,22.3 101.5,22.9 101.2,26.1 	"/>
	<polygon class="st12" points="197.1,81.1 197.4,81.4 198,79.1 196.9,77.2 196.6,77.5 195.1,79.2 	"/>
	<polygon class="st12" points="179.8,75.9 179.1,73.3 177.4,76.1 179.1,77.8 	"/>
	<polygon class="st12" points="116.2,44 118.4,48.2 121.8,46.2 119.6,41.7 	"/>
	<polygon class="st12" points="72.6,38.1 74.2,35.3 74.3,35.2 71,35.5 70.4,37.6 70,39.1 	"/>
	<polygon class="st12" points="97.8,41.2 100,40.1 100.3,37.7 97.6,37.3 96,39.4 	"/>
	<polygon class="st12" points="140.8,53.6 142.9,56.3 146.4,55.9 145.6,52.8 143.9,51.3 	"/>
	<polygon class="st12" points="139.9,39.5 139.2,37.7 137.1,39.2 139,41.8 	"/>
	<polygon class="st12" points="81.2,48.8 82,49.5 83.7,51.2 86.4,50.5 86.5,49.1 86.7,47.4 	"/>
	<polygon class="st12" points="192.7,95.1 191.2,98.1 191.4,98.5 191.8,99.5 194.8,97.7 194.9,96.3 194.9,95.3 	"/>
	<polygon class="st12" points="65.8,49.8 66.9,50.2 68.9,48.9 66.9,47 	"/>
	<polygon class="st13" points="196.9,143.9 196,142.7 201.2,164.4 194.5,140.8 193.6,139.6 193.8,160.5 192.6,139.5 192.2,139.8 
		188.8,155.3 191,140.9 187.2,144.3 183.9,151.4 186.2,145.2 180.5,150.3 189,158.1 201.4,166 203.5,167.2 203.5,159.6 	"/>
	<polygon class="st13" points="169.2,138.1 177,134.5 179.6,131 165.4,133.2 180.4,129.9 180.8,129.4 160.2,128.1 181.5,128.4 
		181.8,128 181.7,128 156.3,120.8 179.6,126.4 175.4,123.2 166,120.2 165.6,120.9 164.1,120.7 163.7,119.4 162.9,119.2 153.2,116.7 
		157.5,125.5 166.9,136.7 171.4,141.2 176.2,135.5 	"/>
	<polygon class="st13" points="144.6,189.8 148.2,184.5 149.1,181.1 165.1,165.1 164.1,161.3 160.5,159.9 158,155 151.5,160.9 
		140.9,171.5 137,173.1 129.1,179.9 128.3,181.8 129.8,184.4 132.5,185.3 134.2,188.3 136.4,189 138.8,192.9 141.6,192.8 	"/>
	<polygon class="st14" points="166,164.3 165.1,160.4 161,159.6 158.5,154.6 158,155 160.5,159.9 164.1,161.3 165.1,165.1 
		149.1,181.1 148.2,184.5 144.6,189.8 141.6,192.8 138.8,192.9 138.8,192.9 140.6,193.6 143.3,194.3 150.6,186.2 151.5,181.9 
		162.3,170.4 168.2,164.5 166.3,164.3 	"/>
	<polygon class="st14" points="181.7,128 179.6,126.4 156.3,120.8 	"/>
	<polygon class="st14" points="176.2,135.5 176.7,134.9 177,134.5 169.2,138.1 	"/>
	<polygon class="st14" points="179.6,131 180.4,129.9 165.4,133.2 	"/>
	<polygon class="st14" points="160.2,128.1 180.8,129.4 181.4,128.5 181.5,128.4 	"/>
	<polygon class="st14" points="201.2,164.4 196,142.7 194.5,140.8 	"/>
	<polygon class="st14" points="183.9,151.4 187.2,144.3 186.2,145.2 	"/>
	<polygon class="st14" points="188.8,155.3 192.2,139.8 191,140.9 	"/>
	<polygon class="st14" points="193.8,160.5 193.6,139.6 193.2,139 192.6,139.5 	"/>
	<polygon class="st15" points="165.1,160.4 166,164.3 166.3,164.3 170.8,158.3 177,148.3 181.6,144.5 189.8,136.2 188.5,134.2 
		181.4,128.5 180.8,129.4 180.4,129.9 179.6,131 177,134.5 176.7,134.9 176.2,135.5 171.4,141.2 170.5,142.2 162.8,146.1 155,149.1 
		156.1,153.1 158.2,154 158.5,154.6 161,159.6 	"/>
	<polygon class="st16" points="187.2,144.3 191,140.9 192.2,139.8 192.6,139.5 193.2,139 189.1,133.6 181.8,128 181.5,128.4 
		181.4,128.5 188.5,134.2 189.8,136.2 181.6,144.5 177,148.3 170.8,158.3 166.3,164.3 168.2,164.5 169,164.5 171.4,166.8 
		173.4,165.3 176.9,157.6 179.7,151 180.5,150.3 186.2,145.2 	"/>
	<path class="st17" d="M213.8,157.6l0.1-0.4l-0.8-8.6l-0.7,1.4l-1.2-2.6l1-2.2l-3.4-12.6l-9.7-12l0.3,0.6l-1.6,0.7l-2.1-1.6l0.4-1.3
		l1.1,0l-15.8-8.3l-0.4,1.5l-1.7,1.1l-1.2-1.2l0.8-1.5l-16,0.3l-1.4,1l-1.4-0.1l0.5-0.6L156,112l-2.8,4.7l9.7,2.5l0.8,0.2l-0.2-0.4
		l2.9,0.4l-0.4,0.8l9.4,3l4.2,3.2l2.1,1.6l0.1,0.1l7.3,5.6l4.1,5.4l0.5,0.6l0.9,1.2l1.5,1.9l0.9,1.2l6.6,15.7v7.6l3.2-0.5v-0.2
		l1.4-1.2l1,0.6l-0.2,0.4l2.5-0.4l1.8-6.4l-0.5-1.4L213.8,157.6z M206.1,151.7l-0.2,1.5l-0.8,0.7l-0.4-1.2L206.1,151.7z M201.5,135
		l1.6-0.6l0.8,1.4l-0.9,1.4l-1.6-0.6L201.5,135z M194.2,125.8v1.1l-1,0.9l-0.4-1.7L194.2,125.8z M183.9,126.3l-2.1,0.3l-0.2-2.5
		l2.1-0.4L183.9,126.3z M156.2,116.6l-0.5-0.4l1.2-1.2l0.5,1.4L156.2,116.6z M172.7,117.5l1.2-0.7l1.2,0.8l-0.6,1.1l-1.3,0.1
		L172.7,117.5z M191.6,134l2-0.5l0.5,1.1l-0.3,1.7l-1.8-0.5L191.6,134z"/>
	<polygon class="st18" points="195.7,120.3 197.8,121.9 199.4,121.2 199.1,120.6 198.4,119.1 197.2,119 196.1,119 	"/>
	<polygon class="st18" points="212.4,150 213.1,148.6 213.5,147.7 212.3,145 212.2,145.2 211.2,147.4 	"/>
	<polygon class="st18" points="203.9,135.8 203.1,134.4 201.5,135 201.4,136.6 203,137.2 	"/>
	<polygon class="st18" points="179.3,113.3 181,112.2 181.4,110.7 181.4,110.6 179.1,110.3 178.9,110.6 178.1,112.1 	"/>
	<polygon class="st18" points="214.1,158.6 214,157.5 213.8,157.6 212.7,158.1 213.2,159.5 213.3,159.6 	"/>
	<polygon class="st18" points="205.9,153.2 206.1,151.7 204.7,152.7 205.1,153.9 	"/>
	<polygon class="st18" points="181.6,124.1 181.8,126.6 183.9,126.3 183.7,123.7 	"/>
	<polygon class="st18" points="161.5,111.9 162.9,110.9 163,110.8 161.3,110.3 160.6,111.2 160.1,111.8 	"/>
	<polygon class="st18" points="174.5,118.7 175.1,117.6 173.9,116.8 172.7,117.5 173.2,118.8 	"/>
	<polygon class="st18" points="193.8,136.3 194.1,134.6 193.6,133.5 191.6,134 192,135.8 	"/>
	<polygon class="st18" points="194.2,126.9 194.2,125.8 192.8,126.1 193.2,127.8 	"/>
	<polygon class="st18" points="165.6,120.9 166,120.2 166.4,119.4 163.5,119 163.7,119.4 164.1,120.7 	"/>
	<polygon class="st18" points="208.1,165.3 206.7,166.5 206.7,166.7 206.7,167.2 208.6,167 208.9,166.3 209.1,165.9 	"/>
	<polygon class="st18" points="155.7,116.2 156.2,116.6 157.4,116.4 156.9,115 	"/>
</g>
</svg>
