<svg id="Layer_1" xmlns="http://www.w3.org/2000/svg" xmlns:xlink="http://www.w3.org/1999/xlink" viewBox="0 0 220 240"><style>.st2{fill:#5a2aa3}.st7{fill:#5f36b7}.st16{fill:#682bdc}.st21{fill:#5f37b7}</style><defs><path id="SVGID_1_" d="M114.3 87.6l4.1 29.8-2.9 30.4 4.1 17.7-3.6 3.2 3.4 8.3-7.2 15-10.8 4.5-8.9-3.7-3.9-11.6 5.3-14.1 4-2.8-.8-4.5 5.5-17 5.1-14.4-.8-22.4-5.6-21.6z"/></defs><clipPath id="SVGID_2_"><use xlink:href="#SVGID_1_" overflow="visible"/></clipPath><path clip-path="url(#SVGID_2_)" fill="#5f44a3" d="M114.3 87.6l4.1 29.8-2.9 30.4 4.1 17.7-3.6 3.2 3.4 8.3-7.2 15-10.8 4.5-8.9-3.7-3.9-11.6 5.3-14.1 4-2.8-.8-4.5 5.5-17 5.1-14.4-.8-22.4-5.6-21.6z"/><defs><path id="SVGID_3_" d="M114.3 87.6l4.1 29.8-2.9 30.4 4.1 17.7-3.6 3.2 3.4 8.3-7.2 15-10.8 4.5-8.9-3.7-3.9-11.6 5.3-14.1 4-2.8-.8-4.5 5.5-17 5.1-14.4-.8-22.4-5.6-21.6z"/></defs><clipPath id="SVGID_4_"><use xlink:href="#SVGID_3_" overflow="visible"/></clipPath><path d="M106.3 96.4s1.9 7.2 2.2 7.9c.3.7 1.2 13.3 1.2 13.3l-1.3 15.1-3.7 15.7-3.8 9-2 3 .6 4.2-4 3.8-4.1 8.3-.4 7.9 5.2 12.7-10.2-4.4-7.8-22.2 11.2-38.6 13.2-25.9-1.6-9 5.3-.8z" clip-path="url(#SVGID_4_)" fill="#6655c5"/><path class="st2" d="M137.2 94.4l-5.5 4.9-6.1-3.3-6.4.9-3.3 2.5-9-.8-5.5 2.7-6.5 3-9 1.2-4.3-3.5 16.2-18.4 16.1 1.1z"/><defs><path id="SVGID_5_" d="M137.5 95.8L130 58l-4.2-14.2-18.7-31.3-11.3-8-11.9 6.1-4.5 10.6-5.9 32.4 5 36.2 1.6 11.9 5.8 3.8 8.3-3.4 3.9-7.8 5.3-2.6 7.7 3.5 6 1.5 3.6-3.9 4.8-1.8 3.9 1.7 2.8 3.4z"/></defs><clipPath id="SVGID_6_"><use xlink:href="#SVGID_5_" overflow="visible"/></clipPath><path clip-path="url(#SVGID_6_)" fill="#4d1261" d="M137.5 95.8L130 58l-4.2-14.2-18.7-31.3-11.3-8-11.4 4.9-5 11.8-5.9 32.4 5 36.2 1.6 11.9 5.8 3.8 8.3-3.4 3.9-7.8 5.3-2.6 7.7 3.5 6 1.5 3.6-3.9 4.8-1.8 3.9 1.7 2.8 3.4z"/><g><defs><path id="SVGID_7_" d="M137.5 95.8L130 58l-4.2-14.2-18.7-31.3-11.3-8-11.9 6.1-4.5 10.6-5.9 32.4 5 36.2 1.6 11.9 5.8 3.8 8.3-3.4 3.9-7.8 5.3-2.6 7.7 3.5 6 1.5 3.6-3.9 4.8-1.8 3.9 1.7 2.8 3.4z"/></defs><clipPath id="SVGID_8_"><use xlink:href="#SVGID_7_" overflow="visible"/></clipPath><path clip-path="url(#SVGID_8_)" fill="#460045" d="M94.4-2.4l6.8 5.7-7.3 6.5-5.7 22.8-.7 14-2 13.7 5.3 21.4 12.5 20.2-18.9 8.5L65 78.6 62.7 8.5z"/></g><path class="st2" d="M109.1 22.6l-4.2-3.6-7.1-1.1-7.4 3-3.9 3.3 4.3-.8 7.4-2.4 5.4-.7zM117.4 35.9l-7.5-1.3-6 .8-5.4 1.9 3.8-.5 5.6-.7 6.1.3zM84.3 49.9l5.2-3.1 5.1-.6 4.2 1.7-4.8-.5-2.6.4-4.2 1.7zM118.8 52.2l-5.8-1.4-6.9.9-6.4 3.1-3.2 3.9L100 57l4.1-2.2 5.4-2.3 3-.4zM98.8 68.6l-4.7-1.1-4.4.6-4.1 2.3-1 2.7 3.1-3.1 4.8-1.1zM125.9 67.5l-4.4-1.6-7.8 1.1-4.7 3.6 6.3-2.4 5.1-.7zM109.5 82.7l-3.9-2.1-3.2-.5-4.4 2.4-3.3 2.2 3.1-1.1 4-1.6 3.5-.5z"/><g><defs><path id="SVGID_9_" d="M83.5 131v24.2l5.6 24-1.4 14.5 3.2 2.1-1.8 7 7.4 11.2 9.1 2.4 6.6-3.9 1.8-9.7-5.7-10.6-3.5-1.8.2-3.7-6.2-13-5.6-10.9-1.9-17.8 2.2-17.9z"/></defs><clipPath id="SVGID_10_"><use xlink:href="#SVGID_9_" overflow="visible"/></clipPath><path clip-path="url(#SVGID_10_)" fill="#7378f5" d="M83.5 131v24.2l5.6 24-1.4 14.5 3.2 2.1-1.8 7 7.4 11.2 9.1 2.4 6.6-3.9 1.8-9.7-5.7-10.6-3.5-1.8.2-3.7-6.2-13-5.6-10.9-1.9-17.8 2.2-17.9z"/><defs><path id="SVGID_11_" d="M83.5 131v24.2l5.6 24-1.4 14.5 3.2 2.1-1.8 7 7.4 11.2 9.1 2.4 6.6-3.9 1.8-9.7-5.7-10.6-3.5-1.8.2-3.7-6.2-13-5.6-10.9-1.9-17.8 2.2-17.9z"/></defs><clipPath id="SVGID_12_"><use xlink:href="#SVGID_11_" overflow="visible"/></clipPath><path d="M90.8 137.2s-.7 5.9-.9 6.5c-.2.6.5 10.7.5 10.7l2.7 11.8 4.6 12.1 4 6.7 1.9 2.2v3.4l3.6 2.6 4.2 6.1 1.2 6.3-2.8 10.7 7.7-4.6 3.8-18.5-13.1-29.5-13.3-19.2.3-7.3h-4.4z" clip-path="url(#SVGID_12_)" fill="#6c68d3"/><path class="st7" d="M66 139l4.9 3.2 4.5-3.2h5.1l3 1.6 7.1-1.6 4.6 1.6 5.5 1.6h7.3l3-3.2-14.8-12.9-12.7 2.6z"/><defs><path id="SVGID_13_" d="M65.9 140.1l1.8-30.9 1.8-11.8L81 70.5l8.2-7.6 10.1 3.6 4.8 7.9 8.1 25.2v39l-4.2 3.6-7-1.8-3.9-5.7-4.6-1.5-5.7 3.6-4.5 1.8-3.4-2.7-4-.9-2.9 1.8-1.9 3z"/></defs><clipPath id="SVGID_14_"><use xlink:href="#SVGID_13_" overflow="visible"/></clipPath><path clip-path="url(#SVGID_14_)" fill="#562c84" d="M65.9 140.1l1.8-30.9 1.8-11.8L81 70.5l8.2-7.6 9.6 2.7 5.3 8.8 8.1 25.2v39l-4.2 3.6-7-1.8-3.9-5.7-4.6-1.5-5.7 3.6-4.5 1.8-3.4-2.7-4-.9-2.9 1.8-1.9 3z"/><g><defs><path id="SVGID_15_" d="M65.9 140.1l1.8-30.9 1.8-11.8L81 70.5l8.2-7.6 10.1 3.6 4.8 7.9 8.1 25.2v39l-4.2 3.6-7-1.8-3.9-5.7-4.6-1.5-5.7 3.6-4.5 1.8-3.4-2.7-4-.9-2.9 1.8-1.9 3z"/></defs><clipPath id="SVGID_16_"><use xlink:href="#SVGID_15_" overflow="visible"/></clipPath><path clip-path="url(#SVGID_16_)" fill="#511e6d" d="M89.5 57.2l-4.8 5.3 6.6 4.4 7 17.6 2.1 11 3 10.7-1.9 17.6-7.8 17.5 16 4.7 12.1-27.5-5.8-56z"/></g><path class="st7" d="M80.5 78.8l3-3.4 5.6-1.6 6.1 1.6 3.6 2.2-3.6-.2-6.1-1.1h-4.4zM75.4 90.3l5.8-1.9h4.9l4.5.9H83l-4.8 1zM103.2 97.8l-4.4-1.9h-4.1l-3.2 1.9 3.7-.9h2.2l3.5.9zM76 103.3l4.5-1.7h5.6l5.4 1.7 3 2.8-3-.9-3.4-1.3-4.6-1.3h-2.4zM93.7 114.3l3.7-1.4h3.5l3.5 1.4 1.1 2-2.8-2.1-3.9-.4zM72.1 116.3l3.3-1.7h6.3l4.1 2.3-5.3-1.1h-4.1zM86.8 126.6l2.8-2.1 2.5-.7 3.8 1.4 2.9 1.4-2.6-.5-3.4-.9h-2.9z"/></g><g><defs><path id="SVGID_17_" d="M144.9 103.3l-9 25.4-3 27.1-6.8 14.7 2.5 3.4-4.4 6.6 3.6 14.5 8.6 5.9 8.4-1.6 5.5-9.5-2.1-13.2-3-3.2 1.6-3.8-1.7-15.9-1.8-13.5 4.7-19.4 8.8-17.9z"/></defs><clipPath id="SVGID_18_"><use xlink:href="#SVGID_17_" overflow="visible"/></clipPath><path clip-path="url(#SVGID_18_)" fill="#7378f5" d="M144.9 103.3l-9 25.4-3 27.1-6.8 14.7 2.5 3.4-4.4 6.6 3.6 14.5 8.6 5.9 8.4-1.6 5.5-9.5-2.1-13.2-3-3.2 1.6-3.8-1.7-15.9-1.8-13.5 4.7-19.4 8.8-17.9z"/><defs><path id="SVGID_19_" d="M144.9 103.3l-9 25.4-3 27.1-6.8 14.7 2.5 3.4-4.4 6.6 3.6 14.5 8.6 5.9 8.4-1.6 5.5-9.5-2.1-13.2-3-3.2 1.6-3.8-1.7-15.9-1.8-13.5 4.7-19.4 8.8-17.9z"/></defs><clipPath id="SVGID_20_"><use xlink:href="#SVGID_19_" overflow="visible"/></clipPath><path d="M150.3 112.5s-3 6-3.4 6.5-3.5 11.4-3.5 11.4l-1.6 13.4.3 14.4 1.6 8.5 1.2 3-1.2 3.5 2.8 4 2.1 8-1.1 7-6.9 10.2 9.8-1.9 10.8-18-2.7-35.8-6.8-25.1 3-7.6-4.4-1.5z" clip-path="url(#SVGID_20_)" fill="#6c68d3"/><path class="st7" d="M123.7 105.2l3.9 5.2 5.9-1.7 5.4 1.9 2.5 2.8 8 .9 4.3 3.4 5.1 3.8 7.6 2.7 4.4-2.3-10.8-19-14.2-2z"/><defs><path id="SVGID_21_" d="M123.2 106.3l13.3-31.6 6.3-11.7 22-23.9 11.4-4.9 9.2 7.5 2.1 10-.8 29.4-10.9 30.7-3.6 10.1-5.8 2.3-6.6-4.5-2-7.5-4.2-3.3-7.3 1.7-5.5.2-2.4-4.1-3.9-2.4-3.8.8-3 2.5z"/></defs><clipPath id="SVGID_22_"><use xlink:href="#SVGID_21_" overflow="visible"/></clipPath><path clip-path="url(#SVGID_22_)" fill="#562c84" d="M123.2 106.3l13.3-31.6 6.3-11.7 22-23.9 11.4-4.9 9 6.3 2.3 11.2-.8 29.4-10.9 30.7-3.6 10.1-5.8 2.3-6.6-4.5-2-7.5-4.2-3.3-7.3 1.7-5.5.2-2.4-4.1-3.9-2.4-3.8.8-3 2.5z"/><g><defs><path id="SVGID_23_" d="M123.2 106.3l13.3-31.6 6.3-11.7 22-23.9 11.4-4.9 9.2 7.5 2.1 10-.8 29.4-10.9 30.7-3.6 10.1-5.8 2.3-6.6-4.5-2-7.5-4.2-3.3-7.3 1.7-5.5.2-2.4-4.1-3.9-2.4-3.8.8-3 2.5z"/></defs><clipPath id="SVGID_24_"><use xlink:href="#SVGID_23_" overflow="visible"/></clipPath><path clip-path="url(#SVGID_24_)" fill="#511e6d" d="M178.6 28.3l-6.9 3.8 5.2 7 .8 21-1.9 12.4-.8 12.3-8.5 17.7-14.6 15.4 15 10.9 22.7-24.3 14.7-60.8z"/></g><path class="st7" d="M161.2 47.5l4.4-2.4 6.4.4 5.9 4 2.8 3.6-3.6-1.6-6-3.4-4.6-1.6zM151.6 57.7l6.7.2 5.2 1.8 4.3 2.6-3.2-1.1-4.7-1.7-5.4-.8zM178 75.9l-4.1-3.6-4.2-1.5-4 .7 4.2.4 2.2.8 3.4 2.3zM147.4 71.6l5.4-.1 5.8 2 5 3.8 2.1 4.1-2.8-2.1-3.1-2.7-4.3-3-2.5-.9zM161.9 89.6l4.3-.1 3.8 1.3 3.1 2.8.3 2.5-2-3.2-4.1-1.9zM138.5 83.7l4.1-.6 6.6 2.4 3.4 4-5.1-3.2-4.3-1.6zM150 99.9l3.8-1.1 2.8.2 3.5 2.9 2.5 2.5-2.6-1.5-3.2-2.2-3-1z"/></g><g><defs><path id="SVGID_25_" d="M186.6 146.9l3.4 18.3-.9 18.8 3 10.8-2.1 2 2.3 5-4 9.5-6.5 3.1-5.6-2-2.7-7.1 2.8-8.8 2.4-1.8-.6-2.8 2.9-10.7 2.7-9-1.1-13.7-4.1-13.2z"/></defs><clipPath id="SVGID_26_"><use xlink:href="#SVGID_25_" overflow="visible"/></clipPath><path clip-path="url(#SVGID_26_)" fill="#7449e8" d="M186.6 146.9l3.4 18.3-.9 18.8 3 10.8-2.1 2 2.3 5-4 9.5-6.5 3.1-5.6-2-2.7-7.1 2.8-8.8 2.4-1.8-.6-2.8 2.9-10.7 2.7-9-1.1-13.7-4.1-13.2z"/><defs><path id="SVGID_27_" d="M186.6 146.9l3.4 18.3-.9 18.8 3 10.8-2.1 2 2.3 5-4 9.5-6.5 3.1-5.6-2-2.7-7.1 2.8-8.8 2.4-1.8-.6-2.8 2.9-10.7 2.7-9-1.1-13.7-4.1-13.2z"/></defs><clipPath id="SVGID_28_"><use xlink:href="#SVGID_27_" overflow="visible"/></clipPath><path d="M181.9 152.6s1.4 4.4 1.6 4.8 1.1 8.2 1.1 8.2l-.4 9.3-1.8 9.8-2.1 5.6-1.1 1.9.5 2.5-2.4 2.4-2.3 5.2v4.9l3.6 7.7-6.5-2.4-5.4-13.5 5.8-24.1 7.4-16.3-1.2-5.5 3.2-.5z" clip-path="url(#SVGID_28_)" fill="#765bef"/><path class="st16" d="M200.9 150.5l-3.2 3.1-3.9-1.8-3.9.7-2 1.7-5.5-.3-3.3 1.9-4 2-5.4 1-2.8-2.1 9.4-11.7 10 .2z"/><defs><path id="SVGID_29_" d="M201.1 151.3l-5.6-23-3-8.7-12.4-18.7-7.3-4.6-7.1 4.1-2.5 6.7-2.6 20 4 22.2 1.4 7.3 3.7 2.2 5-2.4 2.1-4.9 3.3-1.7 4.8 1.9 3.7.8 2.1-2.6 2.9-1.2 2.5 1 1.8 2z"/></defs><clipPath id="SVGID_30_"><use xlink:href="#SVGID_29_" overflow="visible"/></clipPath><path clip-path="url(#SVGID_30_)" fill="#5a1c92" d="M201.1 151.3l-5.6-23-3-8.7-12.4-18.7-7.3-4.6-6.8 3.3-2.8 7.5-2.6 20 4 22.2 1.4 7.3 3.7 2.2 5-2.4 2.1-4.9 3.3-1.7 4.8 1.9 3.7.8 2.1-2.6 2.9-1.2 2.5 1 1.8 2z"/><g><defs><path id="SVGID_31_" d="M201.1 151.3l-5.6-23-3-8.7-12.4-18.7-7.3-4.6-7.1 4.1-2.5 6.7-2.6 20 4 22.2 1.4 7.3 3.7 2.2 5-2.4 2.1-4.9 3.3-1.7 4.8 1.9 3.7.8 2.1-2.6 2.9-1.2 2.5 1 1.8 2z"/></defs><clipPath id="SVGID_32_"><use xlink:href="#SVGID_31_" overflow="visible"/></clipPath><path clip-path="url(#SVGID_32_)" fill="#540e78" d="M171.8 92.1l4.4 3.3-4.3 4.2-2.9 14.2-.1 8.7-.8 8.5 3.9 13 8.3 12.1-11.4 5.8-12.9-19.1-3.4-43.1z"/></g><path class="st16" d="M181.6 107.1l-2.7-2.2-4.4-.4-4.5 2.1-2.3 2.1 2.6-.6 4.5-1.7 3.3-.6zM187.1 115l-4.7-.6-3.7.7-3.2 1.3 2.3-.4 3.4-.6h3.8zM167.1 124.6l3.1-2 3.1-.6 2.7.9-3-.1-1.6.3-2.5 1.1zM188.4 125l-3.6-.7-4.2.8-3.9 2-1.9 2.5 2.2-1.1 2.4-1.4 3.3-1.7 1.8-.3zM176.5 135.7l-2.9-.6-2.7.5-2.4 1.6-.5 1.6 1.7-1.9 3-.8zM193.2 134.2l-2.8-.8-4.7.9-2.8 2.3 3.8-1.6 3.1-.6zM183.5 144l-2.4-1.1-2-.2-2.7 1.6-1.9 1.4 1.8-.7 2.5-1.2 2.1-.4z"/></g><g><defs><path id="SVGID_33_" d="M37.8 109l-3.4 18.3.9 18.8-3 10.8 2.1 2-2.3 5 4 9.5 6.5 3.1 5.6-2.1 2.7-7-2.9-8.8-2.3-1.9.6-2.7-2.9-10.7-2.7-9 1.1-13.7 4-13.2z"/></defs><clipPath id="SVGID_34_"><use xlink:href="#SVGID_33_" overflow="visible"/></clipPath><path clip-path="url(#SVGID_34_)" fill="#735ff5" d="M37.8 109l-3.4 18.3.9 18.8-3 10.8 2.1 2-2.3 5 4 9.5 6.5 3.1 5.6-2.1 2.7-7-2.9-8.8-2.3-1.9.6-2.7-2.9-10.7-2.7-9 1.1-13.7 4-13.2z"/><defs><path id="SVGID_35_" d="M37.8 109l-3.4 18.3.9 18.8-3 10.8 2.1 2-2.3 5 4 9.5 6.5 3.1 5.6-2.1 2.7-7-2.9-8.8-2.3-1.9.6-2.7-2.9-10.7-2.7-9 1.1-13.7 4-13.2z"/></defs><clipPath id="SVGID_36_"><use xlink:href="#SVGID_35_" overflow="visible"/></clipPath><path d="M42.4 114.7s-1.4 4.4-1.6 4.8c-.2.4-1.1 8.2-1.1 8.2l.4 9.3 1.8 9.8 2.1 5.6 1.1 1.9-.5 2.5 2.4 2.4 2.3 5.2v4.9l-3.6 7.7 6.5-2.4 5.4-13.5-5.8-24.1-7.4-16.3 1.2-5.5-3.2-.5z" clip-path="url(#SVGID_36_)" fill="#6c33d3"/><path class="st21" d="M23.5 112.6l3.2 3.1 3.9-1.8 3.8.7 2 1.6 5.6-.2 3.3 1.8 3.9 2 5.5 1 2.8-2L48 107l-9.9.2z"/><defs><path id="SVGID_37_" d="M23.3 113.4l5.6-23 3-8.7L44.3 63l7.2-4.6 7.2 4.1 2.4 6.6 2.7 20.1-4 22.2-1.4 7.3-3.7 2.1-5-2.3-2.2-4.9-3.2-1.8-4.8 2-3.7.7-2.1-2.5-2.9-1.2-2.5.9-1.8 2.1z"/></defs><clipPath id="SVGID_38_"><use xlink:href="#SVGID_37_" overflow="visible"/></clipPath><path clip-path="url(#SVGID_38_)" fill="#561f84" d="M23.3 113.4l5.6-23 3-8.7L44.3 63l7.2-4.6 6.9 3.3 2.7 7.4 2.7 20.1-4 22.2-1.4 7.3-3.7 2.1-5-2.3-2.2-4.9-3.2-1.8-4.8 2-3.7.7-2.1-2.5-2.9-1.2-2.5.9-1.8 2.1z"/><g><defs><path id="SVGID_39_" d="M23.3 113.4l5.6-23 3-8.7L44.3 63l7.2-4.6 7.2 4.1 2.4 6.6 2.7 20.1-4 22.2-1.4 7.3-3.7 2.1-5-2.3-2.2-4.9-3.2-1.8-4.8 2-3.7.7-2.1-2.5-2.9-1.2-2.5.9-1.8 2.1z"/></defs><clipPath id="SVGID_40_"><use xlink:href="#SVGID_39_" overflow="visible"/></clipPath><path clip-path="url(#SVGID_40_)" fill="#51096d" d="M52.6 54.1l-4.4 3.4 4.3 4.2 2.9 14.2v8.6l.8 8.5-3.8 13.1-8.3 12 11.4 5.8 12.9-19 3.4-43.1z"/></g><path class="st21" d="M42.8 69.1l2.7-2.1 4.4-.4 4.4 2 2.4 2.2-2.6-.7-4.5-1.6-3.3-.7zM37.3 77.1l4.6-.6 3.7.7 3.3 1.3-2.3-.4-3.4-.6h-3.8zM57.3 86.6l-3.1-2-3.1-.5-2.7.9 3-.2 1.6.3 2.5 1.2zM36 87.1l3.6-.7 4.2.8 3.9 2 1.9 2.5-2.2-1.1-2.4-1.5-3.3-1.6-1.8-.3zM47.8 97.8l3-.6 2.7.5 2.4 1.6.5 1.6-1.8-2-2.9-.8zM31.2 96.3l2.7-.9 4.8.9 2.8 2.4-3.8-1.6-3.1-.6zM40.9 106.1l2.4-1.2 2-.1 2.6 1.5 2 1.5-1.9-.8-2.4-1.1-2.1-.4z"/></g></svg>