<?xml version="1.0" encoding="utf-8"?>
<!-- Generator: Adobe Illustrator 22.1.0, SVG Export Plug-In . SVG Version: 6.00 Build 0)  -->
<svg version="1.0" id="Layer_1" xmlns="http://www.w3.org/2000/svg" xmlns:xlink="http://www.w3.org/1999/xlink" x="0px" y="0px"
	 viewBox="0 0 220 220" style="enable-background:new 0 0 220 220;" xml:space="preserve">
<style type="text/css">
	.st0{fill:none;}
	.st1{fill:#5F44A3;}
	.st2{fill:#6655C5;}
	.st3{fill:#5A2AA3;}
	.st4{fill:#4D1261;}
	.st5{fill:#460045;}
	.st6{fill:#7378F5;}
	.st7{fill:#6C68D3;}
	.st8{fill:#5F36B7;}
	.st9{fill:#562C84;}
	.st10{fill:#511E6D;}
	.st11{fill:#7449E8;}
	.st12{fill:#765BEF;}
	.st13{fill:#682BDC;}
	.st14{fill:#5A1C92;}
	.st15{fill:#540E78;}
	.st16{fill:#735FF5;}
	.st17{fill:#6C33D3;}
	.st18{fill:#5F37B7;}
	.st19{fill:#561F84;}
	.st20{fill:#51096D;}
</style>
<g>
	<polygon class="st0" points="97.1,159.8 102.6,142.8 102.8,142.2 100.7,142.2 95.2,140.6 92,139.5 91.3,145 93.2,162.8 95,166.3 
		97.9,164.3 	"/>
	<polygon class="st1" points="112,99.1 112.2,99.6 112.2,128.9 112.2,138.6 108,142.2 106.2,142.2 104.7,148.4 100.9,157.4 
		98.9,160.4 99.5,164.6 95.9,168 98.8,173.7 105,186.7 104.8,190.4 108.3,192.2 108.9,193.4 112.2,192 119.4,177 116,168.7 
		119.6,165.5 115.5,147.8 118.4,117.4 115.9,99.4 115.9,99.4 	"/>
	<polygon class="st2" points="102.6,142.8 97.1,159.8 97.9,164.3 95,166.3 95.9,168 99.5,164.6 98.9,160.4 100.9,157.4 104.7,148.4 
		106.2,142.2 102.8,142.2 	"/>
	<polygon class="st2" points="88.6,181.2 88.8,181.9 89,180.1 	"/>
	<polygon class="st3" points="125.5,91 120.7,92.8 117.1,96.7 111.1,95.2 110.7,95 112,99.1 115.9,99.4 115.9,99.4 119.2,96.9 
		125.6,96 127.2,96.9 129,92.5 	"/>
	<path class="st4" d="M91.2,20.6l6.6-2.7l7.1,1.1l4.2,3.6l-5.5-2.3L98.2,21l-7.4,2.4l-0.3,0.1l-2.3,9.1l-0.7,14l-0.2,1.5l2.2-1.3
		l5.1-0.6l4.2,1.7L94,47.4l-2.6,0.4l-4.2,1.7l-0.1,0l-1.6,10.8l1.2,4.9l0.9-0.8l1.6-1.5l10.1,3.6l4.8,7.9l2.1,6.5l3.3,1.8l-3-0.9
		l4.2,13.2l0.4,0.2l6,1.5l3.6-3.9l4.8-1.8l3.5,1.5l5.3-12.7L130,58l-4.2-14.2l-18.7-31.3l-9-6.4l-4.2,3.7L91.2,20.6z M125.9,67.5
		h-5.5l-5.1,0.7l-6.3,2.4l4.7-3.6l7.8-1.1L125.9,67.5z M112.5,52.1l-3,0.4l-5.4,2.3L100,57l-3.5,1.7l3.2-3.9l6.4-3.1l6.9-0.9
		l5.8,1.4L112.5,52.1z M117.4,35.9l-3.4,0.5l-6.1-0.3l-5.6,0.7l-3.8,0.5l5.4-1.9l6-0.8L117.4,35.9z"/>
	<polygon class="st5" points="86.7,65.2 85.5,60.3 87.1,49.5 84.3,49.9 87.3,48.1 87.5,46.6 88.2,32.6 90.5,23.5 86.5,24.2 
		90.4,20.9 91.2,20.6 93.9,9.8 98.1,6.1 95.8,4.5 83.9,10.6 79.4,21.2 73.5,53.6 77.1,79.6 81,70.5 	"/>
	<polygon class="st3" points="98.2,21 103.6,20.3 109.1,22.6 104.9,19 97.8,17.9 91.2,20.6 90.4,20.9 86.5,24.2 90.5,23.5 
		90.8,23.4 	"/>
	<polygon class="st3" points="98.5,37.3 102.3,36.8 107.9,36.1 114,36.4 117.4,35.9 109.9,34.6 103.9,35.4 	"/>
	<polygon class="st3" points="91.4,47.8 94,47.4 98.8,47.9 94.6,46.2 89.5,46.8 87.3,48.1 84.3,49.9 87.1,49.5 87.2,49.5 	"/>
	<polygon class="st3" points="106.1,51.7 99.7,54.8 96.5,58.7 100,57 104.1,54.8 109.5,52.5 112.5,52.1 118.8,52.2 113,50.8 	"/>
	<polygon class="st3" points="113.7,67 109,70.6 115.3,68.2 120.4,67.5 125.9,67.5 121.5,65.9 	"/>
	<polygon class="st3" points="109.5,82.7 106.2,80.9 106.5,81.8 	"/>
	<path class="st6" d="M111.4,199.3l-4.2-6.1l-3.6-2.6v-3.4l-1.9-2.2l-4-6.7l-4.6-12.1l-2.7-11.8c0,0-0.7-10.1-0.5-10.7
		c0.1-0.4,0.5-2.9,0.7-4.7l-7.1,1.6v14.6l5.6,24l-0.1,0.9l-0.2,1.8l-1.1,11.8l3.2,2.1l-1.8,7l7.4,11.2l9.1,2.4l4.9-2.9l2.1-7.9
		L111.4,199.3z"/>
	<path class="st7" d="M104.8,190.4l0.2-3.7l-6.2-13l-2.9-5.7l-0.9-1.7l-1.8-3.5L91.3,145l0.7-5.5l-1.4-0.5l0,0
		c-0.2,1.8-0.6,4.3-0.7,4.7c-0.2,0.6,0.5,10.7,0.5,10.7l2.7,11.8l4.6,12.1l4,6.7l1.9,2.2v3.4l3.6,2.6l4.2,6.1l1.2,6.3l-2.1,7.9
		l1.7-1l1.8-9.7l-5.1-9.4l-0.6-1.2L104.8,190.4z"/>
	<polygon class="st8" points="90.6,139 90.6,139 92,139.5 95.2,140.6 100.7,142.2 102.8,142.2 106.2,142.2 108,142.2 101,140.4 
		97.1,134.7 96.7,134.6 92.5,133.2 86.8,136.8 82.3,138.6 78.9,135.9 74.9,135 72,136.8 70.1,139.8 67.5,140 70.9,142.2 75.4,139 
		80.5,139 83.5,140.6 	"/>
	<path class="st9" d="M72,136.8l2.9-1.8l4,0.9l3.4,2.7l4.5-1.8l5.7-3.6l4.2,1.4l4.8-10.8l1-9.6l-3.7-0.4l-5.1,0.5l3.7-1.4h3.5
		l1.7,0.7l0.8-7.4l-2.4-8.4h-0.1l-3.5-0.9h-2.2l-3.7,0.9l3.2-1.9h4.1l1.9,0.8l-0.3-1.2l-2.1-11l-2.8-7.1l-0.3,0l-6.1-1.1h-4.4
		l-4.2,2.5l3-3.4l5.6-1.6l5.5,1.4l-3.3-8.3l-3.7-2.5l-0.9,0.8L81,70.5l-3.9,9.1l-7.6,17.8l-1.8,11.8l-1.8,30.9l1.6-0.1l2.6-0.2
		L72,136.8z M95.9,125.2l2.9,1.4l-2.6-0.5l-3.4-0.9h-2.9l-3.1,1.4l2.8-2.1l2.5-0.7L95.9,125.2z M81.2,88.4h4.9l4.5,0.9h-3.1H83
		l-4.8,1h-2.8L81.2,88.4z M80.5,101.6h5.6l5.4,1.7l3,2.8l-3-0.9l-3.4-1.3l-4.6-1.3h-2.4l-5.1,0.7L80.5,101.6z M75.4,114.6h6.3
		l4.1,2.3l-5.3-1.1h-4.1l-4.3,0.5L75.4,114.6z"/>
	<polygon class="st10" points="106.5,81.8 106.2,80.9 104.1,74.4 99.3,66.5 89.2,62.9 87.6,64.4 91.3,66.9 94.6,75.2 95.2,75.4 
		98.8,77.6 95.5,77.4 98.3,84.5 100.4,95.5 100.7,96.7 103.2,97.8 101,97.8 103.4,106.2 102.6,113.6 104.4,114.3 105.5,116.3 
		102.7,114.2 102.5,114.2 101.5,123.8 96.7,134.6 97.1,134.7 101,140.4 108,142.2 112.2,138.6 112.2,128.9 112.2,99.6 112,99.1 
		110.7,95 	"/>
	<polygon class="st8" points="95.2,75.4 94.6,75.2 89.1,73.8 83.5,75.4 80.5,78.8 84.7,76.3 89.1,76.3 95.2,77.4 95.5,77.4 
		98.8,77.6 	"/>
	<polygon class="st8" points="83,89.3 87.5,89.3 90.6,89.3 86.1,88.4 81.2,88.4 75.4,90.3 78.2,90.3 	"/>
	<polygon class="st8" points="103.2,97.8 100.7,96.7 98.8,95.9 94.7,95.9 91.5,97.8 95.2,96.9 97.4,96.9 100.9,97.8 101,97.8 	"/>
	<polygon class="st8" points="81.1,102.6 83.5,102.6 88.1,103.9 91.5,105.2 94.5,106.1 91.5,103.3 86.1,101.6 80.5,101.6 76,103.3 	
		"/>
	<polygon class="st8" points="105.5,116.3 104.4,114.3 102.6,113.6 100.9,112.9 97.4,112.9 93.7,114.3 98.8,113.8 102.5,114.2 
		102.7,114.2 	"/>
	<polygon class="st8" points="80.5,115.8 85.8,116.9 81.7,114.6 75.4,114.6 72.1,116.3 76.4,115.8 	"/>
	<polygon class="st8" points="89.6,124.5 86.8,126.6 89.9,125.2 92.8,125.2 96.2,126.1 98.8,126.6 95.9,125.2 92.1,123.8 	"/>
	<path class="st6" d="M148.6,185.2l-2.1-8l-2.8-4l1.2-3.5l-1.2-3l-1.6-8.5l-0.3-14.4l1.6-13.4c0,0,3.1-10.9,3.5-11.4
		c0.3-0.3,1.6-2.9,2.5-4.7l-8-0.9l-0.1-0.1l-5.4,15.4l-3,27.1l-6.8,14.7l2.5,3.4l-4.4,6.6l3.6,14.5l8.6,5.9l6-1.1l5.1-7.6
		L148.6,185.2z"/>
	<path class="st7" d="M149.4,114.3c-0.9,1.8-2.2,4.4-2.5,4.7c-0.4,0.5-3.5,11.4-3.5,11.4l-1.6,13.4l0.3,14.4l1.6,8.5l1.2,3l-1.2,3.5
		l2.8,4l2.1,8l-1.1,7l-5.1,7.6l2.4-0.5l5.5-9.5l-2.1-13.2l-3-3.2l1.6-3.8l-1.7-15.9l-1.8-13.5l4.7-19.4l2.7-5.5L149.4,114.3
		L149.4,114.3z"/>
	<polygon class="st8" points="159.8,119.7 157.8,112.2 157.5,112 153.6,108.9 146.3,110.6 140.8,110.8 138.4,106.7 134.5,104.3 
		130.7,105.1 127.7,107.6 124.9,106.8 127.6,110.4 133.5,108.7 138.9,110.6 141.3,113.3 141.4,113.4 149.4,114.3 149.4,114.3 
		150.7,115.3 153.7,117.7 158.8,121.5 161.2,122.4 161.4,120.8 	"/>
	<path class="st9" d="M130.7,105.1l3.8-0.8l3.9,2.4l2.4,4.1l5.5-0.2l7.3-1.7l3.9,3.1l6.4-6.7l1.8-4.9l2.5-1.4l3-6.2l-3.9-1.8
		l-5.4-1.4l4.3-0.1l3.8,1.3l1.5,1.3l3.5-7.3l0.6-9.8l-0.1,0l-3.4-2.3l-2.2-0.8l-4.2-0.4l4-0.7l4.2,1.5l1.8,1.6l0.1-1.4l1.9-12.4
		l-0.3-8.5l-0.3-0.1l-6-3.4l-4.6-1.6l-5.3,1l4.4-2.4l6.4,0.4l5.3,3.6l-0.4-10l-2.9-3.9l-9.2,3.9l-22,23.9l-6.3,11.7l-2.2,5.1
		L129,92.5l-1.8,4.3l-4,9.4l1.7,0.5l2.8,0.8L130.7,105.1z M156.6,99l3.5,2.9l2.5,2.5l-2.6-1.5l-3.2-2.2l-3-1l-3.8,0.2l3.8-1.1
		L156.6,99z M158.3,57.9l5.2,1.8l4.3,2.6l-3.2-1.1l-4.7-1.7l-5.4-0.8l-2.9-1L158.3,57.9z M152.8,71.5l5.8,2l5,3.8l2.1,4.1l-2.8-2.1
		l-3.1-2.7l-4.3-3l-2.5-0.9l-5.6-1.1L152.8,71.5z M142.6,83.1l6.6,2.4l3.4,4l-5.1-3.2l-4.3-1.6l-4.7-1L142.6,83.1z"/>
	<polygon class="st10" points="177.3,49.1 177.9,49.5 180.7,53.1 177.4,51.6 177.7,60.1 175.8,72.5 175.7,73.9 178,75.9 175.6,75 
		175,84.8 171.5,92.1 173.1,93.6 173.4,96.1 171.4,92.9 171.2,92.8 168.2,99 172.8,96.3 174.3,97.2 179.7,100.7 186.7,81.1 
		187.5,51.7 185.4,41.7 176.2,34.2 174,35.2 176.9,39.1 	"/>
	<polygon class="st10" points="157.5,112 157.8,112.2 159.8,119.7 161.4,120.8 163.2,107.1 163.9,105.3 	"/>
	<polygon class="st8" points="177.9,49.5 177.3,49.1 172,45.5 165.6,45.1 161.2,47.5 166.5,46.5 171.1,48.1 177.1,51.5 177.4,51.6 
		180.7,53.1 	"/>
	<polygon class="st8" points="159.9,59.5 164.6,61.2 167.8,62.3 163.5,59.7 158.3,57.9 151.6,57.7 154.5,58.7 	"/>
	<polygon class="st8" points="175.7,73.9 173.9,72.3 169.7,70.8 165.7,71.5 169.9,71.9 172.1,72.7 175.5,75 175.6,75 178,75.9 	"/>
	<polygon class="st8" points="155.5,73.6 159.8,76.6 162.9,79.3 165.7,81.4 163.6,77.3 158.6,73.5 152.8,71.5 147.4,71.6 153,72.7 	
		"/>
	<polygon class="st8" points="173.4,96.1 173.1,93.6 171.5,92.1 170,90.8 166.2,89.5 161.9,89.6 167.3,91 171.2,92.8 171.4,92.9 	
		"/>
	<polygon class="st8" points="147.5,86.3 152.6,89.5 149.2,85.5 142.6,83.1 138.5,83.7 143.2,84.7 	"/>
	<polygon class="st8" points="150,99.9 153.8,99.7 156.8,100.7 160,102.9 162.6,104.4 160.1,101.9 156.6,99 153.8,98.8 	"/>
	<path class="st11" d="M182.4,153.9L182.4,153.9c0.4,1.4,1,3.2,1.1,3.5c0.2,0.4,1.1,8.2,1.1,8.2l-0.4,9.3l-1.8,9.8l-2.1,5.6
		l-1.1,1.9l0.5,2.5l-2.4,2.4l-2.3,5.2v4.9l2.7,5.7l4.1,1.5l6.5-3.1l4-9.5l-2.3-5l2.1-2l-3-10.8l0.9-18.8l-2.1-11l0,0L182.4,153.9z"
		/>
	<path class="st12" d="M175,202.3l2.3-5.2l2.4-2.4l-0.5-2.5l1.1-1.9l2.1-5.6l1.8-9.8l0.4-9.3c0,0-0.9-7.8-1.1-8.2
		c-0.1-0.3-0.7-2.1-1.2-3.5l-1,0.6l1.2,4l1.1,13.7l-2.7,9l-2.9,10.7l0.6,2.8l-2.4,1.8l-2.8,8.8l2.7,7.1l1.5,0.5l-2.7-5.7V202.3z"/>
	<polygon class="st13" points="196.1,149.7 193.6,148.7 190.7,149.9 188.6,152.5 184.9,151.7 180.1,149.8 177.1,151.4 176.8,151.5 
		174.7,156.4 169.7,158.8 175.1,157.8 179.1,155.8 181.4,154.5 182.3,153.9 182.4,153.9 187.9,154.2 187.9,154.2 189.9,152.5 
		193.8,151.8 197.7,153.6 199.9,151.4 197.9,151.7 	"/>
	<path class="st14" d="M195.5,128.3l-3-8.7l-12.4-18.7l-0.4-0.2l-5.4-3.4l-2.4,2.4l-1.4,6.8l4-1.9l4.4,0.4l2.7,2.2l-3.5-1.3
		l-3.3,0.6l-4.5,1.7l-0.1,0l-1.2,5.7l-0.1,8.7l-0.1,1l1.4-0.9l3.1-0.6l2.7,0.9l-3-0.1l-1.6,0.3l-2.5,1.1l-0.2,0l-0.6,6.8l1.6,5.4
		l1.2-0.8l2.7-0.5l2.9,0.6l-3.8,0.4l-2.8,0.8l2.1,7.1l5.1,7.4l3-1.6l4.8,1.9l3.7,0.8l2.1-2.6l2.9-1.2l2.5,1l1.8,2l2-0.3l1.2-0.1
		L195.5,128.3z M193.2,134.2l-3.4,0.2l-3.1,0.6l-3.8,1.6l2.8-2.3l4.7-0.9L193.2,134.2z M177.8,116l-2.3,0.4l3.2-1.3l3.7-0.7l4.7,0.6
		l-2.1,0.4h-3.8L177.8,116z M174.8,129.6l1.9-2.5l3.9-2l4.2-0.8l3.6,0.7l-3.9,0.1l-1.8,0.3l-3.3,1.7l-2.4,1.4L174.8,129.6z
		 M174.5,145.7l1.9-1.4l2.7-1.6l2,0.2l2.4,1.1l-2.6-0.6l-2.1,0.4l-2.5,1.2L174.5,145.7z"/>
	<polygon class="st15" points="176.8,151.5 177.1,151.4 172,144 169.9,136.9 169.7,136.9 168,138.8 168.5,137.2 169.7,136.4 
		168.1,131 168.7,124.2 167.1,124.6 168.8,123.5 168.9,122.5 169,113.8 170.2,108.1 167.7,108.7 170,106.6 170.5,106.4 171.9,99.6 
		174.3,97.2 172.8,96.3 168.2,99 165.7,100.4 163.9,105.3 163.2,107.1 161.4,120.8 161.2,122.4 160.6,127.1 164.6,149.3 166,156.6 
		169.7,158.8 174.7,156.4 	"/>
	<polygon class="st13" points="167.7,108.7 170.2,108.1 170.3,108.1 174.8,106.4 178.1,105.8 181.6,107.1 178.9,104.9 174.5,104.5 
		170.5,106.4 170,106.6 	"/>
	<polygon class="st13" points="185,115.4 187.1,115 182.4,114.4 178.7,115.1 175.5,116.4 177.8,116 181.2,115.4 	"/>
	<polygon class="st13" points="168.7,124.2 168.9,124.2 171.4,123.1 173,122.8 176,122.9 173.3,122 170.2,122.6 168.8,123.5 
		167.1,124.6 	"/>
	<polygon class="st13" points="179.4,127.1 182.7,125.4 184.5,125.1 188.4,125 184.8,124.3 180.6,125.1 176.7,127.1 174.8,129.6 
		177,128.5 	"/>
	<polygon class="st13" points="168,138.8 169.7,136.9 169.9,136.9 172.7,136.1 176.5,135.7 173.6,135.1 170.9,135.6 169.7,136.4 
		168.5,137.2 	"/>
	<polygon class="st13" points="182.9,136.6 186.7,135 189.8,134.4 193.2,134.2 190.4,133.4 185.7,134.3 	"/>
	<polygon class="st13" points="180.9,143.4 183.5,144 181.1,142.9 179.1,142.7 176.4,144.3 174.5,145.7 176.3,145 178.8,143.8 	"/>
	<path class="st16" d="M49.3,169.3v-4.9l-2.3-5.2l-2.4-2.4l0.5-2.5l-1.1-1.9l-2.1-5.6l-1.8-9.8l-0.4-9.3c0,0,0.9-7.8,1.1-8.2
		c0.1-0.3,0.8-2.2,1.2-3.5l-5.5,0.2l-2.1,11.1l0.9,18.8l-3,10.8l2.1,2l-2.3,5l4,9.5l6.5,3.1l4-1.5L49.3,169.3z"/>
	<path class="st17" d="M42,116c-0.4,1.3-1.1,3.2-1.2,3.5c-0.2,0.4-1.1,8.2-1.1,8.2l0.4,9.3l1.8,9.8l2.1,5.6l1.1,1.9l-0.5,2.5
		l2.4,2.4l2.3,5.2v4.9l-2.7,5.7l1.6-0.6l2.7-7l-2.9-8.8l-2.3-1.9l0.6-2.7l-2.9-10.7l-2.7-9l1.1-13.7l1.2-4L42,116L42,116z"/>
	<polygon class="st18" points="42,116 43,116.6 45.3,117.8 49.2,119.8 54.7,120.8 49.7,118.5 47.5,113.6 47.3,113.5 44.3,111.8 
		39.5,113.8 35.8,114.5 33.7,112 30.8,110.8 28.3,111.7 26.5,113.8 24.5,113.5 26.7,115.7 30.6,113.9 34.4,114.6 36.4,116.2 
		36.5,116.2 42,116 	"/>
	<path class="st19" d="M28.3,111.7l2.5-0.9l2.9,1.2l2.1,2.5l3.7-0.7l4.8-2l3,1.7l5.1-7.4l2.1-7.2l-2.8-0.8l-3.9-0.3l3-0.6l2.7,0.5
		l1.1,0.7l1.6-5.4l-0.6-6.7l-0.1,0L53,85.1l-1.6-0.3l-3,0.2l2.7-0.9l3.1,0.5l1.3,0.8l-0.1-0.9v-8.6l-1.2-5.8l-0.1,0l-4.5-1.6
		l-3.3-0.7l-3.5,1.3l2.7-2.1l4.4-0.4l4,1.8l-1.4-6.7l-2.4-2.4L44.3,63L31.9,81.7l-3,8.7l-5.6,23l1.2,0.1l2,0.3L28.3,111.7z
		 M47.9,106.3l2,1.5L48,107l-2.4-1.1l-2.1-0.4l-2.6,0.6l2.4-1.2l2-0.1L47.9,106.3z M41.9,76.5l3.7,0.7l3.3,1.3l-2.3-0.4l-3.4-0.6
		h-3.8l-2.1-0.4L41.9,76.5z M39.6,86.4l4.2,0.8l3.9,2l1.9,2.5l-2.2-1.1L45,89.1l-3.3-1.6l-1.8-0.3L36,87.1L39.6,86.4z M33.9,95.4
		l4.8,0.9l2.8,2.4l-3.8-1.6l-3.1-0.6l-3.4-0.2L33.9,95.4z"/>
	<polygon class="st20" points="53.9,68.4 54.3,68.6 56.7,70.8 54.2,70.1 55.4,75.9 55.4,84.5 55.5,85.4 57.3,86.6 55.6,86.3 
		56.2,93 54.6,98.4 55.9,99.3 56.4,100.9 54.6,98.9 54.5,98.9 52.4,106.1 47.3,113.5 47.5,113.6 49.7,118.5 54.7,120.8 58.4,118.7 
		59.8,111.4 63.8,89.2 61.1,69.1 58.7,62.5 51.5,58.4 50.1,59.3 52.5,61.7 	"/>
	<polygon class="st18" points="54.3,68.6 53.9,68.4 49.9,66.6 45.5,67 42.8,69.1 46.3,67.8 49.6,68.5 54.1,70.1 54.2,70.1 
		56.7,70.8 	"/>
	<polygon class="st18" points="43.2,77.5 46.6,78.1 48.9,78.5 45.6,77.2 41.9,76.5 37.3,77.1 39.4,77.5 	"/>
	<polygon class="st18" points="55.5,85.4 54.2,84.6 51.1,84.1 48.4,85 51.4,84.8 53,85.1 55.5,86.3 55.6,86.3 57.3,86.6 	"/>
	<polygon class="st18" points="41.7,87.5 45,89.1 47.4,90.6 49.6,91.7 47.7,89.2 43.8,87.2 39.6,86.4 36,87.1 39.9,87.2 	"/>
	<polygon class="st18" points="56.4,100.9 55.9,99.3 54.6,98.4 53.5,97.7 50.8,97.2 47.8,97.8 51.7,98.1 54.5,98.9 54.6,98.9 	"/>
	<polygon class="st18" points="37.7,97.1 41.5,98.7 38.7,96.3 33.9,95.4 31.2,96.3 34.6,96.5 	"/>
	<polygon class="st18" points="43.3,104.9 40.9,106.1 43.5,105.5 45.6,105.9 48,107 49.9,107.8 47.9,106.3 45.3,104.8 	"/>
</g>
</svg>
