<?xml version="1.0" encoding="utf-8"?>
<!-- Generator: Adobe Illustrator 22.1.0, SVG Export Plug-In . SVG Version: 6.00 Build 0)  -->
<svg version="1.0" id="Layer_1" xmlns="http://www.w3.org/2000/svg" xmlns:xlink="http://www.w3.org/1999/xlink" x="0px" y="0px"
	 viewBox="0 0 220 220" style="enable-background:new 0 0 220 220;" xml:space="preserve">
<style type="text/css">
	.st0{display:none;}
	.st1{display:inline;}
	.st2{clip-path:url(#SVGID_2_);fill:#5F44A3;}
	.st3{clip-path:url(#SVGID_4_);fill:#6655C5;}
	.st4{fill:#5A2AA3;}
	.st5{clip-path:url(#SVGID_6_);fill:#4D1261;}
	.st6{clip-path:url(#SVGID_8_);fill:#460045;}
	.st7{clip-path:url(#SVGID_10_);fill:#7378F5;}
	.st8{clip-path:url(#SVGID_12_);fill:#6C68D3;}
	.st9{fill:#5F36B7;}
	.st10{clip-path:url(#SVGID_14_);fill:#562C84;}
	.st11{clip-path:url(#SVGID_16_);fill:#511E6D;}
	.st12{clip-path:url(#SVGID_18_);fill:#7378F5;}
	.st13{clip-path:url(#SVGID_20_);fill:#6C68D3;}
	.st14{clip-path:url(#SVGID_22_);fill:#562C84;}
	.st15{clip-path:url(#SVGID_24_);fill:#511E6D;}
	.st16{clip-path:url(#SVGID_26_);fill:#7449E8;}
	.st17{clip-path:url(#SVGID_28_);fill:#765BEF;}
	.st18{fill:#682BDC;}
	.st19{clip-path:url(#SVGID_30_);fill:#5A1C92;}
	.st20{clip-path:url(#SVGID_32_);fill:#540E78;}
	.st21{clip-path:url(#SVGID_34_);fill:#735FF5;}
	.st22{clip-path:url(#SVGID_36_);fill:#6C33D3;}
	.st23{fill:#5F37B7;}
	.st24{clip-path:url(#SVGID_38_);fill:#561F84;}
	.st25{clip-path:url(#SVGID_40_);fill:#51096D;}
	.st26{fill:none;}
	.st27{fill:#FFB0A2;}
	.st28{fill:#FFCCC3;}
	.st29{fill:#FFE6D5;}
	.st30{fill:#FFC8B7;}
	.st31{fill:#A14A53;}
	.st32{fill:#BB586A;}
	.st33{fill:#B24F5B;}
	.st34{fill:#B84445;}
</style>
<g class="st0">
	<g class="st1">
		<g>
			<g>
				<defs>
					<polygon id="SVGID_1_" points="114.3,87.6 118.4,117.4 115.5,147.8 119.6,165.5 116,168.7 119.4,177 112.2,192 101.4,196.5 
						92.5,192.8 88.6,181.2 93.9,167.1 97.9,164.3 97.1,159.8 102.6,142.8 107.7,128.4 106.9,106 101.3,84.4 					"/>
				</defs>
				<clipPath id="SVGID_2_">
					<use xlink:href="#SVGID_1_"  style="overflow:visible;"/>
				</clipPath>
				<polygon class="st2" points="114.3,87.6 118.4,117.4 115.5,147.8 119.6,165.5 116,168.7 119.4,177 112.2,192 101.4,196.5 
					92.5,192.8 88.6,181.2 93.9,167.1 97.9,164.3 97.1,159.8 102.6,142.8 107.7,128.4 106.9,106 101.3,84.4 				"/>
			</g>
			<g>
				<defs>
					<polygon id="SVGID_3_" points="114.3,87.6 118.4,117.4 115.5,147.8 119.6,165.5 116,168.7 119.4,177 112.2,192 101.4,196.5 
						92.5,192.8 88.6,181.2 93.9,167.1 97.9,164.3 97.1,159.8 102.6,142.8 107.7,128.4 106.9,106 101.3,84.4 					"/>
				</defs>
				<clipPath id="SVGID_4_">
					<use xlink:href="#SVGID_3_"  style="overflow:visible;"/>
				</clipPath>
				<path class="st3" d="M106.3,96.4c0,0,1.9,7.2,2.2,7.9c0.3,0.7,1.2,13.3,1.2,13.3l-1.3,15.1l-3.7,15.7l-3.8,9l-2,3l0.6,4.2
					l-4,3.8l-4.1,8.3l-0.4,7.9l5.2,12.7L86,192.9l-7.8-22.2l11.2-38.6l13.2-25.9l-1.6-9L106.3,96.4z"/>
			</g>
		</g>
		<polygon class="st4" points="137.2,94.4 131.7,99.3 125.6,96 119.2,96.9 115.9,99.4 106.9,98.6 101.4,101.3 94.9,104.3 
			85.9,105.5 81.6,102 97.8,83.6 113.9,84.7 		"/>
		<g>
			<g>
				<defs>
					<polygon id="SVGID_5_" points="137.5,95.8 130,58 125.8,43.8 107.1,12.5 95.8,4.5 83.9,10.6 79.4,21.2 73.5,53.6 78.5,89.8 
						80.1,101.7 85.9,105.5 94.2,102.1 98.1,94.3 103.4,91.7 111.1,95.2 117.1,96.7 120.7,92.8 125.5,91 129.4,92.7 132.2,96.1 
											"/>
				</defs>
				<clipPath id="SVGID_6_">
					<use xlink:href="#SVGID_5_"  style="overflow:visible;"/>
				</clipPath>
				<polygon class="st5" points="137.5,95.8 130,58 125.8,43.8 107.1,12.5 95.8,4.5 84.4,9.4 79.4,21.2 73.5,53.6 78.5,89.8 
					80.1,101.7 85.9,105.5 94.2,102.1 98.1,94.3 103.4,91.7 111.1,95.2 117.1,96.7 120.7,92.8 125.5,91 129.4,92.7 132.2,96.1 				
					"/>
			</g>
			<g>
				<defs>
					<polygon id="SVGID_7_" points="137.5,95.8 130,58 125.8,43.8 107.1,12.5 95.8,4.5 83.9,10.6 79.4,21.2 73.5,53.6 78.5,89.8 
						80.1,101.7 85.9,105.5 94.2,102.1 98.1,94.3 103.4,91.7 111.1,95.2 117.1,96.7 120.7,92.8 125.5,91 129.4,92.7 132.2,96.1 
											"/>
				</defs>
				<clipPath id="SVGID_8_">
					<use xlink:href="#SVGID_7_"  style="overflow:visible;"/>
				</clipPath>
				<polygon class="st6" points="94.4,-2.4 101.2,3.3 93.9,9.8 88.2,32.6 87.5,46.6 85.5,60.3 90.8,81.7 103.3,101.9 84.4,110.4 
					65,78.6 62.7,8.5 				"/>
			</g>
		</g>
		<polygon class="st4" points="109.1,22.6 104.9,19 97.8,17.9 90.4,20.9 86.5,24.2 90.8,23.4 98.2,21 103.6,20.3 		"/>
		<polygon class="st4" points="117.4,35.9 109.9,34.6 103.9,35.4 98.5,37.3 102.3,36.8 107.9,36.1 114,36.4 		"/>
		<polygon class="st4" points="84.3,49.9 89.5,46.8 94.6,46.2 98.8,47.9 94,47.4 91.4,47.8 87.2,49.5 		"/>
		<polygon class="st4" points="118.8,52.2 113,50.8 106.1,51.7 99.7,54.8 96.5,58.7 100,57 104.1,54.8 109.5,52.5 112.5,52.1 		"/>
		<polygon class="st4" points="98.8,68.6 94.1,67.5 89.7,68.1 85.6,70.4 84.6,73.1 87.7,70 92.5,68.9 		"/>
		<polygon class="st4" points="125.9,67.5 121.5,65.9 113.7,67 109,70.6 115.3,68.2 120.4,67.5 		"/>
		<polygon class="st4" points="109.5,82.7 105.6,80.6 102.4,80.1 98,82.5 94.7,84.7 97.8,83.6 101.8,82 105.3,81.5 		"/>
	</g>
	<g class="st1">
		<g>
			<g>
				<defs>
					<polygon id="SVGID_9_" points="83.5,131 83.5,155.2 89.1,179.2 87.7,193.7 90.9,195.8 89.1,202.8 96.5,214 105.6,216.4 
						112.2,212.5 114,202.8 108.3,192.2 104.8,190.4 105,186.7 98.8,173.7 93.2,162.8 91.3,145 93.5,127.1 					"/>
				</defs>
				<clipPath id="SVGID_10_">
					<use xlink:href="#SVGID_9_"  style="overflow:visible;"/>
				</clipPath>
				<polygon class="st7" points="83.5,131 83.5,155.2 89.1,179.2 87.7,193.7 90.9,195.8 89.1,202.8 96.5,214 105.6,216.4 
					112.2,212.5 114,202.8 108.3,192.2 104.8,190.4 105,186.7 98.8,173.7 93.2,162.8 91.3,145 93.5,127.1 				"/>
			</g>
			<g>
				<defs>
					<polygon id="SVGID_11_" points="83.5,131 83.5,155.2 89.1,179.2 87.7,193.7 90.9,195.8 89.1,202.8 96.5,214 105.6,216.4 
						112.2,212.5 114,202.8 108.3,192.2 104.8,190.4 105,186.7 98.8,173.7 93.2,162.8 91.3,145 93.5,127.1 					"/>
				</defs>
				<clipPath id="SVGID_12_">
					<use xlink:href="#SVGID_11_"  style="overflow:visible;"/>
				</clipPath>
				<path class="st8" d="M90.8,137.2c0,0-0.7,5.9-0.9,6.5c-0.2,0.6,0.5,10.7,0.5,10.7l2.7,11.8l4.6,12.1l4,6.7l1.9,2.2v3.4l3.6,2.6
					l4.2,6.1l1.2,6.3l-2.8,10.7l7.7-4.6l3.8-18.5l-13.1-29.5l-13.3-19.2l0.3-7.3H90.8z"/>
			</g>
		</g>
		<polygon class="st9" points="66,139 70.9,142.2 75.4,139 80.5,139 83.5,140.6 90.6,139 95.2,140.6 100.7,142.2 108,142.2 111,139 
			96.2,126.1 83.5,128.7 		"/>
		<g>
			<g>
				<defs>
					<polygon id="SVGID_13_" points="65.9,140.1 67.7,109.2 69.5,97.4 81,70.5 89.2,62.9 99.3,66.5 104.1,74.4 112.2,99.6 
						112.2,128.9 112.2,138.6 108,142.2 101,140.4 97.1,134.7 92.5,133.2 86.8,136.8 82.3,138.6 78.9,135.9 74.9,135 72,136.8 
						70.1,139.8 					"/>
				</defs>
				<clipPath id="SVGID_14_">
					<use xlink:href="#SVGID_13_"  style="overflow:visible;"/>
				</clipPath>
				<polygon class="st10" points="65.9,140.1 67.7,109.2 69.5,97.4 81,70.5 89.2,62.9 98.8,65.6 104.1,74.4 112.2,99.6 112.2,128.9 
					112.2,138.6 108,142.2 101,140.4 97.1,134.7 92.5,133.2 86.8,136.8 82.3,138.6 78.9,135.9 74.9,135 72,136.8 70.1,139.8 				"/>
			</g>
			<g>
				<defs>
					<polygon id="SVGID_15_" points="65.9,140.1 67.7,109.2 69.5,97.4 81,70.5 89.2,62.9 99.3,66.5 104.1,74.4 112.2,99.6 
						112.2,128.9 112.2,138.6 108,142.2 101,140.4 97.1,134.7 92.5,133.2 86.8,136.8 82.3,138.6 78.9,135.9 74.9,135 72,136.8 
						70.1,139.8 					"/>
				</defs>
				<clipPath id="SVGID_16_">
					<use xlink:href="#SVGID_15_"  style="overflow:visible;"/>
				</clipPath>
				<polygon class="st11" points="89.5,57.2 84.7,62.5 91.3,66.9 98.3,84.5 100.4,95.5 103.4,106.2 101.5,123.8 93.7,141.3 
					109.7,146 121.8,118.5 116,62.5 				"/>
			</g>
		</g>
		<polygon class="st9" points="80.5,78.8 83.5,75.4 89.1,73.8 95.2,75.4 98.8,77.6 95.2,77.4 89.1,76.3 84.7,76.3 		"/>
		<polygon class="st9" points="75.4,90.3 81.2,88.4 86.1,88.4 90.6,89.3 87.5,89.3 83,89.3 78.2,90.3 		"/>
		<polygon class="st9" points="103.2,97.8 98.8,95.9 94.7,95.9 91.5,97.8 95.2,96.9 97.4,96.9 100.9,97.8 		"/>
		<polygon class="st9" points="76,103.3 80.5,101.6 86.1,101.6 91.5,103.3 94.5,106.1 91.5,105.2 88.1,103.9 83.5,102.6 81.1,102.6 
					"/>
		<polygon class="st9" points="93.7,114.3 97.4,112.9 100.9,112.9 104.4,114.3 105.5,116.3 102.7,114.2 98.8,113.8 		"/>
		<polygon class="st9" points="72.1,116.3 75.4,114.6 81.7,114.6 85.8,116.9 80.5,115.8 76.4,115.8 		"/>
		<polygon class="st9" points="86.8,126.6 89.6,124.5 92.1,123.8 95.9,125.2 98.8,126.6 96.2,126.1 92.8,125.2 89.9,125.2 		"/>
	</g>
	<g class="st1">
		<g>
			<g>
				<defs>
					<polygon id="SVGID_17_" points="144.9,103.3 135.9,128.7 132.9,155.8 126.1,170.5 128.6,173.9 124.2,180.5 127.8,195 
						136.4,200.9 144.8,199.3 150.3,189.8 148.2,176.6 145.2,173.4 146.8,169.6 145.1,153.7 143.3,140.2 148,120.8 156.8,102.9 
											"/>
				</defs>
				<clipPath id="SVGID_18_">
					<use xlink:href="#SVGID_17_"  style="overflow:visible;"/>
				</clipPath>
				<polygon class="st12" points="144.9,103.3 135.9,128.7 132.9,155.8 126.1,170.5 128.6,173.9 124.2,180.5 127.8,195 136.4,200.9 
					144.8,199.3 150.3,189.8 148.2,176.6 145.2,173.4 146.8,169.6 145.1,153.7 143.3,140.2 148,120.8 156.8,102.9 				"/>
			</g>
			<g>
				<defs>
					<polygon id="SVGID_19_" points="144.9,103.3 135.9,128.7 132.9,155.8 126.1,170.5 128.6,173.9 124.2,180.5 127.8,195 
						136.4,200.9 144.8,199.3 150.3,189.8 148.2,176.6 145.2,173.4 146.8,169.6 145.1,153.7 143.3,140.2 148,120.8 156.8,102.9 
											"/>
				</defs>
				<clipPath id="SVGID_20_">
					<use xlink:href="#SVGID_19_"  style="overflow:visible;"/>
				</clipPath>
				<path class="st13" d="M150.3,112.5c0,0-3,6-3.4,6.5s-3.5,11.4-3.5,11.4l-1.6,13.4l0.3,14.4l1.6,8.5l1.2,3l-1.2,3.5l2.8,4l2.1,8
					l-1.1,7l-6.9,10.2l9.8-1.9l10.8-18l-2.7-35.8l-6.8-25.1l3-7.6L150.3,112.5z"/>
			</g>
		</g>
		<polygon class="st9" points="123.7,105.2 127.6,110.4 133.5,108.7 138.9,110.6 141.4,113.4 149.4,114.3 153.7,117.7 158.8,121.5 
			166.4,124.2 170.8,121.9 160,102.9 145.8,100.9 		"/>
		<g>
			<g>
				<defs>
					<polygon id="SVGID_21_" points="123.2,106.3 136.5,74.7 142.8,63 164.8,39.1 176.2,34.2 185.4,41.7 187.5,51.7 186.7,81.1 
						175.8,111.8 172.2,121.9 166.4,124.2 159.8,119.7 157.8,112.2 153.6,108.9 146.3,110.6 140.8,110.8 138.4,106.7 134.5,104.3 
						130.7,105.1 127.7,107.6 					"/>
				</defs>
				<clipPath id="SVGID_22_">
					<use xlink:href="#SVGID_21_"  style="overflow:visible;"/>
				</clipPath>
				<polygon class="st14" points="123.2,106.3 136.5,74.7 142.8,63 164.8,39.1 176.2,34.2 185.2,40.5 187.5,51.7 186.7,81.1 
					175.8,111.8 172.2,121.9 166.4,124.2 159.8,119.7 157.8,112.2 153.6,108.9 146.3,110.6 140.8,110.8 138.4,106.7 134.5,104.3 
					130.7,105.1 127.7,107.6 				"/>
			</g>
			<g>
				<defs>
					<polygon id="SVGID_23_" points="123.2,106.3 136.5,74.7 142.8,63 164.8,39.1 176.2,34.2 185.4,41.7 187.5,51.7 186.7,81.1 
						175.8,111.8 172.2,121.9 166.4,124.2 159.8,119.7 157.8,112.2 153.6,108.9 146.3,110.6 140.8,110.8 138.4,106.7 134.5,104.3 
						130.7,105.1 127.7,107.6 					"/>
				</defs>
				<clipPath id="SVGID_24_">
					<use xlink:href="#SVGID_23_"  style="overflow:visible;"/>
				</clipPath>
				<polygon class="st15" points="178.6,28.3 171.7,32.1 176.9,39.1 177.7,60.1 175.8,72.5 175,84.8 166.5,102.5 151.9,117.9 
					166.9,128.8 189.6,104.5 204.3,43.7 				"/>
			</g>
		</g>
		<polygon class="st9" points="161.2,47.5 165.6,45.1 172,45.5 177.9,49.5 180.7,53.1 177.1,51.5 171.1,48.1 166.5,46.5 		"/>
		<polygon class="st9" points="151.6,57.7 158.3,57.9 163.5,59.7 167.8,62.3 164.6,61.2 159.9,59.5 154.5,58.7 		"/>
		<polygon class="st9" points="178,75.9 173.9,72.3 169.7,70.8 165.7,71.5 169.9,71.9 172.1,72.7 175.5,75 		"/>
		<polygon class="st9" points="147.4,71.6 152.8,71.5 158.6,73.5 163.6,77.3 165.7,81.4 162.9,79.3 159.8,76.6 155.5,73.6 153,72.7 
					"/>
		<polygon class="st9" points="161.9,89.6 166.2,89.5 170,90.8 173.1,93.6 173.4,96.1 171.4,92.9 167.3,91 		"/>
		<polygon class="st9" points="138.5,83.7 142.6,83.1 149.2,85.5 152.6,89.5 147.5,86.3 143.2,84.7 		"/>
		<polygon class="st9" points="150,99.9 153.8,98.8 156.6,99 160.1,101.9 162.6,104.4 160,102.9 156.8,100.7 153.8,99.7 		"/>
	</g>
	<g class="st1">
		<g>
			<g>
				<defs>
					<polygon id="SVGID_25_" points="186.6,146.9 190,165.2 189.1,184 192.1,194.8 190,196.8 192.3,201.8 188.3,211.3 181.8,214.4 
						176.2,212.4 173.5,205.3 176.3,196.5 178.7,194.7 178.1,191.9 181,181.2 183.7,172.2 182.6,158.5 178.5,145.3 					"/>
				</defs>
				<clipPath id="SVGID_26_">
					<use xlink:href="#SVGID_25_"  style="overflow:visible;"/>
				</clipPath>
				<polygon class="st16" points="186.6,146.9 190,165.2 189.1,184 192.1,194.8 190,196.8 192.3,201.8 188.3,211.3 181.8,214.4 
					176.2,212.4 173.5,205.3 176.3,196.5 178.7,194.7 178.1,191.9 181,181.2 183.7,172.2 182.6,158.5 178.5,145.3 				"/>
			</g>
			<g>
				<defs>
					<polygon id="SVGID_27_" points="186.6,146.9 190,165.2 189.1,184 192.1,194.8 190,196.8 192.3,201.8 188.3,211.3 181.8,214.4 
						176.2,212.4 173.5,205.3 176.3,196.5 178.7,194.7 178.1,191.9 181,181.2 183.7,172.2 182.6,158.5 178.5,145.3 					"/>
				</defs>
				<clipPath id="SVGID_28_">
					<use xlink:href="#SVGID_27_"  style="overflow:visible;"/>
				</clipPath>
				<path class="st17" d="M181.9,152.6c0,0,1.4,4.4,1.6,4.8s1.1,8.2,1.1,8.2l-0.4,9.3l-1.8,9.8l-2.1,5.6l-1.1,1.9l0.5,2.5l-2.4,2.4
					l-2.3,5.2v4.9l3.6,7.7l-6.5-2.4l-5.4-13.5l5.8-24.1l7.4-16.3l-1.2-5.5L181.9,152.6z"/>
			</g>
		</g>
		<polygon class="st18" points="200.9,150.5 197.7,153.6 193.8,151.8 189.9,152.5 187.9,154.2 182.4,153.9 179.1,155.8 175.1,157.8 
			169.7,158.8 166.9,156.7 176.3,145 186.3,145.2 		"/>
		<g>
			<g>
				<defs>
					<polygon id="SVGID_29_" points="201.1,151.3 195.5,128.3 192.5,119.6 180.1,100.9 172.8,96.3 165.7,100.4 163.2,107.1 
						160.6,127.1 164.6,149.3 166,156.6 169.7,158.8 174.7,156.4 176.8,151.5 180.1,149.8 184.9,151.7 188.6,152.5 190.7,149.9 
						193.6,148.7 196.1,149.7 197.9,151.7 					"/>
				</defs>
				<clipPath id="SVGID_30_">
					<use xlink:href="#SVGID_29_"  style="overflow:visible;"/>
				</clipPath>
				<polygon class="st19" points="201.1,151.3 195.5,128.3 192.5,119.6 180.1,100.9 172.8,96.3 166,99.6 163.2,107.1 160.6,127.1 
					164.6,149.3 166,156.6 169.7,158.8 174.7,156.4 176.8,151.5 180.1,149.8 184.9,151.7 188.6,152.5 190.7,149.9 193.6,148.7 
					196.1,149.7 197.9,151.7 				"/>
			</g>
			<g>
				<defs>
					<polygon id="SVGID_31_" points="201.1,151.3 195.5,128.3 192.5,119.6 180.1,100.9 172.8,96.3 165.7,100.4 163.2,107.1 
						160.6,127.1 164.6,149.3 166,156.6 169.7,158.8 174.7,156.4 176.8,151.5 180.1,149.8 184.9,151.7 188.6,152.5 190.7,149.9 
						193.6,148.7 196.1,149.7 197.9,151.7 					"/>
				</defs>
				<clipPath id="SVGID_32_">
					<use xlink:href="#SVGID_31_"  style="overflow:visible;"/>
				</clipPath>
				<polygon class="st20" points="171.8,92.1 176.2,95.4 171.9,99.6 169,113.8 168.9,122.5 168.1,131 172,144 180.3,156.1 
					168.9,161.9 156,142.8 152.6,99.7 				"/>
			</g>
		</g>
		<polygon class="st18" points="181.6,107.1 178.9,104.9 174.5,104.5 170,106.6 167.7,108.7 170.3,108.1 174.8,106.4 178.1,105.8 		
			"/>
		<polygon class="st18" points="187.1,115 182.4,114.4 178.7,115.1 175.5,116.4 177.8,116 181.2,115.4 185,115.4 		"/>
		<polygon class="st18" points="167.1,124.6 170.2,122.6 173.3,122 176,122.9 173,122.8 171.4,123.1 168.9,124.2 		"/>
		<polygon class="st18" points="188.4,125 184.8,124.3 180.6,125.1 176.7,127.1 174.8,129.6 177,128.5 179.4,127.1 182.7,125.4 
			184.5,125.1 		"/>
		<polygon class="st18" points="176.5,135.7 173.6,135.1 170.9,135.6 168.5,137.2 168,138.8 169.7,136.9 172.7,136.1 		"/>
		<polygon class="st18" points="193.2,134.2 190.4,133.4 185.7,134.3 182.9,136.6 186.7,135 189.8,134.4 		"/>
		<polygon class="st18" points="183.5,144 181.1,142.9 179.1,142.7 176.4,144.3 174.5,145.7 176.3,145 178.8,143.8 180.9,143.4 		
			"/>
	</g>
	<g class="st1">
		<g>
			<g>
				<defs>
					<polygon id="SVGID_33_" points="37.8,109 34.4,127.3 35.3,146.1 32.3,156.9 34.4,158.9 32.1,163.9 36.1,173.4 42.6,176.5 
						48.2,174.4 50.9,167.4 48,158.6 45.7,156.7 46.3,154 43.4,143.3 40.7,134.3 41.8,120.6 45.8,107.4 					"/>
				</defs>
				<clipPath id="SVGID_34_">
					<use xlink:href="#SVGID_33_"  style="overflow:visible;"/>
				</clipPath>
				<polygon class="st21" points="37.8,109 34.4,127.3 35.3,146.1 32.3,156.9 34.4,158.9 32.1,163.9 36.1,173.4 42.6,176.5 
					48.2,174.4 50.9,167.4 48,158.6 45.7,156.7 46.3,154 43.4,143.3 40.7,134.3 41.8,120.6 45.8,107.4 				"/>
			</g>
			<g>
				<defs>
					<polygon id="SVGID_35_" points="37.8,109 34.4,127.3 35.3,146.1 32.3,156.9 34.4,158.9 32.1,163.9 36.1,173.4 42.6,176.5 
						48.2,174.4 50.9,167.4 48,158.6 45.7,156.7 46.3,154 43.4,143.3 40.7,134.3 41.8,120.6 45.8,107.4 					"/>
				</defs>
				<clipPath id="SVGID_36_">
					<use xlink:href="#SVGID_35_"  style="overflow:visible;"/>
				</clipPath>
				<path class="st22" d="M42.4,114.7c0,0-1.4,4.4-1.6,4.8c-0.2,0.4-1.1,8.2-1.1,8.2l0.4,9.3l1.8,9.8l2.1,5.6l1.1,1.9l-0.5,2.5
					l2.4,2.4l2.3,5.2v4.9l-3.6,7.7l6.5-2.4l5.4-13.5L51.8,137l-7.4-16.3l1.2-5.5L42.4,114.7z"/>
			</g>
		</g>
		<polygon class="st23" points="23.5,112.6 26.7,115.7 30.6,113.9 34.4,114.6 36.4,116.2 42,116 45.3,117.8 49.2,119.8 54.7,120.8 
			57.5,118.8 48,107 38.1,107.2 		"/>
		<g>
			<g>
				<defs>
					<polygon id="SVGID_37_" points="23.3,113.4 28.9,90.4 31.9,81.7 44.3,63 51.5,58.4 58.7,62.5 61.1,69.1 63.8,89.2 59.8,111.4 
						58.4,118.7 54.7,120.8 49.7,118.5 47.5,113.6 44.3,111.8 39.5,113.8 35.8,114.5 33.7,112 30.8,110.8 28.3,111.7 26.5,113.8 
											"/>
				</defs>
				<clipPath id="SVGID_38_">
					<use xlink:href="#SVGID_37_"  style="overflow:visible;"/>
				</clipPath>
				<polygon class="st24" points="23.3,113.4 28.9,90.4 31.9,81.7 44.3,63 51.5,58.4 58.4,61.7 61.1,69.1 63.8,89.2 59.8,111.4 
					58.4,118.7 54.7,120.8 49.7,118.5 47.5,113.6 44.3,111.8 39.5,113.8 35.8,114.5 33.7,112 30.8,110.8 28.3,111.7 26.5,113.8 				
					"/>
			</g>
			<g>
				<defs>
					<polygon id="SVGID_39_" points="23.3,113.4 28.9,90.4 31.9,81.7 44.3,63 51.5,58.4 58.7,62.5 61.1,69.1 63.8,89.2 59.8,111.4 
						58.4,118.7 54.7,120.8 49.7,118.5 47.5,113.6 44.3,111.8 39.5,113.8 35.8,114.5 33.7,112 30.8,110.8 28.3,111.7 26.5,113.8 
											"/>
				</defs>
				<clipPath id="SVGID_40_">
					<use xlink:href="#SVGID_39_"  style="overflow:visible;"/>
				</clipPath>
				<polygon class="st25" points="52.6,54.1 48.2,57.5 52.5,61.7 55.4,75.9 55.4,84.5 56.2,93 52.4,106.1 44.1,118.1 55.5,123.9 
					68.4,104.9 71.8,61.8 				"/>
			</g>
		</g>
		<polygon class="st23" points="42.8,69.1 45.5,67 49.9,66.6 54.3,68.6 56.7,70.8 54.1,70.1 49.6,68.5 46.3,67.8 		"/>
		<polygon class="st23" points="37.3,77.1 41.9,76.5 45.6,77.2 48.9,78.5 46.6,78.1 43.2,77.5 39.4,77.5 		"/>
		<polygon class="st23" points="57.3,86.6 54.2,84.6 51.1,84.1 48.4,85 51.4,84.8 53,85.1 55.5,86.3 		"/>
		<polygon class="st23" points="36,87.1 39.6,86.4 43.8,87.2 47.7,89.2 49.6,91.7 47.4,90.6 45,89.1 41.7,87.5 39.9,87.2 		"/>
		<polygon class="st23" points="47.8,97.8 50.8,97.2 53.5,97.7 55.9,99.3 56.4,100.9 54.6,98.9 51.7,98.1 		"/>
		<polygon class="st23" points="31.2,96.3 33.9,95.4 38.7,96.3 41.5,98.7 37.7,97.1 34.6,96.5 		"/>
		<polygon class="st23" points="40.9,106.1 43.3,104.9 45.3,104.8 47.9,106.3 49.9,107.8 48,107 45.6,105.9 43.5,105.5 		"/>
	</g>
</g>
<g>
	<polygon class="st26" points="148,148.9 146.4,147.6 146.4,150.1 	"/>
	<path class="st26" d="M75.1,117.3l-2.1,1.4l2.8,10.7l2.7,11.4c0,0,0,0.1,0.1,0.3l3.3-12l-5.8-13.3L75.1,117.3z"/>
	<polygon class="st27" points="130.4,156.9 130.2,156.5 129,160.5 	"/>
	<polygon class="st27" points="139,124.5 143.1,140.4 146.7,138.5 146.9,129.6 153.6,112.3 145.6,114.8 	"/>
	<polygon class="st27" points="117.1,149.7 121.2,146.4 122.1,146.4 120.8,137.6 119.9,140.6 	"/>
	<path class="st27" d="M135.7,165.6l1.6-8.5l8.5-6.6l0.6-0.4l0.1-2.5l-1.9-1.5l0,0l0.1,0.4l-7.2,6.8l-4.2,0v3.6l-4.3,3.9l-0.3,1.1
		l-6.1,10.8l-5.7,5.4l-6.2,6.4l-7.8,2.4l1.7-6.2l1.1-1.1c-1.4-1.9-2.8-3.7-3.1-3.8c-0.5-0.2-5.5-12.6-5.5-12.6l-1.2-16.4l-0.8-6
		l-0.8,1.5l-0.9-5.9l-11.3-7l-0.1-0.3l-3.3,12c0.7,2.1,4.6,14.2,5.1,15c0.5,0.8,1.5,12.6,1.5,12.6l-3.3,9.6l0-0.1l1.2,8.7l16.2,16
		l18.7-1.7l17.1-14.3l2.9-15.1l-6,2L135.7,165.6z"/>
	<polygon class="st27" points="100.5,130.8 101.6,130.8 106.9,132.9 107.2,130.8 106.3,125.8 102.8,125.8 102.8,121.4 110.8,111.4 
		117.2,110.4 116.6,109.5 114.4,109.4 112.4,106.8 94.8,104.2 93.3,103.5 101,117.3 	"/>
	<polygon class="st27" points="111.1,173.7 112.7,172 117.8,161.7 118.8,153.5 118.6,153.6 115.1,156.9 115.1,153.7 107.6,161.3 
		110.1,170.4 	"/>
	<path class="st28" d="M79.2,111.3l-3.1,4.5l5.8,13.3l0.1,0.3l11.3,7l-0.1-0.8l4.5-4.8h2.8l0.5-13.5l-7.7-13.8L83,98.6l2.3-3.1
		l-4.9-0.2l-2.9-11.9l-0.9-2.2l-0.3,2.2l2.3,11.2l5.9,18.7l-3.2-5.3l-3.8-14l-3.2-12.7l0.9-3.8l-0.1,0.1v-7.5l3.7-6.9l2.6-1.2
		l2.7-6.2l-1-4.1L78.7,45l3.8,2.9l2.9,4.8l-0.1,4.5c0,0-1,2.1-1.9,3.8l21.5-10.1l28.7-3.8l14.7,1.2l-2.8-1.9l-12.8-1.8l-15.5-3.7
		l-26.4-1.5l-24.9,3.7l-29,6.1l-13.5,8.6l-3.8,9l1.7,7l3.4,7.2l1.1,3.4l4.8-1L29.2,87L42,89.4l17.6-2.1l2.6,2.1l2.4-0.5l2,1.7
		l4.6,12.5l3.9,2.9L79.2,111.3z M57.6,51.4l1,1.4c0,0,0.1,5.4-0.4,6.4s0.7,3.4,0.7,3.4l3.7,4.4l5.4,3.8l0.8,2.9l2.4,5.5l-3.9-6.3
		l-6.5-5.6l-4-5.5L57.6,51.4z M71.8,89.3l-4.7-7.6l-11-4.6l-9.4-2.5l-10.1-5.7l-1.4-6.8l0.3-6.2l2.1,7.6l3.2,4.6l9.2,5.3l6.9,1
		l11,5.1l5,8.3l1.9,9.3L71.8,89.3z"/>
	<polygon class="st27" points="67.9,79.5 56.9,74.4 50,73.4 40.8,68.1 37.6,63.5 35.5,55.9 35.2,62.1 36.6,68.9 46.7,74.6 
		56.1,77.1 67.1,81.7 71.8,89.3 74.8,97.1 72.9,87.8 	"/>
	<path class="st27" d="M85.4,52.7l-2.9-4.8L78.7,45l4.4,6.7l1,4.1L81.4,62l2-1c0.8-1.7,1.9-3.8,1.9-3.8L85.4,52.7z"/>
	<polygon class="st27" points="74.3,81.3 77.5,94 81.3,108 84.5,113.3 78.6,94.6 76.3,83.4 76.6,81.2 75.2,77.5 75.2,77.5 	"/>
	<path class="st27" d="M67.3,72.9l3.9,6.3l-2.4-5.5L68,70.8L62.6,67l-3.7-4.4c0,0-1.2-2.4-0.7-3.4s0.4-6.4,0.4-6.4l-1-1.4l-0.8,10.4
		l4,5.5L67.3,72.9z"/>
	<polygon class="st29" points="149.6,150.1 148,148.9 146.4,150.1 145.8,150.5 137.3,157.1 135.7,165.6 132,173.8 138,171.8 
		143.4,170 153.5,162.3 158.5,150.9 157.1,151.7 	"/>
	<path class="st29" d="M200.1,89.6l5.8-3.4l-0.7-6.2l-13.7-8.2l-29.1-5.5l-25-3.1L111,65.3l-13.3,1.9l-14.8,4.2l-3.4,2.4l-4.3,3.7
		l1.4,3.7l0.9,2.2l2.9,11.9l4.9,0.2L83,98.6l10.3,4.9l1.5,0.7l17.6,2.6l2,2.6l2.2,0.1l0.6,0.9l2.3-0.3l6.5,4.7l-0.6-3.5l-3.1-8.2
		l-9.8-6.8l-8.8-4.3l-8.8-7.6v-7l1.6-6l0.5,7.9l2.2,5.1l8,7.1l6.6,2.4l9.7,7.2l3.3,9v5.3l2.7,1.9v8.5l-2.4-1.6l-3.2,3.1l-3.1,10.3
		l1.3,8.8h5.5l5.6,4.9v2l4.2,0l7.2-6.8l-0.1-0.4l-5.7,1.7l-6.8-1.4l11.1-6l-4.1-15.9l6.6-9.7l8-2.5l1-0.3l7.4,0.5l30-13.5l2.2-2.8
		L200.1,89.6z M124.3,94.5l-5.3-6.8l-2.8-6.2l2.8-10.1l0.6,1.5c0,0-0.9,5.3-1.6,6.2c-0.7,0.9,0,3.5,0,3.5l2.8,5l4.5,4.9l0.3,3
		l1.2,5.9L124.3,94.5z M131.1,131.7l-0.9-14.5l-0.6-13.1l4.9-10.8l5.9-6.8l3.9-5.5l-0.1-4.2l-3-7.4l3,3.6l1.9,5.3l-1,4.4
		c0,0-3.7,4.8-4,5.1c-0.4,0.4-6.1,7.7-6.1,7.7l-3.9,11V118l2.1,19.5L131.1,131.7z M179,85.5l-4,4.6l-6.7,2.8l-10.7,4.3l-8.9,4.1
		l-10.7,8.1l-3,8.6v-6.7l3.9-6.9l4.4-4.3l10.9-4.6l7.2-2.3l8.4-3.8l4.7-2.1l2.9-2.9l2.5-3.4L179,85.5z"/>
	<polygon class="st30" points="118.8,118 114.6,120.4 109,122.7 107.2,125.8 106.3,125.8 107.2,130.8 106.9,132.9 108.3,133.4 
		110,139 108.6,137.2 106.2,143.1 106.6,157.6 107.6,161.3 115.1,153.7 115.1,151.3 117.1,149.7 119.9,140.6 120.8,137.6 
		123.9,127.3 127.1,124.2 122.8,121.3 	"/>
	<polygon class="st30" points="60.8,115.6 60.8,115.7 60.8,115.6 	"/>
	<path class="st30" d="M85.2,168.7c0,0-1-11.8-1.5-12.6c-0.5-0.7-4.4-12.8-5.1-15c-0.1-0.2-0.1-0.3-0.1-0.3l-2.7-11.4L73,118.7
		l2.1-1.4v-4.8l-3.4-3.9l-5.9,1.5l-2.5,1.2l-1,6.4l1.8,1.9l4.3,8.8l6.7,16.3l1,20.7l5.8,12.8l0,0.1L85.2,168.7z"/>
	<path class="st29" d="M110.1,170.4l-2.5-9.1l-1-3.7l-0.4-14.5l2.4-5.9l-1.4-1.6l-5.2-1l-3.6,1l-3,4.3l-0.4,0.9l0.8,6l1.2,16.4
		c0,0,5,12.4,5.5,12.6c0.2,0.1,1.6,1.9,3.1,3.8l5.5-5.8L110.1,170.4z"/>
	<polygon class="st30" points="129,160.5 130.2,156.5 128.1,152.3 124,150.8 118.8,153.5 117.8,161.7 112.7,172 111.1,173.7 
		105.6,179.6 104.5,180.7 102.8,186.9 110.6,184.5 116.8,178.1 122.5,172.7 128.6,161.9 128.9,160.8 128.9,160.8 	"/>
	<polygon class="st28" points="126.8,110.1 123.5,101.1 113.8,93.9 107.2,91.5 99.2,84.4 97,79.3 96.5,71.4 94.9,77.4 94.9,84.4 
		103.7,92 112.5,96.3 122.3,103.1 125.4,111.3 126,114.8 126.8,115.4 	"/>
	<polygon class="st28" points="174.5,87.3 169.8,89.4 161.4,93.2 154.2,95.5 143.3,100.1 138.9,104.4 135,111.3 135,118 138,109.4 
		148.7,101.3 157.6,97.2 168.3,92.9 175,90.1 179,85.5 179.9,81 177.4,84.4 	"/>
	<path class="st28" d="M131.1,106.5l3.9-11c0,0,5.7-7.3,6.1-7.7c0.3-0.3,4-5.1,4-5.1l1-4.4l-1.9-5.3l-3-3.6l3,7.4l0.1,4.2l-3.9,5.5
		l-5.9,6.8l-4.9,10.8l0.6,13.1l0.9,14.5l2.1,5.8l-2.1-19.5V106.5z"/>
	<path class="st28" d="M125.6,95.5l-0.3-3l-4.5-4.9l-2.8-5c0,0-0.7-2.6,0-3.5c0.7-0.9,1.6-6.2,1.6-6.2l-0.6-1.5l-2.8,10.1l2.8,6.2
		l5.3,6.8l2.5,6.9L125.6,95.5z"/>
	<polygon class="st31" points="21.3,73.8 19.6,66.8 23.4,57.8 36.9,49.2 65.9,43.1 90.8,39.4 117.2,40.9 132.7,44.6 145.5,46.4 
		148.3,48.3 152.8,48.7 154.7,45.9 149.4,38.1 123.1,26.4 94.2,23.3 60.1,26.8 38.9,32.1 23.1,43.4 14.2,56.9 12.7,68.6 20.3,78.3 
		25.8,84.4 24.7,81 	"/>
	<polygon class="st32" points="205.2,65.6 189.1,54.7 167.9,49.9 152.8,48.7 148.3,48.3 133.6,47.1 104.9,50.9 83.4,61 81.4,62 
		78.8,63.2 75.1,70.1 75.1,77.6 75.2,77.5 75.2,77.5 79.5,73.8 82.9,71.4 97.7,67.2 111,65.3 137.4,63.2 162.4,66.3 191.5,71.8 
		205.2,80 205.9,86.2 200.1,89.6 194.2,96.1 192,98.9 192,98.9 202.1,95.1 212.7,87.9 214.4,79 	"/>
	<polygon class="st33" points="132,146.4 138.8,147.8 144.5,146.1 144.5,146.1 146.4,147.6 148,148.9 149.6,150.1 157.1,151.7 
		158.5,150.9 161.7,149.1 162.2,152.9 168.9,155.7 177.3,153.7 175,146.4 164.2,136.6 150.1,136.6 146.7,138.5 143.1,140.4 	"/>
	<polygon class="st31" points="102.8,121.4 102.8,125.8 106.3,125.8 107.2,125.8 109,122.7 114.6,120.4 118.8,118 122.8,121.3 
		127.1,124.2 129.5,125.8 129.5,117.3 126.8,115.4 126,114.8 119.5,110.1 117.2,110.4 110.8,111.4 	"/>
	<polygon class="st31" points="65.8,110.1 71.7,108.6 75.1,112.5 75.1,117.3 76.1,115.8 79.2,111.3 75.1,106 71.2,103.1 71.1,103.1 
		62,106 59.9,112.5 60.8,115.6 60.8,115.7 62,119.6 62.3,117.7 63.3,111.3 	"/>
	<polygon class="st34" points="117.1,149.7 115.1,151.3 115.1,153.7 115.1,156.9 118.6,153.6 118.8,153.5 124,150.8 128.1,152.3 
		130.2,156.5 130.4,156.9 129,160.5 128.9,160.8 128.9,160.8 133.2,156.9 133.2,153.3 133.2,151.3 127.6,146.4 122.1,146.4 
		121.2,146.4 	"/>
	<polygon class="st32" points="98.4,135.6 102,134.6 107.2,135.6 108.6,137.2 110,139 108.3,133.4 106.9,132.9 101.6,130.8 
		100.5,130.8 97.7,130.8 93.2,135.6 93.3,136.4 94.2,142.3 95,140.8 95.4,139.9 	"/>
</g>
</svg>
