<?xml version="1.0" encoding="utf-8"?>
<!-- Generator: Adobe Illustrator 21.0.0, SVG Export Plug-In . SVG Version: 6.00 Build 0)  -->
<svg version="1.1" id="Layer_1" xmlns="http://www.w3.org/2000/svg" xmlns:xlink="http://www.w3.org/1999/xlink" x="0px" y="0px"
	 viewBox="0 0 220 220" style="enable-background:new 0 0 220 220;" xml:space="preserve">
<style type="text/css">
	.st0{fill:#C1CF91;}
	.st1{clip-path:url(#SVGID_2_);fill:#C1CF91;}
	.st2{clip-path:url(#SVGID_2_);fill:#A8B380;}
	.st3{fill:#A8B380;}
	.st4{clip-path:url(#SVGID_4_);fill:#78704D;}
	.st5{clip-path:url(#SVGID_4_);fill:#5E583D;}
	.st6{fill:#505425;}
	.st7{fill:#5CA12F;}
	.st8{fill:#D9E8A3;}
	.st9{clip-path:url(#SVGID_6_);fill:#D9E8A3;}
	.st10{clip-path:url(#SVGID_6_);fill:#C7D397;}
	.st11{fill:#C7D397;}
	.st12{clip-path:url(#SVGID_8_);fill:#898058;}
	.st13{clip-path:url(#SVGID_8_);fill:#776F4D;}
	.st14{fill:#61662D;}
	.st15{fill:#6EC138;}
	.st16{fill:#BAC495;}
	.st17{clip-path:url(#SVGID_10_);fill:#BAC495;}
	.st18{clip-path:url(#SVGID_10_);fill:#A9B08D;}
	.st19{fill:#A9B08D;}
	.st20{clip-path:url(#SVGID_12_);fill:#756F54;}
	.st21{clip-path:url(#SVGID_12_);fill:#69634B;}
	.st22{fill:#4E5228;}
	.st23{fill:#5E9639;}
</style>
<g>
	<g>
		<polygon class="st0" points="15,136.5 28.7,131.5 46.8,119.5 68.1,102.5 82.1,90.4 95.7,73.3 97.9,70.4 90.9,63.8 63.3,69.6 
			37.7,82.4 23.2,102.9 11.6,127.9 		"/>
		<g>
			<defs>
				<polygon id="SVGID_1_" points="69.3,131.2 80.1,146.3 93.9,163.6 95.7,169.6 104.4,182.4 107.2,183.9 111.2,182.1 112.9,178.3 
					117.6,176.2 119.1,173.1 125.2,170.2 126.6,167.6 128,163.8 117.2,151.7 111.1,149.6 95.8,131.8 84.1,117 				"/>
			</defs>
			<clipPath id="SVGID_2_">
				<use xlink:href="#SVGID_1_"  style="overflow:visible;"/>
			</clipPath>
			<polygon class="st1" points="69.3,131.2 80.1,146.3 93.9,163.6 95.7,169.6 104.4,182.4 107.2,183.9 111.2,182.1 112.9,178.3 
				117.6,176.2 119.1,173.1 125.2,170.2 126.6,167.6 128,163.8 117.2,151.7 111.1,149.6 95.8,131.8 84.1,117 			"/>
			<polygon class="st2" points="80.1,132.8 82.7,127.7 88.5,126.8 109.5,153.1 114.3,154.9 121.6,161.2 125.5,166 125.1,171 
				132.6,165.1 121,147.5 102.4,135.6 89.7,119.7 82.8,118 71,133.9 71.2,136.1 			"/>
		</g>
		<polygon class="st3" points="37.5,91.7 36.2,92.4 21.6,132.5 37.7,93 		"/>
		<polygon class="st3" points="43.4,95 42.5,96.1 49.3,116.2 44.2,96 		"/>
		<polygon class="st3" points="39.9,95.4 38.8,96.4 41.4,121.1 40.4,96.6 		"/>
		<polygon class="st3" points="38.6,93.5 37.3,94.2 33.1,128 38.9,94.8 		"/>
		<polygon class="st3" points="50.1,79.8 51.1,78.7 93.4,73.4 51.3,80.4 		"/>
		<polygon class="st3" points="52,86.3 53.3,85.7 71.4,96.8 52.8,87.3 		"/>
		<polygon class="st3" points="53.2,83 54.4,82.1 77.9,90.2 54.2,83.8 		"/>
		<polygon class="st3" points="51.6,81.3 52.6,80.2 86.5,83.6 52.8,81.9 		"/>
		<g>
			<defs>
				<polygon id="SVGID_3_" points="34.3,94 45.8,104.7 55.6,115 60,127.1 63.2,139.1 69.2,138.1 70.9,135.2 79.7,132 81.5,126 
					87.4,125.4 88.3,120.9 92,117.7 90.2,114.5 79.4,108.1 70.1,102.9 51.5,76.8 				"/>
			</defs>
			<clipPath id="SVGID_4_">
				<use xlink:href="#SVGID_3_"  style="overflow:visible;"/>
			</clipPath>
			<polygon class="st4" points="34.3,94 45.8,104.7 55.6,115 60,127.1 63.2,139.1 69.2,138.1 70.9,135.2 79.7,132 81.5,126 
				87.4,125.4 88.3,120.9 92,117.7 90.2,114.5 79.4,108.1 70.1,102.9 51.5,76.8 			"/>
			<polygon class="st5" points="48,83.1 35,95.3 36.2,97.5 46.6,87.1 50,85.5 60.8,99.1 65.6,106.5 79.5,117.2 88.6,125.9 
				95.7,122.7 96.4,105.8 76.2,97 59.7,76.2 			"/>
		</g>
		<polygon class="st6" points="15,136.5 8.5,131.5 8,121.8 10.6,94.2 27,70.2 47.7,56.9 71.1,53.2 84.8,53.4 97.4,58.5 97.9,70.4 
			86.7,69.1 62.4,76.3 45.9,86.2 28.3,104.7 20.4,122.5 		"/>
		<g>
			<polygon class="st7" points="29.3,68.8 26.1,70.1 25.5,73.3 27.4,74.2 30.1,71.3 			"/>
			<polygon class="st7" points="70,55.7 66.6,53.7 70.7,52.5 74,54.4 			"/>
			<polygon class="st7" points="50.1,68.1 49.4,65.6 51.5,64.7 53.5,66.2 52.3,68.5 			"/>
			<polygon class="st7" points="13,94.6 10.7,93.8 9.9,97.1 12.4,98.9 14.3,97.3 			"/>
			<polygon class="st7" points="85.9,55.3 85.2,53.4 87,53.3 88.3,54.6 			"/>
			<polygon class="st7" points="75.5,64.1 76.8,66.3 78.6,65.8 77.6,64.5 			"/>
			<polygon class="st7" points="30.4,92.5 30.6,95.7 34.3,95.9 34.3,92.7 			"/>
			<polygon class="st7" points="8,121 6.9,123.4 8.9,125.5 9.3,123.3 			"/>
			<polygon class="st7" points="18.6,105.8 19.5,107.7 21.4,107.2 21.5,105.2 20,104.1 			"/>
			<polygon class="st7" points="46.5,79.5 46.9,82.6 49.6,82.2 50.7,79.6 48.2,79 			"/>
			<polygon class="st7" points="35.3,77.4 35.5,79.4 38.1,79.1 36.8,77.6 			"/>
			<polygon class="st7" points="21.2,117.3 20.1,121.6 22.7,120.9 23.3,118.7 			"/>
			<polygon class="st7" points="98.5,62.9 96.9,61.9 95.9,63.2 97.4,65.5 98.5,65.6 			"/>
			<polygon class="st7" points="13.2,130.7 14.7,132.6 15.4,132 15.3,130.1 			"/>
		</g>
	</g>
	<g>
		<polygon class="st8" points="61.5,52.7 75.5,64.5 100,76.7 132,89.3 154,97 181.4,101.3 186,101.8 188.7,90 165,63.4 134.9,43.4 
			103.4,40.5 68.6,43.5 		"/>
		<g>
			<defs>
				<polygon id="SVGID_5_" points="101.4,108.7 91.7,130 81.4,156 76,161.7 67.4,179.4 67.4,183.3 72,186.6 77.3,186.1 82.5,189.9 
					86.8,189.6 93.9,194.4 97.5,194.3 102.6,193.5 109.1,174.1 107.5,166.1 117.4,138.1 126.2,115.9 				"/>
			</defs>
			<clipPath id="SVGID_6_">
				<use xlink:href="#SVGID_5_"  style="overflow:visible;"/>
			</clipPath>
			<polygon class="st9" points="101.4,108.7 91.7,130 81.4,156 76,161.7 67.4,179.4 67.4,183.3 72,186.6 77.3,186.1 82.5,189.9 
				86.8,189.6 93.9,194.4 97.5,194.3 102.6,193.5 109.1,174.1 107.5,166.1 117.4,138.1 126.2,115.9 			"/>
			<polygon class="st10" points="106.4,121.5 113.6,121.2 118.2,126.9 102.7,166.5 103.7,172.9 101.4,184.9 98.6,192.2 92.9,194.9 
				104.1,199.3 116,175.5 117.3,147.7 126.8,123.8 124.3,115.2 99.5,112.3 97.2,113.9 			"/>
		</g>
		<polygon class="st11" points="124.5,49.1 123,48.1 69.9,57.3 123.3,50.2 		"/>
		<polygon class="st11" points="124.7,57.5 122.9,57.4 105.1,77.4 124.1,59.1 		"/>
		<polygon class="st11" points="122.1,54 120.3,53.4 94.8,71.8 121.1,55.4 		"/>
		<polygon class="st11" points="123.3,51.4 121.7,50.4 82.1,67.1 122,52.5 		"/>
		<polygon class="st11" points="145.5,55.4 147.3,55.8 179.8,98.7 145.7,57.1 		"/>
		<polygon class="st11" points="139.6,61.5 141.1,62.6 140.3,89.4 139,63.1 		"/>
		<polygon class="st11" points="144,60.7 145.7,61.5 151.7,92.4 143.7,62.4 		"/>
		<polygon class="st11" points="144.8,58 146.6,58.3 164.3,97.6 145,59.7 		"/>
		<g>
			<defs>
				<polygon id="SVGID_7_" points="120.1,47.1 115.6,66.4 110.5,83.6 100,96 88.8,107 93.7,113 98,113 107,120.6 114.7,118.8 
					119.2,124.9 124.6,123 130.4,125.2 132.8,121.1 132.9,105.2 132.8,91.9 149.7,55 				"/>
			</defs>
			<clipPath id="SVGID_8_">
				<use xlink:href="#SVGID_7_"  style="overflow:visible;"/>
			</clipPath>
			<polygon class="st12" points="120.1,47.1 115.6,66.4 110.5,83.6 100,96 88.8,107 93.7,113 98,113 107,120.6 114.7,118.8 
				119.2,124.9 124.6,123 130.4,125.2 132.8,121.1 132.9,105.2 132.8,91.9 149.7,55 			"/>
			<polygon class="st13" points="140.6,55.2 119,48.6 117.4,51.4 135.4,56.2 139.2,58.8 131.1,79.2 126.1,89.1 123.1,111.1 
				119.3,126.5 127.3,132.3 146.2,122.4 143.2,94.8 155.5,63.6 			"/>
		</g>
		<polygon class="st14" points="61.5,52.7 62.8,42.4 73.1,35.7 104.9,21.2 141.6,24 169.1,38.3 187.9,61.6 196.2,76.8 198.6,93.7 
			186,101.8 180.3,88.7 157.1,66.6 135.9,54.8 104.5,47.2 80.2,49.7 		"/>
		<g>
			<polygon class="st15" points="144.5,25.7 141,23 137.1,24.4 137.4,27 142.2,28.1 			"/>
			<polygon class="st15" points="184.4,62 184.5,57.1 188.4,60.8 188.3,65.6 			"/>
			<polygon class="st15" points="158.4,48 160.6,45.7 163,47.5 162.6,50.5 159.3,50.7 			"/>
			<polygon class="st15" points="106,24.1 105.4,21 101.3,22.3 100.9,26.1 103.9,27.2 			"/>
			<polygon class="st15" points="194.8,79.2 196.6,77.2 197.7,79.1 197.1,81.4 			"/>
			<polygon class="st15" points="178.8,73.3 177.1,76.1 178.8,77.8 179.5,75.9 			"/>
			<polygon class="st15" points="119.3,41.7 115.9,44 118.1,48.2 121.5,46.2 			"/>
			<polygon class="st15" points="74,35.2 70.7,35.5 69.7,39.1 72.3,38.1 			"/>
			<polygon class="st15" points="97.3,37.3 95.7,39.4 97.5,41.2 99.7,40.1 100,37.7 			"/>
			<polygon class="st15" points="143.6,51.3 140.4,53.6 142.6,56.3 146.1,55.9 145.3,52.8 			"/>
			<polygon class="st15" points="138.9,37.7 136.8,39.2 138.7,41.8 139.6,39.5 			"/>
			<polygon class="st15" points="86.4,47.4 80.9,48.8 83.3,51.2 86.1,50.5 			"/>
			<polygon class="st15" points="194.5,97.7 194.6,95.3 192.4,95.1 190.9,98.1 191.5,99.5 			"/>
			<polygon class="st15" points="66.6,47 65.5,49.8 66.6,50.2 68.6,48.9 			"/>
		</g>
	</g>
	<g>
		<polygon class="st16" points="152.8,116.7 157.2,125.5 166.6,136.7 179.5,149.6 188.6,158.1 201.1,166 203.2,167.2 207.1,162 
			201.2,144 190.7,127.8 175.9,119.7 158.3,113.7 		"/>
		<g>
			<defs>
				<polygon id="SVGID_9_" points="160.4,152.6 151.2,160.9 140.6,171.5 136.7,173.1 128.8,179.9 128,181.8 129.5,184.4 
					132.2,185.3 133.9,188.3 136.1,189 138.5,192.9 140.3,193.6 143,194.3 150.3,186.2 151.2,181.9 162,170.4 171,161.4 				"/>
			</defs>
			<clipPath id="SVGID_10_">
				<use xlink:href="#SVGID_9_"  style="overflow:visible;"/>
			</clipPath>
			<polygon class="st17" points="160.4,152.6 151.2,160.9 140.6,171.5 136.7,173.1 128.8,179.9 128,181.8 129.5,184.4 132.2,185.3 
				133.9,188.3 136.1,189 138.5,192.9 140.3,193.6 143,194.3 150.3,186.2 151.2,181.9 162,170.4 171,161.4 			"/>
			<polygon class="st18" points="160.2,159.9 163.8,161.3 164.8,165.1 148.8,181.1 147.9,184.5 144.3,189.8 141.3,192.8 
				137.9,192.9 142.5,197.4 153.3,188.4 159.9,175.1 169.6,165.4 170.2,160.6 158.7,153.9 157.3,154.2 			"/>
		</g>
		<polygon class="st19" points="184.4,128.4 183.9,127.5 156,120.8 183.6,128.6 		"/>
		<polygon class="st19" points="182.7,132.5 181.9,132.1 168.9,138.1 182.1,133.2 		"/>
		<polygon class="st19" points="182.2,130.2 181.4,129.6 165.1,133.2 181.4,130.7 		"/>
		<polygon class="st19" points="183.3,129.3 182.8,128.4 159.9,128.1 182.5,129.5 		"/>
		<polygon class="st19" points="193.3,135.9 194.2,136.5 200.9,164.4 193.1,136.8 		"/>
		<polygon class="st19" points="189.1,137.6 189.6,138.5 183.6,151.4 188.5,138.3 		"/>
		<polygon class="st19" points="191.5,138.2 192.1,138.9 188.5,155.3 191,139 		"/>
		<polygon class="st19" points="192.4,137.1 193.3,137.6 193.5,160.5 192.2,137.9 		"/>
		<g>
			<defs>
				<polygon id="SVGID_11_" points="182.7,126.4 176.4,134.9 170.2,142.2 162.5,146.1 154.7,149.1 155.8,153.1 157.9,154 
					160.7,159.6 164.8,160.4 165.7,164.3 168.7,164.5 171.1,166.8 173.1,165.3 176.6,157.6 179.4,151 195.5,136.6 				"/>
			</defs>
			<clipPath id="SVGID_12_">
				<use xlink:href="#SVGID_11_"  style="overflow:visible;"/>
			</clipPath>
			<polygon class="st20" points="182.7,126.4 176.4,134.9 170.2,142.2 162.5,146.1 154.7,149.1 155.8,153.1 157.9,154 160.7,159.6 
				164.8,160.4 165.7,164.3 168.7,164.5 171.1,166.8 173.1,165.3 176.6,157.6 179.4,151 195.5,136.6 			"/>
			<polygon class="st21" points="191,134.8 181.8,127 180.5,128 188.2,134.2 189.5,136.2 181.3,144.5 176.7,148.3 170.5,158.3 
				165.4,165.1 168.1,169.6 179.4,168.8 183.8,154.7 196.5,142.1 			"/>
		</g>
		<polygon class="st22" points="152.8,116.7 155.7,112 162.2,110.9 180.8,110.6 198.1,119.7 208.5,132.6 212.7,148 213.6,157.2 
			211.1,165.9 203.2,167.2 203.2,159.6 196.6,143.9 188.8,133.6 175.1,123.2 162.6,119.2 		"/>
		<g>
			<polygon class="st23" points="199.1,121.2 198.1,119.1 195.8,119 195.4,120.3 197.5,121.9 			"/>
			<polygon class="st23" points="210.9,147.4 212,145 213.1,147.7 212.1,150 			"/>
			<polygon class="st23" points="201.2,135 202.8,134.4 203.6,135.8 202.7,137.2 201.1,136.6 			"/>
			<polygon class="st23" points="180.7,112.2 181.1,110.6 178.8,110.3 177.8,112.1 179,113.3 			"/>
			<polygon class="st23" points="212.4,158.1 213.6,157.5 213.8,158.6 213,159.6 			"/>
			<polygon class="st23" points="205.8,151.7 204.4,152.7 204.8,153.9 205.6,153.2 			"/>
			<polygon class="st23" points="183.4,123.7 181.3,124.1 181.4,126.6 183.6,126.3 			"/>
			<polygon class="st23" points="162.7,110.8 161,110.3 159.8,111.8 161.2,111.9 			"/>
			<polygon class="st23" points="173.6,116.8 172.4,117.5 172.9,118.8 174.2,118.7 174.8,117.6 			"/>
			<polygon class="st23" points="193.3,133.5 191.3,134 191.7,135.8 193.5,136.3 193.8,134.6 			"/>
			<polygon class="st23" points="193.9,125.8 192.5,126.1 192.9,127.8 193.9,126.9 			"/>
			<polygon class="st23" points="166.1,119.4 163.2,119 163.8,120.7 165.3,120.9 			"/>
			<polygon class="st23" points="208.3,167 208.8,165.9 207.8,165.3 206.4,166.5 206.4,167.2 			"/>
			<polygon class="st23" points="156.6,115 155.4,116.2 155.9,116.6 157.1,116.4 			"/>
		</g>
	</g>
</g>
</svg>
