<svg id="Layer_1" xmlns="http://www.w3.org/2000/svg" xmlns:xlink="http://www.w3.org/1999/xlink" viewBox="0 0 220 240"><style>.st2{fill:#245896}.st7{fill:#2964aa}.st16{fill:#3259cf}.st21{fill:#2965aa}</style><defs><path id="SVGID_1_" d="M114.3 87.1l4 29.9-2.9 30.4 4.2 17.7-3.6 3.1 3.4 8.3-7.3 15.1-10.8 4.5-8.8-3.8-3.9-11.6 5.3-14 4-2.9-.8-4.4 5.5-17.1 5-14.4-.7-22.3-5.6-21.7z"/></defs><clipPath id="SVGID_2_"><use xlink:href="#SVGID_1_" overflow="visible"/></clipPath><path clip-path="url(#SVGID_2_)" fill="#297296" d="M114.3 87.1l4 29.9-2.9 30.4 4.2 17.7-3.6 3.1 3.4 8.3-7.3 15.1-10.8 4.5-8.8-3.8-3.9-11.6 5.3-14 4-2.9-.8-4.4 5.5-17.1 5-14.4-.7-22.3-5.6-21.7z"/><defs><path id="SVGID_3_" d="M114.3 87.1l4 29.9-2.9 30.4 4.2 17.7-3.6 3.1 3.4 8.3-7.3 15.1-10.8 4.5-8.8-3.8-3.9-11.6 5.3-14 4-2.9-.8-4.4 5.5-17.1 5-14.4-.7-22.3-5.6-21.7z"/></defs><clipPath id="SVGID_4_"><use xlink:href="#SVGID_3_" overflow="visible"/></clipPath><path d="M106.3 96s1.9 7.2 2.2 7.9 1.2 13.3 1.2 13.3l-1.3 15.1-3.7 15.7-3.8 9-2 3 .6 4.2-4 3.8-4.1 8.3-.4 7.9 5.2 12.7-10.2-4.5-7.8-22.2 11.2-38.6 13.2-25.9-1.6-9 5.3-.7z" clip-path="url(#SVGID_4_)" fill="#3083b8"/><path class="st2" d="M137.2 94l-5.6 4.8-6-3.3-6.4.9-3.3 2.5-9.1-.8-5.4 2.8-6.6 2.9-8.9 1.2-4.3-3.5 16.1-18.3 16.2 1z"/><defs><path id="SVGID_5_" d="M137.4 95.3L130 57.6l-4.2-14.3L107.1 12 95.7 4.1l-11.8 6.1-4.5 10.5-5.9 32.4 4.9 36.2 1.7 12 5.8 3.7 8.3-3.4 3.9-7.7 5.3-2.7 7.7 3.5 5.9 1.5 3.7-3.9 4.7-1.8 4 1.8 2.8 3.4z"/></defs><clipPath id="SVGID_6_"><use xlink:href="#SVGID_5_" overflow="visible"/></clipPath><path clip-path="url(#SVGID_6_)" fill="#174054" d="M137.4 95.3L130 57.6l-4.2-14.3L107.1 12 95.7 4.1 84.4 8.9l-5 11.8-5.9 32.4 4.9 36.2 1.7 12 5.8 3.7 8.3-3.4 3.9-7.7 5.3-2.7 7.7 3.5 5.9 1.5 3.7-3.9 4.7-1.8 4 1.8 2.8 3.4z"/><g><defs><path id="SVGID_7_" d="M137.4 95.3L130 57.6l-4.2-14.3L107.1 12 95.7 4.1l-11.8 6.1-4.5 10.5-5.9 32.4 4.9 36.2 1.7 12 5.8 3.7 8.3-3.4 3.9-7.7 5.3-2.7 7.7 3.5 5.9 1.5 3.7-3.9 4.7-1.8 4 1.8 2.8 3.4z"/></defs><clipPath id="SVGID_8_"><use xlink:href="#SVGID_7_" overflow="visible"/></clipPath><path clip-path="url(#SVGID_8_)" fill="#102c38" d="M94.4-2.9l6.8 5.7-7.3 6.5-5.7 22.8-.7 14.1-2 13.7 5.3 21.4 12.5 20.1-18.9 8.6-19.5-31.9-2.2-70z"/></g><path class="st2" d="M109.1 22.2l-4.2-3.7-7.2-1-7.3 3-4 3.2 4.3-.8 7.5-2.4 5.3-.7zM117.4 35.5l-7.5-1.3-6 .8-5.4 1.9 3.7-.5 5.7-.8 6.1.3zM84.3 49.4l5.2-3 5.1-.7 4.2 1.7-4.8-.5-2.6.4-4.2 1.7zM118.8 51.7l-5.9-1.4-6.8 1-6.4 3-3.3 3.9 3.6-1.6 4-2.2 5.5-2.4 2.9-.4zM98.8 68.2L94.1 67l-4.4.6-4.1 2.4-1 2.6 3-3 4.9-1.1zM125.8 67l-4.3-1.6-7.9 1.1-4.6 3.6 6.3-2.3 5.1-.7zM109.4 82.2l-3.9-2.1-3.1-.4L98 82l-3.3 2.2 3-1 4.1-1.7 3.5-.5z"/><g><defs><path id="SVGID_9_" d="M83.4 130.6v24.2l5.6 23.9-1.3 14.5 3.1 2.2-1.8 6.9 7.4 11.2 9.1 2.4 6.7-3.9 1.8-9.7-5.7-10.6-3.5-1.8.1-3.6-6.2-13-5.6-10.9-1.8-17.9 2.1-17.9z"/></defs><clipPath id="SVGID_10_"><use xlink:href="#SVGID_9_" overflow="visible"/></clipPath><path clip-path="url(#SVGID_10_)" fill="#3da6e8" d="M83.4 130.6v24.2l5.6 23.9-1.3 14.5 3.1 2.2-1.8 6.9 7.4 11.2 9.1 2.4 6.7-3.9 1.8-9.7-5.7-10.6-3.5-1.8.1-3.6-6.2-13-5.6-10.9-1.8-17.9 2.1-17.9z"/><defs><path id="SVGID_11_" d="M83.4 130.6v24.2l5.6 23.9-1.3 14.5 3.1 2.2-1.8 6.9 7.4 11.2 9.1 2.4 6.7-3.9 1.8-9.7-5.7-10.6-3.5-1.8.1-3.6-6.2-13-5.6-10.9-1.8-17.9 2.1-17.9z"/></defs><clipPath id="SVGID_12_"><use xlink:href="#SVGID_11_" overflow="visible"/></clipPath><path d="M90.8 136.8s-.7 5.9-.9 6.5c-.2.6.5 10.7.5 10.7l2.7 11.8 4.6 12.1 4 6.7 1.9 2.2v3.4l3.6 2.6 4.2 6.1 1.2 6.3-2.8 10.7 7.7-4.6 3.8-18.5-13.1-29.5-13.3-19.2.3-7.3h-4.4z" clip-path="url(#SVGID_12_)" fill="#3696c6"/><path class="st7" d="M65.9 138.5l5 3.3 4.4-3.3h5.2l2.9 1.7 7.1-1.7 4.7 1.7 5.5 1.6h7.3l3-3.3-14.9-12.8-12.7 2.5z"/><defs><path id="SVGID_13_" d="M65.9 139.7l1.8-30.9L69.5 97 81 70l8.2-7.5L99.3 66l4.7 8 8.2 25.1v39l-4.2 3.7-7-1.8-3.9-5.8-4.6-1.5-5.7 3.6-4.6 1.8-3.3-2.7-4-.9-3 1.8-1.8 3.1z"/></defs><clipPath id="SVGID_14_"><use xlink:href="#SVGID_13_" overflow="visible"/></clipPath><path clip-path="url(#SVGID_14_)" fill="#205a77" d="M65.9 139.7l1.8-30.9L69.5 97 81 70l8.2-7.5 9.5 2.6L104 74l8.2 25.1v39l-4.2 3.7-7-1.8-3.9-5.8-4.6-1.5-5.7 3.6-4.6 1.8-3.3-2.7-4-.9-3 1.8-1.8 3.1z"/><g><defs><path id="SVGID_15_" d="M65.9 139.7l1.8-30.9L69.5 97 81 70l8.2-7.5L99.3 66l4.7 8 8.2 25.1v39l-4.2 3.7-7-1.8-3.9-5.8-4.6-1.5-5.7 3.6-4.6 1.8-3.3-2.7-4-.9-3 1.8-1.8 3.1z"/></defs><clipPath id="SVGID_16_"><use xlink:href="#SVGID_15_" overflow="visible"/></clipPath><path clip-path="url(#SVGID_16_)" fill="#1b4c60" d="M89.5 56.8l-4.8 5.3 6.5 4.3 7 17.6 2.1 11.1 3.1 10.7-1.9 17.6-7.8 17.4 16 4.7 12-27.4-5.8-56z"/></g><path class="st7" d="M80.5 78.3l2.9-3.4 5.6-1.5 6.2 1.5 3.5 2.2-3.5-.2-6.2-1.1h-4.3zM75.3 89.8l5.9-1.8H86l4.5.9h-7.6l-4.8.9zM103.2 97.3l-4.5-1.8h-4.1l-3.1 1.8 3.7-.9h2.1l3.5.9zM76 102.9l4.5-1.7H86l5.5 1.7 3 2.8-3-1-3.5-1.3-4.6-1.3H81zM93.7 113.8l3.6-1.4h3.6l3.5 1.4 1.1 2-2.8-2.1-4-.3zM72 115.8l3.3-1.7h6.4l4.1 2.4-5.3-1.2h-4.1zM86.7 126.2l2.9-2.1 2.5-.7 3.8 1.4 2.8 1.4-2.6-.5-3.4-.9h-2.8z"/></g><g><defs><path id="SVGID_17_" d="M144.9 102.9l-9 25.3-3 27.1-6.8 14.8 2.5 3.3-4.5 6.7 3.6 14.4 8.6 5.9 8.5-1.6 5.5-9.5-2.1-13.2-3-3.2 1.5-3.7-1.6-16-1.9-13.5 4.8-19.3 8.8-17.9z"/></defs><clipPath id="SVGID_18_"><use xlink:href="#SVGID_17_" overflow="visible"/></clipPath><path clip-path="url(#SVGID_18_)" fill="#3da6e8" d="M144.9 102.9l-9 25.3-3 27.1-6.8 14.8 2.5 3.3-4.5 6.7 3.6 14.4 8.6 5.9 8.5-1.6 5.5-9.5-2.1-13.2-3-3.2 1.5-3.7-1.6-16-1.9-13.5 4.8-19.3 8.8-17.9z"/><defs><path id="SVGID_19_" d="M144.9 102.9l-9 25.3-3 27.1-6.8 14.8 2.5 3.3-4.5 6.7 3.6 14.4 8.6 5.9 8.5-1.6 5.5-9.5-2.1-13.2-3-3.2 1.5-3.7-1.6-16-1.9-13.5 4.8-19.3 8.8-17.9z"/></defs><clipPath id="SVGID_20_"><use xlink:href="#SVGID_19_" overflow="visible"/></clipPath><path d="M150.3 112.1s-3 6-3.4 6.5-3.5 11.4-3.5 11.4l-1.6 13.4.3 14.4 1.6 8.5 1.2 3-1.2 3.5 2.8 4 2.1 8-1.1 7-6.9 10.2 9.8-1.9 10.8-18-2.7-35.8-6.8-25.1 3-7.6-4.4-1.5z" clip-path="url(#SVGID_20_)" fill="#3696c6"/><path class="st7" d="M123.6 104.7l4 5.2 5.9-1.7 5.4 1.9 2.4 2.8 8.1.9 4.2 3.5 5.2 3.7 7.6 2.7 4.4-2.3-10.8-18.9-14.3-2.1z"/><defs><path id="SVGID_21_" d="M123.1 105.9l13.4-31.7 6.3-11.7 22-23.9 11.4-4.9 9.2 7.5 2 10.1-.7 29.3-10.9 30.7-3.6 10.2-5.8 2.2-6.6-4.5-2-7.5-4.2-3.2-7.4 1.6-5.4.3-2.5-4.1-3.8-2.5-3.8.8-3 2.5z"/></defs><clipPath id="SVGID_22_"><use xlink:href="#SVGID_21_" overflow="visible"/></clipPath><path clip-path="url(#SVGID_22_)" fill="#205a77" d="M123.1 105.9l13.4-31.7 6.3-11.7 22-23.9 11.4-4.9 9 6.3 2.2 11.3-.7 29.3-10.9 30.7-3.6 10.2-5.8 2.2-6.6-4.5-2-7.5-4.2-3.2-7.4 1.6-5.4.3-2.5-4.1-3.8-2.5-3.8.8-3 2.5z"/><g><defs><path id="SVGID_23_" d="M123.1 105.9l13.4-31.7 6.3-11.7 22-23.9 11.4-4.9 9.2 7.5 2 10.1-.7 29.3-10.9 30.7-3.6 10.2-5.8 2.2-6.6-4.5-2-7.5-4.2-3.2-7.4 1.6-5.4.3-2.5-4.1-3.8-2.5-3.8.8-3 2.5z"/></defs><clipPath id="SVGID_24_"><use xlink:href="#SVGID_23_" overflow="visible"/></clipPath><path clip-path="url(#SVGID_24_)" fill="#1b4c60" d="M178.6 27.9l-7 3.7 5.2 7 .8 21-1.9 12.4-.7 12.3-8.5 17.8-14.7 15.3 15 10.9 22.8-24.3 14.7-60.8z"/></g><path class="st7" d="M161.2 47.1l4.3-2.5 6.5.5 5.8 3.9 2.9 3.6-3.6-1.5-6-3.4-4.6-1.7zM151.5 57.2l6.8.2 5.1 1.8 4.4 2.7-3.2-1.2-4.8-1.6-5.4-.9zM177.9 75.4l-4-3.6-4.3-1.5-4 .8 4.3.4 2.2.8 3.3 2.2zM147.4 71.1l5.3-.1 5.8 2.1 5.1 3.8 2.1 4-2.8-2.1-3.1-2.7-4.4-3-2.5-.9zM161.8 89.2l4.4-.2 3.7 1.3 3.1 2.8.4 2.5-2.1-3.2-4-1.8zM138.4 83.2l4.1-.6 6.7 2.4 3.4 4-5.1-3.2-4.3-1.5zM150 99.5l3.8-1.1 2.8.2 3.4 2.8 2.5 2.5-2.5-1.4-3.2-2.2-3-1.1z"/></g><g><defs><path id="SVGID_25_" d="M186.6 146.5l3.3 18.2-.9 18.9 3.1 10.7-2.1 2.1 2.3 5-4.1 9.5-6.5 3-5.6-2-2.7-7.1 2.9-8.8 2.4-1.8-.6-2.7 2.9-10.7 2.7-9-1.1-13.7-4.1-13.2z"/></defs><clipPath id="SVGID_26_"><use xlink:href="#SVGID_25_" overflow="visible"/></clipPath><path clip-path="url(#SVGID_26_)" fill="#3e77db" d="M186.6 146.5l3.3 18.2-.9 18.9 3.1 10.7-2.1 2.1 2.3 5-4.1 9.5-6.5 3-5.6-2-2.7-7.1 2.9-8.8 2.4-1.8-.6-2.7 2.9-10.7 2.7-9-1.1-13.7-4.1-13.2z"/><defs><path id="SVGID_27_" d="M186.6 146.5l3.3 18.2-.9 18.9 3.1 10.7-2.1 2.1 2.3 5-4.1 9.5-6.5 3-5.6-2-2.7-7.1 2.9-8.8 2.4-1.8-.6-2.7 2.9-10.7 2.7-9-1.1-13.7-4.1-13.2z"/></defs><clipPath id="SVGID_28_"><use xlink:href="#SVGID_27_" overflow="visible"/></clipPath><path d="M181.9 152.1s1.4 4.4 1.6 4.8c.2.4 1.1 8.2 1.1 8.2l-.4 9.3-1.8 9.8-2.1 5.6-1.1 1.9.5 2.5-2.4 2.4-2.3 5.2v4.9l3.6 7.7-6.5-2.4-5.4-13.5 5.8-24.1 7.4-16.3-1.2-5.5 3.2-.5z" clip-path="url(#SVGID_28_)" fill="#4089e2"/><path class="st16" d="M200.9 150l-3.3 3.2-3.8-1.9-3.9.8-2 1.6-5.6-.2-3.3 1.8-3.9 2-5.5 1-2.7-2 9.4-11.8 10 .2z"/><defs><path id="SVGID_29_" d="M201.1 150.9l-5.7-23.1-3-8.6-12.4-18.8-7.2-4.5-7.1 4.1-2.5 6.6-2.7 20.1 4.1 22.1 1.3 7.4 3.7 2.1 5-2.3 2.2-4.9 3.2-1.8 4.9 2 3.6.7 2.2-2.5 2.9-1.2 2.5.9 1.7 2z"/></defs><clipPath id="SVGID_30_"><use xlink:href="#SVGID_29_" overflow="visible"/></clipPath><path clip-path="url(#SVGID_30_)" fill="#244a85" d="M201.1 150.9l-5.7-23.1-3-8.6-12.4-18.8-7.2-4.5-6.8 3.3-2.8 7.4-2.7 20.1 4.1 22.1 1.3 7.4 3.7 2.1 5-2.3 2.2-4.9 3.2-1.8 4.9 2 3.6.7 2.2-2.5 2.9-1.2 2.5.9 1.7 2z"/><g><defs><path id="SVGID_31_" d="M201.1 150.9l-5.7-23.1-3-8.6-12.4-18.8-7.2-4.5-7.1 4.1-2.5 6.6-2.7 20.1 4.1 22.1 1.3 7.4 3.7 2.1 5-2.3 2.2-4.9 3.2-1.8 4.9 2 3.6.7 2.2-2.5 2.9-1.2 2.5.9 1.7 2z"/></defs><clipPath id="SVGID_32_"><use xlink:href="#SVGID_31_" overflow="visible"/></clipPath><path clip-path="url(#SVGID_32_)" fill="#1e3c6b" d="M171.8 91.6l4.3 3.3-4.3 4.2-2.8 14.3-.1 8.6-.8 8.5 3.9 13 8.2 12.1-11.4 5.8-12.9-19.1-3.3-43z"/></g><path class="st16" d="M181.6 106.6l-2.7-2.1-4.5-.4-4.4 2-2.4 2.1 2.7-.6 4.5-1.7 3.3-.6zM187 114.6l-4.6-.6-3.7.7-3.3 1.3 2.3-.4 3.5-.7 3.7.1zM167.1 124.1l3.1-2 3.1-.6 2.6 1-2.9-.2-1.6.3-2.6 1.2zM188.4 124.5l-3.7-.6-4.2.7-3.8 2.1-1.9 2.5 2.1-1.1 2.5-1.5 3.2-1.6 1.9-.3zM176.5 135.3l-2.9-.6-2.7.5-2.5 1.5-.5 1.7 1.8-2 3-.8zM193.1 133.8l-2.7-.9-4.8.9-2.7 2.4 3.8-1.7 3.1-.5zM183.5 143.6l-2.5-1.2-1.9-.2-2.7 1.6-2 1.4 1.9-.7 2.5-1.1 2.1-.4z"/></g><g><defs><path id="SVGID_33_" d="M37.7 108.5l-3.3 18.3.9 18.8-3 10.8 2.1 2-2.4 5 4.1 9.5 6.5 3.1 5.6-2 2.7-7.1-2.9-8.8-2.4-1.8.6-2.8-2.8-10.6-2.8-9 1.1-13.8 4.1-13.2z"/></defs><clipPath id="SVGID_34_"><use xlink:href="#SVGID_33_" overflow="visible"/></clipPath><path clip-path="url(#SVGID_34_)" fill="#3d8de8" d="M37.7 108.5l-3.3 18.3.9 18.8-3 10.8 2.1 2-2.4 5 4.1 9.5 6.5 3.1 5.6-2 2.7-7.1-2.9-8.8-2.4-1.8.6-2.8-2.8-10.6-2.8-9 1.1-13.8 4.1-13.2z"/><defs><path id="SVGID_35_" d="M37.7 108.5l-3.3 18.3.9 18.8-3 10.8 2.1 2-2.4 5 4.1 9.5 6.5 3.1 5.6-2 2.7-7.1-2.9-8.8-2.4-1.8.6-2.8-2.8-10.6-2.8-9 1.1-13.8 4.1-13.2z"/></defs><clipPath id="SVGID_36_"><use xlink:href="#SVGID_35_" overflow="visible"/></clipPath><path d="M42.4 114.2s-1.4 4.4-1.6 4.8c-.2.4-1.1 8.2-1.1 8.2l.4 9.3 1.8 9.8 2.1 5.6 1.1 1.9-.5 2.5 2.4 2.4 2.3 5.2v4.9l-3.6 7.7 6.5-2.4 5.4-13.5-5.8-24.1-7.4-16.3 1.2-5.5-3.2-.5z" clip-path="url(#SVGID_36_)" fill="#3661c6"/><path class="st21" d="M23.4 112.1l3.3 3.1 3.8-1.8 3.9.7 2 1.7 5.6-.3 3.3 1.9 3.9 2 5.5 1 2.7-2.1-9.4-11.7-9.9.2z"/><defs><path id="SVGID_37_" d="M23.2 112.9l5.7-23 3-8.7 12.4-18.7 7.2-4.6 7.1 4.1 2.5 6.7 2.7 20-4.1 22.2-1.3 7.3-3.7 2.2-5-2.4-2.2-4.8-3.2-1.8-4.9 1.9-3.6.8-2.2-2.5-2.8-1.3-2.5 1-1.8 2z"/></defs><clipPath id="SVGID_38_"><use xlink:href="#SVGID_37_" overflow="visible"/></clipPath><path clip-path="url(#SVGID_38_)" fill="#204d77" d="M23.2 112.9l5.7-23 3-8.7 12.4-18.7 7.2-4.6 6.8 3.3 2.8 7.5 2.7 20-4.1 22.2-1.3 7.3-3.7 2.2-5-2.4-2.2-4.8-3.2-1.8-4.9 1.9-3.6.8-2.2-2.5-2.8-1.3-2.5 1-1.8 2z"/><g><defs><path id="SVGID_39_" d="M23.2 112.9l5.7-23 3-8.7 12.4-18.7 7.2-4.6 7.1 4.1 2.5 6.7 2.7 20-4.1 22.2-1.3 7.3-3.7 2.2-5-2.4-2.2-4.8-3.2-1.8-4.9 1.9-3.6.8-2.2-2.5-2.8-1.3-2.5 1-1.8 2z"/></defs><clipPath id="SVGID_40_"><use xlink:href="#SVGID_39_" overflow="visible"/></clipPath><path clip-path="url(#SVGID_40_)" fill="#1b3760" d="M52.5 53.7L48.2 57l4.3 4.2 2.8 14.2.1 8.7.8 8.5-3.8 13-8.3 12.1 11.4 5.8 12.9-19.1 3.3-43.1z"/></g><path class="st21" d="M42.7 68.7l2.7-2.2 4.5-.4 4.4 2.1 2.4 2.1-2.7-.6-4.5-1.7-3.3-.6zM37.3 76.6l4.6-.6 3.7.7 3.3 1.3-2.3-.4-3.5-.6h-3.7zM57.3 86.2l-3.2-2-3.1-.6-2.6 1 2.9-.2 1.6.3 2.6 1.1zM36 86.6l3.6-.7 4.2.8 3.8 2 1.9 2.6-2.1-1.2-2.4-1.4-3.3-1.6-1.9-.4zM47.8 97.3l2.9-.6 2.7.5 2.5 1.6.5 1.6-1.8-1.9-3-.8zM31.2 95.8l2.7-.8 4.8.9 2.7 2.3-3.8-1.6-3.1-.6zM40.8 105.7l2.5-1.2 2-.2 2.6 1.6 2 1.4-1.9-.7-2.5-1.2-2.1-.4z"/></g></svg>