<?xml version="1.0" encoding="utf-8"?>
<!-- Generator: Adobe Illustrator 22.1.0, SVG Export Plug-In . SVG Version: 6.00 Build 0)  -->
<svg version="1.0" id="Layer_1" xmlns="http://www.w3.org/2000/svg" xmlns:xlink="http://www.w3.org/1999/xlink" x="0px" y="0px"
	 viewBox="0 0 220 220" style="enable-background:new 0 0 220 220;" xml:space="preserve">
<style type="text/css">
	.st0{fill:none;}
	.st1{fill:#C1CF91;}
	.st2{fill:#A8B380;}
	.st3{fill:#78704D;}
	.st4{fill:#5E583D;}
	.st5{fill:#505425;}
	.st6{fill:#5CA12F;}
	.st7{fill:#D9E8A3;}
	.st8{fill:#C7D397;}
	.st9{fill:#898058;}
	.st10{fill:#776F4D;}
	.st11{fill:#61662D;}
	.st12{fill:#6EC138;}
	.st13{fill:#BAC495;}
	.st14{fill:#A9B08D;}
	.st15{fill:#756F54;}
	.st16{fill:#69634B;}
	.st17{fill:#4E5228;}
	.st18{fill:#5E9639;}
</style>
<g>
	<polygon class="st0" points="98,113 93.7,113 88.8,107 100,96 110.5,83.6 111.2,81.1 100,76.7 95,74.2 82.1,90.4 69.2,101.6 
		70.1,102.9 79.4,108.1 90.2,114.5 92,117.7 88.3,120.9 88.1,122 92.7,127.9 98.5,115 99,113.9 	"/>
	<polygon class="st1" points="49.3,116.2 45.2,104.2 40.5,99.8 41.4,121.1 39,98.4 38.4,97.8 33.1,128 37,96.5 36.5,96.1 36.4,96.2 
		21.6,132.5 33.8,98.9 28.3,104.7 22.4,118.1 23.3,118.7 22.7,120.9 20.9,121.4 20.4,122.5 15,136.5 28.7,131.5 46.8,119.5 
		54.2,113.6 46.6,105.6 	"/>
	<polygon class="st1" points="93.4,73.4 85.5,69.5 62.4,76.3 60.3,77.5 	"/>
	<polygon class="st1" points="86.5,83.6 55.2,82 55.6,82.5 77.9,90.2 57,84.6 61.4,90.6 71.4,96.8 62.5,92.3 69.2,101.6 82.1,90.4 
		95,74.2 93.4,73.4 57.2,79.4 55.4,80.5 	"/>
	<polygon class="st1" points="125.5,166 121.6,161.2 114.3,154.9 111.8,154 107.5,166.1 109.1,174.1 106,183.3 107.2,183.9 
		111.2,182.1 112.9,178.3 117.6,176.2 119.1,173.1 125.2,170.2 	"/>
	<polygon class="st1" points="88.5,126.8 82.7,127.7 80.1,132.8 72.5,135.6 80.1,146.3 83.5,150.6 91.5,130.5 	"/>
	<polygon class="st2" points="114.3,154.9 121.6,161.2 125.5,166 125.2,170.2 125.2,170.2 126.6,167.6 128,163.8 117.2,151.7 
		113.1,150.3 111.8,154 	"/>
	<polygon class="st2" points="82.7,127.7 88.5,126.8 91.5,130.5 91.7,130 92.7,127.9 88.1,122 87.5,124.9 87.4,125.4 81.5,126 
		79.7,132 71.9,134.8 72.5,135.6 80.1,132.8 	"/>
	<polygon class="st2" points="33.8,98.9 21.6,132.5 36.4,96.2 	"/>
	<polygon class="st2" points="46.6,105.6 45.8,104.7 45.2,104.2 49.3,116.2 	"/>
	<polygon class="st2" points="40.5,99.8 39,98.4 41.4,121.1 	"/>
	<polygon class="st2" points="33.1,128 38.4,97.8 37.1,96.6 37,96.5 	"/>
	<polygon class="st2" points="93.4,73.4 93.4,73.4 60.3,77.5 57.2,79.4 	"/>
	<polygon class="st2" points="61.4,90.6 62.5,92.3 71.4,96.8 	"/>
	<polygon class="st2" points="77.9,90.2 55.6,82.5 57,84.6 	"/>
	<polygon class="st2" points="86.5,83.6 55.4,80.5 54.5,81 55.2,82 	"/>
	<polygon class="st3" points="81.5,126 87.4,125.4 87.5,124.9 79.5,117.2 65.6,106.5 60.8,99.1 50,85.5 46.6,87.1 37.1,96.6 
		38.4,97.8 39,98.4 40.5,99.8 45.2,104.2 45.8,104.7 46.6,105.6 54.2,113.6 55.6,115 60,127.1 63.2,139.1 69.2,138.1 70.9,135.2 
		71.9,134.8 79.7,132 	"/>
	<polygon class="st4" points="92,117.7 90.2,114.5 79.4,108.1 70.1,102.9 69.2,101.6 62.5,92.3 61.4,90.6 57,84.6 55.6,82.5 
		55.2,82 54.5,81 45.9,86.2 36.5,96.1 37,96.5 37.1,96.6 46.6,87.1 50,85.5 60.8,99.1 65.6,106.5 79.5,117.2 87.5,124.9 88.1,122 
		88.3,120.9 	"/>
	<polygon class="st5" points="10.6,94.2 10.6,94.2 10.6,94.2 	"/>
	<path class="st5" d="M20.9,121.4l-0.8,0.2l1.1-4.3l1.2,0.8l5.9-13.4l5.5-5.8l2.6-2.7l0.1-0.1l9.4-9.9l8.6-5.2l0.9-0.5l1.8-1.1
		l3.1-1.9l2.1-1.2l23.1-6.8l-7.2-3.6l-1.5,0.4l-1-1.6l-0.3-0.2l-12-10.1l-15.8,2.5L29,68.9l0.3-0.1l0.8,2.5l-2.7,2.9l-1.9-0.9
		l0.2-1.2L10.8,93.8l2.2,0.8l1.3,2.7l-1.9,1.6l-2.1-1.5l-2.2,23.7l1.2,2.2l-0.4,2.2l-0.7-0.8l0.3,6.8l6.5,5l5.4-14L20.9,121.4z
		 M46.9,82.6l-0.4-3.1l1.7-0.5l2.5,0.6l-1.1,2.6L46.9,82.6z M51.5,64.7l2,1.5l-1.2,2.3l-2.2-0.4l-0.7-2.5L51.5,64.7z M36.8,77.6
		l1.3,1.5l-2.6,0.3l-0.2-2L36.8,77.6z M34.3,92.7v3.2l-3.7-0.2l-0.2-3.2L34.3,92.7z M20,104.1l1.5,1.1l-0.1,2l-1.9,0.5l-0.9-1.9
		L20,104.1z M14.7,132.6l-1.5-1.9l2.1-0.6l0.1,1.9L14.7,132.6z"/>
	<polygon class="st6" points="27.4,74.2 30.1,71.3 29.3,68.8 29,68.9 26.1,70.1 25.7,72.1 25.5,73.3 	"/>
	<polygon class="st6" points="52.3,68.5 53.5,66.2 51.5,64.7 49.4,65.6 50.1,68.1 	"/>
	<polygon class="st6" points="14.3,97.3 13,94.6 10.8,93.8 10.7,93.8 10.6,94.2 10.6,94.2 9.9,97.1 10.3,97.4 12.4,98.9 	"/>
	<polygon class="st6" points="76.8,66.3 78.3,65.9 75.8,64.7 	"/>
	<polygon class="st6" points="30.6,95.7 34.3,95.9 34.3,92.7 30.4,92.5 	"/>
	<polygon class="st6" points="9.3,123.3 8.1,121.1 8,121 6.9,123.4 8.2,124.7 8.9,125.5 	"/>
	<polygon class="st6" points="21.4,107.2 21.5,105.2 20,104.1 18.6,105.8 19.5,107.7 	"/>
	<polygon class="st6" points="50.7,79.6 48.2,79 46.5,79.5 46.9,82.6 49.6,82.2 	"/>
	<polygon class="st6" points="38.1,79.1 36.8,77.6 35.3,77.4 35.5,79.4 	"/>
	<polygon class="st6" points="20.1,121.6 20.9,121.4 22.7,120.9 23.3,118.7 22.4,118.1 21.2,117.3 	"/>
	<polygon class="st6" points="13.2,130.7 14.7,132.6 15.4,132 15.3,130.1 	"/>
	<polygon class="st7" points="157.1,66.6 154.3,65 179.8,98.7 150.5,62.9 148.1,61.6 164.3,97.6 146.3,62.3 146,63.1 151.7,92.4 
		144.7,66 140.7,74.6 140.3,89.4 139.7,76.9 133.7,89.9 154,97 181.4,101.3 186,101.8 180.3,88.7 	"/>
	<polygon class="st7" points="75.8,64.7 78.3,65.9 85.5,69.5 93.4,73.4 93.4,73.4 95,74.2 100,76.7 111.2,81.1 115.2,67.6 
		105.1,77.4 115.9,65.3 117.7,57.5 94.8,71.8 118.3,54.8 118.5,53.8 82.1,67.1 119.1,51.5 119.2,50.8 119.2,50.7 69.9,57.3 
		114.4,49.6 104.5,47.2 86.2,49.1 86.1,50.5 83.3,51.2 81.7,49.6 80.2,49.7 61.5,52.7 63.5,54.4 75.5,64.5 	"/>
	<polygon class="st7" points="101.4,184.9 103.7,172.9 102.7,166.5 118.2,126.9 113.6,121.2 106.4,121.5 98.5,115 92.7,127.9 
		91.7,130 91.5,130.5 83.5,150.6 81.4,156 76,161.7 67.4,179.4 67.4,183.3 72,186.6 77.3,186.1 82.5,189.9 86.8,189.6 93.9,194.4 
		94,194.4 98.6,192.2 	"/>
	<polygon class="st8" points="107.5,166.1 111.8,154 113.1,150.3 117.4,138.1 123.2,123.5 119.7,124.7 119.2,124.9 114.7,118.8 
		107,120.6 99,113.9 98.5,115 106.4,121.5 113.6,121.2 118.2,126.9 102.7,166.5 103.7,172.9 101.4,184.9 98.6,192.2 94,194.4 
		97.5,194.3 102.6,193.5 106,183.3 109.1,174.1 	"/>
	<polygon class="st8" points="114.4,49.6 69.9,57.3 119.2,50.7 	"/>
	<polygon class="st8" points="115.9,65.3 105.1,77.4 115.2,67.6 115.6,66.4 	"/>
	<polygon class="st8" points="94.8,71.8 117.7,57.5 118.3,54.8 	"/>
	<polygon class="st8" points="119.1,51.5 82.1,67.1 118.5,53.8 119,51.8 	"/>
	<polygon class="st8" points="179.8,98.7 154.3,65 150.5,62.9 	"/>
	<polygon class="st8" points="140.3,89.4 140.7,74.6 139.7,76.9 	"/>
	<polygon class="st8" points="151.7,92.4 146,63.1 144.7,66 	"/>
	<polygon class="st8" points="164.3,97.6 148.1,61.6 147,61 146.3,62.3 	"/>
	<polygon class="st9" points="123.1,111.1 126.1,89.1 131.1,79.2 139.2,58.8 135.4,56.2 119,51.8 118.5,53.8 118.3,54.8 117.7,57.5 
		115.9,65.3 115.6,66.4 115.2,67.6 111.2,81.1 110.5,83.6 100,96 88.8,107 93.7,113 98,113 99,113.9 107,120.6 114.7,118.8 
		119.2,124.9 119.7,124.7 	"/>
	<polygon class="st10" points="140.7,74.6 144.7,66 146,63.1 146.3,62.3 147,61 135.9,54.8 119.2,50.8 119.1,51.5 119,51.8 
		135.4,56.2 139.2,58.8 131.1,79.2 126.1,89.1 123.1,111.1 119.7,124.7 123.2,123.5 124.6,123 130.4,125.2 132.8,121.1 132.9,105.2 
		132.8,91.9 133.7,89.9 139.7,76.9 	"/>
	<path class="st11" d="M81.7,49.6l-0.8-0.8l5.5-1.4l-0.2,1.7l18.3-1.9l9.9,2.4l4.8,1.2l0.1,0l16.7,4L147,61l1.1,0.6l2.4,1.3l3.8,2.1
		l2.8,1.6l23.2,22.1l5.7,13.1l5.1-3.3l-0.2-0.4l1.5-3l2.2,0.2l0,1l4-2.6l-1.8-12.6l-2-1.9l1.5-1.7l-0.1-0.7l-7.8-14.3l-0.1,3.1
		l-3.9-3.6l0.1-4.6l-15.4-19.1l-25.4-13.2l0.8,0.6l-2.3,2.4l-4.8-1.1l-0.3-2.6l1.7-0.6l-33.4-2.5l0.6,2.9l-2.1,3.1l-3-1.1l0.3-3.2
		L73.9,35.3l-1.6,2.8l-2.6,1l0.4-1.5l-7.3,4.8l-1.3,10.3l18.7-3L81.7,49.6z M145.3,52.8l0.8,3.1l-3.5,0.4l-2.2-2.7l3.2-2.3
		L145.3,52.8z M178.8,73.3l0.7,2.6l-0.7,1.9l-1.7-1.7L178.8,73.3z M160.6,45.7l2.4,1.8l-0.4,3l-3.3,0.2l-0.9-2.7L160.6,45.7z
		 M138.9,37.7l0.7,1.8l-0.9,2.3l-1.9-2.6L138.9,37.7z M121.5,46.2l-3.4,2l-2.2-4.2l3.4-2.3L121.5,46.2z M97.3,37.3l2.7,0.4l-0.3,2.4
		l-2.2,1.1l-1.8-1.8L97.3,37.3z M66.6,50.2l-1.1-0.4l1.1-2.8l2,1.9L66.6,50.2z"/>
	<polygon class="st12" points="137.4,27 142.2,28.1 144.5,25.7 143.7,25.1 141,23 138.8,23.8 137.1,24.4 	"/>
	<polygon class="st12" points="188.3,65.6 188.4,62.5 188.4,60.8 184.5,57.1 184.5,57.4 184.4,62 	"/>
	<polygon class="st12" points="162.6,50.5 163,47.5 160.6,45.7 158.4,48 159.3,50.7 	"/>
	<polygon class="st12" points="103.9,27.2 106,24.1 105.4,21.2 105.4,21 101.3,22.3 101.2,22.9 100.9,26.1 	"/>
	<polygon class="st12" points="196.8,81.1 197.1,81.4 197.7,79.1 196.6,77.2 196.3,77.5 194.8,79.2 	"/>
	<polygon class="st12" points="179.5,75.9 178.8,73.3 177.1,76.1 178.8,77.8 	"/>
	<polygon class="st12" points="115.9,44 118.1,48.2 121.5,46.2 119.3,41.7 	"/>
	<polygon class="st12" points="72.3,38.1 73.9,35.3 74,35.2 70.7,35.5 70.1,37.6 69.7,39.1 	"/>
	<polygon class="st12" points="97.5,41.2 99.7,40.1 100,37.7 97.3,37.3 95.7,39.4 	"/>
	<polygon class="st12" points="140.4,53.6 142.6,56.3 146.1,55.9 145.3,52.8 143.6,51.3 	"/>
	<polygon class="st12" points="139.6,39.5 138.9,37.7 136.8,39.2 138.7,41.8 	"/>
	<polygon class="st12" points="80.9,48.8 81.7,49.6 83.3,51.2 86.1,50.5 86.2,49.1 86.4,47.4 	"/>
	<polygon class="st12" points="192.4,95.1 190.9,98.1 191.1,98.5 191.5,99.5 194.5,97.7 194.6,96.3 194.6,95.3 	"/>
	<polygon class="st12" points="65.5,49.8 66.6,50.2 68.6,48.9 66.6,47 	"/>
	<polygon class="st13" points="196.6,143.9 195.7,142.7 200.9,164.4 194.2,140.8 193.3,139.6 193.5,160.5 192.3,139.5 191.9,139.8 
		188.5,155.3 190.7,140.9 186.9,144.3 183.6,151.4 185.9,145.2 180.2,150.3 188.6,158.1 201.1,166 203.2,167.2 203.2,159.6 	"/>
	<polygon class="st13" points="168.9,138.1 176.7,134.5 179.3,131 165.1,133.2 180.1,129.9 180.5,129.4 159.9,128.1 181.2,128.4 
		181.5,128 181.4,128 156,120.8 179.3,126.4 175.1,123.2 165.7,120.2 165.3,120.9 163.8,120.7 163.4,119.4 162.6,119.2 152.8,116.7 
		157.2,125.5 166.6,136.7 171.1,141.2 175.9,135.5 	"/>
	<polygon class="st13" points="144.3,189.8 147.9,184.5 148.8,181.1 164.8,165.1 163.8,161.3 160.2,159.9 157.7,155 151.2,160.9 
		140.6,171.5 136.7,173.1 128.8,179.9 128,181.8 129.5,184.4 132.2,185.3 133.9,188.3 136.1,189 138.5,192.9 141.3,192.8 	"/>
	<polygon class="st14" points="165.7,164.3 164.8,160.4 160.7,159.6 158.2,154.6 157.7,155 160.2,159.9 163.8,161.3 164.8,165.1 
		148.8,181.1 147.9,184.5 144.3,189.8 141.3,192.8 138.5,192.9 138.5,192.9 140.3,193.6 143,194.3 150.3,186.2 151.2,181.9 
		162,170.4 167.9,164.5 166,164.3 	"/>
	<polygon class="st14" points="181.4,128 179.3,126.4 156,120.8 	"/>
	<polygon class="st14" points="175.9,135.5 176.4,134.9 176.7,134.5 168.9,138.1 	"/>
	<polygon class="st14" points="179.3,131 180.1,129.9 165.1,133.2 	"/>
	<polygon class="st14" points="159.9,128.1 180.5,129.4 181.1,128.5 181.2,128.4 	"/>
	<polygon class="st14" points="200.9,164.4 195.7,142.7 194.2,140.8 	"/>
	<polygon class="st14" points="183.6,151.4 186.9,144.3 185.9,145.2 	"/>
	<polygon class="st14" points="188.5,155.3 191.9,139.8 190.7,140.9 	"/>
	<polygon class="st14" points="193.5,160.5 193.3,139.6 192.9,139 192.3,139.5 	"/>
	<polygon class="st15" points="164.8,160.4 165.7,164.3 166,164.3 170.5,158.3 176.7,148.3 181.3,144.5 189.5,136.2 188.2,134.2 
		181.1,128.5 180.5,129.4 180.1,129.9 179.3,131 176.7,134.5 176.4,134.9 175.9,135.5 171.1,141.2 170.2,142.2 162.5,146.1 
		154.7,149.1 155.8,153.1 157.9,154 158.2,154.6 160.7,159.6 	"/>
	<polygon class="st16" points="186.9,144.3 190.7,140.9 191.9,139.8 192.3,139.5 192.9,139 188.8,133.6 181.5,128 181.2,128.4 
		181.1,128.5 188.2,134.2 189.5,136.2 181.3,144.5 176.7,148.3 170.5,158.3 166,164.3 167.9,164.5 168.7,164.5 171.1,166.8 
		173.1,165.3 176.6,157.6 179.4,151 180.2,150.3 185.9,145.2 	"/>
	<path class="st17" d="M213.5,157.6l0.1-0.4l-0.9-8.7l-0.6,1.5l-1.2-2.6l1-2.2l-3.4-12.6l-9.7-12l0.3,0.6l-1.6,0.7l-2.1-1.6l0.4-1.3
		l1.1,0l-15.8-8.3l-0.4,1.5l-1.7,1.1l-1.2-1.2l0.8-1.5l-16,0.3l-1.4,1l-1.4-0.1l0.5-0.6l-4.6,0.8l-2.9,4.7l9.8,2.5l0.8,0.2l-0.2-0.4
		l2.9,0.4l-0.4,0.8l9.4,3l4.2,3.2l2.1,1.6l0.1,0.1l7.3,5.6l4.1,5.4l0.5,0.6l0.9,1.2l1.5,1.9l0.9,1.2l6.6,15.7v7.6l3.2-0.5v-0.2
		l1.4-1.2l1,0.6l-0.2,0.4l2.5-0.4l1.8-6.4l-0.5-1.4L213.5,157.6z M205.8,151.7l-0.2,1.5l-0.8,0.7l-0.4-1.2L205.8,151.7z M201.2,135
		l1.6-0.6l0.8,1.4l-0.9,1.4l-1.6-0.6L201.2,135z M193.9,125.8v1.1l-1,0.9l-0.4-1.7L193.9,125.8z M183.6,126.3l-2.2,0.3l-0.1-2.5
		l2.1-0.4L183.6,126.3z M155.9,116.6l-0.5-0.4l1.2-1.2l0.5,1.4L155.9,116.6z M172.4,117.5l1.2-0.7l1.2,0.8l-0.6,1.1l-1.3,0.1
		L172.4,117.5z M191.3,134l2-0.5l0.5,1.1l-0.3,1.7l-1.8-0.5L191.3,134z"/>
	<polygon class="st18" points="195.4,120.3 197.5,121.9 199.1,121.2 198.8,120.6 198.1,119.1 196.9,119 195.8,119 	"/>
	<polygon class="st18" points="212.1,150 212.7,148.5 213.1,147.7 212,145 211.9,145.2 210.9,147.4 	"/>
	<polygon class="st18" points="203.6,135.8 202.8,134.4 201.2,135 201.1,136.6 202.7,137.2 	"/>
	<polygon class="st18" points="179,113.3 180.7,112.2 181.1,110.7 181.1,110.6 178.8,110.3 178.6,110.6 177.8,112.1 	"/>
	<polygon class="st18" points="213.8,158.6 213.6,157.5 213.5,157.6 212.4,158.1 212.9,159.5 213,159.6 	"/>
	<polygon class="st18" points="205.6,153.2 205.8,151.7 204.4,152.7 204.8,153.9 	"/>
	<polygon class="st18" points="181.3,124.1 181.4,126.6 183.6,126.3 183.4,123.7 	"/>
	<polygon class="st18" points="161.2,111.9 162.6,110.9 162.7,110.8 161,110.3 160.3,111.2 159.8,111.8 	"/>
	<polygon class="st18" points="174.2,118.7 174.8,117.6 173.6,116.8 172.4,117.5 172.9,118.8 	"/>
	<polygon class="st18" points="193.5,136.3 193.8,134.6 193.3,133.5 191.3,134 191.7,135.8 	"/>
	<polygon class="st18" points="193.9,126.9 193.9,125.8 192.5,126.1 192.9,127.8 	"/>
	<polygon class="st18" points="165.3,120.9 165.7,120.2 166.1,119.4 163.2,119 163.4,119.4 163.8,120.7 	"/>
	<polygon class="st18" points="207.8,165.3 206.4,166.5 206.4,166.7 206.4,167.2 208.3,167 208.6,166.3 208.8,165.9 	"/>
	<polygon class="st18" points="155.4,116.2 155.9,116.6 157.1,116.4 156.6,115 	"/>
</g>
</svg>
