<?xml version="1.0" encoding="utf-8"?>
<!-- Generator: Adobe Illustrator 21.0.0, SVG Export Plug-In . SVG Version: 6.00 Build 0)  -->
<svg version="1.1" id="Layer_1" xmlns="http://www.w3.org/2000/svg" xmlns:xlink="http://www.w3.org/1999/xlink" x="0px" y="0px"
	 viewBox="0 0 220 240" style="enable-background:new 0 0 220 240;" xml:space="preserve">
<style type="text/css">
	.st0{fill:#634A35;}
	.st1{fill:#CC9A69;}
	.st2{fill:#DFEABB;}
	.st3{clip-path:url(#SVGID_2_);fill:#DFEABB;}
	.st4{clip-path:url(#SVGID_4_);fill:#C6CCA6;}
	.st5{fill:#DBDB8D;}
	.st6{fill:#BFC57B;}
	.st7{fill:#D1D385;}
	.st8{fill:#B6B774;}
	.st9{fill:#B5885E;}
	.st10{clip-path:url(#SVGID_6_);fill:#CC9A69;}
	.st11{clip-path:url(#SVGID_8_);fill:#B5885E;}
	.st12{opacity:0.43;fill:#EA4450;enable-background:new    ;}
	.st13{clip-path:url(#SVGID_10_);fill:#FFFFFF;}
	.st14{clip-path:url(#SVGID_10_);fill:#4E7F73;}
	.st15{fill:#70543A;}
	.st16{clip-path:url(#SVGID_12_);fill:#FFFFFF;}
	.st17{clip-path:url(#SVGID_12_);fill:#4E7F73;}
</style>
<path class="st0" d="M95.9,22.1l-7,27.2c0,0-4.7,30.5-4.7,31.7s16.4,5.9,16.4,5.9l10.6-14.1L99.8,51.6L95.9,22.1l24.7-12.8l15.3,9.4
	c0,0,4.7,20,4.7,21.1c0,0.6-0.4,13.6-3.5,21.1c-3.3,8.1-9.4,10.6-9.4,10.6s1.2,15.3,1.2,16.4c0,1.2,14.1,11.7,14.1,11.7l12.9-2.3
	l2.3-7l-7-21.1l-7-30.5l-8.9-21.5l-15.9-3.7l-13.8,1.4C105.6,14.9,95.9,22.1,95.9,22.1z"/>
<path class="st1" d="M107.7,74.2l-9.5,1.2l-9.3,1.1l-5.8,4.7l-3.6,12.9l-2.3,13v4.7h9.4l8-12.7l6.1,3.3h38.7l9.4-4.6l-3.5-14.2
	l-7-5.9l-9.4-2.4l-2.4-5.8l-16.4-1.2L107.7,74.2z"/>
<path class="st1" d="M138.3,77.7l12.4,3.6l5.5,3.2l3.9,6.4l-1.2,17.6l-10.9,2.1l-7.8-21.2L138.3,77.7z"/>
<path class="st2" d="M88.9,109.4L84.2,127L76,143.5l-6.5-13.8l5.3-22.6L88.9,109.4z"/>
<g>
	<defs>
		<polygon id="SVGID_1_" points="144.7,103.8 143.8,122 146.7,140.2 158.2,169.8 174.3,181 177.3,179.5 170.9,172.5 181.7,174.2 
			190,178.9 194.4,180 193.2,176 184.1,170.7 172.7,167 165.5,162.2 158.4,126.7 160.1,107.1 		"/>
	</defs>
	<clipPath id="SVGID_2_">
		<use xlink:href="#SVGID_1_"  style="overflow:visible;"/>
	</clipPath>
	<path class="st3" d="M144.7,103.8l-0.9,18.2l2.9,18.2l11.5,29.6l16.1,11.2l3-1.5l-6.4-7l10.8,1.7l8.3,4.7l4.4,1.1l-1.2-4l-9.1-5.3
		l-11.4-3.7l-7.2-4.8l-7.1-35.5l1.7-19.6L144.7,103.8z"/>
</g>
<g>
	<defs>
		<polygon id="SVGID_3_" points="144.7,103.8 143.8,122 146.7,140.2 158.2,169.8 174.3,181 177.3,179.5 170.9,172.5 181.7,174.2 
			190,178.9 194.4,180 193.2,176 184.1,170.7 172.7,167 165.5,162.2 158.4,126.7 160.1,107.1 		"/>
	</defs>
	<clipPath id="SVGID_4_">
		<use xlink:href="#SVGID_3_"  style="overflow:visible;"/>
	</clipPath>
	<path class="st4" d="M149.8,102.7l-2.4,20.5l2.4,18.3l7.9,23.5l15.7,15.7l-20.2-12.4l-5.8-17.7l-8.8-24.6l3.7-13.6l-0.3-11.8
		L149.8,102.7z"/>
</g>
<path class="st5" d="M47.1,202.8l-27.5,8l-12.1,30l191.4-0.8l-7.9-26.9l-37-18.2l-40.8-6.2l-40.8,3L47.1,202.8z"/>
<path class="st6" d="M45,179.8l-25.4,31l-1.5,3.4l43.8-6.2l27,13.6l24.1-15.3l28.8,16.4l18.3-13.5l33.5,12.9l-2.3-7.8l-20.2-29.7
	l-27.3-12.7l-37.7-6.2l-37.7,3L45,179.8z"/>
<path class="st7" d="M45,176.8l-11.3,13.1l-17.3,20.4l45.5-5.2l27,13.5l24.1-15.2l28.8,16.4l18.3-13.5l35.9,11.1l-11.6-20.8
	l-13.3-14.9L143.8,169l-37.7-6.2l-37.7,3L45,176.8z"/>
<path class="st8" d="M86.6,105.6l5.9-12.9l4.7,7l5.8-3.5l5.9,2.3l4.7-2.3l4.7,4.7l5.9-4.7l5.9,4.7l2.3-2.4l3.5,2.4l3.5-4.7l3.6,4.7
	l3.5-7.1l4.2,15l-6,12.9l-8.5,9.4l0.9,20.3l30.5,26.9l8.7,9.3l-30.1-6l-16.5,4.4l-21.6-11.1l-16.8,8.6l-19.6-6.1l-31.4,5.2l3-3.8
	l42.1-30.9l7.1-10.6l3.8-12.3l-8-9.9L86.6,105.6z"/>
<path class="st9" d="M92.5,90.6l1.2-0.8l4.1,6.6l5-3.3l6.1,2l5.7-2l4,4.1l6-4.8l5.3,4.8l3.1-2l2.6,2l3.8-4.9l3.6,4.8l3.5-5.3
	l-1.2,9.5l-25.8,3.8l-28.6-4L92.5,90.6z"/>
<path class="st9" d="M92.5,90.6L87.9,97l-3.7,7.6l0.8,4.1l1.6,0.3l6.2-15.2L92.5,90.6z"/>
<path class="st6" d="M86.6,103.5l5.9-12.9l4.7,7.1l5.8-3.6l5.9,2.4l4.7-2.4l4.7,4.7l5.9-4.7l5.9,4.7l2.3-2.3l3.5,2.3l3.5-4.7
	l3.6,4.7l3.5-7l4.5,15.1l-3.5,15.4l-8.3,8.3l-2.1,7.6l3.5,10.2l27.8,26.9l10.9,11.5l-33.1-7.2l-16.5,4.4l-21.6-11.1l-16.8,8.5
	l-19.6-6l-32.8,4.2l14.8-12.5l31.7-21.3l7.1-10.6v-9.4l-5.9-10.5L86.6,103.5z"/>
<path class="st2" d="M82.7,115.8l1.6,7.8L77.4,144l-15.5,26.8l-10.6,11.1l-2.5-2.2l3.3-7.4l-9.6,7.4l-4.2,8.6L35,190l-0.9-4.1
	l4.5-7.5l9.3-10.2l8.6-6.4l12.8-33.7l5.5-21L82.7,115.8z"/>
<g>
	<g>
		<defs>
			<polygon id="SVGID_5_" points="141.8,47.2 137.1,64.8 127.7,73 120.7,76.5 113.6,74.2 103,64.8 96,46 98.3,16.6 116,6 128.9,8.4 
				138.3,15.4 			"/>
		</defs>
		<clipPath id="SVGID_6_">
			<use xlink:href="#SVGID_5_"  style="overflow:visible;"/>
		</clipPath>
		<path class="st10" d="M141.8,47.2l-4.7,17.6l-9.4,8.2l-7,3.5l-7.1-2.3L103,64.8L96,46l2.3-29.4l19.8-8.8l10.8,0.6l9.4,7
			L141.8,47.2z"/>
	</g>
	<g>
		<defs>
			<polygon id="SVGID_7_" points="141.8,47.2 137.1,64.8 127.7,73 120.7,76.5 113.6,74.2 103,64.8 96,46 98.3,16.6 116,6 128.9,8.4 
				138.3,15.4 			"/>
		</defs>
		<clipPath id="SVGID_8_">
			<use xlink:href="#SVGID_7_"  style="overflow:visible;"/>
		</clipPath>
		<path class="st11" d="M111.8,21.3l-6.3,20.4l-0.9,11.9l1.7,10l8.1,8.6l6.3,3l7-1.7l-4.5,4.8l-15.6-2.8l-8.3-10.7l-5.9-19.4l5.3-20
			L111.8,21.3z"/>
	</g>
	<path class="st12" d="M113.6,65.9l3.5-1.1l3.6,0.5l3.5-0.5l3.5,1.1l-1.2,1.2l-2.4,1l-3.4,0.6l-3.6-0.4l-2.3-1.2L113.6,65.9z"/>
	<g>
		<path class="st9" d="M119.3,60.1v-2.4l-1.1-8.2l-1.2,4.7l-1.2,4.7l2.4,1.2H119.3z"/>
		<path class="st9" d="M119.3,60.1l2.7-0.5l-1.3,1.1h-4.1l-0.8-1.1v-0.7l1.8,0.9L119.3,60.1z"/>
	</g>
	<g>
		<path class="st9" d="M122.3,44.4l2.6-2.3l2.7-1h6l1.9,1.1l1.5,0.1l-1.2,2.1l-2.8,1.5l-4.1,1.2l-4.1-0.3l-1.4-1.6L122.3,44.4z"/>
		<g>
			<defs>
				<polygon id="SVGID_9_" points="125.5,45.8 128.6,46.1 132.1,45.3 135.2,43 131.6,42.1 127.4,42.3 124.1,44.3 				"/>
			</defs>
			<clipPath id="SVGID_10_">
				<use xlink:href="#SVGID_9_"  style="overflow:visible;"/>
			</clipPath>
			<path class="st13" d="M123.3,47.3l5.4,0.7l5.9-1.3l4.7-3.8l-6-3.1l-8-0.4l-7,5.1L123.3,47.3L123.3,47.3z"/>
			<ellipse transform="matrix(0.9679 -0.2515 0.2515 0.9679 -6.8172 33.8414)" class="st14" cx="129" cy="43.6" rx="3.1" ry="3.1"/>
		</g>
		<path class="st15" d="M136.3,40.3l-3.9-1.2l-3.1-0.3l-4,0.5l-3.3,1.8l3.8-0.4l3.8-0.6l5,0.5L136.3,40.3z"/>
	</g>
	<g>
		<path class="st9" d="M115.5,44.3l-2.7-2.3l-2.7-0.9l-6,0.1l-1.8,1.1l-1.6,0.2l1.4,2.1l2.7,1.4l4.1,1.1l4.2-0.4l1.3-1.6L115.5,44.3
			z"/>
		<g>
			<defs>
				<polygon id="SVGID_11_" points="113.7,44.2 110.3,42.3 106.2,42.2 102.6,43.2 105.7,45.4 109.2,46.1 112.3,45.7 				"/>
			</defs>
			<clipPath id="SVGID_12_">
				<use xlink:href="#SVGID_11_"  style="overflow:visible;"/>
			</clipPath>
			<path class="st16" d="M119.6,44.1l-7.1-4.9l-8,0.6L98.6,43l4.8,3.7l5.9,1.2l5.3-0.8C114.6,47.1,119.6,44.1,119.6,44.1z"/>
			
				<ellipse transform="matrix(0.2291 -0.9734 0.9734 0.2291 41.3883 139.5085)" class="st17" cx="108.8" cy="43.6" rx="3.1" ry="3.1"/>
		</g>
		<path class="st15" d="M101.4,40.4l3.9-1.3l3.1-0.3l4,0.4l3.4,1.7l-3.9-0.2l-3.8-0.6l-5,0.7L101.4,40.4z"/>
	</g>
</g>
<path class="st15" d="M116,23.1l-5.9,8.2L99.5,43.1l-1.2,2.3v27c0,0-1.2,21.1-1.2,22.3c0,1.2-2.3,15.3-2.3,15.3l-2.3-4.7V50.2
	l-1.2-12.9l2.3-21.1L104.2,8l9.4-2.3l3.5,1.2l3.5-1.2l10.6,1.2l8.2,7l4.7,10.6l1.2,17.6l1.2,39.9l1.2,30.5l-1.2,3.5l-3.2-7.4
	c0,0-0.3-11.4-0.3-13.8s-3.5-29.4-3.5-29.4l-1.2-25.8l-7-5.9l-8.2-8.2l-4.7-3.5C118.4,22,116,23.1,116,23.1z"/>
<path class="st6" d="M92.8,22.3l9.8,3.3l16.7,2.6l15.9-2.6l8.2-2.9l-0.6-13.4l-2.4,10.8l-7.6,2.8l-11.6-2l-2.7-11.6l-2.7,11.9
	l-15.1,1.1L96,19.9V9.3l-3.2,9.9V22.3z"/>
</svg>
