<?xml version="1.0" encoding="utf-8"?>
<!-- Generator: Adobe Illustrator 22.1.0, SVG Export Plug-In . SVG Version: 6.00 Build 0)  -->
<svg version="1.1" id="Layer_1" xmlns="http://www.w3.org/2000/svg" xmlns:xlink="http://www.w3.org/1999/xlink" x="0px" y="0px"
	 viewBox="0 0 220 240" style="enable-background:new 0 0 220 240;" xml:space="preserve">
<style type="text/css">
	.st0{fill:#9B2421;}
	.st1{clip-path:url(#SVGID_2_);fill:#290B06;}
	.st2{clip-path:url(#SVGID_4_);fill:#130500;}
	.st3{clip-path:url(#SVGID_6_);fill:#290B06;}
	.st4{clip-path:url(#SVGID_8_);fill:#130500;}
	.st5{fill:#130500;}
	.st6{fill:#B38C4F;}
	.st7{fill:#A17E43;}
	.st8{fill:#D4A966;}
	.st9{fill:#DBDBDB;}
	.st10{clip-path:url(#SVGID_10_);fill:#736357;}
	.st11{fill:none;}
	.st12{fill:#DD6262;}
	.st13{clip-path:url(#SVGID_12_);fill:#140906;}
	.st14{fill:#CC9A69;}
	.st15{fill:#DFC298;}
	.st16{clip-path:url(#SVGID_14_);fill:#CC9A69;}
	.st17{clip-path:url(#SVGID_16_);fill:#B5885E;}
	.st18{fill:#B5885E;}
	.st19{clip-path:url(#SVGID_18_);fill:#FFFFFF;}
	.st20{clip-path:url(#SVGID_20_);fill:#365259;}
	.st21{clip-path:url(#SVGID_22_);fill:#FFFFFF;}
	.st22{clip-path:url(#SVGID_24_);fill:#365259;}
	.st23{fill:#B2705F;}
	.st24{fill:#6D4F38;}
	.st25{fill:#6B482D;}
	.st26{fill:#D4C170;}
	.st27{clip-path:url(#SVGID_26_);fill:#B7A662;}
	.st28{clip-path:url(#SVGID_28_);fill:#D4C170;}
	.st29{clip-path:url(#SVGID_30_);fill:#D4C170;}
	.st30{clip-path:url(#SVGID_32_);fill:#D4C170;}
	.st31{opacity:0.75;fill:#9B2421;}
</style>
<g>
	<polygon class="st0" points="152.3,101.9 154.7,170.6 168.7,226 158.3,230 152.6,232.7 146.9,230.3 141,233.3 131.8,229.7 
		128.3,232.3 120,228 116,231.8 108.8,227.8 102.5,229.8 97.4,225.2 80,172.3 80,92.6 80,82.5 133.6,82.5 141,82.5 	"/>
	<g>
		<g>
			<defs>
				<polygon id="SVGID_1_" points="139.4,202.3 142.8,220.3 142.9,232.5 140.5,240 113.4,240 116,231.8 112.8,211.6 				"/>
			</defs>
			<clipPath id="SVGID_2_">
				<use xlink:href="#SVGID_1_"  style="overflow:visible;"/>
			</clipPath>
			<path class="st1" d="M139.4,202.3l3.4,18l0.1,12.2l-2.4,7.5h-27.1l2.6-8.2l-3.2-20.2L139.4,202.3L139.4,202.3z"/>
		</g>
		<g>
			<defs>
				<polygon id="SVGID_3_" points="139.4,202.3 142.8,220.3 142.9,232.5 140.5,240 113.4,240 116,231.8 112.8,211.6 				"/>
			</defs>
			<clipPath id="SVGID_4_">
				<use xlink:href="#SVGID_3_"  style="overflow:visible;"/>
			</clipPath>
			<path class="st2" d="M142.9,199.4l-0.5,18.7l-15.7,4.2l-12,0.6l-4.1-23.5H142.9z"/>
		</g>
		<g>
			<g>
				<defs>
					<polygon id="SVGID_5_" points="71.1,200.7 66,217.8 63.6,231.7 65.5,240 92.5,240 90.9,233.8 96.5,216.8 93.1,211.2 					"/>
				</defs>
				<clipPath id="SVGID_6_">
					<use xlink:href="#SVGID_5_"  style="overflow:visible;"/>
				</clipPath>
				<path class="st3" d="M71.1,200.7L66,217.8l-2.4,13.9l1.9,8.3h27l-1.6-6.2l5.6-17l-3.4-5.6L71.1,200.7z"/>
			</g>
			<g>
				<g>
					<defs>
						<polygon id="SVGID_7_" points="71.1,200.7 66,217.8 63.6,231.7 65.5,240 92.5,240 90.9,233.8 96.5,216.8 93.1,211.2 						"/>
					</defs>
					<clipPath id="SVGID_8_">
						<use xlink:href="#SVGID_7_"  style="overflow:visible;"/>
					</clipPath>
					<path class="st4" d="M72,194.3l-4.3,18.2l14.4,5.6l13.9,2.4l7.2-18.2C103.2,202.3,72,194.3,72,194.3z"/>
				</g>
			</g>
		</g>
	</g>
	<path class="st5" d="M94.1,208.8l10.8-4.7l9.6,6.9l-6.5-21.4c0,0-6.7-3.6-7-2.3C100.6,188.7,94.1,208.8,94.1,208.8z"/>
	<g>
		<path class="st6" d="M174.2,189.6v7l-3.7,1.7l-4.9-0.4l-1.2,1.6l0.4,2.2l5.6,1.2l4.3-0.7l4.5-4.7l-2.3-7.8L174.2,189.6
			L174.2,189.6z"/>
		<path class="st7" d="M174.9,190.3v8.6l-1.3,4.4l-4.4,1.1l-3,1v1.8l1.8,1.2l4.9,1l5.6-5.3v-10.2l-1.1-4.3L174.9,190.3z"/>
		<path class="st8" d="M183.7,177.6l1.3,12.9l-3,11.9l-4.9,9.4l-3.5,2.2l-2.6-1.3v-3l4.7-4.9l0.7-4.3l-1.1-7.6l-1.6-2.6l-1.2,3.9
			l-0.6,4.6l-2.1,0.4l-3.3-1.7v-7.9l-0.9-5.2l1.5-5.9l1.3-2l11.3-2.7L183.7,177.6L183.7,177.6z"/>
		<path class="st6" d="M40.6,189l-2,6.7l3,2.7l4.9,1l0.7,1.9l-1.1,2l-5.7-0.4l-3.9-2l-3-5.7l4.5-6.8L40.6,189z"/>
		<path class="st7" d="M39.8,189.5l-2.5,8.2l-0.1,4.6l4,2.3l2.6,1.8l-0.6,1.8l-2.1,0.6l-4.9-0.4l-3.9-6.7l3-9.8l2.2-3.8L39.8,189.5
			L39.8,189.5z"/>
		<path class="st8" d="M36.8,174.8l-4.9,12l-0.5,12.3l1.9,10.3l2.8,3.1l2.8-0.4l0.9-2.9l-3.1-6.1l0.5-4.2l3.3-7l2.2-2.1l0.1,4.2
			l-0.7,4.5l1.7,2.9l2.7-2l3.4-8.2l2.3-4.7l0.2-6.1l-0.7-2.3l-10-5.8C41.7,172.3,36.8,174.8,36.8,174.8z"/>
		<path class="st9" d="M142.7,115.8l2.6,12.9l5.1,13.5l1.1,7.9l8.6,6.6l5.6,23.8l12.1-0.9l5.1-4l-7-13.2l1.9-17.8l-5.5-13.5
			l-3.5-11.9l-3.1-17.2l-8.5-8.2L141,107.9L142.7,115.8L142.7,115.8z M83.4,118.4l-4.2,12.4l-6.8,12.7l-2.1,7.7l-4.7,4.9l-13.2,23.5
			l-11.9-2.4l1.4-3.7l7-19.8l-2.1-10.6l4.5-14.1l5.8-10.6l5.2-16.6l3.5-5.9L86,110.7L83.4,118.4L83.4,118.4z"/>
		<g>
			<defs>
				<polygon id="SVGID_9_" points="96.7,78.3 78.7,84 63.6,95.8 76.7,116.2 82.7,140.9 81.1,153.4 66.4,191.5 65.8,202.5 
					90.5,216.5 107.3,218.3 116.4,215.2 126,215.6 145.1,210.8 141.4,181.7 138.1,170.3 131.8,148.3 132.8,135.2 134.6,130.2 
					139.8,125.4 143.1,113.1 156,101.9 163.3,96.5 145.5,85.1 131.8,80 127.8,78.3 116.1,89.2 107.3,88.1 99.1,81.3 				"/>
			</defs>
			<clipPath id="SVGID_10_">
				<use xlink:href="#SVGID_9_"  style="overflow:visible;"/>
			</clipPath>
			<path class="st10" d="M96.7,78.3l-18,5.7L63.6,95.8l13.1,20.4l6,24.7l-1.6,12.5l-14.7,38.1l-0.6,11l24.7,14l13.2-28.4l12.7,27.1
				l9.6,0.4l19.1-4.8l-3.7-29.1l-3.3-11.4l-6.3-22l1-13.1l1.8-5l5.2-4.8l3.3-12.3l12.9-11.2l7.3-5.4l-17.8-11.4L131.8,80l-4-1.7
				l-11.7,10.9l-8.8-1.1l-8.2-6.8L96.7,78.3L96.7,78.3z"/>
		</g>
		<polygon class="st11" points="96.7,78.3 78.7,84 63.6,95.8 76.7,116.2 82.7,140.9 81.1,153.4 66.4,191.5 65.8,202.5 90.5,216.5 
			107.3,218.3 116.4,215.2 126,215.6 145.1,210.8 141.4,181.7 138.1,170.3 131.8,148.3 132.8,135.2 134.6,130.2 139.8,125.4 
			143.1,113.1 156,101.9 163.3,96.5 145.5,85.1 131.8,80 127.8,78.3 116.1,89.2 107.3,88.1 99.1,81.3 		"/>
		<polygon class="st12" points="134.6,130.2 139.8,125.4 143.1,113.1 156,101.9 163.3,96.5 145.5,85.1 131.8,80 127.8,78.3 
			116.1,89.2 107.3,88.1 99.1,81.3 96.7,78.3 96.7,78.3 78.7,84 63.6,95.8 76.7,116.2 82.7,140.9 81.1,153.4 66.4,191.5 65.8,202.5 
			90.5,216.5 99.2,217.4 104.3,193.9 109.2,217.7 116.4,215.2 126,215.6 145.1,210.8 141.4,181.7 138.1,170.3 131.8,148.3 
			132.8,135.2 		"/>
		<g>
			<g>
				<defs>
					<polygon id="SVGID_11_" points="96.7,78.3 78.7,84 63.6,95.8 76.7,116.2 82.7,140.9 81.1,153.4 66.4,191.5 65.8,202.5 
						90.5,216.5 107.3,218.3 116.4,215.2 126,215.6 145.1,210.8 141.4,181.7 138.1,170.3 131.8,148.3 132.8,135.2 134.6,130.2 
						139.8,125.4 143.1,113.1 156,101.9 163.3,96.5 145.5,85.1 131.8,80 127.8,78.3 116.1,89.2 107.3,88.1 99.1,81.3 					"/>
				</defs>
				<clipPath id="SVGID_12_">
					<use xlink:href="#SVGID_11_"  style="overflow:visible;"/>
				</clipPath>
				<path class="st13" d="M77.2,153.1l21.9,3.3l20.5,0.1l17.2-3.5l-2.2,7.2l-15.4,3.2l-18.6-0.1l-21.5-3.6L77.2,153.1L77.2,153.1z"
					/>
			</g>
		</g>
		<polygon class="st14" points="97.6,74.3 91.8,82.5 112.3,95.9 130.9,82.9 125.1,71.4 		"/>
		<path class="st15" d="M116,165.2l-7.1,1.5l-7.1-1.5l-0.9-5l0.9-4.6l7.1-0.9l7.1,0.9l0.7,4.5L116,165.2z"/>
		<g>
			<g>
				<defs>
					<polygon id="SVGID_13_" points="92,73.3 104.8,92.7 120.9,92.7 130.9,73.9 135.7,51 135.7,25 122.3,12.5 105.7,12.5 91.8,22.4 
						88.1,51.3 					"/>
				</defs>
				<clipPath id="SVGID_14_">
					<use xlink:href="#SVGID_13_"  style="overflow:visible;"/>
				</clipPath>
				<path class="st16" d="M93.1,65.2L104.8,81h16.1l10-14.1l4.8-21.1V26.4l-2.3-2.8l-12.1-6.5h-16.6l-12.9,4.5l-1.4,23L93.1,65.2z"
					/>
			</g>
			<g>
				<defs>
					<polygon id="SVGID_15_" points="93.1,68.7 104.8,81 120.9,81 132.1,67.2 135.7,45.4 135.7,23.2 122.3,12.5 105.7,12.5 91.8,21 
						88.1,44.7 					"/>
				</defs>
				<clipPath id="SVGID_16_">
					<use xlink:href="#SVGID_15_"  style="overflow:visible;"/>
				</clipPath>
				<path class="st17" d="M103.9,20.8l-0.8,5.2l-6.7,8.7l-2,7.7l4.7,23.6l2.9,7.9l7.2,5.3l9.4,2l-32.4,4.2L72.7,63.5L79.5,39
					l7.8-18.5l9.1-1.7C96.4,18.8,103.9,20.8,103.9,20.8z"/>
			</g>
			<path class="st18" d="M93.2,47l5.9-2.6l4.2,1.2l4.1,3.1l-1.3,1.4l-5.6,2.4l-5.7-1l-3.9-3.1C90.9,48.4,93.2,47,93.2,47z"/>
			<polygon class="st18" points="133.8,30.3 135.7,35.4 135.7,39.4 133.8,36.1 132.4,39.5 128.1,33.6 125.4,39.5 120.5,34.9 
				117.1,38.1 113.5,34.9 109.4,39.5 106.4,35.9 102.2,39.5 99,35.6 91.7,40.9 90.1,38 91.3,31.6 			"/>
			<g>
				<g>
					<defs>
						<polygon id="SVGID_17_" points="94.1,48.2 98.6,46.5 102.5,47.2 105.9,49 102.7,50.7 99.1,51 96.1,50 						"/>
					</defs>
					<clipPath id="SVGID_18_">
						<use xlink:href="#SVGID_17_"  style="overflow:visible;"/>
					</clipPath>
					<path class="st19" d="M94.1,48.2l4.6-2.4l4,0.8l3.2,2.4l-3.2,1.7L99.1,51l-3-1L94.1,48.2z"/>
				</g>
			</g>
			<g>
				<g>
					<defs>
						<polygon id="SVGID_19_" points="94.1,48.2 98.6,46.5 102.5,47.2 105.9,49 102.7,50.7 99.1,51 96.1,50 						"/>
					</defs>
					<clipPath id="SVGID_20_">
						<use xlink:href="#SVGID_19_"  style="overflow:visible;"/>
					</clipPath>
					<circle class="st20" cx="100.7" cy="48.4" r="3.5"/>
				</g>
			</g>
			<g>
				<path class="st18" d="M130.6,46.8l-6.1-2.2l-4.1,1.6l-3.8,3.4L118,51l5.8,1.9l5.6-1.6L133,48L130.6,46.8L130.6,46.8z"/>
				<g>
					<defs>
						<polygon id="SVGID_21_" points="129.8,48 125.2,46.7 121.3,47.8 118.1,49.8 121.4,51.3 125,51.2 128,50 						"/>
					</defs>
					<clipPath id="SVGID_22_">
						<use xlink:href="#SVGID_21_"  style="overflow:visible;"/>
					</clipPath>
					<path class="st21" d="M129.8,48l-4.8-1.9l-3.9,1l-3,2.7l3.3,1.5l3.6-0.1l3-1.2L129.8,48z"/>
				</g>
				<g>
					<g>
						<defs>
							<polygon id="SVGID_23_" points="129.8,48 125.2,46.7 121.3,47.8 118.1,49.8 121.4,51.3 125,51.2 128,50 							"/>
						</defs>
						<clipPath id="SVGID_24_">
							<use xlink:href="#SVGID_23_"  style="overflow:visible;"/>
						</clipPath>
						<circle class="st22" cx="123.3" cy="48.8" r="3.5"/>
					</g>
				</g>
			</g>
			<polygon class="st23" points="105.5,68.7 109,68 112.7,68 116,68 119.9,68.7 118.7,69.9 116.2,70.9 112.7,71.5 109.1,71.1 
				106.7,69.9 			"/>
			<path class="st18" d="M112.6,51.3l2.3,5.4l1.1,4.6l-1.6,1.3l-3.3,0.6l-1.4-1.8l0.1-3.8L112.6,51.3z"/>
			<path class="st24" d="M116.3,47.8l3.1-4.8l4.1-1.5h2.9l7,3.1l-5.2-0.9l-3.4-0.5l-3.3,1C121.5,44.2,116.3,47.8,116.3,47.8z
				 M108.5,47.8l-3.1-4.8l-3.3-1.5h-3.7l-7,3.1l6.9-1.1l5,0.7L108.5,47.8z"/>
			<path class="st25" d="M96.3,18.6l-5,5.2l-3.3,14.1l2.3-2.9l2,4.5l6.6-6.2l3.9,3.8l3.5-3.8l3.3,3.5l3.8-4.2l3.2,3.7l3.8-4l4.4,4.7
				l2.9-6l4.1,5.3l1.4-4.5l3,5.5l1-6.3l-3.3-8.5l-6-5.2c0,0-13-2.9-13.2-3.1c-0.2-0.2-9.4,0.7-9.4,0.7L96.3,18.6z"/>
			<polygon class="st26" points="90.3,24.6 97.8,26.5 110.8,28.1 122.4,27.1 135.7,25.2 135.6,10.7 127.7,18.4 122,11.4 114.9,18.2 
				106.4,11.4 100.8,17.9 90.8,10.7 			"/>
		</g>
		<g>
			<path class="st26" d="M46.8,143.1l-2.4,1l0.6,5.2l-1.2,9.5l-3.4,9.9l-5.8,6.8l2.3,2.3l13.6,4h5.6l3.5-13.1l11.5-15.9l-0.1-2
				C71,150.8,46.8,143.1,46.8,143.1z"/>
			<g>
				<defs>
					<polygon id="SVGID_25_" points="45.2,142.5 47.4,138.8 48.7,137 47.8,133.6 49.9,132.4 54.6,137.8 63.8,141.4 71.5,141.9 
						76.6,142.5 76.6,146 73.6,146.7 72.4,149.7 71.8,152.3 72.9,155.1 63.5,154.1 51.1,150.6 42.1,144.6 43.2,142.8 					"/>
				</defs>
				<clipPath id="SVGID_26_">
					<use xlink:href="#SVGID_25_"  style="overflow:visible;"/>
				</clipPath>
				<path class="st27" d="M45.2,142.5l2.2-3.7l1.3-1.8l-0.9-3.4l2.1-1.2l4.7,5.4l9.2,3.6l7.7,0.5l5.1,0.6v3.5l-3,0.7l-1.8,2.3
					l0.4,4.3l0.7,1.8l-9.4-1l-12.4-3.5l-9-6l1.1-1.8L45.2,142.5L45.2,142.5z"/>
			</g>
			<g>
				<g>
					<defs>
						<polygon id="SVGID_27_" points="45.2,142.5 47.4,138.8 48.7,137 47.8,133.6 49.9,132.4 54.6,137.8 63.8,141.4 71.5,141.9 
							76.6,142.5 76.6,146 73.6,146.7 72.4,149.7 71.8,152.3 72.9,155.1 63.5,154.1 51.1,150.6 42.1,144.6 43.2,142.8 						"/>
					</defs>
					<clipPath id="SVGID_28_">
						<use xlink:href="#SVGID_27_"  style="overflow:visible;"/>
					</clipPath>
					<path class="st28" d="M46.3,134.6l6.6,6l10.4,3.6l9.4,2.5h5.1l-0.6,6.5l-10.9-1.7l-13.7-3.1l-7.6-5.8l-3.1-4.1L46.3,134.6z"/>
				</g>
			</g>
		</g>
		<g>
			<path class="st26" d="M176.7,143.3l2.5,1.3l-1.2,5.3l0.5,9.9l2.6,10.4l5.3,7.5l-2.5,2.2l-14.3,2.8l-5.8-0.5l-2.4-13.7L151,151.2
				l0.3-2.1L176.7,143.3L176.7,143.3z"/>
			<g>
				<defs>
					<polygon id="SVGID_29_" points="178.5,142.9 176.5,138.9 175.3,137 176.5,133.5 174.4,132.2 169.2,137.2 159.4,140.1 
						151.5,140 146.2,140.2 145.9,143.7 149,144.7 149.9,147.9 150.3,150.7 148.9,153.5 158.6,153.2 171.7,150.7 181.4,145.4 
						180.4,143.4 					"/>
				</defs>
				<clipPath id="SVGID_30_">
					<use xlink:href="#SVGID_29_"  style="overflow:visible;"/>
				</clipPath>
				<path class="st29" d="M178.5,142.9l-2-4l-1.2-1.9l1.2-3.5l-2.1-1.3l-5.2,5l-9.8,2.9l-7.9-0.1l-5.3,0.2l-0.3,3.5l3.1,1l1.6,2.5
					l-0.8,4.5l-0.9,1.8l9.7-0.3l13.1-2.5l9.7-5.3l-1-2L178.5,142.9L178.5,142.9z"/>
			</g>
			<g>
				<g>
					<defs>
						<polygon id="SVGID_31_" points="178.5,142.9 176.5,138.9 175.3,137 176.5,133.5 174.4,132.2 169.2,137.2 159.4,140.1 
							151.5,140 146.2,140.2 145.9,143.7 149,144.7 149.9,147.9 150.3,150.7 148.9,153.5 158.6,153.2 171.7,150.7 181.4,145.4 
							180.4,143.4 						"/>
					</defs>
					<use xlink:href="#SVGID_31_"  style="overflow:visible;fill:#B7A662;"/>
					<clipPath id="SVGID_32_">
						<use xlink:href="#SVGID_31_"  style="overflow:visible;"/>
					</clipPath>
					<path class="st30" d="M178,134.7l-7.2,5.6l-11.1,2.8l-9.8,1.8l-5.2-0.5l-0.1,6.6l11.4-0.7l14.4-2l8.3-5.3l3.5-3.9L178,134.7
						L178,134.7z"/>
				</g>
			</g>
		</g>
	</g>
	<polygon class="st0" points="90.9,76.7 84.9,80.7 80,82.5 83.1,87 100.9,99.5 112.8,114 132.9,103 145.5,85.1 143.7,80.3 
		137.6,79.1 132.5,76.7 128.5,78.1 125.9,81.5 113.5,88.9 99.4,85.9 94.9,78.5 	"/>
	<path class="st31" d="M124.6,129.4l1.4-4.8l-2.7-4.3l-5.6,0.6l-1.6-2.1h-13.3l-1.6,2.1l-5.1-0.5l-2.7,4.3l1.3,4.6l-4.5,5.7
		l12.6,11.2h13.1l12.2-11.4L124.6,129.4z M96,124.7l1.8-2.8l4.7,0.5l1.2,3.4l-2.3,2.1h-4.4L96,124.7z M116.1,138.6h-14.3l-2-1.3
		h17.9L116.1,138.6z M122.4,127.8H118l-2.3-2.1l1.2-3.4l4.7-0.5l1.8,2.8L122.4,127.8z"/>
</g>
</svg>
