<?xml version="1.0" encoding="utf-8"?>
<!-- Generator: Adobe Illustrator 22.1.0, SVG Export Plug-In . SVG Version: 6.00 Build 0)  -->
<svg version="1.1" id="Layer_1" xmlns="http://www.w3.org/2000/svg" xmlns:xlink="http://www.w3.org/1999/xlink" x="0px" y="0px"
	 viewBox="0 0 220 240" style="enable-background:new 0 0 220 240;" xml:space="preserve">
<style type="text/css">
	.st0{fill:#A6C45C;}
	.st1{fill:#634A35;}
	.st2{fill:#CC9A69;}
	.st3{fill:#DFEABB;}
	.st4{clip-path:url(#SVGID_2_);fill:#DFEABB;}
	.st5{clip-path:url(#SVGID_4_);fill:#C6CCA6;}
	.st6{fill:#88AA4D;}
	.st7{fill:#98BA56;}
	.st8{fill:#7D9947;}
	.st9{fill:#B5885E;}
	.st10{clip-path:url(#SVGID_6_);fill:#CC9A69;}
	.st11{clip-path:url(#SVGID_8_);fill:#B5885E;}
	.st12{opacity:0.43;fill:#EA4450;enable-background:new    ;}
	.st13{clip-path:url(#SVGID_10_);fill:#FFFFFF;}
	.st14{clip-path:url(#SVGID_12_);fill:#4E7F73;}
	.st15{fill:#70543A;}
	.st16{clip-path:url(#SVGID_14_);fill:#FFFFFF;}
	.st17{clip-path:url(#SVGID_16_);fill:#4E7F73;}
	.st18{fill:#BFC57B;}
	.st19{fill:#C6CCA6;}
</style>
<g>
	<polygon class="st0" points="177.9,220.6 150.8,202.4 121,196.2 91.1,199.2 72.6,210.3 52.5,218.3 46.1,240 182,240 	"/>
</g>
<path class="st1" d="M96,25.6l-7.7,30c0,0-5.2,33.6-5.2,34.9c0,1.3,18.1,6.5,18.1,6.5l11.7-15.5l-11.6-23.8L96,25.6l27.2-14.1
	l16.9,10.4c0,0,5.2,22,5.2,23.3c0,0.7-2.5,12.2-6,20.5c-3.6,8.9-8.3,14.4-8.3,14.4s1.3,16.9,1.3,18.1c0,1.3,15.5,12.9,15.5,12.9
	l14.2-2.5l2.5-7.7L157,77.6l-7.7-33.6l-9.8-23.7l-17.5-4.1l-15.2,1.5C106.7,17.7,96,25.6,96,25.6z"/>
<path class="st2" d="M110.4,81.7l-9.5,1.2L91.6,84l-5.8,4.7l-3.6,12.9l-2.3,13v4.7h9.4l8-12.7l6.1,3.3h38.7l9.4-4.6L148,91.1l-7-5.9
	l-9.4-2.4l-2.4-5.8l-16.4-1.2L110.4,81.7z"/>
<path class="st2" d="M141,85.2l12.4,3.6l5.5,3.2l3.1,6.6l-0.4,17.4l-10.9,2.1l-7.8-21.2L141,85.2z"/>
<path class="st3" d="M91.6,116.9l-4.7,17.6L78.7,151l-6.5-13.8l5.3-22.6L91.6,116.9z"/>
<g>
	<g>
		<g>
			<defs>
				<polygon id="SVGID_1_" points="147.4,111.3 146.5,129.5 149.4,147.7 160.9,177.3 177,188.5 180,187 173.6,180 184.4,181.7 
					192.7,186.4 197.1,187.5 195.9,183.5 186.8,178.2 175.4,174.5 168.2,169.7 161.1,134.2 162.8,114.6 				"/>
			</defs>
			<clipPath id="SVGID_2_">
				<use xlink:href="#SVGID_1_"  style="overflow:visible;"/>
			</clipPath>
			<path class="st4" d="M147.4,111.3l-0.9,18.2l2.9,18.2l10.5,27l17.1,13.8l3-1.5l-6.4-7l10.8,1.7l8.3,4.7l4.4,1.1l-1.2-4l-9.1-5.3
				l-11.4-3.7l-7.2-4.8l-7.1-35.5l1.7-19.6L147.4,111.3z"/>
		</g>
	</g>
</g>
<g>
	<g>
		<g>
			<defs>
				<polygon id="SVGID_3_" points="147.4,111.3 146.5,129.5 149.4,147.7 159.9,174.7 177,188.5 180,187 173.6,180 184.4,181.7 
					192.7,186.4 197.1,187.5 195.9,183.5 186.8,178.2 175.4,174.5 168.2,169.7 161.1,134.2 162.8,114.6 				"/>
			</defs>
			<clipPath id="SVGID_4_">
				<use xlink:href="#SVGID_3_"  style="overflow:visible;"/>
			</clipPath>
			<path class="st5" d="M152.5,110.2l-2.4,20.5l2.4,18.3l7.9,23.5l15.7,15.7l-20.2-12.4l-5.8-17.7l-8.8-24.6l3.7-13.6l-0.3-11.8
				L152.5,110.2z"/>
		</g>
	</g>
</g>
<path class="st6" d="M71.1,187.3l-18.6,31l-1.1,3.4l32-6.2l19.8,13.6l17.6-15.3l21.1,16.4l13.4-13.5l24.5,12.9l-1.7-7.8l-14.8-29.7
	l-20-12.7l-27.6-6.2l-27.6,3L71.1,187.3z"/>
<path class="st7" d="M71.1,184.3l-8.3,13.1l-12.7,20.4l33.3-5.2l19.8,13.5l17.6-15.2l21.1,16.4l13.4-13.5l26.3,11.1l-8.5-20.8
	l-9.7-14.9l-20-12.7l-27.6-6.2l-27.6,3L71.1,184.3z"/>
<path class="st8" d="M89.3,113.1l5.9-12.9l4.7,7l5.8-3.5l5.9,2.3l4.7-2.3l4.7,4.7l5.9-4.7l5.9,4.7l2.3-2.4l3.5,2.4l3.5-4.7l3.6,4.7
	l3.5-7.1l4.2,15l-6,12.9l-8.5,9.4l0.9,20.3l20.3,25.9l6.8,9.9l-18-7.6l-16.5,6.4l-14.9-9.7l-17.8,6.8l-13.6-6.3l-18,4.8l3-4.8
	L88,155.4l7.1-10.6l3.8-12.3l-8-9.9L89.3,113.1z"/>
<path class="st9" d="M95.2,98.1l1.2-0.8l4.1,6.6l5-3.3l6.1,2l5.7-2l4,4.1l6-4.8l5.3,4.8l3.1-2l2.6,2l3.8-4.9l3.6,4.8l3.5-5.3
	l-1.2,9.5l-25.8,3.8l-28.6-4L95.2,98.1z"/>
<path class="st9" d="M95.2,98.1l-4.6,6.4l-3.3,6.8l0.6,5.1l1.4,0.2l6.2-15.3L95.2,98.1z"/>
<path class="st6" d="M89.3,111l5.9-12.9l4.7,7.1l5.8-3.6l5.9,2.4l4.7-2.4l4.7,4.7l5.9-4.7l5.9,4.7l2.3-2.3l3.5,2.3l3.5-4.7l3.6,4.7
	l3.5-7l4.7,11.4l-0.9,12.8l-2.8,6.3l-8.3,8.3l-2.1,7.6l3.5,10.2l18.4,26.5l6.8,10.3l-19.6-7.6l-16.5,6.4l-14.9-9.7l-17.7,6.7
	l-13.6-6.2l-19.7,4l9.1-14.3l12.5-18.8l7.1-10.6v-9.4l-5.9-10.5V111z"/>
<path class="st3" d="M85.4,123.3l1.6,7.8l-6.9,20.4l-15.5,26.8L54,189.4l-2.5-2.2l3.3-7.4l-9.6,7.4l-4.2,8.6l-3.3,1.7l-0.9-4.1
	l4.5-7.5l9.3-10.2l8.6-6.4L72,135.6l5.5-21L85.4,123.3z"/>
<g>
	<g>
		<g>
			<g>
				<defs>
					<polygon id="SVGID_5_" points="145.3,53.2 141.4,72.7 131.1,81.7 123.3,85.6 115.5,83.1 104.9,71.2 96.1,52 98.7,19.6 
						118.2,7.9 132.4,10.5 142.7,18.3 					"/>
				</defs>
				<clipPath id="SVGID_6_">
					<use xlink:href="#SVGID_5_"  style="overflow:visible;"/>
				</clipPath>
				<path class="st10" d="M145.3,53.2l-6.1,17.6L131,81.7l-7.7,3.9l-7.8-2.5l-10.9-12.8l-5.3-20.4l-0.6-30.3l21.8-9.7l11.9,0.7
					l10.4,7.7L145.3,53.2z"/>
			</g>
		</g>
	</g>
	<g>
		<g>
			<g>
				<defs>
					<polygon id="SVGID_7_" points="146.6,53.3 141.4,72.7 131.1,81.7 123.3,85.6 115.5,83.1 104.9,71.2 98.7,49.4 98.7,19.6 
						118.2,7.9 132.4,10.5 142.7,18.3 					"/>
				</defs>
				<clipPath id="SVGID_8_">
					<use xlink:href="#SVGID_7_"  style="overflow:visible;"/>
				</clipPath>
				<path class="st11" d="M113.5,24.8l-6.9,22.5l-1,13.1l1.9,11l8.9,9.5l6.9,3.3l7.7-1.9l-5,5.3l-17.2-3.1l-9.1-11.8l-6.5-21.4
					l5.8-22L113.5,24.8z"/>
			</g>
		</g>
	</g>
	<path class="st12" d="M114.9,72.7h4.5l4,0.6l3.9-0.6l3.9,0.3l-1.3,2.2l-2.6,1.1l-3.7,0.7l-4-0.4l-2.5-1.3L114.9,72.7z"/>
	<g>
		<path class="st9" d="M121.8,67.5v-2.6l-1.2-9l-1.3,5.2l-1.3,5.2l2.6,1.3C120.6,67.5,121.8,67.5,121.8,67.5z"/>
		<path class="st9" d="M121.8,67.5l3-0.6l-1.4,1.2h-4.5l-0.9-1.2v-0.8l2,1L121.8,67.5z"/>
	</g>
	<g>
		<path class="st9" d="M125.1,50.2l2.9-2.5l3-1.1h6.6l2.1,1.2l1.7,0.1l-1.3,2.3l-3.1,1.7l-4.5,1.3l-4.5-0.3l-1.5-1.8L125.1,50.2z"/>
		<g>
			<g>
				<defs>
					<polygon id="SVGID_9_" points="128.6,51.8 132.1,52.1 135.9,51.2 139.3,48.7 135.4,47.7 130.7,47.9 127.1,50.1 					"/>
				</defs>
				<clipPath id="SVGID_10_">
					<use xlink:href="#SVGID_9_"  style="overflow:visible;"/>
				</clipPath>
				<path class="st13" d="M126.2,53.4l6,0.8l6.5-1.4l5.2-4.2l-6.6-3.4l-8.8-0.4l-7.7,5.6L126.2,53.4L126.2,53.4z"/>
			</g>
			<g>
				<defs>
					<polygon id="SVGID_11_" points="128.6,51.8 132.1,52.1 135.9,51.2 139.3,48.7 135.4,47.7 130.7,47.9 127.1,50.1 					"/>
				</defs>
				<clipPath id="SVGID_12_">
					<use xlink:href="#SVGID_11_"  style="overflow:visible;"/>
				</clipPath>
				<ellipse class="st14" cx="132.5" cy="49.3" rx="3.4" ry="3.4"/>
			</g>
		</g>
		<path class="st15" d="M140.5,45.7l-4.3-1.3l-3.4-0.3l-4.4,0.6l-3.6,2l4.2-0.4l4.2-0.7l5.5,0.6L140.5,45.7z"/>
	</g>
	<g>
		<path class="st9" d="M117.6,50.1l-3-2.5l-3-1l-6.6,0.1l-2,1.2l-1.8,0.2l1.5,2.3l3,1.5l4.5,1.2l4.6-0.4l1.4-1.8L117.6,50.1z"/>
		<g>
			<g>
				<defs>
					<polygon id="SVGID_13_" points="115.6,50 111.9,47.9 107.4,47.8 103.4,48.9 106.8,51.3 110.7,52.1 114.1,51.7 					"/>
				</defs>
				<clipPath id="SVGID_14_">
					<use xlink:href="#SVGID_13_"  style="overflow:visible;"/>
				</clipPath>
				<path class="st16" d="M122.1,49.9l-7.8-5.4l-8.8,0.7L99,48.7l5.3,4.1l6.5,1.3l5.8-0.9C116.6,53.2,122.1,49.9,122.1,49.9z"/>
			</g>
			<g>
				<defs>
					<polygon id="SVGID_15_" points="115.6,50 111.9,47.9 107.4,47.8 103.4,48.9 106.8,51.3 110.7,52.1 114.1,51.7 					"/>
				</defs>
				<clipPath id="SVGID_16_">
					<use xlink:href="#SVGID_15_"  style="overflow:visible;"/>
				</clipPath>
				<ellipse class="st17" cx="110.1" cy="49.3" rx="3.4" ry="3.4"/>
			</g>
		</g>
		<path class="st15" d="M102.1,45.8l4.3-1.4l3.4-0.3l4.4,0.4l3.7,1.9l-4.3-0.2l-4.2-0.7l-5.5,0.8L102.1,45.8z"/>
	</g>
</g>
<path class="st15" d="M118.2,26.7l-6.5,9l-11.7,13l-1.3,2.5v29.8c0,0-1.3,23.3-1.3,24.6c0,1.3-2.5,16.9-2.5,16.9l-2.5-5.2V56.6
	l-1.3-14.2l2.5-23.3l11.7-9l10.4-2.5l3.9,1.3l3.9-1.3l11.7,1.3l9,7.7l5.2,11.7l1.3,19.4l1.3,44l1.3,33.6l-1.3,3.9l-3.5-8.2
	c0,0-0.3-12.6-0.3-15.2c0-2.6-3.9-32.4-3.9-32.4l-1.3-28.4l-7.7-6.5l-9-9l-5.2-3.9C120.8,25.5,118.2,26.7,118.2,26.7z"/>
<path class="st18" d="M92.6,25.9l10.8,3.6l18.4,2.9l17.5-2.9l9-3.2l-0.7-14.8l-2.6,11.9l-8.4,3.1l-12.8-2.2l-3-12.8l-3,13.1
	l-16.6,1.2l-5.2-2.6V11.5l-3.5,10.9V25.9z"/>
<polygon class="st19" points="87.8,116.3 85.3,132.5 79.2,149.9 70.3,166.8 62.3,180.3 55.3,188 65,179.6 80.9,152.4 87,134.9 
	89.9,123.9 89.9,123.9 89.4,116.5 "/>
<polygon class="st8" points="115.4,131.2 112.4,133.3 103.3,135.5 95.2,133.3 92.9,129.1 99.1,132.4 104.1,133.8 111.8,132.7 "/>
<polygon class="st8" points="127.9,131.1 131.2,134.2 139.8,136.3 145.9,134 150.2,129.9 144,133.2 139,134.6 131.3,133.4 "/>
</svg>
