<?xml version="1.0" encoding="utf-8"?>
<!-- Generator: Adobe Illustrator 21.0.0, SVG Export Plug-In . SVG Version: 6.00 Build 0)  -->
<svg version="1.1" id="Layer_1" xmlns="http://www.w3.org/2000/svg" xmlns:xlink="http://www.w3.org/1999/xlink" x="0px" y="0px"
	 viewBox="0 0 220 240" style="enable-background:new 0 0 220 240;" xml:space="preserve">
<style type="text/css">
	.st0{fill:#C2B49A;}
	.st1{fill:#A3A0A2;}
	.st2{fill:#847660;}
	.st3{fill:#97866B;}
	.st4{fill:#C2BDC9;}
	.st5{fill:#BAB1B9;}
	.st6{fill:#A07887;}
	.st7{clip-path:url(#SVGID_2_);fill:#BAB1B9;}
	.st8{fill:#CEC9D6;}
	.st9{fill:#2A1011;}
	.st10{fill:#956F8E;}
	.st11{fill:#1C1618;}
	.st12{fill:#513E4F;}
	.st13{fill:#B5B4B4;}
	.st14{clip-path:url(#SVGID_4_);fill:#BAB1B9;}
	.st15{fill:#969595;}
</style>
<polygon class="st0" points="103.6,154.2 100.4,163.7 102,175.3 102,188.3 99.7,200.8 105.7,204.5 111.7,201.5 111.7,194.7 
	109.3,187.2 108.6,173.2 110.6,163.3 109.3,153 "/>
<polygon class="st1" points="199,97 199,129.5 187.8,155.3 180.5,165.1 174.9,166.6 171.7,160.2 174.7,147.8 173.4,135.8 
	183.9,116.4 "/>
<polyline class="st2" points="142.2,151.6 140.9,165.3 143,175.9 143,187.1 142,190.2 146.4,192.9 150.4,190.1 149.7,185.9 
	149.3,175 151.3,163.6 149.5,149.1 "/>
<polyline class="st3" points="161.2,151.1 160.4,171.5 156.6,189.6 153.3,196 156.2,198.9 161.2,198.4 163.6,193.6 164.3,183 
	165.6,171.5 169.8,160.3 169.8,148.3 "/>
<polygon class="st0" points="79.8,151.9 80.9,161.9 79.8,183.8 82.6,196.1 78.8,200.8 71.4,200.8 70.2,197.8 72.7,187.2 73.1,178.4 
	70.2,163.1 71.8,153 "/>
<polyline class="st4" points="88.6,49.8 96.2,63.6 99.2,76.9 100.5,116.4 84,141 52.1,145.9 42.7,141.9 39.3,131.5 32.4,119.1 
	33.7,106.7 31.7,92.5 35.8,79.5 37.4,69 44.7,62 48.6,54.7 "/>
<polyline class="st4" points="93.8,67.2 104.6,62.9 116.3,62 130.1,57.3 144.3,58.8 156.9,55.2 169.8,58.8 181.8,58.6 193.4,70.9 
	194.1,84.8 199,97 192.8,108 190.9,124.3 174.7,141.2 151,153 113.4,150.9 92.3,146.8 52.1,145.9 "/>
<polygon class="st5" points="54.1,145.9 61.8,149.1 66.6,154 73.3,156.1 80.2,153.9 87.1,148.3 94.5,151.2 98.1,156.6 105.7,159.1 
	113.4,158.8 122.3,153 138.5,152.3 144.3,155.9 148.8,155.5 153.3,153.1 157.5,150.8 164.8,154.6 168.9,154.1 171.7,147.6 
	171.7,142.7 108.2,137.9 60.9,136.9 "/>
<polygon class="st6" points="53.7,35.3 50.1,29.3 44.6,27.5 35.5,29.3 31.7,31.4 35.2,34.9 37.5,38.9 40.9,41.8 44.7,42.3 
	48.6,42.9 50,45.2 "/>
<polygon class="st4" points="50,42.2 49,33.7 46.1,30.6 40.1,30.6 34.9,31.3 33.6,32 35.2,34.9 31.7,31.4 35.5,29.3 44.6,27.5 
	50.1,29.3 53.7,35.3 "/>
<polygon class="st6" points="82.5,38.4 84.7,32.4 89.4,29.6 98.2,29.4 102.2,30.4 99.6,34.3 98.3,38.4 95.6,41.7 92.2,42.9 
	88.7,44.1 87.9,46.5 "/>
<polygon class="st4" points="87.9,46.5 87.4,40 85.8,36.6 88.7,32.7 94.2,31.5 99.2,31 100.6,31.4 99.6,34.3 102.2,30.4 98.2,29.4 
	89.4,29.6 84.7,32.4 82.5,38.4 "/>
<polygon class="st4" points="68.9,30.5 84,35.5 88.8,50.6 87.1,65.7 73.7,75 67.7,76.9 62.8,75.4 49.6,65.3 47.9,47.8 52.8,34.6 "/>
<polygon class="st4" points="68.9,31.1 85.4,36.7 88.8,50.6 87.1,65.7 73.7,75 67.7,76.9 62.8,75.4 49.6,65.3 47.9,47.8 52.8,34.6 
	"/>
<g>
	<defs>
		<polygon id="SVGID_1_" points="68.9,30.5 85.4,36.7 88.8,50.6 87.1,65.7 73.7,75 67.7,76.9 62.8,75.4 49.6,65.3 47.9,47.8 
			52.8,34.6 		"/>
	</defs>
	<clipPath id="SVGID_2_">
		<use xlink:href="#SVGID_1_"  style="overflow:visible;"/>
	</clipPath>
	<polygon class="st7" points="81.8,47.6 79.2,50.6 77.9,54.7 76,61.6 75.2,67.8 72.4,75.4 80.1,77.4 91.9,66.9 91.5,51.3 89.3,45.8 
		86.3,45.2 	"/>
	<polygon class="st7" points="52.1,43 49.1,43.7 47,49.2 46.5,64.7 58.3,75.3 66,73.2 63.2,65.7 62.4,59.4 60.5,52.5 59.3,48.4 
		56.7,45.4 	"/>
</g>
<polygon class="st8" points="59.2,64 58.6,69.3 61.2,74.8 66.2,77.4 69.4,77.4 74.6,75.2 77.4,68.4 76,61.6 72.1,57.3 66.8,56.3 
	61.3,59 "/>
<polygon class="st9" points="81.8,47.6 83.4,48.7 85.3,48.7 86.3,47 86.3,45.2 84,45.2 "/>
<polygon class="st10" points="62.4,62 61.9,63.8 62.4,66.2 63.9,67.4 65.4,68.3 65.9,69.5 65.3,72 67.6,71.7 69.9,72.5 69.3,69.5 
	69.7,68.3 71.3,67.4 72.8,66.2 73.3,63.8 72.8,62 71.6,62 69.8,63.4 68,64.6 65.1,63.4 63.7,62 "/>
<polygon class="st11" points="60.9,70.9 63.7,72.3 67.6,71.7 70.9,72.4 73.6,71.7 70.3,73.7 64,73.7 "/>
<polygon class="st12" points="68.9,67.1 70.1,65.9 71.8,65.3 72.4,63.6 72.4,65 71.9,66.2 70.2,66.7 "/>
<polygon class="st12" points="66.6,67.1 65.2,65.7 63.7,64.9 63,63.6 62.8,64.8 63.3,66.1 65.1,66.6 "/>
<polygon class="st9" points="56.7,45.4 55,46.5 53.1,46.5 52.1,44.8 52.1,43 54.4,43 "/>
<polygon class="st8" points="99.7,73.7 110.6,70.9 119.2,70.9 133,66.9 146.1,68.3 158.8,65.4 171.5,72.3 184.7,70.9 188.6,77.4 
	188.6,89 196.4,104.1 199,97 194.1,84.8 193.4,70.9 181.8,58.6 169.8,58.8 156.9,55.2 144.3,58.8 130.1,57.3 116.3,62 104.6,62.9 
	95.3,67.2 "/>
<g>
	<path class="st1" d="M43.8,77.4c2,2.1,3.9,4.2,5.8,6.4l-0.6-0.2l3.6-0.8c1.2-0.3,2.4-0.5,3.6-0.7l0.4-0.1l0.4,0.3
		c1.7,1.2,3.3,2.5,4.9,3.8l-0.9-0.2c1.2-0.4,2.4-0.7,3.6-1.1c1.2-0.4,2.4-0.7,3.7-1.1l0.5-0.1l0.4,0.3c1.4,1.2,2.8,2.4,4.2,3.6
		l-0.5-0.2c1.6-0.1,3.2-0.1,4.8-0.2l-0.3,0.1c1.7-1.2,3.3-2.3,5-3.4c-1.4,1.5-2.9,2.8-4.4,4.2L77.8,88l-0.2,0
		c-1.6,0.2-3.2,0.5-4.8,0.7l-0.3,0l-0.3-0.2c-1.5-1.1-3-2.2-4.4-3.3l0.8,0.2c-1.2,0.4-2.4,0.8-3.6,1.2c-1.2,0.4-2.4,0.8-3.6,1.1
		l-0.5,0.1l-0.4-0.3c-1.6-1.3-3.2-2.6-4.8-4l0.7,0.2c-1.2,0.2-2.4,0.4-3.6,0.5l-3.6,0.5l-0.4,0.1l-0.2-0.3
		C46.9,82.2,45.3,79.8,43.8,77.4z"/>
</g>
<g>
	<path class="st1" d="M61.8,97.7c2.7,1.1,5.3,2.3,7.9,3.5l-0.7,0l3-2.2c1-0.7,2-1.4,3-2.1l0.3-0.2l0.4,0.1c2,0.5,4,1,6,1.5l-0.9,0.2
		c0.9-0.8,1.9-1.7,2.9-2.5c1-0.8,1.9-1.6,2.9-2.4l0.4-0.3l0.4,0.1c1.8,0.5,3.5,1,5.3,1.6l-0.6,0.1c1.4-0.7,2.9-1.4,4.4-2.1l-0.3,0.4
		c0.6-2.4,1.1-4.9,1.8-7.3c-0.2,2.5-0.5,5-0.8,7.4l0,0.2l-0.2,0.1c-1.4,0.9-2.7,1.7-4.1,2.6l-0.2,0.1l-0.3-0.1
		c-1.8-0.4-3.6-0.8-5.4-1.3l0.8-0.2c-0.9,0.9-1.9,1.7-2.8,2.5c-1,0.8-1.9,1.7-2.9,2.5l-0.4,0.3l-0.5-0.1c-2-0.6-4-1.1-6-1.7l0.7-0.1
		c-1,0.7-2.1,1.3-3.1,2l-3.1,1.9l-0.4,0.2l-0.3-0.2C66.6,100.9,64.2,99.4,61.8,97.7z"/>
</g>
<g>
	<path class="st1" d="M40.1,96c0.7,2.4,1.4,4.8,2,7.3l-0.5-0.5c3,0,6,0.1,8.9,0.3l0.5,0l0.2,0.5c1.1,2.3,2,4.7,3.1,7.1l-1.1-0.6
		c2.6-0.5,5.1-1,7.7-1.4l0.3-0.1l0.2,0.1c1.2,0.6,2.4,1.2,3.6,1.9c1.2,0.6,2.4,1.3,3.6,1.9l-0.5,0c2.5-1.1,5-2.1,7.5-3.1
		c-2.3,1.5-4.6,2.8-7,4.2l-0.2,0.1l-0.3-0.1c-1.3-0.5-2.5-1.1-3.8-1.6c-1.3-0.5-2.5-1.1-3.7-1.6l0.6,0.1c-2.6,0.6-5.1,1.1-7.7,1.6
		l-0.8,0.2l-0.3-0.8c-1-2.4-2-4.8-2.9-7.2l0.8,0.6c-3-0.3-5.9-0.6-8.9-0.9l-0.5-0.1l-0.1-0.4C40.6,101,40.3,98.5,40.1,96z"/>
</g>
<g>
	<path class="st1" d="M94.2,116.4c-1.6,1.5-3.3,2.8-5.1,4.1l-0.2,0.2l-0.4-0.1c-1.2-0.3-2.4-0.7-3.6-1.1c-1.2-0.4-2.4-0.8-3.5-1.2
		l0.8-0.1c-1.4,0.8-2.7,1.4-4.1,2.1l-2.1,1c-0.7,0.3-1.4,0.7-2.1,1l-0.4,0.2l-0.3-0.1c-1.1-0.5-2.3-1-3.4-1.6
		c-1.1-0.6-2.2-1.1-3.3-1.8c1.2,0.2,2.4,0.6,3.7,0.9c1.2,0.3,2.4,0.7,3.6,1.1l-0.6,0c0.7-0.4,1.3-0.8,2-1.2l2-1.2
		c1.4-0.7,2.7-1.5,4.1-2.2l0.4-0.2l0.4,0.1c1.2,0.4,2.3,0.9,3.5,1.3c1.2,0.5,2.3,0.9,3.4,1.4l-0.6,0.1
		C90.3,118.3,92.2,117.3,94.2,116.4z"/>
</g>
<polygon class="st1" points="96.7,65.8 101.3,75.2 103,94.4 107,106 101.3,94.4 100.3,80.4 94.2,64.4 92.3,56.6 "/>
<g>
	<path class="st1" d="M143.4,77.1c-2.9-0.6-5.8-1.4-8.6-2.2l0.6-0.1c-1.2,0.9-2.4,1.7-3.6,2.5c-1.2,0.8-2.5,1.6-3.7,2.4l-0.4,0.3
		l-0.5-0.2c-1.3-0.5-2.6-1-3.8-1.5c-1.3-0.5-2.5-1-3.8-1.6l0.5,0c-3.2,1.1-6.5,2-9.8,3l-0.1,0l0,0l-5.6-1.3l5.6,0.8l-0.1,0
		c3.1-1.4,6.3-2.7,9.5-3.9l0.2-0.1l0.3,0.1c1.3,0.4,2.6,0.8,3.9,1.2c1.3,0.4,2.6,0.9,3.9,1.4L127,78c1.3-0.7,2.5-1.5,3.8-2.2
		c1.3-0.7,2.6-1.4,3.9-2.1l0.3-0.2l0.2,0.1C138,74.7,140.7,75.8,143.4,77.1z"/>
</g>
<g>
	<path class="st1" d="M158.8,77.4c2.1-0.4,4.3-0.7,6.4-1c1.1-0.1,2.1-0.2,3.2-0.3c1.1-0.1,2.1-0.2,3.2-0.2l0.5,0l0.3,0.4
		c1.9,2.4,3.8,4.8,5.6,7.3l-0.7-0.4c2,0.2,4,0.5,6,0.8l0.7,0.1l0.1,0.6c0.2,1.7,0.5,3.4,0.7,5.1c0.2,1.7,0.4,3.4,0.6,5.1l-0.2-0.2
		c2.3,1.1,4.6,2.1,7,3.2c-2.4-0.8-4.8-1.7-7.2-2.6l-0.2-0.1l0-0.2c-0.4-1.7-0.8-3.3-1.2-5c-0.4-1.7-0.8-3.4-1.1-5l0.7,0.7
		c-2-0.2-4-0.3-6-0.5l-0.4,0l-0.3-0.3c-1.9-2.4-3.7-4.8-5.6-7.3l0.8,0.4c-1.1,0-2.2,0-3.2,0c-1.1,0-2.2,0-3.2,0
		C163.2,77.8,161,77.7,158.8,77.4z"/>
</g>
<g>
	<path class="st1" d="M154.2,92.6c-1.3,0.9-2.6,1.8-3.9,2.7l-0.2,0.1l-0.2-0.1c-3.2-1.3-6.3-2.8-9.4-4.2l0.7,0
		c-1.4,0.6-2.9,1.3-4.3,1.9c-1.4,0.6-2.9,1.2-4.3,1.8l-0.4,0.1l-0.4-0.1L127,93c-1.6-0.6-3.2-1.3-4.8-1.9l0.6,0
		c-2.5,1.1-5.1,2.2-7.6,3.2l-0.3,0.1l-0.2-0.2c-1.1-1-2.1-2-3.1-3.1c1.2,0.8,2.4,1.6,3.6,2.5l-0.4-0.1c2.4-1.4,4.8-2.7,7.3-4
		l0.3-0.1l0.4,0.1c1.6,0.5,3.3,1.1,4.9,1.7l4.9,1.8l-0.7,0c1.4-0.6,2.9-1.2,4.4-1.8c1.5-0.6,2.9-1.1,4.4-1.7l0.4-0.2l0.3,0.2
		c3,1.6,6,3.3,9,5.1l-0.4,0C151.3,93.9,152.8,93.3,154.2,92.6z"/>
</g>
<g>
	<path class="st1" d="M163.9,91.8c2.4,0.7,4.7,1.6,7,2.6c1.1,0.5,2.3,1,3.4,1.6c1.1,0.5,2.2,1.1,3.3,1.7l0.4,0.2l0.1,0.4
		c0.5,1.8,1,3.7,1.4,5.6c0.4,1.9,0.7,3.8,0.9,5.7c-0.9-1.7-1.6-3.5-2.3-5.3c-0.7-1.8-1.3-3.6-1.9-5.5l0.5,0.6
		c-1.1-0.5-2.2-1.1-3.3-1.7c-1.1-0.6-2.2-1.2-3.2-1.8C168,94.6,165.8,93.3,163.9,91.8z"/>
</g>
<g>
	<path class="st1" d="M102.2,140.3c1.9,0.9,3.8,1.8,5.6,2.7c1.9,0.9,3.7,1.9,5.5,2.9l-0.7-0.1c1.9-0.8,3.9-1.6,5.8-2.4l5.8-2.3
		l0.4-0.1l0.4,0.1c1.5,0.6,3,1.3,4.6,1.9c1.5,0.7,3,1.3,4.5,2l-0.6,0c1.8-0.8,3.7-1.6,5.5-2.4c1.9-0.7,3.7-1.5,5.6-2.2
		c-1.7,1.1-3.4,2.1-5.2,3.1c-1.8,1-3.5,2-5.3,2.9l-0.3,0.1l-0.4-0.1c-1.6-0.5-3.1-1.1-4.6-1.7c-1.5-0.6-3.1-1.2-4.6-1.8l0.7,0
		l-5.8,2.2c-2,0.7-3.9,1.4-5.9,2.1l-0.4,0.1l-0.3-0.2c-1.8-1.1-3.5-2.3-5.2-3.4C105.6,142.7,103.8,141.5,102.2,140.3z"/>
</g>
<g>
	<path class="st5" d="M50.9,134.7c2,1,3.9,2.1,5.8,3.3c1.9,1.1,3.8,2.3,5.6,3.5l-0.7-0.1c2.3-0.7,4.6-1.4,6.9-2
		c2.3-0.7,4.6-1.2,7-1.8l0.3-0.1l0.2,0.1c2.3,0.7,4.6,1.3,6.8,2.1l-0.5,0c1.6-0.7,3.2-1.3,4.9-2c1.6-0.6,3.3-1.3,5-1.8
		c-1.5,0.9-3,1.8-4.6,2.7c-1.5,0.8-3.1,1.7-4.6,2.5l-0.2,0.1l-0.3-0.1c-2.3-0.5-4.6-1.1-6.9-1.7l0.5,0c-2.3,0.6-4.6,1.3-7,1.9
		c-2.3,0.6-4.7,1.2-7,1.7l-0.4,0.1l-0.3-0.2c-1.8-1.3-3.5-2.6-5.3-4C54.3,137.5,52.6,136.1,50.9,134.7z"/>
</g>
<g>
	<path class="st1" d="M125.5,108.2c1-0.5,2-1,3-1.5c1-0.5,2-0.9,3.1-1.3c2.1-0.8,4.1-1.6,6.2-2.3l0.4-0.1l0.4,0.3
		c1.1,0.7,2.1,1.4,3.2,2.1c1.1,0.7,2.1,1.4,3.1,2.2l-0.7-0.1c0.7-0.2,1.5-0.3,2.2-0.4c0.7-0.1,1.5-0.2,2.2-0.3
		c1.5-0.2,3-0.4,4.5-0.5c-1.4,0.6-2.8,1.1-4.2,1.6c-0.7,0.2-1.4,0.5-2.1,0.7c-0.7,0.2-1.4,0.4-2.2,0.6l-0.3,0.1l-0.3-0.2
		c-1.1-0.7-2.2-1.3-3.2-2c-1.1-0.7-2.1-1.4-3.2-2.1l0.8,0.1c-2.1,0.7-4.2,1.3-6.4,1.8c-1.1,0.3-2.2,0.5-3.3,0.8
		C127.7,107.8,126.6,108.1,125.5,108.2z"/>
</g>
<g>
	<path class="st13" d="M150,63.6c1-0.3,1.9-0.6,2.9-0.8c1-0.2,1.9-0.5,2.9-0.7c1.9-0.4,3.9-0.8,5.8-1l0.2,0l0.2,0.1
		c1.4,0.4,2.7,0.9,4.1,1.4c1.4,0.5,2.7,1,4,1.5l-0.4,0c0.7,0,1.5,0,2.2-0.1c0.7,0,1.5,0,2.3,0c1.5,0,3,0,4.5,0.2
		c-1.5,0.4-2.9,0.7-4.4,1c-0.7,0.1-1.5,0.3-2.2,0.4c-0.7,0.1-1.5,0.2-2.2,0.3l-0.2,0l-0.2-0.1c-1.4-0.4-2.8-0.8-4.1-1.3
		c-1.4-0.4-2.7-0.9-4.1-1.4l0.4,0c-2,0.2-3.9,0.4-5.9,0.5c-1,0.1-2,0.1-3,0.1C152,63.6,151,63.6,150,63.6z"/>
</g>
<g>
	<path class="st1" d="M108,123.7c2.2-0.9,4.3-1.8,6.5-2.7c2.2-0.9,4.3-1.7,6.5-2.6l0.2-0.1l0.3,0.1c2.5,1.1,5,2.3,7.5,3.4
		c2.5,1.2,5,2.3,7.5,3.5l-0.7-0.1l8-2.3l8-2.2l0.4-0.1l0.3,0.2l6.4,4c2.1,1.3,4.2,2.7,6.3,4.1l-0.4-0.1c1.6-0.3,3.1-0.6,4.7-0.9
		c1.6-0.3,3.2-0.6,4.7-0.8c-1.5,0.5-3.1,1-4.6,1.5c-1.5,0.5-3.1,1-4.6,1.4l-0.2,0.1l-0.2-0.1c-2.2-1.2-4.4-2.5-6.5-3.7l-6.5-3.8
		l0.7,0.1l-8,2.3l-8,2.3l-0.4,0.1l-0.3-0.2c-2.5-1.2-4.9-2.5-7.4-3.7c-2.5-1.2-4.9-2.5-7.4-3.8l0.5,0c-2.2,0.7-4.5,1.4-6.7,2
		C112.5,122.4,110.2,123.1,108,123.7z"/>
</g>
<g>
	<path class="st1" d="M160,104.5c1.6,0.8,3.2,1.6,4.7,2.5c1.5,0.9,3,1.8,4.5,2.8l0.4,0.3l0,0.5l0,3.6c0,1.2,0,2.4-0.1,3.6l-0.7-0.9
		c1.6,0.4,3.3,0.9,4.9,1.4c1.6,0.5,3.2,1.1,4.8,1.7c-1.7-0.1-3.4-0.3-5.1-0.5c-1.7-0.2-3.3-0.5-5-0.8l-0.7-0.1l0-0.8
		c0-1.2,0-2.4-0.1-3.6l0-3.6l0.4,0.8c-1.4-1.1-2.8-2.1-4.1-3.3C162.6,106.9,161.2,105.8,160,104.5z"/>
</g>
<g>
	<defs>
		<polyline id="SVGID_3_" points="52.1,145.9 92.3,146.8 113.4,150.9 151,153 174.7,141.2 190.9,124.3 199,106.7 199,97 194.1,84.8 
			193.4,70.9 181.8,58.6 169.8,58.8 156.9,55.2 144.3,58.8 130.1,57.3 116.3,62 104.6,62.9 93.8,67.2 		"/>
	</defs>
	<clipPath id="SVGID_4_">
		<use xlink:href="#SVGID_3_"  style="overflow:visible;"/>
	</clipPath>
	<polygon class="st14" points="32.4,119.1 43.8,129.5 50.9,136.9 61.8,134.7 68.9,138.4 85.2,131.8 98.3,135.8 116.5,129.5 
		133,135.8 151.3,129.5 168,132.6 181.1,124.3 199,97 190.9,124.3 171.7,160.2 127.2,168.4 88.8,166.6 56.7,160.2 27,139.3 	"/>
</g>
<polygon class="st5" points="57.3,135.8 46.9,133.3 32.4,119.1 39.3,131.5 42.7,141.9 50.1,145 54.1,145.9 "/>
<g>
	<path class="st13" d="M119.5,67.2c2.1-1.3,4.2-2.4,6.4-3.4c1.1-0.5,2.2-1,3.3-1.4c1.1-0.4,2.2-0.9,3.4-1.3l0.3-0.1l0.2,0.1
		c1.5,0.3,3,0.7,4.5,1.1c1.5,0.4,3,0.9,4.4,1.5c-1.6,0.1-3.1,0-4.7-0.1c-1.5-0.1-3.1-0.3-4.6-0.5l0.5-0.1c-1.1,0.5-2.2,0.9-3.3,1.3
		c-1.1,0.4-2.3,0.8-3.4,1.2C124.3,66.2,121.9,66.8,119.5,67.2z"/>
</g>
<g>
	<path class="st15" d="M104.6,140.3c2.9-1.5,5.9-2.8,8.9-4l0.2-0.1l0.3,0.1c1.4,0.4,2.7,0.7,4.1,1.2c1.4,0.4,2.7,0.8,4.1,1.2
		l4.1,1.3l4,1.3l-0.6,0c2.9-0.8,5.8-1.6,8.7-2.3c2.9-0.7,5.8-1.4,8.8-2c-2.8,1.2-5.6,2.2-8.4,3.3c-2.8,1-5.7,2-8.5,2.9l-0.3,0.1
		l-0.3-0.1l-4.1-1.3l-4-1.3c-1.4-0.4-2.7-0.9-4-1.4c-1.3-0.5-2.7-1-4-1.5l0.5,0C110.9,138.6,107.7,139.5,104.6,140.3z"/>
</g>
<g>
	<path class="st15" d="M61.8,142.2c1.9,0.4,3.7,1,5.5,1.5c1.8,0.6,3.6,1.2,5.4,1.8l-0.7,0c1.7-0.9,3.4-1.8,5.1-2.6l2.6-1.3
		c0.9-0.4,1.7-0.8,2.6-1.2l0.3-0.1l0.3,0.1c1.9,0.5,3.8,1,5.7,1.6c1.9,0.6,3.8,1.2,5.7,1.9c-2-0.1-4-0.4-5.9-0.7
		c-2-0.3-3.9-0.6-5.9-1l0.6-0.1c-0.8,0.5-1.7,0.9-2.5,1.3l-2.5,1.3c-1.7,0.8-3.4,1.7-5.2,2.5l-0.4,0.2l-0.3-0.1
		c-1.7-0.7-3.5-1.5-5.2-2.4C65.2,144,63.5,143.1,61.8,142.2z"/>
</g>
</svg>
