<?xml version="1.0" encoding="utf-8"?>
<!-- Generator: Adobe Illustrator 22.1.0, SVG Export Plug-In . SVG Version: 6.00 Build 0)  -->
<svg version="1.1" id="Layer_1" xmlns="http://www.w3.org/2000/svg" xmlns:xlink="http://www.w3.org/1999/xlink" x="0px" y="0px"
	 viewBox="0 0 220 240" style="enable-background:new 0 0 220 240;" xml:space="preserve">
<style type="text/css">
	.st0{fill:#997A59;}
	.st1{fill:#6E5740;}
	.st2{fill:#82684B;}
	.st3{clip-path:url(#SVGID_2_);fill:#997A59;}
	.st4{clip-path:url(#SVGID_2_);fill:#82684B;}
	.st5{clip-path:url(#SVGID_2_);fill:#80664A;}
	.st6{fill:#FFFFFF;stroke:#000000;stroke-miterlimit:10;}
	.st7{fill:#B38E68;}
	.st8{clip-path:url(#SVGID_4_);fill:#997A59;}
	.st9{clip-path:url(#SVGID_6_);fill:#997A59;}
	.st10{fill:#1A1A1A;}
	.st11{fill:#F7E381;}
	.st12{fill:#423526;}
	.st13{fill:#C88983;}
	.st14{fill:#B27976;}
</style>
<g>
	<polygon class="st0" points="65.1,110.1 71.6,105.8 98.2,87.3 110.3,82.7 158.9,88.6 162.9,110.3 172.3,124.3 165.1,142.1 
		139.6,152.2 121.7,159.1 90.9,161.3 65,159.1 65.7,120 58.8,116.5 	"/>
	<polygon class="st1" points="121.1,152.2 123.6,177.6 127.9,200.8 139.1,206.2 142.6,211.2 130.4,216.2 121.1,211.9 117.1,198.1 
		107,149.7 	"/>
	<polygon class="st2" points="58.8,116.5 48.9,142.1 44.9,165.4 33.2,179.6 11,202.6 30.7,202.6 47.8,193.7 55.3,183 50.3,198.1 
		61.6,185.1 72.5,156.8 65.7,120 	"/>
	<polyline class="st0" points="171.8,124.3 171.8,134.5 163.7,152.2 163.7,172.7 163.7,190.3 167.8,208.5 178.2,212.2 181.4,220.3 
		168.6,223.5 160,218.7 151.4,201.5 151.4,190.3 148.2,185.4 148.2,176.9 148.2,150.1 142.8,142.1 147.1,129.7 	"/>
	<polyline class="st0" points="129.5,124.3 133.2,133.4 125.7,146.8 121.4,166.2 117.1,198.1 115,214.7 115,223.5 104.3,226.7 
		100.5,223.5 100.5,217.6 107,211.7 107,190.3 107,147.9 100.5,138.6 	"/>
	<polyline class="st0" points="91.9,159.1 84.4,175.5 73.2,190.3 68.4,212.2 71.6,223.5 71,226.7 59.2,226.7 57.1,223.5 59.2,214.7 
		59.2,193.7 62.5,182.1 62.5,162.4 53.9,138.6 58.8,116.5 76,102.9 	"/>
	<polygon class="st2" points="108.7,71.5 102.6,82.7 91.9,89.4 82.1,107.5 96.9,102.9 101.2,126.5 113.7,108.6 115.5,134 
		129.9,118.4 139.6,145.8 157.6,116.5 166.5,134.5 176.1,116.5 178.2,98.8 176.9,76.7 	"/>
	<polygon class="st1" points="172.6,57 178.2,59 169.7,38.6 175.6,41.9 170.7,32.2 158.9,18.9 155.8,14.5 152.9,15 150.9,12.5 
		145.4,14.4 142.6,12.5 136.3,14.4 133.2,12.5 124.8,17.7 116.9,29.4 105.3,48.5 110.4,47.8 103.2,63.9 109.6,60 107,71.5 
		110.5,101.5 116.3,91 123.5,112.6 131.8,99.6 143.7,125 156.4,101.3 162.2,113 168.4,91.5 174.5,96.9 177.2,74.9 	"/>
	<g>
		<defs>
			<polygon id="SVGID_1_" points="172.6,57 178.2,59 169.7,38.6 175.6,41.9 170.7,32.2 158.9,18.9 155.8,14.5 150.9,12.5 
				133.2,12.5 124.8,17.7 116.9,29.4 105.3,48.5 110.4,47.8 103.2,63.9 109.6,60 107,71.5 109.1,89.5 112.8,82.2 120.9,102.9 
				124.1,91.1 132.1,108.2 136.4,96.9 143.9,129.7 154.7,96.9 161.6,114.9 170.2,85 174.5,96.9 177.2,74.9 			"/>
		</defs>
		<clipPath id="SVGID_2_">
			<use xlink:href="#SVGID_1_"  style="overflow:visible;"/>
		</clipPath>
		<polygon class="st3" points="108.8,87.3 110.8,69.5 118.4,62 123.9,59 130.5,56.8 134.8,55.6 139.3,50 139.3,43 135.7,36.1 
			126.9,31.4 124.9,29.6 99.8,22.8 83.2,59.5 94.6,71.5 104.3,85 		"/>
		<polygon class="st3" points="175.4,89.5 173.1,69.5 167.3,62 161.7,59 155.1,56.8 150.8,55.6 146.3,50 146.3,43 150,36.1 
			158.7,31.4 160.8,29.6 169.5,26.4 188.4,35.9 187.7,60.7 184,81.4 		"/>
		<polygon class="st4" points="159.8,58.5 158.9,61.9 158,65.1 157.2,68.1 156.6,70.2 152.1,84 144.6,86.7 135.6,83.2 130.3,71 
			126.7,57.6 128.3,35.2 123.1,28.6 126.7,16.6 130.3,10.5 139.1,10.5 150.9,10.5 157.4,12.4 159.8,16 161.3,26.1 162.2,38.3 
			160.6,56.7 		"/>
		<polygon class="st5" points="137.8,45.1 140.7,42.8 145,42.8 148.4,45.1 162.3,46.3 162.3,39.4 168.1,40.9 166.5,35.7 171.5,37.4 
			171.6,34.1 170.9,31.8 162.2,18.5 147.8,3.7 123.5,11.2 119.7,18.9 114.7,32.2 112.9,36 118.6,35.9 116.4,40.2 122.9,40.2 		"/>
	</g>
	<path class="st6" d="M103.2,92.7"/>
	<polygon class="st7" points="155.8,18.7 162.8,12 177.2,3.7 175.5,18.7 171.6,34.1 159.2,31.6 	"/>
	<g>
		<defs>
			<polygon id="SVGID_3_" points="155.8,18.7 162.8,12 177.2,3.7 175.5,18.7 177.2,24.7 174.5,22.6 177.2,31.6 173.2,28.7 
				171.6,34.1 159.2,31.6 			"/>
		</defs>
		<clipPath id="SVGID_4_">
			<use xlink:href="#SVGID_3_"  style="overflow:visible;"/>
		</clipPath>
		<polygon class="st8" points="157.3,24.4 165.4,14.6 177.2,3.7 162.7,8.5 153.8,17.8 		"/>
	</g>
	<polygon class="st7" points="128.5,17.5 121.5,8.8 110.8,3.3 110.8,17.5 112.9,36 124.3,31.6 	"/>
	<g>
		<defs>
			<polygon id="SVGID_5_" points="128.5,17.5 121.5,8.8 110.8,3.3 110.8,17.5 112.9,36 124.3,31.6 			"/>
		</defs>
		<clipPath id="SVGID_6_">
			<use xlink:href="#SVGID_5_"  style="overflow:visible;"/>
		</clipPath>
		<polygon class="st9" points="110.8,3.3 120.7,12.5 126.9,22.8 128.5,22.8 130.5,16 120.7,4.8 		"/>
	</g>
	<polyline class="st7" points="125.5,58.4 116.4,59.5 122.2,49.5 116.3,51.1 119.7,41.8 122.9,37.3 131.9,34.1 136.4,36 139.6,43.7 
		139.6,50.6 135.7,55.6 	"/>
	<polygon class="st7" points="160,58.6 168.8,59 163.1,49.3 169.4,49.5 166.5,42.9 161,36 154.7,33.6 149.2,35.9 146.3,42.4 
		146.3,50.9 150.4,56.2 	"/>
	<path class="st6" d="M114.7,32.2"/>
	<g>
		<polygon class="st10" points="149.3,50.5 151,48.6 151.6,46 159.3,46 157.5,48.3 155.4,50.2 152.3,50.1 		"/>
		<polygon class="st11" points="152.3,49.1 152.3,46.9 157.6,46.9 156.6,48 155.1,49.5 		"/>
	</g>
	<g>
		<polygon class="st10" points="137.4,50.5 135.7,48.6 135.1,46 127.4,46 129.2,48.3 131.3,50.2 134.4,50.1 		"/>
		<polygon class="st11" points="134.4,49.1 134.4,46.9 129.1,46.9 130.1,48 131.6,49.5 		"/>
	</g>
	<polygon class="st1" points="143.7,35.9 145.4,26.6 147.8,20.9 143.5,22.5 138.6,18.9 139.9,23.5 134.4,21.7 139.3,28.8 
		142.1,34.1 	"/>
	<polygon class="st2" points="147.8,127 145.8,142.1 150.9,149.7 149.5,183 153.6,190.3 153.6,200.4 160,218.7 151.4,201.5 
		151.4,190.3 148.2,185.4 148.2,150.1 142.8,142.1 146.2,132.4 	"/>
	<polygon class="st2" points="181.4,220.3 169.4,220.3 157.3,211.2 156.2,211.2 160,218.7 168.6,223.5 	"/>
	<polygon class="st2" points="115,214.7 112.8,221.3 104.7,224.6 100.5,223.5 104.3,226.7 115,223.5 	"/>
	<polygon class="st2" points="113.7,218.7 118.6,165.4 121.4,154.9 123.5,145.2 131.8,132.6 129.9,139.3 125.7,146.8 121.2,168 
		115,218.7 	"/>
	<polygon class="st7" points="104.4,141.9 107,145.4 108.7,148.8 107,211.7 107,149.7 101.2,139.5 	"/>
	<polygon class="st2" points="89.8,145.8 90.9,161.3 84.4,175.5 73.2,190.3 68.4,212.2 71.6,223.5 71,226.7 70,223.5 66.5,211.7 
		72.5,189.2 82.3,174.5 88.2,161.3 	"/>
	<polygon class="st12" points="153.7,79.1 152.9,80 149.2,82.2 144.7,80.5 141.7,82.2 138.2,81.5 135,80.1 133.7,78.8 132.9,76.7 
		134.4,78.5 137.2,80 140.7,80.9 144.2,79.7 149.3,80.5 152.8,79.2 154.5,76.7 	"/>
	<polygon class="st12" points="144,80.2 144,78.1 144.9,78.1 144.7,80.5 	"/>
	<polygon class="st12" points="140.2,70.3 148,70.3 150.4,73.1 150.4,76.2 148,78.8 140.7,78.8 137.8,75.9 137.8,72.9 	"/>
	<polygon class="st10" points="146.3,76 146.3,74.6 149.2,74 149.2,76 	"/>
	<polygon class="st10" points="142.1,76 142.1,74.6 139.3,74 139.3,76 	"/>
	<polygon class="st13" points="145.3,80.2 143.1,79.2 140.3,74.6 135.9,71.5 131.7,73.7 129.9,76.3 131.3,78.9 134.3,80.8 
		138.7,81.6 141.4,81.6 143.6,80.2 	"/>
	<polygon class="st14" points="142.1,80.1 137.3,78.1 135.6,77.2 133.6,75.5 135.3,77.5 137.1,78.5 140.7,80.1 142.7,80.8 
		143.3,80.4 	"/>
	<path class="st0" d="M71.6,105.8"/>
</g>
</svg>
