<?xml version="1.0" encoding="utf-8"?>
<!-- Generator: Adobe Illustrator 21.0.0, SVG Export Plug-In . SVG Version: 6.00 Build 0)  -->
<svg version="1.1" id="Calque_1" xmlns="http://www.w3.org/2000/svg" xmlns:xlink="http://www.w3.org/1999/xlink" x="0px" y="0px"
	 viewBox="0 0 70 70" style="enable-background:new 0 0 70 70;" xml:space="preserve">
<style type="text/css">
	.st0{fill:#332619;}
	.st1{fill:#563F2B;}
	.st2{fill:#DB955A;}
	.st3{clip-path:url(#SVGID_2_);fill:#BF8051;}
	.st4{fill:#EDC6A4;}
</style>
<g>
	<circle class="st0" cx="32.9" cy="33.1" r="24.1"/>
	<path class="st1" d="M32.9,7.3C18.6,7.3,7,18.9,7,33.1S18.6,59,32.9,59s25.9-11.6,25.9-25.9S47.2,7.3,32.9,7.3z M32.9,10.8
		c12.3,0,22.3,10,22.3,22.3c0,12.3-10,22.3-22.3,22.3s-22.3-10-22.3-22.3C10.6,20.8,20.6,10.8,32.9,10.8z"/>
</g>
<g>
	<g>
		<path class="st2" d="M26.3,11.9c0.2,5,7.6,19.5,6.7,22.3C31.6,38.6,14,51,11.7,51.1c-2.3-0.9-4.2,0.4-4.4,1.2
			c-0.8,2.9,0.5,3.9,5.1,4.9c2.7,0.6,7.4-2.5,10.7-1.9c7.4,1.3,6-5.3,20.8-3s13.9-8.2,13.5-9.8c-0.5-2.1-5.8-11.6-7-19.4
			c-1.2-7.8-1.6-11.2-8.6-12.3C34.2,9.5,26.2,9.3,26.3,11.9z"/>
	</g>
	<g>
		<defs>
			<path id="SVGID_1_" d="M26.3,11.9c0.2,5,7.6,19.5,6.7,22.3C31.6,38.6,14,51,11.7,51.1c-2.3-0.9-4.2,0.4-4.4,1.2
				c-0.8,2.9,0.5,3.9,5.1,4.9c2.7,0.6,7.4-2.5,10.7-1.9c7.4,1.3,6-5.3,20.8-3s13.9-8.2,13.5-9.8c-0.5-2.1-5.8-11.6-7-19.4
				c-1.2-7.8-1-9.3-3.1-9.8C39.8,11.6,26.2,9.3,26.3,11.9z"/>
		</defs>
		<clipPath id="SVGID_2_">
			<use xlink:href="#SVGID_1_"  style="overflow:visible;"/>
		</clipPath>
		<path class="st3" d="M45.8,1.9c-14-1.8-0.8,1,0.4,7c0.5,2.7-0.4,11.3,1.7,17.9c2.6,8.2,6.9,15.3,5.2,19.4c-1,2.5-2.1,3.6-5,3.9
			c-3,0.4-11.7-1.8-20.8,4.9l11,2.8l24.4-6.4L62,30.5L55.7,3.7L45.8,1.9z"/>
	</g>
</g>
<path class="st1" d="M58.8,33.1c0-14.3-11.6-25.9-25.9-25.9S7,18.9,7,33.1 M10.6,33.1c0-12.3,10-22.3,22.3-22.3s22.3,10,22.3,22.3"
	/>
<path class="st4" d="M40.6,34.4c4-2.6,3.1-8.9,3.5-13.5c0.5-4.6,16.1-10.3,19.1-16.6c3.1-6.2,5.7,17.3-1.6,21.5s-9.6,0.1-10.2,3.4
	s-0.6,7.9-2,9.4C46.9,41.2,37.8,36.2,40.6,34.4z"/>
</svg>
