<?xml version="1.0" encoding="utf-8"?>
<!-- Generator: Adobe Illustrator 22.1.0, SVG Export Plug-In . SVG Version: 6.00 Build 0)  -->
<svg version="1.1" id="Layer_1" xmlns="http://www.w3.org/2000/svg" xmlns:xlink="http://www.w3.org/1999/xlink" x="0px" y="0px"
	 viewBox="0 0 70 70" style="enable-background:new 0 0 70 70;" xml:space="preserve">
<style type="text/css">
	.st0{opacity:0.29;fill:#604228;}
	.st1{opacity:0.29;clip-path:url(#SVGID_2_);}
	.st2{fill:#845C35;}
	.st3{fill:#724D2F;}
	.st4{opacity:0.7;}
	.st5{fill:#604228;}
	.st6{clip-path:url(#SVGID_4_);fill:#845C35;}
	.st7{clip-path:url(#SVGID_4_);fill:#724D2F;}
	.st8{clip-path:url(#SVGID_6_);fill:#845C35;}
	.st9{clip-path:url(#SVGID_6_);fill:#724D2F;}
</style>
<g>
	<g>
		<g>
			<path class="st0" d="M46.5,8L51,2.5c0,0,0,0,0,0c-0.1-0.1-0.1-0.1-0.2-0.1l-4.9,1.1c-2.2,0.5-4.3,1.3-6.2,2.2l3.3,5.8
				C44.3,10.6,45.5,9.4,46.5,8z"/>
			<g>
				<defs>
					<path id="SVGID_1_" d="M18.2,52.9h26.7c1.1,0,2.2-0.4,3.1-1.1l14.8-12.6c3.7-3.1,4.6-8.4,2.2-12.6L51.3,2.5
						c-0.1-0.1-0.2-0.1-0.3,0L46.5,8c-2.9,3.6-6.8,6.2-11.2,7.4l-8.3,2.4c-0.2,0.1-0.3,0.4,0,0.5l9.8,4.9c0.5,0.3,0.9,0.7,1,1.3
						l1.6,6.6c0.2,0.9,0,1.9-0.7,2.6l-9.1,9.1c-0.7,0.7-1.5,1.1-2.5,1.3l-5.3,1c-3.1,0.6-5.2,3.5-4.7,6.6l0.1,0.3
						C17.4,52.6,17.8,52.9,18.2,52.9z"/>
				</defs>
				<clipPath id="SVGID_2_">
					<use xlink:href="#SVGID_1_"  style="overflow:visible;"/>
				</clipPath>
				<g class="st1">
					<path class="st2" d="M65,26.6L51.3,2.5c-0.1-0.1-0.2-0.1-0.3,0L46.5,8c-1.1,1.3-2.3,2.5-3.6,3.5l8.6,15
						c2.4,4.2,1.5,9.5-2.2,12.6L34.5,51.8c-0.9,0.7-1.9,1.1-3.1,1.1h13.5c1.1,0,2.2-0.4,3.1-1.1l14.8-12.6
						C66.5,36,67.4,30.7,65,26.6z"/>
					<path class="st3" d="M70.3,10.2L51.1-1.1l-6.7,7.9c0,0,19.1,19.1,19.1,25.9c0,5.7-13.6,18.8-18,20.2c-1.6,0.5-6.1,0-11.6-0.8
						c-0.8,0.5-1.6,0.8-2.5,0.8H15.6l1.8,9c0,0,40.5-4.5,41.6-4.5s14.6-27,14.6-27L70.3,10.2z"/>
				</g>
			</g>
		</g>
		<g class="st4">
			<path class="st5" d="M44,2.4l-4.9,1.1c-6,1.4-11.5,4.8-15.4,9.6l-3.8,4.6c-0.1,0.1,0,0.4,0.2,0.4l18.5,2.2c0.1,0,0.2-0.1,0.2-0.2
				l4.4-12.2c0,0,0,0,0,0l1-5.2C44.4,2.5,44.2,2.3,44,2.4z"/>
			<g>
				<defs>
					<path id="SVGID_3_" d="M11.5,52.9h26.7c1.1,0,2.2-0.4,3.1-1.1l14.8-12.6c3.7-3.1,4.6-8.4,2.2-12.6L44.5,2.5
						c-0.1-0.1-0.2-0.1-0.3,0L39.8,8c-2.9,3.6-6.8,6.2-11.2,7.4l-8.3,2.4c-0.2,0.1-0.3,0.4,0,0.5l9.8,4.9c0.5,0.3,0.9,0.7,1,1.3
						l1.6,6.6c0.2,0.9,0,1.9-0.7,2.6L23,42.9c-0.7,0.7-1.5,1.1-2.5,1.3l-5.3,1c-3.1,0.6-5.2,3.5-4.7,6.6l0.1,0.3
						C10.6,52.6,11,52.9,11.5,52.9z"/>
				</defs>
				<clipPath id="SVGID_4_">
					<use xlink:href="#SVGID_3_"  style="overflow:visible;"/>
				</clipPath>
				<path class="st6" d="M11.5,52.9h26.7c1.1,0,2.2-0.4,3.1-1.1l14.8-12.6c3.7-3.1,4.6-8.4,2.2-12.6L44.5,2.5
					c-0.1-0.1-0.2-0.1-0.3,0L39.8,8c-2.9,3.6-6.8,6.2-11.2,7.4l-8.3,2.4c-0.2,0.1-0.3,0.4,0,0.5l9.8,4.9c0.5,0.3,0.9,0.7,1,1.3
					l1.6,6.6c0.2,0.9,0,1.9-0.7,2.6L23,42.9c-0.7,0.7-1.5,1.1-2.5,1.3l-5.3,1c-3.1,0.6-5.2,3.5-4.7,6.6l0.1,0.3
					C10.6,52.6,11,52.9,11.5,52.9z"/>
				<path class="st7" d="M37.7,6.8c0,0,19.1,16.9,19.1,25.9c0,5.7-13.6,18.8-18,20.2c-3.4,1.1-19.2-2.6-30.4-2.2l2.2,11.2
					c0,0,40.5-4.5,41.6-4.5s14.6-27,14.6-27l-3.4-20.2L44.4-1.1L37.7,6.8z"/>
				<path class="st7" d="M42.9,36.9c0,0-10.7-6.8-13.2-1.3C31.6,35.8,32,33.8,42.9,36.9z"/>
				<path class="st7" d="M38.4,40.4c0,0-10.7-6.8-13.2-1.3C27.1,39.2,27.5,37.1,38.4,40.4z"/>
				<path class="st7" d="M36.1,44.8c0,0-10.4-7.4-13.1-2C24.9,43,26.4,40.5,36.1,44.8z"/>
			</g>
		</g>
		<g>
			<path class="st5" d="M37.3,2.4l-4.9,1.1c-6,1.4-11.5,4.8-15.4,9.6l-3.8,4.6c-0.1,0.1,0,0.4,0.2,0.4l18.5,2.2
				c0.1,0,0.2-0.1,0.2-0.2l4.4-12.2c0,0,0,0,0,0l1-5.2C37.6,2.5,37.5,2.3,37.3,2.4z"/>
			<g>
				<defs>
					<path id="SVGID_5_" d="M4.7,52.9h26.7c1.1,0,2.2-0.4,3.1-1.1l14.8-12.6c3.7-3.1,4.6-8.4,2.2-12.6L37.8,2.5
						c-0.1-0.1-0.2-0.1-0.3,0L33.1,8c-2.9,3.6-6.8,6.2-11.2,7.4l-8.3,2.4c-0.2,0.1-0.3,0.4,0,0.5l9.8,4.9c0.5,0.3,0.9,0.7,1,1.3
						l1.6,6.6c0.2,0.9,0,1.9-0.7,2.6l-9.1,9.1c-0.7,0.7-1.5,1.1-2.5,1.3l-5.3,1c-3.1,0.6-5.2,3.5-4.7,6.6l0.1,0.3
						C3.9,52.6,4.3,52.9,4.7,52.9z"/>
				</defs>
				<clipPath id="SVGID_6_">
					<use xlink:href="#SVGID_5_"  style="overflow:visible;"/>
				</clipPath>
				<path class="st8" d="M4.7,52.9h26.7c1.1,0,2.2-0.4,3.1-1.1l14.8-12.6c3.7-3.1,4.6-8.4,2.2-12.6L37.8,2.5c-0.1-0.1-0.2-0.1-0.3,0
					L33.1,8c-2.9,3.6-6.8,6.2-11.2,7.4l-8.3,2.4c-0.2,0.1-0.3,0.4,0,0.5l9.8,4.9c0.5,0.3,0.9,0.7,1,1.3l1.6,6.6
					c0.2,0.9,0,1.9-0.7,2.6l-9.1,9.1c-0.7,0.7-1.5,1.1-2.5,1.3l-5.3,1c-3.1,0.6-5.2,3.5-4.7,6.6l0.1,0.3C3.9,52.6,4.3,52.9,4.7,52.9
					z"/>
				<path class="st9" d="M30.9,6.8c0,0,16.9,13.5,19.1,25.9c1,5.6-13.6,18.8-18,20.2c-3.4,1.1-19.2-2.6-30.4-2.2l2.2,11.2
					c0,0,40.5-4.5,41.6-4.5s14.6-27,14.6-27l-3.4-20.2L37.7-1.1L30.9,6.8z"/>
				<path class="st9" d="M36.1,36.9c0,0-10.7-6.8-13.2-1.3C24.8,35.8,25.3,33.8,36.1,36.9z"/>
				<path class="st9" d="M31.7,40.4c0,0-10.7-6.8-13.2-1.3C20.4,39.2,20.8,37.1,31.7,40.4z"/>
				<path class="st9" d="M29.4,44.8c0,0-10.4-7.4-13.1-2C18.2,43,19.7,40.5,29.4,44.8z"/>
			</g>
		</g>
	</g>
</g>
</svg>
