<?xml version="1.0" encoding="utf-8"?>
<!-- Generator: Adobe Illustrator 22.1.0, SVG Export Plug-In . SVG Version: 6.00 Build 0)  -->
<svg version="1.1" id="Layer_1" xmlns="http://www.w3.org/2000/svg" xmlns:xlink="http://www.w3.org/1999/xlink" x="0px" y="0px"
	 viewBox="0 0 72.2 72.2" style="enable-background:new 0 0 72.2 72.2;" xml:space="preserve">
<style type="text/css">
	.st0{fill:#3D2F29;stroke:#705C4C;stroke-width:5;stroke-miterlimit:10;}
	.st1{fill:#B34A30;}
	.st2{fill:#B7A17B;}
	.st3{fill:#936342;}
	.st4{fill:#AB734C;}
	.st5{fill:#684730;}
	.st6{fill:#AAAAAA;}
</style>
<g>
	<circle class="st0" cx="35.9" cy="36.6" r="31.5"/>
	<g>
		<path class="st1" d="M10.6,64.9l1.2-7.4l-7.4-0.2l17-7.9L10.6,64.9z"/>
		<path class="st2" d="M6,12.3L8.1,58l1.9,2.8l45,8.6l0.4-0.6L11.7,58.5l-1.2-1.2L6.8,12.1L6,12.3z"/>
		<path class="st1" d="M20.9,50L10.6,64.9l1.2-7.4L20.9,50z"/>
		<path class="st3" d="M6,12.3c0,0,22.5-4.4,38.9,14.8s10,42.3,10,42.3s15.9-23-3.6-45.9C32.8,1.7,6,12.3,6,12.3z"/>
		<path class="st4" d="M6.1,11.4C4.6,11.8,6,12.2,6,12.2s24.4-5.4,40.8,13.9c13.6,16,10.9,37.1,7.2,43.1c-0.7,1.1,0.9,0.2,0.9,0.2
			s16-23.1-3.6-46C36.1,5.5,13,9.4,6.1,11.4z"/>
		<path class="st5" d="M11.5,58.9l45.1-38.4l-1.3-1.6L10.5,57.3L11.5,58.9z"/>
		<path class="st6" d="M55,20.4l0.2,5.7l8.9-13.2l-14.4,6.5L55,20.4z"/>
	</g>
</g>
</svg>
