<?xml version="1.0" encoding="utf-8"?>
<!-- Generator: Adobe Illustrator 22.1.0, SVG Export Plug-In . SVG Version: 6.00 Build 0)  -->
<svg version="1.1" id="Layer_1" xmlns="http://www.w3.org/2000/svg" xmlns:xlink="http://www.w3.org/1999/xlink" x="0px" y="0px"
	 viewBox="0 0 70 70" style="enable-background:new 0 0 70 70;" xml:space="preserve">
<style type="text/css">
	.st0{clip-path:url(#SVGID_2_);fill:#A28B68;}
	.st1{clip-path:url(#SVGID_4_);fill:#877358;}
	.st2{clip-path:url(#SVGID_6_);fill:#A28B68;}
	.st3{clip-path:url(#SVGID_8_);fill:#877358;}
	.st4{fill:#998167;}
	.st5{fill:#423219;}
	.st6{fill:#5B4124;}
	.st7{fill:#DDC250;}
	.st8{fill:#F2D455;}
	.st9{fill:#C1AA48;}
</style>
<g>
	<g>
		<g>
			<g>
				<g>
					<defs>
						<path id="SVGID_1_" d="M34.4,16.4L28.7,12c-0.8-0.6-0.5-1.9,0.5-2.1l0,0c0.3-0.1,0.6-0.2,0.7-0.5l1.4-2
							C31.6,7,32,6.8,32.5,6.9l3.1,0.7c0.4,0.1,0.8,0,1.1-0.3l2-1.9c0.4-0.4,1-0.4,1.5-0.1l2,1.3c0.3,0.2,0.7,0.2,0.9,0.1l2.8-0.8
							c0.3-0.1,0.6-0.1,0.9,0.1l1.8,0.9c0.5,0.3,0.7,0.9,0.6,1.4l-0.7,2.2c-0.1,0.1-0.1,0.3-0.2,0.4L43.8,16
							c-0.2,0.2-0.5,0.4-0.9,0.4l-7.6,0.2C34.9,16.7,34.7,16.6,34.4,16.4z"/>
					</defs>
					<clipPath id="SVGID_2_">
						<use xlink:href="#SVGID_1_"  style="overflow:visible;"/>
					</clipPath>
					<path class="st0" d="M34.4,16.4L28.7,12c-0.8-0.6-0.5-1.9,0.5-2.1l0,0c0.3-0.1,0.6-0.2,0.7-0.5l1.4-2C31.6,7,32,6.8,32.5,6.9
						l3.1,0.7c0.4,0.1,0.8,0,1.1-0.3l2-1.9c0.4-0.4,1-0.4,1.5-0.1l2,1.3c0.3,0.2,0.7,0.2,0.9,0.1l2.8-0.8c0.3-0.1,0.6-0.1,0.9,0.1
						l1.8,0.9c0.5,0.3,0.7,0.9,0.6,1.4l-0.7,2.2c-0.1,0.1-0.1,0.3-0.2,0.4L43.8,16c-0.2,0.2-0.5,0.4-0.9,0.4l-7.6,0.2
						C34.9,16.7,34.7,16.6,34.4,16.4z"/>
				</g>
			</g>
			<g>
				<g>
					<defs>
						<path id="SVGID_3_" d="M34.4,16.4L28.7,12c-0.8-0.6-0.5-1.9,0.5-2.1l0,0c0.3-0.1,0.6-0.2,0.7-0.5l1.4-2
							C31.6,7,32,6.8,32.5,6.9l3.1,0.7c0.4,0.1,0.8,0,1.1-0.3l2-1.9c0.4-0.4,1-0.4,1.5-0.1l2,1.3c0.3,0.2,0.7,0.2,0.9,0.1l2.8-0.8
							c0.3-0.1,0.6-0.1,0.9,0.1l1.8,0.9c0.5,0.3,0.7,0.9,0.6,1.4l-0.7,2.2c-0.1,0.1-0.1,0.3-0.2,0.4L43.8,16
							c-0.2,0.2-0.5,0.4-0.9,0.4l-7.6,0.2C34.9,16.7,34.7,16.6,34.4,16.4z"/>
					</defs>
					<clipPath id="SVGID_4_">
						<use xlink:href="#SVGID_3_"  style="overflow:visible;"/>
					</clipPath>
					<path class="st1" d="M43.5,16.2l3.7-5.8c0.1-0.1,0.1-0.1,0.1-0.2l0.6-1.7c0.1-0.5,0-1-0.4-1.4l-0.7-0.6
						c-0.3-0.3-0.7-0.4-1.2-0.4c-0.9,0.1-2.3,0.1-2.5,0.2c-2.3,0.6,2.6-1.5,2.6-1.5l4.4,1.6l0.7,4.1l-6.9,6L43.5,16.2z"/>
				</g>
			</g>
		</g>
		<g>
			<g>
				<g>
					<defs>
						<path id="SVGID_5_" d="M45.4,19l5.3,7c0.6,0.8,1,1.7,1.3,2.7l3.3,14.1c0.7,3.3-0.9,6.6-3.9,8.1L51.3,51
							c-0.9,0.4-1.8,0.7-2.8,0.7l-16.2,0.7c-0.9,0-1.7-0.1-2.5-0.4l0,0c-3.1-1-5-3.9-4.9-7.1l0.7-13c0.1-1.4,0.6-2.8,1.4-3.9l6.4-9
							c1.4-1.8,3.5-2.9,5.8-2.9h0.5C41.9,16.2,44,17.2,45.4,19z"/>
					</defs>
					<clipPath id="SVGID_6_">
						<use xlink:href="#SVGID_5_"  style="overflow:visible;"/>
					</clipPath>
					<path class="st2" d="M45.4,19l5.3,7c0.6,0.8,1,1.7,1.3,2.7l3.3,14.1c0.7,3.3-0.9,6.6-3.9,8.1L51.3,51c-0.9,0.4-1.8,0.7-2.8,0.7
						l-16.2,0.7c-0.9,0-1.7-0.1-2.5-0.4l0,0c-3.1-1-5-3.9-4.9-7.1l0.7-13c0.1-1.4,0.6-2.8,1.4-3.9l6.4-9c1.4-1.8,3.5-2.9,5.8-2.9
						h0.5C41.9,16.2,44,17.2,45.4,19z"/>
				</g>
			</g>
			<g>
				<g>
					<defs>
						<path id="SVGID_7_" d="M45.4,19l5.3,7c0.6,0.8,1,1.7,1.3,2.7l3.3,14.1c0.7,3.3-0.9,6.6-3.9,8.1L51.3,51
							c-0.9,0.4-1.8,0.7-2.8,0.7l-16.2,0.7c-0.9,0-1.7-0.1-2.5-0.4l0,0c-3.1-1-5-3.9-4.9-7.1l0.7-13c0.1-1.4,0.6-2.8,1.4-3.9l6.4-9
							c1.4-1.8,3.5-2.9,5.8-2.9h0.5C41.9,16.2,44,17.2,45.4,19z"/>
					</defs>
					<clipPath id="SVGID_8_">
						<use xlink:href="#SVGID_7_"  style="overflow:visible;"/>
					</clipPath>
					<path class="st3" d="M35.6,15.9l3.9,1.5c1.5,0.7,2.8,1.7,3.8,3.1l4.6,6.7c0.4,0.7,0.7,1.4,0.9,2.2l2.7,13.5V43
						c0.4,2.5,0.6,5.8-1.7,6.8L33.5,53l25.3-2.2l-1.5-19.2l-8.2-11.7l-4.4-4.6L35.6,15.9z"/>
				</g>
			</g>
		</g>
		<path class="st4" d="M40.1,15.9L40,15.8l1.8-7.6c0.1-0.4,0.3-0.6,0.5-0.6l0,0c0.4,0,0.4,0.6,0.1,1.1L40.1,15.9z"/>
		<path class="st4" d="M37.7,16.4l-0.3-0.2l-1.5-7c-0.1-0.3,0-0.6,0.2-0.7l0,0c0.4-0.2,0.6,0.4,0.7,0.9L37.7,16.4z"/>
		<path class="st4" d="M36.1,16.4l-4.6-5.8c-0.2-0.2-0.2-0.5-0.1-0.7l0,0c0.2-0.3,0.9-0.1,1.1,0.4l3.6,5.9V16.4z"/>
		<path class="st5" d="M34.4,17.1h0.3c2.6,0.1,5.2,0,7.8-0.4l1.6-0.2c0.4-0.1,0.9,0.1,0.9,0.4V17c0,0.2-0.2,0.4-0.6,0.5l-2.5,0.4
			c-2,0.2-4.1,0.3-6.2,0.1L34,17.9c-0.4,0-0.7-0.2-0.7-0.4l0,0C33.6,17.3,33.9,17.1,34.4,17.1z"/>
		<path class="st5" d="M44,16.5h-0.4c-2.6-0.1-5.2,0-7.8,0.4l-1.6,0.2c-0.4,0.1-0.9-0.1-0.9-0.4v-0.1c0-0.2,0.2-0.4,0.6-0.5l2.5-0.4
			c2-0.2,4.1-0.3,6.2-0.1l1.7,0.1c0.4,0,0.7,0.2,0.7,0.4l0,0C44.8,16.3,44.4,16.5,44,16.5z"/>
		<path class="st6" d="M34.1,16.5h0.4c2.6,0.1,5.2-0.1,7.8-0.4l1.6-0.2c0.4-0.1,0.9,0.1,0.9,0.4v0.1c0,0.2-0.2,0.4-0.6,0.4l-2.4,0.3
			c-2,0.2-4.1,0.2-6.2,0.1l-1.7-0.1c-0.4,0-0.7-0.1-0.7-0.4l0,0C33.3,16.7,33.7,16.5,34.1,16.5z"/>
	</g>
	<g>
		<g>
			<path class="st7" d="M36.9,51.5c0-1.4-3.1-2.6-6.9-2.6s-6.9,1.1-6.9,2.6c0,0.1,0,0.8,0,1c0,1.4,3.1,2.6,6.9,2.6s6.9-1.1,6.9-2.6
				C36.9,52.2,36.9,51.6,36.9,51.5z"/>
			<path class="st8" d="M36.9,49c0-1.4-3.1-2.6-6.9-2.6s-6.9,1.1-6.9,2.6c0,0.1,0,0.8,0,1c0,1.4,3.1,2.6,6.9,2.6s6.9-1.1,6.9-2.6
				C36.9,49.8,36.9,49.2,36.9,49z"/>
			<path class="st9" d="M28.3,52.7c0-1.4-3.1-2.6-6.9-2.6s-6.9,1.1-6.9,2.6c0,0.1,0,0.8,0,1c0,1.4,3.1,2.6,6.9,2.6s6.9-1.1,6.9-2.6
				C28.3,53.5,28.3,52.9,28.3,52.7z"/>
			<path class="st7" d="M28.3,50.2c0-1.4-3.1-2.6-6.9-2.6s-6.9,1.1-6.9,2.6c0,0.1,0,0.8,0,1c0,1.4,3.1,2.6,6.9,2.6s6.9-1.1,6.9-2.6
				C28.3,51,28.3,50.4,28.3,50.2z"/>
			<path class="st8" d="M28.3,47.8c0-1.4-3.1-2.6-6.9-2.6s-6.9,1.1-6.9,2.6c0,0.1,0,0.8,0,1c0,1.4,3.1,2.6,6.9,2.6s6.9-1.1,6.9-2.6
				C28.3,48.6,28.3,47.9,28.3,47.8z"/>
		</g>
	</g>
</g>
</svg>
