<?xml version="1.0" encoding="utf-8"?>
<!-- Generator: Adobe Illustrator 21.0.0, SVG Export Plug-In . SVG Version: 6.00 Build 0)  -->
<svg version="1.1" id="Layer_1" xmlns="http://www.w3.org/2000/svg" xmlns:xlink="http://www.w3.org/1999/xlink" x="0px" y="0px"
	 viewBox="0 0 70 70" style="enable-background:new 0 0 70 70;" xml:space="preserve">
<style type="text/css">
	.st0{fill:#332619;}
	.st1{fill:#563F2B;}
	.st2{clip-path:url(#SVGID_2_);fill:#A28B68;}
	.st3{clip-path:url(#SVGID_4_);fill:#877358;}
	.st4{clip-path:url(#SVGID_6_);fill:#A28B68;}
	.st5{clip-path:url(#SVGID_8_);fill:#877358;}
	.st6{fill:#998167;}
	.st7{fill:#423219;}
	.st8{fill:#DDC250;}
	.st9{fill:#F2D455;}
	.st10{fill:#C1AA48;}
</style>
<g>
	<circle class="st0" cx="32.9" cy="33.1" r="24.1"/>
	<path class="st1" d="M32.9,7.3C18.6,7.3,7,18.9,7,33.1S18.6,59,32.9,59s25.9-11.6,25.9-25.9S47.2,7.3,32.9,7.3z M32.9,10.8
		c12.3,0,22.3,10,22.3,22.3c0,12.3-10,22.3-22.3,22.3s-22.3-10-22.3-22.3C10.6,20.8,20.6,10.8,32.9,10.8z"/>
</g>
<g>
	<g>
		<g>
			<g>
				<g>
					<defs>
						<path id="SVGID_1_" d="M29.2,15.5l-5.9-4.6c-0.9-0.7-0.6-2,0.5-2.2c0.3-0.1,0.7-0.2,0.8-0.6L26,6.1c0.3-0.4,0.8-0.7,1.2-0.6
							l3.3,0.8c0.4,0.1,0.9,0,1.1-0.3l2.1-2c0.4-0.4,1.1-0.4,1.5-0.1l2.2,1.4c0.3,0.2,0.8,0.2,1,0.1l3-0.9c0.3-0.1,0.7-0.1,1,0.1
							l1.9,1c0.6,0.3,0.8,1,0.7,1.4L44,9.4c-0.1,0.1-0.1,0.3-0.2,0.4l-4.7,5.4c-0.2,0.2-0.6,0.4-1,0.4l-8,0.2
							C29.7,15.8,29.5,15.7,29.2,15.5z"/>
					</defs>
					<clipPath id="SVGID_2_">
						<use xlink:href="#SVGID_1_"  style="overflow:visible;"/>
					</clipPath>
					<path class="st2" d="M29.2,15.5l-5.9-4.6c-0.9-0.7-0.6-2,0.5-2.2c0.3-0.1,0.7-0.2,0.8-0.6L26,6.1c0.3-0.4,0.8-0.7,1.2-0.6
						l3.3,0.8c0.4,0.1,0.9,0,1.1-0.3l2.1-2c0.4-0.4,1.1-0.4,1.5-0.1l2.2,1.4c0.3,0.2,0.8,0.2,1,0.1l3-0.9c0.3-0.1,0.7-0.1,1,0.1
						l1.9,1c0.6,0.3,0.8,1,0.7,1.4L44,9.4c-0.1,0.1-0.1,0.3-0.2,0.4l-4.7,5.4c-0.2,0.2-0.6,0.4-1,0.4l-8,0.2
						C29.7,15.8,29.5,15.7,29.2,15.5z"/>
				</g>
			</g>
		</g>
	</g>
	<g>
		<g>
			<g>
				<g>
					<defs>
						<path id="SVGID_3_" d="M29.2,15.5l-5.9-4.6c-0.9-0.7-0.6-2,0.5-2.2c0.3-0.1,0.7-0.2,0.8-0.6L26,6.1c0.3-0.4,0.8-0.7,1.2-0.6
							l3.3,0.8c0.4,0.1,0.9,0,1.1-0.3l2.1-2c0.4-0.4,1.1-0.4,1.5-0.1l2.2,1.4c0.3,0.2,0.8,0.2,1,0.1l3-0.9c0.3-0.1,0.7-0.1,1,0.1
							l1.9,1c0.6,0.3,0.8,1,0.7,1.4L44,9.4c-0.1,0.1-0.1,0.3-0.2,0.4l-4.7,5.4c-0.2,0.2-0.6,0.4-1,0.4l-8,0.2
							C29.7,15.8,29.5,15.7,29.2,15.5z"/>
					</defs>
					<clipPath id="SVGID_4_">
						<use xlink:href="#SVGID_3_"  style="overflow:visible;"/>
					</clipPath>
					<path class="st3" d="M38.7,15.3l3.9-6.1c0.1-0.1,0.1-0.1,0.1-0.2l0.7-1.8c0.1-0.5,0-1.1-0.4-1.4l-0.8-0.7
						c-0.3-0.3-0.8-0.4-1.2-0.4c-1,0.1-2.4,0.1-2.6,0.2C35.9,5.6,41,3.4,41,3.4l4.6,1.7l0.8,4.3l-7.3,6.3L38.7,15.3z"/>
				</g>
			</g>
		</g>
	</g>
	<g>
		<g>
			<g>
				<g>
					<defs>
						<path id="SVGID_5_" d="M40.7,18.3l5.6,7.4c0.7,0.9,1.1,1.8,1.3,2.9L51,43.3c0.8,3.4-1,6.9-4.1,8.5l-0.1,0.1
							c-1,0.4-1.9,0.8-3,0.8l-17.1,0.8c-1,0-1.8-0.1-2.6-0.4c-3.3-1.1-5.3-4.1-5.2-7.5l0.8-13.6c0.1-1.4,0.7-3,1.4-4.1l6.7-9.5
							c1.4-1.9,3.6-3.1,6.1-3.1h0.6C37.1,15.3,39.3,16.4,40.7,18.3z"/>
					</defs>
					<clipPath id="SVGID_6_">
						<use xlink:href="#SVGID_5_"  style="overflow:visible;"/>
					</clipPath>
					<path class="st4" d="M40.7,18.3l5.6,7.4c0.7,0.9,1.1,1.8,1.3,2.9L51,43.3c0.8,3.4-1,6.9-4.1,8.5l-0.1,0.1c-1,0.4-1.9,0.8-3,0.8
						l-17.1,0.8c-1,0-1.8-0.1-2.6-0.4c-3.3-1.1-5.3-4.1-5.2-7.5l0.8-13.6c0.1-1.4,0.7-3,1.4-4.1l6.7-9.5c1.4-1.9,3.6-3.1,6.1-3.1
						h0.6C37.1,15.3,39.3,16.4,40.7,18.3z"/>
				</g>
			</g>
		</g>
	</g>
	<g>
		<g>
			<g>
				<g>
					<g>
						<defs>
							<path id="SVGID_7_" d="M40.7,18.3l5.6,7.4c0.7,0.9,1.1,1.8,1.3,2.9L51,43.3c0.8,3.4-1,6.9-4.1,8.5l-0.1,0.1
								c-1,0.4-1.9,0.8-3,0.8l-17.1,0.8c-1,0-1.8-0.1-2.6-0.4c-3.3-1.1-5.3-4.1-5.2-7.5l0.8-13.6c0.1-1.4,0.7-3,1.4-4.1l6.7-9.5
								c1.4-1.9,3.6-3.1,6.1-3.1h0.6C37.1,15.3,39.3,16.4,40.7,18.3z"/>
						</defs>
						<clipPath id="SVGID_8_">
							<use xlink:href="#SVGID_7_"  style="overflow:visible;"/>
						</clipPath>
						<path class="st5" d="M30.5,15.1l4.1,1.5c1.5,0.8,3,1.8,4,3.3l4.8,7c0.4,0.8,0.8,1.4,1,2.3l2.9,14.2v0.1
							c0.4,2.6,0.7,6.1-1.8,7.2l-17.2,3.4l26.5-2.3l-1.5-20.1l-8.6-12.3l-4.6-4.8C40.1,14.4,30.5,15.1,30.5,15.1z"/>
					</g>
				</g>
			</g>
		</g>
	</g>
	<path class="st6" d="M35.2,15.1L35.2,15.1L37,7c0.1-0.4,0.3-0.7,0.5-0.7C38,6.4,38,7,37.6,7.5C37.6,7.5,35.2,15.1,35.2,15.1z
		 M32.7,15.5l-0.3-0.2L30.8,8c-0.1-0.3,0-0.7,0.2-0.8c0.4-0.2,0.7,0.4,0.8,1C31.7,8.3,32.7,15.5,32.7,15.5z M31,15.5l-4.8-6.1
		C26,9.2,26,8.9,26.1,8.7c0.2-0.3,1-0.1,1.1,0.4l3.7,6.2C31,15.3,31,15.5,31,15.5z"/>
	<path class="st7" d="M29.2,16.3h0.3c2.7,0.1,5.5,0,8.1-0.4l1.7-0.2c0.4-0.1,1,0.1,1,0.4v0.1c0,0.2-0.2,0.4-0.7,0.5L37,17.2
		c-2.1,0.2-4.3,0.3-6.5,0.1l-1.8-0.1c-0.4,0-0.8-0.2-0.8-0.4C28.4,16.5,28.7,16.3,29.2,16.3z"/>
	<path class="st7" d="M39.3,15.6h-0.4c-2.8-0.1-5.5,0-8.1,0.4L29,16.3c-0.4,0.1-1-0.1-1-0.4v-0.1c0-0.2,0.2-0.4,0.7-0.6l2.6-0.4
		c2.1-0.2,4.3-0.3,6.5-0.1l1.8,0.1c0.4,0,0.8,0.2,0.8,0.4C40.2,15.4,39.7,15.6,39.3,15.6z"/>
	<path class="st7" d="M30.5,16.4l-1.8-0.1c-0.4,0-0.8-0.1-0.8-0.4c0.1,0,0.5-0.2,1-0.2h0.4c2.7,0.1,5.5-0.1,8.1-0.4l1.7-0.2
		c0.4-0.1,1,0.1,1,0.4v0.1c0,0.2-0.2,0.4-0.7,0.4L37,16.3"/>
</g>
<g>
	<path class="st8" d="M39.8,50.1c0-1.4-3.3-2.8-7.3-2.8s-7.3,1.1-7.3,2.8v1.1c0,1.4,3.3,2.8,7.3,2.8s7.3-1.1,7.3-2.8V50.1z"/>
	<path class="st9" d="M39.8,47.4c0-1.4-3.3-2.8-7.3-2.8s-7.3,1.1-7.3,2.8v1.1c0,1.4,3.3,2.8,7.3,2.8s7.3-1.1,7.3-2.8V47.4z"/>
	<path class="st10" d="M30.8,51.4c0-1.4-3.3-2.8-7.3-2.8s-7.3,1.1-7.3,2.8v1.1c0,1.4,3.3,2.8,7.3,2.8s7.3-1.1,7.3-2.8V51.4z"/>
	<path class="st8" d="M30.8,48.7c0-1.4-3.3-2.8-7.3-2.8s-7.3,1.1-7.3,2.8v1.1c0,1.4,3.3,2.8,7.3,2.8s7.3-1.1,7.3-2.8V48.7z"/>
	<path class="st9" d="M30.8,46.2c0-1.4-3.3-2.8-7.3-2.8s-7.3,1.1-7.3,2.8v1.1c0,1.4,3.3,2.8,7.3,2.8s7.3-1.1,7.3-2.8V46.2z"/>
</g>
<path class="st1" d="M55.2,33.1c0,12.3-10,22.3-22.3,22.3c-2.6,0-5-0.4-7.3-1.2c-0.7-0.3-1.4-0.5-2.1-0.9c-0.5-0.2-0.9-0.5-1.4-0.7
	c-0.1,0-0.1-0.1-0.1-0.1c-1.2-0.7-2.3-1.4-3.3-2.3c-0.5-0.4-1-0.8-1.4-1.3c-0.7-0.7-1.4-1.5-2-2.3c-0.5-0.7-1-1.3-1.4-2
	c-2-3.4-3.2-7.3-3.2-11.5H7c0,5.8,1.9,11.2,5.2,15.5c0.4,0.5,0.8,1,1.2,1.4c0.7,0.8,1.5,1.6,2.3,2.4c1.3,1.2,2.7,2.2,4.2,3.1
	c3.8,2.2,8.3,3.5,13,3.5c14.3,0,25.9-11.6,25.9-25.9H55.2z"/>
</svg>
