<?xml version="1.0" encoding="utf-8"?>
<!-- Generator: Adobe Illustrator 22.1.0, SVG Export Plug-In . SVG Version: 6.00 Build 0)  -->
<svg version="1.1" id="Layer_1" xmlns="http://www.w3.org/2000/svg" xmlns:xlink="http://www.w3.org/1999/xlink" x="0px" y="0px"
	 viewBox="0 0 70 70" style="enable-background:new 0 0 70 70;" xml:space="preserve">
<style type="text/css">
	.st0{clip-path:url(#SVGID_2_);fill:#DB955A;}
	.st1{clip-path:url(#SVGID_4_);fill:#BF8051;}
	.st2{clip-path:url(#SVGID_6_);fill:#BF8051;}
	.st3{clip-path:url(#SVGID_8_);fill:#BF8051;}
	.st4{clip-path:url(#SVGID_10_);fill:#BF8051;stroke:#BF8051;stroke-width:0.5;stroke-miterlimit:10;}
	.st5{clip-path:url(#SVGID_12_);fill:#BF8051;stroke:#BF8051;stroke-width:0.5;stroke-miterlimit:10;}
	.st6{clip-path:url(#SVGID_14_);fill:#BF8051;stroke:#BF8051;stroke-width:0.5;stroke-miterlimit:10;}
	.st7{clip-path:url(#SVGID_16_);fill:#BF8051;}
</style>
<g>
	<g>
		<g>
			<g>
				<defs>
					<path id="SVGID_1_" d="M7.8,32.2c1.6-1.6,13.9-7.3,22.1,0.6c2.3-2,6.8-3.3,11-1.2c0.6-6.7-0.6-15.3-0.6-15.3l-2.1,1
						c-0.2,0.1-0.5,0.2-0.7,0.2h-2.9c-0.3,0-0.5-0.1-0.7-0.2l-5.8-2.9c-0.8-0.4-1.2-1.2-1.1-2l0.4-3.8c0-0.2,0.1-0.4,0.2-0.5L29,5.3
						c0.6-1.2,1.7-2,3-2.1l8.6-0.8c1.4-0.1,2.8,0.4,3.7,1.3l1.6,2.9l1.2,5.9c0,0,14.1,20.2,9.8,31.9c-3.1,6.7-10.4,6.1-10.4,6.1
						c-3.1,2.5-18.4,5.5-23.9,0c-3.7,1.2-8,0-8,0C11.9,53,2.3,37.9,7.8,32.2z"/>
				</defs>
				<clipPath id="SVGID_2_">
					<use xlink:href="#SVGID_1_"  style="overflow:visible;"/>
				</clipPath>
				<path class="st0" d="M7.8,32.2c1.4-1.8,13.9-7.3,22.1,0.6c2.3-2,6.8-3.3,11-1.2c0.6-6.7-0.6-15.3-0.6-15.3l-2.1,1
					c-0.2,0.1-0.5,0.2-0.7,0.2h-2.9c-0.3,0-0.5-0.1-0.7-0.2l-5.8-2.9c-0.8-0.4-1.2-1.2-1.1-2l0.4-3.8c0-0.2,0.1-0.4,0.2-0.5L29,5.3
					c0.6-1.2,1.7-2,3-2.1l6.7,0.4C40.2,3.5,41.5,4,42.5,5l2.1,3.2C45,8.5,45.3,9,45.3,9.5c0.1,0.6,0.5,1.2,0.8,1.7l1,1.4
					c0,0,14.1,20.2,9.8,31.9c-3.1,6.7-10.4,6.1-10.4,6.1c-3.1,2.5-18.4,5.5-23.9,0c-3.7,1.2-8,0-8,0s-5-2.8-6.9-7
					C5.8,39.4,6.8,33.6,7.8,32.2z"/>
			</g>
			<g>
				<defs>
					<path id="SVGID_3_" d="M7.8,32.2c1.6-1.6,13.9-7.3,22.1,0.6c2.3-2,6.8-3.3,11-1.2c0.6-6.7-0.6-15.3-0.6-15.3l-2.1,1
						c-0.2,0.1-0.5,0.2-0.7,0.2h-2.9c-0.3,0-0.5-0.1-0.7-0.2l-5.8-2.9c-0.8-0.4-1.2-1.2-1.1-2l0.4-3.8c0-0.2,0.1-0.4,0.2-0.5L29,5.3
						c0.6-1.2,1.7-2,3-2.1l8.6-0.8c1.4-0.1,2.8,0.4,3.7,1.3l1.6,2.9l1.2,5.9c0,0,14.1,20.2,9.8,31.9c-3.1,6.7-10.4,6.1-10.4,6.1
						c-3.1,2.5-18.4,5.5-23.9,0c-3.7,1.2-8,0-8,0C11.9,53,2.3,37.9,7.8,32.2z"/>
				</defs>
				<clipPath id="SVGID_4_">
					<use xlink:href="#SVGID_3_"  style="overflow:visible;"/>
				</clipPath>
				<path class="st1" d="M45.8,10.7c1.9,4.4,18.5,37.8,2.3,39.9l15.5-3.9l-4-27.1C59.7,19.6,52,21.1,45.8,10.7z"/>
			</g>
			<g>
				<defs>
					<path id="SVGID_5_" d="M7.8,32.2c1.6-1.6,13.9-7.3,22.1,0.6c2.3-2,6.8-3.3,11-1.2c0.6-6.7-0.6-15.3-0.6-15.3l-2.1,1
						c-0.2,0.1-0.5,0.2-0.7,0.2h-2.9c-0.3,0-0.5-0.1-0.7-0.2l-5.8-2.9c-0.8-0.4-1.2-1.2-1.1-2l0.4-3.8c0-0.2,0.1-0.4,0.2-0.5L29,5.3
						c0.6-1.2,1.7-2,3-2.1l8.6-0.8c1.4-0.1,2.8,0.4,3.7,1.3l1.6,2.9l1.2,5.9c0,0,14.1,20.2,9.8,31.9c-3.1,6.7-10.4,6.1-10.4,6.1
						c-3.1,2.5-18.4,5.5-23.9,0c-3.7,1.2-8,0-8,0C11.9,53,2.3,37.9,7.8,32.2z"/>
				</defs>
				<clipPath id="SVGID_6_">
					<use xlink:href="#SVGID_5_"  style="overflow:visible;"/>
				</clipPath>
				<path class="st2" d="M32.3,31.2C43,27.2,45.5,37.8,45,37C39,29.7,35.3,31.5,32.3,31.2z"/>
			</g>
			<g>
				<defs>
					<path id="SVGID_7_" d="M7.8,32.2c1.6-1.6,13.9-7.3,22.1,0.6c2.3-2,6.8-3.3,11-1.2c0.6-6.7-0.6-15.3-0.6-15.3l-2.1,1
						c-0.2,0.1-0.5,0.2-0.7,0.2h-2.9c-0.3,0-0.5-0.1-0.7-0.2l-5.8-2.9c-0.8-0.4-1.2-1.2-1.1-2l0.4-3.8c0-0.2,0.1-0.4,0.2-0.5L29,5.3
						c0.6-1.2,1.7-2,3-2.1l8.6-0.8c1.4-0.1,2.8,0.4,3.7,1.3l1.6,2.9l1.2,5.9c0,0,14.1,20.2,9.8,31.9c-3.1,6.7-10.4,6.1-10.4,6.1
						c-3.1,2.5-18.4,5.5-23.9,0c-3.7,1.2-8,0-8,0C11.9,53,2.3,37.9,7.8,32.2z"/>
				</defs>
				<clipPath id="SVGID_8_">
					<use xlink:href="#SVGID_7_"  style="overflow:visible;"/>
				</clipPath>
				<path class="st3" d="M33.3,39.1c-1.9-4.9-12.1-10.4-12.6-10.8c7.1,0.4,10.6,6,11.3,7.3"/>
			</g>
			<g>
				<defs>
					<path id="SVGID_9_" d="M7.8,32.2c1.6-1.6,13.9-7.3,22.1,0.6c2.3-2,6.8-3.3,11-1.2c0.6-6.7-0.6-15.3-0.6-15.3l-2.1,1
						c-0.2,0.1-0.5,0.2-0.7,0.2h-2.9c-0.3,0-0.5-0.1-0.7-0.2l-5.8-2.9c-0.8-0.4-1.2-1.2-1.1-2l0.4-3.8c0-0.2,0.1-0.4,0.2-0.5L29,5.3
						c0.6-1.2,1.7-2,3-2.1l8.6-0.8c1.4-0.1,2.8,0.4,3.7,1.3l1.6,2.9l1.2,5.9c0,0,14.1,20.2,9.8,31.9c-3.1,6.7-10.4,6.1-10.4,6.1
						c-3.1,2.5-18.4,5.5-23.9,0c-3.7,1.2-8,0-8,0C11.9,53,2.3,37.9,7.8,32.2z"/>
				</defs>
				<clipPath id="SVGID_10_">
					<use xlink:href="#SVGID_9_"  style="overflow:visible;"/>
				</clipPath>
				<path class="st4" d="M32.8,8.4L31,10c-0.2,0.2-0.3,0.4-0.4,0.6c-0.2,0.9-0.3,2.5-0.4,3.6c0,0.3,0,0.5,0.2,0.7l1.1,1.5l-0.2,0.1
					l-1.1-1.6c-0.2-0.3-0.3-0.6-0.3-1l0.2-3.6c0-0.3,0.2-0.6,0.5-0.8C31.4,9.1,32.5,8.3,32.8,8.4z"/>
			</g>
			<g>
				<defs>
					<path id="SVGID_11_" d="M7.8,32.2c1.6-1.6,13.9-7.3,22.1,0.6c2.3-2,6.8-3.3,11-1.2c0.6-6.7-0.6-15.3-0.6-15.3l-2.1,1
						c-0.2,0.1-0.5,0.2-0.7,0.2h-2.9c-0.3,0-0.5-0.1-0.7-0.2l-5.8-2.9c-0.8-0.4-1.2-1.2-1.1-2l0.4-3.8c0-0.2,0.1-0.4,0.2-0.5L29,5.3
						c0.6-1.2,1.7-2,3-2.1l8.6-0.8c1.4-0.1,2.8,0.4,3.7,1.3l1.6,2.9l1.2,5.9c0,0,14.1,20.2,9.8,31.9c-3.1,6.7-10.4,6.1-10.4,6.1
						c-3.1,2.5-18.4,5.5-23.9,0c-3.7,1.2-8,0-8,0C11.9,53,2.3,37.9,7.8,32.2z"/>
				</defs>
				<clipPath id="SVGID_12_">
					<use xlink:href="#SVGID_11_"  style="overflow:visible;"/>
				</clipPath>
				<path class="st5" d="M35.5,9.9l-1.9,1.8c-0.2,0.2-0.3,0.4-0.4,0.6c-0.2,0.9-0.2,2.3-0.3,3.4c0,0.3,0,0.5,0.2,0.7l1,1.2H34
					l-1.2-1.2c-0.2-0.3-0.3-0.6-0.3-1l0.1-3.4c0-0.3,0.2-0.6,0.5-0.8C33.8,10.8,35,9.8,35.5,9.9z"/>
			</g>
			<g>
				<defs>
					<path id="SVGID_13_" d="M7.8,32.2c1.6-1.6,13.9-7.3,22.1,0.6c2.3-2,6.8-3.3,11-1.2c0.6-6.7-0.6-15.3-0.6-15.3l-2.1,1
						c-0.2,0.1-0.5,0.2-0.7,0.2h-2.9c-0.3,0-0.5-0.1-0.7-0.2l-5.8-2.9c-0.8-0.4-1.2-1.2-1.1-2l0.4-3.8c0-0.2,0.1-0.4,0.2-0.5L29,5.3
						c0.6-1.2,1.7-2,3-2.1l8.6-0.8c1.4-0.1,2.8,0.4,3.7,1.3l1.6,2.9l1.2,5.9c0,0,14.1,20.2,9.8,31.9c-3.1,6.7-10.4,6.1-10.4,6.1
						c-3.1,2.5-18.4,5.5-23.9,0c-3.7,1.2-8,0-8,0C11.9,53,2.3,37.9,7.8,32.2z"/>
				</defs>
				<clipPath id="SVGID_14_">
					<use xlink:href="#SVGID_13_"  style="overflow:visible;"/>
				</clipPath>
				<path class="st6" d="M37.7,11.1l-1.4,1.7c-0.1,0.1-0.2,0.3-0.2,0.4c-0.2,0.6-0.1,1.1-0.4,2.3c-0.2,0.8,0.2,1.6,0.9,2l1,0.5
					l-1.1-0.5c-0.8-0.4-1.2-1.2-1.1-2l0.1-2.3c0.1-0.3,0.2-0.5,0.3-0.8C36.3,11.8,37.3,11.1,37.7,11.1z"/>
			</g>
			<g>
				<defs>
					<path id="SVGID_15_" d="M7.8,32.2c1.6-1.6,13.9-7.3,22.1,0.6c2.3-2,6.8-3.3,11-1.2c0.6-6.7-0.6-15.3-0.6-15.3l-2.1,1
						c-0.2,0.1-0.5,0.2-0.7,0.2h-2.9c-0.3,0-0.5-0.1-0.7-0.2l-5.8-2.9c-0.8-0.4-1.2-1.2-1.1-2l0.4-3.8c0-0.2,0.1-0.4,0.2-0.5L29,5.3
						c0.6-1.2,1.7-2,3-2.1l8.6-0.8c1.4-0.1,2.8,0.4,3.7,1.3l1.6,2.9l1.2,5.9c0,0,14.1,20.2,9.8,31.9c-3.1,6.7-10.4,6.1-10.4,6.1
						c-3.1,2.5-18.4,5.5-23.9,0c-3.7,1.2-8,0-8,0C11.9,53,2.3,37.9,7.8,32.2z"/>
				</defs>
				<clipPath id="SVGID_16_">
					<use xlink:href="#SVGID_15_"  style="overflow:visible;"/>
				</clipPath>
				<path class="st7" d="M32,35.6c1.3,2.2,1.3,3.6,1.3,3.6c-1.9-4.9-12.1-10.4-12.6-10.8"/>
			</g>
		</g>
	</g>
</g>
</svg>
