<?xml version="1.0" encoding="utf-8"?>
<!-- Generator: Adobe Illustrator 21.0.0, SVG Export Plug-In . SVG Version: 6.00 Build 0)  -->
<svg version="1.1" xmlns="http://www.w3.org/2000/svg" xmlns:xlink="http://www.w3.org/1999/xlink" x="0px" y="0px"
	 viewBox="0 0 70 70" style="enable-background:new 0 0 70 70;" xml:space="preserve">
<style type="text/css">
	.st0{fill:#332619;}
	.st1{fill:#563F2B;}
	.st2{clip-path:url(#SVGID_2_);fill:#DB955A;}
	.st3{clip-path:url(#SVGID_4_);fill:#BF8051;}
	.st4{fill:#DB955A;}
</style>
<g id="Calque_1">
	<g>
		<circle class="st0" cx="32.9" cy="33.1" r="24.1"/>
		<path class="st1" d="M7,33.1C7,47.4,18.6,59,32.9,59s25.9-11.6,25.9-25.9S47.2,7.3,32.9,7.3S7,18.9,7,33.1z M55.2,33.1
			c0,12.3-10,22.3-22.3,22.3s-22.3-10-22.3-22.3c0-12.3,10-22.3,22.3-22.3S55.2,20.8,55.2,33.1z"/>
	</g>
</g>
<g id="Calque_2">
	<g>
		<g>
			<g>
				<g>
					<defs>
						<path id="SVGID_1_" d="M50.1,49c0,0-4,1.1-7.4,0c-5.1,5.1-19.1,2.3-22,0c0,0-6.7,0.5-9.6-5.6c-4-10.8,9-29.4,9-29.4l1.1-5.4
							L22.7,6c0.9-0.9,2.1-1.3,3.4-1.2L34,5.6c1.2,0.1,2.2,0.8,2.8,1.9l1.3,2.5c0.1,0.1,0.2,0.2,0.2,0.4l0.3,3.5
							c0,0.7-0.3,1.4-1.1,1.8l-5.3,2.6c-0.2,0.1-0.3,0.2-0.7,0.2h-2.6c-0.2,0-0.4-0.1-0.7-0.2l-1.9-1c0,0-1.1,7.9-0.6,14.1
							c3.9-2,8-0.7,10.1,1.1c7.6-7.4,18.9-2,20.3-0.6C61.4,37.1,52.6,51.1,50.1,49z"/>
					</defs>
					<clipPath id="SVGID_2_">
						<use xlink:href="#SVGID_1_"  style="overflow:visible;"/>
					</clipPath>
					<path class="st2" d="M56.3,42.7c-1.8,4-6.4,6.5-6.4,6.5s-4,1.1-7.4,0c-5.1,5.1-19.1,2.3-22,0c0,0-6.7,0.5-9.6-5.6
						c-4-10.8,9-29.4,9-29.4l1-1.3c0.3-0.4,0.7-1,0.8-1.5c0-0.4,0.3-0.9,0.7-1.2l1.9-3c1-1,2.2-1.4,3.5-1.3L34,5.6
						c1.2,0.1,2.2,0.8,2.8,1.9l1.3,2.5c0.1,0.1,0.2,0.2,0.2,0.4l0.3,3.5c0,0.7-0.3,1.4-1.1,1.8l-5.3,2.6c-0.2,0.1-0.3,0.2-0.7,0.2
						h-2.6c-0.2,0-0.4-0.1-0.7-0.2l-1.9-1c0,0-1.1,7.9-0.6,14.1c3.9-2,8-0.7,10.1,1.1c7.6-7.4,19-2.2,20.3-0.6
						C57.2,33.2,58.2,38.4,56.3,42.7z"/>
				</g>
			</g>
		</g>
		<g>
			<g>
				<g>
					<defs>
						<path id="SVGID_3_" d="M50.1,49c0,0-4,1.1-7.4,0c-5.1,5.1-19.1,2.3-22,0c0,0-6.7,0.5-9.6-5.6c-4-10.8,9-29.4,9-29.4l1.1-5.4
							L22.7,6c0.9-0.9,2.1-1.3,3.4-1.2L34,5.6c1.2,0.1,2.2,0.8,2.8,1.9l1.3,2.5c0.1,0.1,0.2,0.2,0.2,0.4l0.3,3.5
							c0,0.7-0.3,1.4-1.1,1.8l-5.3,2.6c-0.2,0.1-0.3,0.2-0.7,0.2h-2.6c-0.2,0-0.4-0.1-0.7-0.2l-1.9-1c0,0-1.1,7.9-0.6,14.1
							c3.9-2,8-0.7,10.1,1.1c7.6-7.4,18.9-2,20.3-0.6C61.4,37.1,52.6,51.1,50.1,49z"/>
					</defs>
					<clipPath id="SVGID_4_">
						<use xlink:href="#SVGID_3_"  style="overflow:visible;"/>
					</clipPath>
					<path class="st3" d="M8.7,20.2L6,47.5L19,48.9C6,46.5,21,16.1,21.3,12.4C15.7,22,8.6,20.3,8.7,20.2z"/>
				</g>
			</g>
		</g>
		<g>
			<g>
				<g>
					<defs>
						<path id="SVGID_5_" d="M50.1,49c0,0-4,1.1-7.4,0c-5.1,5.1-19.1,2.3-22,0c0,0-6.7,0.5-9.6-5.6c-4-10.8,9-29.4,9-29.4l1.1-5.4
							L22.7,6c0.9-0.9,2.1-1.3,3.4-1.2L34,5.6c1.2,0.1,2.2,0.8,2.8,1.9l1.3,2.5c0.1,0.1,0.2,0.2,0.2,0.4l0.3,3.5
							c0,0.7-0.3,1.4-1.1,1.8l-5.3,2.6c-0.2,0.1-0.3,0.2-0.7,0.2h-2.6c-0.2,0-0.4-0.1-0.7-0.2l-1.9-1c0,0-1.1,7.9-0.6,14.1
							c3.9-2,8-0.7,10.1,1.1c7.6-7.4,18.9-2,20.3-0.6C61.4,37.1,52.6,51.1,50.1,49z"/>
					</defs>
					<clipPath id="SVGID_6_">
						<use xlink:href="#SVGID_5_"  style="overflow:visible;"/>
					</clipPath>
				</g>
			</g>
		</g>
		<g>
			<g>
				<g>
					<g>
						<defs>
							<path id="SVGID_7_" d="M50.1,49c0,0-4,1.1-7.4,0c-5.1,5.1-19.1,2.3-22,0c0,0-6.7,0.5-9.6-5.6c-4-10.8,9-29.4,9-29.4l1.1-5.4
								L22.7,6c0.9-0.9,2.1-1.3,3.4-1.2L34,5.6c1.2,0.1,2.2,0.8,2.8,1.9l1.3,2.5c0.1,0.1,0.2,0.2,0.2,0.4l0.3,3.5
								c0,0.7-0.3,1.4-1.1,1.8l-5.3,2.6c-0.2,0.1-0.3,0.2-0.7,0.2h-2.6c-0.2,0-0.4-0.1-0.7-0.2l-1.9-1c0,0-1.1,7.9-0.6,14.1
								c3.9-2,8-0.7,10.1,1.1c7.6-7.4,18.9-2,20.3-0.6C61.4,37.1,52.6,51.1,50.1,49z"/>
						</defs>
						<clipPath id="SVGID_8_">
							<use xlink:href="#SVGID_7_"  style="overflow:visible;"/>
						</clipPath>
					</g>
				</g>
			</g>
		</g>
		<g>
			<g>
				<g>
					<g>
						<defs>
							<path id="SVGID_9_" d="M50.1,49c0,0-4,1.1-7.4,0c-5.1,5.1-19.1,2.3-22,0c0,0-6.7,0.5-9.6-5.6c-4-10.8,9-29.4,9-29.4l1.1-5.4
								L22.7,6c0.9-0.9,2.1-1.3,3.4-1.2L34,5.6c1.2,0.1,2.2,0.8,2.8,1.9l1.3,2.5c0.1,0.1,0.2,0.2,0.2,0.4l0.3,3.5
								c0,0.7-0.3,1.4-1.1,1.8l-5.3,2.6c-0.2,0.1-0.3,0.2-0.7,0.2h-2.6c-0.2,0-0.4-0.1-0.7-0.2l-1.9-1c0,0-1.1,7.9-0.6,14.1
								c3.9-2,8-0.7,10.1,1.1c7.6-7.4,18.9-2,20.3-0.6C61.4,37.1,52.6,51.1,50.1,49z"/>
						</defs>
						<clipPath id="SVGID_10_">
							<use xlink:href="#SVGID_9_"  style="overflow:visible;"/>
						</clipPath>
					</g>
				</g>
			</g>
		</g>
		<g>
			<g>
				<g>
					<g>
						<defs>
							<path id="SVGID_11_" d="M50.1,49c0,0-4,1.1-7.4,0c-5.1,5.1-19.1,2.3-22,0c0,0-6.7,0.5-9.6-5.6c-4-10.8,9-29.4,9-29.4l1.1-5.4
								L22.7,6c0.9-0.9,2.1-1.3,3.4-1.2L34,5.6c1.2,0.1,2.2,0.8,2.8,1.9l1.3,2.5c0.1,0.1,0.2,0.2,0.2,0.4l0.3,3.5
								c0,0.7-0.3,1.4-1.1,1.8l-5.3,2.6c-0.2,0.1-0.3,0.2-0.7,0.2h-2.6c-0.2,0-0.4-0.1-0.7-0.2l-1.9-1c0,0-1.1,7.9-0.6,14.1
								c3.9-2,8-0.7,10.1,1.1c7.6-7.4,18.9-2,20.3-0.6C61.4,37.1,52.6,51.1,50.1,49z"/>
						</defs>
						<clipPath id="SVGID_12_">
							<use xlink:href="#SVGID_11_"  style="overflow:visible;"/>
						</clipPath>
					</g>
				</g>
			</g>
		</g>
		<g>
			<g>
				<g>
					<g>
						<defs>
							<path id="SVGID_13_" d="M50.1,49c0,0-4,1.1-7.4,0c-5.1,5.1-19.1,2.3-22,0c0,0-6.7,0.5-9.6-5.6c-4-10.8,9-29.4,9-29.4l1.1-5.4
								L22.7,6c0.9-0.9,2.1-1.3,3.4-1.2L34,5.6c1.2,0.1,2.2,0.8,2.8,1.9l1.3,2.5c0.1,0.1,0.2,0.2,0.2,0.4l0.3,3.5
								c0,0.7-0.3,1.4-1.1,1.8l-5.3,2.6c-0.2,0.1-0.3,0.2-0.7,0.2h-2.6c-0.2,0-0.4-0.1-0.7-0.2l-1.9-1c0,0-1.1,7.9-0.6,14.1
								c3.9-2,8-0.7,10.1,1.1c7.6-7.4,18.9-2,20.3-0.6C61.4,37.1,52.6,51.1,50.1,49z"/>
						</defs>
						<clipPath id="SVGID_14_">
							<use xlink:href="#SVGID_13_"  style="overflow:visible;"/>
						</clipPath>
					</g>
				</g>
			</g>
		</g>
		<g>
			<g>
				<g>
					<g>
						<defs>
							<path id="SVGID_15_" d="M50.1,49c0,0-4,1.1-7.4,0c-5.1,5.1-19.1,2.3-22,0c0,0-6.7,0.5-9.6-5.6c-4-10.8,9-29.4,9-29.4l1.1-5.4
								L22.7,6c0.9-0.9,2.1-1.3,3.4-1.2L34,5.6c1.2,0.1,2.2,0.8,2.8,1.9l1.3,2.5c0.1,0.1,0.2,0.2,0.2,0.4l0.3,3.5
								c0,0.7-0.3,1.4-1.1,1.8l-5.3,2.6c-0.2,0.1-0.3,0.2-0.7,0.2h-2.6c-0.2,0-0.4-0.1-0.7-0.2l-1.9-1c0,0-1.1,7.9-0.6,14.1
								c3.9-2,8-0.7,10.1,1.1c7.6-7.4,18.9-2,20.3-0.6C61.4,37.1,52.6,51.1,50.1,49z"/>
						</defs>
						<clipPath id="SVGID_16_">
							<use xlink:href="#SVGID_15_"  style="overflow:visible;"/>
						</clipPath>
					</g>
				</g>
			</g>
		</g>
	</g>
	<path class="st1" d="M32.9,59c14.3,0,25.9-11.6,25.9-25.9c0-7.7-3.3-14.6-8.7-19.3l-3.1,2c5,4.1,8.2,10.3,8.2,17.3
		c0,12.3-10,22.3-22.3,22.3"/>
	<path class="st4" d="M38.1,10"/>
</g>
</svg>
