<?xml version="1.0" encoding="utf-8"?>
<!-- Generator: Adobe Illustrator 22.1.0, SVG Export Plug-In . SVG Version: 6.00 Build 0)  -->
<svg version="1.1" id="Layer_1" xmlns="http://www.w3.org/2000/svg" xmlns:xlink="http://www.w3.org/1999/xlink" x="0px" y="0px"
	 viewBox="0 0 70 70" style="enable-background:new 0 0 70 70;" xml:space="preserve">
<style type="text/css">
	.st0{clip-path:url(#SVGID_2_);fill:#DB955A;}
	.st1{clip-path:url(#SVGID_4_);fill:#BF8051;}
	.st2{clip-path:url(#SVGID_6_);fill:#BF8051;}
	.st3{clip-path:url(#SVGID_8_);fill:#BF8051;}
	.st4{clip-path:url(#SVGID_10_);fill:#BF8051;}
	.st5{opacity:0.5;fill:#DB955A;enable-background:new    ;}
</style>
<g>
	<g>
		<g>
			<defs>
				<path id="SVGID_1_" d="M11.5,30.5l2.9-6.1c0.1-0.2,0.1-0.5,0.1-0.7c-0.4-2.4-1.8-16,16.2-16.4c19.8-0.4,17.6,14.1,17.8,16.9
					s-5.3,10-4.7,22.7c0.5,11.3-13.9,4.5-17,2.9c-0.4-0.2-0.6-0.6-0.7-1l0,0c0-0.1,0-0.1,0-0.2l-0.8-3.4c-0.1-0.6-0.7-1-1.4-0.9
					c-2.1,0.3-6.5,0.5-7.7-3.4c-1.1-3.4-1.2-5.5-1.1-6.6c0-0.5-0.3-1-0.7-1.2l-2.3-0.9C11.5,31.9,11.3,31.1,11.5,30.5z"/>
			</defs>
			<clipPath id="SVGID_2_">
				<use xlink:href="#SVGID_1_"  style="overflow:visible;"/>
			</clipPath>
			<path class="st0" d="M11.5,30.5l2.9-6.1c0.1-0.2,0.1-0.5,0.1-0.7c-0.4-2.4-1.8-16,16.2-16.4c19.8-0.4,17.6,14.1,17.8,16.9
				s-5.3,10-4.7,22.7c0.5,11.3-13.9,4.5-17,2.9c-0.4-0.2-0.6-0.6-0.7-1l0,0c0-0.1,0-0.1,0-0.2l-0.8-3.4c-0.1-0.6-0.7-1-1.4-0.9
				c-2.1,0.3-6.5,0.5-7.7-3.4c-1.1-3.4-1.2-5.5-1.1-6.6c0-0.5-0.3-1-0.7-1.2l-2.3-0.9C11.5,31.9,11.3,31.1,11.5,30.5z"/>
		</g>
		<g>
			<defs>
				<path id="SVGID_3_" d="M11.5,30.5l2.9-6.1c0.1-0.2,0.1-0.5,0.1-0.7c-0.4-2.4-1.8-16,16.2-16.4c19.8-0.4,17.6,14.1,17.8,16.9
					s-5.3,10-4.7,22.7c0.5,11.3-13.9,4.5-17,2.9c-0.4-0.2-0.6-0.6-0.7-1l0,0c0-0.1,0-0.1,0-0.2l-0.8-3.4c-0.1-0.6-0.7-1-1.4-0.9
					c-2.1,0.3-6.5,0.5-7.7-3.4c-1.1-3.4-1.2-5.5-1.1-6.6c0-0.5-0.3-1-0.7-1.2l-2.3-0.9C11.5,31.9,11.3,31.1,11.5,30.5z"/>
			</defs>
			<clipPath id="SVGID_4_">
				<use xlink:href="#SVGID_3_"  style="overflow:visible;"/>
			</clipPath>
			<path class="st1" d="M24.3,6.5c0,0,18.6,1.2,21.1,9.3c2.2,7.2,1.6,8.3,0.9,11.6s-1.1,10.9-1.2,14.8l11.1-21.5L50.4,1.2L26,1.8
				L24.3,6.5z"/>
		</g>
		<g>
			<defs>
				<path id="SVGID_5_" d="M11.5,30.5l2.9-6.1c0.1-0.2,0.1-0.5,0.1-0.7c-0.4-2.4-1.8-16,16.2-16.4c19.8-0.4,17.6,14.1,17.8,16.9
					s-5.3,10-4.7,22.7c0.5,11.3-13.9,4.5-17,2.9c-0.4-0.2-0.6-0.6-0.7-1l0,0c0-0.1,0-0.1,0-0.2l-0.8-3.4c-0.1-0.6-0.7-1-1.4-0.9
					c-2.1,0.3-6.5,0.5-7.7-3.4c-1.1-3.4-1.2-5.5-1.1-6.6c0-0.5-0.3-1-0.7-1.2l-2.3-0.9C11.5,31.9,11.3,31.1,11.5,30.5z"/>
			</defs>
			<clipPath id="SVGID_6_">
				<use xlink:href="#SVGID_5_"  style="overflow:visible;"/>
			</clipPath>
			<path class="st2" d="M20,24.6l-0.6-0.7c-1.3-1.6-1.3-3.8-0.2-5.5l0.4-0.6c0.2-0.2,0.3-0.5,0.4-0.8l1.3-2.9
				c0.7-1.6,2.2-2.6,3.9-2.8l2.5-0.2c0.3,0,0.6,0,0.9,0l5.4,0.7c0.1,0,0.3,0,0.4,0.1l5,1.1c1,0.2,1.9,0.8,2.6,1.6l0.3,0.4
				c0.7,0.8,1,1.9,1,3v3.1c0,0.2,0,0.5-0.1,0.7l-0.5,3.1c-0.3,1.9-1.8,3.4-3.7,3.8l-2.7,0.5L33,29.7c-1.3,0.2-2.6-0.1-3.6-1l0,0
				c-1-0.8-2.2-1.1-3.4-1l0,0c-1,0.1-2.1-0.1-2.9-0.7L21,25.7C20.8,25.3,20.4,25,20,24.6z"/>
		</g>
		<g>
			<defs>
				<path id="SVGID_7_" d="M11.5,30.5l2.9-6.1c0.1-0.2,0.1-0.5,0.1-0.7c-0.4-2.4-1.8-16,16.2-16.4c19.8-0.4,17.6,14.1,17.8,16.9
					s-5.3,10-4.7,22.7c0.5,11.3-13.9,4.5-17,2.9c-0.4-0.2-0.6-0.6-0.7-1l0,0c0-0.1,0-0.1,0-0.2l-0.8-3.4c-0.1-0.6-0.7-1-1.4-0.9
					c-2.1,0.3-6.5,0.5-7.7-3.4c-1.1-3.4-1.2-5.5-1.1-6.6c0-0.5-0.3-1-0.7-1.2l-2.3-0.9C11.5,31.9,11.3,31.1,11.5,30.5z"/>
			</defs>
			<clipPath id="SVGID_8_">
				<use xlink:href="#SVGID_7_"  style="overflow:visible;"/>
			</clipPath>
			<path class="st3" d="M10.7,30.6c0,0,4.6,0.5,4.3,3.1L13.7,36L11,34L10.7,30.6z"/>
		</g>
		<g>
			<defs>
				<path id="SVGID_9_" d="M11.5,30.5l2.9-6.1c0.1-0.2,0.1-0.5,0.1-0.7c-0.4-2.4-1.8-16,16.2-16.4c19.8-0.4,17.6,14.1,17.8,16.9
					s-5.3,10-4.7,22.7c0.5,11.3-13.9,4.5-17,2.9c-0.4-0.2-0.6-0.6-0.7-1l0,0c0-0.1,0-0.1,0-0.2l-0.8-3.4c-0.1-0.6-0.7-1-1.4-0.9
					c-2.1,0.3-6.5,0.5-7.7-3.4c-1.1-3.4-1.2-5.5-1.1-6.6c0-0.5-0.3-1-0.7-1.2l-2.3-0.9C11.5,31.9,11.3,31.1,11.5,30.5z"/>
			</defs>
			<clipPath id="SVGID_10_">
				<use xlink:href="#SVGID_9_"  style="overflow:visible;"/>
			</clipPath>
			<path class="st4" d="M13.5,43.1c0,0,9.2,5.4,25.1-4.1c0,0-2.3,4.8-15.3,8.1"/>
		</g>
	</g>
	<path class="st5" d="M45.4,6.6C49.1,8.4,56,19.7,52,27.8C56.5,19.3,54.2,11.7,45.4,6.6z"/>
	<path class="st5" d="M20.3,7.5c2.9-2.9,17.5-5.2,23.9,1.2C37.6,1.7,28,0.8,20.3,7.5z"/>
	<path class="st5" d="M36.8,1.4C39.2,1.1,49.9,4,53.1,9.1C50.3,4,43.9,0.6,36.8,1.4z"/>
	<path class="st5" d="M55.6,13.6c2.4,3.4,3,16.6-4.4,21.8C59.2,30.1,60.9,22.3,55.6,13.6z"/>
</g>
</svg>
