<?xml version="1.0" encoding="utf-8"?>
<!-- Generator: Adobe Illustrator 21.0.0, SVG Export Plug-In . SVG Version: 6.00 Build 0)  -->
<svg version="1.1" xmlns="http://www.w3.org/2000/svg" xmlns:xlink="http://www.w3.org/1999/xlink" x="0px" y="0px"
	 viewBox="0 0 70 70" style="enable-background:new 0 0 70 70;" xml:space="preserve">
<style type="text/css">
	.st0{fill:#332619;}
	.st1{fill:#563F2B;}
	.st2{fill:#DB955A;}
	.st3{clip-path:url(#SVGID_4_);fill:#BF8051;}
	.st4{clip-path:url(#SVGID_8_);fill:#BF8051;}
</style>
<g id="Calque_3">
	<g>
		<circle class="st0" cx="32.9" cy="33.1" r="24.1"/>
		<path class="st1" d="M32.9,7.3C18.6,7.3,7,18.9,7,33.1S18.6,59,32.9,59s25.9-11.6,25.9-25.9S47.2,7.3,32.9,7.3z M32.9,10.8
			c12.3,0,22.3,10,22.3,22.3c0,12.3-10,22.3-22.3,22.3s-22.3-10-22.3-22.3C10.6,20.8,20.6,10.8,32.9,10.8z"/>
	</g>
</g>
<g id="Calque_2">
	<g>
		<g>
			<g>
				<g>
					<g>
						<path class="st2" d="M12.5,31.3l3.2-6.7c0.1-0.2,0.1-0.5,0.1-0.8c-0.4-2.7-2-17.7,17.8-18.1C55.4,5.2,53,21.1,53.2,24.2
							s-5.8,11-5.2,25c0.3,7.4-14,9.8-17.4,8c-0.4-0.2-0.7-0.7-0.8-1.1l-1.3-5l-0.9-3.6c-0.1-0.7-0.8-1.1-1.5-1
							c-2.3,0.3-7.1,0.5-8.5-3.7c-1.2-3.7-1.3-6-1.2-7.4c0-0.5-0.3-1.1-0.8-1.3l-2.5-0.9C12.5,32.8,12.3,31.8,12.5,31.3z"/>
					</g>
				</g>
			</g>
		</g>
		<g>
			<g>
				<g>
					<defs>
						<path id="SVGID_1_" d="M12.5,31.3l3.2-6.7c0.1-0.2,0.1-0.5,0.1-0.8c-0.4-2.7-2-17.7,17.8-18.1C55.4,5.2,53,21.1,53.2,24.2
							s-5.8,11-5.2,25c0.5,12.4-15.3,4.9-18.7,3.2c-0.4-0.2-0.7-0.7-0.8-1.1v-0.2l-0.9-3.6c-0.1-0.7-0.8-1.1-1.5-1
							c-2.3,0.3-7.1,0.5-8.5-3.7c-1.2-3.7-1.3-6-1.2-7.4c0-0.5-0.3-1.1-0.8-1.3l-2.5-0.9C12.5,32.8,12.3,31.8,12.5,31.3z"/>
					</defs>
					<clipPath id="SVGID_2_">
						<use xlink:href="#SVGID_1_"  style="overflow:visible;"/>
					</clipPath>
				</g>
			</g>
		</g>
		<g>
			<g>
				<g>
					<g>
						<g>
							<defs>
								<path id="SVGID_3_" d="M12.5,31.3l3.2-6.7c0.1-0.2,0.1-0.5,0.1-0.8c-0.4-2.7-2-17.7,17.8-18.1C55.4,5.2,53,21.1,53.2,24.2
									s-5.8,11-5.2,25c0.5,12.4-15.3,4.9-18.7,3.2c-0.4-0.2-0.7-0.7-0.8-1.1v-0.2l-0.9-3.6c-0.1-0.7-0.8-1.1-1.5-1
									c-2.3,0.3-7.1,0.5-8.5-3.7c-1.2-3.7-1.3-6-1.2-7.4c0-0.5-0.3-1.1-0.8-1.3l-2.5-0.9C12.5,32.8,12.3,31.8,12.5,31.3z"/>
							</defs>
							<clipPath id="SVGID_4_">
								<use xlink:href="#SVGID_3_"  style="overflow:visible;"/>
							</clipPath>
							<path class="st3" d="M21.9,24.8L21.2,24c-1.4-1.9-1.4-4.2-0.2-6.2l0.4-0.7c0.2-0.2,0.3-0.5,0.4-0.9l1.4-3.2
								c0.8-1.8,2.4-2.9,4.3-3.1l2.8-0.2h1l5.9,0.8c0.1,0,0.3,0,0.4,0.1l5.5,1.2c1.1,0.2,2.1,0.9,2.9,1.8l0.3,0.4
								c0.8,0.9,1.1,2.1,1.1,3.3v3.4c0,0.2,0,0.6-0.1,0.8L46.9,25c-0.3,2.1-2,3.7-4.1,4.2l-3,0.7l-3.6,0.6c-1.4,0.2-2.9-0.1-4-1.1
								c-1.1-0.9-2.4-1.2-3.7-1.1c-1.1,0.1-2.3-0.1-3.2-0.8L23,26C22.8,25.4,22.3,25.2,21.9,24.8z"/>
						</g>
					</g>
				</g>
			</g>
		</g>
		<g>
			<g>
				<g>
					<g>
						<g>
							<defs>
								<path id="SVGID_5_" d="M12.5,31.3l3.2-6.7c0.1-0.2,0.1-0.5,0.1-0.8c-0.4-2.7-2-17.7,17.8-18.1C55.4,5.2,53,21.1,53.2,24.2
									s-5.8,11-5.2,25c0.5,12.4-15.3,4.9-18.7,3.2c-0.4-0.2-0.7-0.7-0.8-1.1v-0.2l-0.9-3.6c-0.1-0.7-0.8-1.1-1.5-1
									c-2.3,0.3-7.1,0.5-8.5-3.7c-1.2-3.7-1.3-6-1.2-7.4c0-0.5-0.3-1.1-0.8-1.3l-2.5-0.9C12.5,32.8,12.3,31.8,12.5,31.3z"/>
							</defs>
							<clipPath id="SVGID_6_">
								<use xlink:href="#SVGID_5_"  style="overflow:visible;"/>
							</clipPath>
						</g>
					</g>
				</g>
			</g>
		</g>
		<g>
			<g>
				<g>
					<g>
						<g>
							<defs>
								<path id="SVGID_7_" d="M12.5,31.3l3.2-6.7c0.1-0.2,0.1-0.5,0.1-0.8c-0.4-2.7-2-17.7,17.8-18.1C55.4,5.2,53,21.1,53.2,24.2
									s-5.8,11-5.2,25c0.5,12.4-15.3,4.9-18.7,3.2c-0.4-0.2-0.7-0.7-0.8-1.1v-0.2l-0.9-3.6c-0.1-0.7-0.8-1.1-1.5-1
									c-2.3,0.3-7.1,0.5-8.5-3.7c-1.2-3.7-1.3-6-1.2-7.4c0-0.5-0.3-1.1-0.8-1.3l-2.5-0.9C12.5,32.8,12.3,31.8,12.5,31.3z"/>
							</defs>
							<clipPath id="SVGID_8_">
								<use xlink:href="#SVGID_7_"  style="overflow:visible;"/>
							</clipPath>
							<path class="st4" d="M14.8,45c0,0,10.1,5.9,27.6-4.5c0,0-2.5,5.3-16.8,8.9"/>
						</g>
					</g>
				</g>
			</g>
		</g>
	</g>
	<path class="st1" d="M7,33.1C7,47.4,18.6,59,32.9,59s25.9-11.6,25.9-25.9 M55.2,33.1c0,12.3-10,22.3-22.3,22.3s-22.3-10-22.3-22.3"
		/>
</g>
</svg>
