<?xml version="1.0" encoding="utf-8"?>
<!-- Generator: Adobe Illustrator 22.1.0, SVG Export Plug-In . SVG Version: 6.00 Build 0)  -->
<svg version="1.1" xmlns="http://www.w3.org/2000/svg" xmlns:xlink="http://www.w3.org/1999/xlink" x="0px" y="0px"
	 viewBox="0 0 72.2 72.2" style="enable-background:new 0 0 72.2 72.2;" xml:space="preserve">
<style type="text/css">
	.st0{fill:#1D1933;stroke:#69627F;stroke-width:5;stroke-miterlimit:10;}
	.st1{fill:#6765CE;}
	.st2{clip-path:url(#SVGID_2_);fill:#5A5ACC;}
	.st3{fill:#5A5ACC;}
	.st4{clip-path:url(#SVGID_4_);fill:#AB734C;}
	.st5{clip-path:url(#SVGID_4_);fill:#936342;}
	.st6{fill:#AB734C;}
</style>
<g id="Layer_1">
	<g>
		<circle class="st0" cx="35.9" cy="36.6" r="31.5"/>
		<g>
			<circle class="st1" cx="58.5" cy="14.1" r="12.2"/>
			<g>
				<defs>
					<path id="SVGID_1_" d="M66.5,24.7c-5.6,3.8-13.2,2.4-17-3.1S45.2,8.1,51.9,3.8c5.7-3.6,14-1.8,17.8,3.8S72.1,20.8,66.5,24.7z"
						/>
				</defs>
				<clipPath id="SVGID_2_">
					<use xlink:href="#SVGID_1_"  style="overflow:visible;"/>
				</clipPath>
				<path class="st2" d="M61.8,2.5c3.4,1.7,5.6,6.7,5.2,11.5c-0.4,4.7-2.1,6.5-5.5,7.9c-1,0.4-1.4-0.1-1.8,0.2
					c-1.8,1.3-3,2.8-5.1,2.4c-5.6-0.9,17.2,4.4,17.2,4.4l5-18L70.2,0.5C70.2,0.5,58.4,0.8,61.8,2.5z"/>
				<path class="st2" d="M47.4,8.6C47.9,5.8,48,9,48.1,9.8c0.3,2.9,0.7,3.9,2,4.6c1,0.5,2.9,0.9,5.2-1.3c1.2-1.2,1.3-2.5,1.1-0.5
					c-0.2,1.9-2.7,4.1-2.7,4.1l-4.3,4.6l-2.2-7.8L47.4,8.6z"/>
			</g>
			<path class="st3" d="M56.4,12.7c0.1-0.3-0.4,1.3-0.9,3.4c-0.3,1.3,0.6,2.6,1,3.4c0.6,1.1-0.7,2.6-0.4,3.1
				c0.6,1.1-3.3-1.9-3.3-1.9l0.8-4.9l2.8-4.2L56.4,12.7z"/>
			<path class="st3" d="M56.3,19.3c0,0,3.1,3.7,7.4,1.5c5.1-2.6-1.7,4-1.7,4L55.3,24L56.3,19.3z"/>
			<g>
				<defs>
					<path id="SVGID_3_" d="M16.3,68.2c4.8-6.4,21.8-29.8,25-32.1c3-2.2,8.4-5.1,9.9-5.6c2.1-0.7,10.8-1.4,15.1-5.2
						c5.1-4.3-3.6,1.1-11-1.9c-5.7-2.3-8.8-10.7-7.2-15.8c0.5-1.5-2.6-0.2-6.5,16.4C39.2,34.7,8.5,62.1,7.3,64.2
						C5.3,67.8,13.8,71.5,16.3,68.2z"/>
				</defs>
				<clipPath id="SVGID_4_">
					<use xlink:href="#SVGID_3_"  style="overflow:visible;"/>
				</clipPath>
				<path class="st4" d="M16.2,68.1C21,61.7,37.8,38,41.2,36s7.8-5,9.9-5.6c2.1-0.6,10.8-1.4,15.1-5.2c5.1-4.3-2.8-1.6-10.6-3.2
					c-7.8-1.6-6-12.8-7.2-15.8c-1.3-3-4.2,8.4-6.8,17.6C38.6,34.4,8.4,62,7.2,64.1C5.2,67.7,13.7,71.4,16.2,68.1z"/>
				<path class="st5" d="M68.7,22.3c0,0-3.3,4.3-8.7,4.8C48.5,28,40,33,34.5,41.3S15.8,65.7,14.3,66.5c-1.8,0.9-3.5,2-7.3,0
					c-3.7-2,4.5,5.7,4.5,5.7l24.6-8.9l36.8-41.5L68.7,22.3z"/>
			</g>
			<path class="st6" d="M47.2,13.6c1.3-2.3,0.4,4.8,5.7,1.6c3-1.9,3.7-6.2,4-4.5c0.4,2.3-2,6.1-2.2,7.5c-0.3,1.5,0.4,5.8,3.9,6
				l-1,1.4l-12.3-3.3L47.2,13.6z"/>
			<path class="st3" d="M59,22.6"/>
		</g>
	</g>
</g>
<g id="Layer_2">
</g>
</svg>
