<?xml version="1.0" encoding="utf-8"?>
<!-- Generator: Adobe Illustrator 22.1.0, SVG Export Plug-In . SVG Version: 6.00 Build 0)  -->
<svg version="1.1" id="Layer_1" xmlns="http://www.w3.org/2000/svg" xmlns:xlink="http://www.w3.org/1999/xlink" x="0px" y="0px"
	 viewBox="0 0 72.2 72.2" style="enable-background:new 0 0 72.2 72.2;" xml:space="preserve">
<style type="text/css">
	.st0{fill:#2D2D2D;stroke:#AFAFAF;stroke-width:5;stroke-miterlimit:10;}
	.st1{fill:#DBDBDB;}
</style>
<g>
	<circle class="st0" cx="35.9" cy="36.6" r="31.5"/>
</g>
<g>
	<path class="st1" d="M19.2,10.1c1.1-0.9,2.3-1.8,3.5-2.5s2.6-1.5,4.1-2.1c1.5-0.6,3-1.1,4.7-1.4c1.7-0.3,3.5-0.5,5.5-0.5
		c2.7,0,5.2,0.4,7.4,1.1c2.2,0.7,4.1,1.8,5.6,3.1c1.5,1.4,2.7,3,3.6,4.9c0.8,1.9,1.2,4,1.2,6.4c0,2.2-0.3,4.2-0.9,5.8
		c-0.6,1.6-1.4,3-2.3,4.2c-0.9,1.2-2,2.2-3.1,3.1c-1.1,0.9-2.2,1.7-3.2,2.4c-1,0.8-1.9,1.5-2.6,2.2c-0.7,0.7-1.2,1.6-1.4,2.5
		l-1.2,6.1h-9.3l-1-7.1c0-0.2-0.1-0.3-0.1-0.5c0-0.2,0-0.3,0-0.5c0-1.3,0.3-2.4,0.9-3.4c0.6-1,1.4-1.8,2.3-2.6
		c0.9-0.8,1.9-1.6,3-2.3c1.1-0.7,2.1-1.5,3-2.4s1.7-1.8,2.3-2.9c0.6-1.1,0.9-2.3,0.9-3.8c0-1.8-0.6-3.1-1.7-4.2
		c-1.2-1-2.7-1.6-4.8-1.6c-1.5,0-2.8,0.2-3.9,0.5c-1,0.3-1.9,0.7-2.7,1.1c-0.7,0.4-1.4,0.8-1.9,1.1c-0.6,0.3-1.1,0.5-1.7,0.5
		c-1.3,0-2.2-0.5-2.8-1.6L19.2,10.1z M27.3,61.2c0-1.1,0.2-2,0.6-2.9c0.4-0.9,0.9-1.7,1.6-2.4c0.7-0.7,1.5-1.2,2.4-1.6
		c0.9-0.4,2-0.6,3.1-0.6c1.1,0,2.1,0.2,3,0.6c0.9,0.4,1.8,0.9,2.5,1.6c0.7,0.7,1.2,1.5,1.6,2.4c0.4,0.9,0.6,1.9,0.6,2.9
		c0,1.1-0.2,2-0.6,3c-0.4,0.9-0.9,1.7-1.6,2.4c-0.7,0.7-1.5,1.2-2.5,1.6c-0.9,0.4-1.9,0.6-3,0.6c-1.1,0-2.1-0.2-3.1-0.6
		c-0.9-0.4-1.7-0.9-2.4-1.6c-0.7-0.7-1.2-1.5-1.6-2.4C27.5,63.2,27.3,62.2,27.3,61.2z"/>
</g>
</svg>
