<?xml version="1.0" encoding="utf-8"?>
<!-- Generator: Adobe Illustrator 22.1.0, SVG Export Plug-In . SVG Version: 6.00 Build 0)  -->
<svg version="1.1" id="Layer_1" xmlns="http://www.w3.org/2000/svg" xmlns:xlink="http://www.w3.org/1999/xlink" x="0px" y="0px"
	 viewBox="0 0 72.2 72.2" style="enable-background:new 0 0 72.2 72.2;" xml:space="preserve">
<style type="text/css">
	.st0{fill:#242333;stroke:#6F6C7C;stroke-width:5;stroke-miterlimit:10;}
	.st1{fill:#50C7D3;}
	.st2{clip-path:url(#SVGID_2_);fill:#3F9BAA;}
	.st3{clip-path:url(#SVGID_4_);fill:#3F9BAA;}
	.st4{fill:#3F9BAA;}
	.st5{clip-path:url(#SVGID_6_);fill:#C1A376;}
	.st6{clip-path:url(#SVGID_8_);fill:#A58A67;}
	.st7{fill:#C1A376;}
	.st8{fill:#5959B3;}
</style>
<g>
	<circle class="st0" cx="35.9" cy="36.6" r="31.5"/>
	<g>
		<ellipse transform="matrix(0.1934 -0.9811 0.9811 0.1934 31.601 67.4153)" class="st1" cx="56.8" cy="14.5" rx="12.3" ry="12.3"/>
		<g>
			<g>
				<defs>
					<path id="SVGID_1_" d="M64.9,25.1c-5.7,3.8-13.3,2.4-17.2-3.1C43.9,16.3,43.4,8.4,50,4.1c5.8-3.6,14.1-1.8,18,3.8
						C71.8,13.6,70.4,21.3,64.9,25.1z"/>
				</defs>
				<clipPath id="SVGID_2_">
					<use xlink:href="#SVGID_1_"  style="overflow:visible;"/>
				</clipPath>
				<path class="st2" d="M60,2.8c3.4,1.7,5.7,6.8,5.2,11.6c-0.4,4.7-2.1,6.6-5.6,8c-1,0.4-1.4-0.1-1.8,0.2c-1.8,1.3-3,2.8-5.1,2.4
					c-5.7-0.9,17.4,4.4,17.4,4.4l5-18.2L68.5,0.8C68.5,0.8,56.7,1.1,60,2.8z"/>
			</g>
			<g>
				<defs>
					<path id="SVGID_3_" d="M64.9,25.1c-5.7,3.8-13.3,2.4-17.2-3.1C43.9,16.3,43.4,8.4,50,4.1c5.8-3.6,14.1-1.8,18,3.8
						C71.8,13.6,70.4,21.3,64.9,25.1z"/>
				</defs>
				<clipPath id="SVGID_4_">
					<use xlink:href="#SVGID_3_"  style="overflow:visible;"/>
				</clipPath>
				<path class="st3" d="M45.5,8.9c0.5-2.8,0.6,0.4,0.6,1.2c0.3,2.9,0.7,3.9,2,4.6c1,0.5,2.9,0.9,5.2-1.3c1.2-1.2,1.3-2.5,1.1-0.5
					c-0.2,1.9-2.7,4.1-2.7,4.1l-4.3,4.6l-2.2-7.9L45.5,8.9z"/>
			</g>
		</g>
		<path class="st4" d="M54.6,13.1c0.1-0.3-0.4,1.3-0.9,3.4c-0.3,1.3,0.6,2.6,1,3.4c0.6,1.1-0.7,2.6-0.4,3.1c0.6,1.1-3.3-1.9-3.3-1.9
			l0.8-4.9l2.8-4.2V13.1z"/>
		<path class="st4" d="M54.5,19.7c0,0,3.1,3.7,7.5,1.5c5.1-2.6-1.7,4-1.7,4l-6.8-0.8L54.5,19.7z"/>
		<g>
			<g>
				<defs>
					<path id="SVGID_5_" d="M14.1,69.1c4.8-6.5,22-30.1,25.2-32.4c3-2.2,8.5-5.1,10-5.7c2.1-0.7,10.9-1.4,15.2-5.2
						c5.1-4.3-3.6,1.1-11.1-1.9c-5.8-2.3-8.9-10.8-7.3-15.9c0.5-1.5-2.6-0.2-6.6,16.6C37.1,35.3,6.1,62.9,4.9,65.2
						C3,68.7,11.6,72.4,14.1,69.1z"/>
				</defs>
				<clipPath id="SVGID_6_">
					<use xlink:href="#SVGID_5_"  style="overflow:visible;"/>
				</clipPath>
				<path class="st5" d="M14,69c4.8-6.5,21.8-30.4,25.2-32.4c3.4-2,7.9-5,10-5.7c2.1-0.6,10.9-1.4,15.2-5.2
					c5.1-4.3-2.8-1.6-10.7-3.2c-7.9-1.6-6.1-12.9-7.3-15.9s-4.2,8.5-6.9,17.8C36.6,35,6.1,62.7,4.9,65C2.9,68.6,11.5,72.3,14,69z"/>
			</g>
			<g>
				<defs>
					<path id="SVGID_7_" d="M14.1,69.1c4.8-6.5,22-30.1,25.2-32.4c3-2.2,8.5-5.1,10-5.7c2.1-0.7,10.9-1.4,15.2-5.2
						c5.1-4.3-3.6,1.1-11.1-1.9c-5.8-2.3-8.9-10.8-7.3-15.9c0.5-1.5-2.6-0.2-6.6,16.6C37.1,35.3,6.1,62.9,4.9,65.2
						C3,68.7,11.6,72.4,14.1,69.1z"/>
				</defs>
				<clipPath id="SVGID_8_">
					<use xlink:href="#SVGID_7_"  style="overflow:visible;"/>
				</clipPath>
				<path class="st6" d="M67,22.8c0,0-3.3,4.3-8.9,4.8c-11.5,0.9-20.1,6-25.6,14.3S13.6,66.6,12.1,67.4c-1.8,0.9-3.5,2-7.4,0
					c-3.7-2,4.5,5.8,4.5,5.8l24.8-9l37.2-42L67,22.8z"/>
			</g>
		</g>
		<path class="st7" d="M45.3,14c1.3-2.3,0.4,4.8,5.8,1.6c3-1.9,3.7-6.3,4-4.5c0.4,2.3-2,6.2-2.2,7.6c-0.3,1.5,0.4,5.9,3.9,6.1
			l-1,1.4l-12.4-3.3L45.3,14z"/>
		<path class="st8" d="M57.2,23.1"/>
	</g>
</g>
</svg>
