<?xml version="1.0" encoding="utf-8"?>
<!-- Generator: Adobe Illustrator 22.1.0, SVG Export Plug-In . SVG Version: 6.00 Build 0)  -->
<svg version="1.1" id="Layer_1" xmlns="http://www.w3.org/2000/svg" xmlns:xlink="http://www.w3.org/1999/xlink" x="0px" y="0px"
	 viewBox="0 0 72.2 72.2" style="enable-background:new 0 0 72.2 72.2;" xml:space="preserve">
<style type="text/css">
	.st0{fill:#333333;stroke:#808080;stroke-width:5;stroke-miterlimit:10;}
	.st1{fill:#969696;}
	.st2{fill:#B5B5B6;}
	.st3{fill:#896E30;}
	.st4{fill:#CC9212;}
	.st5{fill:#917D56;}
</style>
<g>
	<circle class="st0" cx="35.9" cy="36.6" r="31.5"/>
	<g>
		<path class="st1" d="M29.2,51.9c4.5-4.8,41.6-45.3,38-48.9c-0.1-0.1-0.2-0.2-0.4-0.2l-38.5,42c0.1,0,0.2,0.2,0.1,0.3
			C26.9,48.3,27.5,50.4,29.2,51.9z"/>
		<path class="st2" d="M28.3,45L66.8,2.8c-5.7-1.1-43.1,38.7-45.7,41.5c1.7,1.7,3.8,2.4,7,0.6C28.1,44.9,28.2,44.9,28.3,45z"/>
		<path class="st3" d="M13.6,63.9c1.4-1.3,6-5.7,9.2-9.1c-0.8-0.5-2-0.8-2.5-1.3c-0.7-0.8-1.2-1.9-2-2.9c-2.8,3.3-6.7,7.9-8.6,10.2
			C11.5,61.1,13,62.4,13.6,63.9z"/>
		<path class="st4" d="M4.4,65.4c0,2.7,2.2,5,4.8,5s5-2.2,5-4.8c0-0.6-0.1-1.1-0.3-1.7c-0.5-1.7-2.1-2.9-3.8-3.2
			c-0.2-0.1-0.4-0.1-0.6-0.1C6.7,60.5,4.5,62.7,4.4,65.4z"/>
		<path class="st5" d="M17.9,51.4c0.6,0.9,1.3,1.9,2.2,2.7c0.5,0.5,1.1,1.1,2,1.5c5.3,3.3,15,5.5,15.8,4.6c1-1,1.3-4.3,0.1-5
			c-1.1-0.6-5.9-1.3-8.4-3.6c-0.8-0.6-1.3-1.4-1.5-2.5s-0.1-2.4,0.4-3.5c0-0.3,0.2-0.4,0.3-0.7c0.1-0.1,0-0.2-0.1-0.3h-0.2
			c-0.4,0.1-0.6,0.3-0.9,0.4c-1.5,0.6-3,0.6-4,0.3c-0.8-0.3-1.5-0.8-2.2-1.4c-2-2.2-3-5.8-4-7.8c-0.9-2.1-3.9-0.1-5,0.9
			C11.4,38,13.8,45.7,17.9,51.4z"/>
	</g>
</g>
</svg>
