<svg xmlns="http://www.w3.org/2000/svg" viewBox="0 0 72.2 72.2"><circle cx="35.9" cy="36.6" r="31.5" fill="#333" stroke="gray" stroke-width="5" stroke-miterlimit="10"/><path d="M29.2 51.9c4.5-4.8 41.6-45.3 38-48.9-.1-.1-.2-.2-.4-.2l-38.5 42c.1 0 .2.2.1.3-1.5 3.2-.9 5.3.8 6.8z" fill="#969696"/><path d="M28.3 45L66.8 2.8c-5.7-1.1-43.1 38.7-45.7 41.5 1.7 1.7 3.8 2.4 7 .6 0 0 .1 0 .2.1z" fill="#b5b5b6"/><path d="M13.6 63.9c1.4-1.3 6-5.7 9.2-9.1-.8-.5-2-.8-2.5-1.3-.7-.8-1.2-1.9-2-2.9-2.8 3.3-6.7 7.9-8.6 10.2 1.8.3 3.3 1.6 3.9 3.1z" fill="#896e30"/><path d="M4.4 65.4c0 2.7 2.2 5 4.8 5s5-2.2 5-4.8c0-.6-.1-1.1-.3-1.7a4.8 4.8 0 0 0-3.8-3.2c-.2-.1-.4-.1-.6-.1-2.8-.1-5 2.1-5.1 4.8z" fill="#cc9212"/><path d="M17.9 51.4c.6.9 1.3 1.9 2.2 2.7.5.5 1.1 1.1 2 1.5 5.3 3.3 15 5.5 15.8 4.6 1-1 1.3-4.3.1-5-1.1-.6-5.9-1.3-8.4-3.6-.8-.6-1.3-1.4-1.5-2.5s-.1-2.4.4-3.5c0-.3.2-.4.3-.7.1-.1 0-.2-.1-.3h-.2c-.4.1-.6.3-.9.4-1.5.6-3 .6-4 .3-.8-.3-1.5-.8-2.2-1.4-2-2.2-3-5.8-4-7.8-.9-2.1-3.9-.1-5 .9-1 1 1.4 8.7 5.5 14.4z" fill="#917d56"/></svg>