<?xml version="1.0" encoding="utf-8"?>
<!-- Generator: Adobe Illustrator 22.1.0, SVG Export Plug-In . SVG Version: 6.00 Build 0)  -->
<svg version="1.1" id="Layer_1" xmlns="http://www.w3.org/2000/svg" xmlns:xlink="http://www.w3.org/1999/xlink" x="0px" y="0px"
	 viewBox="0 0 1902 989.2" style="enable-background:new 0 0 1902 989.2;" xml:space="preserve">
<style type="text/css">
	.st0{fill:#253B2F;}
	.st1{fill:#343545;}
	.st2{fill:#262F29;}
	.st3{fill:#25332B;}
	.st4{fill:#262B28;}
</style>
<g>
	
		<image style="overflow:visible;opacity:0.3;" width="1932" height="1020" xlink:href="4739C028.png"  transform="matrix(1 0 0 1 -10 -10.7681)">
	</image>
	<g>
		<g>
			<rect y="73.2" class="st0" width="1902" height="916.1"/>
			<path class="st1" d="M1902,596c0,0-295.6-115.7-924.2-115.7S0,595,0,595V0h1902V596z"/>
			<polyline class="st2" points="1676.3,253 1634.9,181.2 1577.8,280 1601.4,280 1541.3,384.1 1574.4,384.1 1520.8,477 1553.8,477 
				1484.7,596.7 1619.1,596.7 1619.1,656.2 1658.6,656.2 1658.6,596.7 1785.1,596.7 1716,477 1749,477 1695.4,384.1 1728.5,384.1 
				1668.4,280 1691.9,280 1676.3,253 			"/>
			<polygon class="st3" points="918.4,721 841.9,588.5 878.4,588.5 819,485.7 855.7,485.7 789.1,370.5 815.3,370.5 752.1,261.1 
				688.9,370.5 715,370.5 648.5,485.7 685.2,485.7 625.8,588.5 662.3,588.5 585.8,721 734.6,721 734.6,786.9 778.4,786.9 778.4,721 
							"/>
			<polygon class="st4" points="812.8,581.1 736.3,448.6 772.8,448.6 713.5,345.8 750.1,345.8 683.6,230.6 709.7,230.6 646.5,121.2 
				583.4,230.6 609.5,230.6 543,345.8 579.6,345.8 520.2,448.6 556.8,448.6 480.3,581.1 598.4,581.1 598.4,647 672.8,708.2 
				672.8,581.1 			"/>
			<polygon class="st2" points="701.4,728 624.9,595.5 661.4,595.5 602,492.7 638.7,492.7 572.1,377.5 598.2,377.5 535.1,268.1 
				471.9,377.5 498,377.5 431.5,492.7 468.2,492.7 408.8,595.5 445.3,595.5 368.8,728 517.6,728 517.6,793.9 561.3,793.9 561.3,728 
							"/>
			<polygon class="st3" points="1529.8,662.8 1460.7,543.1 1493.7,543.1 1440,450.2 1473.1,450.2 1413,346.1 1436.6,346.1 
				1379.6,247.3 1322.5,346.1 1346.1,346.1 1286,450.2 1319.1,450.2 1265.4,543.1 1298.4,543.1 1229.3,662.8 1363.7,662.8 
				1363.7,722.3 1403.3,722.3 1403.3,662.8 			"/>
			<polygon class="st3" points="427.4,613.6 358.3,493.9 391.3,493.9 337.7,401 370.8,401 310.7,297 334.3,297 277.2,198.1 
				220.2,297 243.7,297 183.6,401 216.7,401 163.1,493.9 196.1,493.9 127,613.6 261.4,613.6 261.4,673.2 300.9,673.2 300.9,613.6 
							"/>
			<polygon class="st4" points="1429,562 1359.9,442.3 1392.9,442.3 1339.2,349.4 1372.3,349.4 1312.2,245.3 1335.8,245.3 
				1278.8,146.5 1221.7,245.3 1245.3,245.3 1185.2,349.4 1218.3,349.4 1164.6,442.3 1197.6,442.3 1128.5,562 1262.9,562 
				1262.9,621.5 1302.5,680.2 1302.5,562 			"/>
			<polygon class="st4" points="1670.3,707 1601.2,587.3 1634.2,587.3 1580.6,494.4 1613.7,494.4 1553.6,390.3 1577.2,390.3 
				1520.1,291.5 1463.1,390.3 1486.6,390.3 1426.5,494.4 1459.6,494.4 1406,587.3 1439,587.3 1369.9,707 1504.3,707 1504.3,766.5 
				1543.8,765.2 1543.8,707 			"/>
			<polygon class="st4" points="549.4,728.8 480.3,609.1 513.3,609.1 459.7,516.2 492.8,516.2 432.7,412.1 456.3,412.1 399.2,313.3 
				342.1,412.1 365.7,412.1 305.6,516.2 338.7,516.2 285.1,609.1 318.1,609.1 249,728.8 383.4,728.8 383.4,788.3 422.9,786.9 
				422.9,728.8 			"/>
			<polyline class="st2" points="1223.4,325 1181.9,253.2 1124.8,352 1148.4,352 1088.3,456.1 1121.4,456.1 1067.8,549 1100.8,549 
				1031.7,668.7 1166.1,668.7 1166.1,728.2 1205.6,728.2 1205.6,668.7 1332.1,668.7 1263,549 1296,549 1242.4,456.1 1275.5,456.1 
				1215.4,352 1239,352 1223.4,325 			"/>
		</g>
	</g>
</g>
</svg>
