<svg id="Layer_1" data-name="Layer 1" xmlns="http://www.w3.org/2000/svg" viewBox="0 0 316.3 316.3"><defs><style>.cls-1{fill:#4c7760;}.cls-2{fill:#686b8b;}.cls-3{fill:#4c6858;}.cls-4{fill:#4d5851;}.cls-5{fill:#4d6054;}</style></defs><title>Artboard 1</title><path class="cls-1" d="M0,42.33v274H316.3v-274A42.32,42.32,0,0,0,276.85.11H39.45A42.32,42.32,0,0,0,0,42.33Z"/><path class="cls-2" d="M316.3,0H0V206.79H40.68s17.43-51.47,122-51.47,139.74,51.47,139.74,51.47H316.3Z"/><polygon class="cls-3" points="156.07 270.11 127.06 219.84 140.91 219.84 118.39 180.82 132.28 180.82 107.04 137.1 116.95 137.1 92.98 95.59 69.02 137.1 78.92 137.1 53.68 180.82 67.58 180.82 45.05 219.84 58.91 219.84 29.89 270.11 86.34 270.11 86.34 295.11 102.94 295.11 102.94 270.11 156.07 270.11"/><polygon class="cls-4" points="101.06 166.71 78.53 127.69 92.44 127.69 67.19 83.97 77.1 83.97 53.13 42.46 29.17 83.97 39.07 83.97 13.83 127.69 27.73 127.69 5.2 166.71 19.06 166.71 0 199.72 0 216.97 34.87 216.97 34.87 241.98 63.09 265.23 63.09 216.97 116.23 216.97 87.21 166.71 101.06 166.71"/><path class="cls-5" d="M44,222.33H57.89l-22.52-39h13.9L24,139.59h9.91L10,98.08,0,115.34V272.6H3.32v17.83a41.65,41.65,0,0,0,3.89,7.17H19.92v-25H73.06Z"/><polygon class="cls-3" points="309.98 159.69 289.62 194.94 302.14 194.94 275.92 240.35 316.3 240.35 316.3 126.98 297.42 159.69 309.98 159.69"/><polygon class="cls-4" points="316.3 130.97 315.13 128.93 316.3 128.93 316.3 109.22 304.88 89.43 313.83 89.43 292.17 51.92 270.52 89.43 279.47 89.43 256.66 128.93 269.22 128.93 248.87 164.19 261.39 164.19 235.17 209.6 286.17 209.6 286.17 232.19 301.18 254.49 301.18 209.6 316.3 209.6 316.3 130.97"/><polygon class="cls-5" points="312.43 250.1 286.21 204.69 298.73 204.69 278.37 169.44 290.93 169.44 268.12 129.93 277.07 129.93 255.42 92.43 233.77 129.93 242.72 129.93 219.91 169.44 232.47 169.44 212.12 204.69 224.63 204.69 198.41 250.1 249.42 250.1 249.42 272.7 264.42 272.7 264.42 250.1 312.43 250.1"/></svg>