<?xml version="1.0" encoding="utf-8"?>
<!-- Generator: Adobe Illustrator 22.1.0, SVG Export Plug-In . SVG Version: 6.00 Build 0)  -->
<svg version="1.1" id="Layer_1" xmlns="http://www.w3.org/2000/svg" xmlns:xlink="http://www.w3.org/1999/xlink" x="0px" y="0px"
	 viewBox="0 0 300 270" style="enable-background:new 0 0 300 270;" xml:space="preserve">
<style type="text/css">
	.st0{fill:none;}
	.st1{fill:#5B3013;}
	.st2{fill:#562C15;}
	.st3{fill:url(#SVGID_2_);}
	.st4{fill:url(#SVGID_3_);}
	.st5{fill:url(#SVGID_4_);}
</style>
<pattern  y="280" width="202.2" height="139.9" patternUnits="userSpaceOnUse" id="SVGID_1_" viewBox="39.2 -158.7 202.2 139.9" style="overflow:visible;">
	<g>
		<rect x="39.2" y="-158.7" class="st0" width="202.2" height="139.9"/>
		<g>
			<rect x="39.2" y="-158.7" class="st0" width="202.2" height="139.9"/>
			<g>
				<polygon class="st1" points="202.2,-171.8 247.8,-156.7 289.1,-173.2 245.7,-188.1 				"/>
			</g>
			<g>
				<polygon class="st1" points="0,-171.8 45.6,-156.7 86.9,-173.2 43.4,-188.1 				"/>
			</g>
			<g>
				<polygon class="st1" points="202.2,-101.9 247.8,-86.8 289.1,-103.3 245.7,-118.2 				"/>
				<polygon class="st1" points="153.8,-118.8 190.9,-104.9 236.7,-121.8 195.2,-135.2 				"/>
				<polygon class="st1" points="203.8,-139.5 245.1,-125.3 281.4,-139.5 238.5,-153.6 				"/>
			</g>
			<g>
				<polygon class="st1" points="101.1,-136.9 146.7,-121.7 188,-138.2 144.6,-153.1 				"/>
				<polygon class="st1" points="154.2,-156.8 195.5,-142.6 227.5,-155.5 188.1,-168.5 				"/>
				<polygon class="st1" points="52.6,-153.8 89.8,-139.9 135.6,-156.8 94.1,-170.2 				"/>
			</g>
			<g>
				<polygon class="st1" points="0,-101.9 45.6,-86.8 86.9,-103.3 43.4,-118.2 				"/>
				<polygon class="st1" points="53.1,-121.8 94.4,-107.6 126.4,-120.6 87,-133.5 				"/>
				<polygon class="st1" points="1.6,-139.5 42.9,-125.3 79.2,-139.5 36.3,-153.6 				"/>
			</g>
			<g>
				<polygon class="st1" points="202.2,-32 247.8,-16.8 289.1,-33.3 245.7,-48.2 				"/>
				<polygon class="st1" points="153.8,-48.9 190.9,-35 236.7,-51.9 195.2,-65.3 				"/>
				<polygon class="st1" points="203.8,-69.6 245.1,-55.4 281.4,-69.6 238.5,-83.7 				"/>
			</g>
			<g>
				<polygon class="st1" points="101.1,-66.9 146.7,-51.8 188,-68.3 144.6,-83.2 				"/>
				<polygon class="st1" points="154.2,-86.8 195.5,-72.6 227.5,-85.6 188.1,-98.6 				"/>
				<polygon class="st1" points="52.6,-83.9 89.8,-70 135.6,-86.8 94.1,-100.2 				"/>
				<polygon class="st1" points="102.7,-104.5 144,-90.3 180.3,-104.5 137.4,-118.6 				"/>
			</g>
			<g>
				<polygon class="st1" points="0,-32 45.6,-16.8 86.9,-33.3 43.4,-48.2 				"/>
				<polygon class="st1" points="53.1,-51.9 94.4,-37.7 126.4,-50.6 87,-63.6 				"/>
				<polygon class="st1" points="1.6,-69.6 42.9,-55.4 79.2,-69.6 36.3,-83.7 				"/>
			</g>
			<g>
				<polygon class="st1" points="154.2,-16.9 195.5,-2.7 227.5,-15.7 188.1,-28.6 				"/>
				<polygon class="st1" points="52.6,-13.9 89.8,0 135.6,-16.9 94.1,-30.3 				"/>
				<polygon class="st1" points="102.7,-34.6 144,-20.4 180.3,-34.6 137.4,-48.7 				"/>
			</g>
		</g>
	</g>
</pattern>
<rect class="st2" width="300" height="270"/>
<pattern  id="SVGID_2_" xlink:href="#SVGID_1_" patternTransform="matrix(1 0 0 -1 44.2436 -16212.958)">
</pattern>
<rect class="st3" width="300" height="270"/>
<linearGradient id="SVGID_3_" gradientUnits="userSpaceOnUse" x1="149.95" y1="962.45" x2="149.95" y2="1012.42" gradientTransform="matrix(1 0 0 1 0 -742)">
	<stop  offset="0" style="stop-color:#000000;stop-opacity:0"/>
	<stop  offset="1" style="stop-color:#000000;stop-opacity:0.3"/>
</linearGradient>
<path class="st4" d="M300,270H0l-0.1-53H300V270z"/>
<linearGradient id="SVGID_4_" gradientUnits="userSpaceOnUse" x1="-3312.3501" y1="-1337.13" x2="-3312.3501" y2="-1274.22" gradientTransform="matrix(-1 0 0 -1 -3162.3 -1274.3)">
	<stop  offset="0" style="stop-color:#000000;stop-opacity:0"/>
	<stop  offset="1" style="stop-color:#000000;stop-opacity:0.3"/>
</linearGradient>
<path class="st5" d="M0,0h300.1v67.2H0V0z"/>
</svg>
