<?xml version="1.0" encoding="utf-8"?>
<!-- Generator: Adobe Illustrator 22.1.0, SVG Export Plug-In . SVG Version: 6.00 Build 0)  -->
<svg version="1.1" id="Layer_1" xmlns="http://www.w3.org/2000/svg" xmlns:xlink="http://www.w3.org/1999/xlink" x="0px" y="0px"
	 viewBox="0 0 300 280" style="enable-background:new 0 0 300 280;" xml:space="preserve">
<style type="text/css">
	.st0{fill:none;}
	.st1{fill:#5B3013;}
	.st2{fill:#562C15;}
	.st3{fill:url(#SVGID_1_);}
	.st4{fill:url(#SVGID_2_);}
	.st5{fill:url(#SVGID_3_);}
</style>
<pattern  y="280" width="202.2" height="139.9" patternUnits="userSpaceOnUse" id="leather" viewBox="39.2 -169.3 202.2 139.9" style="overflow:visible;">
	<g>
		<rect x="39.2" y="-169.3" class="st0" width="202.2" height="139.9"/>
		<g>
			<polygon class="st1" points="202.2,-16.3 247.8,-31.4 289.1,-14.9 245.7,0 			"/>
		</g>
		<g>
			<polygon class="st1" points="0,-16.3 45.6,-31.4 86.9,-14.9 43.4,0 			"/>
		</g>
		<g>
			<polygon class="st1" points="202.2,-86.2 247.8,-101.3 289.1,-84.8 245.7,-69.9 			"/>
			<polygon class="st1" points="153.8,-69.3 190.9,-83.2 236.7,-66.3 195.2,-52.9 			"/>
			<polygon class="st1" points="203.8,-48.6 245.1,-62.8 281.4,-48.6 238.5,-34.5 			"/>
		</g>
		<g>
			<polygon class="st1" points="101.1,-51.2 146.7,-66.4 188,-49.9 144.6,-35 			"/>
			<polygon class="st1" points="154.2,-31.3 195.5,-45.5 227.5,-32.6 188.1,-19.6 			"/>
			<polygon class="st1" points="52.6,-34.3 89.8,-48.2 135.6,-31.3 94.1,-17.9 			"/>
		</g>
		<g>
			<polygon class="st1" points="0,-86.2 45.6,-101.3 86.9,-84.8 43.4,-69.9 			"/>
			<polygon class="st1" points="53.1,-66.3 94.4,-80.5 126.4,-67.5 87,-54.6 			"/>
			<polygon class="st1" points="1.6,-48.6 42.9,-62.8 79.2,-48.6 36.3,-34.5 			"/>
		</g>
		<g>
			<polygon class="st1" points="202.2,-156.1 247.8,-171.3 289.1,-154.8 245.7,-139.9 			"/>
			<polygon class="st1" points="153.8,-139.2 190.9,-153.1 236.7,-136.2 195.2,-122.8 			"/>
			<polygon class="st1" points="203.8,-118.5 245.1,-132.7 281.4,-118.5 238.5,-104.4 			"/>
		</g>
		<g>
			<polygon class="st1" points="101.1,-121.2 146.7,-136.3 188,-119.8 144.6,-104.9 			"/>
			<polygon class="st1" points="154.2,-101.3 195.5,-115.5 227.5,-102.5 188.1,-89.5 			"/>
			<polygon class="st1" points="52.6,-104.2 89.8,-118.1 135.6,-101.3 94.1,-87.9 			"/>
			<polygon class="st1" points="102.7,-83.6 144,-97.8 180.3,-83.6 137.4,-69.5 			"/>
		</g>
		<g>
			<polygon class="st1" points="0,-156.1 45.6,-171.3 86.9,-154.8 43.4,-139.9 			"/>
			<polygon class="st1" points="53.1,-136.2 94.4,-150.4 126.4,-137.5 87,-124.5 			"/>
			<polygon class="st1" points="1.6,-118.5 42.9,-132.7 79.2,-118.5 36.3,-104.4 			"/>
		</g>
		<g>
			<polygon class="st1" points="154.2,-171.2 195.5,-185.4 227.5,-172.4 188.1,-159.5 			"/>
			<polygon class="st1" points="52.6,-174.2 89.8,-188.1 135.6,-171.2 94.1,-157.8 			"/>
			<polygon class="st1" points="102.7,-153.5 144,-167.7 180.3,-153.5 137.4,-139.4 			"/>
		</g>
	</g>
</pattern>
<rect class="st2" width="300" height="280"/>
<pattern  id="SVGID_1_" xlink:href="#leather" patternTransform="matrix(1 0 0 1 -1.1564 -120.5425)">
</pattern>
<rect class="st3" width="300" height="280"/>
<linearGradient id="SVGID_2_" gradientUnits="userSpaceOnUse" x1="149.95" y1="51.55" x2="149.95" y2="1.58" gradientTransform="matrix(1 0 0 -1 0 282)">
	<stop  offset="0" style="stop-color:#000000;stop-opacity:0"/>
	<stop  offset="1" style="stop-color:#000000;stop-opacity:0.3"/>
</linearGradient>
<path class="st4" d="M300,280H0l-0.1-53H300V280z"/>
<linearGradient id="SVGID_3_" gradientUnits="userSpaceOnUse" x1="-2334.3501" y1="1619.13" x2="-2334.3501" y2="1556.22" gradientTransform="matrix(-1 0 0 1 -2184.3 -1556.3)">
	<stop  offset="0" style="stop-color:#000000;stop-opacity:0"/>
	<stop  offset="1" style="stop-color:#000000;stop-opacity:0.3"/>
</linearGradient>
<path class="st5" d="M0,0h300.1v67.2H0V0z"/>
</svg>
