<?xml version="1.0" encoding="utf-8"?>
<!-- Generator: Adobe Illustrator 22.1.0, SVG Export Plug-In . SVG Version: 6.00 Build 0)  -->
<svg version="1.1" id="Layer_2_1_" xmlns="http://www.w3.org/2000/svg" xmlns:xlink="http://www.w3.org/1999/xlink" x="0px" y="0px"
	 viewBox="0 0 220 240" style="enable-background:new 0 0 220 240;" xml:space="preserve">
<style type="text/css">
	.st0{fill:#4F2A12;}
	.st1{fill:#3F2A1B;}
	.st2{fill:#B58530;}
	.st3{fill:#F2F2C2;}
	.st4{fill:#D6A036;}
	.st5{fill:#212121;}
	.st6{fill:#161616;}
	.st7{fill:#4C341F;}
	.st8{fill:#442E1D;}
	.st9{fill:#FFFFFF;}
</style>
<polygon class="st0" points="171.4,139.4 178.7,51.4 175.1,44.7 161.5,44.7 158.6,139.9 "/>
<polyline class="st1" points="48.2,121.7 61.1,115.6 72.1,116 66.9,125.5 48.2,121.7 "/>
<polygon class="st1" points="176,123.8 170.3,122.7 167.8,130.1 179.3,128.5 "/>
<g>
	<g>
		<g>
			<polygon class="st2" points="65.3,121.9 69.7,52.9 81.5,39.4 171.9,41.8 176,50.2 167.1,166.3 			"/>
			<polygon class="st3" points="62.1,120.5 66.5,51.5 78.3,38 167.2,43.6 172.6,51.4 163.8,166.4 			"/>
			<polygon class="st2" points="55.3,167.2 63.1,45.6 74.6,35.8 161.1,39.7 168.8,50.7 159.9,166.5 			"/>
		</g>
		<polygon class="st4" points="66.9,146.4 72.1,54.1 80.8,44.7 151.8,47.5 158.6,54.2 151.7,150.7 		"/>
	</g>
	<polygon class="st5" points="62.1,60 168.1,59.3 164.2,111 58.7,112.9 	"/>
	<polygon class="st6" points="158.2,59.4 154.5,111.2 164.2,111 168.1,59.3 	"/>
	<polygon class="st6" points="71.8,59.9 68.8,112.7 58.7,112.9 62.1,60 	"/>
</g>
<polygon class="st7" points="48.2,121.7 51.7,185.2 95.9,217.6 165.5,200.1 179.3,128.1 114.5,131.1 "/>
<path class="st8" d="M95.9,217.6c0,0,58.4-25,59-25.9c0.6-0.9,15.8-58,15.8-58l-44.2-3.2l52.9-2.4l-13.8,72L95.9,217.6z"/>
<g>
	<path class="st9" d="M106.8,92.1l0,1.8l-0.8,0l-0.1-4.8l1.8,0c0.5,0,1,0.1,1.3,0.4c0.3,0.3,0.5,0.6,0.5,1.1c0,0.5-0.1,0.8-0.5,1.1
		c-0.3,0.3-0.7,0.4-1.3,0.4L106.8,92.1z M106.8,91.5l1,0c0.3,0,0.5-0.1,0.7-0.2s0.2-0.3,0.2-0.6c0-0.3-0.1-0.5-0.2-0.6
		c-0.2-0.2-0.4-0.2-0.7-0.2l-1,0L106.8,91.5z"/>
	<path class="st9" d="M114.2,91.6c0,0.5-0.1,0.9-0.2,1.3c-0.2,0.4-0.4,0.6-0.7,0.8c-0.3,0.2-0.7,0.3-1,0.3c-0.4,0-0.7-0.1-1.1-0.3
		c-0.3-0.2-0.6-0.5-0.7-0.8c-0.2-0.4-0.3-0.8-0.3-1.2l0-0.3c0-0.5,0.1-0.9,0.2-1.3c0.2-0.4,0.4-0.6,0.7-0.8c0.3-0.2,0.6-0.3,1-0.3
		c0.4,0,0.7,0.1,1.1,0.3s0.5,0.5,0.7,0.8s0.3,0.8,0.3,1.2L114.2,91.6z M113.4,91.3c0-0.5-0.1-0.9-0.3-1.2s-0.5-0.4-0.9-0.4
		c-0.4,0-0.6,0.2-0.8,0.4c-0.2,0.3-0.3,0.7-0.3,1.2l0,0.3c0,0.5,0.1,0.9,0.3,1.2c0.2,0.3,0.5,0.4,0.9,0.4c0.4,0,0.7-0.2,0.9-0.4
		c0.2-0.3,0.3-0.7,0.3-1.2L113.4,91.3z"/>
	<path class="st9" d="M118.5,88.9l0,3.2c0,0.5-0.2,0.9-0.5,1.2c-0.3,0.3-0.8,0.5-1.3,0.5c-0.6,0-1-0.1-1.3-0.4
		c-0.3-0.3-0.5-0.7-0.5-1.2l0-3.2l0.8,0l0,3.2c0,0.3,0.1,0.6,0.3,0.7c0.2,0.2,0.4,0.3,0.7,0.2c0.6,0,1-0.4,1-1l0-3.2L118.5,88.9z"/>
	<path class="st9" d="M121.3,91.9l-0.9,0l0,1.9l-0.8,0l-0.1-4.8l1.7,0c0.6,0,1,0.1,1.3,0.4s0.5,0.6,0.5,1.1c0,0.3-0.1,0.6-0.2,0.8
		c-0.2,0.2-0.4,0.4-0.6,0.5l1.1,2l0,0l-0.9,0L121.3,91.9z M120.3,91.2l0.9,0c0.3,0,0.5-0.1,0.7-0.2s0.2-0.3,0.2-0.6
		c0-0.3-0.1-0.5-0.2-0.6s-0.4-0.2-0.7-0.2l-0.9,0L120.3,91.2z"/>
</g>
<g>
	<path class="st9" d="M94.3,103.1l3.2,0l0,1l-4.5,0.1L93,97l1.2,0L94.3,103.1z"/>
	<path class="st9" d="M102.6,100.8l-2.9,0l0,2.2l3.4,0l0,1l-4.6,0.1l-0.1-7.1l4.6-0.1l0,1l-3.4,0l0,2l2.9,0L102.6,100.8z"/>
	<path class="st9" d="M107.8,102.1c0-0.3-0.1-0.6-0.3-0.7c-0.2-0.2-0.6-0.3-1.2-0.5c-0.6-0.2-1-0.4-1.4-0.6c-0.7-0.4-1-0.9-1-1.6
		c0-0.6,0.2-1,0.7-1.4c0.5-0.4,1.1-0.6,1.8-0.6c0.5,0,0.9,0.1,1.3,0.3c0.4,0.2,0.7,0.4,0.9,0.8c0.2,0.3,0.3,0.7,0.3,1.1l-1.2,0
		c0-0.4-0.1-0.7-0.4-0.9c-0.2-0.2-0.6-0.3-1-0.3c-0.4,0-0.7,0.1-0.9,0.3c-0.2,0.2-0.3,0.4-0.3,0.7c0,0.3,0.1,0.5,0.4,0.6
		c0.2,0.2,0.6,0.3,1.2,0.5c0.6,0.2,1,0.3,1.3,0.5c0.3,0.2,0.6,0.4,0.7,0.7c0.2,0.3,0.2,0.6,0.2,1c0,0.6-0.2,1.1-0.7,1.4
		c-0.4,0.4-1.1,0.5-1.8,0.5c-0.5,0-1-0.1-1.4-0.3c-0.4-0.2-0.8-0.4-1-0.8c-0.2-0.3-0.4-0.7-0.4-1.2l1.2,0c0,0.4,0.1,0.7,0.4,0.9
		c0.3,0.2,0.7,0.3,1.2,0.3c0.4,0,0.8-0.1,1-0.3C107.7,102.6,107.8,102.4,107.8,102.1z"/>
	<path class="st9" d="M118.3,103.8l-1.2,0l-3.2-5l0.1,5l-1.2,0l-0.1-7.1l1.2,0l3.2,5l-0.1-5.1l1.2,0L118.3,103.8z"/>
	<path class="st9" d="M124.9,96.6l0.1,4.8c0,0.8-0.2,1.4-0.7,1.8c-0.5,0.4-1.1,0.7-1.9,0.7c-0.8,0-1.5-0.2-1.9-0.6s-0.7-1-0.7-1.8
		l-0.1-4.7l1.2,0l0.1,4.8c0,0.5,0.1,0.8,0.4,1.1c0.2,0.2,0.6,0.4,1.1,0.4c1,0,1.4-0.5,1.4-1.5l-0.1-4.7L124.9,96.6z"/>
	<path class="st9" d="M127.5,102.7l3.2,0l0,1l-4.5,0.1l-0.1-7.1l1.2,0L127.5,102.7z"/>
	<path class="st9" d="M135.4,101.7c0-0.3-0.1-0.6-0.3-0.7c-0.2-0.2-0.6-0.3-1.2-0.5c-0.6-0.2-1-0.4-1.4-0.6c-0.7-0.4-1-0.9-1-1.6
		c0-0.6,0.2-1,0.7-1.4c0.5-0.4,1.1-0.6,1.8-0.6c0.5,0,0.9,0.1,1.3,0.3s0.7,0.4,0.9,0.8c0.2,0.3,0.3,0.7,0.3,1.1l-1.2,0
		c0-0.4-0.1-0.7-0.4-0.9c-0.2-0.2-0.6-0.3-1-0.3c-0.4,0-0.7,0.1-0.9,0.3c-0.2,0.2-0.3,0.4-0.3,0.7c0,0.3,0.1,0.5,0.4,0.6
		s0.6,0.3,1.2,0.5c0.6,0.2,1,0.3,1.3,0.5c0.3,0.2,0.6,0.4,0.7,0.7c0.2,0.3,0.2,0.6,0.2,1c0,0.6-0.2,1.1-0.7,1.4
		c-0.4,0.4-1.1,0.5-1.8,0.5c-0.5,0-1-0.1-1.4-0.3c-0.4-0.2-0.8-0.4-1-0.8c-0.2-0.3-0.4-0.7-0.4-1.2l1.2,0c0,0.4,0.1,0.7,0.4,0.9
		c0.3,0.2,0.7,0.3,1.2,0.3c0.4,0,0.8-0.1,1-0.3C135.3,102.2,135.4,102,135.4,101.7z"/>
</g>
<g>
	<path class="st9" d="M80.9,75.4c-0.1,0.8-0.4,1.5-0.9,1.9c-0.5,0.5-1.2,0.7-2.1,0.7c-0.6,0-1.2-0.1-1.6-0.4
		c-0.5-0.3-0.8-0.7-1.1-1.2c-0.3-0.5-0.4-1.2-0.4-1.9l0-0.7c0-0.7,0.1-1.4,0.4-1.9s0.6-1,1.1-1.3c0.5-0.3,1-0.5,1.7-0.5
		c0.9,0,1.5,0.2,2.1,0.7s0.8,1.1,0.9,2l-1.3,0c-0.1-0.6-0.2-1-0.5-1.2c-0.3-0.2-0.6-0.4-1.2-0.4c-0.6,0-1,0.2-1.3,0.7
		c-0.3,0.4-0.5,1.1-0.5,1.9l0,0.7c0,0.8,0.2,1.5,0.5,1.9c0.3,0.4,0.7,0.7,1.3,0.6c0.5,0,0.9-0.1,1.2-0.4c0.3-0.2,0.4-0.6,0.5-1.2
		L80.9,75.4z"/>
	<path class="st9" d="M88.3,74.2c0,0.8-0.1,1.4-0.4,2c-0.3,0.6-0.6,1-1.1,1.3c-0.5,0.3-1,0.5-1.7,0.5c-0.6,0-1.2-0.1-1.7-0.4
		c-0.5-0.3-0.9-0.7-1.2-1.3c-0.3-0.6-0.4-1.2-0.4-2l0-0.4c0-0.8,0.1-1.4,0.4-2c0.3-0.6,0.6-1,1.1-1.3c0.5-0.3,1-0.5,1.7-0.5
		s1.2,0.1,1.7,0.4c0.5,0.3,0.9,0.7,1.1,1.3c0.3,0.6,0.4,1.2,0.4,2L88.3,74.2z M86.9,73.8c0-0.9-0.2-1.5-0.5-2
		c-0.3-0.5-0.8-0.7-1.4-0.7c-0.6,0-1,0.2-1.4,0.7c-0.3,0.5-0.5,1.1-0.5,1.9l0,0.4c0,0.9,0.2,1.5,0.5,2c0.3,0.5,0.8,0.7,1.4,0.7
		c0.6,0,1.1-0.2,1.4-0.7c0.3-0.5,0.5-1.1,0.5-2L86.9,73.8z"/>
	<path class="st9" d="M91.3,70.1l2.3,5.9l2.2-6l1.7,0l0.1,7.8l-1.3,0l0-2.6l0.1-3.4l-2.2,6l-1,0l-2.3-5.9l0.2,3.4l0,2.6l-1.3,0
		l-0.1-7.8L91.3,70.1z"/>
	<path class="st9" d="M100.9,70l2.3,5.9l2.2-6l1.7,0l0.1,7.8l-1.3,0l0-2.6l0.1-3.4l-2.2,6l-1,0l-2.3-5.9l0.2,3.4l0,2.6l-1.3,0
		L99.1,70L100.9,70z"/>
	<path class="st9" d="M114.3,69.9l0,5.2c0,0.8-0.3,1.5-0.8,2c-0.5,0.5-1.2,0.7-2.1,0.7c-0.9,0-1.6-0.2-2.1-0.7
		c-0.5-0.5-0.8-1.1-0.8-2l0-5.2l1.3,0l0,5.2c0,0.5,0.1,0.9,0.4,1.2s0.7,0.4,1.2,0.4c1,0,1.6-0.6,1.5-1.7l0-5.1L114.3,69.9z"/>
	<path class="st9" d="M122,77.5l-1.3,0l-3.5-5.5l0,5.5l-1.3,0l-0.1-7.8l1.3,0l3.5,5.5l0-5.5l1.3,0L122,77.5z"/>
	<path class="st9" d="M125,77.5l-1.3,0l-0.1-7.8l1.3,0L125,77.5z"/>
	<path class="st9" d="M132.8,73.8c0,0.7-0.1,1.4-0.3,1.9c-0.2,0.5-0.6,1-1,1.3l1.3,1l-0.9,0.8l-1.7-1.3c-0.2,0-0.4,0.1-0.7,0.1
		c-0.6,0-1.2-0.1-1.7-0.4c-0.5-0.3-0.9-0.7-1.2-1.3c-0.3-0.6-0.4-1.2-0.4-2l0-0.4c0-0.8,0.1-1.4,0.4-2c0.3-0.6,0.6-1,1.1-1.3
		c0.5-0.3,1-0.5,1.7-0.5c0.6,0,1.2,0.1,1.7,0.4c0.5,0.3,0.9,0.7,1.1,1.3c0.3,0.6,0.4,1.2,0.4,2L132.8,73.8z M131.4,73.4
		c0-0.9-0.2-1.5-0.5-2c-0.3-0.4-0.8-0.7-1.4-0.7c-0.6,0-1,0.2-1.4,0.7c-0.3,0.5-0.5,1.1-0.5,1.9l0,0.5c0,0.8,0.2,1.5,0.5,2
		c0.3,0.5,0.8,0.7,1.4,0.7c0.6,0,1.1-0.2,1.4-0.7c0.3-0.5,0.5-1.1,0.5-2L131.4,73.4z"/>
	<path class="st9" d="M139.8,69.6l0,5.2c0,0.8-0.3,1.5-0.8,2c-0.5,0.5-1.2,0.7-2.1,0.7c-0.9,0-1.6-0.2-2.1-0.7
		c-0.5-0.5-0.8-1.1-0.8-2l0-5.2l1.3,0l0,5.2c0,0.5,0.1,0.9,0.4,1.2s0.7,0.4,1.2,0.4c1,0,1.6-0.6,1.5-1.7l0-5.1L139.8,69.6z"/>
	<path class="st9" d="M145.8,73.9l-3.2,0l0,2.4l3.7,0l0,1.1l-5.1,0l-0.1-7.8l5,0l0,1.1l-3.7,0l0,2.1l3.2,0L145.8,73.9z"/>
	<path class="st9" d="M150.3,74.3l-1.5,0l0,3l-1.3,0l-0.1-7.8l2.7,0c0.9,0,1.6,0.2,2.1,0.6c0.5,0.4,0.7,1,0.7,1.7
		c0,0.5-0.1,1-0.4,1.3c-0.2,0.4-0.6,0.6-1,0.8l1.8,3.2l0,0.1l-1.4,0L150.3,74.3z M148.8,73.2l1.4,0c0.5,0,0.8-0.1,1.1-0.4
		c0.3-0.2,0.4-0.5,0.4-0.9c0-0.4-0.1-0.7-0.4-1c-0.2-0.2-0.6-0.3-1.1-0.3l-1.4,0L148.8,73.2z"/>
</g>
</svg>
