<?xml version="1.0" encoding="utf-8"?>
<!-- Generator: Adobe Illustrator 21.0.0, SVG Export Plug-In . SVG Version: 6.00 Build 0)  -->
<svg version="1.1" id="Layer_2_1_" xmlns="http://www.w3.org/2000/svg" xmlns:xlink="http://www.w3.org/1999/xlink" x="0px" y="0px"
	 viewBox="0 0 220 240" style="enable-background:new 0 0 220 240;" xml:space="preserve">
<style type="text/css">
	.st0{fill:#BF8D56;}
	.st1{fill:#C99B69;}
	.st2{fill:#D8A96F;}
	.st3{fill:#F7DCA1;}
	.st4{fill:#938263;}
	.st5{fill:#6D4F38;}
</style>
<g>
	<g>
		<polygon class="st0" points="59.6,14.8 54.8,16.9 51.7,33.6 55.6,45.3 59.6,46.5 69.6,43.9 69.6,28.6 68.2,19 		"/>
		<polygon class="st1" points="60.6,24.6 56.3,30.6 56.3,35.4 64.9,34.1 65.7,30 64.2,25.9 		"/>
		<polygon class="st2" points="60.6,46.2 64.9,40.8 64.9,29.1 60.6,24.6 69.6,24.6 72.8,32.9 71.2,40.8 72.8,42.9 		"/>
		<polygon class="st3" points="59.6,14.8 93.4,12.7 95.5,19.4 97.2,12.7 139.1,10.6 158.8,8.2 173.6,19.4 176.4,40.5 169.3,44.7 
			176.4,46.5 173.2,66.5 169.7,91.1 158.1,91.1 167.9,93.9 166.2,120 161.6,121.7 166.2,124.3 166.9,136.9 165.5,154.4 174.6,187.2 
			150.2,184 120.4,187.2 67.4,196.8 59.6,191.4 57.5,154.1 66.6,143.5 60.3,139.3 59.2,120.7 63.8,118.2 59.6,115.7 61,92.5 
			62.8,71.4 67.7,69 62.4,67.6 67.7,44 69.1,30.3 67,19.7 		"/>
		<polygon class="st0" points="71.2,163.7 67.7,173 69.4,182 72.4,182.9 79.6,182.9 82.8,180.1 84.6,171.1 81.2,161.1 75.2,159.2 		
			"/>
		<polygon class="st1" points="69.4,182 74,178.2 75.2,173 86.2,173 86.2,178.7 79.6,182.9 72.4,182.9 		"/>
		<polygon class="st2" points="75.2,159.2 82.2,159.2 87.9,160.5 89.7,165.1 91.4,161.9 118.3,163.9 129.6,163 131.9,165.3 
			134.6,163.3 166.6,158.4 177.7,150.1 186.6,154.3 185.4,158.1 189.2,158.8 190.3,177.1 183.3,186.9 172.7,186.9 150.2,185.3 
			72.6,195.8 80.8,190.9 83.2,182 81.9,165.6 79.3,161.2 75.2,159.2 		"/>
		<path class="st4" d="M140.3,59.5v6h8.4l-15.6,15.6l-12.3-12.3l-12.4,12.4l-4.1-4.1l5.5-5.3l-3.3-3.9l-6.4,4.9l-8.2-8.2h8.4l-1.4-6
			H84.6l-3,18.9L87,76l2.3-6.5l6.4,7.5l-3.6,6.5l3.7,2.7l4.1-5l2.6,4.4l-6.3,9.5l21.2,24.2l0.4,6.8l-11.4,1.9v5.3l11.4-1.2l1.6,7
			l5.3-0.8l-0.9-6.2l11.6-2v-5.1l-11.6,1.1l-0.9-7.9l21.9-22.6l-9.1-10.3l17.3-15.6l-0.9,8.7h5.1l3.7-21.1L140.3,59.5z M120.8,114.1
			l-16-18.2l16-18.6l17.1,17.7L120.8,114.1z"/>
	</g>
	<polyline class="st5" points="176,37.4 174.8,29 181,29 185.4,27.1 191,27.1 191,34.9 185.4,34.8 181,37.4 176,37.4 174.8,29 	"/>
	<polygon class="st5" points="49.4,29.2 37.6,29.2 37.6,37.6 49.4,38 55.4,41.7 64.9,40.8 64.9,31.9 55.4,33.3 	"/>
</g>
</svg>
