<?xml version="1.0" encoding="utf-8"?>
<!-- Generator: Adobe Illustrator 22.1.0, SVG Export Plug-In . SVG Version: 6.00 Build 0)  -->
<svg version="1.1" id="Layer_2_1_" xmlns="http://www.w3.org/2000/svg" xmlns:xlink="http://www.w3.org/1999/xlink" x="0px" y="0px"
	 viewBox="0 0 220 240" style="enable-background:new 0 0 220 240;" xml:space="preserve">
<style type="text/css">
	.st0{fill:#4F2A12;}
	.st1{fill:#3F2A1B;}
	.st2{fill:#B7A92E;}
	.st3{fill:#F2F2C2;}
	.st4{fill:#D8CC35;}
	.st5{fill:#212121;}
	.st6{fill:#FFFFFF;}
	.st7{fill:#161616;}
	.st8{fill:#4C341F;}
	.st9{fill:#442E1D;}
</style>
<polygon class="st0" points="171.4,139.4 178.7,51.4 175.1,44.7 161.5,44.7 158.6,139.9 "/>
<polyline class="st1" points="48.2,121.7 61.1,115.6 72.1,116 66.9,125.5 48.2,121.7 "/>
<polygon class="st1" points="176,123.8 170.3,122.7 167.8,130.1 179.3,128.5 "/>
<g>
	<g>
		<g>
			<polygon class="st2" points="65.3,121.9 69.7,52.9 81.5,39.4 171.9,41.8 176,50.2 167.1,166.3 			"/>
			<polygon class="st3" points="62.1,120.5 66.5,51.5 78.3,38 167.2,43.6 172.6,51.4 163.8,166.4 			"/>
			<polygon class="st2" points="55.3,167.2 63.1,45.6 74.6,35.8 161.1,39.7 168.8,50.7 159.9,166.5 			"/>
		</g>
		<polygon class="st4" points="66.9,146.4 72.1,54.1 80.8,44.7 151.8,47.5 158.6,54.2 151.7,150.7 		"/>
	</g>
	<polygon class="st5" points="62.1,60 168.1,59.3 164.2,111 58.7,112.9 	"/>
	<g>
		<path class="st6" d="M75.5,74.6l-2.9,0l0,2.2l3.4-0.1l0,1l-4.7,0.1l-0.1-7.1l4.6-0.1l0,1l-3.4,0.1l0,2l2.9,0L75.5,74.6z
			 M75.3,70.1L75.3,70.1l-1,0.1l-0.7-0.8l-0.7,0.8l-0.9,0l0-0.1l1.3-1.4l0.7,0L75.3,70.1z"/>
		<path class="st6" d="M82.2,71.5l-2.2,0l0.1,6.1l-1.2,0l-0.1-6.1l-2.2,0l0-1l5.7-0.1L82.2,71.5z"/>
		<path class="st6" d="M85.8,74.9l-1.4,0l0,2.7l-1.2,0l-0.1-7.1l2.5,0c0.8,0,1.5,0.2,1.9,0.5c0.5,0.4,0.7,0.9,0.7,1.6
			c0,0.5-0.1,0.9-0.3,1.2c-0.2,0.3-0.5,0.6-0.9,0.8l1.6,2.9l0,0.1l-1.3,0L85.8,74.9z M84.4,73.9l1.3,0c0.4,0,0.7-0.1,1-0.3
			c0.2-0.2,0.3-0.5,0.3-0.9c0-0.4-0.1-0.7-0.3-0.9c-0.2-0.2-0.5-0.3-1-0.3l-1.3,0L84.4,73.9z"/>
		<path class="st6" d="M93.6,74.3l-2.9,0l0,2.2l3.4-0.1l0,1l-4.7,0.1l-0.1-7.1l4.6-0.1l0,1l-3.4,0.1l0,2l2.9,0L93.6,74.3z"/>
		<path class="st6" d="M99,77.4l-1.2,0l-0.1-7.1l1.2,0L99,77.4z"/>
		<path class="st6" d="M106.2,77.3l-1.2,0l-3.3-5l0.1,5.1l-1.2,0l-0.1-7.1l1.2,0l3.3,5l-0.1-5.1l1.2,0L106.2,77.3z"/>
		<path class="st6" d="M112.5,71l-2.2,0l0.1,6.1l-1.2,0l-0.1-6.1l-2.2,0l0-1l5.7-0.1L112.5,71z"/>
		<path class="st6" d="M117.7,73.9l-2.9,0l0,2.2l3.4-0.1l0,1l-4.7,0.1l-0.1-7.1l4.6-0.1l0,1l-3.4,0.1l0,2l2.9,0L117.7,73.9z"/>
		<path class="st6" d="M120.5,76.1l3.2-0.1l0,1l-4.5,0.1l-0.1-7.1l1.2,0L120.5,76.1z"/>
		<path class="st6" d="M125.9,76l3.2-0.1l0,1l-4.5,0.1l-0.1-7.1l1.2,0L125.9,76z"/>
		<path class="st6" d="M131.4,76.9l-1.2,0l-0.1-7.1l1.2,0L131.4,76.9z"/>
		<path class="st6" d="M138.4,75.8c-0.3,0.3-0.6,0.6-1.1,0.8c-0.5,0.2-1,0.3-1.6,0.3c-0.6,0-1.1-0.1-1.6-0.4
			c-0.5-0.3-0.8-0.6-1.1-1.1c-0.3-0.5-0.4-1.1-0.4-1.8l0-0.6c0-1.1,0.2-1.9,0.7-2.5c0.5-0.6,1.2-0.9,2.1-0.9c0.8,0,1.4,0.2,1.9,0.6
			c0.5,0.4,0.8,0.9,0.9,1.7l-1.2,0c-0.2-0.9-0.7-1.3-1.5-1.3c-0.6,0-1,0.2-1.3,0.6c-0.3,0.4-0.4,1-0.4,1.8l0,0.5
			c0,0.8,0.2,1.4,0.5,1.8c0.3,0.4,0.8,0.6,1.4,0.6c0.6,0,1.1-0.2,1.3-0.5l0-1.4l-1.5,0l0-0.9l2.7,0L138.4,75.8z"/>
		<path class="st6" d="M143.8,73.5l-2.9,0l0,2.2l3.4-0.1l0,1l-4.7,0.1l-0.1-7.1l4.6-0.1l0,1l-3.4,0.1l0,2l2.9,0L143.8,73.5z"/>
		<path class="st6" d="M151.1,76.5l-1.2,0l-3.3-5l0.1,5.1l-1.2,0l-0.1-7.1l1.2,0l3.3,5l-0.1-5.1l1.2,0L151.1,76.5z"/>
		<path class="st6" d="M157.4,70.3l-2.2,0l0.1,6.1l-1.2,0l-0.1-6.1l-2.2,0l0-1l5.7-0.1L157.4,70.3z"/>
		<path class="st6" d="M106.9,92.2l0,1.8l-0.8,0l-0.1-4.8l1.8,0c0.5,0,1,0.1,1.3,0.4c0.3,0.3,0.5,0.6,0.5,1.1c0,0.5-0.1,0.8-0.4,1.1
			c-0.3,0.3-0.7,0.4-1.3,0.4L106.9,92.2z M106.9,91.5l1,0c0.3,0,0.5-0.1,0.7-0.2c0.2-0.1,0.2-0.3,0.2-0.6c0-0.3-0.1-0.5-0.2-0.6
			c-0.2-0.2-0.4-0.2-0.7-0.2l-1,0L106.9,91.5z"/>
		<path class="st6" d="M114.1,91.6c0,0.5-0.1,0.9-0.2,1.2c-0.2,0.4-0.4,0.6-0.7,0.8c-0.3,0.2-0.6,0.3-1,0.3c-0.4,0-0.7-0.1-1-0.3
			c-0.3-0.2-0.5-0.4-0.7-0.8c-0.2-0.3-0.3-0.7-0.3-1.2l0-0.3c0-0.5,0.1-0.9,0.2-1.2s0.4-0.6,0.7-0.8s0.6-0.3,1-0.3s0.7,0.1,1,0.3
			c0.3,0.2,0.5,0.4,0.7,0.8s0.3,0.8,0.3,1.2L114.1,91.6z M113.3,91.4c0-0.5-0.1-0.9-0.3-1.2c-0.2-0.3-0.5-0.4-0.9-0.4
			c-0.4,0-0.6,0.2-0.8,0.4c-0.2,0.3-0.3,0.7-0.3,1.2l0,0.3c0,0.5,0.1,0.9,0.3,1.2s0.5,0.4,0.9,0.4c0.4,0,0.6-0.1,0.8-0.4
			c0.2-0.3,0.3-0.7,0.3-1.2L113.3,91.4z"/>
		<path class="st6" d="M118.4,89l0.1,3.2c0,0.5-0.1,0.9-0.5,1.2c-0.3,0.3-0.7,0.5-1.3,0.5c-0.5,0-1-0.1-1.3-0.4
			c-0.3-0.3-0.5-0.7-0.5-1.2l-0.1-3.2l0.8,0l0.1,3.2c0,0.3,0.1,0.6,0.3,0.7c0.2,0.2,0.4,0.2,0.7,0.2c0.6,0,0.9-0.4,0.9-1l-0.1-3.2
			L118.4,89z"/>
		<path class="st6" d="M121.1,91.9l-0.9,0l0,1.8l-0.8,0l-0.1-4.8l1.7,0c0.5,0,1,0.1,1.3,0.3c0.3,0.2,0.5,0.6,0.5,1.1
			c0,0.3-0.1,0.6-0.2,0.8c-0.1,0.2-0.4,0.4-0.6,0.5l1.1,2l0,0l-0.9,0L121.1,91.9z M120.1,91.3l0.8,0c0.3,0,0.5-0.1,0.6-0.2
			c0.2-0.1,0.2-0.3,0.2-0.6c0-0.3-0.1-0.5-0.2-0.6c-0.1-0.1-0.4-0.2-0.7-0.2l-0.9,0L120.1,91.3z"/>
		<path class="st6" d="M94.1,103.2l3.2-0.1l0,1l-4.5,0.1l-0.1-7.1l1.2,0L94.1,103.2z"/>
		<path class="st6" d="M102.4,100.9l-2.9,0l0,2.2l3.4-0.1l0,1l-4.7,0.1L98.2,97l4.6-0.1l0,1L99.4,98l0,2l2.9,0L102.4,100.9z"/>
		<path class="st6" d="M107.6,102.2c0-0.3-0.1-0.6-0.3-0.7c-0.2-0.2-0.6-0.3-1.2-0.5c-0.6-0.2-1-0.3-1.4-0.6c-0.7-0.4-1-0.9-1-1.6
			c0-0.6,0.2-1.1,0.7-1.4c0.5-0.4,1.1-0.6,1.8-0.6c0.5,0,0.9,0.1,1.3,0.3c0.4,0.2,0.7,0.4,0.9,0.8c0.2,0.3,0.3,0.7,0.4,1.1l-1.2,0
			c0-0.4-0.1-0.7-0.4-0.9c-0.2-0.2-0.6-0.3-1-0.3c-0.4,0-0.7,0.1-0.9,0.3c-0.2,0.2-0.3,0.4-0.3,0.7c0,0.3,0.1,0.5,0.4,0.6
			c0.2,0.2,0.6,0.3,1.2,0.5c0.6,0.2,1,0.3,1.3,0.5c0.3,0.2,0.6,0.4,0.8,0.7c0.2,0.3,0.2,0.6,0.3,1c0,0.6-0.2,1.1-0.7,1.4
			c-0.4,0.4-1.1,0.5-1.8,0.6c-0.5,0-1-0.1-1.4-0.3c-0.4-0.2-0.8-0.4-1-0.8c-0.2-0.3-0.4-0.7-0.4-1.2l1.2,0c0,0.4,0.1,0.7,0.4,0.9
			c0.3,0.2,0.7,0.3,1.2,0.3c0.4,0,0.8-0.1,1-0.3C107.5,102.7,107.6,102.4,107.6,102.2z"/>
		<path class="st6" d="M118.1,103.8l-1.2,0l-3.3-5l0.1,5.1l-1.2,0l-0.1-7.1l1.2,0l3.3,5l-0.1-5.1l1.2,0L118.1,103.8z"/>
		<path class="st6" d="M124.7,96.6l0.1,4.8c0,0.8-0.2,1.4-0.7,1.8c-0.5,0.5-1.1,0.7-1.9,0.7c-0.8,0-1.5-0.2-2-0.6
			c-0.5-0.4-0.7-1-0.7-1.8l-0.1-4.8l1.2,0l0.1,4.8c0,0.5,0.1,0.8,0.4,1.1c0.2,0.2,0.6,0.4,1.1,0.4c1,0,1.4-0.5,1.4-1.5l-0.1-4.7
			L124.7,96.6z"/>
		<path class="st6" d="M127.4,102.7l3.2-0.1l0,1l-4.5,0.1l-0.1-7.1l1.2,0L127.4,102.7z"/>
		<path class="st6" d="M135.3,101.7c0-0.3-0.1-0.6-0.3-0.7c-0.2-0.2-0.6-0.3-1.2-0.5c-0.6-0.2-1-0.3-1.4-0.6c-0.7-0.4-1-0.9-1-1.6
			c0-0.6,0.2-1.1,0.7-1.4c0.5-0.4,1.1-0.6,1.8-0.6c0.5,0,0.9,0.1,1.3,0.3c0.4,0.2,0.7,0.4,0.9,0.8c0.2,0.3,0.3,0.7,0.4,1.1l-1.2,0
			c0-0.4-0.1-0.7-0.4-0.9c-0.2-0.2-0.6-0.3-1-0.3c-0.4,0-0.7,0.1-0.9,0.3s-0.3,0.4-0.3,0.7c0,0.3,0.1,0.5,0.4,0.6
			c0.2,0.2,0.6,0.3,1.2,0.5c0.6,0.2,1,0.3,1.3,0.5c0.3,0.2,0.6,0.4,0.8,0.7c0.2,0.3,0.2,0.6,0.3,1c0,0.6-0.2,1.1-0.7,1.4
			c-0.4,0.4-1.1,0.5-1.8,0.6c-0.5,0-1-0.1-1.4-0.3c-0.4-0.2-0.8-0.4-1-0.8c-0.2-0.3-0.4-0.7-0.4-1.2l1.2,0c0,0.4,0.1,0.7,0.4,0.9
			c0.3,0.2,0.7,0.3,1.2,0.3c0.4,0,0.8-0.1,1-0.3C135.2,102.2,135.3,102,135.3,101.7z"/>
	</g>
	<polygon class="st7" points="158.2,59.4 154.5,111.2 164.2,111 168.1,59.3 	"/>
	<polygon class="st7" points="71.8,59.9 68.8,112.7 58.7,112.9 62.1,60 	"/>
</g>
<polygon class="st8" points="48.2,121.7 51.7,185.2 95.9,217.6 165.5,200.1 179.3,128.1 114.5,131.1 "/>
<path class="st9" d="M95.9,217.6c0,0,58.4-25,59-25.9c0.6-0.9,15.8-58,15.8-58l-44.2-3.2l52.9-2.4l-13.8,72L95.9,217.6z"/>
</svg>
