<?xml version="1.0" encoding="utf-8"?>
<!-- Generator: Adobe Illustrator 22.1.0, SVG Export Plug-In . SVG Version: 6.00 Build 0)  -->
<svg version="1.1" id="Layer_2_1_" xmlns="http://www.w3.org/2000/svg" xmlns:xlink="http://www.w3.org/1999/xlink" x="0px" y="0px"
	 viewBox="0 0 220 240" style="enable-background:new 0 0 220 240;" xml:space="preserve">
<style type="text/css">
	.st0{fill:#4F2A12;}
	.st1{clip-path:url(#SVGID_2_);}
	.st2{clip-path:url(#SVGID_5_);}
	.st3{clip-path:url(#SVGID_6_);fill:#5043D1;}
	.st4{clip-path:url(#SVGID_6_);fill:#3C3AAD;}
	.st5{fill:#5043D1;}
	.st6{fill:#3C3AAD;}
	.st7{fill:#E5E5E5;}
	.st8{fill:#CCCCCC;}
	.st9{fill:#CC9A69;}
	.st10{fill:#B2855D;}
	.st11{opacity:0.5;fill:#CCCCCC;enable-background:new    ;}
	.st12{fill:#6D4F38;}
</style>
<g>
	<g>
		<polygon class="st0" points="151,69.5 173.3,53.5 156.2,49.9 161.6,44.9 150.6,37.1 124.9,31.7 111.2,34.4 114,41.2 95.2,37.3 
			110,59.6 102.9,89.3 49.2,139.6 57.2,193 144.7,211.2 170.8,165 144.7,99.8 		"/>
	</g>
	<g>
		<g>
			<g>
				<defs>
					<polygon id="SVGID_1_" points="107.7,60.5 100.4,90.8 49.5,138.6 56.6,186.6 136.9,203.3 160.4,161.8 135.5,99.7 141.9,68.9 
						159.2,56.5 96.4,43.4 					"/>
				</defs>
				<clipPath id="SVGID_2_">
					<use xlink:href="#SVGID_1_"  style="overflow:visible;"/>
				</clipPath>
				<g class="st1">
					<g>
						<defs>
							<polygon id="SVGID_3_" points="84.6,108.5 104.5,102.8 114.4,117.3 127.5,113.1 145.1,123.9 162.9,129.7 180.2,191 
								151.2,218.3 63.4,210.7 26.3,165.4 36,118.6 70.6,99.7 							"/>
						</defs>
						<defs>
							<polygon id="SVGID_4_" points="84.6,108.5 104.5,102.8 114.4,117.3 127.5,113.1 145.1,123.9 162.9,129.7 180.2,191 
								151.2,218.3 63.4,210.7 26.3,165.4 36,118.6 70.6,99.7 							"/>
						</defs>
						<clipPath id="SVGID_5_">
							<use xlink:href="#SVGID_3_"  style="overflow:visible;"/>
						</clipPath>
						<clipPath id="SVGID_6_" class="st2">
							<use xlink:href="#SVGID_4_"  style="overflow:visible;"/>
						</clipPath>
						<polygon class="st3" points="84.6,108.5 104.5,102.8 114.4,117.3 127.5,113.1 145.1,123.9 162.9,129.7 180.2,191 151.2,218.3 
							63.4,210.7 26.3,165.4 36,118.6 70.6,99.7 						"/>
						<polygon class="st4" points="84.6,108.5 104.1,106 112.2,122.4 126.6,118.3 137.9,126.6 144.1,161.6 129.3,189.7 82.2,190.4 
							143.8,214.1 176.5,136.8 123.2,91.3 						"/>
					</g>
				</g>
				<g class="st1">
					<polygon class="st5" points="111.5,99.2 114.1,104.7 119.1,98.2 114.6,92.8 					"/>
					<polygon class="st6" points="114.6,92.8 116.8,98.1 114.1,104.7 119.1,98.2 					"/>
				</g>
				<g class="st1">
					<polygon class="st5" points="121.5,104.4 122,108.2 126.2,105.3 124.6,101.3 					"/>
					<polygon class="st6" points="124.6,101.3 124.9,104.8 122,108.2 126.2,105.3 					"/>
				</g>
			</g>
			<g>
				<path class="st7" d="M138.2,206.2l-83.9-17.4l-7.6-51.1l51.4-48.2l6.8-28.5L90.8,39.6l74.7,15.5l-21.4,15.3l-6,29l25.1,62.5
					L138.2,206.2z M58.9,184.5l76.7,15.9l21.9-38.8L132.8,100l6.7-32.5l13.4-9.6L102,47.2l8.5,12.8l-7.7,32.2l-50.5,47.4L58.9,184.5
					z"/>
			</g>
			<polygon class="st8" points="88,190.3 67.7,191.6 138.2,206.2 163.2,162 138.2,99.5 144.2,70.5 165.5,55.1 136.1,49 135,54.1 
				153,57.8 139.5,67.4 132.8,100 157.5,161.6 135.6,200.4 			"/>
			<polygon class="st9" points="106.1,36.9 115.3,59.5 136.2,63.8 154.4,46.9 143.9,39.5 119.2,34.3 			"/>
			<polygon class="st10" points="119.2,34.3 141.7,41.2 149.1,46.9 136.2,61.4 116.1,58.4 112.3,52.2 115.3,59.5 136.2,63.8 
				154.4,46.9 143.9,39.5 			"/>
			<polyline class="st11" points="108.8,43.4 149.2,51.8 136.2,63.8 115.3,59.5 108.8,43.4 			"/>
			<polygon class="st0" points="144.7,92.8 154.4,90.8 144.7,88.7 			"/>
			<polygon class="st12" points="93.7,63.1 100.2,66.8 146.2,75.4 154.4,75 164,76.7 160.4,92 151.5,90.9 143.3,91.1 97.6,81.5 
				91.4,77.7 83.7,76.1 85.7,62.4 			"/>
		</g>
	</g>
</g>
</svg>
