<?xml version="1.0" encoding="utf-8"?>
<!-- Generator: Adobe Illustrator 22.1.0, SVG Export Plug-In . SVG Version: 6.00 Build 0)  -->
<svg version="1.1" id="Layer_2_1_" xmlns="http://www.w3.org/2000/svg" xmlns:xlink="http://www.w3.org/1999/xlink" x="0px" y="0px"
	 viewBox="0 0 220 240" style="enable-background:new 0 0 220 240;" xml:space="preserve">
<style type="text/css">
	.st0{fill:#4F2A12;}
	.st1{fill:#3F2A1B;}
	.st2{fill:#1C514F;}
	.st3{fill:#F2F2C2;}
	.st4{fill:#133A3A;}
	.st5{opacity:0.6;}
	.st6{clip-path:url(#SVGID_2_);fill:#658696;}
	.st7{clip-path:url(#SVGID_4_);fill:#3A4B54;}
	.st8{fill:#9BCAE8;}
	.st9{clip-path:url(#SVGID_6_);fill:#526B77;}
	.st10{clip-path:url(#SVGID_8_);fill:#9BCAE8;}
	.st11{clip-path:url(#SVGID_10_);fill:#526B77;}
	.st12{clip-path:url(#SVGID_12_);fill:#99B2DB;}
	.st13{clip-path:url(#SVGID_14_);fill:#556885;}
	.st14{clip-path:url(#SVGID_16_);fill:#97BDE8;}
	.st15{fill:#576877;}
	.st16{fill:#4C341F;}
	.st17{fill:#442E1D;}
</style>
<polygon class="st0" points="171.4,139.4 178.7,51.4 175.1,44.7 161.5,44.7 158.6,139.9 "/>
<polyline class="st1" points="48.2,121.7 61.1,115.6 72.1,116 66.9,125.5 48.2,121.7 "/>
<polygon class="st1" points="176,123.8 170.3,122.7 167.8,130.1 179.3,128.5 "/>
<g>
	<g>
		<polygon class="st2" points="67.2,120 71.8,52.7 83.3,39.5 171.6,42.3 175.6,50.4 166.4,163.8 		"/>
		<polygon class="st3" points="64.1,118.7 68.7,51.3 80.2,38.1 167,43.9 172.3,51.7 163.2,163.9 		"/>
		<polygon class="st2" points="57.2,164.2 65.3,45.5 76.6,36 161.1,40.1 168.5,50.9 159.4,164 		"/>
	</g>
	<polygon class="st4" points="65.3,143.8 74.1,53.8 82.6,44.7 151.9,47.8 158.6,54.3 151.4,148.5 	"/>
	<g class="st5">
		<g>
			<g>
				<defs>
					<polygon id="SVGID_1_" points="114.9,92.2 114.6,103.4 111.8,114.3 112.2,121.1 110.8,122 111.5,125.2 108,130.3 103.7,131.3 
						100.7,129.4 100,125 102.8,120.1 104.4,119.3 104.4,117.7 107.4,111.7 110.1,106.7 111.1,98.5 110.3,90.3 					"/>
				</defs>
				<clipPath id="SVGID_2_">
					<use xlink:href="#SVGID_1_"  style="overflow:visible;"/>
				</clipPath>
				<polygon class="st6" points="114.9,92.2 114.6,103.4 111.8,114.3 112.2,121.1 110.8,122 111.5,125.2 108,130.3 103.7,131.3 
					100.7,129.4 100,125 102.8,120.1 104.4,119.3 104.4,117.7 107.4,111.7 110.1,106.7 111.1,98.5 110.3,90.3 				"/>
			</g>
			<g>
				<defs>
					<polygon id="SVGID_3_" points="122.9,96.6 122.4,82.3 121.7,76.8 116.7,64.3 113,60.7 108.3,62.2 106.1,65.8 102,77.3 
						101.7,90.9 101.6,95.4 103.5,97.1 106.7,96.3 108.6,93.7 110.7,93.1 113.3,94.8 115.4,95.7 117,94.5 118.8,94.1 120.2,95 
						121,96.4 					"/>
				</defs>
				<clipPath id="SVGID_4_">
					<use xlink:href="#SVGID_3_"  style="overflow:visible;"/>
				</clipPath>
				<polygon class="st7" points="122.9,96.6 122.4,82.3 121.7,76.8 116.7,64.3 113,60.7 108.6,61.8 106.1,65.8 102,77.3 101.7,90.9 
					101.6,95.4 103.5,97.1 106.7,96.3 108.6,93.7 110.7,93.1 113.3,94.8 115.4,95.7 117,94.5 118.8,94.1 120.2,95 121,96.4 				"/>
			</g>
		</g>
		<g>
			<g>
				<polygon class="st8" points="101.1,106.3 99.6,115.2 100.3,124.2 98.9,129.5 99.9,130.5 98.9,132.9 100.9,137.4 104.1,138.9 
					106.8,137.8 108,134.4 106.5,130.2 105.4,129.3 105.6,128 104.1,122.8 102.7,118.5 103.1,111.9 104.9,105.4 				"/>
			</g>
			<g>
				<defs>
					<polygon id="SVGID_5_" points="94.1,108.6 96.6,97.4 97.9,93.2 103.7,84 107.2,81.7 110.7,83.6 111.9,86.8 113.4,96.5 
						111.7,107.2 111.1,110.8 109.4,111.8 106.9,110.8 105.8,108.4 104.3,107.6 101.9,108.6 100.2,109 99.1,107.8 97.7,107.2 
						96.5,107.7 95.7,108.7 					"/>
				</defs>
				<clipPath id="SVGID_6_">
					<use xlink:href="#SVGID_5_"  style="overflow:visible;"/>
				</clipPath>
				<polygon class="st9" points="94.1,108.6 96.6,97.4 97.9,93.2 103.7,84 107.2,81.7 110.5,83.2 111.9,86.8 113.4,96.5 
					111.7,107.2 111.1,110.8 109.4,111.8 106.9,110.8 105.8,108.4 104.3,107.6 101.9,108.6 100.2,109 99.1,107.8 97.7,107.2 
					96.5,107.7 95.7,108.7 				"/>
			</g>
		</g>
		<g>
			<g>
				<defs>
					<polygon id="SVGID_7_" points="125.2,99.8 120.4,108.5 117.7,118.3 114.3,123.3 115.1,124.7 113,126.8 113.5,132.3 116.3,135 
						119.5,134.9 122.1,131.8 122.1,126.8 121.2,125.4 122,124.2 122.3,118.2 122.4,113.2 125.3,106.4 129.6,100.3 					"/>
				</defs>
				<clipPath id="SVGID_8_">
					<use xlink:href="#SVGID_7_"  style="overflow:visible;"/>
				</clipPath>
				<polygon class="st10" points="125.2,99.8 120.4,108.5 117.7,118.3 114.3,123.3 115.1,124.7 113,126.8 113.5,132.3 116.3,135 
					119.5,134.9 122.1,131.8 122.1,126.8 121.2,125.4 122,124.2 122.3,118.2 122.4,113.2 125.3,106.4 129.6,100.3 				"/>
			</g>
			<g>
				<defs>
					<polygon id="SVGID_9_" points="117.1,99.6 123.8,88.8 126.8,84.9 136.3,77.4 140.7,76.3 143.7,79.6 143.8,83.4 141.8,94.1 
						136,104.7 134.1,108.2 131.8,108.7 129.7,106.6 129.4,103.8 128.1,102.3 125.3,102.5 123.3,102.3 122.6,100.6 121.3,99.5 
						119.9,99.6 118.6,100.3 					"/>
				</defs>
				<clipPath id="SVGID_10_">
					<use xlink:href="#SVGID_9_"  style="overflow:visible;"/>
				</clipPath>
				<polygon class="st11" points="117.1,99.6 123.8,88.8 126.8,84.9 136.3,77.4 140.7,76.3 143.7,79.1 143.8,83.4 141.8,94.1 
					136,104.7 134.1,108.2 131.8,108.7 129.7,106.6 129.4,103.8 128.1,102.3 125.3,102.5 123.3,102.3 122.6,100.6 121.3,99.5 
					119.9,99.6 118.6,100.3 				"/>
			</g>
		</g>
		<g>
			<g>
				<defs>
					<polygon id="SVGID_11_" points="137.9,118.2 138,125.1 136.6,131.9 137.1,136.1 136.2,136.7 136.7,138.7 134.7,141.9 
						132.1,142.6 130.2,141.6 129.6,138.8 131.2,135.8 132.2,135.2 132.1,134.2 133.8,130.4 135.3,127.3 135.7,122.2 135,117.1 
											"/>
				</defs>
				<clipPath id="SVGID_12_">
					<use xlink:href="#SVGID_11_"  style="overflow:visible;"/>
				</clipPath>
				<polygon class="st12" points="137.9,118.2 138,125.1 136.6,131.9 137.1,136.1 136.2,136.7 136.7,138.7 134.7,141.9 132.1,142.6 
					130.2,141.6 129.6,138.8 131.2,135.8 132.2,135.2 132.1,134.2 133.8,130.4 135.3,127.3 135.7,122.2 135,117.1 				"/>
			</g>
			<g>
				<defs>
					<polygon id="SVGID_13_" points="142.9,120.7 142.2,111.9 141.7,108.6 138.2,101 135.8,98.9 133,99.9 131.7,102.2 129.5,109.4 
						129.7,117.8 129.8,120.5 131,121.5 133,121 134,119.3 135.3,118.9 137,119.9 138.3,120.3 139.2,119.6 140.3,119.3 141.2,119.8 
						141.7,120.6 					"/>
				</defs>
				<clipPath id="SVGID_14_">
					<use xlink:href="#SVGID_13_"  style="overflow:visible;"/>
				</clipPath>
				<polygon class="st13" points="142.9,120.7 142.2,111.9 141.7,108.6 138.2,101 135.8,98.9 133.1,99.7 131.7,102.2 129.5,109.4 
					129.7,117.8 129.8,120.5 131,121.5 133,121 134,119.3 135.3,118.9 137,119.9 138.3,120.3 139.2,119.6 140.3,119.3 141.2,119.8 
					141.7,120.6 				"/>
			</g>
		</g>
		<g>
			<g>
				<defs>
					<polygon id="SVGID_15_" points="85.6,95.5 83.3,102 82.5,109 80.8,112.7 81.4,113.6 80.3,115.3 81.2,119 83.4,120.5 
						85.6,120.1 87,117.7 86.4,114.3 85.7,113.5 86.1,112.5 85.6,108.4 85.2,105 86.4,100 88.7,95.4 					"/>
				</defs>
				<clipPath id="SVGID_16_">
					<use xlink:href="#SVGID_15_"  style="overflow:visible;"/>
				</clipPath>
				<polygon class="st14" points="85.6,95.5 83.3,102 82.5,109 80.8,112.7 81.4,113.6 80.3,115.3 81.2,119 83.4,120.5 85.6,120.1 
					87,117.7 86.4,114.3 85.7,113.5 86.1,112.5 85.6,108.4 85.2,105 86.4,100 88.7,95.4 				"/>
			</g>
			<g>
				<polygon class="st15" points="80,96.3 83.5,88.2 85.1,85.2 90.7,79 93.6,77.8 96,79.4 96.5,82.3 96.3,89.8 93.5,97.7 
					92.6,100.3 91.1,100.9 89.4,99.7 88.9,97.8 87.8,96.9 86,97.4 84.6,97.4 83.9,96.4 83,95.8 82,96 81.2,96.6 				"/>
			</g>
		</g>
	</g>
</g>
<polygon class="st16" points="48.2,121.7 51.7,185.2 95.9,217.6 165.5,200.1 179.3,128.1 114.5,131.1 "/>
<path class="st17" d="M95.9,217.6c0,0,58.4-25,59-25.9c0.6-0.9,15.8-58,15.8-58l-44.2-3.2l52.9-2.4l-13.8,72L95.9,217.6z"/>
</svg>
