<?xml version="1.0" encoding="utf-8"?>
<!-- Generator: Adobe Illustrator 22.1.0, SVG Export Plug-In . SVG Version: 6.00 Build 0)  -->
<svg version="1.1" id="Layer_3" xmlns="http://www.w3.org/2000/svg" xmlns:xlink="http://www.w3.org/1999/xlink" x="0px" y="0px"
	 viewBox="0 0 220 240" style="enable-background:new 0 0 220 240;" xml:space="preserve">
<style type="text/css">
	.st0{fill:#3F2A1B;}
	.st1{fill:#0F826F;}
	.st2{fill:#0D6856;}
	.st3{fill:#4C341F;}
	.st4{fill:#442E1D;}
	.st5{fill:#0E705D;}
</style>
<polyline class="st0" points="59.3,114.9 71.1,109.3 81.2,109.7 76.4,118.4 59.3,114.9 "/>
<polygon class="st0" points="176.3,116.8 171,115.8 168.8,122.6 179.3,121.1 "/>
<g>
	<polygon class="st1" points="143.5,172.8 102.1,174.1 70.3,149.2 61.3,109.1 80.5,72.8 118,57.5 157.5,70.3 179.2,104.7 
		173.4,145.4 	"/>
	<polygon class="st2" points="145.4,66.5 127.1,65.6 110.4,72.8 94.5,104 94.5,125 63.3,117.4 61.3,106.8 80.5,72.8 118,57.5 	"/>
</g>
<polygon class="st3" points="59.3,114.9 62.5,173 103,202.7 166.6,186.6 179.3,120.8 120,123.5 "/>
<path class="st4" d="M103,202.7c0,0,53.4-22.9,54-23.7c0.5-0.8,14.5-53.1,14.5-53.1l-40.4-2.9l48.4-2.2l-12.6,65.9L103,202.7z"/>
<polygon class="st5" points="98.2,73.3 81.2,100.3 81.2,118 98.2,120.4 98.2,103.6 112.9,77.8 129.2,66.9 149.4,67.6 130.7,61.7 
	118.2,62.4 "/>
</svg>
