<svg id="Layer_1" xmlns="http://www.w3.org/2000/svg" viewBox="0 0 80 80"><style>.st0{fill:#a28b68}.st1{fill:#877358}.st2{fill:#998167}.st3{fill:#ddc250}.st4{fill:#f2d455}.st5{fill:#c1aa48}</style><path class="st0" d="M42.3 68.9c0-.3.1-1.1.1-1.2 0-.3 0-.6.3-1-.2-.3-.3-.6-.3-.9s.2-1.1.2-1.2c0-1.9 3.3-3.1 8.3-3.1 2.8 0 5.3.5 7 1.2.1-1.5-.3-5-.3-5L54 38.8c-.2-1.1-.6-2-1.2-2.9l-6.4-9.3c-1-1.4-2.1-2.4-3.6-3.2-2.2.2-4.6.3-6.8.1l-1.9-.1c-.6.5-1.1 1.1-1.6 1.7l-8.8 12.3c-1.1 1.5-1.8 3.4-1.9 5.3l-.7 13.9c3 .6 4.3 1.4 4.3 2.7 0 .1-.2.8-.2 1.2 0 .3.2.4-.1.8.2.3.2.8.2 1.2 0 .1-.2.9-.2 1.3 0 .3-.3.3-.6.6.3.3-.1.7-.1 1 0 .1-1 .9-1 1.3 0 .7-.3.4-1.2 1 .9.7 4.3 2.4 5.4 2.7 1.1.4 2.3.5 3.5.5l6.9-.3 4.4-.8c-.1-.3-.1-.7-.1-.9z"/><path class="st1" d="M50.5 8l.6.9c.5.5.7.8.5 1.5l-.3 2.3c0 .1-.2.3-.3.4l-4.3 7.1h.5l5.6-6.5.3-.6.9-3c.2-.7-.1-1.5-.8-1.9l-2.5-1.3c-.4-.2-.8-.2-1.2-.1l-2.3.7c.7-.1 1.3.2 2 .1.6-.2.9 0 1.3.4zM42.2 69.6l-4.6.9 4.9-.2c0-.1.1-.3.1-.4-.1 0-.3-.2-.4-.3zM42.3 23.4c1.5.9 2.7 2 3.7 3.4l6.3 9.2c.6.9 1 1.9 1.2 3l3.7 18.6v.1c.3 1.5.4 3.1.3 4.7.4.2.8.4 1.1.6 1-.1 2.1-.2 3.2-.2h.3c.6-1.7.7-3.5.3-5.3L58 38.1c-.4-1.3-1-2.6-1.8-3.7l-7.3-9.6c-.6-.8-1.3-1.5-2.1-2.1l-2.6.5c-.6.1-1.3.1-1.9.2z"/><path class="st2" d="M44.7 9c-.3 0-.6.3-.7.8l-2.4 10.1h.3l3-9.4c.3-.7.3-1.5-.2-1.5zM36.2 10.3c-.3.2-.4.6-.3 1l1.9 8.8h.4l-1.1-8.6c-.1-.7-.4-1.5-.9-1.2zM29.8 12.4c-.2.2-.2.6.1.9l5.7 7.1h.3L31.4 13c-.4-.7-1.3-1-1.6-.6z"/><path class="st0" d="M51.9 8.5l-.9-.8c-.4-.4-1-.6-1.6-.5s-1.5.1-2.2.2l-1.5.4c-.4.1-.9.1-1.3-.2l-2.7-1.8c-.6-.4-1.5-.3-2 .2L37 8.6c-.4.4-1 .6-1.5.4l-4.2-.9c-.7-.1-1.3.2-1.7.7l-1.9 2.7c-.2.4-.6.6-1 .7-1.4.3-1.8 2.1-.7 2.9l7.3 5.7 1.3-.3.2.2h2l5.8-.4.3-.4c.8 0 1.5 0 2.3.1l1.8.1 4.6-7.1c.1-.1.1-.2.1-.3l.8-2.3c.1-.7-.1-1.4-.6-1.9z"/><path class="st3" d="M61.9 70.3c-.8 0-1.5 0-2.2-.1v1.6c0 .5-.3 1-.9 1.5 1 .1 2 .2 3.1.2 5 0 9.1-1.5 9.1-3.4v-1.3c0-.3-.1-.6-.4-1-1.1 1.5-4.6 2.5-8.7 2.5z"/><path class="st4" d="M71 66.2c0-1.9-3.9-3.3-8.8-3.4h-.3c-1.1 0-2.2.1-3.2.2-.3-.2-.7-.4-1.1-.6a19 19 0 0 0-6.9-1.2c-5 0-9.1 1.5-9.1 3.4v1.3c0 .3.1.6.4.9 1.1 1.4 4.6 2.5 8.7 2.5s7.6-1 8.7-2.5c.2.3.2.6.2 1 0 .2.1.7.1 1s-.3.8-.6 1.1c.2.2.6.7.7.9.7.1 1.5.1 2.2.1 4.1 0 7.6-1 8.7-2.5.2-.3.4-.6.4-1-.1-.2-.1-1-.1-1.2z"/><path class="st5" d="M25.9 66.5v-1.3c0-.3-.1-.7-.4-1-1.1 1.4-4.6 2.4-8.7 2.4s-7.6-1-8.7-2.4c-.3.3-.4.7-.4 1v1.3c0 1.9 4.1 3.4 9.1 3.4 3.2 0 6-.6 7.6-1.5.9-.6 1.5-1.2 1.5-1.9z"/><path class="st3" d="M16.8 66.9c4.1 0 7.6-1 8.7-2.4.3-.3.4-.7.4-1v-1.3c0-.3-.1-.6-.4-1-1.1 1.4-4.6 2.5-8.7 2.5s-7.6-1-8.7-2.5c-.2.3-.4.6-.4 1v1.3c0 .3.1.7.4 1 1.1 1.4 4.6 2.4 8.7 2.4z"/><path class="st4" d="M16.8 64.1c4.1 0 7.6-1 8.7-2.5.2-.3.4-.6.4-1v-1.3c0-1.4-2.1-2.5-5.1-3-1.2-.2-2.6-.4-4-.4-5 0-9.1 1.5-9.1 3.4v1.3c0 .3.1.6.4 1 1.1 1.5 4.6 2.5 8.7 2.5z"/><path class="st5" d="M59.7 72v-1.3-.3c-.1-.2-.2-.5-.4-.7-1.1 1.4-4.6 2.4-8.7 2.4s-7.6-1-8.7-2.4c0 .1-.1.1-.1.2-.2.3-.3.6-.3.8V72c0 1.9 4.1 3.4 9.1 3.4 3.6 0 6.7-.8 8.2-1.9.6-.5.9-1 .9-1.5z"/><path class="st3" d="M41.5 68.8c0 .2.1.4.1.6.1.2.1.3.3.4 1.1 1.4 4.6 2.4 8.7 2.4s7.6-1 8.7-2.4c.3-.3.4-.7.4-1v-1.3c0-.3-.1-.6-.4-1-1.1 1.4-4.6 2.5-8.7 2.5s-7.6-1-8.7-2.5c-.2.3-.4.6-.4 1v1.3z"/><ellipse transform="rotate(-1.78 40.1 21.6) scale(.99998)" cx="40.1" cy="21.6" rx="9.7" ry="2.2" fill="#594223"/></svg>