<?xml version="1.0" encoding="utf-8"?>
<!-- Generator: Adobe Illustrator 22.1.0, SVG Export Plug-In . SVG Version: 6.00 Build 0)  -->
<svg version="1.1" id="Layer_1" xmlns="http://www.w3.org/2000/svg" xmlns:xlink="http://www.w3.org/1999/xlink" x="0px" y="0px"
	 viewBox="0 0 80 80" style="enable-background:new 0 0 80 80;" xml:space="preserve">
<style type="text/css">
	.st0{fill:#E5E5E5;}
	.st1{fill:#CC9A69;}
	.st2{clip-path:url(#SVGID_2_);fill:#D33124;}
	.st3{clip-path:url(#SVGID_4_);fill:#AF2620;}
</style>
<g>
	<path class="st0" d="M60.9,41.8c-4-5.7-8.3-11.7-9.2-13.1c-0.1-0.2-0.2-0.4-0.2-0.7l-0.8-10c0-0.4,0.1-0.8,0.4-1.1l3.5-2.6
		c0.3-0.2,0.5-0.6,0.5-1c0-0.7-0.6-1.3-1.3-1.3H30.2c-0.7,0-1.3,0.6-1.3,1.3c0,0.4,0.2,0.8,0.5,1l2.8,2.3c0.3,0.3,0.5,0.7,0.5,1.2
		L32,23.7c-0.4,3.2-1.5,6.3-3.3,8.9l-5.9,8.8c-4.5,6.7-4.6,15.5-0.3,22.3l0.4,0.6c3.7,5.9,10.3,9.5,17.3,9.5h4.9
		c6.6-0.1,12.8-3.5,16.3-9.1l0.2-0.3C65.9,57.4,65.6,48.5,60.9,41.8z M49.1,40.8l-15.1-3c-2.4-0.5-3.5-3.2-2.1-5.2l1.7-2.5
		c0.3-0.5,0.5-1.1,0.6-1.7l0.6-11.5c0-0.1,0-0.2-0.1-0.3l-2.4-2.3c-0.2-0.2-0.1-0.6,0.2-0.6h18.8c0.3,0,0.5,0.4,0.2,0.6L49,16.4
		c-0.1,0.1-0.1,0.2-0.1,0.2l-0.6,11.9c0,0.8,0.2,1.6,0.7,2.2l3.5,4.7C54.4,38,52.2,41.4,49.1,40.8z"/>
	<path class="st1" d="M36.4,16.8l-2.6-8.2c-0.4-1.2,0.5-2.5,1.8-2.5h11.9c1.2,0,2.2,1.2,1.8,2.4l-2.2,8.2c-0.2,0.8-1,1.4-1.8,1.4
		h-7.1C37.4,18.1,36.7,17.5,36.4,16.8z"/>
	<g>
		<g>
			<defs>
				<path id="SVGID_1_" d="M30.9,34L25,42.6c-3.8,5.6-4.1,12.8-0.8,18.6l0.7,1.2c3.1,5.5,9,8.9,15.3,8.9H44c6.2,0,12-3.3,15.2-8.7
					l0,0c3.7-6.2,3.2-14-1.2-19.7l-6.9-9c-0.7-1-2.1-1.3-3.1-0.7l-0.7,0.4c-1,0.5-2.2,0.2-2.8-0.8l-1.6-3c-0.4-0.8-1.6-0.9-2.2-0.2
					L39.5,31c-0.7,0.9-1.9,1.2-3,0.9V32C34.4,31.3,32.1,32.1,30.9,34z"/>
			</defs>
			<clipPath id="SVGID_2_">
				<use xlink:href="#SVGID_1_"  style="overflow:visible;"/>
			</clipPath>
			<path class="st2" d="M30.9,34L25,42.6c-3.8,5.6-4.1,12.8-0.8,18.6l0.7,1.2c3.1,5.5,9,8.9,15.3,8.9H44c6.2,0,12-3.3,15.2-8.7l0,0
				c3.7-6.2,3.2-14-1.2-19.7l-6.9-9c-0.7-1-2.1-1.3-3.1-0.7l-0.7,0.4c-1,0.5-2.2,0.2-2.8-0.8l-1.6-3c-0.4-0.8-1.6-0.9-2.2-0.2
				L39.5,31c-0.7,0.9-1.9,1.2-3,0.9V32C34.4,31.3,32.1,32.1,30.9,34z"/>
		</g>
		<g>
			<defs>
				<path id="SVGID_3_" d="M30.9,34L25,42.6c-3.8,5.6-4.1,12.8-0.8,18.6l0.7,1.2c3.1,5.5,9,8.9,15.3,8.9H44c6.2,0,12-3.3,15.2-8.7
					l0,0c3.7-6.2,3.2-14-1.2-19.7l-6.9-9c-0.7-1-2.1-1.3-3.1-0.7l-0.7,0.4c-1,0.5-2.2,0.2-2.8-0.8l-1.6-3c-0.4-0.8-1.6-0.9-2.2-0.2
					L39.5,31c-0.7,0.9-1.9,1.2-3,0.9V32C34.4,31.3,32.1,32.1,30.9,34z"/>
			</defs>
			<clipPath id="SVGID_4_">
				<use xlink:href="#SVGID_3_"  style="overflow:visible;"/>
			</clipPath>
			<path class="st3" d="M41.8,28.6l2.9,6.5c0.5,1.1,1.9,1.4,2.8,0.7l0,0c0.8-0.6,2.1-0.5,2.7,0.4l5.4,7.9c3.6,5.1,4,11.8,1,17.4l0,0
				c-2.5,4.7-6.9,7.9-12.2,8.8L38,71.4h6.1c6.2,0,12-3.3,15.2-8.7l0,0c3.7-6.2,3.2-14-1.2-19.7l-7.2-9.4c-0.6-0.7-1.5-0.9-2.3-0.5
				l-1.3,0.7c-0.9,0.5-2,0.1-2.5-0.7l-2.7-4.8L41.8,28.6z"/>
		</g>
	</g>
</g>
</svg>
