<?xml version="1.0" encoding="utf-8"?>
<!-- Generator: Adobe Illustrator 22.1.0, SVG Export Plug-In . SVG Version: 6.00 Build 0)  -->
<svg version="1.1" id="Layer_1" xmlns="http://www.w3.org/2000/svg" xmlns:xlink="http://www.w3.org/1999/xlink" x="0px" y="0px"
	 viewBox="0 0 70 70" style="enable-background:new 0 0 70 70;" xml:space="preserve">
<style type="text/css">
	.st0{clip-path:url(#SVGID_2_);fill:#DB955A;}
	.st1{clip-path:url(#SVGID_2_);fill:#BF8051;}
	.st2{opacity:0.5;fill:#DB955A;}
</style>
<g>
	<g>
		<defs>
			<path id="SVGID_1_" d="M7.4,32.3l2.9-6.1c0.1-0.2,0.1-0.5,0.1-0.7c-0.4-2.4-1.8-16,16.2-16.4C46.4,8.7,44.2,23.2,44.4,26
				c0.2,2.8-5.3,10-4.7,22.7c0.5,11.3-13.9,4.5-17,2.9c-0.4-0.2-0.6-0.6-0.7-1v0c0-0.1,0-0.1,0-0.2L21.2,47c-0.1-0.6-0.7-1-1.4-0.9
				c-2.1,0.3-6.5,0.5-7.7-3.4c-1.1-3.4-1.2-5.5-1.1-6.6c0-0.5-0.3-1-0.7-1.2L8,34C7.4,33.7,7.2,32.9,7.4,32.3z"/>
		</defs>
		<clipPath id="SVGID_2_">
			<use xlink:href="#SVGID_1_"  style="overflow:visible;"/>
		</clipPath>
		<path class="st0" d="M7.4,32.3l2.9-6.1c0.1-0.2,0.1-0.5,0.1-0.7c-0.4-2.4-1.8-16,16.2-16.4C46.4,8.7,44.2,23.2,44.4,26
			c0.2,2.8-5.3,10-4.7,22.7c0.5,11.3-13.9,4.5-17,2.9c-0.4-0.2-0.6-0.6-0.7-1v0c0-0.1,0-0.1,0-0.2L21.2,47c-0.1-0.6-0.7-1-1.4-0.9
			c-2.1,0.3-6.5,0.5-7.7-3.4c-1.1-3.4-1.2-5.5-1.1-6.6c0-0.5-0.3-1-0.7-1.2L8,34C7.4,33.7,7.2,32.9,7.4,32.3z"/>
		<path class="st1" d="M20.2,8.3c0,0,18.6,1.2,21.1,9.3c2.2,7.2,1.6,8.3,0.9,11.6S41.1,40.1,41,44l11.1-21.5L46.3,3L21.9,3.6
			L20.2,8.3z"/>
		<path class="st1" d="M15.9,26.4l-0.6-0.7c-1.3-1.6-1.3-3.8-0.2-5.5l0.4-0.6c0.2-0.2,0.3-0.5,0.4-0.8l1.3-2.9
			c0.7-1.6,2.2-2.6,3.9-2.8l2.5-0.2c0.3,0,0.6,0,0.9,0l5.4,0.7c0.1,0,0.3,0,0.4,0.1l5,1.1c1,0.2,1.9,0.8,2.6,1.6l0.3,0.4
			c0.7,0.8,1,1.9,1,3l0,3.1c0,0.2,0,0.5-0.1,0.7l-0.5,3.1c-0.3,1.9-1.8,3.4-3.7,3.8l-2.7,0.5l-3.3,0.5c-1.3,0.2-2.6-0.1-3.6-1l0,0
			c-1-0.8-2.2-1.1-3.4-1l0,0c-1,0.1-2.1-0.1-2.9-0.7l-2.1-1.3C16.7,27.1,16.3,26.8,15.9,26.4z"/>
		<path class="st1" d="M6.6,32.4c0,0,4.6,0.5,4.3,3.1l-1.3,2.3l-2.7-2L6.6,32.4z"/>
		<path class="st1" d="M9.4,44.9c0,0,9.2,5.4,25.1-4.1c0,0-2.3,4.8-15.3,8.1"/>
	</g>
	<path class="st2" d="M41.3,8.4c3.7,1.8,10.6,13.1,6.6,21.2C52.4,21.1,50.1,13.5,41.3,8.4z"/>
	<path class="st2" d="M16.2,9.3c2.9-2.9,17.5-5.2,23.9,1.2C33.5,3.5,23.9,2.6,16.2,9.3z"/>
	<path class="st2" d="M32.7,3.2c2.4-0.3,13.1,2.6,16.3,7.7C46.2,5.8,39.8,2.4,32.7,3.2z"/>
	<path class="st2" d="M51.5,15.4c2.4,3.4,3,16.6-4.4,21.8C55.1,31.9,56.8,24.1,51.5,15.4z"/>
</g>
</svg>
