<?xml version="1.0" encoding="utf-8"?>
<!-- Generator: Adobe Illustrator 22.1.0, SVG Export Plug-In . SVG Version: 6.00 Build 0)  -->
<svg version="1.1" id="Layer_1" xmlns="http://www.w3.org/2000/svg" xmlns:xlink="http://www.w3.org/1999/xlink" x="0px" y="0px"
	 viewBox="0 0 220 220" style="enable-background:new 0 0 220 220;" xml:space="preserve">
<style type="text/css">
	.st0{fill:#B1B0C1;}
	.st1{fill:#CBCCE2;}
	.st2{fill:#C1C2D3;}
	.st3{fill:#DEE6F4;}
	.st4{fill:#C1C8D6;}
	.st5{fill:#4F4A72;}
	.st6{fill:#695889;}
	.st7{fill:#604F7A;}
	.st8{fill:#664464;}
</style>
<g>
	<polygon class="st0" points="82.6,125.5 77.2,145.6 83,186.5 99.2,202.6 117.8,200.9 134.9,186.5 139.5,162.8 146.1,151.8 
		146.7,129.4 154.7,108.5 158.5,96.1 94.9,86.3 79.6,92.8 83.6,115.4 	"/>
	<path class="st1" d="M25.7,84.2l4.8-1l-1.4,3.6L42,89.2l17.6-2.1l2.6,2.1l46.7-9.4L144,57.9l8.1-8.5c0,0-26.4-15.6-31.3-17.2
		c-5-1.5-66.5,0.5-66.5,0.5S36,45.6,32.9,47S17,55.3,17,55.3l-1,13l3.9,5.3L25.7,84.2z"/>
	<polyline class="st1" points="51.9,78.3 66.5,90.4 73.7,110.1 81.9,129.1 100.1,140.4 100.9,117.1 89.8,97.3 93.7,86.3 108.8,76.5 
			"/>
	<g>
		<polygon class="st2" points="35.1,61.9 36.5,68.7 46.6,74.4 56,76.9 67,81.5 71.7,89 74.6,96.9 72.8,87.6 67.8,79.3 56.8,74.2 
			49.9,73.2 40.7,67.9 37.5,63.3 35.4,55.7 		"/>
		<path class="st2" d="M82.4,47.8l2.9,4.8V57c0,0-2.6,5.4-2.9,5.8S78,71.6,78,71.6l-1.7,11.5l2.3,11.2l5.9,18.7l-3.2-5.2l-3.8-14
			l-3.2-12.7l2.6-11.5l4.4-7.8l2.7-6.2l-1-4.1l-4.4-6.7L82.4,47.8z"/>
		<path class="st2" d="M57.5,51.2l-0.8,10.4l4,5.5l6.5,5.6L71,79l-2.4-5.5l-0.8-2.9l-5.4-3.9l-3.7-4.4c0,0-1.2-2.4-0.7-3.4
			s0.4-6.4,0.4-6.4L57.5,51.2z"/>
	</g>
	<polyline class="st3" points="159.4,148.1 153.2,162 143.2,169.7 131.8,173.5 135.5,165.3 137.1,156.8 145.6,150.2 156.1,142.5 	
		"/>
	<path class="st3" d="M80.3,95l4.9,0.2L83,98.3l11.8,5.6l17.5,2.6l1.9,2.6l47.5,3L197.3,96l13.9-9.5c0,0-4.9-14.4-9.3-17.2
		S121,52.7,121,52.7s-20.8,7.7-24.1,8.2c-3.3,0.5-17.5,4-17.5,4L75,77.2l2.4,6.1L80.3,95z"/>
	<polyline class="st3" points="107.1,96.1 118.1,111.5 119.9,132.5 122.9,152.9 137.2,153 144.4,146.2 138.8,124.2 145.4,114.6 
		162.5,109.1 	"/>
	<polygon class="st4" points="105.9,124.6 107.1,130.6 104.7,146 102.7,157.6 105.6,163 116,152.3 119.8,140.3 123.7,127 
		128.1,122.7 122.3,115.4 108.8,116 	"/>
	<path class="st4" d="M60.7,115.4l0.8,1.4l2.5,2.6l4.3,8.8l6.7,16.2l1,20.7l5.8,12.8l3.3-9.6c0,0-1-11.8-1.5-12.6
		s-5.2-15.3-5.2-15.3L75.7,129l-2.8-10.7l2.1-1.4l1.2-4.9l-6.7-6.6L63,108L60.7,115.4z"/>
	<path class="st3" d="M94.8,140l0.9,6.5l1.2,16.4c0,0,5,12.4,5.5,12.6s6.4,5.9,6.4,5.9l3.5-3.2l-2.3-8.1l-3.5-12.7l-0.4-14.5
		l2.7-6.7l-3.2-3.2l-5.6-0.9L94.8,140z"/>
	<polygon class="st4" points="118.9,151.1 117.7,161.4 112.5,171.7 104.3,180.4 102.6,186.5 110.5,184.1 116.6,177.8 122.3,172.3 
		128.4,161.6 131.2,152.2 125.9,147.7 	"/>
	<g>
		<polygon class="st1" points="94.8,77.2 94.8,84.2 103.5,91.8 112.3,96.1 122.1,102.8 125.2,111.1 126.6,119.4 126.6,109.9 
			123.3,100.8 113.6,93.6 107.1,91.3 99.1,84.2 96.8,79.1 96.3,71.2 		"/>
		<polygon class="st1" points="179.6,80.8 178.7,85.3 174.7,89.9 168.1,92.7 157.4,96.9 148.4,101 137.8,109.1 134.8,117.7 
			134.8,111.1 138.7,104.1 143.1,99.9 154,95.3 161.1,93 169.6,89.2 174.2,87.1 177.2,84.2 		"/>
		<path class="st1" d="M143.9,72.8l1.9,5.3l-1,4.3c0,0-3.7,4.8-4,5.1c-0.4,0.4-6.1,7.7-6.1,7.7l-3.9,11v11.4l2.1,19.5l-2.1-5.8
			l-0.9-14.5l-0.6-13.1l4.9-10.8l5.9-6.8l3.8-5.5l-0.1-4.2l-2.9-7.4L143.9,72.8z"/>
		<path class="st1" d="M118.8,71.2l-2.8,10l2.8,6.2l5.3,6.8l2.5,6.9l-1.2-5.9l-0.3-3l-4.5-4.9l-2.8-5c0,0-0.7-2.6,0-3.4
			c0.7-0.9,1.6-6.2,1.6-6.2L118.8,71.2z"/>
	</g>
	<polygon class="st5" points="151.2,50.6 154.5,45.7 149.2,38 122.9,26.2 94.1,23.1 60,26.7 38.9,31.9 23.1,43.2 14.1,56.8 
		12.7,68.5 20.2,78.1 25.7,84.2 24.7,80.8 21.3,73.6 19.5,66.6 23.4,57.6 36.9,49.1 65.8,42.9 90.7,39.3 117.1,40.7 132.5,44.5 
		145.2,46.3 148.7,48.6 	"/>
	<polygon class="st6" points="75,77.4 75,69.9 78.7,63 104.7,50.7 133.4,47 167.6,49.7 188.8,54.5 204.9,65.4 214.1,78.8 
		212.4,87.7 201.8,94.8 191.7,98.6 194,95.9 199.8,89.4 205.6,86 204.9,79.8 191.2,71.6 162.2,66.1 137.2,63 110.9,65.1 97.5,67 
		82.8,71.2 79.4,73.6 	"/>
	<polygon class="st7" points="131.8,146.1 149.9,136.3 164,136.3 174.8,146.1 177.1,153.4 168.6,155.4 162,152.6 161.4,148.9 
		156.8,151.4 149.4,149.8 144.3,145.9 138.6,147.5 	"/>
	<polygon class="st5" points="102.7,121.2 110.6,111.2 119.3,109.9 129.3,117.1 129.3,125.5 122.7,121 118.6,117.7 114.5,120.1 
		108.8,122.5 107.1,125.5 102.7,125.5 	"/>
	<polygon class="st5" points="61.9,119.4 59.8,112.2 61.9,105.8 71,102.8 75,105.8 79.1,111.1 75,117.1 75,112.2 71.6,108.4 
		65.7,109.9 63.2,111.1 	"/>
	<polygon class="st8" points="114.9,151 121,146.1 127.4,146.1 133,151 133,156.6 128.7,160.5 130.2,156.6 127.9,152 123.8,150.5 
		118.4,153.3 114.9,156.6 	"/>
	<polygon class="st6" points="94.1,142 93.1,135.3 97.5,130.6 101.5,130.6 108.1,133.1 109.8,138.7 107.1,135.3 101.8,134.3 
		98.2,135.3 95.3,139.6 	"/>
</g>
</svg>
