<svg id="Layer_1" xmlns="http://www.w3.org/2000/svg" viewBox="0 0 220 240"><style>.st1{fill:#cbcce2}.st2{fill:#c1c2d3}.st3{fill:#dee6f4}.st4{fill:#c1c8d6}.st5{fill:#4f4a72}.st6{fill:#695889}</style><path fill="#b1b0c1" d="M82.6 125.5l-5.4 20.1 5.8 40.9 16.2 16.1 18.6-1.7 17.1-14.4 4.6-23.7 6.6-11 .6-22.4 8-20.9 3.8-12.4-63.6-9.8-15.3 6.5 4 22.6z"/><path class="st1" d="M25.7 84.2l4.8-1-1.4 3.6L42 89.2l17.6-2.1 2.6 2.1 46.7-9.4L144 57.9l8.1-8.5s-26.4-15.6-31.3-17.2c-5-1.5-66.5.5-66.5.5S36 45.6 32.9 47 17 55.3 17 55.3l-1 13 3.9 5.3 5.8 10.6z"/><path class="st1" d="M51.9 78.3l14.6 12.1 7.2 19.7 8.2 19 18.2 11.3.8-23.3-11.1-19.8 3.9-11 15.1-9.8"/><path class="st2" d="M35.1 61.9l1.4 6.8 10.1 5.7 9.4 2.5 11 4.6 4.7 7.5 2.9 7.9-1.8-9.3-5-8.3-11-5.1-6.9-1-9.2-5.3-3.2-4.6-2.1-7.6zM82.4 47.8l2.9 4.8V57s-2.6 5.4-2.9 5.8-4.4 8.8-4.4 8.8l-1.7 11.5 2.3 11.2 5.9 18.7-3.2-5.2-3.8-14-3.2-12.7 2.6-11.5 4.4-7.8 2.7-6.2-1-4.1-4.4-6.7 3.8 3zM57.5 51.2l-.8 10.4 4 5.5 6.5 5.6L71 79l-2.4-5.5-.8-2.9-5.4-3.9-3.7-4.4s-1.2-2.4-.7-3.4.4-6.4.4-6.4l-.9-1.3z"/><path class="st3" d="M159.4 148.1l-6.2 13.9-10 7.7-11.4 3.8 3.7-8.2 1.6-8.5 8.5-6.6 10.5-7.7M80.3 95l4.9.2-2.2 3.1 11.8 5.6 17.5 2.6 1.9 2.6 47.5 3L197.3 96l13.9-9.5s-4.9-14.4-9.3-17.2S121 52.7 121 52.7s-20.8 7.7-24.1 8.2c-3.3.5-17.5 4-17.5 4L75 77.2l2.4 6.1L80.3 95z"/><path class="st3" d="M107.1 96.1l11 15.4 1.8 21 3 20.4 14.3.1 7.2-6.8-5.6-22 6.6-9.6 17.1-5.5"/><path class="st4" d="M105.9 124.6l1.2 6-2.4 15.4-2 11.6 2.9 5.4 10.4-10.7 3.8-12 3.9-13.3 4.4-4.3-5.8-7.3-13.5.6zM60.7 115.4l.8 1.4 2.5 2.6 4.3 8.8 6.7 16.2 1 20.7 5.8 12.8 3.3-9.6s-1-11.8-1.5-12.6-5.2-15.3-5.2-15.3L75.7 129l-2.8-10.7 2.1-1.4 1.2-4.9-6.7-6.6L63 108l-2.3 7.4z"/><path class="st3" d="M94.8 140l.9 6.5 1.2 16.4s5 12.4 5.5 12.6 6.4 5.9 6.4 5.9l3.5-3.2-2.3-8.1-3.5-12.7-.4-14.5 2.7-6.7-3.2-3.2-5.6-.9-5.2 7.9z"/><path class="st4" d="M118.9 151.1l-1.2 10.3-5.2 10.3-8.2 8.7-1.7 6.1 7.9-2.4 6.1-6.3 5.7-5.5 6.1-10.7 2.8-9.4-5.3-4.5z"/><path class="st1" d="M94.8 77.2v7l8.7 7.6 8.8 4.3 9.8 6.7 3.1 8.3 1.4 8.3v-9.5l-3.3-9.1-9.7-7.2-6.5-2.3-8-7.1-2.3-5.1-.5-7.9zM179.6 80.8l-.9 4.5-4 4.6-6.6 2.8-10.7 4.2-9 4.1-10.6 8.1-3 8.6v-6.6l3.9-7 4.4-4.2 10.9-4.6 7.1-2.3 8.5-3.8 4.6-2.1 3-2.9z"/><path class="st1" d="M143.9 72.8l1.9 5.3-1 4.3s-3.7 4.8-4 5.1c-.4.4-6.1 7.7-6.1 7.7l-3.9 11v11.4l2.1 19.5-2.1-5.8-.9-14.5-.6-13.1 4.9-10.8 5.9-6.8 3.8-5.5-.1-4.2-2.9-7.4 3 3.8zM118.8 71.2l-2.8 10 2.8 6.2 5.3 6.8 2.5 6.9-1.2-5.9-.3-3-4.5-4.9-2.8-5s-.7-2.6 0-3.4c.7-.9 1.6-6.2 1.6-6.2l-.6-1.5z"/><path class="st5" d="M151.2 50.6l3.3-4.9-5.3-7.7-26.3-11.8-28.8-3.1L60 26.7l-21.1 5.2-15.8 11.3-9 13.6-1.4 11.7 7.5 9.6 5.5 6.1-1-3.4-3.4-7.2-1.8-7 3.9-9 13.5-8.5 28.9-6.2 24.9-3.6 26.4 1.4 15.4 3.8 12.7 1.8 3.5 2.3z"/><path class="st6" d="M75 77.4v-7.5l3.7-6.9 26-12.3 28.7-3.7 34.2 2.7 21.2 4.8 16.1 10.9 9.2 13.4-1.7 8.9-10.6 7.1-10.1 3.8 2.3-2.7 5.8-6.5 5.8-3.4-.7-6.2-13.7-8.2-29-5.5-25-3.1-26.3 2.1L97.5 67l-14.7 4.2-3.4 2.4z"/><path fill="#604f7a" d="M131.8 146.1l18.1-9.8H164l10.8 9.8 2.3 7.3-8.5 2-6.6-2.8-.6-3.7-4.6 2.5-7.4-1.6-5.1-3.9-5.7 1.6z"/><path class="st5" d="M102.7 121.2l7.9-10 8.7-1.3 10 7.2v8.4l-6.6-4.5-4.1-3.3-4.1 2.4-5.7 2.4-1.7 3h-4.4zM61.9 119.4l-2.1-7.2 2.1-6.4 9.1-3 4 3 4.1 5.3-4.1 6v-4.9l-3.4-3.8-5.9 1.5-2.5 1.2z"/><path fill="#664464" d="M114.9 151l6.1-4.9h6.4l5.6 4.9v5.6l-4.3 3.9 1.5-3.9-2.3-4.6-4.1-1.5-5.4 2.8-3.5 3.3z"/><path class="st6" d="M94.1 142l-1-6.7 4.4-4.7h4l6.6 2.5 1.7 5.6-2.7-3.4-5.3-1-3.6 1-2.9 4.3z"/></svg>