<?xml version="1.0" encoding="utf-8"?>
<!-- Generator: Adobe Illustrator 21.0.0, SVG Export Plug-In . SVG Version: 6.00 Build 0)  -->
<svg version="1.1" id="Layer_1" xmlns="http://www.w3.org/2000/svg" xmlns:xlink="http://www.w3.org/1999/xlink" x="0px" y="0px"
	 viewBox="0 0 220 220" style="enable-background:new 0 0 220 220;" xml:space="preserve">
<style type="text/css">
	.st0{fill:#FFCF91;}
	.st1{clip-path:url(#SVGID_2_);fill:#FFCF91;}
	.st2{clip-path:url(#SVGID_2_);fill:#FFB380;}
	.st3{fill:#FFB380;}
	.st4{clip-path:url(#SVGID_4_);fill:#FF704D;}
	.st5{clip-path:url(#SVGID_4_);fill:#F2583D;}
	.st6{fill:#E45425;}
	.st7{fill:#F0A12F;}
	.st8{fill:#FFE8A3;}
	.st9{clip-path:url(#SVGID_6_);fill:#FFE8A3;}
	.st10{clip-path:url(#SVGID_6_);fill:#FFD397;}
	.st11{fill:#FFD397;}
	.st12{clip-path:url(#SVGID_8_);fill:#FF8058;}
	.st13{clip-path:url(#SVGID_8_);fill:#FF6F4D;}
	.st14{fill:#F5662D;}
	.st15{fill:#FFC138;}
	.st16{fill:#FFC495;}
	.st17{clip-path:url(#SVGID_10_);fill:#FFC495;}
	.st18{clip-path:url(#SVGID_10_);fill:#FFB08D;}
	.st19{fill:#FFB08D;}
	.st20{clip-path:url(#SVGID_12_);fill:#FF6F54;}
	.st21{clip-path:url(#SVGID_12_);fill:#FD634B;}
	.st22{fill:#E25228;}
	.st23{fill:#F29639;}
</style>
<g>
	<g>
		<polygon class="st0" points="15.3,136.5 29,131.5 47.1,119.5 68.4,102.5 82.4,90.4 96.1,73.3 98.2,70.4 91.2,63.8 63.6,69.6 
			38,82.4 23.5,102.9 11.9,127.9 		"/>
		<g>
			<defs>
				<polygon id="SVGID_1_" points="69.6,131.2 80.4,146.3 94.2,163.6 96,169.6 104.7,182.4 107.5,183.9 111.5,182.1 113.2,178.3 
					117.9,176.2 119.4,173.1 125.5,170.2 126.9,167.6 128.3,163.8 117.5,151.7 111.4,149.6 96.1,131.8 84.4,117 				"/>
			</defs>
			<clipPath id="SVGID_2_">
				<use xlink:href="#SVGID_1_"  style="overflow:visible;"/>
			</clipPath>
			<polygon class="st1" points="69.6,131.2 80.4,146.3 94.2,163.6 96,169.6 104.7,182.4 107.5,183.9 111.5,182.1 113.2,178.3 
				117.9,176.2 119.4,173.1 125.5,170.2 126.9,167.6 128.3,163.8 117.5,151.7 111.4,149.6 96.1,131.8 84.4,117 			"/>
			<polygon class="st2" points="80.4,132.8 83,127.7 88.8,126.8 109.8,153.1 114.6,154.9 121.9,161.2 125.8,166 125.4,171 
				132.9,165.1 121.3,147.5 102.7,135.6 90,119.7 83.1,118 71.3,133.9 71.5,136.1 			"/>
		</g>
		<polygon class="st3" points="37.8,91.7 36.5,92.4 21.9,132.5 38,93 		"/>
		<polygon class="st3" points="43.7,95 42.8,96.1 49.6,116.2 44.5,96 		"/>
		<polygon class="st3" points="40.2,95.4 39.1,96.4 41.7,121.1 40.7,96.6 		"/>
		<polygon class="st3" points="38.9,93.5 37.6,94.2 33.4,128 39.2,94.8 		"/>
		<polygon class="st3" points="50.4,79.8 51.4,78.7 93.7,73.4 51.6,80.4 		"/>
		<polygon class="st3" points="52.3,86.3 53.6,85.7 71.7,96.8 53.1,87.3 		"/>
		<polygon class="st3" points="53.5,83 54.7,82.1 78.2,90.2 54.5,83.8 		"/>
		<polygon class="st3" points="51.9,81.3 52.9,80.2 86.8,83.6 53.1,81.9 		"/>
		<g>
			<defs>
				<polygon id="SVGID_3_" points="34.6,94 46.1,104.7 55.9,115 60.3,127.1 63.5,139.1 69.5,138.1 71.2,135.2 80,132 81.8,126 
					87.8,125.4 88.6,120.9 92.4,117.7 90.5,114.5 79.7,108.1 70.4,102.9 51.8,76.8 				"/>
			</defs>
			<clipPath id="SVGID_4_">
				<use xlink:href="#SVGID_3_"  style="overflow:visible;"/>
			</clipPath>
			<polygon class="st4" points="34.6,94 46.1,104.7 55.9,115 60.3,127.1 63.5,139.1 69.5,138.1 71.2,135.2 80,132 81.8,126 
				87.8,125.4 88.6,120.9 92.4,117.7 90.5,114.5 79.7,108.1 70.4,102.9 51.8,76.8 			"/>
			<polygon class="st5" points="48.3,83.1 35.3,95.3 36.5,97.5 46.9,87.1 50.3,85.5 61.1,99.1 65.9,106.5 79.8,117.2 88.9,125.9 
				96,122.7 96.7,105.8 76.5,97 60,76.2 			"/>
		</g>
		<polygon class="st6" points="15.3,136.5 8.8,131.5 8.3,121.8 10.9,94.2 27.3,70.2 48,56.9 71.4,53.2 85.1,53.4 97.7,58.5 
			98.2,70.4 87,69.1 62.7,76.3 46.2,86.2 28.6,104.7 20.7,122.5 		"/>
		<g>
			<polygon class="st7" points="29.6,68.8 26.4,70.1 25.8,73.3 27.7,74.2 30.4,71.3 			"/>
			<polygon class="st7" points="70.3,55.7 66.9,53.7 71,52.5 74.3,54.4 			"/>
			<polygon class="st7" points="50.4,68.1 49.7,65.6 51.8,64.7 53.8,66.2 52.6,68.5 			"/>
			<polygon class="st7" points="13.3,94.6 11,93.8 10.2,97.1 12.7,98.9 14.6,97.3 			"/>
			<polygon class="st7" points="86.2,55.3 85.5,53.4 87.3,53.3 88.6,54.6 			"/>
			<polygon class="st7" points="75.8,64.1 77.1,66.3 78.9,65.8 77.9,64.5 			"/>
			<polygon class="st7" points="30.7,92.5 30.9,95.7 34.6,95.9 34.6,92.7 			"/>
			<polygon class="st7" points="8.3,121 7.2,123.4 9.2,125.5 9.7,123.3 			"/>
			<polygon class="st7" points="18.9,105.8 19.8,107.7 21.7,107.2 21.8,105.2 20.3,104.1 			"/>
			<polygon class="st7" points="46.8,79.5 47.2,82.6 49.9,82.2 51,79.6 48.5,79 			"/>
			<polygon class="st7" points="35.6,77.4 35.8,79.4 38.4,79.1 37.1,77.6 			"/>
			<polygon class="st7" points="21.5,117.3 20.4,121.6 23,120.9 23.6,118.7 			"/>
			<polygon class="st7" points="98.8,62.9 97.2,61.9 96.2,63.2 97.7,65.5 98.8,65.6 			"/>
			<polygon class="st7" points="13.5,130.7 15,132.6 15.7,132 15.6,130.1 			"/>
		</g>
	</g>
	<g>
		<polygon class="st8" points="61.8,52.7 75.8,64.5 100.3,76.7 132.3,89.3 154.3,97 181.7,101.3 186.3,101.8 189,90 165.3,63.4 
			135.2,43.4 103.7,40.5 68.9,43.5 		"/>
		<g>
			<defs>
				<polygon id="SVGID_5_" points="101.7,108.7 92,130 81.7,156 76.3,161.7 67.7,179.4 67.8,183.3 72.3,186.6 77.6,186.1 
					82.8,189.9 87.1,189.6 94.2,194.4 97.8,194.3 102.9,193.5 109.4,174.1 107.8,166.1 117.7,138.1 126.5,115.9 				"/>
			</defs>
			<clipPath id="SVGID_6_">
				<use xlink:href="#SVGID_5_"  style="overflow:visible;"/>
			</clipPath>
			<polygon class="st9" points="101.7,108.7 92,130 81.7,156 76.3,161.7 67.7,179.4 67.8,183.3 72.3,186.6 77.6,186.1 82.8,189.9 
				87.1,189.6 94.2,194.4 97.8,194.3 102.9,193.5 109.4,174.1 107.8,166.1 117.7,138.1 126.5,115.9 			"/>
			<polygon class="st10" points="106.7,121.5 113.9,121.2 118.5,126.9 103,166.5 104,172.9 101.7,184.9 98.9,192.2 93.2,194.9 
				104.4,199.3 116.3,175.5 117.6,147.7 127.1,123.8 124.6,115.2 99.8,112.3 97.5,113.9 			"/>
		</g>
		<polygon class="st11" points="124.8,49.1 123.3,48.1 70.2,57.3 123.6,50.2 		"/>
		<polygon class="st11" points="125,57.5 123.2,57.4 105.4,77.4 124.4,59.1 		"/>
		<polygon class="st11" points="122.4,54 120.6,53.4 95.1,71.8 121.4,55.4 		"/>
		<polygon class="st11" points="123.6,51.4 122.1,50.4 82.4,67.1 122.3,52.5 		"/>
		<polygon class="st11" points="145.8,55.4 147.6,55.8 180.1,98.7 146,57.1 		"/>
		<polygon class="st11" points="139.9,61.5 141.4,62.6 140.6,89.4 139.3,63.1 		"/>
		<polygon class="st11" points="144.3,60.7 146,61.5 152,92.4 144,62.4 		"/>
		<polygon class="st11" points="145.1,58 146.9,58.3 164.6,97.6 145.3,59.7 		"/>
		<g>
			<defs>
				<polygon id="SVGID_7_" points="120.4,47.1 115.9,66.4 110.8,83.6 100.3,96 89.1,107 94,113 98.3,113 107.3,120.6 115,118.8 
					119.5,124.9 124.9,123 130.7,125.2 133.1,121.1 133.2,105.2 133.1,91.9 150,55 				"/>
			</defs>
			<clipPath id="SVGID_8_">
				<use xlink:href="#SVGID_7_"  style="overflow:visible;"/>
			</clipPath>
			<polygon class="st12" points="120.4,47.1 115.9,66.4 110.8,83.6 100.3,96 89.1,107 94,113 98.3,113 107.3,120.6 115,118.8 
				119.5,124.9 124.9,123 130.7,125.2 133.1,121.1 133.2,105.2 133.1,91.9 150,55 			"/>
			<polygon class="st13" points="140.9,55.2 119.3,48.6 117.7,51.4 135.7,56.2 139.5,58.8 131.4,79.2 126.4,89.1 123.4,111.1 
				119.6,126.5 127.6,132.3 146.5,122.4 143.5,94.8 155.8,63.6 			"/>
		</g>
		<polygon class="st14" points="61.8,52.7 63.1,42.4 73.4,35.7 105.2,21.2 141.9,24 169.4,38.3 188.2,61.6 196.5,76.8 198.9,93.7 
			186.3,101.8 180.6,88.7 157.4,66.6 136.2,54.8 104.8,47.2 80.5,49.7 		"/>
		<g>
			<polygon class="st15" points="144.8,25.7 141.3,23 137.4,24.4 137.7,27 142.5,28.1 			"/>
			<polygon class="st15" points="184.7,62 184.8,57.1 188.7,60.8 188.6,65.6 			"/>
			<polygon class="st15" points="158.7,48 160.9,45.7 163.3,47.5 162.9,50.5 159.6,50.7 			"/>
			<polygon class="st15" points="106.3,24.1 105.7,21 101.6,22.3 101.2,26.1 104.2,27.2 			"/>
			<polygon class="st15" points="195.1,79.2 196.9,77.2 198,79.1 197.4,81.4 			"/>
			<polygon class="st15" points="179.1,73.3 177.4,76.1 179.1,77.8 179.8,75.9 			"/>
			<polygon class="st15" points="119.6,41.7 116.2,44 118.4,48.2 121.8,46.2 			"/>
			<polygon class="st15" points="74.3,35.2 71,35.5 70,39.1 72.6,38.1 			"/>
			<polygon class="st15" points="97.6,37.3 96,39.4 97.8,41.2 100,40.1 100.3,37.7 			"/>
			<polygon class="st15" points="143.9,51.3 140.8,53.6 142.9,56.3 146.4,55.9 145.6,52.8 			"/>
			<polygon class="st15" points="139.2,37.7 137.1,39.2 139,41.8 139.9,39.5 			"/>
			<polygon class="st15" points="86.7,47.4 81.2,48.8 83.7,51.2 86.4,50.5 			"/>
			<polygon class="st15" points="194.8,97.7 194.9,95.3 192.7,95.1 191.2,98.1 191.8,99.5 			"/>
			<polygon class="st15" points="66.9,47 65.8,49.8 66.9,50.2 68.9,48.9 			"/>
		</g>
	</g>
	<g>
		<polygon class="st16" points="153.2,116.7 157.5,125.5 166.9,136.7 179.8,149.6 189,158.1 201.4,166 203.5,167.2 207.4,162 
			201.5,144 191,127.8 176.2,119.7 158.6,113.7 		"/>
		<g>
			<defs>
				<polygon id="SVGID_9_" points="160.7,152.6 151.5,160.9 140.9,171.5 137,173.1 129.1,179.9 128.3,181.8 129.8,184.4 
					132.5,185.3 134.2,188.3 136.4,189 138.8,192.9 140.6,193.6 143.3,194.3 150.6,186.2 151.5,181.9 162.3,170.4 171.3,161.4 				
					"/>
			</defs>
			<clipPath id="SVGID_10_">
				<use xlink:href="#SVGID_9_"  style="overflow:visible;"/>
			</clipPath>
			<polygon class="st17" points="160.7,152.6 151.5,160.9 140.9,171.5 137,173.1 129.1,179.9 128.3,181.8 129.8,184.4 132.5,185.3 
				134.2,188.3 136.4,189 138.8,192.9 140.6,193.6 143.3,194.3 150.6,186.2 151.5,181.9 162.3,170.4 171.3,161.4 			"/>
			<polygon class="st18" points="160.5,159.9 164.1,161.3 165.1,165.1 149.1,181.1 148.2,184.5 144.6,189.8 141.6,192.8 
				138.2,192.9 142.8,197.4 153.6,188.4 160.2,175.1 169.9,165.4 170.5,160.6 159,153.9 157.6,154.2 			"/>
		</g>
		<polygon class="st19" points="184.7,128.4 184.2,127.5 156.3,120.8 183.9,128.6 		"/>
		<polygon class="st19" points="183,132.5 182.2,132.1 169.2,138.1 182.4,133.2 		"/>
		<polygon class="st19" points="182.5,130.2 181.7,129.6 165.4,133.2 181.7,130.7 		"/>
		<polygon class="st19" points="183.6,129.3 183.1,128.4 160.2,128.1 182.8,129.5 		"/>
		<polygon class="st19" points="193.6,135.9 194.5,136.5 201.2,164.4 193.4,136.8 		"/>
		<polygon class="st19" points="189.5,137.6 189.9,138.5 183.9,151.4 188.8,138.3 		"/>
		<polygon class="st19" points="191.8,138.2 192.4,138.9 188.8,155.3 191.3,139 		"/>
		<polygon class="st19" points="192.7,137.1 193.6,137.6 193.8,160.5 192.5,137.9 		"/>
		<g>
			<defs>
				<polygon id="SVGID_11_" points="183,126.4 176.7,134.9 170.5,142.2 162.8,146.1 155,149.1 156.1,153.1 158.2,154 161,159.6 
					165.1,160.4 166,164.3 169,164.5 171.4,166.8 173.4,165.3 176.9,157.6 179.7,151 195.8,136.6 				"/>
			</defs>
			<clipPath id="SVGID_12_">
				<use xlink:href="#SVGID_11_"  style="overflow:visible;"/>
			</clipPath>
			<polygon class="st20" points="183,126.4 176.7,134.9 170.5,142.2 162.8,146.1 155,149.1 156.1,153.1 158.2,154 161,159.6 
				165.1,160.4 166,164.3 169,164.5 171.4,166.8 173.4,165.3 176.9,157.6 179.7,151 195.8,136.6 			"/>
			<polygon class="st21" points="191.3,134.8 182.1,127 180.8,128 188.5,134.2 189.8,136.2 181.6,144.5 177,148.3 170.8,158.3 
				165.7,165.1 168.4,169.6 179.7,168.8 184.1,154.7 196.8,142.1 			"/>
		</g>
		<polygon class="st22" points="153.2,116.7 156,112 162.5,110.9 181.1,110.6 198.4,119.7 208.8,132.6 213,148 213.9,157.2 
			211.4,165.9 203.5,167.2 203.5,159.6 196.9,143.9 189.1,133.6 175.4,123.2 162.9,119.2 		"/>
		<g>
			<polygon class="st23" points="199.4,121.2 198.4,119.1 196.1,119 195.7,120.3 197.8,121.9 			"/>
			<polygon class="st23" points="211.2,147.4 212.3,145 213.5,147.7 212.4,150 			"/>
			<polygon class="st23" points="201.5,135 203.1,134.4 203.9,135.8 203,137.2 201.4,136.6 			"/>
			<polygon class="st23" points="181,112.2 181.4,110.6 179.1,110.3 178.1,112.1 179.3,113.3 			"/>
			<polygon class="st23" points="212.7,158.1 214,157.5 214.1,158.6 213.3,159.6 			"/>
			<polygon class="st23" points="206.1,151.7 204.7,152.7 205.1,153.9 205.9,153.2 			"/>
			<polygon class="st23" points="183.7,123.7 181.6,124.1 181.8,126.6 183.9,126.3 			"/>
			<polygon class="st23" points="163,110.8 161.3,110.3 160.1,111.8 161.5,111.9 			"/>
			<polygon class="st23" points="173.9,116.8 172.7,117.5 173.2,118.8 174.5,118.7 175.1,117.6 			"/>
			<polygon class="st23" points="193.6,133.5 191.6,134 192,135.8 193.8,136.3 194.1,134.6 			"/>
			<polygon class="st23" points="194.2,125.8 192.8,126.1 193.2,127.8 194.2,126.9 			"/>
			<polygon class="st23" points="166.4,119.4 163.5,119 164.1,120.7 165.6,120.9 			"/>
			<polygon class="st23" points="208.6,167 209.1,165.9 208.1,165.3 206.7,166.5 206.7,167.2 			"/>
			<polygon class="st23" points="156.9,115 155.7,116.2 156.2,116.6 157.4,116.4 			"/>
		</g>
	</g>
</g>
</svg>
