<?xml version="1.0" encoding="utf-8"?>
<!-- Generator: Adobe Illustrator 21.0.0, SVG Export Plug-In . SVG Version: 6.00 Build 0)  -->
<svg version="1.1" id="Layer_1" xmlns="http://www.w3.org/2000/svg" xmlns:xlink="http://www.w3.org/1999/xlink" x="0px" y="0px"
	 viewBox="0 0 80 80" style="enable-background:new 0 0 80 80;" xml:space="preserve">
<style type="text/css">
	.st0{clip-path:url(#SVGID_2_);fill:#CC9A69;}
	.st1{clip-path:url(#SVGID_2_);fill:#B5885E;}
	.st2{clip-path:url(#SVGID_4_);fill:#DDB552;}
	.st3{clip-path:url(#SVGID_4_);fill:#FFD45C;}
	.st4{clip-path:url(#SVGID_6_);fill:#DDB552;}
	.st5{clip-path:url(#SVGID_6_);fill:#FFD45C;}
	.st6{clip-path:url(#SVGID_8_);fill:#DDB552;}
	.st7{clip-path:url(#SVGID_8_);fill:#FFD45C;}
	.st8{clip-path:url(#SVGID_10_);fill:#DDB552;}
	.st9{clip-path:url(#SVGID_10_);fill:#FFD45C;}
</style>
<g>
	<defs>
		<path id="SVGID_1_" d="M79.1,32.1c-0.7-2.5-4.4-1-7.5,0.7c-1,0.6-5.6,3.3-6.7,5.2s2.2,0.9-3.8,4.6c-6.4,3.9-14.7,4.3-17.3,4.8
			C43.4,47,43,46.5,44,46.2c1.7-0.5,8.8-0.6,14.2-3.9s3.9-5.6,1.7-6.8s-8.6,1.5-11.1,2.2s-14.3,0.4-19.3,1.7c-5,1.4-8,4.9-11.1,8.5
			c-6.1,7.1-18,9.5-18.2,12.2s13.6,13.3,16.1,12.6c2.5-0.7,11.3-12.5,18.8-14.6s20.1-2.9,24.6-6C83.6,36.2,79.8,34.6,79.1,32.1z"/>
	</defs>
	<clipPath id="SVGID_2_">
		<use xlink:href="#SVGID_1_"  style="overflow:visible;"/>
	</clipPath>
	<path class="st0" d="M79.1,32.1c-0.7-2.5-4.4-1-7.5,0.7c-1,0.6-5.6,3.3-6.7,5.2s2.2,0.9-3.8,4.6c-6.4,3.9-14.7,4.3-17.3,4.8
		C43.4,47,43,46.5,44,46.2c1.7-0.5,8.8-0.6,14.2-3.9s3.9-5.6,1.7-6.8s-8.6,1.5-11.1,2.2s-14.3,0.4-19.3,1.7c-5,1.4-8,4.9-11.1,8.5
		c-6.1,7.1-18,9.5-18.2,12.2s13.6,13.3,16.1,12.6c2.5-0.7,11.3-12.5,18.8-14.6s20.1-2.9,24.6-6C83.6,36.2,79.8,34.6,79.1,32.1z"/>
	<path class="st1" d="M79.7,32.8C79,34.6,66.2,48.3,56.5,51.3s-26.3,4.7-30,9.5S13.9,71.8,13.2,73.4c-0.8,1.6,7.3,1.5,7.6,1.5
		s24.5-10.4,25.7-11.2c1.2-0.8,23-9.7,24.4-10.3c1.4-0.6,11.3-17.4,11.3-17.4L79.7,32.8z"/>
</g>
<g>
	<defs>
		<ellipse id="SVGID_3_" transform="matrix(0.9939 -0.1099 0.1099 0.9939 -2.9936 6.4678)" cx="57.2" cy="30.4" rx="6.5" ry="3.7"/>
	</defs>
	<clipPath id="SVGID_4_">
		<use xlink:href="#SVGID_3_"  style="overflow:visible;"/>
	</clipPath>
	<ellipse transform="matrix(0.9939 -0.1099 0.1099 0.9939 -2.9936 6.4678)" class="st2" cx="57.2" cy="30.4" rx="6.5" ry="3.7"/>
	<ellipse transform="matrix(0.9939 -0.1099 0.1099 0.9939 -2.8755 6.4612)" class="st3" cx="57.2" cy="29.3" rx="6.5" ry="3.7"/>
</g>
<g>
	<defs>
		<ellipse id="SVGID_5_" transform="matrix(0.1553 -0.9879 0.9879 0.1553 32.996 88.4344)" cx="68.2" cy="24.9" rx="3.7" ry="6.5"/>
	</defs>
	<clipPath id="SVGID_6_">
		<use xlink:href="#SVGID_5_"  style="overflow:visible;"/>
	</clipPath>
	<ellipse transform="matrix(0.1553 -0.9879 0.9879 0.1553 32.996 88.4344)" class="st4" cx="68.2" cy="24.9" rx="3.7" ry="6.5"/>
	<ellipse transform="matrix(0.1553 -0.9879 0.9879 0.1553 34.2597 87.8373)" class="st5" cx="68.5" cy="23.9" rx="3.7" ry="6.5"/>
</g>
<g>
	<defs>
		
			<ellipse id="SVGID_7_" transform="matrix(5.325873e-02 -0.9986 0.9986 5.325873e-02 8.0808 71.2503)" cx="41.6" cy="31.4" rx="3.7" ry="6.5"/>
	</defs>
	<clipPath id="SVGID_8_">
		<use xlink:href="#SVGID_7_"  style="overflow:visible;"/>
	</clipPath>
	
		<ellipse transform="matrix(5.325873e-02 -0.9986 0.9986 5.325873e-02 8.0808 71.2503)" class="st6" cx="41.6" cy="31.4" rx="3.7" ry="6.5"/>
	
		<ellipse transform="matrix(5.325873e-02 -0.9986 0.9986 5.325873e-02 9.3059 70.4204)" class="st7" cx="41.8" cy="30.3" rx="3.7" ry="6.5"/>
</g>
<g>
	<defs>
		
			<ellipse id="SVGID_9_" transform="matrix(0.9571 -0.2897 0.2897 0.9571 -4.2982 15.4919)" cx="50.2" cy="22.3" rx="6.5" ry="3.7"/>
	</defs>
	<clipPath id="SVGID_10_">
		<use xlink:href="#SVGID_9_"  style="overflow:visible;"/>
	</clipPath>
	<ellipse transform="matrix(0.9571 -0.2897 0.2897 0.9571 -4.2982 15.4919)" class="st8" cx="50.2" cy="22.3" rx="6.5" ry="3.7"/>
	<ellipse transform="matrix(0.9571 -0.2897 0.2897 0.9571 -4.0003 15.3896)" class="st9" cx="50" cy="21.2" rx="6.5" ry="3.7"/>
</g>
</svg>
