<svg id="Layer_1" xmlns="http://www.w3.org/2000/svg" xmlns:xlink="http://www.w3.org/1999/xlink" viewBox="0 0 220 240"><style>.st4{fill:#4d4d4d}.st16{fill:#0a0a0a}</style><path d="M162.1 95.1l4.2-10 6.5-6.4h7.1l3.6 2.8 5 12.2 7.1 15.7 5 36.4-9.2-28.5-8.6-9.3-.7-5.8-7.2-12.8-5.7 5.7-2.9 4.3h-2.8zM157.8 86.5l-4.3-10-6.4-6.4h-7.2l-3.6 2.8-5 12.2-7.1 15.7-5 36.5 9.3-28.6 8.5-9.3.8-5.7 7.1-12.9 5.7 5.7 2.9 4.3h2.8zM127 84.4l-4.2-10-6.5-6.5h-7.1l-3.6 2.9-5 12.2-7.1 15.7-5 36.4 9.2-28.6 8.6-9.3.7-5.7 7.2-12.8 5.7 5.7 2.9 4.3h2.8zM95.6 90.1l-4.3-10-6.4-6.4h-7.2l-3.5 2.8-5 12.2-7.2 15.7-10.7 29.3 15-21.4 8.6-9.3.7-5.8 7.1-12.8 5.8 5.7 2.8 4.3h2.9z"/><defs><path id="SVGID_1_" d="M27.7 94.2l14.7-18.5 27.8-4.4 20.7 9.3 14.7 14.1L90.9 116l-20.2 2.7-28.8-4.4-14.2-10.9z"/></defs><clipPath id="SVGID_2_"><use xlink:href="#SVGID_1_" overflow="visible"/></clipPath><path clip-path="url(#SVGID_2_)" fill="#141414" d="M27.7 94.2l14.7-18.5 27.8-4.4 20.7 9.3 14.7 14.1L90.9 116l-20.2 2.7-28.8-4.4-14.2-10.9z"/><defs><path id="SVGID_3_" d="M27.7 94.2l14.7-18.5 27.8-4.4 20.7 9.3 14.7 14.1L90.9 116l-20.2 2.7-28.8-4.4-14.2-10.9z"/></defs><clipPath id="SVGID_4_"><use xlink:href="#SVGID_3_" overflow="visible"/></clipPath><path d="M19.1 101.5L37.7 93l12.1 1.4 9.3-5 14.3 6.4 9.3-2.9 11.4 5.7s-.4 23.9-1.3 23.8-16.6 2.7-16.6 2.7l-25 .7-27.9-10.7-4.2-13.6z" clip-path="url(#SVGID_4_)" fill="#111"/><defs><path id="SVGID_5_" d="M76.3 100.1l19.3-24.3 36.4-5.7 27.2 12.1 19.3 18.6-19.3 27.9-26.4 3.6-37.9-5.8-18.6-14.2z"/></defs><clipPath id="SVGID_6_"><use xlink:href="#SVGID_5_" overflow="visible"/></clipPath><path clip-path="url(#SVGID_6_)" fill="#1a1a1a" d="M76.3 100.1l19.3-24.3 36.4-5.7 27.2 12.1 19.3 18.6-19.3 27.9-26.4 3.6-37.9-5.8-18.6-14.2z"/><g><defs><path id="SVGID_7_" d="M76.3 100.1l19.3-24.3 36.4-5.7 27.2 12.1 19.3 18.6-19.3 27.9-26.4 3.6-37.9-5.8-18.6-14.2z"/></defs><clipPath id="SVGID_8_"><use xlink:href="#SVGID_7_" overflow="visible"/></clipPath><path clip-path="url(#SVGID_8_)" fill="#111" d="M72.7 98.7l12.9-5L97.9 106l15.6-9.5 13.5 10.7 7.2-8.5 14.1 12.7 12.3-5.6 15 8.6-6.4 21.4-32.9 6.5-29.3-1.5-27.5-11-14.6-12z"/></g><path class="st4" d="M174.2 133l2.1-10 7.9-2.2 9.3 7.9 3.6 14.3-.7 14.3-7.9-13.6-10.7-5zM196.8 117.1l1.9-4.2 6.9-5.7 4.5 3.3 5.2 12.1 2 12.8-8.2-10.9-8.7-2.9z"/><g><defs><path id="SVGID_9_" d="M152.8 119.4c0 .7 3.6-15.7 3.6-15.7l15-8.6 22.2 2.9 12.9 5 5.7 7.1-1.4 9.3-12.9-2.1-9.3 7.1-3.6 12.1-15 2.1-17.2-19.2z"/></defs><clipPath id="SVGID_10_"><use xlink:href="#SVGID_9_" overflow="visible"/></clipPath><path d="M152.8 119.4c0 .7 3.6-15.7 3.6-15.7l15-8.6 22.2 2.9 12.9 5 7.1 6.4-2.9 10-12.9-2.1-9.3 7.1-3.6 12.1-15 2.1-17.1-19.2z" clip-path="url(#SVGID_10_)" fill="#333"/><defs><path id="SVGID_11_" d="M152.8 119.4c0 .7 3.6-15.7 3.6-15.7l15-8.6 22.2 2.9 12.9 5 5.7 7.1-1.4 9.3-12.9-2.1-9.3 7.1-3.6 12.1-15 2.1-17.2-19.2z"/></defs><clipPath id="SVGID_12_"><use xlink:href="#SVGID_11_" overflow="visible"/></clipPath><path clip-path="url(#SVGID_12_)" fill="#1a1a1a" d="M174.9 93.7l6.5 4.3h3.5l.7 2.1 5-.7 2.2 4.3 5 .7 1.4 3.6h3l3.4 3.5 5-3.5-2.8-9.3-14.3-3.6z"/><defs><path id="SVGID_13_" d="M152.8 119.4c0 .7 3.6-15.7 3.6-15.7l15-8.6 22.2 2.9 12.9 5 5.7 7.1-1.4 9.3-12.9-2.1-9.3 7.1-3.6 12.1-15 2.1-17.2-19.2z"/></defs><clipPath id="SVGID_14_"><use xlink:href="#SVGID_13_" overflow="visible"/></clipPath><path clip-path="url(#SVGID_14_)" d="M172.1 113.7l3.5-5.7 7.9 2.8v5l-7.2 3.6z"/><defs><path id="SVGID_15_" d="M152.8 119.4c0 .7 3.6-15.7 3.6-15.7l15-8.6 22.2 2.9 12.9 5 5.7 7.1-1.4 9.3-12.9-2.1-9.3 7.1-3.6 12.1-15 2.1-17.2-19.2z"/></defs><clipPath id="SVGID_16_"><use xlink:href="#SVGID_15_" overflow="visible"/></clipPath><path clip-path="url(#SVGID_16_)" fill="#39b54a" d="M175.6 114.4l1.5-2.9 2.8 1.5v2.8h-2.8z"/><g><defs><path id="SVGID_17_" d="M152.8 119.4c0 .7 3.6-15.7 3.6-15.7l15-8.6 22.2 2.9 12.9 5 5.7 7.1-1.4 9.3-12.9-2.1-9.3 7.1-3.6 12.1-15 2.1-17.2-19.2z"/></defs><clipPath id="SVGID_18_"><use xlink:href="#SVGID_17_" overflow="visible"/></clipPath><path clip-path="url(#SVGID_18_)" d="M199.9 104.4l3.6-5.7 7.9 2.8v5l-6.5 2.9z"/></g><g><defs><path id="SVGID_19_" d="M152.8 119.4c0 .7 3.6-15.7 3.6-15.7l15-8.6 22.2 2.9 12.9 5 5.7 7.1-1.4 9.3-12.9-2.1-9.3 7.1-3.6 12.1-15 2.1-17.2-19.2z"/></defs><clipPath id="SVGID_20_"><use xlink:href="#SVGID_19_" overflow="visible"/></clipPath><path clip-path="url(#SVGID_20_)" fill="#39b54a" d="M203.5 104.4l1.4-2.9 2.9 1.5v2.8h-2.9z"/></g><g><defs><path id="SVGID_21_" d="M152.8 119.4c0 .7 3.6-15.7 3.6-15.7l15-8.6 22.2 2.9 12.9 5 5.7 7.1-1.4 9.3-12.9-2.1-9.3 7.1-3.6 12.1-15 2.1-17.2-19.2z"/></defs><clipPath id="SVGID_22_"><use xlink:href="#SVGID_21_" overflow="visible"/></clipPath><path clip-path="url(#SVGID_22_)" d="M193.5 99.8l2.2-3.5 4.9 1.7v3.2l-4 1.8z"/></g><g><defs><path id="SVGID_23_" d="M152.8 119.4c0 .7 3.6-15.7 3.6-15.7l15-8.6 22.2 2.9 12.9 5 5.7 7.1-1.4 9.3-12.9-2.1-9.3 7.1-3.6 12.1-15 2.1-17.2-19.2z"/></defs><clipPath id="SVGID_24_"><use xlink:href="#SVGID_23_" overflow="visible"/></clipPath><path clip-path="url(#SVGID_24_)" fill="#39b54a" d="M195.7 99.8l.9-1.8 1.8.9v1.8h-1.8z"/></g><g><defs><path id="SVGID_25_" d="M152.8 119.4c0 .7 3.6-15.7 3.6-15.7l15-8.6 22.2 2.9 12.9 5 5.7 7.1-1.4 9.3-12.9-2.1-9.3 7.1-3.6 12.1-15 2.1-17.2-19.2z"/></defs><clipPath id="SVGID_26_"><use xlink:href="#SVGID_25_" overflow="visible"/></clipPath><path clip-path="url(#SVGID_26_)" d="M164.8 107l4.6.3.9 5.7-3 1.6-4.5-3.1z"/></g><g><defs><path id="SVGID_27_" d="M152.8 119.4c0 .7 3.6-15.7 3.6-15.7l15-8.6 22.2 2.9 12.9 5 5.7 7.1-1.4 9.3-12.9-2.1-9.3 7.1-3.6 12.1-15 2.1-17.2-19.2z"/></defs><clipPath id="SVGID_28_"><use xlink:href="#SVGID_27_" overflow="visible"/></clipPath><path clip-path="url(#SVGID_28_)" fill="#39b54a" d="M165.6 109.4l2.2-.1v2.2l-1.7 1-.9-1.8z"/></g><g><defs><path id="SVGID_29_" d="M152.8 119.4c0 .7 3.6-15.7 3.6-15.7l15-8.6 22.2 2.9 12.9 5 5.7 7.1-1.4 9.3-12.9-2.1-9.3 7.1-3.6 12.1-15 2.1-17.2-19.2z"/></defs><clipPath id="SVGID_30_"><use xlink:href="#SVGID_29_" overflow="visible"/></clipPath><path clip-path="url(#SVGID_30_)" fill="#1a1a1a" d="M152.8 111.5l6.4-1.4 2.1 12.9 5-3.6 4.3 7.9 3.6-2.2 3.6 7.9v4.6l-5.7 5.4-22.2-20z"/></g></g><path class="st16" d="M130.6 121.5l-17.1-26.4h-8.6l-3.6 20-16.4 25v5l-5 52.9 11.4-48.6 1.4-5.7 16.5-24.3 4.3-12.2 11.8 20.5 5.3-1.2z"/><path class="st16" d="M102 115.8L84.9 89.4h-8.6l-3.6 20-16.4 25v5l-5 52.9 11.4-48.6 1.5-5.7 16.4-24.3 4.3-12.2L96.7 122l5.3-1.2z"/><path class="st16" d="M85.6 107.2L59.2 96.5h-8.6l-5.7 10.7-23.6 22.9-2.9 3.6-15.7 45 22.2-40 4.2-5 22.9-20 7.2-5 21.1 4.7 5.3-1.1zM133.5 123.7l1.4-15.7 2.9-8.6 7.1-2.9 5 7.9 5 12.1 12.2 21.5 9.2 36.4-13.5-28.6-8.6-9.3-.7-5.7-11.5-18.5-1.4 11.4-2.8 4.3h-2.9z"/></svg>