<?xml version="1.0" encoding="utf-8"?>
<!-- Generator: Adobe Illustrator 22.1.0, SVG Export Plug-In . SVG Version: 6.00 Build 0)  -->
<svg version="1.0" id="Layer_1" xmlns="http://www.w3.org/2000/svg" xmlns:xlink="http://www.w3.org/1999/xlink" x="0px" y="0px"
	 viewBox="0 0 417.8 629.3" style="enable-background:new 0 0 417.8 629.3;" xml:space="preserve">
<style type="text/css">
	.st0{fill:#AF7643;}
	.st1{fill:#A06D42;}
	.st2{fill:#91613D;}
	.st3{opacity:0.71;fill:#91613D;enable-background:new    ;}
	.st4{fill:none;stroke:#A06D42;stroke-width:0;stroke-linecap:round;stroke-linejoin:round;}
</style>
<g>
	<path class="st0" d="M97.2,453.9c0.1,0,0.1,0,0.1,0c-21-12-74.3-16-95.4-10.6C22.9,438,76.1,441.9,97.2,453.9z"/>
	<path class="st0" d="M392.7,392.2c0,1,10.3,2.6,25.1,4.2v-0.1C403.2,394.8,393.1,393.3,392.7,392.2z"/>
	<path class="st0" d="M417.8,443.8c-4.3,1.4-6.8,3.2-6.7,5.5C411,447,413.5,445.2,417.8,443.8z"/>
	<path class="st0" d="M417.8,456.7c-0.5-0.4-1-0.7-1.5-1C416.8,456.1,417.3,456.4,417.8,456.7z"/>
	<path class="st0" d="M414.8,320.8c-1.5-0.2-2.9-0.3-4.1-0.5C411.9,320.5,413.3,320.6,414.8,320.8z"/>
	<path class="st0" d="M215.6,232.8c14.9-10.2-3.8-14.9-29.5-14.8C211.8,217.9,230.4,222.6,215.6,232.8z"/>
	<path class="st0" d="M267.5,116.9c-16.7-4-138-11-138.4,0.4C130.2,106,250.8,112.9,267.5,116.9z"/>
	<path class="st0" d="M45.5,273.4c28.3-0.1,57.9-11.1,57.9-11.1c-15.5-14.4-51.5-22.8-76.7-22.6c25.1-0.2,61.1,8.2,76.6,22.6
		C103.3,262.3,73.7,273.3,45.5,273.4z"/>
	<path class="st0" d="M33.8,10c-0.5,1.4-16.2,1.8-33.8,1.5v0.1C18,11.9,34.1,11.5,33.8,10z"/>
	<path class="st0" d="M0,129.8c24.3,0.5,53.6,4.9,68.1,13C53.6,134.7,24.3,130.2,0,129.8z"/>
	<path class="st0" d="M375.4,8.7c3-0.2,23-1.8,42.4-1.9V6.7c-21,0.1-42.8,1.9-42.8,1.9C375.1,8.6,375.3,8.6,375.4,8.7z"/>
	<path class="st0" d="M60.4,319.8c2.4,0.5,3.5,0.9,3.6,1.3C64.1,320.7,63,320.2,60.4,319.8C46,316.7,16,318,0,319
		C16,318.1,46,316.8,60.4,319.8z"/>
	<path class="st0" d="M20.1,385c-5.3,0.3-12.3,0.8-19.2,1.6C7.9,385.9,14.9,385.3,20.1,385z"/>
	<path class="st0" d="M246.4,354.8c0,0.1,0,0.1,0,0.2C246.4,354.9,246.5,354.9,246.4,354.8z"/>
	<path class="st0" d="M45.6,89.4c-14,0-30.2-0.7-45.6-1.7C15.4,88.7,31.7,89.3,45.6,89.4z"/>
	<path class="st0" d="M230.2,51c0.1,0.1,0.1,0.2,0,0.2c-2.6,3.2-29.6,6.2-41.1,6.9c-40.8,2.9-62.6,4-71.6-1.1
		c9,5.1,30.7,4.1,71.7,1.3c11.5-0.8,38.5-3.8,41.1-7C230.4,51.2,230.3,51.1,230.2,51z"/>
	<path class="st0" d="M145.6,591.6c23,21.5,91.4,29.6,102,15.9C236.9,621.1,168.6,613,145.6,591.6z"/>
	<path class="st0" d="M184.5,430.2c22.6,0,49.9-2.7,49.9-2.7c-9.1-1.4-26.8-2.1-42.7-2.1c15.9,0,33.5,0.7,42.6,2.1
		C234.3,427.5,207.1,430.2,184.5,430.2z"/>
	<path class="st0" d="M244.4,594.5c-26.6-29.6-98.8-2.9-98.8-2.9S217.7,565,244.4,594.5z"/>
	<path class="st0" d="M180.3,190.4c0,0.4,1.1,0.8,3.8,1.3C181.5,191.2,180.4,190.8,180.3,190.4z"/>
	<path class="st0" d="M116.9,56.7c-0.1-0.1-0.3-0.2-0.4-0.3C116.6,56.5,116.8,56.6,116.9,56.7z"/>
	<path class="st0" d="M393.2,47.4c-4.4,1.1-67.8-3.7-70-4.2c-5-1.2,36.5-3.7,65.7-2.1c9.6,0.5,19.4,1.2,28.9,1.9V24.2
		C397,23,367,20.6,367,20.6s25.5-0.3,50.8,0.1v-6.6c-31.1-0.6-65.3-2.5-82.9-5.5c0,0,42.3-3.4,82.9-3.6V0H0v5
		c22.1-0.1,43.7,0.7,57.8,3.6C81.2,13.3,43.7,15,0,14.2V43c45.7,3.4,85.6,8.1,82.6,8c-2.5,0-51.7-2.3-82.6-3.3v21.9
		c58.7-5,88.3,0.6,92.1,15.6c2.1,8.6-44.8,9-92.1,6.8v12.2c24.3,2.9,44.4,4.8,46.2,3.1c3.7-3.5,10.5,5.7-46.2-0.7v10
		c9.9,0.8,20.8,1.8,33,3.2c6.3,0.7-10.6-0.1-33-0.8v6.7c31.3,1.5,66.1,7.5,84.1,17.6c0,0-43,12.8-84.1,13.9v12.2
		c38.7,1.1,77.5,2,52.6,0c-0.6,0-0.7,0-0.4,0c0.1,0,0.2,0,0.4,0c4.7,0.3,37.9,2.5,56.8,3.2c6.7-0.6,11.4-0.9,12.9-0.2
		c1.3,0.5-4.3,0.5-12.9,0.2c-12.9,1.2-33.3,3.8-52.6,3c-19.5-0.7-39.3-1.9-56.8-3.2v8.4c13.2,0.7,32.7,2.2,45,2.8
		c5.8-0.5,9.9-0.7,11.3-0.1c1.3,0.6-3.6,0.5-11.3,0.1c-10.9,1-27.9,3.1-45,3.3v25.4c10.1,1.3,20.2,2.6,28.7,3.7
		c15.3,1.6,24.6,2.9,23.1,2.8c-1.1,0-10.4-1.2-23.1-2.8c-8.1-0.8-17.9-1.7-28.7-2.6v19.9c34.1-3.9,94.7,8,118.9,30.6
		c0,0-74.8,27.7-118.9,8.7v9.5c10.9,3.1,18.8,4.7,18.8,4.7C12.3,287,6,286.6,0,285.5v7.5c41.2,4.3,117.8,11.8,85,6.3
		c-3.1-0.6,34.8,5.3,55.3,7.6c6.5-0.5,11.1-0.7,12.5,0.4c1.2,0.9-4.3,0.6-12.5-0.4c-12.7,1.1-32.9,3.6-51.5,1.5
		c-33.6-3.7-68.1-9.6-88.8-13.5v8.4c0.2,0,0.3,0.1,0.5,0.1c14.7,3.1,23.6,5.5,22.1,5.3c-1-0.2-9.9-2.3-22.1-5.3
		c-0.2,0-0.3,0-0.5-0.1v13.5c30.2-1.1,66.8-1.3,87.3,2.9c28.4,5.9-34.7,7-87.3,4.4v7.6c17,0,42.3,0.2,59.6,1.2
		c54.7,3.1,98.1,6.8,94.5,6.8c-3.5,0-100.1-4.8-104.4-3.7c-2.8,0.6-30.5-1.3-49.7-2.7v12c1.6,0.3,3.1,0.6,4.4,0.7
		c-1.4,0-2.8,0-4.4,0v6.1c0.9,0,1.9,0,2.8,0.1c54.7,3.2,96.2,14,92.6,14c-3.6,0-84-8.8-88.3-7.7c-0.8,0.2-3.4,0.2-7.1,0.1V369
		c6.3,0.1,12.2,0.1,17,0c4.9-0.4,8.9-0.6,11.4-0.5c5.1,0.2-0.7,0.5-11.4,0.5c-4.9,0.4-10.7,1-17,1.5v13.6c1-0.1,1.9-0.2,2.8-0.3
		c76-9.5,113.6-4.7,117.9,12.6c2.6,10.5-66.9,8.8-120.6,4.8v-4.8c40.1,4.1,113.7,7.7,111.4-1.9c-2.1-8.7-13.4-11.5-38.1-11.5
		c24.7,0,35.9,2.8,38,11.5c2.4,9.5-71.2,5.9-111.4,1.8v14.8c35.1,4.9,73.4,9.7,76,7.3c4.2-4,12.5,8.9-76-5.1V426
		c16,0.4,36.6,1.9,63.2,5c8.8,1-29.6-1.3-63.2-1.5v7.4c34.8-2.3,89,3.8,113,17.6c0,0-67.4,20.6-113,11.7v6.3
		c8.9,1.3,14.9,1.9,14.9,1.9c-5.1,0.3-10.1,0.3-14.9,0.1v5c41.9,1.4,113.5,3.5,82.3,1c-0.6,0-0.7-0.1-0.4,0c0.1,0,0.2,0,0.4,0
		c4.6,0.3,37,2.5,55.4,3.2c6.5-0.6,11-0.9,12.5-0.2c1.2,0.6-4.2,0.6-12.5,0.2c-12.7,1.3-32.6,3.8-51.4,3c-32-1.2-65.1-3.8-86.3-5.7
		v5.9c13.7,1.5,21.7,2.7,20.4,2.6c-1-0.1-9.1-1.1-20.4-2.6v5c9.7,0.1,16.5,0.1,17.5-0.3c3.1-0.8,38.6,2.1,57.3,3.1
		c-12.5,1.2-33.2,4-52.7,3.2c-7.4-0.2-14.8-0.6-22.1-1v22.3c17.6,2.5,41.6,5.7,59,8c-15.2-1.7-36.4-3.6-59-4.7v28.6
		c14.2,1,25.5,1.9,31.5,2.6c54.4,6.1,90.7,15.8,87.1,15.7c-3.6-0.1-99.8-9.7-104.1-8.3c-0.7,0.2-6.1-0.2-14.5-1.1v27.2
		c41.8,6,77.1,13.2,74.3,13.1c-2.4-0.1-44.3-4.2-74.3-6.7v35.7h417.8v-63.9c-22.8-3.2-65.6-10.2-98.5-15.7c0.5,0.1,1.1,0.3,1.6,0.4
		c-1.4-0.3-2.9-0.6-4.4-0.9c-0.2,0-0.3-0.1-0.5-0.1c-23.7-4-41.5-7-41.5-7s1.2,0.1,3.4,0.2c-13.7-2-28.6-3.8-43.2-4.8
		c-19.5-1.3-39.5-7.8-51.6-11c-7.5-0.4-12.2-0.8-10.9-1.5c1.5-0.7,5.4,0.1,10.9,1.5c18.7,0.9,54.5,1.2,57.3,2.7
		c2,1.1,27.6,7.7,52.6,14c1.8,0.4,3.6,0.9,5.4,1.3c-1.7-0.4-3.5-0.9-5.2-1.3c29.4,1.8,86.9,5.2,124.6,7.9v-28.6
		c-9.2-0.4-18.7-0.7-28.1-0.8c-19.6-0.2-40-3.9-52.4-5.7c18.7-0.1,54.4-1.3,57.4-0.3c1.2,0.3,10.5,1.7,23.1,3.5V487
		c-0.7-0.1-1.4-0.2-2.1-0.3c-21.4-2.3-54.8-5.2-87.1-5.5c-19.6-0.2-40-3.9-52.4-5.7c18.7-0.1,54.4-1.2,57.4-0.3
		c2.9,0.9,52.2,7.6,82.1,11.5c0.7,0.1,1.4,0.2,2.1,0.3v-6c-15.1-1.3-24.1-2.3-22.6-2.3c4.8,0.2,12.9,0.5,22.6,0.8v-5
		c-32.8-1.4-59.1-13.2-76-18.4c-13.1-4-56.8-3.9-79-3.3c25.3-2.5,76.1-9.7,89.6,1.5c11.2,9.3,45.4,15.3,65.4,18.2v-6.2
		c-9.2-1.8-17.4-4.7-24.1-9.3c-17.2-11.7-2.1-18.3,24.1-20.1v-7.5c-21.5-0.1-41,0.6-44.8,3.5c-7.8,6.1-18.9-8.7,44.8-6.9v-12.7
		c-16.1-2.6-35.3-6-58.3-10.6c-5.1-1.1,25.2,3.7,58.3,8.4v-9.9c-34.7-2.6-62.8-6.1-61.1-7.9c4-4.5,42.2-7,61.1-9.1v-38.1
		c-19.4-0.1-50.3,0.2-53-0.7c-2.9-1-52-8.6-81.7-13c-14.8-1.9-23.8-3.4-22.4-3.2c1.1,0.1,10.1,1.4,22.4,3.2
		c21.3,2.7,54.6,6.2,86.9,7.1c17.4,0.5,35.4,3.8,47.8,5.9v-12.2c-10.5-0.8-18.5-1.5-18.5-1.5s7.6-0.1,18.5-0.1v-7.4
		c-20-1-38.4-2.5-49.7-4.4c0,0,22.2-1.8,49.7-2.9v-22c-12.9-2.4-20.5-4.1-19.1-3.9c4.3,0.4,11,1.2,19.1,2v-7.4
		c-30.6-4.8-54.2-21.9-69.8-29.9c-11.3-5.7-47.8-6.5-71.5-5.9c27.3-3.8,71.2-11.1,82.3,4c9.4,12.9,39.1,22.9,59,28.4v-9.6
		c-6.9-3-13.1-7.1-18.1-12.7c-14.2-15.7-3.1-24.2,18.1-26.6v-19.9c-18.5-1.5-39.8-2.7-60.7-2.9c-20.1-0.2-41.1-3.9-53.8-5.7
		c-7.7,0.1-12.6-0.1-11.3-0.6c1.5-0.6,5.5-0.2,11.3,0.6c19.2-0.1,55.9-1.2,59-0.3c2.1,0.7,29.1,4.3,55.5,7.8v-25.5
		c-3.1,0-6.2,0-9.2-0.1c-56.2-2.2-115.4-7.9-111.8-8c3.6,0,102.9,2.9,107.2,1.8c1.1-0.2,6.5-0.1,13.8,0.2v-8.3
		c-33-2.4-57.5-4.9-55-4.8c9.8,0.4,32.4,1.1,55,1.8v-63c-14.9-1.7-34-4.4-58.7-8.8c0.5,0,1,0,1.6,0c-0.5,0-1,0-1.5,0
		c-34.7-0.5-62.5-13.1-80.1-18.5c-13.1-4-56.8-3.9-79-3.3c25.4-2.5,76.1-9.7,89.6,1.5c16,13.4,80.2,20.1,80.2,20.1
		c-0.3,0.1-0.6,0.1-0.9,0.1c15.5,2.2,33,4.5,48.8,6.5V47.7C404.4,47.3,394.5,47.1,393.2,47.4z M15.4,346.9c-1.4,0.5-5.3,0.1-11-0.8
		C11.9,346.2,16.7,346.4,15.4,346.9z M169.1,11.8c12.9-0.9,34.3-3.3,54.3-2.2c56.1,3.2,115.2,10,111.5,10
		c-3.7,0-102.8-4.8-107.2-3.7C224.6,16.6,188.2,13.1,169.1,11.8c-5.8,0.4-9.9,0.6-11.3-0.1C156.5,11.1,161.4,11.3,169.1,11.8z
		 M274.2,40.8c10.6,1.9-129.9-18.1-134.7-13.3S123.4,13.6,274.2,40.8z M19.2,24.8c-1.4,0.3-9.3,0-19.1-0.5v-3.5
		c10.5,0.1,20.9,0.4,29.4,0.9c56.1,3.1,100.5,6.8,96.9,6.8C122.7,28.5,23.6,23.7,19.2,24.8z M119.6,116.2
		c-4.9-17.2,190.9-4.9,186.7-0.1c-4.2,4.8-47.4,8.1-65.3,10.6C163.4,137.5,124.6,133.5,119.6,116.2z M130.3,150.1
		c3.6,0,102.9,2.9,107.2,1.8c4.3-1.1,67.9,2.5,70.1,3c5,1.1-36.3,4.4-65.5,3.2C185.9,155.9,126.7,150.2,130.3,150.1z M240.6,164.4
		c-7.7,0.1-12.6-0.1-11.3-0.6C230.8,163.2,234.8,163.6,240.6,164.4z M215.3,142.4c-5.2-0.1,0.7-0.5,11.7-0.7
		C222,142.1,217.9,142.4,215.3,142.4z M101.1,231.5c42.1-24.1,177.1-24.8,137.1,2.5S101.1,231.5,101.1,231.5z M151,208
		c132.6-15.5,117.6,9.5,107.9,2C249.2,202.4,136.5,209.7,151,208z M128,293.3c14.1-1.3,105.1,0.6,109.2-0.7c2.9-1,38.7,0.2,57.4,0.3
		c-12.4,1.8-32.8,5.5-52.4,5.7C187.4,299.1,124.5,293.7,128,293.3z M269.4,278.3c1.5-0.7,5.4,0,10.9,1.5
		C272.8,279.4,268.1,279,269.4,278.3z M100.5,353.3c-4.8-17.2,186-4.9,181.9-0.1c-4.1,4.8-46.1,8.1-63.6,10.6
		C143.1,374.7,105.3,370.5,100.5,353.3z M205.1,378.8c-4.9,0.4-8.9,0.7-11.4,0.7C188.6,379.4,194.4,379.1,205.1,378.8z M113,377.6
		c13.6,0,98.2,12.6,102.4,11.5c4.2-1.1,66.2,2.5,68.3,3c4.9,1.1-35.4,4.4-63.9,3.2C165,393.1,109.4,377.6,113,377.6z M69,410.6
		c3.5,0,100.3,2.9,104.5,1.8c4.2-1.1,68.3,3,68.3,3s-49.7,1.5-78.1,0.3C108.9,413.6,65.5,410.6,69,410.6z M85.9,494.7
		c1.2,0.5-3.5,0.4-11.1,0.1C80.6,494.3,84.5,494.1,85.9,494.7z M81.5,529.9C81.5,529.9,81.5,529.9,81.5,529.9
		C81.7,529.9,81.7,529.9,81.5,529.9c-1.1,0-10.1-1.2-22.5-2.8C71.9,528.6,80.3,529.7,81.5,529.9z M130,590c0,0,100.1-37,137,4.1
		C303.9,635.1,169.2,626.7,130,590z M343.1,555.4c-1-0.2-9.9-2.3-22.1-5.3C335.7,553.3,344.6,555.6,343.1,555.4z M384.1,583
		c11.3,1.2,22.7,2.7,33.6,4.3v6.4c-15.8-1.3-28.3-2.2-29.8-1.7c-4.3,1.4-65.7-7.2-67.8-8C315.4,582.2,355.9,579.7,384.1,583z
		 M318.7,598.2c12.6,6.5,56.2,8.7,78.4,9.1c4.9-0.4,8.9-0.7,11.4-0.4c5.1,0.4-0.7,0.6-11.4,0.4c-25.6,2.1-77,9.5-89.2-7.2
		c-14.5-19.9-77.8-33-77.8-33C269.9,566,300,588.6,318.7,598.2z M294.8,558.6c0,0-146.4-8.4-174.7-11.6
		c-54.4-6.1-90.6-15.8-87.1-15.7c3.6,0.1,99.8,9.7,104.1,8.3C141.5,538.2,294.8,558.6,294.8,558.6z M185.2,517.8
		c-54.4-6.1-111.3-17.5-107.8-17.4c3.6,0.1,99.8,9.7,104.1,8.3c4.3-1.4,65.7,7.2,67.8,8C254,518.5,213.5,521,185.2,517.8z
		 M330.8,489.9c2.7,0,57.8,1.6,86.9,2v5C370.6,494.3,327.7,490,330.8,489.9z M326.2,515.3c1.4-0.5,5.4-0.1,11,0.6
		C329.7,516,324.9,515.8,326.2,515.3z M339.3,533.6c-39.9,1.1-69.9-21.6-88.6-31.1c-12.6-6.5-56.2-8.7-78.4-9.1
		c-4.9,0.4-8.9,0.6-11.4,0.4c-5-0.4,0.7-0.6,11.4-0.4c25.6-2.1,77-9.5,89.2,7.2C276.1,520.5,339.4,533.6,339.3,533.6z M265.1,474.9
		c1.4-0.6,5.4-0.2,11,0.6C268.6,475.6,263.8,475.4,265.1,474.9z M295.3,458.1C295.5,458.1,295.5,458.1,295.3,458.1
		c-1.2,0.1-10.4-0.3-22.8-0.9C285.4,457.5,294,458,295.3,458.1C295.3,458.1,295.3,458.1,295.3,458.1z M185.2,459
		c-19.5,1.5-40.4-0.5-52.9-1.3c-7.5,0.7-12.3,0.9-11.1,0.3c1.3-0.6,5.3-0.6,11.1-0.3c18.6-1.7,53.9-5.8,57-5.1
		c3,0.7,53,3.2,83.3,4.6C251,456.7,217.3,456.6,185.2,459z M262.9,452.8c-4.9,0.4-8.9,0.7-11.4,0.7
		C246.4,453.4,252.1,453.1,262.9,452.8z M136.4,429.4c-39.3-7.4,95.6-9,137.1-2.5C273.5,426.9,175.7,436.8,136.4,429.4z
		 M380.4,415.5c-1.1,0-10.1-1.2-22.5-2.8c-21.4-2.3-54.8-5.2-87.1-5.5c-19.6-0.2-40-3.9-52.4-5.7c-7.5,0.1-12.3-0.1-11-0.6
		c1.4-0.6,5.4-0.2,11,0.6c18.7-0.1,54.5-1.2,57.4-0.3c2.9,0.9,52.2,7.6,82.1,11.5C372.9,414.3,381.9,415.6,380.4,415.5z
		 M374.9,400.4c-39.7,2.3-71.4-12.3-90.8-18.3c-13.1-4-56.8-3.9-79-3.3c25.3-2.5,76.1-9.7,89.6,1.5
		C310.7,393.7,374.9,400.4,374.9,400.4z M417.7,352.1v6.5c-17.3-0.6-59.3-3.9-61.1-4.3C351.9,353.2,389.6,350.8,417.7,352.1z
		 M355.9,364.3c10.1,3.3,39,4.5,61.8,4.7v1.5c-26.6,2.3-61.9,4.6-72.5-4.6c-15.6-13.7-76.8-18.8-76.8-18.8
		C308.2,345.6,336.8,358,355.9,364.3z M279.2,343.8c10.6,1.9-138.2-18.3-149.1-15.2C123.6,330.6,128.4,316.6,279.2,343.8z
		 M368,330.7c-3.5,0-100.1-4.8-104.4-3.7c-3,0.7-38.5-2.8-57.1-4.1c-5.8,0.4-9.8,0.6-11.1-0.1c-1.2-0.6,3.5-0.4,11.1,0.1
		c12.5-0.9,33.3-3.3,52.8-2.2C314,323.9,371.6,330.7,368,330.7z M294.7,292.9c5.6-0.8,9.6-1.2,11-0.6
		C307,292.9,302.2,293,294.7,292.9z M417.7,303.3c-21-4.4-53.8-10.3-85.7-12.5c-19.5-1.3-39.5-7.8-51.6-11
		c18.6,0.9,54.4,1.2,57.2,2.7C340.4,284,388.3,296.1,417.7,303.3z M301,267c3.5,0.1-54.2,5.8-109,8c-19.5,0.7-40.3-2-52.8-3.2
		c-7.6,0.4-12.2,0.5-11-0.1c1.4-0.7,5.4-0.5,11.1,0.1c18.7-1,54.2-3.9,57.2-3.1C200.8,269.8,297.5,266.8,301,267z M276.4,249.8
		c-8.6,1.2-15.6,2.1-19.4,1.8C250.9,251.2,260.9,250.2,276.4,249.8z M380.4,230.5c-2.5,0.1-6.5-0.2-11.4-0.7
		C379.7,230,385.5,230.4,380.4,230.5z M369.1,229.8c-22.3-0.6-65.9-0.7-79,3.3c-19.3,5.9-51.1,20.6-90.8,18.3
		c0,0,64.1-6.7,80.2-20.1C293,220.1,343.8,227.3,369.1,229.8z M297.1,189.7c0,0-100.2,9.9-140.6,2.5
		C116.1,184.8,254.6,183.3,297.1,189.7z M383.8,175.6c15.3,1.6,24.5,2.9,23.1,2.8C405.8,178.4,396.5,177.2,383.8,175.6
		c-21.9-2.3-56.3-5.2-89.4-5.5c-20.1-0.2-41.1-3.9-53.8-5.7c19.2-0.1,55.9-1.3,59-0.3C302.6,165,353.1,171.7,383.8,175.6z
		 M308,144.9c-13.4-4-58.2-3.9-81-3.3c25.9-2.5,78-9.6,91.9,1.5c16.4,13.4,82.3,20.1,82.3,20.1C360.5,165.5,327.9,150.9,308,144.9z
		 M417.7,129.7c-21-0.4-38.3,2.3-38.7,8.1c0.6-5.7,17.8-8.3,38.7-7.9v22.9v0.1v4.3c-21.5,0.6-42.4-2-56.5-11.4
		c-23.8-15.9,13-22.3,56.5-20.2V129.7z M417.7,119c-30.7-1-71.9-1.6-77.7,2.8c-9,6.8-22.6-13.2,77.7-5.2V119z M375.4,112.5
		c-1.1,0-10.1-1.2-22.5-2.8c-21.4-2.3-54.8-5.2-87.1-5.5c-19.6-0.2-40-3.9-52.4-5.7c-7.5,0.1-12.3-0.1-11-0.6
		c1.4-0.6,5.4-0.2,11,0.6c18.7-0.1,54.5-1.2,57.4-0.3c2.9,0.9,52.2,7.6,82.1,11.5C367.9,111.3,376.9,112.6,375.4,112.5z M210.4,86.1
		c4.2-1.1,66.2,2.5,68.3,3c4.9,1.1-35.4,4.4-63.8,3.2c-54.8-2.2-112.6-7.9-109-8C109.4,84.3,206.2,87.2,210.4,86.1z M200.1,75.8
		c-4.9,0.4-8.9,0.7-11.4,0.7C183.6,76.4,189.4,76.1,200.1,75.8z M277.4,50.2c-4.1,4.8-46.1,8.1-63.6,10.6
		c-75.7,10.9-113.5,6.7-118.3-10.5S281.5,45.4,277.4,50.2z M219.2,24.5c-3.6-0.3,61.5,2.3,117.7,3.8c20.1,0.5,41,4.6,53.6,6.6
		c7.8,0.1,12.6,0.3,11.3,0.8c-1.5,0.6-5.5,0.1-11.3-0.8c-19.2-0.2-55.9,0.3-58.9-0.7C327.4,32.8,222.8,24.8,219.2,24.5z M417.7,87.7
		v4.2c-48.1-2.3-96.7-7.5-94.5-9.9c4.4-4.7,47.6-7.2,65.6-9.4c10.3-1.2,19.9-2.2,28.9-3v3.6V87.7z"/>
	<path class="st0" d="M360,81.1c0-0.1,0-0.1,0.1-0.2C360.1,81,360,81,360,81.1z"/>
	<path class="st0" d="M417.7,73.2c-1.2,0-2.5,0.1-3.7,0.2C415.2,73.3,416.5,73.2,417.7,73.2z"/>
	<path class="st1" d="M417.8,324.2v-3.1c-1-0.1-2.1-0.2-3-0.3c-1.5-0.2-2.9-0.3-4.1-0.5c-1.3-0.2-2.5-0.3-3.5-0.5
		c0,0,4.2-0.3,10.7-0.7v-2.2c-27.5,1.1-49.7,2.9-49.7,2.9C379.4,321.7,397.8,323.2,417.8,324.2z"/>
	<path class="st2" d="M410.6,320.3c1.3,0.2,2.7,0.3,4.1,0.5c1,0.1,2,0.2,3,0.3v-2c-6.5,0.4-10.7,0.7-10.7,0.7
		C408.2,320,409.3,320.2,410.6,320.3z"/>
	<path class="st1" d="M268.4,347.1c0,0,61.2,5.1,76.8,18.8c10.6,9.2,45.9,6.9,72.5,4.6V369c-22.8-0.2-51.7-1.4-61.8-4.7
		C336.8,358,308.2,345.6,268.4,347.1z"/>
	<path class="st1" d="M417.8,401.2v-4.8c-14.9-1.5-25.2-3.2-25.1-4.2c0-0.1,0-0.2,0-0.2c1.8-2.1,13.2-4,25.1-5.3v-2.5
		c-18.9,2.1-57.1,4.6-61.1,9.1C355,395.1,383.1,398.6,417.8,401.2z"/>
	<path class="st2" d="M392.7,392.2c0.5,1.1,10.6,2.6,25.1,4.1v-9.5v-0.1c-11.9,1.3-23.3,3.2-25.1,5.3
		C392.6,392.1,392.6,392.1,392.7,392.2z"/>
	<path class="st1" d="M359.5,402.7c23,4.6,42.2,8,58.3,10.6v-2.2C384.7,406.4,354.4,401.6,359.5,402.7z"/>
	<path class="st1" d="M356.6,354.3c1.8,0.4,43.8,3.7,61.1,4.3v-6.5C389.6,350.8,351.9,353.2,356.6,354.3z"/>
	<path class="st1" d="M283.1,332.4c-12.3-1.8-21.3-3.1-22.4-3.2C259.3,329,268.3,330.5,283.1,332.4z"/>
	<path class="st1" d="M283.1,332.4c29.7,4.4,78.8,12,81.7,13c2.7,0.9,33.6,0.6,53,0.7v-0.7c-12.4-2.1-30.4-5.4-47.8-5.9
		C337.7,338.6,304.4,335.1,283.1,332.4z"/>
	<path class="st1" d="M195.4,322.8c1.3,0.7,5.3,0.5,11.1,0.1C198.9,322.4,194.2,322.2,195.4,322.8z"/>
	<path class="st1" d="M206.5,322.9c18.6,1.3,54.1,4.8,57.1,4.1c4.3-1.1,100.9,3.7,104.4,3.7c3.6,0-54-6.8-108.7-10
		C239.8,319.6,219,322,206.5,322.9z"/>
	<path class="st1" d="M417.8,333.2v-1.6c-10.9,0-18.5,0.1-18.5,0.1S407.3,332.4,417.8,333.2z"/>
	<path class="st1" d="M399.7,259.9c5,5.6,11.2,9.7,18.1,12.7h0v-39.3h0C396.6,235.7,385.5,244.2,399.7,259.9z"/>
	<path class="st1" d="M358.8,253.8c-11.1-15.1-55-7.8-82.3-4c23.7-0.6,60.2,0.2,71.5,5.9c15.6,8,39.2,25.1,69.8,29.9v-3.4
		C397.9,276.7,368.2,266.7,358.8,253.8z"/>
	<path class="st1" d="M276.4,249.8c-15.5,0.4-25.5,1.4-19.4,1.8C260.8,251.9,267.8,251,276.4,249.8z"/>
	<path class="st1" d="M417.8,294.9V293c-8.1-0.8-14.8-1.6-19.1-2C397.3,290.8,404.9,292.5,417.8,294.9z"/>
	<path class="st1" d="M332,290.8c31.9,2.2,64.7,8.1,85.7,12.5c-29.4-7.2-77.3-19.3-80.1-20.8c-2.8-1.5-38.6-1.8-57.2-2.7
		C292.5,283,312.5,289.5,332,290.8z"/>
	<path class="st1" d="M269.4,278.3c-1.3,0.7,3.4,1.1,10.9,1.5C274.8,278.3,270.9,277.6,269.4,278.3z"/>
	<path class="st1" d="M130,590c39.2,36.7,173.9,45.1,137,4.1C230.1,553,130,590,130,590z M145.6,591.6c0,0,72.2-26.7,98.8,2.9
		c5,5.6,5.6,9.9,3.2,13C237,621.2,168.6,613.1,145.6,591.6z"/>
	<path class="st2" d="M244.4,594.5c-26.7-29.5-98.8-2.9-98.8-2.9c23,21.4,91.3,29.5,102,15.9C250,604.4,249.4,600.1,244.4,594.5z"/>
	<path class="st1" d="M230.1,567.1c0,0,63.3,13.1,77.8,33c12.2,16.7,63.6,9.3,89.2,7.2c-22.2-0.4-65.8-2.6-78.4-9.1
		C300,588.6,269.9,566,230.1,567.1z"/>
	<path class="st1" d="M408.5,606.9c-2.5-0.3-6.5,0-11.4,0.4C407.8,607.5,413.6,607.3,408.5,606.9z"/>
	<path class="st1" d="M320.1,584c2.1,0.8,63.5,9.4,67.8,8c1.5-0.5,14,0.4,29.8,1.7v-6.4c-10.9-1.6-22.3-3.1-33.6-4.3
		C355.9,579.7,315.4,582.2,320.1,584z"/>
	<path class="st1" d="M298.4,544.5c-1.8-0.4-3.6-0.9-5.4-1.3c-25-6.3-50.6-12.9-52.6-14c-2.8-1.5-38.6-1.8-57.3-2.7
		c12.1,3.2,32.1,9.7,51.6,11c14.6,1,29.5,2.8,43.2,4.8c-2.2-0.1-3.4-0.2-3.4-0.2s17.8,3.1,41.5,7c0.2,0,0.3,0.1,0.5,0.1
		c1.5,0.3,3,0.6,4.4,0.9c-0.5-0.1-1.1-0.3-1.6-0.4c32.9,5.5,75.7,12.5,98.5,15.7h0v-14.3h0c-37.7-2.7-95.2-6.1-124.6-7.9
		C294.9,543.7,296.7,544.1,298.4,544.5z"/>
	<path class="st1" d="M393.7,457c6.7,4.6,14.9,7.5,24.1,9.3h0v-9.6l0,0v0c0,0,0,0,0,0c-0.5-0.3-1-0.6-1.5-1c0,0,0,0,0,0
		c-3.6-2.4-5.2-4.6-5.3-6.4c-0.1-2.3,2.4-4.2,6.7-5.5c0,0,0,0,0,0l0,0h0v-6.9h0C391.6,438.7,376.5,445.3,393.7,457z"/>
	<path class="st1" d="M417.8,443.8c-4.3,1.3-6.8,3.2-6.7,5.5c0,1.8,1.7,4,5.3,6.4c0,0,0,0,0,0c0.5,0.3,1,0.6,1.5,1c0,0,0,0,0,0v0
		L417.8,443.8L417.8,443.8C417.8,443.8,417.8,443.8,417.8,443.8z"/>
	<path class="st3" d="M417.8,443.8c-4.3,1.3-6.8,3.2-6.7,5.5c0,1.8,1.7,4,5.3,6.4c0,0,0,0,0,0c0.5,0.3,1,0.6,1.5,1c0,0,0,0,0,0v0
		L417.8,443.8L417.8,443.8C417.8,443.8,417.8,443.8,417.8,443.8z"/>
	<path class="st1" d="M251.5,453.5c2.5,0,6.5-0.3,11.4-0.7C252.1,453.1,246.4,453.4,251.5,453.5z"/>
	<path class="st1" d="M262.8,452.8c22.2-0.6,65.9-0.7,79,3.3c16.9,5.2,43.2,17,76,18.4v-2c-20-2.9-54.2-8.9-65.4-18.2
		C338.9,443.1,288.1,450.3,262.8,452.8z"/>
	<path class="st1" d="M373,432.9c3.8-2.9,23.3-3.6,44.8-3.5V426C354.1,424.2,365.2,439,373,432.9z"/>
	<path class="st1" d="M417.8,481v-1.5c-9.7-0.3-17.8-0.6-22.6-0.8C393.7,478.7,402.7,479.7,417.8,481z"/>
	<path class="st4" d="M415.7,486.7c0.7,0.1,1.4,0.2,2.1,0.3"/>
	<path class="st1" d="M265.1,474.9c-1.3,0.5,3.5,0.7,11,0.6C270.5,474.7,266.5,474.3,265.1,474.9z"/>
	<path class="st1" d="M276.2,475.5c12.4,1.8,32.8,5.5,52.4,5.7c32.3,0.3,65.7,3.2,87.1,5.5c-29.9-3.9-79.2-10.6-82.1-11.5
		C330.6,474.3,294.9,475.4,276.2,475.5z"/>
	<path class="st1" d="M337.3,516c12.4,1.8,32.8,5.5,52.4,5.7c9.4,0.1,18.9,0.4,28.1,0.8v-3.3c-12.6-1.8-21.9-3.2-23.1-3.5
		C391.7,514.7,356,515.9,337.3,516z"/>
	<path class="st1" d="M337.2,515.9c-5.6-0.7-9.6-1.1-11-0.6C324.9,515.8,329.7,516,337.2,515.9z"/>
	<path class="st1" d="M417.7,491.9c-29.1-0.4-84.2-2-86.9-2c-3.1,0.1,39.8,4.4,86.9,7V491.9z"/>
	<path class="st1" d="M417.8,14.1v-2.6c-16.1-0.3-33.7-1.3-42.8-2.8c0,0,0.2,0,0.4,0c-0.1,0-0.3,0-0.4-0.1c0,0,21.8-1.8,42.8-1.9V5
		c-40.6,0.2-82.9,3.6-82.9,3.6C352.5,11.6,386.7,13.5,417.8,14.1z"/>
	<path class="st2" d="M375,8.7c9.1,1.5,26.7,2.5,42.8,2.8V6.8c-19.3,0.1-39.3,1.6-42.4,1.9C375.2,8.7,375,8.7,375,8.7z"/>
	<path class="st1" d="M388.8,72.6c-18,2.2-61.2,4.7-65.6,9.4c-2.2,2.4,46.4,7.6,94.5,9.9v-4.2c-30.2-1.8-57.4-5-57.7-6.6
		c0-0.1,0-0.1,0.1-0.2c3.3-3.6,35.6-6.6,49.3-7.3c1.5-0.1,3.1-0.1,4.6-0.2c1.2-0.1,2.5-0.1,3.7-0.2v-3.6
		C408.7,70.4,399.1,71.4,388.8,72.6z"/>
	<path class="st2" d="M409.4,73.6c-13.7,0.7-46,3.7-49.3,7.3c0,0-0.1,0.1-0.1,0.2c0.3,1.6,27.4,4.8,57.7,6.6V73.2
		c-1.2,0-2.5,0.1-3.7,0.2C412.5,73.5,410.9,73.5,409.4,73.6z"/>
	<path class="st1" d="M323.2,43.2c2.2,0.5,65.6,5.3,70,4.2c1.3-0.3,11.2-0.1,24.6,0.3h0V43h0c-9.5-0.7-19.3-1.4-28.9-1.9
		C359.7,39.5,318.2,42,323.2,43.2z"/>
	<path class="st1" d="M390.5,34.9c-12.6-2-33.5-6.1-53.6-6.6c-56.2-1.5-121.3-4.1-117.7-3.8s108.2,8.3,112.4,9.7
		C334.6,35.2,371.3,34.7,390.5,34.9z"/>
	<path class="st1" d="M401.8,35.7c1.3-0.5-3.5-0.7-11.3-0.8C396.3,35.8,400.3,36.3,401.8,35.7z"/>
	<path class="st1" d="M157.8,11.7c1.4,0.7,5.5,0.5,11.3,0.1c19.1,1.3,55.5,4.8,58.6,4.1c4.4-1.1,103.5,3.7,107.2,3.7
		c3.7,0-55.4-6.8-111.5-10c-20-1.1-41.4,1.3-54.3,2.2C161.4,11.3,156.5,11.1,157.8,11.7z"/>
	<path class="st1" d="M367,20.6c0,0,30,2.4,50.8,3.6v-3.5C392.5,20.3,367,20.6,367,20.6z"/>
	<path class="st1" d="M361.2,145.8c14.1,9.4,35,12,56.5,11.4v-4.3c-12.8-0.4-24.8-2.6-33.3-8.3c-4-2.6-5.6-4.9-5.4-6.8
		c0.4-5.8,17.6-8.5,38.7-8.1v-4.1C374.2,123.5,337.4,129.9,361.2,145.8z"/>
	<path class="st2" d="M384.4,144.6c8.5,5.7,20.5,7.9,33.3,8.3v-0.1v-22.9c-20.9-0.4-38.1,2.1-38.7,7.9
		C378.8,139.7,380.4,142,384.4,144.6z"/>
	<path class="st1" d="M156.5,192.2c40.4,7.4,140.6-2.5,140.6-2.5C254.6,183.3,116.1,184.8,156.5,192.2z M257,190.4
		c0,0-52,5.1-72.9,1.3c-2.6-0.5-3.8-0.9-3.8-1.3C180.2,187.7,237.7,187.4,257,190.4z"/>
	<path class="st2" d="M180.3,190.4c0,0.4,1.2,0.8,3.8,1.3c20.9,3.8,72.9-1.3,72.9-1.3C237.7,187.4,180.2,187.7,180.3,190.4z"/>
	<path class="st1" d="M227,141.6c22.8-0.6,67.6-0.7,81,3.3c19.9,6,52.5,20.6,93.2,18.3c0,0-65.9-6.7-82.3-20.1
		C305,132,252.9,139.1,227,141.6z"/>
	<path class="st1" d="M215.3,142.4c2.6,0,6.7-0.3,11.7-0.7C216,141.9,210.1,142.3,215.3,142.4z"/>
	<path class="st1" d="M340,121.8c5.8-4.4,47-3.8,77.7-2.8v-2.4C317.4,108.6,331,128.6,340,121.8z"/>
	<path class="st1" d="M241,126.7c17.9-2.5,61.1-5.8,65.3-10.6c4.2-4.8-191.6-17.1-186.7,0.1C124.6,133.5,163.4,137.5,241,126.7z
		 M267.5,116.9c1.4,0.3,2.1,0.7,1.9,1c-3.1,3.7-35.3,7.2-49,8.1c-62.4,4.3-87.4,5.2-91.2-8c-0.1-0.2-0.1-0.4-0.1-0.6
		C129.5,105.9,250.8,112.9,267.5,116.9z"/>
	<path class="st2" d="M129.2,118c3.8,13.2,28.8,12.3,91.2,8c13.7-0.9,45.9-4.4,49-8.1c0.3-0.3-0.4-0.6-1.9-1
		c-16.7-4-137.3-10.9-138.4,0.4C129.1,117.6,129.1,117.8,129.2,118z"/>
	<path class="st1" d="M307.6,154.9c-2.2-0.5-65.8-4.1-70.1-3c-4.3,1.1-103.6-1.8-107.2-1.8c-3.6,0.1,55.6,5.8,111.8,8
		C271.3,159.3,312.6,156,307.6,154.9z"/>
	<path class="st1" d="M417.8,172.4v-3c-22.6-0.7-45.2-1.4-55-1.8C360.3,167.5,384.8,170,417.8,172.4z"/>
	<path class="st1" d="M240.6,164.4c-5.8-0.8-9.8-1.2-11.3-0.6C228,164.3,232.9,164.5,240.6,164.4z"/>
	<path class="st1" d="M383.8,175.6c12.7,1.6,22,2.8,23.1,2.8C408.3,178.5,399.1,177.2,383.8,175.6z"/>
	<path class="st1" d="M240.6,164.4c12.7,1.8,33.7,5.5,53.8,5.7c33.1,0.3,67.5,3.2,89.4,5.5c-30.7-3.9-81.2-10.6-84.2-11.5
		C296.5,163.1,259.8,164.3,240.6,164.4z"/>
	<path class="st1" d="M303.3,204.8c12.7,1.8,33.7,5.5,53.8,5.7c20.9,0.2,42.2,1.4,60.7,2.9v-1.1c-26.4-3.5-53.4-7.1-55.5-7.8
		C359.2,203.6,322.5,204.7,303.3,204.8z"/>
	<path class="st1" d="M292,204.2c-1.3,0.5,3.6,0.7,11.3,0.6C297.5,204,293.5,203.6,292,204.2z"/>
	<path class="st1" d="M404,180.5c-4.3,1.1-103.6-1.8-107.2-1.8c-3.6,0.1,55.6,5.8,111.8,8c3,0.1,6.1,0.1,9.2,0.1v-6.1
		C410.5,180.4,405.1,180.3,404,180.5z"/>
	<path class="st1" d="M160.9,493.8c2.5,0.2,6.5,0,11.4-0.4C161.6,493.2,155.9,493.4,160.9,493.8z"/>
	<path class="st1" d="M261.5,500.6c-12.2-16.7-63.6-9.3-89.2-7.2c22.2,0.4,65.8,2.6,78.4,9.1c18.7,9.5,48.7,32.2,88.6,31.1
		C339.4,533.6,276.1,520.5,261.5,500.6z"/>
	<path class="st1" d="M249.3,516.7c-2.1-0.8-63.5-9.4-67.8-8c-4.3,1.4-100.5-8.2-104.1-8.3c-3.5-0.1,53.4,11.3,107.8,17.4
		C213.5,521,254,518.5,249.3,516.7z"/>
	<path class="st1" d="M172.2,525c-1.3,0.7,3.4,1.1,10.9,1.5C177.6,525.1,173.7,524.3,172.2,525z"/>
	<path class="st1" d="M321,550.1c12.2,3,21.1,5.1,22.1,5.3C344.6,555.6,335.7,553.3,321,550.1z"/>
	<path class="st1" d="M137.1,539.6c-4.3,1.4-100.5-8.2-104.1-8.3c-3.5-0.1,32.7,9.6,87.1,15.7c28.3,3.2,174.7,11.6,174.7,11.6
		S141.5,538.2,137.1,539.6z"/>
	<path class="st1" d="M87.3,319.7c-20.5-4.2-57.1-4-87.3-2.9v2.2c16-1,46-2.3,60.4,0.7c2.6,0.5,3.7,1,3.6,1.4
		c0.6,2.3-40.2,2.2-64-0.1v3.1C52.6,326.7,115.7,325.6,87.3,319.7z"/>
	<path class="st2" d="M64,321.1c-0.1-0.4-1.2-0.8-3.6-1.3C46,316.8,16,318.1,0,319v2C23.8,323.2,64.7,323.4,64,321.1z"/>
	<path class="st1" d="M0,369v1.5c6.3-0.5,12.1-1.1,17-1.5C12.2,369.1,6.3,369.1,0,369z"/>
	<path class="st1" d="M28.4,368.5c-2.5-0.1-6.5,0.1-11.4,0.5C27.7,369,33.5,368.7,28.4,368.5z"/>
	<path class="st1" d="M20.1,385c1-0.1,1.9-0.1,2.7-0.2c21-1.1,37.6-1.8,50.6-1.8c24.8,0,36,2.8,38.1,11.5c2.3,9.6-71.3,6-111.4,1.9
		v4.8c53.7,4,123.2,5.7,120.6-4.8c-4.3-17.3-41.9-22.1-117.9-12.6C1.9,383.9,1,384,0,384.1v2.6c0.3,0,0.6-0.1,0.9-0.1
		C7.8,385.8,14.8,385.3,20.1,385z"/>
	<path class="st2" d="M111.4,394.5c-2.1-8.7-13.4-11.5-38-11.5c-13,0-29.6,0.8-50.6,1.8c-0.8,0-1.7,0.1-2.7,0.2
		c-5.2,0.3-12.2,0.9-19.2,1.6c-0.3,0-0.6,0.1-0.9,0.1c0,0-0.1,0-0.1,0v9.6c0,0,0.1,0,0.1,0C40.2,400.4,113.8,404,111.4,394.5z"/>
	<path class="st1" d="M76,418.4c-2.6,2.4-40.9-2.4-76-7.3v2.2C88.5,427.3,80.2,414.4,76,418.4z"/>
	<path class="st1" d="M7.1,358.5c4.3-1.1,84.7,7.7,88.3,7.7c3.6,0-37.9-10.8-92.6-14c-0.9-0.1-1.9-0.1-2.8-0.1v6.5
		C3.7,358.7,6.3,358.7,7.1,358.5z"/>
	<path class="st1" d="M15.4,346.9c1.3-0.5-3.5-0.7-11-0.8C10.1,347,14,347.4,15.4,346.9z"/>
	<path class="st1" d="M0,345.3v0.7c1.6,0,3,0,4.4,0C3.1,345.9,1.6,345.6,0,345.3z"/>
	<path class="st1" d="M49.7,336c4.3-1.1,100.9,3.7,104.4,3.7c3.6,0-39.8-3.7-94.5-6.8c-17.3-1-42.6-1.2-59.6-1.2v1.6
		C19.2,334.7,46.9,336.6,49.7,336z"/>
	<path class="st1" d="M118.9,263.9C94.7,241.3,34.1,229.4,0,233.3v39.3C44.1,291.6,118.9,263.9,118.9,263.9z M4.6,259.4
		c-12.1-13.4,1.3-19.5,22.1-19.7c25.1-0.2,61.2,8.1,76.7,22.6c-0.1,0-29.7,11-57.9,11.1c-13.1,0-25.9-2.2-35.4-9
		C8.1,262.9,6.3,261.2,4.6,259.4z"/>
	<path class="st2" d="M45.5,273.4c28.3-0.1,57.8-11.1,57.8-11.1c-15.5-14.4-51.5-22.8-76.6-22.6C5.9,239.9-7.5,246,4.6,259.4
		c1.7,1.8,3.5,3.5,5.5,4.9C19.5,271.1,32.4,273.4,45.5,273.4z"/>
	<path class="st1" d="M18.8,286.8c0,0-7.9-1.6-18.8-4.7v3.4C6,286.6,12.3,287,18.8,286.8z"/>
	<path class="st1" d="M140.3,306.9c-20.5-2.3-58.4-8.2-55.3-7.6c32.8,5.5-43.8-2-85-6.3v1.9c20.7,3.9,55.2,9.8,88.8,13.5
		C107.4,310.5,127.6,308,140.3,306.9z"/>
	<path class="st1" d="M152.8,307.3c-1.4-1.1-6-0.9-12.5-0.4C148.5,307.9,154,308.2,152.8,307.3z"/>
	<path class="st1" d="M0,303.3c0.2,0.1,0.3,0.1,0.5,0.1C0.3,303.4,0.2,303.3,0,303.3z"/>
	<path class="st1" d="M0.5,303.4c12.2,3,21.1,5.1,22.1,5.3C24.1,308.9,15.2,306.5,0.5,303.4z"/>
	<path class="st1" d="M0,587.2v6.4c30,2.5,71.9,6.6,74.3,6.7C77.1,600.4,41.8,593.2,0,587.2z"/>
	<path class="st1" d="M14.5,561.1c4.3-1.4,100.5,8.2,104.1,8.3c3.6,0.1-32.7-9.6-87.1-15.7c-6-0.7-17.3-1.6-31.5-2.6v8.9
		C8.4,560.9,13.8,561.3,14.5,561.1z"/>
	<path class="st1" d="M113,454.5c-24-13.8-78.2-19.9-113-17.6v6.9c0.6-0.2,1.3-0.4,1.9-0.5c21-5.3,74.3-1.4,95.4,10.6c0,0,0,0-0.1,0
		c0,0,0.1,0,0.1,0.1c0,0-67.6,20.7-97.3,2.7v9.5C45.6,475.1,113,454.5,113,454.5z"/>
	<path class="st1" d="M97.3,454c0,0-0.1,0-0.1-0.1c-21.1-12.1-74.2-16-95.2-10.7c-0.7,0.2-1.3,0.4-1.9,0.5v12.8v0.1
		C29.7,474.7,97.3,454,97.3,454z"/>
	<path class="st3" d="M97.3,454c0,0-0.1,0-0.1-0.1c-21.1-12.1-74.2-16-95.2-10.7c-0.7,0.2-1.3,0.4-1.9,0.5v12.8v0.1
		C29.7,474.7,97.3,454,97.3,454z"/>
	<path class="st1" d="M14.9,474.4c0,0-6-0.6-14.9-1.9v2C4.8,474.7,9.8,474.7,14.9,474.4z"/>
	<path class="st1" d="M63.2,431c-26.6-3.1-47.2-4.6-63.2-5v3.5C33.6,429.7,72,432,63.2,431z"/>
	<path class="st1" d="M150.2,483.5c-1.5-0.7-6-0.4-12.5,0.2C146,484.1,151.4,484.1,150.2,483.5z"/>
	<path class="st1" d="M137.7,483.7c-18.4-0.7-50.8-2.8-55.4-3.2c31.2,2.5-40.3,0.4-82.3-1v1.5c21.2,1.9,54.3,4.5,86.3,5.7
		C105.1,487.5,125,485,137.7,483.7z"/>
	<path class="st1" d="M82.3,480.5c-0.1,0-0.2,0-0.4,0C81.5,480.5,81.7,480.5,82.3,480.5z"/>
	<path class="st1" d="M0,486.9c11.3,1.5,19.4,2.5,20.4,2.6C21.7,489.6,13.7,488.4,0,486.9z"/>
	<path class="st1" d="M81.5,529.9C81.5,529.9,81.5,529.9,81.5,529.9C81.7,529.9,81.7,529.9,81.5,529.9z"/>
	<path class="st1" d="M59,527.1c12.4,1.6,21.4,2.8,22.5,2.8C80.3,529.7,71.9,528.6,59,527.1z"/>
	<path class="st1" d="M0,519.2v3.3c22.6,1.1,43.8,3,59,4.7C41.6,524.9,17.6,521.7,0,519.2z"/>
	<path class="st1" d="M85.9,494.7c-1.4-0.6-5.3-0.4-11.1,0.1C82.4,495.1,87.1,495.2,85.9,494.7z"/>
	<path class="st1" d="M74.8,494.7c-18.7-1-54.2-3.9-57.3-3.1c-1,0.4-7.8,0.4-17.5,0.3v5c7.3,0.4,14.7,0.8,22.1,1
		C41.6,498.7,62.3,495.9,74.8,494.7z"/>
	<path class="st1" d="M136.4,429.4c39.3,7.4,137.1-2.5,137.1-2.5C232,420.4,97.1,422,136.4,429.4z M234.4,427.5
		c0,0-27.3,2.8-49.9,2.7c-8.2,0-15.8-0.4-21.2-1.4c-11.7-2.2,6.7-3.4,28.4-3.4C207.6,425.4,225.3,426.1,234.4,427.5z"/>
	<path class="st2" d="M163.3,428.8c5.4,1,13,1.4,21.2,1.4c22.6,0,49.8-2.7,49.8-2.7c-9-1.4-26.7-2.1-42.6-2.1
		C170,425.4,151.6,426.6,163.3,428.8z"/>
	<path class="st1" d="M205.1,378.8c-10.7,0.3-16.5,0.6-11.4,0.7C196.2,379.5,200.2,379.2,205.1,378.8z"/>
	<path class="st1" d="M205.1,378.8c22.2-0.6,65.9-0.7,79,3.3c19.4,6,51.1,20.6,90.8,18.3c0,0-64.2-6.7-80.2-20.1
		C281.2,369.1,230.4,376.3,205.1,378.8z"/>
	<path class="st1" d="M218.8,363.8c17.5-2.5,59.5-5.8,63.6-10.6c4.1-4.8-186.7-17.1-181.9,0.1S143.1,374.7,218.8,363.8z
		 M109.8,355.1c-3.6-13.1,135.3-4.1,136.6-0.3c0,0.1,0,0.1,0,0.2c-3,3.7-34.4,7.2-47.7,8.2C137.9,367.4,113.4,368.3,109.8,355.1z"/>
	<path class="st2" d="M246.4,355c0-0.1,0.1-0.1,0-0.2c-1.3-3.8-140.3-12.8-136.6,0.3c3.6,13.2,28.1,12.3,88.9,8.1
		C212,362.2,243.4,358.7,246.4,355z"/>
	<path class="st1" d="M130.1,328.6c10.9-3.1,159.7,17.1,149.1,15.2C128.4,316.6,123.6,330.6,130.1,328.6z"/>
	<path class="st1" d="M283.7,392.1c-2.1-0.5-64.1-4.1-68.3-3c-4.2,1.1-88.8-11.5-102.4-11.5c-3.6,0,52,15.5,106.8,17.7
		C248.3,396.5,288.6,393.2,283.7,392.1z"/>
	<path class="st1" d="M380.4,415.5c1.5,0.1-7.5-1.2-22.5-2.8C370.3,414.3,379.3,415.5,380.4,415.5z"/>
	<path class="st1" d="M218.4,401.5c12.4,1.8,32.8,5.5,52.4,5.7c32.3,0.3,65.7,3.2,87.1,5.5c-29.9-3.9-79.2-10.6-82.1-11.5
		C272.9,400.3,237.1,401.4,218.4,401.5z"/>
	<path class="st1" d="M207.4,400.9c-1.3,0.5,3.5,0.7,11,0.6C212.8,400.7,208.8,400.3,207.4,400.9z"/>
	<path class="st1" d="M132.3,457.7c12.5,0.8,33.4,2.8,52.9,1.3c32.1-2.4,65.8-2.3,87.4-1.8c-30.3-1.4-80.3-3.9-83.3-4.6
		C186.2,451.9,150.9,456,132.3,457.7z"/>
	<path class="st1" d="M295.3,458.1c-1.3-0.1-9.9-0.6-22.8-0.9C284.9,457.8,294.1,458.2,295.3,458.1z"/>
	<path class="st1" d="M295.3,458.1C295.3,458.1,295.3,458.1,295.3,458.1C295.5,458.1,295.5,458.1,295.3,458.1z"/>
	<path class="st1" d="M121.2,458c-1.2,0.6,3.6,0.4,11.1-0.3C126.5,457.4,122.5,457.4,121.2,458z"/>
	<path class="st1" d="M241.8,415.4c0,0-64.1-4.1-68.3-3c-4.2,1.1-101-1.8-104.5-1.8s39.9,3,94.7,5.1
		C192.1,416.9,241.8,415.4,241.8,415.4z"/>
	<path class="st1" d="M238.2,234c40-27.3-95-26.6-137.1-2.5C101.1,231.5,198.2,261.3,238.2,234z M116.8,231
		c14.7-8.4,45.1-12.9,69.3-13c25.7-0.1,44.4,4.7,29.5,14.8C186.8,252.5,116.8,231,116.8,231z"/>
	<path class="st2" d="M186.1,218c-24.2,0.1-54.6,4.6-69.3,13c0,0,70,21.5,98.8,1.8C230.4,222.6,211.8,217.9,186.1,218z"/>
	<path class="st1" d="M199.3,251.4c39.7,2.3,71.5-12.4,90.8-18.3c13.1-4,56.7-3.9,79-3.3c-25.3-2.5-76.1-9.7-89.6,1.5
		C263.4,244.7,199.3,251.4,199.3,251.4z"/>
	<path class="st1" d="M380.4,230.5c5.1-0.1-0.7-0.5-11.4-0.7C373.9,230.3,377.9,230.6,380.4,230.5z"/>
	<path class="st1" d="M258.9,210c9.7,7.5,24.7-17.5-107.9-2C136.5,209.7,249.2,202.4,258.9,210z"/>
	<path class="st1" d="M242.2,298.6c19.6-0.2,40-3.9,52.4-5.7c-18.7-0.1-54.5-1.3-57.4-0.3c-4.1,1.3-95.1-0.6-109.2,0.7
		C124.5,293.7,187.4,299.1,242.2,298.6z"/>
	<path class="st1" d="M305.7,292.3c-1.4-0.6-5.4-0.2-11,0.6C302.2,293,307,292.9,305.7,292.3z"/>
	<path class="st1" d="M196.5,268.7c-3-0.8-38.5,2.1-57.2,3.1c-5.7-0.6-9.7-0.8-11.1-0.1c-1.2,0.6,3.5,0.5,11,0.1
		c12.5,1.2,33.3,3.9,52.8,3.2c54.8-2.2,112.5-7.9,109-8C297.5,266.8,200.8,269.8,196.5,268.7z"/>
	<path class="st1" d="M188.7,76.5c2.5,0,6.5-0.3,11.4-0.7C189.4,76.1,183.6,76.4,188.7,76.5z"/>
	<path class="st1" d="M369.9,97.4c0,0-64.2-6.7-80.2-20.1c-13.5-11.2-64.2-4-89.6-1.5c22.2-0.6,65.9-0.7,79,3.3
		c17.6,5.4,45.4,18,80.1,18.5c0.5,0,1,0,1.5,0c-0.5,0-1.1,0-1.6,0c24.7,4.4,43.8,7.1,58.7,8.8h0V104h0c-15.8-2-33.2-4.3-48.8-6.5
		C369.3,97.5,369.6,97.5,369.9,97.4z"/>
	<path class="st1" d="M95.5,50.3c4.8,17.2,42.6,21.4,118.3,10.5c17.5-2.5,59.5-5.8,63.6-10.6C281.5,45.4,90.7,33.1,95.5,50.3z
		 M230.3,51.3c-2.6,3.2-29.6,6.2-41.1,7c-41,2.8-62.8,3.9-71.7-1.3c-0.2-0.1-0.3-0.2-0.5-0.3c-0.1-0.1-0.3-0.2-0.4-0.3
		c-2-1.3-3.2-3.1-3.8-5.2c-3-11,114.6-3.6,117.5-0.2C230.3,51.1,230.4,51.2,230.3,51.3z"/>
	<path class="st2" d="M189.1,58.1c11.5-0.7,38.5-3.7,41.1-6.9c0.1-0.1,0-0.1,0-0.2c-2.8-3.3-120.5-10.8-117.5,0.2
		c0.6,2.2,1.8,3.9,3.8,5.2c0.1,0.1,0.3,0.2,0.4,0.3c0.2,0.1,0.3,0.2,0.5,0.3C126.5,62.1,148.3,61,189.1,58.1z"/>
	<path class="st1" d="M139.5,27.5c4.8-4.8,145.3,15.2,134.7,13.3C123.4,13.6,134.7,32.3,139.5,27.5z"/>
	<path class="st1" d="M214.9,92.3c28.4,1.2,68.7-2.1,63.8-3.2c-2.1-0.5-64.1-4.1-68.3-3c-4.2,1.1-101-1.8-104.5-1.8
		C102.3,84.4,160.1,90.1,214.9,92.3z"/>
	<path class="st1" d="M352.9,109.7c12.4,1.6,21.4,2.8,22.5,2.8C376.9,112.6,367.9,111.3,352.9,109.7z"/>
	<path class="st1" d="M202.4,97.9c-1.3,0.5,3.5,0.7,11,0.6C207.8,97.7,203.8,97.3,202.4,97.9z"/>
	<path class="st1" d="M213.4,98.5c12.4,1.8,32.8,5.5,52.4,5.7c32.3,0.3,65.7,3.2,87.1,5.5c-29.9-3.9-79.2-10.6-82.1-11.5
		C267.9,97.3,232.1,98.4,213.4,98.5z"/>
	<path class="st1" d="M57.8,8.6C43.7,5.7,22.1,4.9,0,5v1.8c11.5-0.1,22.8,0.3,30.1,1.8c2.7,0.6,3.9,1,3.7,1.4
		C34.1,11.5,18,11.9,0,11.6v2.6C43.7,15,81.2,13.3,57.8,8.6z"/>
	<path class="st2" d="M33.8,10c0.1-0.4-1-0.9-3.7-1.4C22.8,7.1,11.5,6.7,0,6.8v4.7C17.6,11.8,33.3,11.4,33.8,10z"/>
	<path class="st1" d="M92.1,85.2C88.3,70.2,58.7,64.6,0,69.6v3.6c56.4-2.7,79.4-2.6,82.5,10.1c1.2,4.5-15.1,6.1-36.9,6.1
		c-14,0-30.2-0.7-45.6-1.7V92C47.3,94.2,94.2,93.8,92.1,85.2z"/>
	<path class="st2" d="M82.5,83.3C79.4,70.6,56.4,70.5,0,73.2v14.5c15.4,1,31.7,1.6,45.6,1.7C67.4,89.4,83.7,87.8,82.5,83.3z"/>
	<path class="st1" d="M46.2,107.3c-1.8,1.7-21.9-0.2-46.2-3.1v2.4C56.7,113,49.9,103.8,46.2,107.3z"/>
	<path class="st1" d="M0,43v4.7c30.9,1,80.1,3.3,82.6,3.3C85.6,51.1,45.7,46.4,0,43z"/>
	<path class="st1" d="M29.5,21.7c-8.5-0.5-18.9-0.8-29.4-0.9v3.5c9.8,0.5,17.7,0.8,19.1,0.5c4.4-1.1,103.5,3.7,107.2,3.7
		C130,28.5,85.6,24.8,29.5,21.7z"/>
	<path class="st1" d="M0,125.7v4.1c24.3,0.4,53.6,4.9,68.1,13c0,0-36.4,10.9-68.1,10v4.4c41.1-1.1,84.1-13.9,84.1-13.9
		C66.1,133.2,31.3,127.2,0,125.7z"/>
	<path class="st2" d="M68.1,142.8c-14.5-8.1-43.8-12.5-68.1-13v23C31.7,153.7,68.1,142.8,68.1,142.8z"/>
	<path class="st1" d="M33,119.8c-12.2-1.4-23.1-2.4-33-3.2v2.4C22.4,119.7,39.3,120.5,33,119.8z"/>
	<path class="st1" d="M109.4,172.6c-18.9-0.7-52.2-2.9-56.8-3.2c25,2-13.8,1.1-52.6,0v3c17.5,1.3,37.3,2.5,56.8,3.2
		C76.1,176.4,96.5,173.8,109.4,172.6z"/>
	<path class="st1" d="M52.6,169.4c-0.1,0-0.2,0-0.4,0C51.8,169.4,52,169.4,52.6,169.4z"/>
	<path class="st1" d="M122.3,172.4c-1.5-0.7-6.2-0.4-12.9,0.2C118,172.9,123.6,172.9,122.3,172.4z"/>
	<path class="st1" d="M28.7,216c12.7,1.6,22,2.8,23.1,2.8C53.3,218.9,44,217.6,28.7,216z"/>
	<path class="st1" d="M0,212.3v1.1c10.8,0.9,20.6,1.8,28.7,2.6C20.2,214.9,10.1,213.6,0,212.3z"/>
	<path class="st1" d="M0,180.8v6.1c17.1-0.2,34.1-2.3,45-3.3C32.7,183,13.2,181.5,0,180.8z"/>
	<path class="st1" d="M56.3,183.5c-1.4-0.6-5.5-0.4-11.3,0.1C52.7,184,57.6,184.1,56.3,183.5z"/>
</g>
</svg>
