<svg id="Layer_1" xmlns="http://www.w3.org/2000/svg" xmlns:xlink="http://www.w3.org/1999/xlink" viewBox="0 0 80 80"><style>.st0{fill:#3f362f}.st1{fill:#fff6d5}</style><path class="st0" d="M69.1 63l-34.5 9.7c-3 .8-6.1-.9-6.9-3.9L16.1 27.6c-.8-3 .9-6.1 3.9-6.9L54.5 11c3-.8 6.1.9 6.9 3.9L73 56.1c.8 3-.9 6.1-3.9 6.9z"/><path class="st1" d="M28.4 69.7l-1.9.8 1.6 2.9 3.7-.2 1.9-1.8-2.4-1.8z"/><path class="st1" d="M70 61.8L32.3 72.6c-2.5.7-5-1.7-5.7-4.2l-12.1-43c-.7-2.5.8-5.1 3.3-5.8l36-10.2c2.5-.7 5.1.8 5.8 3.3l12.1 43c.8 2.4.9 5.4-1.7 6.1z"/><path class="st0" d="M24.6 67.7s1.7 6.9 4.6 6.3c2.9-.6 4.6-1.1 7.2-1.8-.8-.1 4.2-2.1-4 .3-3.1.9-4.6.1-4.9-.6-1.1-2.4-2.3-6.9-2.3-6.9"/><path d="M31.2 70.8l-3 .9c-.9.3-.6 1.7-.5 1.9-.8-.4-1.3-1.5-1.4-1.7-1.3-2.1-2.7-8.1-2.7-8.1" fill="#66584c"/><defs><path id="SVGID_1_" d="M65.7 61l-34.5 9.7c-3 .8-6.1-.9-6.9-3.9L12.7 25.6c-.8-3 .9-6.1 3.9-6.9L51 9c3-.8 6.1.9 6.9 3.9l11.7 41.3c.8 2.9-.9 6-3.9 6.8z"/></defs><clipPath id="SVGID_2_"><use xlink:href="#SVGID_1_" overflow="visible"/></clipPath><path d="M65.7 61l-34.5 9.7c-3 .8-6.1-.9-6.9-3.9L12.7 25.6c-.8-3 .9-6.1 3.9-6.9L51 9c3-.8 6.1.9 6.9 3.9l11.7 41.3c.8 2.9-.9 6-3.9 6.8z" clip-path="url(#SVGID_2_)" fill="#66584c"/><g clip-path="url(#SVGID_2_)"><path class="st0" d="M37.5 39.2c1 .5 2.1.8 3.1.7 1 0 2-.4 2.7-1.1.7-.7 1.1-1.6 1.2-2.6.1-.9 0-1.9-.4-2.5-.4-.6-1.2-1-2.1-1.3-.9-.3-1.9-.4-2.8-.4-1.9 0-3.8.7-5 1.8-.6.6-1.1 1.2-1.4 2-.3.8-.5 1.6-.6 2.4 0 1.6.6 3 1.8 4 1.2 1.1 2.8 1.8 4.5 2 1.9.3 3.1.1 4.5-.6 2.7-1.5 5-5 5.5-8.3.1-.8.2-1.6.1-2.3-.1-.7-.3-1.4-.6-2-.6-1.3-1.7-2.5-3.1-3.5-2.8-2-6.6-3.1-10.1-3-1.8.1-3.4.4-4.9 1.1-1.5.7-2.9 1.7-4.1 3-2.4 2.5-4.1 6.1-4.8 9.7a16.53 16.53 0 0 0 1.1 10.5c1.5 3.1 4.2 5.6 7.6 7.2 3.4 1.6 7.4 2.3 11.4 2.2 1 0 2-.1 3-.2.9-.2 1.8-.3 2.7-.6 1.8-.6 3.6-1.5 5.2-2.6 3.3-2.3 6-5.5 8.1-9.1 4.3-7.3 6.1-16.1 5.2-25 2.6 8.5 1.9 18.2-1.8 26.7a32.2 32.2 0 0 1-8.4 11.4c-1.9 1.6-4 3-6.3 3.9-1.2.5-2.4.8-3.7 1.1-1.2.2-2.4.5-3.6.6-4.8.5-9.9 0-14.6-1.9a22.1 22.1 0 0 1-11.7-10.3c-1.3-2.4-2-5-2.3-7.6-.3-2.6-.2-5.3.2-7.8 1-5 3.2-9.9 6.8-13.7 1.8-1.9 4.1-3.6 6.6-4.7s5.4-1.7 8-1.7c2.7 0 5.3.4 7.7 1.2 2.5.8 4.9 2 7 3.7 2.1 1.7 4.1 3.8 5.3 6.6.6 1.4.9 2.9 1.1 4.4.1 1.5 0 2.9-.3 4.3-.6 2.7-1.7 5.2-3.3 7.3-1.6 2.1-3.6 4-6.3 5.2a12.4 12.4 0 0 1-8.5.7c-2.6-.6-5.1-2-7-4.1-.9-1.1-1.7-2.3-2.2-3.7-.5-1.4-.6-2.9-.4-4.3.2-1.4.7-2.7 1.3-3.9.7-1.2 1.6-2.3 2.8-3.1 2.3-1.6 5-2.1 7.5-1.9 1.3.1 2.5.4 3.7 1 1.2.5 2.3 1.3 3 2.7.6 1.4.5 2.7.1 3.9-.4 1.2-1 2.3-2.1 3.1-1 .8-2.3 1-3.5.8-.9-.2-2-.7-2.9-1.4z"/></g></svg>