<svg xmlns="http://www.w3.org/2000/svg" xmlns:xlink="http://www.w3.org/1999/xlink" viewBox="0 0 70 70"><defs><path id="a" d="M11.5 30.5l2.9-6.1c.1-.2.1-.5.1-.7-.4-2.4-1.8-16 16.2-16.4 19.8-.4 17.6 14.1 17.8 16.9s-5.3 10-4.7 22.7c.5 11.3-13.9 4.5-17 2.9-.4-.2-.6-.6-.7-1v-.2l-.8-3.4c-.1-.6-.7-1-1.4-.9-2.1.3-6.5.5-7.7-3.4-1.1-3.4-1.2-5.5-1.1-6.6 0-.5-.3-1-.7-1.2l-2.3-.9c-.6-.3-.8-1.1-.6-1.7z"/></defs><clipPath id="b"><use xlink:href="#a" overflow="visible"/></clipPath><path d="M11.5 30.5l2.9-6.1c.1-.2.1-.5.1-.7-.4-2.4-1.8-16 16.2-16.4 19.8-.4 17.6 14.1 17.8 16.9s-5.3 10-4.7 22.7c.5 11.3-13.9 4.5-17 2.9-.4-.2-.6-.6-.7-1v-.2l-.8-3.4c-.1-.6-.7-1-1.4-.9-2.1.3-6.5.5-7.7-3.4-1.1-3.4-1.2-5.5-1.1-6.6 0-.5-.3-1-.7-1.2l-2.3-.9c-.6-.3-.8-1.1-.6-1.7z" clip-path="url(#b)" fill="#db955a"/><defs><path id="c" d="M11.5 30.5l2.9-6.1c.1-.2.1-.5.1-.7-.4-2.4-1.8-16 16.2-16.4 19.8-.4 17.6 14.1 17.8 16.9s-5.3 10-4.7 22.7c.5 11.3-13.9 4.5-17 2.9-.4-.2-.6-.6-.7-1v-.2l-.8-3.4c-.1-.6-.7-1-1.4-.9-2.1.3-6.5.5-7.7-3.4-1.1-3.4-1.2-5.5-1.1-6.6 0-.5-.3-1-.7-1.2l-2.3-.9c-.6-.3-.8-1.1-.6-1.7z"/></defs><clipPath id="d"><use xlink:href="#c" overflow="visible"/></clipPath><path d="M24.3 6.5s18.6 1.2 21.1 9.3c2.2 7.2 1.6 8.3.9 11.6s-1.1 10.9-1.2 14.8l11.1-21.5-5.8-19.5-24.4.6-1.7 4.7z" clip-path="url(#d)" fill="#bf8051"/><g><defs><path id="e" d="M11.5 30.5l2.9-6.1c.1-.2.1-.5.1-.7-.4-2.4-1.8-16 16.2-16.4 19.8-.4 17.6 14.1 17.8 16.9s-5.3 10-4.7 22.7c.5 11.3-13.9 4.5-17 2.9-.4-.2-.6-.6-.7-1v-.2l-.8-3.4c-.1-.6-.7-1-1.4-.9-2.1.3-6.5.5-7.7-3.4-1.1-3.4-1.2-5.5-1.1-6.6 0-.5-.3-1-.7-1.2l-2.3-.9c-.6-.3-.8-1.1-.6-1.7z"/></defs><clipPath id="f"><use xlink:href="#e" overflow="visible"/></clipPath><path d="M20 24.6l-.6-.7a4.65 4.65 0 0 1-.2-5.5l.4-.6c.2-.2.3-.5.4-.8l1.3-2.9c.7-1.6 2.2-2.6 3.9-2.8l2.5-.2h.9l5.4.7c.1 0 .3 0 .4.1l5 1.1c1 .2 1.9.8 2.6 1.6l.3.4c.7.8 1 1.9 1 3v3.1c0 .2 0 .5-.1.7l-.5 3.1c-.3 1.9-1.8 3.4-3.7 3.8l-2.7.5-3.3.5c-1.3.2-2.6-.1-3.6-1-1-.8-2.2-1.1-3.4-1-1 .1-2.1-.1-2.9-.7L21 25.7c-.2-.4-.6-.7-1-1.1z" clip-path="url(#f)" fill="#bf8051"/></g><g><defs><path id="g" d="M11.5 30.5l2.9-6.1c.1-.2.1-.5.1-.7-.4-2.4-1.8-16 16.2-16.4 19.8-.4 17.6 14.1 17.8 16.9s-5.3 10-4.7 22.7c.5 11.3-13.9 4.5-17 2.9-.4-.2-.6-.6-.7-1v-.2l-.8-3.4c-.1-.6-.7-1-1.4-.9-2.1.3-6.5.5-7.7-3.4-1.1-3.4-1.2-5.5-1.1-6.6 0-.5-.3-1-.7-1.2l-2.3-.9c-.6-.3-.8-1.1-.6-1.7z"/></defs><clipPath id="h"><use xlink:href="#g" overflow="visible"/></clipPath><path d="M10.7 30.6s4.6.5 4.3 3.1L13.7 36 11 34l-.3-3.4z" clip-path="url(#h)" fill="#bf8051"/></g><g><defs><path id="i" d="M11.5 30.5l2.9-6.1c.1-.2.1-.5.1-.7-.4-2.4-1.8-16 16.2-16.4 19.8-.4 17.6 14.1 17.8 16.9s-5.3 10-4.7 22.7c.5 11.3-13.9 4.5-17 2.9-.4-.2-.6-.6-.7-1v-.2l-.8-3.4c-.1-.6-.7-1-1.4-.9-2.1.3-6.5.5-7.7-3.4-1.1-3.4-1.2-5.5-1.1-6.6 0-.5-.3-1-.7-1.2l-2.3-.9c-.6-.3-.8-1.1-.6-1.7z"/></defs><clipPath id="j"><use xlink:href="#i" overflow="visible"/></clipPath><path d="M13.5 43.1s9.2 5.4 25.1-4.1c0 0-2.3 4.8-15.3 8.1" clip-path="url(#j)" fill="#bf8051"/></g></svg>