<svg xmlns="http://www.w3.org/2000/svg" xmlns:xlink="http://www.w3.org/1999/xlink" viewBox="0 0 80 80"><path d="M60.9 41.8c-4-5.7-8.3-11.7-9.2-13.1-.1-.2-.2-.4-.2-.7l-.8-10c0-.4.1-.8.4-1.1l3.5-2.6c.3-.2.5-.6.5-1 0-.7-.6-1.3-1.3-1.3H30.2c-.7 0-1.3.6-1.3 1.3 0 .4.2.8.5 1l2.8 2.3c.3.3.5.7.5 1.2l-.7 5.9c-.4 3.2-1.5 6.3-3.3 8.9l-5.9 8.8c-4.5 6.7-4.6 15.5-.3 22.3l.4.6c3.7 5.9 10.3 9.5 17.3 9.5h4.9c6.6-.1 12.8-3.5 16.3-9.1l.2-.3c4.3-7 4-15.9-.7-22.6zm-11.8-1l-15.1-3c-2.4-.5-3.5-3.2-2.1-5.2l1.7-2.5c.3-.5.5-1.1.6-1.7l.6-11.5c0-.1 0-.2-.1-.3l-2.4-2.3c-.2-.2-.1-.6.2-.6h18.8c.3 0 .5.4.2.6L49 16.4c-.1.1-.1.2-.1.2l-.6 11.9c0 .8.2 1.6.7 2.2l3.5 4.7c1.9 2.6-.3 6-3.4 5.4z" fill="#e5e5e5"/><path d="M36.4 16.8l-2.6-8.2c-.4-1.2.5-2.5 1.8-2.5h11.9c1.2 0 2.2 1.2 1.8 2.4l-2.2 8.2c-.2.8-1 1.4-1.8 1.4h-7.1c-.8 0-1.5-.6-1.8-1.3z" fill="#cc9a69"/><g><defs><path id="a" d="M30.7 33.6l-6 8.8c-3.9 5.7-4.2 13.1-.8 19l.7 1.2c3.2 5.6 9.2 9.1 15.6 9.1h3.9c6.3 0 12.3-3.4 15.5-8.9 3.8-6.3 3.3-14.3-1.2-20.2l-7.1-9.2c-.7-1-2.1-1.3-3.2-.7l-.7.4c-1 .5-2.3.2-2.9-.8l-1.6-3.1c-.4-.8-1.6-.9-2.3-.2l-1.2 1.4c-.7.9-1.9 1.2-3.1.9v.1c-2.1-.5-4.4.3-5.6 2.2z"/></defs><clipPath id="b"><use xlink:href="#a" overflow="visible"/></clipPath><path d="M30.7 33.6l-6 8.8c-3.9 5.7-4.2 13.1-.8 19l.7 1.2c3.2 5.6 9.2 9.1 15.6 9.1h3.9c6.3 0 12.3-3.4 15.5-8.9 3.8-6.3 3.3-14.3-1.2-20.2l-7.1-9.2c-.7-1-2.1-1.3-3.2-.7l-.7.4c-1 .5-2.3.2-2.9-.8l-1.6-3.1c-.4-.8-1.6-.9-2.3-.2l-1.2 1.4c-.7.9-1.9 1.2-3.1.9v.1c-2.1-.5-4.4.3-5.6 2.2z" clip-path="url(#b)" fill="#d33124"/><path d="M41.6 28.1l3 6.7c.5 1.1 1.9 1.4 2.9.7.8-.6 2.2-.5 2.8.4l5.5 8.1c3.7 5.2 4.1 12.1 1 17.8-2.6 4.8-7.1 8.1-12.5 9l-6.6 1.1H44c6.4 0 13.4-2.6 16.7-8.1l.3-1c3.8-6.4 3.8-14.5-.8-20.4L51.6 32c-.6-.7-2.4-1.2-3.2-.8l-1.2 1.2c-.9.5-1-.5-1.5-1.3l-3.9-3.4-.2.4z" clip-path="url(#b)" fill="#af2620"/></g></svg>