<svg id="Layer_1" xmlns="http://www.w3.org/2000/svg" viewBox="0 0 80 80"><style>.st0{fill:#b34a30}</style><path class="st0" d="M52.5 54.9L69 62.6l-7.2.2L63 70z"/><path fill="#213533" d="M66.7 18.7l-3.6 43.9-1.2 1.2-42.4 10 .4.6L63.6 66l1.8-2.7 2-44.4z"/><path class="st0" d="M61.8 62.8L63 70 53 55.5z"/><path d="M23.4 29.8c-18.9 22.3-3.5 44.6-3.5 44.6S13.7 52 29.6 33.3s37.8-14.4 37.8-14.4-26-10.3-44 10.9z" fill="#936342"/><path d="M23.4 29.7c-19 22.3-3.5 44.7-3.5 44.7s1.6.9.9-.2c-3.6-5.9-6.2-26.4 7-41.9 15.9-18.7 39.6-13.5 39.6-13.5s1.4-.4-.1-.8c-6.7-1.9-29.1-5.7-43.9 11.7z" fill="#ab734c"/><path fill="#684730" d="M63.1 62.6L19.6 25.3l-1.3 1.6 43.8 37.3z"/><path fill="#aaa" d="M25 25.8l-14-6.3 8.6 12.8.2-5.5z"/></svg>