<?xml version="1.0" encoding="utf-8"?>
<!-- Generator: Adobe Illustrator 22.1.0, SVG Export Plug-In . SVG Version: 6.00 Build 0)  -->
<svg version="1.1" id="Layer_1" xmlns="http://www.w3.org/2000/svg" xmlns:xlink="http://www.w3.org/1999/xlink" x="0px" y="0px"
	 viewBox="0 0 70 70" style="enable-background:new 0 0 70 70;" xml:space="preserve">
<style type="text/css">
	.st0{clip-path:url(#SVGID_2_);fill:#A28B68;}
	.st1{clip-path:url(#SVGID_4_);fill:#877358;}
	.st2{clip-path:url(#SVGID_6_);fill:#A28B68;}
	.st3{clip-path:url(#SVGID_8_);fill:#877358;}
	.st4{fill:#998167;}
	.st5{fill:#423219;}
	.st6{fill:#5B4124;}
	.st7{fill:#DDC250;}
	.st8{fill:#F2D455;}
	.st9{fill:#C1AA48;}
</style>
<g>
	<g>
		<g>
			<g>
				<defs>
					<path id="SVGID_1_" d="M26.7,16.4L21,12c-0.8-0.6-0.5-1.9,0.5-2.1l0,0c0.3-0.1,0.6-0.2,0.7-0.5l1.4-2c0.3-0.4,0.7-0.6,1.2-0.5
						l3.1,0.7c0.4,0.1,0.8,0,1.1-0.3l2-1.9c0.4-0.4,1-0.4,1.5-0.1l2,1.3c0.3,0.2,0.7,0.2,0.9,0.1l2.8-0.8c0.3-0.1,0.6-0.1,0.9,0.1
						l1.8,0.9c0.5,0.3,0.7,0.9,0.6,1.4l-0.7,2.2c-0.1,0.1-0.1,0.3-0.2,0.4L36.1,16c-0.2,0.2-0.5,0.4-0.9,0.4l-7.6,0.2
						C27.2,16.7,27,16.6,26.7,16.4z"/>
				</defs>
				<clipPath id="SVGID_2_">
					<use xlink:href="#SVGID_1_"  style="overflow:visible;"/>
				</clipPath>
				<path class="st0" d="M26.7,16.4L21,12c-0.8-0.6-0.5-1.9,0.5-2.1l0,0c0.3-0.1,0.6-0.2,0.7-0.5l1.4-2c0.3-0.4,0.7-0.6,1.2-0.5
					l3.1,0.7c0.4,0.1,0.8,0,1.1-0.3l2-1.9c0.4-0.4,1-0.4,1.5-0.1l2,1.3c0.3,0.2,0.7,0.2,0.9,0.1l2.8-0.8c0.3-0.1,0.6-0.1,0.9,0.1
					l1.8,0.9c0.5,0.3,0.7,0.9,0.6,1.4l-0.7,2.2c-0.1,0.1-0.1,0.3-0.2,0.4L36.1,16c-0.2,0.2-0.5,0.4-0.9,0.4l-7.6,0.2
					C27.2,16.7,27,16.6,26.7,16.4z"/>
			</g>
			<g>
				<defs>
					<path id="SVGID_3_" d="M26.7,16.4L21,12c-0.8-0.6-0.5-1.9,0.5-2.1l0,0c0.3-0.1,0.6-0.2,0.7-0.5l1.4-2c0.3-0.4,0.7-0.6,1.2-0.5
						l3.1,0.7c0.4,0.1,0.8,0,1.1-0.3l2-1.9c0.4-0.4,1-0.4,1.5-0.1l2,1.3c0.3,0.2,0.7,0.2,0.9,0.1l2.8-0.8c0.3-0.1,0.6-0.1,0.9,0.1
						l1.8,0.9c0.5,0.3,0.7,0.9,0.6,1.4l-0.7,2.2c-0.1,0.1-0.1,0.3-0.2,0.4L36.1,16c-0.2,0.2-0.5,0.4-0.9,0.4l-7.6,0.2
						C27.2,16.7,27,16.6,26.7,16.4z"/>
				</defs>
				<clipPath id="SVGID_4_">
					<use xlink:href="#SVGID_3_"  style="overflow:visible;"/>
				</clipPath>
				<path class="st1" d="M35.8,16.2l3.7-5.8c0.1-0.1,0.1-0.1,0.1-0.2l0.6-1.7c0.1-0.5,0-1-0.4-1.4l-0.7-0.6
					c-0.3-0.3-0.7-0.4-1.2-0.4c-0.9,0.1-2.3,0.1-2.5,0.2C33.1,6.9,38,4.8,38,4.8l4.4,1.6l0.7,4.1l-6.9,6L35.8,16.2z"/>
			</g>
		</g>
		<g>
			<g>
				<defs>
					<path id="SVGID_5_" d="M37.7,19l5.3,7c0.6,0.8,1,1.7,1.3,2.7l3.3,14.1c0.7,3.3-0.9,6.6-3.9,8.1l-0.1,0.1
						c-0.9,0.4-1.8,0.7-2.8,0.7l-16.2,0.7c-0.9,0-1.7-0.1-2.5-0.4l0,0c-3.1-1-5-3.9-4.9-7.1l0.7-13c0.1-1.4,0.6-2.8,1.4-3.9l6.4-9
						c1.4-1.8,3.5-2.9,5.8-2.9H32C34.2,16.2,36.3,17.2,37.7,19z"/>
				</defs>
				<clipPath id="SVGID_6_">
					<use xlink:href="#SVGID_5_"  style="overflow:visible;"/>
				</clipPath>
				<path class="st2" d="M37.7,19l5.3,7c0.6,0.8,1,1.7,1.3,2.7l3.3,14.1c0.7,3.3-0.9,6.6-3.9,8.1l-0.1,0.1c-0.9,0.4-1.8,0.7-2.8,0.7
					l-16.2,0.7c-0.9,0-1.7-0.1-2.5-0.4l0,0c-3.1-1-5-3.9-4.9-7.1l0.7-13c0.1-1.4,0.6-2.8,1.4-3.9l6.4-9c1.4-1.8,3.5-2.9,5.8-2.9H32
					C34.2,16.2,36.3,17.2,37.7,19z"/>
			</g>
			<g>
				<defs>
					<path id="SVGID_7_" d="M37.7,19l5.3,7c0.6,0.8,1,1.7,1.3,2.7l3.3,14.1c0.7,3.3-0.9,6.6-3.9,8.1l-0.1,0.1
						c-0.9,0.4-1.8,0.7-2.8,0.7l-16.2,0.7c-0.9,0-1.7-0.1-2.5-0.4l0,0c-3.1-1-5-3.9-4.9-7.1l0.7-13c0.1-1.4,0.6-2.8,1.4-3.9l6.4-9
						c1.4-1.8,3.5-2.9,5.8-2.9H32C34.2,16.2,36.3,17.2,37.7,19z"/>
				</defs>
				<clipPath id="SVGID_8_">
					<use xlink:href="#SVGID_7_"  style="overflow:visible;"/>
				</clipPath>
				<path class="st3" d="M27.9,15.9l3.9,1.5c1.5,0.7,2.8,1.7,3.8,3.1l4.6,6.7c0.4,0.7,0.7,1.4,0.9,2.2l2.7,13.5V43
					c0.4,2.5,0.6,5.8-1.7,6.8L25.8,53l25.3-2.2l-1.5-19.2l-8.2-11.7L37,15.3L27.9,15.9z"/>
			</g>
		</g>
		<path class="st4" d="M32.4,15.9l-0.1-0.1l1.8-7.6c0.1-0.4,0.3-0.6,0.5-0.6l0,0c0.4,0,0.4,0.6,0.1,1.1L32.4,15.9z"/>
		<path class="st4" d="M30,16.4l-0.3-0.2l-1.5-7c-0.1-0.3,0-0.6,0.2-0.7l0,0c0.4-0.2,0.6,0.4,0.7,0.9L30,16.4z"/>
		<path class="st4" d="M28.4,16.4l-4.6-5.8c-0.2-0.2-0.2-0.5-0.1-0.7l0,0c0.2-0.3,0.9-0.1,1.1,0.4l3.6,5.9V16.4z"/>
		<path class="st5" d="M26.7,17.1H27c2.6,0.1,5.2,0,7.8-0.4l1.6-0.2c0.4-0.1,0.9,0.1,0.9,0.4v0.1c0,0.2-0.2,0.4-0.6,0.5l-2.5,0.4
			c-2,0.2-4.1,0.3-6.2,0.1l-1.7-0.1c-0.4,0-0.7-0.2-0.7-0.4l0,0C25.9,17.3,26.2,17.1,26.7,17.1z"/>
		<path class="st5" d="M36.3,16.5h-0.4c-2.6-0.1-5.2,0-7.8,0.4l-1.6,0.2c-0.4,0.1-0.9-0.1-0.9-0.4v-0.1c0-0.2,0.2-0.4,0.6-0.5
			l2.5-0.4c2-0.2,4.1-0.3,6.2-0.1l1.7,0.1c0.4,0,0.7,0.2,0.7,0.4l0,0C37.1,16.3,36.7,16.5,36.3,16.5z"/>
		<path class="st6" d="M26.4,16.5h0.4c2.6,0.1,5.2-0.1,7.8-0.4l1.6-0.2c0.4-0.1,0.9,0.1,0.9,0.4v0.1c0,0.2-0.2,0.4-0.6,0.4l-2.4,0.3
			c-2,0.2-4.1,0.2-6.2,0.1l-1.7-0.1c-0.4,0-0.7-0.1-0.7-0.4l0,0C25.6,16.7,26,16.5,26.4,16.5z"/>
	</g>
	<g>
		<g>
			<path class="st7" d="M29.2,51.5c0-1.4-3.1-2.6-6.9-2.6s-6.9,1.1-6.9,2.6c0,0.1,0,0.8,0,1c0,1.4,3.1,2.6,6.9,2.6s6.9-1.1,6.9-2.6
				C29.2,52.2,29.2,51.6,29.2,51.5z"/>
			<path class="st8" d="M29.2,49c0-1.4-3.1-2.6-6.9-2.6s-6.9,1.1-6.9,2.6c0,0.1,0,0.8,0,1c0,1.4,3.1,2.6,6.9,2.6s6.9-1.1,6.9-2.6
				C29.2,49.8,29.2,49.2,29.2,49z"/>
			<path class="st9" d="M20.6,52.7c0-1.4-3.1-2.6-6.9-2.6s-6.9,1.1-6.9,2.6c0,0.1,0,0.8,0,1c0,1.4,3.1,2.6,6.9,2.6s6.9-1.1,6.9-2.6
				C20.6,53.5,20.6,52.9,20.6,52.7z"/>
			<path class="st7" d="M20.6,50.2c0-1.4-3.1-2.6-6.9-2.6s-6.9,1.1-6.9,2.6c0,0.1,0,0.8,0,1c0,1.4,3.1,2.6,6.9,2.6s6.9-1.1,6.9-2.6
				C20.6,51,20.6,50.4,20.6,50.2z"/>
			<path class="st8" d="M20.6,47.8c0-1.4-3.1-2.6-6.9-2.6s-6.9,1.1-6.9,2.6c0,0.1,0,0.8,0,1c0,1.4,3.1,2.6,6.9,2.6s6.9-1.1,6.9-2.6
				C20.6,48.6,20.6,47.9,20.6,47.8z"/>
		</g>
	</g>
</g>
</svg>
