<?xml version="1.0" encoding="utf-8"?>
<!-- Generator: Adobe Illustrator 22.1.0, SVG Export Plug-In . SVG Version: 6.00 Build 0)  -->
<svg version="1.0" id="Layer_1" xmlns="http://www.w3.org/2000/svg" xmlns:xlink="http://www.w3.org/1999/xlink" x="0px" y="0px"
	 viewBox="0 0 220 220" style="enable-background:new 0 0 220 220;" xml:space="preserve">
<style type="text/css">
	.st0{fill:#726322;}
	.st1{clip-path:url(#SVGID_2_);fill:#827325;}
	.st2{clip-path:url(#SVGID_2_);fill:#726322;}
	.st3{fill:#564D18;}
	.st4{fill:#982E38;}
	.st5{fill:#C8B383;}
	.st6{fill:none;stroke:#8C7C5D;stroke-width:0.75;stroke-miterlimit:10;}
	.st7{fill:#827325;}
	.st8{fill:#31272A;}
	.st9{fill:#44383D;}
	.st10{fill:#66581F;}
	.st11{clip-path:url(#SVGID_4_);fill:#726322;}
	.st12{clip-path:url(#SVGID_4_);fill:#66581F;}
	.st13{clip-path:url(#SVGID_6_);fill:#827325;}
	.st14{clip-path:url(#SVGID_6_);fill:#726322;}
	.st15{display:none;fill:#827325;}
	.st16{clip-path:url(#SVGID_8_);fill:#C4985B;}
	.st17{clip-path:url(#SVGID_8_);fill:#A37C4D;}
	.st18{fill:#6D4F38;}
	.st19{fill:#5B412F;}
</style>
<g>
	<g id="Tête">
		<g>
			<polyline class="st0" points="99.3,84.8 107.6,92.2 99.4,98.7 109.6,105.5 119.2,95 133.5,81 			"/>
			<g>
				<g>
					<defs>
						<polygon id="SVGID_1_" points="63.6,52.6 72.6,36.9 92.9,24.8 119.4,23.6 139,29.5 156.5,44 154.6,58.4 138,80 115.4,92.8 
							88.1,84.1 67.2,67.2 						"/>
					</defs>
					<clipPath id="SVGID_2_">
						<use xlink:href="#SVGID_1_"  style="overflow:visible;"/>
					</clipPath>
					<polygon class="st1" points="63.6,52.6 72.6,36.9 92.9,24.8 119.4,23.6 139,29.5 156.5,44 154.6,58.4 138,80 115.4,92.8 
						88.1,84.1 67.2,67.2 					"/>
					<polygon class="st2" points="122.1,23.1 137,33.2 141.1,48.2 140,63.6 127.8,81.3 115.4,92.8 135.9,99.3 185.9,78.1 
						200.3,31.3 149.6,2.1 					"/>
				</g>
				<polygon class="st3" points="144.2,43.7 135.3,40.8 128.4,43.6 123.6,51.2 131.6,55.2 141.1,52.2 				"/>
				<polygon class="st3" points="74,50.9 82,46.2 89.4,47.5 95.8,53.8 88.7,59.5 78.9,58.6 				"/>
				<polygon class="st4" points="77.7,52.7 82.1,47.9 89.3,48.5 94.3,54.2 88,57.8 82.3,57.3 				"/>
				<polygon class="st4" points="140.4,44.2 139,50.6 132.4,53.6 125.3,51.2 129,44.9 134.2,42.5 				"/>
				<polygon class="st5" points="112,64.1 100.9,66.6 90.4,69.9 77.6,67.6 72.6,63.9 77.8,72.9 94,79.2 112.3,81.7 130.4,76.2 
					143.3,68.8 149.7,59.5 150.4,54.2 145.3,60.6 136.2,65.6 122.6,65.2 				"/>
				<path class="st6" d="M79.6,71.9l1.5-2.2l2.7,3.9l3.2-3.1l2.6,5.5l3.6-5.5l5.7,7.8c0,0,2-9.9,2.3-9.5c0.3,0.4,4.2,10.2,4.2,10.2
					l4.9-12.3l5.4,11.2l2.1-10.1l4.9,7.5l2.6-6.8l3.9,5.8l2-6.4l2.5,3.2l2.6-4.4l2.4,2l1.5-3.7l2.7,1.7l0.9-3.4"/>
				<polygon class="st0" points="110.3,52.1 102.1,53.8 98.2,59.2 105.7,62 108.5,69 112,73.5 114.7,68.4 115.3,61.5 122,57.2 
					118.7,53 				"/>
				<polygon class="st0" points="143.9,40 150.2,21.2 168.2,6.2 179.8,2.5 174.1,9.5 161.5,18 153.5,30.3 149.1,41.2 				"/>
				<polygon class="st3" points="179.8,2.5 177.6,7 178.5,9.4 175,11.5 175,15.8 172.1,16.9 171.1,21.6 164.6,27.8 156.9,36.2 
					149.1,41.2 145.7,39.8 154.4,22.8 162,14 173,7.1 				"/>
				<polygon class="st7" points="77.5,41.6 67.6,24.5 46.9,13.3 34.9,11.9 41.8,17.7 55.9,23.5 66.2,34 72.7,43.7 				"/>
				<polygon class="st3" points="34.9,11.9 38.2,16.8 37.7,19.1 43,19.8 40.4,23.7 44.6,24.9 46.6,28.6 54.8,33.8 64.1,40.4 
					71.8,43.6 75.7,41.7 63.9,26.8 54.6,19.7 42.4,15.1 				"/>
			</g>
		</g>
	</g>
	<g id="Armes">
		<g>
			<polygon class="st8" points="172.4,66.2 187.5,80.3 199.1,106.5 177.2,87.9 166,67.6 154.8,54.9 158.2,52.1 			"/>
			<polygon class="st9" points="199.1,106.5 176.5,75.8 172,68.1 169.3,73.6 173.3,80.9 177.2,87.9 			"/>
			<circle class="st9" cx="157.8" cy="54.3" r="4.4"/>
		</g>
		<g>
			<polygon class="st8" points="52,77.3 40.1,89.8 31.8,112.1 49.1,95.6 57.3,78.1 66,67 63,64.8 			"/>
			<polygon class="st9" points="31.8,112.1 49,85.5 52.3,78.8 51.9,89.6 49.1,95.6 			"/>
			<circle class="st9" cx="63" cy="67.2" r="3.6"/>
		</g>
	</g>
	<g id="Corps">
		<polygon class="st7" points="103.2,93.3 93.2,89.7 83.7,101.1 89.9,114.3 90.3,128.2 89.2,144.3 94.7,155.5 117.9,158.1 
			143,154.7 128,128.1 129.2,111.8 141.2,101.7 137,90.7 129.5,93.8 119.2,95 112.4,101.6 		"/>
		<g>
			<polyline class="st7" points="106.4,114.6 94.6,112.4 79.5,97.3 65,89.8 54.7,91.3 49.7,89.1 42.4,87.3 41.6,84 44,82.7 
				42.2,78.2 46.4,76.9 45.6,71.8 49.5,71.7 49.3,67.4 52.8,67.3 57.6,69.1 62.5,75.5 71.6,82.6 87.4,88.8 98.3,90.7 100.6,106.2 
				110.6,112.5 			"/>
			<polygon class="st0" points="44,82.7 46.8,81.9 53,84.9 47.1,80.8 43.9,82.3 			"/>
			<polygon class="st0" points="46.3,76.9 49.2,76.6 54.6,80.8 49.6,75.7 46.3,76.4 			"/>
			<polygon class="st0" points="49.4,71.6 52.3,71.8 56.9,76.9 53,71 			"/>
		</g>
		<g>
			<polyline class="st0" points="129.4,108.3 141.2,106 151.1,86.3 158.7,78.6 171.1,79.4 174.7,76.1 182,74.3 182.8,71 180.4,69.7 
				182.2,65.2 177.9,63.9 178.7,58.8 174.8,58.8 174.9,54.4 171.5,54.4 166.7,56.2 161.9,62.6 156.6,71.5 145.8,78.6 136.1,85.7 
				127.7,91.9 122.5,102.5 			"/>
			<polygon class="st10" points="179.8,69.7 177,68.8 170.8,71.7 176.8,67.8 180,69.3 			"/>
			<polygon class="st10" points="177.7,63.9 174.8,63.6 169.3,67.7 174.3,62.6 177.6,63.4 			"/>
			<polygon class="st10" points="174.6,58.5 171.7,58.7 167,63.8 171,57.9 			"/>
		</g>
		<g>
			<defs>
				<polygon id="SVGID_3_" points="131.2,145.4 143,154.7 144.2,166.7 157.3,172.5 160.8,178.2 156.1,183.7 144.6,182.8 
					131.8,181.9 120.1,169.4 118.1,155.2 120.5,145.9 				"/>
			</defs>
			<clipPath id="SVGID_4_">
				<use xlink:href="#SVGID_3_"  style="overflow:visible;"/>
			</clipPath>
			<polygon class="st11" points="131.2,145.4 143,154.7 144.2,166.7 157.3,172.5 160.8,178.2 156.1,183.7 144.6,182.8 131.8,181.9 
				120.1,169.4 118.1,155.2 120.5,145.9 			"/>
			<polygon class="st12" points="137.3,155.5 138.9,169.4 158.5,174.3 159.1,166.4 147.9,164.8 140.3,155 			"/>
		</g>
		<g>
			<defs>
				<polygon id="SVGID_5_" points="106.5,150.6 122.7,150.6 114.2,174.3 127.3,183.4 128.4,188.8 122,193.6 111,190.1 98.7,186.3 
					90.2,171.5 93.8,159.8 96,148.7 				"/>
			</defs>
			<clipPath id="SVGID_6_">
				<use xlink:href="#SVGID_5_"  style="overflow:visible;"/>
			</clipPath>
			<polygon class="st13" points="106.5,150.6 122.7,150.6 114.2,174.3 127.3,183.4 128.4,188.8 122,193.6 111,190.1 98.7,186.3 
				90.2,171.5 93.8,159.8 96,148.7 			"/>
			<polygon class="st14" points="113.3,157.6 111.8,175 130,186.5 123.2,173.9 117.6,169.8 119.1,162.7 			"/>
		</g>
		<polygon class="st15" points="158,171.8 165.8,173.4 174.4,178.2 177.3,182.1 178.6,186.3 175.7,183 171.8,181.6 175.2,184.7 
			176.2,189.3 173.2,186 168.5,183.8 172,187.7 172.2,191.8 169.8,188.4 166.1,185.9 165.3,189.3 167.1,193 162.6,190.9 
			160.5,186.4 156.6,186.2 152.6,182.2 152.3,176.1 		"/>
		<polygon class="st15" points="119.7,192.3 124.2,198.8 132,204.9 136.7,206.1 141.1,205.7 136.9,204.2 134.1,201.2 138.3,203.1 
			142.9,202.2 138.7,200.7 134.8,197.3 139.8,199 143.7,197.6 139.6,196.7 135.9,194.3 138.7,192.2 142.8,192.4 139.1,189.1 
			134.1,188.9 132.5,185.4 127.2,183.3 121.5,185.4 		"/>
	</g>
	<g id="Vetements">
		<g>
			<defs>
				<polygon id="SVGID_7_" points="100.3,91.7 103,98.8 112.5,111.5 122.5,99.9 124.8,93.5 142.9,78.5 148.8,76.2 155.5,77.8 
					159.2,81.6 157.9,88.3 153,91.9 149.9,99.7 143.5,110.5 130.9,116.7 130.3,124.6 141.5,137.4 145.9,149.1 143.5,160 
					137.3,155.5 133.8,165.9 127.8,158.9 125,169.3 121.7,164.4 117.5,168.8 113.5,160.7 110.1,169.7 105,161.7 99,170.4 97,162.9 
					87.3,169.6 91.8,149.6 89.2,144.3 90.2,125 87.9,115.8 80.7,109.1 73.2,101.6 65.3,98 65.8,90.6 68.2,85.7 74,83.5 78.7,84.8 
					89.3,87.2 				"/>
			</defs>
			<clipPath id="SVGID_8_">
				<use xlink:href="#SVGID_7_"  style="overflow:visible;"/>
			</clipPath>
			<polygon class="st16" points="100.3,91.7 103,98.8 112.5,111.5 122.5,99.9 124.8,93.5 142.9,78.5 148.8,76.2 155.5,77.8 
				159.2,81.6 157.9,88.3 153,91.9 149.9,99.7 143.5,110.5 130.9,116.7 130.3,124.6 141.5,137.4 145.9,149.1 143.5,160 137.3,155.5 
				133.8,165.9 127.8,158.9 125,169.3 121.7,164.4 117.5,168.8 113.5,160.7 110.1,169.7 105,161.7 99,170.4 97,162.9 87.3,169.6 
				91.8,149.6 89.2,144.3 90.2,125 87.9,115.8 80.7,109.1 73.2,101.6 65.3,98 65.8,90.6 68.2,85.7 74,83.5 78.7,84.8 89.3,87.2 			
				"/>
			<polygon class="st17" points="160.7,81.1 156.5,82.7 147.2,90 144.4,99.5 137.2,107.5 130.6,111.9 122.7,117.5 126.1,120.9 
				119.4,127.9 130.3,130.4 130.9,136.7 135.1,144.6 129.7,153.4 127.7,160.5 135.1,167.8 139,159.7 145.1,161.5 148.7,148.5 
				143.5,130.9 144.7,114 148.1,105.2 155.6,95.7 162.2,87.6 162.7,80.8 			"/>
			<polygon class="st17" points="113,132.5 104.1,129.9 97.5,134.8 104.7,132.7 109,133.7 			"/>
			<polygon class="st17" points="118.9,138.1 113.5,141.3 105.5,140.7 101.6,146.2 106.3,143.6 113.5,144.1 119.6,140.3 
				123.8,135.7 			"/>
			<polygon class="st17" points="65.3,98 74.8,100.8 89.8,115.6 90.3,128.2 			"/>
		</g>
		<g>
			<polygon class="st18" points="118.7,190 119.1,195 122.9,199.1 129,204.4 132.7,214 136.5,216.4 142.4,209.5 142.8,203 
				134.5,193.8 132.7,181.8 123.6,178.9 120.1,184.4 			"/>
			<polygon class="st19" points="122.8,180.2 127.3,180 131.3,182.9 134.5,193.8 140.6,203.4 141.2,209 136.5,216.4 145.8,208.9 
				146.4,199.2 138.9,190 135,180.6 126.7,177.2 123.6,178.9 			"/>
		</g>
		<g>
			<polygon class="st18" points="150.3,184.7 152.4,188.8 157,191 164.1,193.3 170.6,200.2 174.7,200.9 177.2,193 175.2,185.8 
				165.1,182.4 159.3,172.8 150.6,173.6 149.5,179.5 			"/>
			<polygon class="st19" points="150.3,175 154.1,174.2 158.5,174.3 165.1,182.4 174.3,186.5 176.1,193 174.7,200.9 179.9,191.2 
				177.1,182.8 167.4,177.6 160.8,171 152.6,171.1 150.6,173.6 			"/>
		</g>
	</g>
</g>
</svg>
