<svg id="Layer_1" xmlns="http://www.w3.org/2000/svg" xmlns:xlink="http://www.w3.org/1999/xlink" viewBox="0 0 80 80"><style>.st1{clip-path:url(#SVGID_2_);fill:#969696}</style><defs><path id="SVGID_1_" d="M66.3 78.7c3.6-1.1 2.8-6-.1-9.5C63.4 65.7 42.5 31 42.6 30c.1-1 3.3-5 3-6.4-.3-1.4-13.5-23-13.8-23s9.1 18.2 9.1 18.2-.9 2.3-1.6 1.1c-.7-1.1-10.3-18.1-10.6-18s8.7 18.3 8.7 19.3-1.2.9-1.7.3c-.5-.6-9.8-18.2-10.4-17.6-.5.6 8.2 17.8 8 18.7-.2.9-1.3 1.1-1.9.2-.6-.9-8.5-17.5-9-17.3-.4.2 8.8 22.8 10.2 24.2 1.4 1.4 6.9 1.3 7.3 2.2.4.9 17.4 39.3 19.6 43.6 2.4 4.9 6.8 3.2 6.8 3.2z"/></defs><clipPath id="SVGID_2_"><use xlink:href="#SVGID_1_" overflow="visible"/></clipPath><path d="M66.3 78.7c3.6-1.1 2.8-6-.1-9.5C63.4 65.7 42.5 31 42.6 30c.1-1 3.3-5 3-6.4-.3-1.4-13.5-23-13.8-23s9.1 18.2 9.1 18.2-.9 2.3-1.6 1.1c-.7-1.1-10.3-18.1-10.6-18s8.7 18.3 8.7 19.3-1.2.9-1.7.3c-.5-.6-9.8-18.2-10.4-17.6-.5.6 8.2 17.8 8 18.7-.2.9-1.3 1.1-1.9.2-.6-.9-8.5-17.5-9-17.3-.4.2 8.8 22.8 10.2 24.2 1.4 1.4 6.9 1.3 7.3 2.2.4.9 17.4 39.3 19.6 43.6 2.4 4.9 6.8 3.2 6.8 3.2z" clip-path="url(#SVGID_2_)" fill="#b5b5b6"/><path class="st1" d="M65.3 79s3.8-1.4-.1-7.2C61.4 66.1 42.6 30 42.6 30s27.8 40 28.2 40.4S73 82 73 82l-7.6.3-.1-3.3zM45.9 25L30.8-1l1.3.7 14.4 24.2zM39.3 20.6c-1.1-.5-14.4-26.2-14.4-26.2l.8 1 15.1 23.7s-.7 1.8-1.5 1.5zM35.8 22.1c-.9-.5-14.4-25.6-14.4-25.6l.9.8 14.8 24.5s-.7.7-1.3.3zM31.6 23.6C30 22 18.8-3.1 18.8-3.1l1.3.8 13 25.3s-.9 1.2-1.5.6z"/><g><defs><path id="SVGID_3_" d="M41 40.8L9.2 20.7s-2.9-1.9-4 .1S22.5 42 32.7 46s2.7-5 13.8 2.6 24 17.7 25.2 18c1.8.4 7.5-2.8 4.1-6C72.3 57.2 41 40.8 41 40.8z"/></defs><clipPath id="SVGID_4_"><use xlink:href="#SVGID_3_" overflow="visible"/></clipPath><path d="M41 40.8L9.2 20.7s-2.9-1.9-4 .1S22.5 42 32.7 46s2.7-5 13.8 2.6 24 17.7 25.2 18c1.8.4 7.5-2.8 4.1-6C72.3 57.2 41 40.8 41 40.8z" clip-path="url(#SVGID_4_)" fill="#b5b5b6"/><path d="M5.2 20.7s2-.6 2.7-.1c.6.5 35.6 22.6 36.1 22.7.5.1 30.8 17.7 30.8 17.7 1.9 2.4 1.2 3.5.9 3.8-.4.3 3.1-2.6 3.1-2.6L74.2 54 25.6 27 5.7 16.3l-.5 4.4z" clip-path="url(#SVGID_4_)" fill="#969696"/></g></svg>