<svg id="Layer_1" xmlns="http://www.w3.org/2000/svg" xmlns:xlink="http://www.w3.org/1999/xlink" viewBox="0 0 70 70"><style>.st4{fill:#998167}.st5{fill:#423219}.st7{fill:#ddc250}.st8{fill:#f2d455}</style><defs><path id="SVGID_1_" d="M34.4 16.4L28.7 12c-.8-.6-.5-1.9.5-2.1.3-.1.6-.2.7-.5l1.4-2c.3-.4.7-.6 1.2-.5l3.1.7c.4.1.8 0 1.1-.3l2-1.9c.4-.4 1-.4 1.5-.1l2 1.3c.3.2.7.2.9.1l2.8-.8c.3-.1.6-.1.9.1l1.8.9c.5.3.7.9.6 1.4l-.7 2.2c-.1.1-.1.3-.2.4L43.8 16c-.2.2-.5.4-.9.4l-7.6.2c-.4.1-.6 0-.9-.2z"/></defs><clipPath id="SVGID_2_"><use xlink:href="#SVGID_1_" overflow="visible"/></clipPath><path d="M34.4 16.4L28.7 12c-.8-.6-.5-1.9.5-2.1.3-.1.6-.2.7-.5l1.4-2c.3-.4.7-.6 1.2-.5l3.1.7c.4.1.8 0 1.1-.3l2-1.9c.4-.4 1-.4 1.5-.1l2 1.3c.3.2.7.2.9.1l2.8-.8c.3-.1.6-.1.9.1l1.8.9c.5.3.7.9.6 1.4l-.7 2.2c-.1.1-.1.3-.2.4L43.8 16c-.2.2-.5.4-.9.4l-7.6.2c-.4.1-.6 0-.9-.2z" clip-path="url(#SVGID_2_)" fill="#a28b68"/><defs><path id="SVGID_3_" d="M34.4 16.4L28.7 12c-.8-.6-.5-1.9.5-2.1.3-.1.6-.2.7-.5l1.4-2c.3-.4.7-.6 1.2-.5l3.1.7c.4.1.8 0 1.1-.3l2-1.9c.4-.4 1-.4 1.5-.1l2 1.3c.3.2.7.2.9.1l2.8-.8c.3-.1.6-.1.9.1l1.8.9c.5.3.7.9.6 1.4l-.7 2.2c-.1.1-.1.3-.2.4L43.8 16c-.2.2-.5.4-.9.4l-7.6.2c-.4.1-.6 0-.9-.2z"/></defs><clipPath id="SVGID_4_"><use xlink:href="#SVGID_3_" overflow="visible"/></clipPath><path d="M43.5 16.2l3.7-5.8c.1-.1.1-.1.1-.2l.6-1.7c.1-.5 0-1-.4-1.4l-.7-.6c-.3-.3-.7-.4-1.2-.4-.9.1-2.3.1-2.5.2-2.3.6 2.6-1.5 2.6-1.5l4.4 1.6.7 4.1-6.9 6-.4-.3z" clip-path="url(#SVGID_4_)" fill="#877358"/><defs><path id="SVGID_5_" d="M45.4 19l5.3 7c.6.8 1 1.7 1.3 2.7l3.3 14.1c.7 3.3-.9 6.6-3.9 8.1l-.1.1c-.9.4-1.8.7-2.8.7l-16.2.7c-.9 0-1.7-.1-2.5-.4-3.1-1-5-3.9-4.9-7.1l.7-13c.1-1.4.6-2.8 1.4-3.9l6.4-9c1.4-1.8 3.5-2.9 5.8-2.9h.5c2.2.1 4.3 1.1 5.7 2.9z"/></defs><clipPath id="SVGID_6_"><use xlink:href="#SVGID_5_" overflow="visible"/></clipPath><path d="M45.4 19l5.3 7c.6.8 1 1.7 1.3 2.7l3.3 14.1c.7 3.3-.9 6.6-3.9 8.1l-.1.1c-.9.4-1.8.7-2.8.7l-16.2.7c-.9 0-1.7-.1-2.5-.4-3.1-1-5-3.9-4.9-7.1l.7-13c.1-1.4.6-2.8 1.4-3.9l6.4-9c1.4-1.8 3.5-2.9 5.8-2.9h.5c2.2.1 4.3 1.1 5.7 2.9z" clip-path="url(#SVGID_6_)" fill="#a28b68"/><g><defs><path id="SVGID_7_" d="M45.4 19l5.3 7c.6.8 1 1.7 1.3 2.7l3.3 14.1c.7 3.3-.9 6.6-3.9 8.1l-.1.1c-.9.4-1.8.7-2.8.7l-16.2.7c-.9 0-1.7-.1-2.5-.4-3.1-1-5-3.9-4.9-7.1l.7-13c.1-1.4.6-2.8 1.4-3.9l6.4-9c1.4-1.8 3.5-2.9 5.8-2.9h.5c2.2.1 4.3 1.1 5.7 2.9z"/></defs><clipPath id="SVGID_8_"><use xlink:href="#SVGID_7_" overflow="visible"/></clipPath><path d="M35.6 15.9l3.9 1.5c1.5.7 2.8 1.7 3.8 3.1l4.6 6.7c.4.7.7 1.4.9 2.2l2.7 13.5v.1c.4 2.5.6 5.8-1.7 6.8L33.5 53l25.3-2.2-1.5-19.2-8.2-11.7-4.4-4.6-9.1.6z" clip-path="url(#SVGID_8_)" fill="#877358"/></g><path class="st4" d="M40.1 15.9l-.1-.1 1.8-7.6c.1-.4.3-.6.5-.6.4 0 .4.6.1 1.1l-2.3 7.2zM37.7 16.4l-.3-.2-1.5-7c-.1-.3 0-.6.2-.7.4-.2.6.4.7.9l.9 7zM36.1 16.4l-4.6-5.8c-.2-.2-.2-.5-.1-.7.2-.3.9-.1 1.1.4l3.6 5.9v.2z"/><path class="st5" d="M34.4 17.1h.3c2.6.1 5.2 0 7.8-.4l1.6-.2c.4-.1.9.1.9.4v.1c0 .2-.2.4-.6.5l-2.5.4c-2 .2-4.1.3-6.2.1l-1.7-.1c-.4 0-.7-.2-.7-.4.3-.2.6-.4 1.1-.4z"/><path class="st5" d="M44 16.5h-.4c-2.6-.1-5.2 0-7.8.4l-1.6.2c-.4.1-.9-.1-.9-.4v-.1c0-.2.2-.4.6-.5l2.5-.4c2-.2 4.1-.3 6.2-.1l1.7.1c.4 0 .7.2.7.4-.2.2-.6.4-1 .4z"/><path d="M34.1 16.5h.4c2.6.1 5.2-.1 7.8-.4l1.6-.2c.4-.1.9.1.9.4v.1c0 .2-.2.4-.6.4l-2.4.3c-2 .2-4.1.2-6.2.1l-1.7-.1c-.4 0-.7-.1-.7-.4.1 0 .5-.2.9-.2z" fill="#5b4124"/><g><path class="st7" d="M36.9 51.5c0-1.4-3.1-2.6-6.9-2.6s-6.9 1.1-6.9 2.6v1c0 1.4 3.1 2.6 6.9 2.6s6.9-1.1 6.9-2.6v-1z"/><path class="st8" d="M36.9 49c0-1.4-3.1-2.6-6.9-2.6s-6.9 1.1-6.9 2.6v1c0 1.4 3.1 2.6 6.9 2.6s6.9-1.1 6.9-2.6v-1z"/><path d="M28.3 52.7c0-1.4-3.1-2.6-6.9-2.6s-6.9 1.1-6.9 2.6v1c0 1.4 3.1 2.6 6.9 2.6s6.9-1.1 6.9-2.6v-1z" fill="#c1aa48"/><path class="st7" d="M28.3 50.2c0-1.4-3.1-2.6-6.9-2.6s-6.9 1.1-6.9 2.6v1c0 1.4 3.1 2.6 6.9 2.6s6.9-1.1 6.9-2.6v-1z"/><path class="st8" d="M28.3 47.8c0-1.4-3.1-2.6-6.9-2.6s-6.9 1.1-6.9 2.6v1c0 1.4 3.1 2.6 6.9 2.6s6.9-1.1 6.9-2.6v-1z"/></g></svg>