<?xml version="1.0" encoding="utf-8"?>
<!-- Generator: Adobe Illustrator 22.1.0, SVG Export Plug-In . SVG Version: 6.00 Build 0)  -->
<svg version="1.0" id="Layer_2" xmlns="http://www.w3.org/2000/svg" xmlns:xlink="http://www.w3.org/1999/xlink" x="0px" y="0px"
	 viewBox="0 0 300 350" style="enable-background:new 0 0 300 350;" xml:space="preserve">
<style type="text/css">
	.st0{fill:#333333;}
	.st1{fill:#4D4D4D;}
	.st2{fill:#736357;}
	.st3{fill:#C7B299;}
</style>
<g>
	<polygon class="st0" points="300.1,36.6 300.1,29.6 296.6,33.1 	"/>
	<polygon class="st1" points="300.1,0 297.3,0 300.1,2.8 	"/>
	<polygon class="st0" points="300.1,77.5 300.1,70.5 296.6,74 	"/>
	<polygon class="st0" points="300.1,118.3 300.1,111.3 296.6,114.8 	"/>
	<polygon class="st0" points="300.1,159.2 300.1,152.2 296.6,155.7 	"/>
	<polygon class="st0" points="300.1,200 300.1,193.1 296.6,196.6 	"/>
	<polygon class="st0" points="300.1,240.9 300.1,233.9 296.6,237.4 	"/>
	<polygon class="st0" points="300.1,281.8 300.1,274.8 296.6,278.3 	"/>
	<polygon class="st0" points="300.1,322.6 300.1,315.6 296.6,319.2 	"/>
	<polygon class="st1" points="300.1,350 300.1,349.4 299.5,350 	"/>
	<polygon class="st0" points="281.8,0 263.5,0 272.7,9.1 	"/>
	<path class="st0" d="M293.2,29.4L293.2,29.4l2.6-2.6l0,0l4.3-4.3V2.8L297.3,0h-8.5l-12.6,12.6L293.2,29.4z M293.2,8.4
		c2.3,0,4.1,1.8,4.1,4.1c0,2.3-1.8,4.1-4.1,4.1c-2.3,0-4.1-1.8-4.1-4.1C289.1,10.2,290.9,8.4,293.2,8.4z"/>
	<polygon class="st0" points="272.7,49.9 289.7,32.9 272.7,16.1 255.7,33.1 	"/>
	<path class="st2" d="M293.2,16.6c2.3,0,4.1-1.8,4.1-4.1c0-2.3-1.8-4.1-4.1-4.1c-2.3,0-4.1,1.8-4.1,4.1
		C289.1,14.7,290.9,16.6,293.2,16.6z"/>
	<polygon class="st0" points="272.7,90.8 289.7,73.8 272.7,57 255.7,74 	"/>
	<path class="st0" d="M293,36.6l-16.8,16.8l17,16.8v0l2.6-2.6l0,0l4.3-4.3V43.6L293,36.6z M297.3,53.3c0,2.3-1.8,4.1-4.1,4.1
		c-2.3,0-4.1-1.8-4.1-4.1s1.8-4.1,4.1-4.1C295.5,49.3,297.3,51.1,297.3,53.3z"/>
	<path class="st2" d="M293.2,49.3c-2.3,0-4.1,1.8-4.1,4.1s1.8,4.1,4.1,4.1c2.3,0,4.1-1.8,4.1-4.1S295.5,49.3,293.2,49.3z"/>
	<polygon class="st0" points="272.7,131.6 289.7,114.7 272.7,97.8 255.7,114.8 	"/>
	<path class="st0" d="M252.2,77.5l-16.8,16.8l17,16.8v0l2.6-2.6l0,0l14.2-14.2L252.2,77.5z M252.3,98.3c-2.3,0-4.1-1.8-4.1-4.1
		c0-2.3,1.8-4.1,4.1-4.1c2.3,0,4.1,1.8,4.1,4.1C256.4,96.5,254.6,98.3,252.3,98.3z"/>
	<circle class="st2" cx="252.3" cy="94.2" r="4.1"/>
	<path class="st0" d="M293,77.5l-16.8,16.8l17,16.8v0l2.6-2.6l0,0l4.3-4.3V84.5L293,77.5z M297.3,94.2c0,2.3-1.8,4.1-4.1,4.1
		c-2.3,0-4.1-1.8-4.1-4.1c0-2.3,1.8-4.1,4.1-4.1C295.5,90.1,297.3,92,297.3,94.2z"/>
	<path class="st2" d="M293.2,90.1c-2.3,0-4.1,1.8-4.1,4.1c0,2.3,1.8,4.1,4.1,4.1c2.3,0,4.1-1.8,4.1-4.1
		C297.3,92,295.5,90.1,293.2,90.1z"/>
	<polygon class="st0" points="272.7,172.5 289.7,155.5 272.7,138.7 255.7,155.7 	"/>
	<path class="st0" d="M252.2,118.4l-16.8,16.8l17,16.8v0l2.6-2.6l0,0l14.2-14.2L252.2,118.4z M252.3,139.2c-2.3,0-4.1-1.8-4.1-4.1
		s1.8-4.1,4.1-4.1c2.3,0,4.1,1.8,4.1,4.1S254.6,139.2,252.3,139.2z"/>
	<circle class="st2" cx="252.3" cy="135.1" r="4.1"/>
	<path class="st0" d="M293,118.4l-16.8,16.8l17,16.8v0l2.6-2.6l0,0l4.3-4.3v-19.8L293,118.4z M297.3,135.1c0,2.3-1.8,4.1-4.1,4.1
		c-2.3,0-4.1-1.8-4.1-4.1s1.8-4.1,4.1-4.1C295.5,131,297.3,132.8,297.3,135.1z"/>
	<path class="st2" d="M293.2,131c-2.3,0-4.1,1.8-4.1,4.1s1.8,4.1,4.1,4.1c2.3,0,4.1-1.8,4.1-4.1S295.5,131,293.2,131z"/>
	<polygon class="st0" points="272.7,213.4 289.7,196.4 272.7,179.6 255.7,196.6 	"/>
	<path class="st0" d="M252.2,159.2L235.4,176l17,16.8v0l2.6-2.6l0,0l14.2-14.2L252.2,159.2z M252.3,180c-2.3,0-4.1-1.8-4.1-4.1
		c0-2.3,1.8-4.1,4.1-4.1c2.3,0,4.1,1.8,4.1,4.1C256.4,178.2,254.6,180,252.3,180z"/>
	<circle class="st2" cx="252.3" cy="175.9" r="4.1"/>
	<path class="st0" d="M293,159.2L276.2,176l17,16.8v0l2.6-2.6l0,0l4.3-4.3v-19.8L293,159.2z M297.3,175.9c0,2.3-1.8,4.1-4.1,4.1
		c-2.3,0-4.1-1.8-4.1-4.1c0-2.3,1.8-4.1,4.1-4.1C295.5,171.8,297.3,173.7,297.3,175.9z"/>
	<path class="st2" d="M293.2,171.8c-2.3,0-4.1,1.8-4.1,4.1c0,2.3,1.8,4.1,4.1,4.1c2.3,0,4.1-1.8,4.1-4.1
		C297.3,173.7,295.5,171.8,293.2,171.8z"/>
	<polygon class="st0" points="272.7,254.2 289.7,237.2 272.7,220.4 255.7,237.4 	"/>
	<path class="st0" d="M293,200.1l-16.8,16.8l17,16.8v0l2.6-2.6l0,0l4.3-4.3v-19.8L293,200.1z M297.3,216.8c0,2.3-1.8,4.1-4.1,4.1
		c-2.3,0-4.1-1.8-4.1-4.1c0-2.3,1.8-4.1,4.1-4.1C295.5,212.7,297.3,214.5,297.3,216.8z"/>
	<path class="st2" d="M293.2,212.7c-2.3,0-4.1,1.8-4.1,4.1c0,2.3,1.8,4.1,4.1,4.1c2.3,0,4.1-1.8,4.1-4.1
		C297.3,214.5,295.5,212.7,293.2,212.7z"/>
	<path class="st0" d="M252.2,241l-16.8,16.8l17,16.8v0l2.6-2.6l0,0l14.2-14.2L252.2,241z M252.3,261.8c-2.3,0-4.1-1.8-4.1-4.1
		c0-2.3,1.8-4.1,4.1-4.1c2.3,0,4.1,1.8,4.1,4.1C256.4,259.9,254.6,261.8,252.3,261.8z"/>
	<polygon class="st0" points="272.7,295.1 289.7,278.1 272.7,261.3 255.7,278.3 	"/>
	<circle class="st2" cx="252.3" cy="257.7" r="4.1"/>
	<path class="st0" d="M293,241l-16.8,16.8l17,16.8v0l2.6-2.6l0,0l4.3-4.3v-19.8L293,241z M297.3,257.7c0,2.3-1.8,4.1-4.1,4.1
		c-2.3,0-4.1-1.8-4.1-4.1c0-2.3,1.8-4.1,4.1-4.1C295.5,253.6,297.3,255.4,297.3,257.7z"/>
	<path class="st2" d="M293.2,253.6c-2.3,0-4.1,1.8-4.1,4.1c0,2.3,1.8,4.1,4.1,4.1c2.3,0,4.1-1.8,4.1-4.1
		C297.3,255.4,295.5,253.6,293.2,253.6z"/>
	<path class="st0" d="M252.2,281.8l-16.8,16.8l17,16.8v0l2.6-2.6l0,0l14.2-14.2L252.2,281.8z M252.3,302.6c-2.3,0-4.1-1.8-4.1-4.1
		c0-2.3,1.8-4.1,4.1-4.1c2.3,0,4.1,1.8,4.1,4.1C256.4,300.8,254.6,302.6,252.3,302.6z"/>
	<polygon class="st0" points="272.7,336 289.7,319 272.7,302.2 255.7,319.2 	"/>
	<circle class="st2" cx="252.3" cy="298.5" r="4.1"/>
	<path class="st0" d="M293,281.8l-16.8,16.8l17,16.8v0l2.6-2.6l0,0l4.3-4.3v-19.8L293,281.8z M297.3,298.5c0,2.3-1.8,4.1-4.1,4.1
		c-2.3,0-4.1-1.8-4.1-4.1c0-2.3,1.8-4.1,4.1-4.1C295.5,294.4,297.3,296.3,297.3,298.5z"/>
	<path class="st2" d="M293.2,294.4c-2.3,0-4.1,1.8-4.1,4.1c0,2.3,1.8,4.1,4.1,4.1c2.3,0,4.1-1.8,4.1-4.1
		C297.3,296.3,295.5,294.4,293.2,294.4z"/>
	<path class="st0" d="M252.2,322.7l-16.8,16.8L246,350h12.6l10.5-10.5L252.2,322.7z M252.3,343.5c-2.3,0-4.1-1.8-4.1-4.1
		s1.8-4.1,4.1-4.1c2.3,0,4.1,1.8,4.1,4.1S254.6,343.5,252.3,343.5z"/>
	<polygon class="st0" points="265.7,350 279.8,350 272.7,343 	"/>
	<circle class="st2" cx="252.3" cy="339.4" r="4.1"/>
	<path class="st0" d="M293,322.7l-16.8,16.8l10.6,10.5h12.6l0.6-0.6v-19.8L293,322.7z M297.3,339.4c0,2.3-1.8,4.1-4.1,4.1
		c-2.3,0-4.1-1.8-4.1-4.1s1.8-4.1,4.1-4.1C295.5,335.3,297.3,337.1,297.3,339.4z"/>
	<path class="st2" d="M293.2,335.3c-2.3,0-4.1,1.8-4.1,4.1s1.8,4.1,4.1,4.1c2.3,0,4.1-1.8,4.1-4.1S295.5,335.3,293.2,335.3z"/>
	<polygon class="st0" points="240.9,0 222.7,0 231.8,9.1 	"/>
	<polygon class="st0" points="231.8,49.9 248.8,32.9 231.8,16.1 217.6,30.3 214.8,33.1 	"/>
	<path class="st0" d="M235.4,12.6l17,16.8v0l2.6-2.6l0,0l14.2-14.2L256.4,0H248l-2.4,2.4L235.4,12.6z M252.3,8.4
		c2.3,0,4.1,1.8,4.1,4.1c0,2.3-1.8,4.1-4.1,4.1c-2.3,0-4.1-1.8-4.1-4.1C248.3,10.2,250.1,8.4,252.3,8.4z"/>
	<circle class="st2" cx="252.3" cy="12.5" r="4.1"/>
	<path class="st0" d="M252.3,70.2L252.3,70.2l2.6-2.6l0,0l14.2-14.2l-17-16.8l-16.8,16.8L252.3,70.2z M256.4,53.3
		c0,2.3-1.8,4.1-4.1,4.1c-2.3,0-4.1-1.8-4.1-4.1s1.8-4.1,4.1-4.1C254.6,49.3,256.4,51.1,256.4,53.3z"/>
	<polygon class="st0" points="214.8,74 231.8,90.8 248.8,73.8 231.8,57 217.6,71.2 	"/>
	<circle class="st2" cx="252.3" cy="53.3" r="4.1"/>
	<polygon class="st0" points="217.6,112 214.8,114.8 231.8,131.6 248.8,114.7 231.8,97.8 	"/>
	<path class="st0" d="M211.3,118.4l-6.6,6.6l-10.2,10.2l17,16.8v0l2.6-2.6l14.2-14.2L211.3,118.4z M211.5,139.2
		c-2.3,0-4.1-1.8-4.1-4.1s1.8-4.1,4.1-4.1c2.3,0,4.1,1.8,4.1,4.1S213.7,139.2,211.5,139.2z"/>
	<circle class="st2" cx="211.5" cy="135.1" r="4.1"/>
	<polygon class="st0" points="248.8,278.1 231.8,261.3 217.6,275.5 214.8,278.3 231.8,295.1 	"/>
	<path class="st0" d="M211.3,281.8l-6.6,6.6l-10.2,10.2l17,16.8v0l2.6-2.6l14.2-14.2L211.3,281.8z M211.5,302.6
		c-2.3,0-4.1-1.8-4.1-4.1c0-2.3,1.8-4.1,4.1-4.1c2.3,0,4.1,1.8,4.1,4.1C215.6,300.8,213.7,302.6,211.5,302.6z"/>
	<circle class="st2" cx="211.5" cy="298.5" r="4.1"/>
	<polygon class="st0" points="248.8,319 231.8,302.2 214.8,319.2 231.8,336 	"/>
	<polygon class="st0" points="224.9,350 238.9,350 231.8,343 	"/>
	<path class="st0" d="M211.3,322.7l-16.8,16.8l10.6,10.5h12.6l10.5-10.5L211.3,322.7z M211.5,343.5c-2.3,0-4.1-1.8-4.1-4.1
		s1.8-4.1,4.1-4.1c2.3,0,4.1,1.8,4.1,4.1S213.7,343.5,211.5,343.5z"/>
	<circle class="st2" cx="211.5" cy="339.4" r="4.1"/>
	<path class="st0" d="M211.5,29.4L211.5,29.4l2.6-2.6l14.2-14.2L215.6,0h-8.5l-12.6,12.6L211.5,29.4z M211.5,8.4
		c2.3,0,4.1,1.8,4.1,4.1c0,2.3-1.8,4.1-4.1,4.1c-2.3,0-4.1-1.8-4.1-4.1C207.4,10.2,209.2,8.4,211.5,8.4z"/>
	<polygon class="st0" points="191,49.9 201.2,39.7 208,32.9 191,16.1 176.8,30.3 174,33.1 	"/>
	<polygon class="st0" points="200,0 181.8,0 191,9.1 	"/>
	<circle class="st2" cx="211.5" cy="12.5" r="4.1"/>
	<polygon class="st0" points="174,74 191,90.8 201.2,80.6 208,73.8 191,57 176.8,71.2 	"/>
	<path class="st0" d="M194.5,53.4l17,16.8v0l2.6-2.6l14.2-14.2l-17-16.8l-6.6,6.6L194.5,53.4z M211.5,49.3c2.3,0,4.1,1.8,4.1,4.1
		s-1.8,4.1-4.1,4.1c-2.3,0-4.1-1.8-4.1-4.1S209.2,49.3,211.5,49.3z"/>
	<circle class="st2" cx="211.5" cy="53.3" r="4.1"/>
	<path class="st0" d="M194.5,94.3l17,16.8v0l2.6-2.6l14.2-14.2l-17-16.8l-6.6,6.6L194.5,94.3z M211.5,90.1c2.3,0,4.1,1.8,4.1,4.1
		c0,2.3-1.8,4.1-4.1,4.1c-2.3,0-4.1-1.8-4.1-4.1C207.4,92,209.2,90.1,211.5,90.1z"/>
	<polygon class="st0" points="174,114.8 191,131.6 201.2,121.4 208,114.7 191,97.8 176.8,112 	"/>
	<circle class="st2" cx="211.5" cy="94.2" r="4.1"/>
	<path class="st0" d="M194.5,257.8l17,16.8v0l2.6-2.6l14.2-14.2l-17-16.8l-6.6,6.6L194.5,257.8z M211.5,253.6c2.3,0,4.1,1.8,4.1,4.1
		c0,2.3-1.8,4.1-4.1,4.1c-2.3,0-4.1-1.8-4.1-4.1C207.4,255.4,209.2,253.6,211.5,253.6z"/>
	<circle class="st2" cx="211.5" cy="257.7" r="4.1"/>
	<path class="st0" d="M170.5,281.8l-6.6,6.6l-10.2,10.2l17,16.8v0l2.6-2.6l14.2-14.2L170.5,281.8z M170.6,302.6
		c-2.3,0-4.1-1.8-4.1-4.1c0-2.3,1.8-4.1,4.1-4.1c2.3,0,4.1,1.8,4.1,4.1C174.7,300.8,172.9,302.6,170.6,302.6z"/>
	<polygon class="st0" points="208,278.1 191,261.3 176.8,275.5 174,278.3 191,295.1 201.2,284.9 	"/>
	<path class="st2" d="M170.6,294.4c-2.3,0-4.1,1.8-4.1,4.1c0,2.3,1.8,4.1,4.1,4.1c2.3,0,4.1-1.8,4.1-4.1
		C174.7,296.3,172.9,294.4,170.6,294.4z"/>
	<polygon class="st0" points="208,319 191,302.2 174,319.2 191,336 	"/>
	<polygon class="st0" points="184,350 198,350 191,343 	"/>
	<path class="st0" d="M170.5,322.7l-16.8,16.8l10.6,10.5h12.6l10.5-10.5L170.5,322.7z M170.6,343.5c-2.3,0-4.1-1.8-4.1-4.1
		s1.8-4.1,4.1-4.1c2.3,0,4.1,1.8,4.1,4.1S172.9,343.5,170.6,343.5z"/>
	<path class="st2" d="M170.6,335.3c-2.3,0-4.1,1.8-4.1,4.1s1.8,4.1,4.1,4.1c2.3,0,4.1-1.8,4.1-4.1S172.9,335.3,170.6,335.3z"/>
	<polygon class="st0" points="150.1,49.9 160.3,39.7 167.1,32.9 150.1,16.1 135.9,30.3 133.1,33.1 	"/>
	<polygon class="st0" points="159.2,0 141,0 150.1,9.1 	"/>
	<path class="st0" d="M170.6,29.4L170.6,29.4l2.6-2.6l14.2-14.2L174.7,0h-8.5l-12.6,12.6L170.6,29.4z M170.6,8.4
		c2.3,0,4.1,1.8,4.1,4.1c0,2.3-1.8,4.1-4.1,4.1c-2.3,0-4.1-1.8-4.1-4.1C166.5,10.2,168.4,8.4,170.6,8.4z"/>
	<path class="st2" d="M170.6,16.6c2.3,0,4.1-1.8,4.1-4.1c0-2.3-1.8-4.1-4.1-4.1c-2.3,0-4.1,1.8-4.1,4.1
		C166.5,14.7,168.4,16.6,170.6,16.6z"/>
	<polygon class="st0" points="133.1,74 150.1,90.8 160.3,80.6 167.1,73.8 150.1,57 135.9,71.2 	"/>
	<path class="st0" d="M153.7,53.4l17,16.8v0l2.6-2.6l14.2-14.2l-17-16.8l-6.6,6.6L153.7,53.4z M170.6,49.3c2.3,0,4.1,1.8,4.1,4.1
		s-1.8,4.1-4.1,4.1c-2.3,0-4.1-1.8-4.1-4.1S168.4,49.3,170.6,49.3z"/>
	<path class="st2" d="M170.6,57.4c2.3,0,4.1-1.8,4.1-4.1s-1.8-4.1-4.1-4.1c-2.3,0-4.1,1.8-4.1,4.1S168.4,57.4,170.6,57.4z"/>
	<polygon class="st0" points="133.1,114.8 150.1,131.6 160.3,121.4 167.1,114.7 150.1,97.8 135.9,112 	"/>
	<path class="st0" d="M153.7,94.3l17,16.8v0l2.6-2.6l14.2-14.2l-17-16.8l-6.6,6.6L153.7,94.3z M170.6,90.1c2.3,0,4.1,1.8,4.1,4.1
		c0,2.3-1.8,4.1-4.1,4.1c-2.3,0-4.1-1.8-4.1-4.1C166.5,92,168.4,90.1,170.6,90.1z"/>
	<path class="st2" d="M170.6,98.3c2.3,0,4.1-1.8,4.1-4.1c0-2.3-1.8-4.1-4.1-4.1c-2.3,0-4.1,1.8-4.1,4.1
		C166.5,96.5,168.4,98.3,170.6,98.3z"/>
	<path class="st0" d="M153.7,257.8l17,16.8v0l2.6-2.6l14.2-14.2l-17-16.8l-6.6,6.6L153.7,257.8z M170.6,253.6c2.3,0,4.1,1.8,4.1,4.1
		c0,2.3-1.8,4.1-4.1,4.1c-2.3,0-4.1-1.8-4.1-4.1C166.5,255.4,168.4,253.6,170.6,253.6z"/>
	<path class="st2" d="M170.6,261.8c2.3,0,4.1-1.8,4.1-4.1c0-2.3-1.8-4.1-4.1-4.1c-2.3,0-4.1,1.8-4.1,4.1
		C166.5,259.9,168.4,261.8,170.6,261.8z"/>
	<polygon class="st0" points="167.1,278.1 150.1,261.3 135.9,275.5 133.1,278.3 150.1,295.1 160.3,284.9 	"/>
	<path class="st0" d="M129.6,281.8l-6.6,6.6l-10.2,10.2l17,16.8v0l2.6-2.6l14.2-14.2L129.6,281.8z M129.8,302.6
		c-2.3,0-4.1-1.8-4.1-4.1c0-2.3,1.8-4.1,4.1-4.1s4.1,1.8,4.1,4.1C133.9,300.8,132,302.6,129.8,302.6z"/>
	<circle class="st2" cx="129.8" cy="298.5" r="4.1"/>
	<polygon class="st0" points="167.1,319 150.1,302.2 133.1,319.2 150.1,336 	"/>
	<path class="st0" d="M129.6,322.7l-16.8,16.8l10.6,10.5h12.6l10.5-10.5L129.6,322.7z M129.8,343.5c-2.3,0-4.1-1.8-4.1-4.1
		s1.8-4.1,4.1-4.1s4.1,1.8,4.1,4.1S132,343.5,129.8,343.5z"/>
	<polygon class="st0" points="143.1,350 157.2,350 150.1,343 	"/>
	<circle class="st2" cx="129.8" cy="339.4" r="4.1"/>
	<polygon class="st0" points="118.3,0 100.1,0 109.2,9.1 	"/>
	<path class="st0" d="M129.8,29.4L129.8,29.4l2.6-2.6l14.2-14.2L133.8,0h-8.5l-12.6,12.6L129.8,29.4z M129.8,8.4
		c2.3,0,4.1,1.8,4.1,4.1c0,2.3-1.8,4.1-4.1,4.1s-4.1-1.8-4.1-4.1C125.7,10.2,127.5,8.4,129.8,8.4z"/>
	<polygon class="st0" points="109.2,49.9 119.4,39.7 126.2,32.9 109.3,16.1 95.1,30.3 92.3,33.1 	"/>
	<circle class="st2" cx="129.8" cy="12.5" r="4.1"/>
	<path class="st0" d="M112.8,53.4l17,16.8v0l2.6-2.6l14.2-14.2l-17-16.8l-6.6,6.6L112.8,53.4z M129.8,49.3c2.3,0,4.1,1.8,4.1,4.1
		s-1.8,4.1-4.1,4.1s-4.1-1.8-4.1-4.1S127.5,49.3,129.8,49.3z"/>
	<polygon class="st0" points="92.3,74 109.2,90.8 119.4,80.6 126.2,73.8 109.3,57 95.1,71.2 	"/>
	<circle class="st2" cx="129.8" cy="53.3" r="4.1"/>
	<path class="st0" d="M112.8,94.3l17,16.8v0l2.6-2.6l14.2-14.2l-17-16.8l-6.6,6.6L112.8,94.3z M129.8,90.1c2.3,0,4.1,1.8,4.1,4.1
		c0,2.3-1.8,4.1-4.1,4.1s-4.1-1.8-4.1-4.1C125.7,92,127.5,90.1,129.8,90.1z"/>
	<circle class="st2" cx="129.8" cy="94.2" r="4.1"/>
	<path class="st0" d="M112.8,257.8l17,16.8v0l2.6-2.6l14.2-14.2l-17-16.8l-6.6,6.6L112.8,257.8z M129.8,253.6c2.3,0,4.1,1.8,4.1,4.1
		c0,2.3-1.8,4.1-4.1,4.1s-4.1-1.8-4.1-4.1C125.7,255.4,127.5,253.6,129.8,253.6z"/>
	<circle class="st2" cx="129.8" cy="257.7" r="4.1"/>
	<path class="st0" d="M88.7,281.8l-6.6,6.6l-10.2,10.2l17,16.8v0l2.6-2.6l14.2-14.2L88.7,281.8z M88.9,302.6c-2.3,0-4.1-1.8-4.1-4.1
		c0-2.3,1.8-4.1,4.1-4.1c2.3,0,4.1,1.8,4.1,4.1C93,300.8,91.2,302.6,88.9,302.6z"/>
	<polygon class="st0" points="126.2,278.1 109.3,261.3 95.1,275.5 92.3,278.3 109.2,295.1 119.4,284.9 	"/>
	<path class="st2" d="M88.9,294.4c-2.3,0-4.1,1.8-4.1,4.1c0,2.3,1.8,4.1,4.1,4.1c2.3,0,4.1-1.8,4.1-4.1
		C93,296.3,91.2,294.4,88.9,294.4z"/>
	<polygon class="st0" points="126.2,319 109.3,302.2 92.3,319.2 109.2,336 	"/>
	<path class="st0" d="M88.7,322.7l-16.8,16.8L82.6,350h12.6l10.5-10.5L88.7,322.7z M88.9,343.5c-2.3,0-4.1-1.8-4.1-4.1
		s1.8-4.1,4.1-4.1c2.3,0,4.1,1.8,4.1,4.1S91.2,343.5,88.9,343.5z"/>
	<polygon class="st0" points="102.3,350 116.3,350 109.3,343 	"/>
	<path class="st2" d="M88.9,335.3c-2.3,0-4.1,1.8-4.1,4.1s1.8,4.1,4.1,4.1c2.3,0,4.1-1.8,4.1-4.1S91.2,335.3,88.9,335.3z"/>
	<polygon class="st0" points="77.4,0 59.2,0 68.4,9.1 	"/>
	<path class="st0" d="M88.9,29.4L88.9,29.4l2.6-2.6l14.2-14.2L93,0h-8.5L71.9,12.6L88.9,29.4z M88.9,8.4c2.3,0,4.1,1.8,4.1,4.1
		c0,2.3-1.8,4.1-4.1,4.1c-2.3,0-4.1-1.8-4.1-4.1C84.8,10.2,86.6,8.4,88.9,8.4z"/>
	<polygon class="st0" points="68.4,49.9 78.6,39.7 85.4,32.9 68.4,16.1 54.2,30.3 51.4,33.1 	"/>
	<path class="st2" d="M88.9,16.6c2.3,0,4.1-1.8,4.1-4.1c0-2.3-1.8-4.1-4.1-4.1c-2.3,0-4.1,1.8-4.1,4.1
		C84.8,14.7,86.6,16.6,88.9,16.6z"/>
	<path class="st0" d="M71.9,53.4l17,16.8v0l2.6-2.6l14.2-14.2l-17-16.8l-6.6,6.6L71.9,53.4z M88.9,49.3c2.3,0,4.1,1.8,4.1,4.1
		s-1.8,4.1-4.1,4.1c-2.3,0-4.1-1.8-4.1-4.1S86.6,49.3,88.9,49.3z"/>
	<polygon class="st0" points="51.4,74 68.4,90.8 78.6,80.6 85.4,73.8 68.4,57 54.2,71.2 	"/>
	<path class="st2" d="M88.9,57.4c2.3,0,4.1-1.8,4.1-4.1s-1.8-4.1-4.1-4.1c-2.3,0-4.1,1.8-4.1,4.1S86.6,57.4,88.9,57.4z"/>
	<polygon class="st0" points="51.4,114.8 68.4,131.6 78.6,121.4 85.4,114.7 68.4,97.8 54.2,112 	"/>
	<path class="st0" d="M71.9,94.3l17,16.8v0l2.6-2.6l14.2-14.2l-17-16.8l-6.6,6.6L71.9,94.3z M88.9,90.1c2.3,0,4.1,1.8,4.1,4.1
		c0,2.3-1.8,4.1-4.1,4.1c-2.3,0-4.1-1.8-4.1-4.1C84.8,92,86.6,90.1,88.9,90.1z"/>
	<path class="st2" d="M88.9,98.3c2.3,0,4.1-1.8,4.1-4.1c0-2.3-1.8-4.1-4.1-4.1c-2.3,0-4.1,1.8-4.1,4.1
		C84.8,96.5,86.6,98.3,88.9,98.3z"/>
	<path class="st0" d="M71.9,257.8l17,16.8v0l2.6-2.6l14.2-14.2l-17-16.8l-6.6,6.6L71.9,257.8z M88.9,253.6c2.3,0,4.1,1.8,4.1,4.1
		c0,2.3-1.8,4.1-4.1,4.1c-2.3,0-4.1-1.8-4.1-4.1C84.8,255.4,86.6,253.6,88.9,253.6z"/>
	<path class="st2" d="M88.9,261.8c2.3,0,4.1-1.8,4.1-4.1c0-2.3-1.8-4.1-4.1-4.1c-2.3,0-4.1,1.8-4.1,4.1
		C84.8,259.9,86.6,261.8,88.9,261.8z"/>
	<polygon class="st0" points="85.4,278.1 68.4,261.3 54.2,275.5 51.4,278.3 68.4,295.1 78.6,284.9 	"/>
	<path class="st0" d="M47.9,281.8l-6.6,6.6l-10.2,10.2l17,16.8v0l2.6-2.6l14.2-14.2L47.9,281.8z M48,302.6c-2.3,0-4.1-1.8-4.1-4.1
		c0-2.3,1.8-4.1,4.1-4.1c2.3,0,4.1,1.8,4.1,4.1C52.1,300.8,50.3,302.6,48,302.6z"/>
	<circle class="st2" cx="48" cy="298.5" r="4.1"/>
	<polygon class="st0" points="85.4,319 68.4,302.2 51.4,319.2 68.4,336 	"/>
	<path class="st0" d="M47.9,322.7l-16.8,16.8L41.7,350h12.6l10.5-10.5L47.9,322.7z M48,343.5c-2.3,0-4.1-1.8-4.1-4.1
		s1.8-4.1,4.1-4.1c2.3,0,4.1,1.8,4.1,4.1S50.3,343.5,48,343.5z"/>
	<polygon class="st0" points="61.4,350 75.4,350 68.4,343 	"/>
	<circle class="st2" cx="48" cy="339.4" r="4.1"/>
	<polygon class="st0" points="36.6,0 18.4,0 27.5,9.1 	"/>
	<polygon class="st0" points="10.5,33.1 27.5,49.9 37.7,39.7 44.5,32.9 27.5,16.1 13.3,30.3 	"/>
	<path class="st0" d="M48,29.4L48,29.4l2.6-2.6l14.2-14.2L52.1,0h-8.5L31.1,12.6L48,29.4z M48,8.4c2.3,0,4.1,1.8,4.1,4.1
		c0,2.3-1.8,4.1-4.1,4.1c-2.3,0-4.1-1.8-4.1-4.1C43.9,10.2,45.8,8.4,48,8.4z"/>
	<path class="st1" d="M9.8,26.8l-2.6,2.6v0L0,22.3v7l3.7,3.6L0,36.6v7.1l0.4-0.4L7,36.6l17,16.8L9.8,67.6l-2.6,2.6v0L0,63.1v7
		l3.7,3.6L0,77.4v7.1l0.4-0.4L7,77.5l17,16.8L9.8,108.5l-2.6,2.6v0L0,104v7l3.7,3.6L0,118.3v7.1l0.4-0.4l6.6-6.6l17,16.8L9.8,149.4
		L7.2,152v0L0,144.9v7l3.7,3.6L0,159.2v7.1l0.4-0.4l6.6-6.6L24,176L9.8,190.2l-2.6,2.6v0L0,185.7v7l3.7,3.6L0,200v7.1l0.4-0.4
		l6.6-6.6l17,16.8L9.8,231.1l-2.6,2.6v0L0,226.6v7l3.7,3.6L0,240.9v7.1l0.4-0.4L7,241l17,16.8L9.8,272l-2.6,2.6v0L0,267.5v7l3.7,3.6
		L0,281.8v7.1l0.4-0.4l6.6-6.6l17,16.8L9.8,312.8l-2.6,2.6v0L0,308.3v7l3.6,3.6L0,322.6v7.1l7-7l17,16.8L13.5,350h7.1l7-7l7.1,7h7.1
		l-10.6-10.5l16.8-16.8l17,16.8L54.3,350h7.1l7-7l7.1,7h7.1l-10.6-10.5l16.8-16.8l17,16.8L95.2,350h7.1l7-7l7.1,7h7.1l-10.6-10.5
		l16.8-16.8l17,16.8L136.1,350h7.1l7-7l7.1,7h7.1l-10.6-10.5l16.8-16.8l17,16.8L176.9,350h7.1l7-7l7.1,7h7.1l-10.6-10.5l16.8-16.8
		l17,16.8L217.8,350h7.1l7-7l7.1,7h7.1l-10.6-10.5l16.8-16.8l17,16.8L258.7,350h7.1l7-7l7.1,7h7.1l-10.6-10.5l16.8-16.8l7,7v-7
		l-3.5-3.5l3.5-3.5v-7.1l-4.3,4.3l0,0l-2.6,2.6v0l-17-16.8l16.8-16.8l7,7v-7l-3.5-3.5l3.5-3.5v-7.1l-4.3,4.3l0,0l-2.6,2.6v0
		l-17-16.8L293,241l7,7v-7l-3.5-3.5l3.5-3.5v-7.1l-4.3,4.3l0,0l-2.6,2.6v0l-17-16.8l16.8-16.8l7,7v-7l-3.5-3.5l3.5-3.5V186l-4.3,4.3
		l0,0l-2.6,2.6v0l-17-16.8l16.8-16.8l7,7v-7l-3.5-3.5l3.5-3.5v-7.1l-4.3,4.3l0,0l-2.6,2.6v0l-17-16.8l16.8-16.8l7,7v-7l-3.5-3.5
		l3.5-3.5v-7.1l-4.3,4.3l0,0l-2.6,2.6v0l-17-16.8L293,77.5l7,7v-7l-3.5-3.5l3.5-3.5v-7.1l-4.3,4.3l0,0l-2.6,2.6v0l-17-16.8L293,36.6
		l7,7v-7l-3.5-3.5l3.5-3.5v-7.1l-4.3,4.3l0,0l-2.6,2.6v0l-17-16.8L288.8,0h-7.1l-9.1,9.1L263.5,0h-7.1l12.7,12.6L255,26.8l0,0
		l-2.6,2.6v0l-17-16.8l10.2-10.2L248,0h-7.1l-9.1,9.1L222.7,0h-7.1l12.7,12.6l-14.2,14.2l-2.6,2.6v0l-17-16.8L207.1,0H200L191,9.1
		L181.8,0h-7.1l12.7,12.6l-14.2,14.2l-2.6,2.6v0l-17-16.8L166.2,0h-7.1l-9.1,9.1L141,0h-7.1l12.7,12.6l-14.2,14.2l-2.6,2.6v0
		l-17-16.8L125.4,0h-7.1l-9.1,9.1L100.1,0H93l12.7,12.6L91.5,26.8l-2.6,2.6v0l-17-16.8L84.5,0h-7.1l-9.1,9.1L59.2,0h-7.1l12.7,12.6
		L50.7,26.8L48,29.4v0l-17-16.8L43.6,0h-7.1l-9.1,9.1L18.4,0h-7.1L24,12.6L9.8,26.8z M10.5,74l2.8-2.8L27.5,57l17,16.8l-6.8,6.8
		L27.5,90.8L10.5,74z M47.9,36.6l17,16.8L50.7,67.6L48,70.3v0l-17-16.8l10.2-10.2L47.9,36.6z M88.7,36.6l17,16.8L91.5,67.6l-2.6,2.6
		v0l-17-16.8l10.2-10.2L88.7,36.6z M129.6,36.6l17,16.8l-14.2,14.2l-2.6,2.6v0l-17-16.8L123,43.3L129.6,36.6z M170.5,36.6l17,16.8
		l-14.2,14.2l-2.6,2.6v0l-17-16.8l10.2-10.2L170.5,36.6z M211.3,36.6l17,16.8l-14.2,14.2l-2.6,2.6v0l-17-16.8l10.2-10.2L211.3,36.6z
		 M252.2,36.6l17,16.8L255,67.6l0,0l-2.6,2.6v0l-17-16.8L252.2,36.6z M269.3,216.9l-37.5,37.4l-20.6-20.4l-3.3,3.3l0.1,0.1l-6.8,6.8
		l-5.1,5.1l-5.1,5.1l-9.6-9.6l-7.4-7.3l0,0l-3.6-3.6l-3.4,3.4l0,0l-6.8,6.8l-1.3,1.3l-8.9,9l-20.5-20.4l-3.7,3.6l-6.5,6.5
		l-10.2,10.2l-17-16.8l0,0l-3.6-3.5l-3.4,3.4l0,0l-6.8,6.8l-10.2,10.2l-17-16.8l0.1-0.1L30.9,217l1.8-1.8l8.5-8.5l6.6-6.6l0,0
		l3.5-3.5l0,0l0.3-0.3l-3.6-3.5l-0.1,0.1v0l-9.3-9.2l-7.8-7.6l20.6-20.4l20.8-20.7l9.8-9.8l6.6-6.6l0,0l3.5-3.5l0,0l2.8-2.8
		l14.2-14.2l0.1,0.1l0.1-0.1l10.5,10.6l6.3,6.3l-0.1,0.1l18.7,18.8l1.7,1.7l0,0l3.5,3.5l0,0l0,0l3.5-3.5l0,0l10.2-10.2l6-6l0.6-0.6
		l1.7,1.7l15.3,15.2l-0.1,0.1l3.5,3.5l0.1-0.1l17,16.8l-0.1,0.1l3.6,3.6l3.5-3.5l-0.1-0.1l2.8-2.8l14.2-14.2l17,16.8l-12.4,12.4
		l-8.1,8.1l4.5,4.5l16,15.8l-0.1,0.1L269.3,216.9z M255,312.8L255,312.8l-2.6,2.6v0l-17-16.8l16.8-16.8l17,16.8L255,312.8z
		 M211.5,315.4L211.5,315.4l-17-16.8l10.2-10.2l6.6-6.6l17,16.8l-14.2,14.2L211.5,315.4z M170.6,315.4L170.6,315.4l-17-16.8
		l10.2-10.2l6.6-6.6l17,16.8l-14.2,14.2L170.6,315.4z M129.8,315.4L129.8,315.4l-17-16.8l10.2-10.2l6.6-6.6l17,16.8l-14.2,14.2
		L129.8,315.4z M88.9,315.4L88.9,315.4l-17-16.8l10.2-10.2l6.6-6.6l17,16.8l-14.2,14.2L88.9,315.4z M48,315.4L48,315.4l-17-16.8
		l10.2-10.2l6.6-6.6l17,16.8l-14.2,14.2L48,315.4z M47.9,241l17,16.8L50.7,272l-2.6,2.6v0l-17-16.8l10.2-10.2L47.9,241z M51.4,278.3
		l2.8-2.8l14.2-14.2l17,16.8l-6.8,6.8l-10.2,10.2L51.4,278.3z M88.7,241l17,16.8L91.5,272l-2.6,2.6v0l-17-16.8l10.2-10.2L88.7,241z
		 M92.3,278.3l2.8-2.8l14.2-14.2l17,16.8l-6.8,6.8l-10.2,10.2L92.3,278.3z M129.6,241l17,16.8L132.4,272l-2.6,2.6v0l-17-16.8
		l10.2-10.2L129.6,241z M133.1,278.3l2.8-2.8l14.2-14.2l17,16.8l-6.8,6.8l-10.2,10.2L133.1,278.3z M170.5,241l17,16.8L173.2,272
		l-2.6,2.6v0l-17-16.8l10.2-10.2L170.5,241z M174,278.3l2.8-2.8l14.2-14.2l17,16.8l-6.8,6.8L191,295.1L174,278.3z M211.3,241
		l17,16.8L214.1,272l-2.6,2.6v0l-17-16.8l10.2-10.2L211.3,241z M214.8,278.3l2.8-2.8l14.2-14.2l17,16.8l-17,17L214.8,278.3z
		 M255,272L255,272l-2.6,2.6v0l-17-16.8l16.8-16.8l17,16.8L255,272z M47.9,77.5l17,16.8l-14.2,14.2l-2.6,2.6v0l-17-16.8l10.2-10.2
		L47.9,77.5z M88.7,77.5l17,16.8l-14.2,14.2l-2.6,2.6v0l-17-16.8l10.2-10.2L88.7,77.5z M85.4,114.7l-6.8,6.8l-10.2,10.2l-17-16.8
		l2.8-2.8l14.2-14.2L85.4,114.7z M47.9,118.4l17,16.8l-14.2,14.2L48,152v0l-17-16.8L41.2,125L47.9,118.4z M129.6,77.5l17,16.8
		l-14.2,14.2l-2.6,2.6v0l-17-16.8L123,84.1L129.6,77.5z M170.5,77.5l17,16.8l-14.2,14.2l-2.6,2.6v0l-17-16.8l10.2-10.2L170.5,77.5z
		 M211.3,77.5l17,16.8l-14.2,14.2l-2.6,2.6v0l-17-16.8l10.2-10.2L211.3,77.5z M231.8,131.6l-17-16.8l2.8-2.8l14.2-14.2l17,16.8
		L231.8,131.6z M211.5,152L211.5,152l-17-16.8l10.2-10.2l6.6-6.6l17,16.8l-14.2,14.2L211.5,152z M208,114.7l-6.8,6.8L191,131.6
		l-17-16.8l2.8-2.8L191,97.8L208,114.7z M167.1,114.7l-6.8,6.8l-10.2,10.2l-17-16.8l2.8-2.8l14.2-14.2L167.1,114.7z M255,190.2
		L255,190.2l-2.6,2.6v0l-17-16.8l16.8-16.8l17,16.8L255,190.2z M255,149.4L255,149.4l-2.6,2.6v0l-17-16.8l16.8-16.8l17,16.8
		L255,149.4z M255,108.5L255,108.5l-2.6,2.6v0l-17-16.8l16.8-16.8l17,16.8L255,108.5z M248.8,73.8l-17,17l-17-16.8l2.8-2.8L231.8,57
		L248.8,73.8z M208,73.8l-6.8,6.8L191,90.8L174,74l2.8-2.8L191,57L208,73.8z M167.1,73.8l-6.8,6.8l-10.2,10.2l-17-16.8l2.8-2.8
		L150.1,57L167.1,73.8z M126.2,73.8l-6.8,6.8l-10.2,10.2L92.3,74l2.8-2.8L109.3,57L126.2,73.8z M85.4,73.8l-6.8,6.8L68.4,90.8
		L51.4,74l2.8-2.8L68.4,57L85.4,73.8z M10.5,114.8l2.8-2.8l14.2-14.2l17,16.8l-6.8,6.8l-10.2,10.2L10.5,114.8z M10.5,155.7l2.8-2.8
		l14.2-14.2l17,16.8l-6.8,6.8l-10.2,10.2L10.5,155.7z M10.5,196.6l2.8-2.8l14.2-14.2l17,16.8l-6.8,6.8l-10.2,10.2L10.5,196.6z
		 M10.5,237.4l2.8-2.8l14.2-14.2l17,16.8l-6.8,6.8l-10.2,10.2L10.5,237.4z M10.5,278.3l2.8-2.8l14.2-14.2l17,16.8l-6.8,6.8
		l-10.2,10.2L10.5,278.3z M10.5,319.2l17-17l17,16.8l-17,17L10.5,319.2z M51.4,319.2l17-17l17,16.8l-17,17L51.4,319.2z M92.3,319.2
		l17-17l17,16.8l-17,17L92.3,319.2z M133.1,319.2l17-17l17,16.8l-17,17L133.1,319.2z M174,319.2l17-17l17,16.8l-17,17L174,319.2z
		 M214.8,319.2l17-17l17,16.8l-17,17L214.8,319.2z M289.7,319l-17,17l-17-16.8l17-17L289.7,319z M289.7,278.1l-17,17l-17-16.8l17-17
		L289.7,278.1z M289.7,237.2l-17,17l-17-16.8l17-17L289.7,237.2z M289.7,196.4l-17,17l-17-16.8l17-17L289.7,196.4z M289.7,155.5
		l-17,17l-17-16.8l17-17L289.7,155.5z M289.7,114.7l-17,17l-17-16.8l17-17L289.7,114.7z M289.7,73.8l-17,17l-17-16.8l17-17
		L289.7,73.8z M289.7,32.9l-17,17l-17-16.8l17-17L289.7,32.9z M231.8,16.1l17,16.8l-17,17l-17-16.8l2.8-2.8L231.8,16.1z M191,16.1
		l17,16.8l-6.8,6.8L191,49.9l-17-16.8l2.8-2.8L191,16.1z M150.1,16.1l17,16.8l-6.8,6.8l-10.2,10.2l-17-16.8l2.8-2.8L150.1,16.1z
		 M109.3,16.1l17,16.8l-6.8,6.8l-10.2,10.2l-17-16.8l2.8-2.8L109.3,16.1z M68.4,16.1l17,16.8l-6.8,6.8L68.4,49.9l-17-16.8l2.8-2.8
		L68.4,16.1z M44.5,32.9l-6.8,6.8L27.5,49.9l-17-16.8l2.8-2.8l14.2-14.2L44.5,32.9z"/>
	<circle class="st2" cx="48" cy="12.5" r="4.1"/>
	<path class="st0" d="M31.1,53.4l17,16.8v0l2.6-2.6l14.2-14.2l-17-16.8l-6.6,6.6L31.1,53.4z M48,49.3c2.3,0,4.1,1.8,4.1,4.1
		s-1.8,4.1-4.1,4.1c-2.3,0-4.1-1.8-4.1-4.1S45.8,49.3,48,49.3z"/>
	<circle class="st2" cx="7.2" cy="53.3" r="4.1"/>
	<circle class="st2" cx="48" cy="53.3" r="4.1"/>
	<path class="st0" d="M31.1,94.3l17,16.8v0l2.6-2.6l14.2-14.2l-17-16.8l-6.6,6.6L31.1,94.3z M48,90.1c2.3,0,4.1,1.8,4.1,4.1
		c0,2.3-1.8,4.1-4.1,4.1c-2.3,0-4.1-1.8-4.1-4.1C43.9,92,45.8,90.1,48,90.1z"/>
	<polygon class="st0" points="44.5,73.8 27.5,57 13.3,71.2 10.5,74 27.5,90.8 37.7,80.6 	"/>
	<path class="st2" d="M11.3,94.2c0-2.3-1.8-4.1-4.1-4.1c-2.3,0-4.1,1.8-4.1,4.1c0,2.3,1.8,4.1,4.1,4.1C9.4,98.3,11.3,96.5,11.3,94.2
		z"/>
	<circle class="st2" cx="48" cy="94.2" r="4.1"/>
	<path class="st0" d="M31.1,135.2L48,152v0l2.6-2.6l14.2-14.2l-17-16.8l-6.6,6.6L31.1,135.2z M48,131c2.3,0,4.1,1.8,4.1,4.1
		s-1.8,4.1-4.1,4.1c-2.3,0-4.1-1.8-4.1-4.1S45.8,131,48,131z"/>
	<polygon class="st0" points="44.5,114.7 27.5,97.8 13.3,112 10.5,114.8 27.5,131.6 37.7,121.4 	"/>
	<circle class="st2" cx="7.2" cy="135.1" r="4.1"/>
	<circle class="st2" cx="48" cy="135.1" r="4.1"/>
	<polygon class="st0" points="44.5,155.5 27.5,138.7 13.3,152.9 10.5,155.7 27.5,172.5 37.7,162.3 	"/>
	<path class="st2" d="M11.3,175.9c0-2.3-1.8-4.1-4.1-4.1c-2.3,0-4.1,1.8-4.1,4.1c0,2.3,1.8,4.1,4.1,4.1
		C9.4,180,11.3,178.2,11.3,175.9z"/>
	<polygon class="st0" points="44.5,196.4 27.5,179.6 13.3,193.8 10.5,196.6 27.5,213.4 37.7,203.2 	"/>
	<circle class="st2" cx="7.2" cy="216.8" r="4.1"/>
	<polygon class="st0" points="44.5,237.2 27.5,220.4 13.3,234.6 10.5,237.4 27.5,254.2 37.7,244 	"/>
	<path class="st0" d="M31.1,257.8l17,16.8v0l2.6-2.6l14.2-14.2l-17-16.8l-6.6,6.6L31.1,257.8z M48,253.6c2.3,0,4.1,1.8,4.1,4.1
		c0,2.3-1.8,4.1-4.1,4.1c-2.3,0-4.1-1.8-4.1-4.1C43.9,255.4,45.8,253.6,48,253.6z"/>
	<circle class="st2" cx="7.2" cy="257.7" r="4.1"/>
	<circle class="st2" cx="48" cy="257.7" r="4.1"/>
	<polygon class="st0" points="44.5,278.1 27.5,261.3 13.3,275.5 10.5,278.3 27.5,295.1 37.7,284.9 	"/>
	<path class="st2" d="M11.3,298.5c0-2.3-1.8-4.1-4.1-4.1c-2.3,0-4.1,1.8-4.1,4.1c0,2.3,1.8,4.1,4.1,4.1
		C9.4,302.6,11.3,300.8,11.3,298.5z"/>
	<polygon class="st0" points="44.5,319 27.5,302.2 10.5,319.2 27.5,336 	"/>
	<path class="st0" d="M7,322.7l-7,7v19.5l0.8,0.8h12.6L24,339.5L7,322.7z M7.2,343.5c-2.3,0-4.1-1.8-4.1-4.1s1.8-4.1,4.1-4.1
		c2.3,0,4.1,1.8,4.1,4.1S9.4,343.5,7.2,343.5z"/>
	<polygon class="st0" points="20.5,350 34.6,350 27.5,343 	"/>
	<circle class="st2" cx="7.2" cy="339.4" r="4.1"/>
	<path class="st0" d="M0,22.3l7.2,7.1v0l2.6-2.6L24,12.6L11.3,0H2.8L0,2.8V22.3z M7.2,8.4c2.3,0,4.1,1.8,4.1,4.1
		c0,2.3-1.8,4.1-4.1,4.1c-2.3,0-4.1-1.8-4.1-4.1C3.1,10.2,4.9,8.4,7.2,8.4z"/>
	<polygon class="st1" points="0,2.8 2.8,0 0,0 	"/>
	<circle class="st2" cx="7.2" cy="12.5" r="4.1"/>
	<polygon class="st0" points="3.7,32.9 0,29.3 0,36.6 	"/>
	<path class="st0" d="M7.2,70.3l2.6-2.6L24,53.5L7,36.6l-6.6,6.6L0,43.6v19.5L7.2,70.3L7.2,70.3z M3.1,53.3c0-2.3,1.8-4.1,4.1-4.1
		c2.3,0,4.1,1.8,4.1,4.1s-1.8,4.1-4.1,4.1C4.9,57.4,3.1,55.6,3.1,53.3z"/>
	<polygon class="st0" points="3.7,73.8 0,70.2 0,77.4 	"/>
	<path class="st0" d="M7.2,111.1l2.6-2.6L24,94.3L7,77.5l-6.6,6.6L0,84.5V104L7.2,111.1L7.2,111.1z M3.1,94.2c0-2.3,1.8-4.1,4.1-4.1
		c2.3,0,4.1,1.8,4.1,4.1c0,2.3-1.8,4.1-4.1,4.1C4.9,98.3,3.1,96.5,3.1,94.2z"/>
	<polygon class="st0" points="3.7,114.7 0,111 0,118.3 	"/>
	<path class="st0" d="M7.2,152l2.6-2.6L24,135.2L7,118.4L0.4,125L0,125.4v19.5L7.2,152L7.2,152z M3.1,135.1c0-2.3,1.8-4.1,4.1-4.1
		c2.3,0,4.1,1.8,4.1,4.1s-1.8,4.1-4.1,4.1C4.9,139.2,3.1,137.3,3.1,135.1z"/>
	<polygon class="st0" points="3.7,155.5 0,151.9 0,159.2 	"/>
	<path class="st0" d="M7.2,192.9l2.6-2.6L24,176L7,159.2l-6.6,6.6L0,166.2v19.5L7.2,192.9L7.2,192.9z M3.1,175.9
		c0-2.3,1.8-4.1,4.1-4.1c2.3,0,4.1,1.8,4.1,4.1c0,2.3-1.8,4.1-4.1,4.1C4.9,180,3.1,178.2,3.1,175.9z"/>
	<polygon class="st0" points="3.7,196.4 0,192.8 0,200 	"/>
	<path class="st0" d="M7.2,233.7l2.6-2.6L24,216.9L7,200.1l-6.6,6.6L0,207.1v19.5L7.2,233.7L7.2,233.7z M3.1,216.8
		c0-2.3,1.8-4.1,4.1-4.1c2.3,0,4.1,1.8,4.1,4.1c0,2.3-1.8,4.1-4.1,4.1C4.9,220.9,3.1,219.1,3.1,216.8z"/>
	<polygon class="st0" points="3.7,237.2 0,233.6 0,240.9 	"/>
	<path class="st0" d="M7.2,274.6l2.6-2.6L24,257.8L7,241l-6.6,6.6L0,248v19.5L7.2,274.6L7.2,274.6z M3.1,257.7
		c0-2.3,1.8-4.1,4.1-4.1c2.3,0,4.1,1.8,4.1,4.1c0,2.3-1.8,4.1-4.1,4.1C4.9,261.8,3.1,259.9,3.1,257.7z"/>
	<polygon class="st0" points="3.7,278.1 0,274.5 0,281.8 	"/>
	<path class="st0" d="M7.2,315.4l2.6-2.6L24,298.6L7,281.8l-6.6,6.6L0,288.8v19.5L7.2,315.4L7.2,315.4z M3.1,298.5
		c0-2.3,1.8-4.1,4.1-4.1c2.3,0,4.1,1.8,4.1,4.1c0,2.3-1.8,4.1-4.1,4.1C4.9,302.6,3.1,300.8,3.1,298.5z"/>
	<polygon class="st0" points="3.6,319 0,315.4 0,322.6 	"/>
	<polygon class="st1" points="0,350 0.8,350 0,349.2 	"/>
	<path class="st0" d="M225.5,208.8c-1.8,0-2.8,1.2-3.1,3.5h6v-0.5c0-1-0.2-1.7-0.7-2.2C227.2,209.1,226.4,208.8,225.5,208.8z"/>
	<path class="st0" d="M248.8,196.4L248.8,196.4l-15.9-15.9l-4.5-4.5l8.1-8.1l12.4-12.4l-17-16.8l-14.2,14.2l-2.8,2.8l0.1,0.1
		l-3.5,3.5l-3.6-3.6l0.1-0.1l-17-16.8l-0.1,0.1l-3.5-3.5l0.1-0.1L172.1,120l-1.7-1.7l-0.6,0.6l-6,6l-10.2,10.2l0,0l-3.5,3.5l0,0l0,0
		l-3.5-3.5l0,0l-1.7-1.7l-18.7-18.8l0.1-0.1l-6.3-6.3l-10.5-10.6l-0.1,0.1l-0.1-0.1L95.1,112l-2.8,2.8l0,0l-3.5,3.5l0,0l-6.6,6.6
		l-9.8,9.8l-20.8,20.7L30.9,176l7.8,7.6l9.3,9.2v0l0.1-0.1l3.6,3.5l-0.3,0.3l0,0l-3.5,3.5l0,0l-6.6,6.6l-8.5,8.5l-1.8,1.8l20.5,20.3
		l-0.1,0.1l17,16.8L78.6,244l6.8-6.8l0,0l3.4-3.4l3.6,3.5l0,0l17,16.8l10.2-10.2l6.5-6.5l3.7-3.6l20.5,20.4l8.9-9l1.3-1.3l6.8-6.8
		l0,0l3.4-3.4l3.6,3.6l0,0l7.4,7.3l9.6,9.6l5.1-5.1l5.1-5.1l6.8-6.8l-0.1-0.1l3.3-3.3l20.6,20.4l37.5-37.4L248.8,196.4z M203,182.9
		v-0.5c0-2,0.4-3.8,1.1-5.3c0.7-1.5,1.8-2.7,3.3-3.6c1.4-0.8,3.1-1.3,5.1-1.3c2.8,0,4.9,0.9,6.5,2.6c1.6,1.7,2.4,4.1,2.4,7.2v2.4
		h-12.2c0.2,1.1,0.7,2,1.4,2.6c0.7,0.6,1.7,0.9,2.9,0.9c1.9,0,3.5-0.7,4.5-2l2.8,3.3c-0.8,1.1-1.8,1.9-3.2,2.5
		c-1.4,0.6-2.9,0.9-4.5,0.9c-3,0-5.5-0.9-7.3-2.7C204,188.1,203,185.8,203,182.9z M177.8,167.5c0,0.9-0.3,1.6-0.9,2.1
		c-0.6,0.6-1.4,0.8-2.5,0.8c-1,0-1.8-0.3-2.5-0.8c-0.6-0.6-0.9-1.3-0.9-2.1c0-0.9,0.3-1.6,0.9-2.1c0.6-0.6,1.4-0.8,2.5-0.8
		c1,0,1.8,0.3,2.5,0.8C177.5,165.9,177.8,166.6,177.8,167.5z M177.6,204.6h3v4.2h-3v8.8c0,0.7,0.1,1.2,0.4,1.5
		c0.3,0.3,0.6,0.4,1.4,0.4c0.6,0,1.1,0,1.5-0.1v4.3c-1.1,0.3-2.2,0.5-3.4,0.5c-2.1,0-3.6-0.5-4.6-1.5c-1-1-1.5-2.4-1.5-4.4v-9.5
		h-2.5v-4.2h2.5v-4.8h6.2V204.6z M147.5,213.7v2.3h-11.9c0.2,1.1,0.7,1.9,1.4,2.5c0.7,0.6,1.7,0.9,2.8,0.9c1.9,0,3.4-0.7,4.4-2
		l2.7,3.2c-0.7,1-1.8,1.9-3.2,2.5s-2.8,0.9-4.4,0.9c-3,0-5.3-0.9-7.2-2.6c-1.8-1.8-2.7-4-2.7-6.9v-0.5c0-2,0.4-3.7,1.1-5.2
		c0.7-1.5,1.8-2.7,3.2-3.5c1.4-0.8,3.1-1.2,5-1.2c2.7,0,4.8,0.8,6.4,2.5C146.7,208.4,147.5,210.7,147.5,213.7z M102.7,223.8
		l-0.3-2.1c-1.2,1.6-2.8,2.4-4.7,2.4c-2.3,0-4.1-0.9-5.4-2.6c-1.3-1.8-2-4.2-2-7.5c0-3,0.7-5.4,2-7.2c1.3-1.8,3.2-2.6,5.5-2.6
		c1.7,0,3.2,0.7,4.3,2v-6.5h6v24H102.7z M90.2,223.5h-11l-2.5-7.9h-14l-2.5,7.9H49.3L64.8,181h9.6L90.2,223.5z M142.9,172.6h5.9
		l1.9,11.9l3.1-11.9h4.3l3.1,11.6l2-11.6h5.9l-4.6,19.7h-5.2l-3.3-11.7l-3.3,11.7h-5.2L142.9,172.6z M109.8,204.6h6.3l3,12.1l3-12.1
		h6.3l-6.3,19.2h-6.1L109.8,204.6z M171.4,192.2v-19.7h6.1v19.7H171.4z M234.3,213.7v2.3h-11.9c0.2,1.1,0.7,1.9,1.4,2.5
		c0.7,0.6,1.7,0.9,2.8,0.9c1.9,0,3.4-0.7,4.4-2l2.7,3.2c-0.7,1-1.8,1.9-3.2,2.5c-1.4,0.6-2.8,0.9-4.4,0.9c-3,0-5.3-0.9-7.2-2.6
		c-1.8-1.8-2.7-4-2.7-6.9v-0.5c0-2,0.4-3.7,1.1-5.2c0.7-1.5,1.8-2.7,3.2-3.5c1.4-0.8,3.1-1.2,5-1.2c2.7,0,4.8,0.8,6.4,2.5
		C233.5,208.4,234.3,210.7,234.3,213.7z M203.5,204.6h5.6l0.2,2.5c1-1.9,2.4-2.8,4.2-2.8c0.6,0,1.2,0.1,1.7,0.2L215,210l-2-0.1
		c-1.9,0-3.1,0.6-3.6,1.8v12.2h-6V204.6z M138.6,145.4h-16.3c0-2.8-0.8-4.9-2.5-6.4c-1.7-1.5-4-2.3-6.8-2.3c-2.9,0-5.2,0.6-6.9,1.9
		c-1.7,1.3-2.5,2.9-2.5,4.9c0,1.7,0.9,3.3,2.8,4.7c1.9,1.4,5.1,2.9,9.8,4.4c4.7,1.5,8.5,3.1,11.5,4.9c7.3,4.2,11,10,11,17.4
		c0,5.9-2.2,10.6-6.7,13.9c-4.5,3.4-10.6,5.1-18.3,5.1c-5.5,0-10.4-1-14.9-2.9c-4.4-2-7.8-4.7-10-8.1c-2.2-3.4-3.4-7.4-3.4-11.8
		h16.3c0,3.6,0.9,6.3,2.8,8c1.9,1.7,4.9,2.6,9.1,2.6c2.7,0,4.8-0.6,6.4-1.7c1.6-1.2,2.3-2.8,2.3-4.9c0-2.4-0.8-4.2-2.5-5.6
		c-1.7-1.3-4.7-2.7-8.9-4.1c-4.2-1.4-7.7-2.8-10.4-4.1c-8.8-4.3-13.1-10.2-13.1-17.7c0-3.7,1.1-7,3.3-9.9c2.2-2.9,5.3-5.1,9.3-6.7
		c4-1.6,8.5-2.4,13.5-2.4c4.9,0,9.2,0.9,13.1,2.6c3.9,1.7,6.8,4.2,9,7.4C137.5,137.6,138.6,141.2,138.6,145.4z M149.7,223.8v-19.2
		h5.6l0.2,2.3c1.3-1.7,3.2-2.6,5.5-2.6c2,0,3.5,0.6,4.5,1.8c1,1.2,1.5,3,1.5,5.4v12.4h-6v-12.1c0-1-0.2-1.7-0.6-2.1
		c-0.4-0.5-1.1-0.7-2.1-0.7c-1.2,0-2,0.5-2.6,1.4v13.6H149.7z M189.2,224.2c-2.1,0-3.7-0.6-4.8-1.8c-1.1-1.2-1.6-3-1.6-5.3v-12.5
		l0-32h5.7l0.2,1.8c1.2-1.5,2.7-2.2,4.6-2.2c2.4,0,4.3,0.9,5.6,2.7c1.3,1.8,2,4.2,2,7.4v0.3c0,3.1-0.7,5.5-2.1,7.3
		c-1.4,1.8-3.2,2.7-5.6,2.7c-1.8,0-3.3-0.7-4.5-2l-0.1,14v12.5c0,1.6,0.8,2.5,2.4,2.5c1.4,0,2.4-0.5,2.9-1.5v-13.5h6v19.2h-5.6
		l-0.2-2.1C193.1,223.3,191.4,224.2,189.2,224.2z"/>
	<path class="st0" d="M209.3,180.5h6.2V180c0-1-0.2-1.7-0.7-2.3c-0.5-0.5-1.3-0.8-2.2-0.8C210.7,176.9,209.6,178.1,209.3,180.5z"/>
	<path class="st0" d="M191.8,187.9c1.9,0,3-1.7,3-5.1v-0.7c0-3.5-1-5.2-3.1-5.2c-1.5,0-2.4,0.5-2.9,1.6v7.7
		C189.4,187.3,190.4,187.9,191.8,187.9z"/>
	<path class="st0" d="M140.9,209.6c-0.5-0.5-1.2-0.8-2.2-0.8c-1.8,0-2.8,1.2-3.1,3.5h6v-0.5C141.6,210.9,141.4,210.2,140.9,209.6z"
		/>
	<path class="st0" d="M102.1,217.9v-7.3c-0.5-1.1-1.5-1.7-2.8-1.7c-1.8,0-2.8,1.5-3,4.5l0,1.1c0,3.4,1,5.1,3,5.1
		C100.5,219.5,101.5,219,102.1,217.9z"/>
	<polygon class="st0" points="74.2,207.6 69.7,192.9 65.1,207.6 	"/>
	<path class="st3" d="M126.4,127c-3.9-1.7-8.2-2.6-13.1-2.6c-5,0-9.5,0.8-13.5,2.4c-4,1.6-7.1,3.8-9.3,6.7c-2.2,2.9-3.3,6.2-3.3,9.9
		c0,7.5,4.4,13.4,13.1,17.7c2.7,1.3,6.2,2.7,10.4,4.1c4.2,1.4,7.2,2.8,8.9,4.1c1.7,1.3,2.5,3.2,2.5,5.6c0,2.1-0.8,3.7-2.3,4.9
		c-1.6,1.2-3.7,1.7-6.4,1.7c-4.2,0-7.3-0.9-9.1-2.6c-1.9-1.7-2.8-4.4-2.8-8H85.3c0,4.5,1.1,8.4,3.4,11.8c2.2,3.4,5.6,6.1,10,8.1
		c4.4,2,9.4,2.9,14.9,2.9c7.8,0,13.9-1.7,18.3-5.1c4.5-3.4,6.7-8,6.7-13.9c0-7.4-3.7-13.2-11-17.4c-3-1.7-6.8-3.4-11.5-4.9
		c-4.7-1.5-7.9-3-9.8-4.4c-1.9-1.4-2.8-3-2.8-4.7c0-2,0.8-3.6,2.5-4.9c1.7-1.3,4-1.9,6.9-1.9c2.9,0,5.2,0.8,6.8,2.3
		c1.7,1.5,2.5,3.7,2.5,6.4h16.3c0-4.1-1.1-7.8-3.2-11C133.2,131.2,130.2,128.7,126.4,127z"/>
	<polygon class="st3" points="147.6,192.2 152.8,192.2 156,180.6 159.3,192.2 164.5,192.2 169.1,172.6 163.2,172.6 161.2,184.2 
		158.2,172.6 153.9,172.6 150.8,184.4 148.8,172.6 142.9,172.6 	"/>
	<rect x="171.4" y="172.6" class="st3" width="6.1" height="19.7"/>
	<path class="st3" d="M174.4,164.5c-1,0-1.8,0.3-2.5,0.8c-0.6,0.6-0.9,1.3-0.9,2.1c0,0.9,0.3,1.6,0.9,2.1c0.6,0.6,1.4,0.8,2.5,0.8
		c1,0,1.8-0.3,2.5-0.8c0.6-0.6,0.9-1.3,0.9-2.1c0-0.9-0.3-1.6-0.9-2.1C176.2,164.8,175.4,164.5,174.4,164.5z"/>
	<path class="st3" d="M213.1,192.6c1.6,0,3.1-0.3,4.5-0.9c1.4-0.6,2.5-1.5,3.2-2.5l-2.8-3.3c-1.1,1.4-2.6,2-4.5,2
		c-1.2,0-2.1-0.3-2.9-0.9c-0.7-0.6-1.2-1.5-1.4-2.6h12.2v-2.4c0-3.1-0.8-5.5-2.4-7.2c-1.6-1.7-3.8-2.6-6.5-2.6c-2,0-3.7,0.4-5.1,1.3
		c-1.4,0.8-2.5,2-3.3,3.6c-0.7,1.5-1.1,3.3-1.1,5.3v0.5c0,2.9,0.9,5.2,2.8,7C207.7,191.7,210.1,192.6,213.1,192.6z M212.5,176.9
		c1,0,1.7,0.3,2.2,0.8c0.5,0.5,0.8,1.3,0.7,2.3v0.5h-6.2C209.6,178.1,210.7,176.9,212.5,176.9z"/>
	<path class="st3" d="M74.5,181h-9.6l-15.6,42.5h10.9l2.5-7.9h14l2.5,7.9h11L74.5,181z M69.7,192.9l4.6,14.7h-9.1L69.7,192.9z"/>
	<path class="st3" d="M108.1,199.8h-6v6.5c-1.2-1.4-2.6-2-4.3-2c-2.4,0-4.2,0.9-5.5,2.6c-1.3,1.8-2,4.2-2,7.2c0,3.2,0.7,5.7,2,7.5
		c1.3,1.8,3.2,2.6,5.4,2.6c1.9,0,3.5-0.8,4.7-2.4l0.3,2.1h5.4V199.8z M96.2,214.4l0-1.1c0.2-3,1.2-4.5,3-4.5c1.3,0,2.3,0.6,2.8,1.7
		v7.3c-0.6,1.1-1.5,1.7-2.8,1.7C97.2,219.5,96.2,217.8,96.2,214.4z"/>
	<polygon class="st3" points="122.2,223.8 128.5,204.6 122.2,204.6 119.1,216.7 116.2,204.6 109.8,204.6 116.1,223.8 	"/>
	<path class="st3" d="M138.7,204.2c-1.9,0-3.6,0.4-5,1.2c-1.4,0.8-2.5,2-3.2,3.5c-0.7,1.5-1.1,3.2-1.1,5.2v0.5
		c0,2.8,0.9,5.1,2.7,6.9c1.8,1.8,4.2,2.6,7.2,2.6c1.6,0,3-0.3,4.4-0.9s2.4-1.4,3.2-2.5l-2.7-3.2c-1.1,1.3-2.5,2-4.4,2
		c-1.1,0-2.1-0.3-2.8-0.9c-0.7-0.6-1.2-1.5-1.4-2.5h11.9v-2.3c0-3-0.8-5.3-2.3-7C143.5,205.1,141.4,204.2,138.7,204.2z M141.6,212.3
		h-6c0.3-2.3,1.4-3.5,3.1-3.5c0.9,0,1.7,0.3,2.2,0.8c0.5,0.5,0.8,1.3,0.7,2.2V212.3z"/>
	<path class="st3" d="M155.7,210.2c0.6-0.9,1.4-1.4,2.6-1.4c1,0,1.7,0.2,2.1,0.7c0.4,0.5,0.6,1.2,0.6,2.1v12.1h6v-12.4
		c0-2.4-0.5-4.2-1.5-5.4c-1-1.2-2.5-1.8-4.5-1.8c-2.3,0-4.2,0.9-5.5,2.6l-0.2-2.3h-5.6v19.2h6V210.2z"/>
	<path class="st3" d="M171.4,199.8v4.8h-2.5v4.2h2.5v9.5c0,2,0.5,3.5,1.5,4.4c1,1,2.5,1.5,4.6,1.5c1.2,0,2.3-0.2,3.4-0.5v-4.3
		c-0.4,0.1-0.9,0.1-1.5,0.1c-0.8,0-1.1-0.1-1.4-0.4c-0.3-0.3-0.4-0.8-0.4-1.5v-8.8h3v-4.2h-3v-4.8H171.4z"/>
	<path class="st3" d="M194.3,221.7l0.2,2.1h5.6v-19.2h-6v13.5c-0.6,1-1.6,1.5-2.9,1.5c-1.6,0-2.4-0.8-2.4-2.5v-12.5l0.1-14
		c1.2,1.3,2.6,2,4.5,2c2.3,0,4.2-0.9,5.6-2.7c1.4-1.8,2.1-4.3,2.1-7.3v-0.3c0-3.1-0.7-5.6-2-7.4c-1.3-1.8-3.2-2.7-5.6-2.7
		c-1.9,0-3.5,0.7-4.6,2.2l-0.2-1.8h-5.7l0,32V217c0,2.3,0.5,4.1,1.6,5.3c1.1,1.2,2.7,1.8,4.8,1.8
		C191.4,224.2,193.1,223.3,194.3,221.7z M188.9,178.5c0.5-1,1.5-1.6,2.9-1.6c2,0,3.1,1.7,3.1,5.2v0.7c-0.1,3.4-1.1,5.1-3,5.1
		c-1.4,0-2.4-0.5-2.9-1.6V178.5z"/>
	<path class="st3" d="M209.4,211.6c0.5-1.2,1.7-1.8,3.6-1.8l2,0.1l0.1-5.6c-0.5-0.1-1-0.2-1.7-0.2c-1.8,0-3.2,0.9-4.2,2.8l-0.2-2.5
		h-5.6v19.2h6V211.6z"/>
	<path class="st3" d="M225.5,204.2c-1.9,0-3.6,0.4-5,1.2c-1.4,0.8-2.5,2-3.2,3.5c-0.7,1.5-1.1,3.2-1.1,5.2v0.5
		c0,2.8,0.9,5.1,2.7,6.9c1.8,1.8,4.2,2.6,7.2,2.6c1.6,0,3-0.3,4.4-0.9c1.4-0.6,2.4-1.4,3.2-2.5l-2.7-3.2c-1.1,1.3-2.5,2-4.4,2
		c-1.1,0-2.1-0.3-2.8-0.9c-0.7-0.6-1.2-1.5-1.4-2.5h11.9v-2.3c0-3-0.8-5.3-2.3-7C230.4,205.1,228.2,204.2,225.5,204.2z M228.4,212.3
		h-6c0.3-2.3,1.4-3.5,3.1-3.5c0.9,0,1.7,0.3,2.2,0.8c0.5,0.5,0.8,1.3,0.7,2.2V212.3z"/>
</g>
</svg>
