<?xml version="1.0" encoding="utf-8"?>
<!-- Generator: Adobe Illustrator 22.1.0, SVG Export Plug-In . SVG Version: 6.00 Build 0)  -->
<svg version="1.1" id="Layer_1" xmlns="http://www.w3.org/2000/svg" xmlns:xlink="http://www.w3.org/1999/xlink" x="0px" y="0px"
	 viewBox="0 0 220 240" style="enable-background:new 0 0 220 240;" xml:space="preserve">
<style type="text/css">
	.st0{fill:#1E4F1E;}
	.st1{fill:#1C4F31;}
	.st2{fill:#C1AD59;}
	.st3{clip-path:url(#SVGID_2_);fill:#276627;}
	.st4{clip-path:url(#SVGID_2_);fill:#1E4F1E;}
	.st5{clip-path:url(#SVGID_4_);fill:#276627;}
	.st6{clip-path:url(#SVGID_4_);fill:#1E4F1E;}
	.st7{clip-path:url(#SVGID_4_);}
	.st8{clip-path:url(#SVGID_6_);fill:#9DAD86;}
	.st9{clip-path:url(#SVGID_6_);fill:#8A9675;}
	.st10{fill:#276627;}
	.st11{clip-path:url(#SVGID_8_);fill:#1E4F1E;}
	.st12{fill:#8A9675;}
</style>
<g>
	<polygon class="st0" points="169,74.8 174.4,66.3 172.8,54 163.3,47.9 170.1,74 	"/>
	<polygon class="st0" points="107.2,55.8 98.7,58.5 90,71.7 91.7,83.8 108.1,62.5 	"/>
	<polygon class="st1" points="198.5,160.7 195,159.7 188.3,151.8 193.6,152.3 197.1,154.4 199.7,152.5 198.9,149.7 194.2,149.7 
		184.9,145.1 188.3,133.5 182,118.8 166.9,106.1 150.4,100.4 147,106.2 160.8,140.5 168.2,153 166.9,153.6 168.9,154.4 169,154.4 
		169.1,154.4 171.3,155.2 170.7,157.3 168.9,159.6 167.7,159.5 168.2,164.5 170.6,161.3 173.9,161 178.3,158.2 179.1,162.4 
		176.4,165.6 180.9,168.5 185.2,165.3 182.9,162.4 184.9,155.8 193.1,162.4 192.8,166.4 197.2,167.3 199.7,164.6 	"/>
	<polygon class="st1" points="140.5,141.5 151.4,143.8 158.1,141.5 162,131.6 157.8,124 149.5,121.4 138.8,128.4 	"/>
	<polygon class="st2" points="167.6,56.7 172.6,50.9 169.5,39.8 163.3,38.5 156,44.1 160.6,53.5 	"/>
	<polygon points="163.8,45.3 171.2,47.2 164.5,49 158.6,48.4 	"/>
	<g>
		<defs>
			<polygon id="SVGID_1_" points="172.6,118.6 157,106.2 147.6,108.8 145,126 146.5,136 156.1,136.6 158,138.2 156.8,150.8 
				159.6,162.4 143.2,164.2 138.8,168.5 133.7,170.1 133.7,172.2 138,172.2 140.4,169.6 143.7,168.5 150.3,168.5 148,172.2 
				139.1,174.9 134.1,174.6 130.2,176.4 132.1,178.3 137,178.3 140.9,176.8 147.8,174.7 152.5,174.3 145.3,183.4 141.3,185.4 
				140.8,191.3 143.7,191.3 146.1,187.6 147.4,184.4 158.4,178 162.3,176.8 166.7,182.5 165.7,186.8 170.7,188.9 172.6,186.2 
				169.5,181.8 170.1,178.6 172.6,168.5 179.2,151.6 180.7,136 			"/>
		</defs>
		<clipPath id="SVGID_2_">
			<use xlink:href="#SVGID_1_"  style="overflow:visible;"/>
		</clipPath>
		<polygon class="st3" points="172.6,118.6 157,106.2 147.6,108.8 145,126 146.5,136 156.1,136.6 158,138.2 156.8,150.8 
			159.6,162.4 143.2,164.2 138.8,168.5 133.7,170.1 133.7,172.2 138,172.2 140.4,169.6 143.7,168.5 150.3,168.5 148,172.2 
			139.1,174.9 134.1,174.6 130.2,176.4 132.1,178.3 137,178.3 140.9,176.8 147.8,174.7 152.5,174.3 145.3,183.4 141.3,185.4 
			140.8,191.3 143.7,191.3 146.1,187.6 147.4,184.4 158.4,178 162.3,176.8 166.7,182.5 165.7,186.8 170.7,188.9 172.6,186.2 
			169.5,181.8 170.1,178.6 172.6,168.5 179.2,151.6 180.7,136 		"/>
		<polyline class="st4" points="156.9,161.2 164.4,162.9 166,164.6 163.6,163.6 156.9,162.3 		"/>
	</g>
	<g>
		<defs>
			<polygon id="SVGID_3_" points="130.7,46.1 123.6,37.6 111.9,36.5 103.4,46.1 104.8,61.7 95,71.5 85.7,86.9 84.5,104.6 114.8,111 
				110.3,126.9 93.6,138.3 74.1,142.3 78.5,146 92.3,151 122.5,154.4 144.3,146.8 151.1,127.7 151.1,114.7 159.4,102.8 168.9,82.4 
				173.2,70.5 170.7,60.1 163.8,48.6 162.8,43.4 163.8,38.4 155.9,34 149.3,38.4 147.4,43.2 			"/>
		</defs>
		<clipPath id="SVGID_4_">
			<use xlink:href="#SVGID_3_"  style="overflow:visible;"/>
		</clipPath>
		<polygon class="st5" points="130.7,46.1 123.6,37.6 111.9,36.5 103.4,46.1 104.8,61.7 95,71.5 85.7,86.9 84.5,104.6 114.8,111 
			110.3,126.9 93.6,138.3 78.5,142.3 78.5,146 92.3,151 122.5,154.4 144.3,146.8 151.1,127.7 151.1,114.7 159.4,102.8 168.9,82.4 
			174.3,69.9 171.1,58.8 160.4,48.8 159.4,43.7 163.8,38.4 155.9,34 149.3,38.4 147.4,43.2 		"/>
		<polygon class="st6" points="131.3,43.2 127.7,59.6 117,66.4 109,67.3 117,67.9 130.8,60.1 133.1,42.1 		"/>
		<polygon class="st6" points="154.7,52.1 157.1,53.7 162.2,56.4 168.8,57 175.6,55 169.9,58.4 161.5,58.1 155.8,54.8 153.4,52.6 
			150.4,47.3 		"/>
		<g class="st7">
			<defs>
				<polygon id="SVGID_5_" points="114.8,111 114.8,103.3 109.2,94.2 120.4,84.8 140.5,77.1 169.2,78.7 180,77.5 165.9,101.5 
					156,126 144.8,152.5 105.5,162.4 70.3,149.3 90.5,122.6 108.2,112.7 				"/>
			</defs>
			<clipPath id="SVGID_6_">
				<use xlink:href="#SVGID_5_"  style="overflow:visible;"/>
			</clipPath>
			<polygon class="st8" points="114.8,111 114.8,103.3 106.6,94.2 120.4,84.8 140.5,77.1 169.2,78.7 180,77.5 165.9,101.5 156,126 
				144.8,152.5 105.5,162.4 70.3,149.3 90.5,122.6 108.2,112.7 			"/>
			<polygon class="st9" points="174.6,64.6 154.4,101.8 145,112.9 140.4,124.5 129.9,141.7 112.7,149.1 77.2,146.3 98.2,158.1 
				136.4,164.1 171.2,136 183.3,92.7 			"/>
		</g>
		<g class="st7">
			<polygon class="st1" points="102.8,88.5 120.9,73.6 143.7,68.8 175.6,70.6 175.6,71.5 143.8,70.3 121.5,75.1 			"/>
		</g>
	</g>
	<polygon class="st2" points="106.6,53 114.5,42.4 122.4,47.9 121.1,58 109.5,60.2 	"/>
	<polygon class="st1" points="96.2,99.3 79.1,101.5 65.5,103.9 50,114.6 42.5,125.6 39.3,137.9 36.5,151.3 26.5,156.6 21.8,157.1 
		21.3,160.1 24.1,161.6 28.4,159.6 32.5,158.1 27.4,164.4 23.6,165.9 22.7,169.9 26.7,171.6 30.3,170.1 31,167 36.4,161.6 
		38.1,168.1 37.1,171.2 41.7,173.9 45.8,170.5 42.9,167.6 43.2,163.4 53.9,168.6 51.4,160 53.4,155 55.2,155 57.6,145.9 61.7,136 
		81,130 98.2,109.6 	"/>
	<path class="st10" d="M78.5,142.3l15.1-4l16.7-11.4l6.6-12.7l-2.1-10.9l-30.3,1.3L71,112.8l-11.3,14.4l-9,16.6v17.8l6.3,22.8l0,0
		l1.3,7.5l11.1,5.5l5.4-0.6l7.2,3.2l2.6,3l3.4,0.7l2.4-1.7l-2.1-2.9l-3.7-1.2l-5.3-5.9l4.1-0.8l13,4.6l3.6,3.2l0.3,3.7l5,1.7
		l2.8-3.1v-2.3l-9.5-6.4l-16.3-4.9l12.4,1.1l6,2.4l4.2,1.5l3.2-1.5l-1.6-4.5h-4.2l-11.8-2.8l-7.9,0.7l-2.1-0.7l2.6-0.9l7.4-1.2
		l5.5,0.5l1.3,0.9l3,0.6h2.1l-0.2-2.5l-3.3-1.2l-2.6-0.1l-7.3-2.6l-14.6,1.2l-1.1-12l-3.6-9.3l0.4-2.9L78.5,142.3z M58.6,183.9
		L58.6,183.9L58.6,183.9L58.6,183.9z"/>
	<g>
		<defs>
			<path id="SVGID_7_" d="M78.5,142.3l15.1-4l16.7-11.4l6.6-12.7l-2.1-10.9l-30.3,1.3L71,112.8l-11.3,14.4l-9,16.6v17.8l6.3,22.8
				l0,0l1.3,7.5l8.7,12.6l10.9,1l8.6,1.7l10.4-10.9l3.2,2.8l0.3,3.7l5,1.7l2.8-3.1v-2.3l-10-5.6l-15.8-5.7l12.4,1.1l6,2.4l4.2,1.5
				l3.2-1.5l-1.6-4.5h-4.2l-11.8-2.8h-10l-2.1-2.1h12.1l5.5,0.5l1.3,0.9l3,0.6h2.1l-0.2-2.5l-3.3-1.2l-2.6-0.1l-7.3-2.6l-14.6,1.2
				l-1.1-12l-3.6-9.3l0.4-2.9L78.5,142.3z M58.6,183.9L58.6,183.9L58.6,183.9L58.6,183.9z"/>
		</defs>
		<clipPath id="SVGID_8_">
			<use xlink:href="#SVGID_7_"  style="overflow:visible;"/>
		</clipPath>
		<polygon class="st11" points="80.9,177.6 70.8,181.1 64.3,183.9 70.5,179.7 78.8,177.6 		"/>
	</g>
	<polygon class="st10" points="90.6,78.7 83.8,94.2 83.8,120.1 102.4,108.4 97.7,89 	"/>
	<polyline class="st12" points="150.8,108.8 130.2,114.4 139.1,116.3 148.5,116.3 	"/>
	<polygon points="106.6,53 113.4,48.9 122.4,47.9 114.5,53 	"/>
</g>
</svg>
