<svg id="Layer_1" xmlns="http://www.w3.org/2000/svg" xmlns:xlink="http://www.w3.org/1999/xlink" viewBox="0 0 70 70"><style>.st5{fill:#604228}.st7,.st9{clip-path:url(#SVGID_4_);fill:#724d2f}.st9{clip-path:url(#SVGID_6_)}</style><path d="M46.5 8L51 2.5c-.1-.1-.1-.1-.2-.1l-4.9 1.1c-2.2.5-4.3 1.3-6.2 2.2l3.3 5.8c1.3-.9 2.5-2.1 3.5-3.5z" opacity=".29" fill="#604228"/><defs><path id="SVGID_1_" d="M18.2 52.9h26.7c1.1 0 2.2-.4 3.1-1.1l14.8-12.6c3.7-3.1 4.6-8.4 2.2-12.6L51.3 2.5c-.1-.1-.2-.1-.3 0L46.5 8c-2.9 3.6-6.8 6.2-11.2 7.4L27 17.8c-.2.1-.3.4 0 .5l9.8 4.9c.5.3.9.7 1 1.3l1.6 6.6c.2.9 0 1.9-.7 2.6l-9.1 9.1c-.7.7-1.5 1.1-2.5 1.3l-5.3 1c-3.1.6-5.2 3.5-4.7 6.6l.1.3c.2.6.6.9 1 .9z"/></defs><clipPath id="SVGID_2_"><use xlink:href="#SVGID_1_" overflow="visible"/></clipPath><g opacity=".29" clip-path="url(#SVGID_2_)"><path d="M65 26.6L51.3 2.5c-.1-.1-.2-.1-.3 0L46.5 8c-1.1 1.3-2.3 2.5-3.6 3.5l8.6 15c2.4 4.2 1.5 9.5-2.2 12.6L34.5 51.8c-.9.7-1.9 1.1-3.1 1.1h13.5c1.1 0 2.2-.4 3.1-1.1l14.8-12.6A10 10 0 0 0 65 26.6z" fill="#845c35"/><path d="M70.3 10.2L51.1-1.1l-6.7 7.9s19.1 19.1 19.1 25.9c0 5.7-13.6 18.8-18 20.2-1.6.5-6.1 0-11.6-.8-.8.5-1.6.8-2.5.8H15.6l1.8 9s40.5-4.5 41.6-4.5 14.6-27 14.6-27l-3.3-20.2z" fill="#724d2f"/></g><g opacity=".7"><path class="st5" d="M44 2.4l-4.9 1.1c-6 1.4-11.5 4.8-15.4 9.6l-3.8 4.6c-.1.1 0 .4.2.4l18.5 2.2c.1 0 .2-.1.2-.2l4.4-12.2 1-5.2c.2-.2 0-.4-.2-.3z"/><defs><path id="SVGID_3_" d="M11.5 52.9h26.7c1.1 0 2.2-.4 3.1-1.1l14.8-12.6c3.7-3.1 4.6-8.4 2.2-12.6L44.5 2.5c-.1-.1-.2-.1-.3 0L39.8 8c-2.9 3.6-6.8 6.2-11.2 7.4l-8.3 2.4c-.2.1-.3.4 0 .5l9.8 4.9c.5.3.9.7 1 1.3l1.6 6.6c.2.9 0 1.9-.7 2.6l-9 9.2c-.7.7-1.5 1.1-2.5 1.3l-5.3 1c-3.1.6-5.2 3.5-4.7 6.6l.1.3c0 .5.4.8.9.8z"/></defs><clipPath id="SVGID_4_"><use xlink:href="#SVGID_3_" overflow="visible"/></clipPath><path d="M11.5 52.9h26.7c1.1 0 2.2-.4 3.1-1.1l14.8-12.6c3.7-3.1 4.6-8.4 2.2-12.6L44.5 2.5c-.1-.1-.2-.1-.3 0L39.8 8c-2.9 3.6-6.8 6.2-11.2 7.4l-8.3 2.4c-.2.1-.3.4 0 .5l9.8 4.9c.5.3.9.7 1 1.3l1.6 6.6c.2.9 0 1.9-.7 2.6l-9 9.2c-.7.7-1.5 1.1-2.5 1.3l-5.3 1c-3.1.6-5.2 3.5-4.7 6.6l.1.3c0 .5.4.8.9.8z" clip-path="url(#SVGID_4_)" fill="#845c35"/><path class="st7" d="M37.7 6.8s19.1 16.9 19.1 25.9c0 5.7-13.6 18.8-18 20.2-3.4 1.1-19.2-2.6-30.4-2.2l2.2 11.2s40.5-4.5 41.6-4.5 14.6-27 14.6-27l-3.4-20.2-19-11.3-6.7 7.9z"/><path class="st7" d="M42.9 36.9s-10.7-6.8-13.2-1.3c1.9.2 2.3-1.8 13.2 1.3zM38.4 40.4s-10.7-6.8-13.2-1.3c1.9.1 2.3-2 13.2 1.3zM36.1 44.8s-10.4-7.4-13.1-2c1.9.2 3.4-2.3 13.1 2z"/></g><g><path class="st5" d="M37.3 2.4l-4.9 1.1c-6 1.4-11.5 4.8-15.4 9.6l-3.8 4.6c-.1.1 0 .4.2.4l18.5 2.2c.1 0 .2-.1.2-.2l4.4-12.2 1-5.2c.1-.2 0-.4-.2-.3z"/><defs><path id="SVGID_5_" d="M4.7 52.9h26.7c1.1 0 2.2-.4 3.1-1.1l14.8-12.6c3.7-3.1 4.6-8.4 2.2-12.6L37.8 2.5c-.1-.1-.2-.1-.3 0L33.1 8c-2.9 3.6-6.8 6.2-11.2 7.4l-8.3 2.4c-.2.1-.3.4 0 .5l9.8 4.9c.5.3.9.7 1 1.3l1.6 6.6c.2.9 0 1.9-.7 2.6l-9.1 9.1c-.7.7-1.5 1.1-2.5 1.3l-5.3 1c-3.1.6-5.2 3.5-4.7 6.6l.1.3c.1.6.5.9.9.9z"/></defs><clipPath id="SVGID_6_"><use xlink:href="#SVGID_5_" overflow="visible"/></clipPath><path d="M4.7 52.9h26.7c1.1 0 2.2-.4 3.1-1.1l14.8-12.6c3.7-3.1 4.6-8.4 2.2-12.6L37.8 2.5c-.1-.1-.2-.1-.3 0L33.1 8c-2.9 3.6-6.8 6.2-11.2 7.4l-8.3 2.4c-.2.1-.3.4 0 .5l9.8 4.9c.5.3.9.7 1 1.3l1.6 6.6c.2.9 0 1.9-.7 2.6l-9.1 9.1c-.7.7-1.5 1.1-2.5 1.3l-5.3 1c-3.1.6-5.2 3.5-4.7 6.6l.1.3c.1.6.5.9.9.9z" clip-path="url(#SVGID_6_)" fill="#845c35"/><path class="st9" d="M30.9 6.8S47.8 20.3 50 32.7c1 5.6-13.6 18.8-18 20.2-3.4 1.1-19.2-2.6-30.4-2.2l2.2 11.2s40.5-4.5 41.6-4.5 14.6-27 14.6-27l-3.4-20.2L37.7-1.1l-6.8 7.9z"/><path class="st9" d="M36.1 36.9s-10.7-6.8-13.2-1.3c1.9.2 2.4-1.8 13.2 1.3zM31.7 40.4S21 33.6 18.5 39.1c1.9.1 2.3-2 13.2 1.3zM29.4 44.8s-10.4-7.4-13.1-2c1.9.2 3.4-2.3 13.1 2z"/></g></svg>