<svg id="Layer_1" xmlns="http://www.w3.org/2000/svg" viewBox="0 0 300 280"><style>.st2{fill:#4c6858}.st3{fill:#4d5851}.st4{fill:#4d6054}</style><path d="M0 40.7V280h300V40.7c0-21.1-16.4-38.6-37.4-40H37.4C16.4 2.1 0 19.6 0 40.7z" fill="#4c7760"/><path d="M300 0H0v176.5h38.6s16.5-48.8 115.7-48.8 132.5 48.8 132.5 48.8H300V0z" fill="#686b8b"/><path class="st2" d="M148 236.6l-27.5-47.7h13.1l-21.3-37h13.2l-24-41.5h9.4L88.2 71.1l-22.7 39.3h9.4l-24 41.5h13.2l-21.4 37h13.2l-27.6 47.7h53.6v23.7h15.7v-23.7z"/><path class="st3" d="M95.9 138.5l-21.4-37h13.2L63.7 60h9.4L50.4 20.7 27.7 60h9.4l-24 41.5h13.2l-21.4 37h13.2L0 169.8v16.4h33.1v23.7l26.7 22v-45.7h50.4l-27.5-47.7z"/><path class="st4" d="M41.7 191.3h13.2l-21.4-37h13.2l-24-41.5h9.4L9.5 73.4 0 89.8V239h3.1v16.9c1 2.4 2.2 4.7 3.7 6.8h12.1V239h50.4l-27.6-47.7z"/><path class="st2" d="M294 131.8l-19.3 33.5h11.9l-24.9 43.1H300V100.8l-17.9 31z"/><path class="st3" d="M300 104.6l-1.1-1.9h1.1V84l-10.8-18.8h8.5l-20.6-35.6-20.5 35.6h8.5l-21.7 37.5h11.9L236 136.1h11.9l-24.8 43.1h48.3v21.4l14.3 21.2v-42.6H300z"/><path class="st4" d="M296.3 217.6l-24.8-43.1h11.8L264 141.1h11.9l-21.6-37.5h8.5l-20.5-35.5-20.6 35.5h8.5l-21.6 37.5h11.9l-19.3 33.4h11.9l-24.9 43.1h48.4V239h14.2v-21.4z"/><linearGradient id="SVGID_1_" gradientUnits="userSpaceOnUse" x1="149.93" y1="230.45" x2="149.93" y2="280.42"><stop offset="0" stop-opacity="0"/><stop offset="1" stop-opacity=".3"/></linearGradient><path fill="url(#SVGID_1_)" d="M300 280H0l-.1-53H300z"/><linearGradient id="SVGID_2_" gradientUnits="userSpaceOnUse" x1="-1356.38" y1="-595.13" x2="-1356.38" y2="-532.22" gradientTransform="rotate(180 -603.15 -266.15)"><stop offset="0" stop-opacity="0"/><stop offset="1" stop-opacity=".3"/></linearGradient><path fill="url(#SVGID_2_)" d="M0 0h300.1v67.2H0z"/></svg>