<?xml version="1.0" encoding="utf-8"?>
<!-- Generator: Adobe Illustrator 22.1.0, SVG Export Plug-In . SVG Version: 6.00 Build 0)  -->
<svg version="1.1" id="Layer_1" xmlns="http://www.w3.org/2000/svg" xmlns:xlink="http://www.w3.org/1999/xlink" x="0px" y="0px"
	 viewBox="0 0 300 280" style="enable-background:new 0 0 300 280;" xml:space="preserve">
<style type="text/css">
	.st0{fill:#4C7760;}
	.st1{fill:#686B8B;}
	.st2{fill:#4C6858;}
	.st3{fill:#4D5851;}
	.st4{fill:#4D6054;}
	.st5{fill:url(#SVGID_1_);}
	.st6{fill:url(#SVGID_2_);}
</style>
<title>Artboard 1</title>
<path class="st0" d="M0,40.7V280h300V40.7c0-21.1-16.4-38.6-37.4-40H37.4C16.4,2.1,0,19.6,0,40.7z"/>
<path class="st1" d="M300,0H0v176.5h38.6c0,0,16.5-48.8,115.7-48.8s132.5,48.8,132.5,48.8H300V0z"/>
<polygon class="st2" points="148,236.6 120.5,188.9 133.6,188.9 112.3,151.9 125.5,151.9 101.5,110.4 110.9,110.4 88.2,71.1 
	65.5,110.4 74.9,110.4 50.9,151.9 64.1,151.9 42.7,188.9 55.9,188.9 28.3,236.6 81.9,236.6 81.9,260.3 97.6,260.3 97.6,236.6 "/>
<polygon class="st3" points="95.9,138.5 74.5,101.5 87.7,101.5 63.7,60 73.1,60 50.4,20.7 27.7,60 37.1,60 13.1,101.5 26.3,101.5 
	4.9,138.5 18.1,138.5 0,169.8 0,186.2 33.1,186.2 33.1,209.9 59.8,231.9 59.8,186.2 110.2,186.2 82.7,138.5 "/>
<path class="st4" d="M41.7,191.3h13.2l-21.4-37h13.2l-24-41.5h9.4L9.5,73.4L0,89.8v149.2h3.1v16.9c1,2.4,2.2,4.7,3.7,6.8h12.1v-23.7
	h50.4L41.7,191.3z"/>
<polygon class="st2" points="294,131.8 274.7,165.3 286.6,165.3 261.7,208.4 300,208.4 300,100.8 282.1,131.8 "/>
<polygon class="st3" points="300,104.6 298.9,102.7 300,102.7 300,84 289.2,65.2 297.7,65.2 277.1,29.6 256.6,65.2 265.1,65.2 
	243.4,102.7 255.3,102.7 236,136.1 247.9,136.1 223.1,179.2 271.4,179.2 271.4,200.6 285.7,221.8 285.7,179.2 300,179.2 "/>
<polygon class="st4" points="296.3,217.6 271.5,174.5 283.3,174.5 264,141.1 275.9,141.1 254.3,103.6 262.8,103.6 242.3,68.1 
	221.7,103.6 230.2,103.6 208.6,141.1 220.5,141.1 201.2,174.5 213.1,174.5 188.2,217.6 236.6,217.6 236.6,239 250.8,239 
	250.8,217.6 "/>
<linearGradient id="SVGID_1_" gradientUnits="userSpaceOnUse" x1="149.925" y1="230.4463" x2="149.925" y2="280.4245">
	<stop  offset="0" style="stop-color:#000000;stop-opacity:0"/>
	<stop  offset="1" style="stop-color:#000000;stop-opacity:0.3"/>
</linearGradient>
<polygon class="st5" points="300,280 0,280 -0.1,227 300,227 "/>
<linearGradient id="SVGID_2_" gradientUnits="userSpaceOnUse" x1="-1356.375" y1="-595.1336" x2="-1356.375" y2="-532.2151" gradientTransform="matrix(-1 0 0 -1 -1206.3 -532.3)">
	<stop  offset="0" style="stop-color:#000000;stop-opacity:0"/>
	<stop  offset="1" style="stop-color:#000000;stop-opacity:0.3"/>
</linearGradient>
<polygon class="st6" points="0,0 300.1,0 300.1,67.2 0,67.2 "/>
</svg>
