<?xml version="1.0" encoding="utf-8"?>
<!-- Generator: Adobe Illustrator 22.1.0, SVG Export Plug-In . SVG Version: 6.00 Build 0)  -->
<svg version="1.0" id="Layer_2_1_" xmlns="http://www.w3.org/2000/svg" xmlns:xlink="http://www.w3.org/1999/xlink" x="0px" y="0px"
	 viewBox="0 0 220 220" style="enable-background:new 0 0 220 220;" xml:space="preserve">
<style type="text/css">
	.st0{fill:#42321F;}
	.st1{fill:#7F603D;}
	.st2{fill:#E0AB65;}
	.st3{fill:#634B2E;}
	.st4{fill:#725733;}
	.st5{fill:#C9985D;}
	.st6{fill:#7F6238;}
	.st7{fill:#A58E74;}
	.st8{fill:#594F47;}
</style>
<g>
	<polygon class="st0" points="108.3,96.1 61.3,95.1 61.4,95 41.9,94.6 32.2,101.4 151.2,103.8 175.4,97.9 149.2,96.9 108.2,96 	"/>
	<polygon class="st1" points="192.3,95.7 192.3,98.6 192.3,95.7 	"/>
	<polygon class="st1" points="107.3,106.9 107.3,106.9 149.5,107.8 186.2,99.9 186.2,98.3 175.4,97.9 151.2,103.8 32.2,101.4 
		41.9,94.6 37.3,94.5 22.4,105.1 102.9,106.8 	"/>
	<polygon class="st2" points="149.5,107.8 107.3,106.9 101.4,112.9 141,113.8 138.1,180.4 90.9,179.4 86.8,122.5 77.8,122 
		82.8,179.3 45.6,178.5 32.2,111.3 63.9,112 58.4,105.9 102.9,106.8 22.4,105.1 39.8,183.7 146.2,188 	"/>
	<polygon class="st3" points="186.4,107.8 154.8,113.5 153.3,180.4 177.7,171.7 	"/>
	<polygon class="st4" points="91.7,122.8 86.8,122.5 90.9,179.4 138.1,180.4 141,113.8 101.4,112.9 	"/>
	<polygon class="st4" points="63.9,112 32.2,111.3 45.6,178.5 82.8,179.3 77.8,122 72.5,121.7 	"/>
	<path class="st5" d="M192,64.8l-19.3-20l-23.5,23.6v28.5l26.2,1l10.8,0.4v1.6l-36.7,7.9l-3.3,80.2l35.5-9.4l10.6-80l0-2.9L192,64.8
		z M155.6,71l17.1-17.8l13.5,15.2v25.5l-30.6-2.6V71z M177.7,171.7l-24.4,8.7l1.5-66.9l31.6-5.7L177.7,171.7z"/>
	<path class="st2" d="M41.9,94.6L61.4,95l4.3-4.6l-38.4-1.1V68.4L79.1,69v12.6h6.8L85.7,69l59,0.6l-0.6,23l-40.5-1.2l4.7,4.5l41,0.9
		V68.4l23.5-23.6H46.1l-24,21.5v27.9l15.2,0.3L41.9,94.6z M147.3,63.9l-59.5-0.1l9.7-16.7l66,0.2L147.3,63.9z M50.3,46.9L91,47
		l-9.9,16.7l-49.8-0.1h0L50.3,46.9z"/>
	<polygon class="st3" points="186.2,68.4 172.7,53.2 155.6,71 155.6,91.3 186.2,93.9 	"/>
	<polygon class="st6" points="103.6,91.5 144.1,92.7 144.7,69.7 85.7,69 85.9,81.6 93.3,81.6 	"/>
	<polygon class="st6" points="74,81.6 79.1,81.6 79.1,69 27.3,68.4 27.3,89.3 65.7,90.4 	"/>
	<polygon class="st6" points="31.4,63.7 50.3,46.9 31.3,63.7 	"/>
	<polygon class="st3" points="87.7,63.8 147.3,63.9 163.5,47.3 97.5,47.1 	"/>
	<polygon class="st3" points="81.1,63.8 91,47 50.3,46.9 31.4,63.7 	"/>
	<path class="st7" d="M108.3,96.1L108.3,96.1l-4.7-4.6l-10.3-9.9h-7.4h-6.8H74l-8.3,8.8L61.4,95l-0.1,0.1L108.3,96.1z M76.9,84h14.2
		l6.7,8.8l-28.1-0.9L76.9,84z"/>
	<path class="st7" d="M102.9,106.8l-44.5-0.9l5.5,6.1l8.6,9.7l5.3,0.3l9,0.5l4.9,0.3l9.7-9.9l5.9-6l0,0L102.9,106.8z M91,118.2
		l-14.2,0.1l-7.3-7.9l28.1-1L91,118.2z"/>
	<polygon class="st8" points="97.8,92.8 91.1,84 76.9,84 69.7,91.9 	"/>
	<polygon class="st8" points="69.5,110.4 76.8,118.3 91,118.2 97.6,109.4 	"/>
</g>
</svg>
