<?xml version="1.0" encoding="utf-8"?>
<!-- Generator: Adobe Illustrator 22.1.0, SVG Export Plug-In . SVG Version: 6.00 Build 0)  -->
<svg version="1.0" id="Layer_2" xmlns="http://www.w3.org/2000/svg" xmlns:xlink="http://www.w3.org/1999/xlink" x="0px" y="0px"
	 viewBox="0 0 220 220" style="enable-background:new 0 0 220 220;" xml:space="preserve">
<style type="text/css">
	.st0{fill:#42321F;}
	.st1{fill:#7F603D;}
	.st2{fill:#E0AB65;}
	.st3{fill:#C9985D;}
	.st4{fill:#634B2E;}
	.st5{fill:#725733;}
	.st6{fill:#7F6238;}
	.st7{fill:#A58E74;}
	.st8{fill:#594F47;}
</style>
<g>
	<polygon class="st0" points="48.6,87.9 22.4,105.1 180.3,119.8 191.9,101.4 191.9,92 	"/>
	<polygon class="st1" points="46.6,91.3 32.2,101.4 151.2,103.8 184.3,95.7 192.3,95.7 192.3,98.6 185,107.8 137,114.9 35.2,111.4 
		22.4,105.1 41.9,91.3 	"/>
	<polygon class="st2" points="149.5,107.8 22.4,105.1 39.8,183.7 146.2,188 	"/>
	<polygon class="st3" points="149.5,107.8 192.3,98.6 181.7,178.6 146.2,188 	"/>
	<polygon class="st4" points="154.8,113.5 186.4,107.8 177.7,171.7 153.3,180.4 	"/>
	<polygon class="st5" points="32.2,111.3 141,113.8 138.1,180.4 45.6,178.5 	"/>
	<g>
		<polygon class="st3" points="149.2,96.9 149.2,68.4 172.7,44.8 192,64.8 192.3,98.6 186.2,101.8 186.2,98.3 		"/>
		<polygon class="st2" points="22.1,94.2 22.1,66.3 149.2,68.4 149.2,96.9 		"/>
		<polygon class="st2" points="22.1,66.3 46.1,44.8 172.7,44.8 149.2,68.4 		"/>
		<polygon class="st4" points="155.6,91.3 155.6,71 172.7,53.2 186.2,68.4 186.2,93.9 		"/>
		<polygon class="st6" points="27.3,89.3 27.3,67.3 50.3,46.9 163.5,47.3 144.8,65.6 144.1,92.7 		"/>
		<polygon class="st4" points="32.2,65 146.2,65 163.5,47.3 50.3,46.9 29.9,65 		"/>
		<polygon class="st2" points="25.1,68.4 147.3,69.7 149.5,63.9 26,63.7 		"/>
	</g>
	<g>
		<defs>
			<polygon id="SVGID_1_" points="32.2,111.3 141,113.8 138.1,180.4 45.6,178.5 			"/>
		</defs>
		<clipPath id="SVGID_2_">
			<use xlink:href="#SVGID_1_"  style="overflow:visible;"/>
		</clipPath>
	</g>
	<polygon class="st2" points="82.9,180.4 76.9,111.3 86,111.3 91.1,182.6 	"/>
	<polyline class="st2" points="79.1,92.7 79.1,67.2 91.1,46.9 97.8,46.5 85.7,67.3 86,92.7 	"/>
	<polygon class="st7" points="61.3,95.1 74,81.6 93.3,81.6 108.3,96.1 	"/>
	<polygon class="st7" points="58.4,105.9 72.5,121.7 91.7,122.8 107.3,106.9 	"/>
	<polygon class="st8" points="69.7,91.9 76.9,84 91.1,84 97.8,92.8 	"/>
	<polygon class="st8" points="69.5,110.4 76.8,118.3 91,118.2 97.6,109.4 	"/>
</g>
</svg>
