<?xml version="1.0" encoding="utf-8"?>
<!-- Generator: Adobe Illustrator 22.1.0, SVG Export Plug-In . SVG Version: 6.00 Build 0)  -->
<svg version="1.0" id="Layer_1" xmlns="http://www.w3.org/2000/svg" xmlns:xlink="http://www.w3.org/1999/xlink" x="0px" y="0px"
	 viewBox="0 0 220 220" style="enable-background:new 0 0 220 220;" xml:space="preserve">
<style type="text/css">
	.st0{fill:none;}
	.st1{fill:#297296;}
	.st2{fill:#3083B8;}
	.st3{fill:#245896;}
	.st4{fill:#174054;}
	.st5{fill:#102C38;}
	.st6{fill:#3DA6E8;}
	.st7{fill:#3696C6;}
	.st8{fill:#2964AA;}
	.st9{fill:#205A77;}
	.st10{fill:#1B4C60;}
	.st11{fill:#3E77DB;}
	.st12{fill:#4089E2;}
	.st13{fill:#3259CF;}
	.st14{fill:#244A85;}
	.st15{fill:#1E3C6B;}
	.st16{fill:#3D8DE8;}
	.st17{fill:#3661C6;}
	.st18{fill:#2965AA;}
	.st19{fill:#204D77;}
	.st20{fill:#1B3760;}
</style>
<g>
	<polygon class="st0" points="97.1,159.4 102.6,142.3 102.8,141.8 100.7,141.8 95.2,140.2 91.9,139 91.3,144.5 93.1,162.4 94.9,166 
		97.9,163.8 	"/>
	<polygon class="st1" points="112.2,99.1 112.2,128.5 112.2,138.1 108,141.8 106.2,141.8 104.7,148 100.9,157 98.9,160 99.5,164.2 
		95.8,167.7 98.7,173.3 104.9,186.3 104.8,189.9 108.3,191.7 109,192.9 112.1,191.6 119.4,176.5 116,168.2 119.6,165.1 115.4,147.4 
		118.3,117 115.9,98.9 112,98.6 	"/>
	<polygon class="st2" points="102.6,142.3 97.1,159.4 97.9,163.8 94.9,166 95.8,167.7 99.5,164.2 98.9,160 100.9,157 104.7,148 
		106.2,141.8 102.8,141.8 	"/>
	<polygon class="st2" points="88.6,180.7 88.8,181.2 88.9,179.9 	"/>
	<polygon class="st3" points="125.4,90.5 120.7,92.3 117,96.2 111.1,94.7 110.7,94.5 112,98.6 115.9,98.9 115.9,98.9 119.2,96.4 
		125.6,95.5 127.1,96.3 128.9,92.1 	"/>
	<path class="st4" d="M91.2,20.2l6.5-2.7l7.2,1l4.2,3.7l-5.6-2.4l-5.3,0.7l-7.5,2.4l-0.2,0l-2.3,9.2l-0.7,14.1l-0.2,1.5l2.2-1.3
		l5.1-0.7l4.2,1.7L94,46.9l-2.6,0.4L87.2,49l-0.1,0l-1.6,10.9l1.2,4.9l0.9-0.8l1.6-1.5L99.3,66l4.7,8l2.1,6.4l3.3,1.8l-3-0.9
		l4.3,13.2l0.4,0.2l5.9,1.5l3.7-3.9l4.7-1.8l3.5,1.6l5.3-12.7L130,57.6l-4.2-14.3L107.1,12L98,5.7l-4.1,3.6L91.2,20.2z M125.8,67
		l-5.4,0.1l-5.1,0.7l-6.3,2.3l4.6-3.6l7.9-1.1L125.8,67z M112.4,51.6l-2.9,0.4l-5.5,2.4l-4,2.2l-3.6,1.6l3.3-3.9l6.4-3l6.8-1
		l5.9,1.4L112.4,51.6z M117.4,35.5l-3.4,0.4l-6.1-0.3l-5.7,0.8l-3.7,0.5l5.4-1.9l6-0.8L117.4,35.5z"/>
	<polygon class="st5" points="86.7,64.8 85.5,59.9 87.1,49 84.3,49.4 87.3,47.7 87.5,46.2 88.2,32.1 90.5,22.9 86.4,23.7 90.4,20.5 
		91.2,20.2 93.9,9.3 98,5.7 95.7,4.1 83.9,10.2 79.4,20.7 73.5,53.1 77,79.3 81,70 	"/>
	<polygon class="st3" points="98.2,20.5 103.5,19.8 109.1,22.2 104.9,18.5 97.7,17.5 91.2,20.2 90.4,20.5 86.4,23.7 90.5,22.9 
		90.7,22.9 	"/>
	<polygon class="st3" points="98.5,36.9 102.2,36.4 107.9,35.6 114,35.9 117.4,35.5 109.9,34.2 103.9,35 	"/>
	<polygon class="st3" points="91.4,47.3 94,46.9 98.8,47.4 94.6,45.7 89.5,46.4 87.3,47.7 84.3,49.4 87.1,49 87.2,49 	"/>
	<polygon class="st3" points="106.1,51.3 99.7,54.3 96.4,58.2 100,56.6 104,54.4 109.5,52 112.4,51.6 118.8,51.7 112.9,50.3 	"/>
	<polygon class="st3" points="113.6,66.5 109,70.1 115.3,67.8 120.4,67.1 125.8,67 121.5,65.4 	"/>
	<polygon class="st3" points="109.4,82.2 106.1,80.4 106.4,81.3 	"/>
	<path class="st6" d="M111.4,198.9l-4.2-6.1l-3.6-2.6v-3.4l-1.9-2.2l-4-6.7l-4.6-12.1L90.4,154c0,0-0.7-10.1-0.5-10.7
		c0.1-0.4,0.5-3,0.7-4.8l-0.1,0l-7.1,1.7v14.6l5.6,23.9l-0.1,1.2l-0.1,1.3l-1.1,12l3.1,2.2l-1.8,6.9l7.4,11.2l9.1,2.4l5.1-3l2-7.7
		L111.4,198.9z"/>
	<path class="st7" d="M104.8,189.9l0.1-3.6l-6.2-13l-2.9-5.6l-0.9-1.7l-1.8-3.6l-1.8-17.9l0.6-5.5l-1.4-0.5
		c-0.2,1.8-0.6,4.4-0.7,4.8c-0.2,0.6,0.5,10.7,0.5,10.7l2.7,11.8l4.6,12.1l4,6.7l1.9,2.2v3.4l3.6,2.6l4.2,6.1l1.2,6.3l-2,7.7
		l1.6-0.9l1.8-9.7l-5-9.4l-0.7-1.2L104.8,189.9z"/>
	<polygon class="st8" points="65.9,138.5 66,138.5 66,138.5 	"/>
	<polygon class="st8" points="90.5,138.5 90.6,138.5 91.9,139 95.2,140.2 100.7,141.8 102.8,141.8 106.2,141.8 108,141.8 101,140 
		97.1,134.2 96.7,134.1 92.5,132.7 86.8,136.3 82.2,138.1 78.9,135.4 74.9,134.5 71.9,136.3 70.1,139.4 67.5,139.6 70.9,141.8 
		75.3,138.5 80.5,138.5 83.4,140.2 	"/>
	<path class="st9" d="M71.9,136.3l3-1.8l4,0.9l3.3,2.7l4.6-1.8l5.7-3.6l4.2,1.4l4.8-10.7l1-9.7l-3.8-0.3l-5,0.4l3.6-1.4h3.6l1.7,0.7
		l0.8-7.3l-2.5-8.5h-0.1l-3.5-0.9h-2.1l-3.7,0.9l3.1-1.8h4.1l1.9,0.8l-0.3-1.2L98.2,84l-2.8-7.1l-0.2,0L89,75.8h-4.3l-4.2,2.5
		l2.9-3.4l5.6-1.5l5.5,1.3l-3.3-8.3L87.6,64l-0.9,0.8L81,70l-4,9.3L69.5,97l-1.8,11.8L66,138.5l0,0.1l-0.1,1.2l1.6-0.1l2.6-0.2
		L71.9,136.3z M95.9,124.8l2.8,1.4l-2.6-0.5l-3.4-0.9h-2.8l-3.2,1.4l2.9-2.1l2.5-0.7L95.9,124.8z M81.2,88H86l4.5,0.9h-3h-4.6
		l-4.8,0.9h-2.8L81.2,88z M80.5,101.2H86l5.5,1.7l3,2.8l-3-1l-3.5-1.3l-4.6-1.3H81l-5,0.8L80.5,101.2z M75.3,114.1h6.4l4.1,2.4
		l-5.3-1.2h-4.1l-4.4,0.5L75.3,114.1z"/>
	<polygon class="st10" points="106.4,81.3 106.1,80.4 104,74 99.3,66 89.2,62.5 87.6,64 91.2,66.4 94.5,74.7 95.2,74.9 98.7,77.1 
		95.4,76.9 98.2,84 100.3,95.1 100.6,96.3 103.2,97.3 100.9,97.3 103.4,105.8 102.6,113.1 104.4,113.8 105.5,115.8 102.7,113.7 
		102.5,113.7 101.5,123.4 96.7,134.1 97.1,134.2 101,140 108,141.8 112.2,138.1 112.2,128.5 112.2,99.1 112,98.6 110.7,94.5 	"/>
	<polygon class="st8" points="95.2,74.9 94.5,74.7 89,73.4 83.4,74.9 80.5,78.3 84.7,75.8 89,75.8 95.2,76.9 95.4,76.9 98.7,77.1 	
		"/>
	<polygon class="st8" points="82.9,88.9 87.5,88.9 90.5,88.9 86,88 81.2,88 75.3,89.8 78.1,89.8 	"/>
	<polygon class="st8" points="103.2,97.3 100.6,96.3 98.7,95.5 94.6,95.5 91.5,97.3 95.2,96.4 97.3,96.4 100.8,97.3 100.9,97.3 	"/>
	<polygon class="st8" points="81,102.1 83.4,102.1 88,103.4 91.5,104.7 94.5,105.7 91.5,102.9 86,101.2 80.5,101.2 76,102.9 	"/>
	<polygon class="st8" points="105.5,115.8 104.4,113.8 102.6,113.1 100.9,112.4 97.3,112.4 93.7,113.8 98.7,113.4 102.5,113.7 
		102.7,113.7 	"/>
	<polygon class="st8" points="80.5,115.3 85.8,116.5 81.7,114.1 75.3,114.1 72,115.8 76.4,115.3 	"/>
	<polygon class="st8" points="89.6,124.1 86.7,126.2 89.9,124.8 92.7,124.8 96.1,125.7 98.7,126.2 95.9,124.8 92.1,123.4 	"/>
	<path class="st6" d="M148.6,184.8l-2.1-8l-2.8-4l1.2-3.5l-1.2-3l-1.6-8.5l-0.3-14.4l1.6-13.4c0,0,3.1-10.9,3.5-11.4
		c0.3-0.3,1.6-3,2.5-4.8l0,0l-8.1-0.9l-5.4,15.3l-3,27.1l-6.8,14.8l2.5,3.3l-4.5,6.7l3.6,14.4l8.6,5.9l6.2-1.2l5-7.4L148.6,184.8z"
		/>
	<path class="st7" d="M146.9,118.6c-0.4,0.5-3.5,11.4-3.5,11.4l-1.6,13.4l0.3,14.4l1.6,8.5l1.2,3l-1.2,3.5l2.8,4l2.1,8l-1.1,7
		l-5,7.4l2.3-0.4l5.5-9.5l-2.1-13.2l-3-3.2l1.5-3.7l-1.6-16l-1.9-13.5l4.8-19.3l2.7-5.5l-1.3-1.1
		C148.5,115.6,147.2,118.3,146.9,118.6z"/>
	<polygon class="st8" points="159.8,119.2 157.8,111.7 157.5,111.5 153.6,108.5 146.2,110.1 140.8,110.4 138.3,106.3 134.5,103.8 
		130.7,104.6 127.7,107.1 124.9,106.4 127.6,109.9 133.5,108.2 138.9,110.1 141.3,112.9 141.3,112.9 149.4,113.8 149.4,113.8 
		150.7,114.9 153.6,117.3 158.8,121 161.2,121.8 161.4,120.3 	"/>
	<polygon class="st8" points="123.6,104.7 123.6,104.7 123.6,104.7 	"/>
	<path class="st9" d="M130.7,104.6l3.8-0.8l3.8,2.5l2.5,4.1l5.4-0.3l7.4-1.6l3.9,3l6.4-6.6l1.8-4.8l2.5-1.4l3-6.2l-3.9-1.7l-5.5-1.4
		l4.4-0.2l3.7,1.3l1.6,1.4l3.5-7.4l0.6-9.7l-0.2-0.1l-3.3-2.2l-2.2-0.8l-4.3-0.4l4-0.8l4.3,1.5l1.7,1.6l0.1-1.4l1.9-12.4l-0.3-8.4
		l-0.2-0.1l-6-3.4l-4.6-1.7l-5.3,1.1l4.3-2.5l6.5,0.5l5.2,3.5l-0.4-10l-2.9-3.9l-9.1,3.9l-22,23.9l-6.3,11.7l-2.2,5.2l-5.3,12.7
		l-1.8,4.3l-3.5,8.4l0,0l-0.5,1.2l1.8,0.5l2.8,0.7L130.7,104.6z M156.6,98.6l3.4,2.8l2.5,2.5l-2.5-1.4l-3.2-2.2l-3-1.1l-3.8,0.3
		l3.8-1.1L156.6,98.6z M158.3,57.4l5.1,1.8l4.4,2.7l-3.2-1.2l-4.8-1.6l-5.4-0.9l-2.9-1L158.3,57.4z M152.7,71l5.8,2.1l5.1,3.8l2.1,4
		l-2.8-2.1l-3.1-2.7l-4.4-3l-2.5-0.9l-5.5-1.1L152.7,71z M142.5,82.6l6.7,2.4l3.4,4l-5.1-3.2l-4.3-1.5l-4.8-1.1L142.5,82.6z"/>
	<polygon class="st10" points="157.5,111.5 157.8,111.7 159.8,119.2 161.4,120.3 163.2,106.6 163.9,104.8 	"/>
	<polygon class="st10" points="177.2,48.6 177.8,49 180.7,52.6 177.3,51.2 177.6,59.6 175.7,72 175.6,73.4 177.9,75.4 175.6,74.6 
		175,84.3 171.5,91.7 173,93.1 173.4,95.6 171.3,92.4 171.2,92.3 168.2,98.6 172.8,95.9 174.2,96.8 179.7,100.2 186.7,80.6 
		187.4,51.3 185.4,41.2 176.2,33.7 173.9,34.7 176.8,38.6 	"/>
	<polygon class="st8" points="177.8,49 177.2,48.6 172,45.1 165.5,44.6 161.2,47.1 166.5,46 171.1,47.7 177.1,51.1 177.3,51.2 
		180.7,52.6 	"/>
	<polygon class="st8" points="159.8,59.1 164.6,60.7 167.8,61.9 163.4,59.2 158.3,57.4 151.5,57.2 154.4,58.2 	"/>
	<polygon class="st8" points="175.6,73.4 173.9,71.8 169.6,70.3 165.6,71.1 169.9,71.5 172.1,72.3 175.4,74.5 175.6,74.6 
		177.9,75.4 	"/>
	<polygon class="st8" points="155.4,73.1 159.8,76.1 162.9,78.8 165.7,80.9 163.6,76.9 158.5,73.1 152.7,71 147.4,71.1 152.9,72.2 	
		"/>
	<polygon class="st8" points="173.4,95.6 173,93.1 171.5,91.7 169.9,90.3 166.2,89 161.8,89.2 167.3,90.6 171.2,92.3 171.3,92.4 	
		"/>
	<polygon class="st8" points="147.5,85.8 152.6,89 149.2,85 142.5,82.6 138.4,83.2 143.2,84.3 	"/>
	<polygon class="st8" points="150,99.5 153.8,99.2 156.8,100.3 160,102.5 162.5,103.9 160,101.4 156.6,98.6 153.8,98.4 	"/>
	<path class="st11" d="M182.3,153.5c0.4,1.3,1,3.1,1.2,3.4c0.2,0.4,1.1,8.2,1.1,8.2l-0.4,9.3l-1.8,9.8l-2.1,5.6l-1.1,1.9l0.5,2.5
		l-2.4,2.4l-2.3,5.2v4.9l2.7,5.8l4,1.4l6.5-3l4.1-9.5l-2.3-5l2.1-2.1l-3.1-10.7l0.9-18.9l-2-11l0,0L182.3,153.5z"/>
	<path class="st12" d="M175,201.8l2.3-5.2l2.4-2.4l-0.5-2.5l1.1-1.9l2.1-5.6l1.8-9.8l0.4-9.3c0,0-0.9-7.8-1.1-8.2
		c-0.1-0.3-0.7-2.1-1.2-3.4l0,0l-1,0.5l1.3,4.1l1.1,13.7l-2.7,9l-2.9,10.7l0.6,2.7l-2.4,1.8l-2.9,8.8l2.7,7.1l1.6,0.6l-2.7-5.8
		V201.8z"/>
	<polygon class="st13" points="200.9,150 200.9,150 200.9,150 	"/>
	<polygon class="st13" points="196.1,149.2 193.6,148.3 190.7,149.5 188.5,152 184.9,151.3 180,149.3 177.1,151 176.8,151.1 
		174.6,156 169.6,158.3 175.1,157.3 179,155.3 181.3,154 182.3,153.5 182.3,153.5 187.9,153.7 187.9,153.7 189.9,152.1 193.8,151.3 
		197.6,153.2 199.9,151 197.8,151.2 	"/>
	<path class="st14" d="M200.9,150L200.9,150l-5.5-22.2l-3-8.6L180,100.4l-0.3-0.2l-5.5-3.5l-2.4,2.3l-1.3,6.8l3.9-1.8l4.5,0.4
		l2.7,2.1l-3.5-1.3l-3.3,0.6l-4.5,1.7l-0.2,0l-1.1,5.8l-0.1,8.6l-0.1,1l1.4-0.9l3.1-0.6l2.6,1l-2.9-0.2l-1.6,0.3l-2.6,1.2l-0.1,0
		l-0.6,6.7l1.6,5.4l1.2-0.7l2.7-0.5l2.9,0.6l-3.8,0.3l-2.8,0.8l2.1,7.1l5.1,7.5l2.9-1.7l4.9,2l3.6,0.7l2.2-2.5l2.9-1.2l2.5,0.9
		l1.7,2l2.1-0.2l1.2-0.1L200.9,150z M193.1,133.8l-3.3,0.2l-3.1,0.5l-3.8,1.7l2.7-2.4l4.8-0.9L193.1,133.8z M177.7,115.6l-2.3,0.4
		l3.3-1.3l3.7-0.7l4.6,0.6l-2.1,0.4l-3.7-0.1L177.7,115.6z M174.8,129.2l1.9-2.5l3.8-2.1l4.2-0.7l3.7,0.6l-3.9,0.2l-1.9,0.3
		l-3.2,1.6l-2.5,1.5L174.8,129.2z M174.4,145.2l2-1.4l2.7-1.6l1.9,0.2l2.5,1.2l-2.6-0.6l-2.1,0.4l-2.5,1.1L174.4,145.2z"/>
	<polygon class="st15" points="176.8,151.1 177.1,151 172,143.5 169.9,136.4 169.7,136.4 167.9,138.4 168.4,136.7 169.7,135.9 
		168.1,130.5 168.7,123.8 167.1,124.1 168.8,123 168.9,122 169,113.4 170.1,107.6 167.6,108.2 170,106.1 170.5,105.9 171.8,99.1 
		174.2,96.8 172.8,95.9 168.2,98.6 165.7,100 163.9,104.8 163.2,106.6 161.4,120.3 161.2,121.8 160.5,126.7 164.6,148.8 
		165.9,156.2 169.6,158.3 174.6,156 	"/>
	<polygon class="st13" points="167.6,108.2 170.1,107.6 170.3,107.6 174.8,105.9 178.1,105.3 181.6,106.6 178.9,104.5 174.4,104.1 
		170.5,105.9 170,106.1 	"/>
	<polygon class="st13" points="184.9,115 187,114.6 182.4,114 178.7,114.7 175.4,116 177.7,115.6 181.2,114.9 	"/>
	<polygon class="st13" points="168.7,123.8 168.8,123.8 171.4,122.6 173,122.3 175.9,122.5 173.3,121.5 170.2,122.1 168.8,123 
		167.1,124.1 	"/>
	<polygon class="st13" points="179.4,126.6 182.6,125 184.5,124.7 188.4,124.5 184.7,123.9 180.5,124.6 176.7,126.7 174.8,129.2 
		176.9,128.1 	"/>
	<polygon class="st13" points="167.9,138.4 169.7,136.4 169.9,136.4 172.7,135.6 176.5,135.3 173.6,134.7 170.9,135.2 169.7,135.9 
		168.4,136.7 	"/>
	<polygon class="st13" points="182.9,136.2 186.7,134.5 189.8,134 193.1,133.8 190.4,132.9 185.6,133.8 	"/>
	<polygon class="st13" points="180.9,143 183.5,143.6 181,142.4 179.1,142.2 176.4,143.8 174.4,145.2 176.3,144.5 178.8,143.4 	"/>
	<path class="st16" d="M49.3,168.8v-4.9l-2.3-5.2l-2.4-2.4l0.5-2.5l-1.1-1.9l-2.1-5.6l-1.8-9.8l-0.4-9.3c0,0,0.9-7.8,1.1-8.2
		c0.1-0.3,0.8-2.2,1.2-3.5l-5.6,0.3l0,0l-2,11l0.9,18.8l-3,10.8l2.1,2l-2.4,5l4.1,9.5l6.5,3.1l4-1.4L49.3,168.8z"/>
	<path class="st17" d="M42,115.5c-0.4,1.3-1.1,3.2-1.2,3.5c-0.2,0.4-1.1,8.2-1.1,8.2l0.4,9.3l1.8,9.8l2.1,5.6l1.1,1.9l-0.5,2.5
		l2.4,2.4l2.3,5.2v4.9l-2.7,5.8l1.6-0.6l2.7-7.1l-2.9-8.8l-2.4-1.8l0.6-2.8l-2.8-10.6l-2.8-9l1.1-13.8l1.3-4L42,115.5L42,115.5z"/>
	<polygon class="st18" points="42,115.5 42,115.5 43,116.1 45.3,117.4 49.2,119.4 54.7,120.4 49.7,118 47.5,113.2 47.3,113.1 
		44.3,111.4 39.4,113.3 35.8,114.1 33.6,111.6 30.8,110.3 28.3,111.3 26.5,113.3 24.4,113 26.7,115.2 30.5,113.4 34.4,114.1 
		36.4,115.8 36.4,115.8 	"/>
	<path class="st19" d="M28.3,111.3l2.5-1l2.8,1.3l2.2,2.5l3.6-0.8l4.9-1.9l3,1.7l5.1-7.5l2.1-7.1l-2.9-0.8l-3.8-0.4l2.9-0.6l2.7,0.5
		l1.2,0.8l1.6-5.4l-0.6-6.8l-0.1,0l-2.6-1.1l-1.6-0.3l-2.9,0.2l2.6-1l3.1,0.6l1.4,0.9l-0.1-1l-0.1-8.7l-1.1-5.7l-0.2,0L49.5,68
		l-3.3-0.6l-3.5,1.3l2.7-2.2l4.5-0.4l3.9,1.9l-1.3-6.8l-2.4-2.4l-5.8,3.7L31.9,81.2l-3,8.7l-5.7,23l1.2,0.1l2.1,0.3L28.3,111.3z
		 M47.9,105.9l2,1.4l-1.9-0.7l-2.5-1.2l-2.1-0.4l-2.6,0.7l2.5-1.2l2-0.2L47.9,105.9z M41.9,76l3.7,0.7l3.3,1.3l-2.3-0.4L43.1,77
		h-3.7l-2.1-0.4L41.9,76z M39.6,85.9l4.2,0.8l3.8,2l1.9,2.6l-2.1-1.2L45,88.7l-3.3-1.6l-1.9-0.4L36,86.6L39.6,85.9z M33.9,95
		l4.8,0.9l2.7,2.3l-3.8-1.6L34.5,96l-3.3-0.2L33.9,95z"/>
	<polygon class="st20" points="53.8,68 54.3,68.2 56.7,70.3 54.2,69.7 55.3,75.4 55.4,84.1 55.5,85.1 57.3,86.2 55.6,85.8 
		56.2,92.6 54.6,98 55.9,98.8 56.4,100.4 54.6,98.5 54.5,98.5 52.4,105.6 47.3,113.1 47.5,113.2 49.7,118 54.7,120.4 58.4,118.2 
		59.7,110.9 63.8,88.7 61.1,68.7 58.6,62 51.5,57.9 50.1,58.8 52.5,61.2 	"/>
	<polygon class="st18" points="54.3,68.2 53.8,68 49.9,66.1 45.4,66.5 42.7,68.7 46.2,67.4 49.5,68 54,69.7 54.2,69.7 56.7,70.3 	
		"/>
	<polygon class="st18" points="43.1,77 46.6,77.6 48.9,78 45.6,76.7 41.9,76 37.3,76.6 39.4,77 	"/>
	<polygon class="st18" points="55.5,85.1 54.1,84.2 51,83.6 48.4,84.6 51.3,84.4 52.9,84.7 55.5,85.8 55.6,85.8 57.3,86.2 	"/>
	<polygon class="st18" points="41.7,87.1 45,88.7 47.4,90.1 49.5,91.3 47.6,88.7 43.8,86.7 39.6,85.9 36,86.6 39.8,86.7 	"/>
	<polygon class="st18" points="56.4,100.4 55.9,98.8 54.6,98 53.4,97.2 50.7,96.7 47.8,97.3 51.6,97.7 54.5,98.5 54.6,98.5 	"/>
	<polygon class="st18" points="37.6,96.6 41.4,98.2 38.7,95.9 33.9,95 31.2,95.8 34.5,96 	"/>
	<polygon class="st18" points="43.3,104.5 40.8,105.7 43.4,105 45.5,105.4 48,106.6 49.9,107.3 47.9,105.9 45.3,104.3 	"/>
</g>
</svg>
