<?xml version="1.0" encoding="utf-8"?>
<!-- Generator: Adobe Illustrator 21.0.0, SVG Export Plug-In . SVG Version: 6.00 Build 0)  -->
<svg version="1.1" id="Layer_1" xmlns="http://www.w3.org/2000/svg" xmlns:xlink="http://www.w3.org/1999/xlink" x="0px" y="0px"
	 viewBox="0 0 80 80" style="enable-background:new 0 0 80 80;" xml:space="preserve">
<style type="text/css">
	.st0{fill:#9E8B51;}
	.st1{fill:#A07755;}
	.st2{fill:#B5A978;}
	.st3{clip-path:url(#SVGID_2_);fill:#CC9A69;}
	.st4{clip-path:url(#SVGID_2_);fill:#B5885E;}
</style>
<path class="st0" d="M45.1,32.9c-1.7,3.1-1.5,4.4,2.1,2.9c3.5-1.5,5.4-1.1,5.2-3.5C52.2,29.8,47.2,29,45.1,32.9z"/>
<path class="st1" d="M40.7,28c-0.6,3.5,0.1,4.7,2.9,2s4.8-2.8,3.7-5.1C46.3,22.7,41.4,23.7,40.7,28z"/>
<path class="st2" d="M56.9,29.4c-2.5,2.6-2.5,3.9,1.3,3.3s5.5,0.3,5.9-2.1C64.6,28.2,60,26.2,56.9,29.4z"/>
<path class="st1" d="M65.6,30.2c-0.8,3.5-0.2,4.7,2.8,2.2s4.9-2.5,4.1-4.8C71.6,25.3,66.6,25.9,65.6,30.2z"/>
<path class="st0" d="M56.2,22.6c3.5,0.5,4.4,1.5,1.1,3.4c-3.4,1.9-4.1,3.7-5.9,2.1C49.5,26.5,51.9,22,56.2,22.6z"/>
<g>
	<defs>
		<path id="SVGID_1_" d="M79.1,32.1c-0.7-2.5-4.4-1-7.5,0.7c-1,0.6-5.6,3.3-6.7,5.2s2.2,0.9-3.8,4.6c-6.4,3.9-14.7,4.3-17.3,4.8
			C43.4,47,43,46.5,44,46.2c1.7-0.5,8.8-0.6,14.2-3.9s3.9-5.6,1.7-6.8s-8.6,1.5-11.1,2.2s-14.3,0.4-19.3,1.7c-5,1.4-8,4.9-11.1,8.5
			c-6.1,7.1-18,9.5-18.2,12.2s13.6,13.3,16.1,12.6c2.5-0.7,11.3-12.5,18.8-14.6s20.1-2.9,24.6-6C83.6,36.2,79.8,34.6,79.1,32.1z"/>
	</defs>
	<clipPath id="SVGID_2_">
		<use xlink:href="#SVGID_1_"  style="overflow:visible;"/>
	</clipPath>
	<path class="st3" d="M79.1,32.1c-0.7-2.5-4.4-1-7.5,0.7c-1,0.6-5.6,3.3-6.7,5.2s2.2,0.9-3.8,4.6c-6.4,3.9-14.7,4.3-17.3,4.8
		C43.4,47,43,46.5,44,46.2c1.7-0.5,8.8-0.6,14.2-3.9s3.9-5.6,1.7-6.8s-8.6,1.5-11.1,2.2s-14.3,0.4-19.3,1.7c-5,1.4-8,4.9-11.1,8.5
		c-6.1,7.1-18,9.5-18.2,12.2s13.6,13.3,16.1,12.6c2.5-0.7,11.3-12.5,18.8-14.6s20.1-2.9,24.6-6C83.6,36.2,79.8,34.6,79.1,32.1z"/>
	<path class="st4" d="M79.7,32.8C79,34.6,66.2,48.3,56.5,51.3s-26.3,4.7-30,9.5S13.9,71.8,13.2,73.4c-0.8,1.6,7.3,1.5,7.6,1.5
		s24.5-10.4,25.7-11.2c1.2-0.8,23-9.7,24.4-10.3c1.4-0.6,11.3-17.4,11.3-17.4L79.7,32.8z"/>
</g>
</svg>
