<?xml version="1.0" encoding="utf-8"?>
<!-- Generator: Adobe Illustrator 22.1.0, SVG Export Plug-In . SVG Version: 6.00 Build 0)  -->
<svg version="1.0" id="Layer_1" xmlns="http://www.w3.org/2000/svg" xmlns:xlink="http://www.w3.org/1999/xlink" x="0px" y="0px"
	 viewBox="0 0 220 220" style="enable-background:new 0 0 220 220;" xml:space="preserve">
<style type="text/css">
	.st0{clip-path:url(#SVGID_2_);fill:#141414;}
	.st1{clip-path:url(#SVGID_2_);fill:#111111;}
	.st2{clip-path:url(#SVGID_4_);fill:#1A1A1A;}
	.st3{clip-path:url(#SVGID_4_);fill:#111111;}
	.st4{fill:#4D4D4D;}
	.st5{clip-path:url(#SVGID_6_);fill:#333333;}
	.st6{clip-path:url(#SVGID_6_);fill:#1A1A1A;}
	.st7{clip-path:url(#SVGID_6_);}
	.st8{clip-path:url(#SVGID_6_);fill:#39B54A;}
	.st9{fill:#0A0A0A;}
</style>
<g>
	<polygon points="162.1,95.1 166.3,85.1 172.8,78.7 179.9,78.7 183.5,81.5 188.5,93.7 195.6,109.4 200.6,145.8 191.4,117.3 
		182.8,108 182.1,102.2 174.9,89.4 169.2,95.1 166.3,99.4 163.5,99.4 	"/>
	<polygon points="157.8,86.5 153.5,76.5 147.1,70.1 139.9,70.1 136.3,72.9 131.3,85.1 124.2,100.8 119.2,137.3 128.5,108.7 
		137,99.4 137.8,93.7 144.9,80.8 150.6,86.5 153.5,90.8 156.3,90.8 	"/>
	<polygon points="127,84.4 122.8,74.4 116.3,67.9 109.2,67.9 105.6,70.8 100.6,83 93.5,98.7 88.5,135.1 97.7,106.5 106.3,97.2 
		107,91.5 114.2,78.7 119.9,84.4 122.8,88.7 125.6,88.7 	"/>
	<polygon points="95.6,90.1 91.3,80.1 84.9,73.7 77.7,73.7 74.2,76.5 69.2,88.7 62,104.4 51.3,133.7 66.3,112.3 74.9,103 75.6,97.2 
		82.7,84.4 88.5,90.1 91.3,94.4 94.2,94.4 	"/>
	<g>
		<defs>
			<polygon id="SVGID_1_" points="27.7,94.2 42.4,75.7 70.2,71.3 90.9,80.6 105.6,94.7 90.9,116 70.7,118.7 41.9,114.3 27.7,103.4 
							"/>
		</defs>
		<clipPath id="SVGID_2_">
			<use xlink:href="#SVGID_1_"  style="overflow:visible;"/>
		</clipPath>
		<polygon class="st0" points="27.7,94.2 42.4,75.7 70.2,71.3 90.9,80.6 105.6,94.7 90.9,116 70.7,118.7 41.9,114.3 27.7,103.4 		
			"/>
		<path class="st1" d="M19.1,101.5L37.7,93l12.1,1.4l9.3-5l14.3,6.4l9.3-2.9l11.4,5.7c0,0-0.4,23.9-1.3,23.8s-16.6,2.7-16.6,2.7
			l-25,0.7l-27.9-10.7L19.1,101.5z"/>
	</g>
	<g>
		<defs>
			<polygon id="SVGID_3_" points="76.3,100.1 95.6,75.8 132,70.1 159.2,82.2 178.5,100.8 159.2,128.7 132.8,132.3 94.9,126.5 
				76.3,112.3 			"/>
		</defs>
		<clipPath id="SVGID_4_">
			<use xlink:href="#SVGID_3_"  style="overflow:visible;"/>
		</clipPath>
		<polygon class="st2" points="76.3,100.1 95.6,75.8 132,70.1 159.2,82.2 178.5,100.8 159.2,128.7 132.8,132.3 94.9,126.5 
			76.3,112.3 		"/>
		<polygon class="st3" points="72.7,98.7 85.6,93.7 97.9,106 113.5,96.5 127,107.2 134.2,98.7 148.3,111.4 160.6,105.8 175.6,114.4 
			169.2,135.8 136.3,142.3 107,140.8 79.5,129.8 64.9,117.8 		"/>
	</g>
	<polygon class="st4" points="174.2,133 176.3,123 184.2,120.8 193.5,128.7 197.1,143 196.4,157.3 188.5,143.7 177.8,138.7 	"/>
	<polygon class="st4" points="196.8,117.1 198.7,112.9 205.6,107.2 210.1,110.5 215.3,122.6 217.3,135.4 209.1,124.5 200.4,121.6 	
		"/>
	<g>
		<defs>
			<path id="SVGID_5_" d="M152.8,119.4c0,0.7,3.6-15.7,3.6-15.7l15-8.6l22.2,2.9l12.9,5l5.7,7.1l-1.4,9.3l-12.9-2.1l-9.3,7.1
				l-3.6,12.1l-15,2.1L152.8,119.4z"/>
		</defs>
		<clipPath id="SVGID_6_">
			<use xlink:href="#SVGID_5_"  style="overflow:visible;"/>
		</clipPath>
		<path class="st5" d="M152.8,119.4c0,0.7,3.6-15.7,3.6-15.7l15-8.6l22.2,2.9l12.9,5l7.1,6.4l-2.9,10l-12.9-2.1l-9.3,7.1l-3.6,12.1
			l-15,2.1L152.8,119.4z"/>
		<polygon class="st6" points="174.9,93.7 181.4,98 184.9,98 185.6,100.1 190.6,99.4 192.8,103.7 197.8,104.4 199.2,108 202.2,108 
			205.6,111.5 210.6,108 207.8,98.7 193.5,95.1 		"/>
		<polygon class="st7" points="172.1,113.7 175.6,108 183.5,110.8 183.5,115.8 176.3,119.4 		"/>
		<polygon class="st8" points="175.6,114.4 177.1,111.5 179.9,113 179.9,115.8 177.1,115.8 		"/>
		<polygon class="st7" points="199.9,104.4 203.5,98.7 211.4,101.5 211.4,106.5 204.9,109.4 		"/>
		<polygon class="st8" points="203.5,104.4 204.9,101.5 207.8,103 207.8,105.8 204.9,105.8 		"/>
		<polygon class="st7" points="193.5,99.8 195.7,96.3 200.6,98 200.6,101.2 196.6,103 		"/>
		<polygon class="st8" points="195.7,99.8 196.6,98 198.4,98.9 198.4,100.7 196.6,100.7 		"/>
		<polygon class="st7" points="164.8,107 169.4,107.3 170.3,113 167.3,114.6 162.8,111.5 		"/>
		<polygon class="st8" points="165.6,109.4 167.8,109.3 167.8,111.5 166.1,112.5 165.2,110.7 		"/>
		<polygon class="st6" points="152.8,111.5 159.2,110.1 161.3,123 166.3,119.4 170.6,127.3 174.2,125.1 177.8,133 177.8,137.6 
			172.1,143 149.9,123 		"/>
	</g>
	<polygon class="st9" points="130.6,121.5 113.5,95.1 104.9,95.1 101.3,115.1 84.9,140.1 84.9,145.1 79.9,198 91.3,149.4 
		92.7,143.7 109.2,119.4 113.5,107.2 125.3,127.7 130.6,126.5 	"/>
	<polygon class="st9" points="102,115.8 84.9,89.4 76.3,89.4 72.7,109.4 56.3,134.4 56.3,139.4 51.3,192.3 62.7,143.7 64.2,138 
		80.6,113.7 84.9,101.5 96.7,122 102,120.8 	"/>
	<polygon class="st9" points="85.6,107.2 59.2,96.5 50.6,96.5 44.9,107.2 21.3,130.1 18.4,133.7 2.7,178.7 24.9,138.7 29.1,133.7 
		52,113.7 59.2,108.7 80.3,113.4 85.6,112.3 	"/>
	<polygon class="st9" points="133.5,123.7 134.9,108 137.8,99.4 144.9,96.5 149.9,104.4 154.9,116.5 167.1,138 176.3,174.4 
		162.8,145.8 154.2,136.5 153.5,130.8 142,112.3 140.6,123.7 137.8,128 134.9,128 	"/>
</g>
</svg>
