<svg id="Layer_1" xmlns="http://www.w3.org/2000/svg" viewBox="0 0 80 80"><style>.st1{fill:#3f3f3f}.st2{fill:#4c4c4c}</style><path d="M54.3 20.1c-4 1.9-5.8 8.1-4.6 14.7.2.9-.3 1.9-1.2 2.3l-19.9 9.5c-.9.4-1.9.2-2.5-.5-4.4-5.1-10.3-7.5-14.3-5.6C6.5 43 5 52.9 9.1 61.4s12.7 13.6 18 11.1c4-1.9 5.8-8.2 4.6-14.9-.2-1 .3-1.9 1.2-2.3l19.8-9.5c.9-.4 1.9-.2 2.5.5 4.4 5.2 10.4 7.7 14.5 5.8 5.3-2.5 6.7-12.4 2.6-20.9-4.2-8.5-12.8-13.6-18-11.1z" fill="#303030"/><path class="st1" d="M51.2 35.2c.3 1.8 5.4 10.7 6 11.8.5.8-4.6-5.5-5.8-8s-.6-6.2-.2-3.8zM30.1 57.6c-.3-1.8-5.4-10.7-6-11.8-.5-.8 4.6 5.5 5.8 8 1.1 2.5.6 6.2.2 3.8zM68 29.4c2.5 4.4.5 6.9-1.4 8-1.9 1.1-5.5-1.5-8.1-5.9-2.5-4.4-3-8.8-1.1-9.9s8.1 3.5 10.6 7.8z"/><path class="st2" d="M67.2 30.5c1.8 3.2.9 5.2-.5 6s-4-1.1-5.8-4.3-2.2-6.4-.8-7.2 5.3 2.3 7.1 5.5z"/><path class="st1" d="M18.3 51.2c1.8 4.7 1.6 9.2-.5 10-2.1.8-5.9-.5-7.8-5.2s-.9-11.1 1.2-11.9 5.2 2.4 7.1 7.1z"/><path class="st2" d="M17.2 53.2c1.4 3.5 1.2 6.8-.3 7.4s-4.4-.4-5.8-3.9c-1.4-3.5-.7-8.2.9-8.8s3.8 1.8 5.2 5.3z"/><path transform="rotate(-25.62 43.03 45.45)" class="st1" d="M42.7 43.3h.7v4.3h-.7z"/><path transform="rotate(-25.62 38.64 47.56)" class="st1" d="M38.3 45.4h.7v4.3h-.7z"/><path transform="rotate(-25.62 40.77 46.54)" class="st1" d="M40.4 44.4h.7v4.3h-.7z"/><path transform="rotate(64.38 40.63 46.26)" class="st1" d="M40.3 41.8h.7v8.9h-.7z"/></svg>