<svg id="Layer_1" xmlns="http://www.w3.org/2000/svg" xmlns:xlink="http://www.w3.org/1999/xlink" viewBox="0 0 80 80"><style>.st3{clip-path:url(#SVGID_4_);fill:#ad825a}</style><defs><circle id="SVGID_1_" cx="25.8" cy="10.4" r="8.1"/></defs><clipPath id="SVGID_2_"><use xlink:href="#SVGID_1_" overflow="visible"/></clipPath><circle cx="25.8" cy="10.4" r="8.1" clip-path="url(#SVGID_2_)" fill="#cc9a69"/><path d="M21.4 3.6s5.5-.6 8.2 2.9 3 7.6 1.4 10.2c-1.6 2.6 6.6-5.1 6.6-5.1L33.9-1.8h-9.2l-3.3 5.4z" clip-path="url(#SVGID_2_)" fill="#ad825a"/><g><defs><path id="SVGID_3_" d="M28.6 22.1c.9-1.3 3.5-6.3 7.2-6.3 3.7-.1 26.7 10.9 28.9 14.8 2.2 3.9-21.4-4.7-21.4-4.7l4.5 11.4 11 12S77 57.8 75.6 60.2c-1.4 2.4-21.9-2.6-22.7-3.3s-7.7-8.6-7.7-8.6l-8.7 9.6s3.1 20.8 1 20.8-10.1-21.2-10.1-23c0-1.7 9.4-12.8 9.4-12.9S32 33.7 32 33.7l-3.9 10.6s-13.8 2.6-17 1c-3.1-1.6 12.1-7.2 11.9-7s5.6-16.2 5.6-16.2z"/></defs><clipPath id="SVGID_4_"><use xlink:href="#SVGID_3_" overflow="visible"/></clipPath><path d="M28.6 22.1c.9-1.3 3.5-6.3 7.2-6.3 3.7-.1 26.7 10.9 28.9 14.8 2.2 3.9-21.4-4.7-21.4-4.7l4.5 11.4 11 12S77 57.8 75.6 60.2c-1.4 2.4-21.9-2.6-22.7-3.3s-7.7-8.6-7.7-8.6l-8.7 9.6s3.1 20.8 1 20.8-10.1-21.2-10.1-23c0-1.7 9.4-12.8 9.4-12.9S32 33.7 32 33.7l-3.9 10.6s-13.8 2.6-17 1c-3.1-1.6 12.1-7.2 11.9-7s5.6-16.2 5.6-16.2z" clip-path="url(#SVGID_4_)" fill="#cc9a69"/><path class="st3" d="M45.2 48.2c-1.7.1-10.2 9-10.2 10s3.4 16.7 1.9 20.1c-1.4 3.4 4.6-1.9 4.6-1.9l.7-17.2 3-11zM34.7 13.6c-1 1.5-4.4 2.6-2 3.2 2.4.6 19.2 6.6 28 11.9 2.7 1.6 6.3 5.6 6.1 3.7 0-1.9-14.7-13.4-19.9-15.5s-12.2-3.3-12.2-3.3zM43.3 25.8c-.8-.6-.3 4.9.3 6.7.5 1.7 1.1 5.2 1.6 6.3.5 1.1 9.2 10.5 11.4 12 2.2 1.5 18.1 10.9 19.7 9.8S63.8 47.3 63.8 47.3l-10-10.5s-10-10.6-10.5-11z"/></g></svg>