<?xml version="1.0" encoding="utf-8"?>
<!-- Generator: Adobe Illustrator 22.1.0, SVG Export Plug-In . SVG Version: 6.00 Build 0)  -->
<svg version="1.0" id="Layer_1" xmlns="http://www.w3.org/2000/svg" xmlns:xlink="http://www.w3.org/1999/xlink" x="0px" y="0px"
	 viewBox="0 0 80 80" style="enable-background:new 0 0 80 80;" xml:space="preserve">
<style type="text/css">
	.st0{fill:#CC9212;}
	.st1{fill:#969696;}
	.st2{fill:#B5B5B6;}
	.st3{fill:#917D56;}
	.st4{fill:#896E30;}
</style>
<path class="st0" d="M66.1,70.5c-0.2,0-0.4,0-0.6,0.1c-1.7,0.3-3.2,1.5-3.7,3.1c-0.2,0.5-0.3,1-0.3,1.6c0,2.6,2.2,4.7,4.8,4.7
	s4.7-2.2,4.7-4.8C70.9,72.6,68.8,70.5,66.1,70.5z"/>
<path class="st1" d="M47.4,55.4c-0.1-0.1,0-0.3,0.1-0.3L10.3,14.3c-0.2,0-0.3,0.1-0.4,0.2C6.4,18,42.3,57.2,46.7,61.9
	C48.3,60.5,48.9,58.5,47.4,55.4z"/>
<path class="st2" d="M47.7,55.2c3.1,1.7,5.2,1,6.8-0.6C52,51.9,15.8,13.2,10.3,14.3l37.2,41C47.6,55.2,47.7,55.2,47.7,55.2z"/>
<path class="st3" d="M63,48.1c-1-1-3.8-2.8-4.7-0.9c-1,2-2,5.4-3.8,7.4c-0.6,0.6-1.3,1.1-2.1,1.4c-1,0.3-2.4,0.3-3.8-0.3
	c-0.3-0.1-0.5-0.3-0.9-0.4c-0.1,0-0.1,0-0.2,0c-0.1,0.1-0.2,0.2-0.1,0.3c0.1,0.3,0.3,0.4,0.3,0.7c0.5,1.3,0.6,2.4,0.4,3.3
	c-0.2,1-0.7,1.8-1.5,2.4c-2.4,2.2-6.9,2.8-8,3.4c-1.2,0.6-0.9,3.7,0.1,4.7c0.8,0.8,10.1-1.3,15.1-4.4c0.8-0.4,1.4-1,1.9-1.5
	c0.8-0.8,1.5-1.7,2.1-2.5C61.6,56.2,63.9,48.9,63,48.1z"/>
<path class="st4" d="M65.5,70.6c-1.8-2.2-5-5.8-7.7-9c-0.7,1-1.4,1.7-2.1,2.5c-0.5,0.5-1.1,1-1.9,1.5c3.1,3.3,6.6,6.7,8,8
	C62.4,72.1,63.8,70.9,65.5,70.6z"/>
</svg>
