<svg xmlns="http://www.w3.org/2000/svg" xmlns:xlink="http://www.w3.org/1999/xlink" viewBox="0 0 70 70"><defs><path id="a" d="M7.8 32.2c1.6-1.6 13.9-7.3 22.1.6 2.3-2 6.8-3.3 11-1.2.6-6.7-.6-15.3-.6-15.3l-2.1 1c-.2.1-.5.2-.7.2h-2.9c-.3 0-.5-.1-.7-.2l-5.8-2.9c-.8-.4-1.2-1.2-1.1-2l.4-3.8c0-.2.1-.4.2-.5L29 5.3c.6-1.2 1.7-2 3-2.1l8.6-.8c1.4-.1 2.8.4 3.7 1.3l1.6 2.9 1.2 5.9s14.1 20.2 9.8 31.9c-3.1 6.7-10.4 6.1-10.4 6.1-3.1 2.5-18.4 5.5-23.9 0-3.7 1.2-8 0-8 0C11.9 53 2.3 37.9 7.8 32.2z"/></defs><clipPath id="b"><use xlink:href="#a" overflow="visible"/></clipPath><path d="M7.8 32.2c1.4-1.8 13.9-7.3 22.1.6 2.3-2 6.8-3.3 11-1.2.6-6.7-.6-15.3-.6-15.3l-2.1 1c-.2.1-.5.2-.7.2h-2.9c-.3 0-.5-.1-.7-.2l-5.8-2.9c-.8-.4-1.2-1.2-1.1-2l.4-3.8c0-.2.1-.4.2-.5L29 5.3c.6-1.2 1.7-2 3-2.1l6.7.4c1.5-.1 2.8.4 3.8 1.4l2.1 3.2c.4.3.7.8.7 1.3.1.6.5 1.2.8 1.7l1 1.4s14.1 20.2 9.8 31.9c-3.1 6.7-10.4 6.1-10.4 6.1-3.1 2.5-18.4 5.5-23.9 0-3.7 1.2-8 0-8 0s-5-2.8-6.9-7c-1.9-4.2-.9-10 .1-11.4z" clip-path="url(#b)" fill="#db955a"/><defs><path id="c" d="M7.8 32.2c1.6-1.6 13.9-7.3 22.1.6 2.3-2 6.8-3.3 11-1.2.6-6.7-.6-15.3-.6-15.3l-2.1 1c-.2.1-.5.2-.7.2h-2.9c-.3 0-.5-.1-.7-.2l-5.8-2.9c-.8-.4-1.2-1.2-1.1-2l.4-3.8c0-.2.1-.4.2-.5L29 5.3c.6-1.2 1.7-2 3-2.1l8.6-.8c1.4-.1 2.8.4 3.7 1.3l1.6 2.9 1.2 5.9s14.1 20.2 9.8 31.9c-3.1 6.7-10.4 6.1-10.4 6.1-3.1 2.5-18.4 5.5-23.9 0-3.7 1.2-8 0-8 0C11.9 53 2.3 37.9 7.8 32.2z"/></defs><clipPath id="d"><use xlink:href="#c" overflow="visible"/></clipPath><path d="M45.8 10.7c1.9 4.4 18.5 37.8 2.3 39.9l15.5-3.9-4-27.1c.1 0-7.6 1.5-13.8-8.9z" clip-path="url(#d)" fill="#bf8051"/><defs><path id="e" d="M7.8 32.2c1.6-1.6 13.9-7.3 22.1.6 2.3-2 6.8-3.3 11-1.2.6-6.7-.6-15.3-.6-15.3l-2.1 1c-.2.1-.5.2-.7.2h-2.9c-.3 0-.5-.1-.7-.2l-5.8-2.9c-.8-.4-1.2-1.2-1.1-2l.4-3.8c0-.2.1-.4.2-.5L29 5.3c.6-1.2 1.7-2 3-2.1l8.6-.8c1.4-.1 2.8.4 3.7 1.3l1.6 2.9 1.2 5.9s14.1 20.2 9.8 31.9c-3.1 6.7-10.4 6.1-10.4 6.1-3.1 2.5-18.4 5.5-23.9 0-3.7 1.2-8 0-8 0C11.9 53 2.3 37.9 7.8 32.2z"/></defs><clipPath id="f"><use xlink:href="#e" overflow="visible"/></clipPath><path d="M32.3 31.2C43 27.2 45.5 37.8 45 37c-6-7.3-9.7-5.5-12.7-5.8z" clip-path="url(#f)" fill="#bf8051"/><g><defs><path id="g" d="M7.8 32.2c1.6-1.6 13.9-7.3 22.1.6 2.3-2 6.8-3.3 11-1.2.6-6.7-.6-15.3-.6-15.3l-2.1 1c-.2.1-.5.2-.7.2h-2.9c-.3 0-.5-.1-.7-.2l-5.8-2.9c-.8-.4-1.2-1.2-1.1-2l.4-3.8c0-.2.1-.4.2-.5L29 5.3c.6-1.2 1.7-2 3-2.1l8.6-.8c1.4-.1 2.8.4 3.7 1.3l1.6 2.9 1.2 5.9s14.1 20.2 9.8 31.9c-3.1 6.7-10.4 6.1-10.4 6.1-3.1 2.5-18.4 5.5-23.9 0-3.7 1.2-8 0-8 0C11.9 53 2.3 37.9 7.8 32.2z"/></defs><clipPath id="h"><use xlink:href="#g" overflow="visible"/></clipPath><path d="M33.3 39.1c-1.9-4.9-12.1-10.4-12.6-10.8 7.1.4 10.6 6 11.3 7.3" clip-path="url(#h)" fill="#bf8051"/></g><g><defs><path id="i" d="M7.8 32.2c1.6-1.6 13.9-7.3 22.1.6 2.3-2 6.8-3.3 11-1.2.6-6.7-.6-15.3-.6-15.3l-2.1 1c-.2.1-.5.2-.7.2h-2.9c-.3 0-.5-.1-.7-.2l-5.8-2.9c-.8-.4-1.2-1.2-1.1-2l.4-3.8c0-.2.1-.4.2-.5L29 5.3c.6-1.2 1.7-2 3-2.1l8.6-.8c1.4-.1 2.8.4 3.7 1.3l1.6 2.9 1.2 5.9s14.1 20.2 9.8 31.9c-3.1 6.7-10.4 6.1-10.4 6.1-3.1 2.5-18.4 5.5-23.9 0-3.7 1.2-8 0-8 0C11.9 53 2.3 37.9 7.8 32.2z"/></defs><clipPath id="j"><use xlink:href="#i" overflow="visible"/></clipPath><path d="M32.8 8.4L31 10c-.2.2-.3.4-.4.6-.2.9-.3 2.5-.4 3.6 0 .3 0 .5.2.7l1.1 1.5-.2.1-1.1-1.6c-.2-.3-.3-.6-.3-1l.2-3.6c0-.3.2-.6.5-.8.8-.4 1.9-1.2 2.2-1.1z" clip-path="url(#j)" fill="#bf8051" stroke="#bf8051" stroke-width=".5" stroke-miterlimit="10"/></g><g><defs><path id="k" d="M7.8 32.2c1.6-1.6 13.9-7.3 22.1.6 2.3-2 6.8-3.3 11-1.2.6-6.7-.6-15.3-.6-15.3l-2.1 1c-.2.1-.5.2-.7.2h-2.9c-.3 0-.5-.1-.7-.2l-5.8-2.9c-.8-.4-1.2-1.2-1.1-2l.4-3.8c0-.2.1-.4.2-.5L29 5.3c.6-1.2 1.7-2 3-2.1l8.6-.8c1.4-.1 2.8.4 3.7 1.3l1.6 2.9 1.2 5.9s14.1 20.2 9.8 31.9c-3.1 6.7-10.4 6.1-10.4 6.1-3.1 2.5-18.4 5.5-23.9 0-3.7 1.2-8 0-8 0C11.9 53 2.3 37.9 7.8 32.2z"/></defs><clipPath id="l"><use xlink:href="#k" overflow="visible"/></clipPath><path d="M35.5 9.9l-1.9 1.8c-.2.2-.3.4-.4.6-.2.9-.2 2.3-.3 3.4 0 .3 0 .5.2.7l1 1.2H34l-1.2-1.2c-.2-.3-.3-.6-.3-1l.1-3.4c0-.3.2-.6.5-.8.7-.4 1.9-1.4 2.4-1.3z" clip-path="url(#l)" fill="#bf8051" stroke="#bf8051" stroke-width=".5" stroke-miterlimit="10"/></g><g><defs><path id="m" d="M7.8 32.2c1.6-1.6 13.9-7.3 22.1.6 2.3-2 6.8-3.3 11-1.2.6-6.7-.6-15.3-.6-15.3l-2.1 1c-.2.1-.5.2-.7.2h-2.9c-.3 0-.5-.1-.7-.2l-5.8-2.9c-.8-.4-1.2-1.2-1.1-2l.4-3.8c0-.2.1-.4.2-.5L29 5.3c.6-1.2 1.7-2 3-2.1l8.6-.8c1.4-.1 2.8.4 3.7 1.3l1.6 2.9 1.2 5.9s14.1 20.2 9.8 31.9c-3.1 6.7-10.4 6.1-10.4 6.1-3.1 2.5-18.4 5.5-23.9 0-3.7 1.2-8 0-8 0C11.9 53 2.3 37.9 7.8 32.2z"/></defs><clipPath id="n"><use xlink:href="#m" overflow="visible"/></clipPath><path d="M37.7 11.1l-1.4 1.7c-.1.1-.2.3-.2.4-.2.6-.1 1.1-.4 2.3-.2.8.2 1.6.9 2l1 .5-1.1-.5c-.8-.4-1.2-1.2-1.1-2l.1-2.3c.1-.3.2-.5.3-.8.5-.6 1.5-1.3 1.9-1.3z" clip-path="url(#n)" fill="#bf8051" stroke="#bf8051" stroke-width=".5" stroke-miterlimit="10"/></g><g><defs><path id="o" d="M7.8 32.2c1.6-1.6 13.9-7.3 22.1.6 2.3-2 6.8-3.3 11-1.2.6-6.7-.6-15.3-.6-15.3l-2.1 1c-.2.1-.5.2-.7.2h-2.9c-.3 0-.5-.1-.7-.2l-5.8-2.9c-.8-.4-1.2-1.2-1.1-2l.4-3.8c0-.2.1-.4.2-.5L29 5.3c.6-1.2 1.7-2 3-2.1l8.6-.8c1.4-.1 2.8.4 3.7 1.3l1.6 2.9 1.2 5.9s14.1 20.2 9.8 31.9c-3.1 6.7-10.4 6.1-10.4 6.1-3.1 2.5-18.4 5.5-23.9 0-3.7 1.2-8 0-8 0C11.9 53 2.3 37.9 7.8 32.2z"/></defs><clipPath id="p"><use xlink:href="#o" overflow="visible"/></clipPath><path d="M32 35.6c1.3 2.2 1.3 3.6 1.3 3.6-1.9-4.9-12.1-10.4-12.6-10.8" clip-path="url(#p)" fill="#bf8051"/></g></svg>