<?xml version="1.0" encoding="utf-8"?>
<!-- Generator: Adobe Illustrator 22.1.0, SVG Export Plug-In . SVG Version: 6.00 Build 0)  -->
<svg version="1.1" id="Layer_1" xmlns="http://www.w3.org/2000/svg" xmlns:xlink="http://www.w3.org/1999/xlink" x="0px" y="0px"
	 viewBox="0 0 70 70" style="enable-background:new 0 0 70 70;" xml:space="preserve">
<style type="text/css">
	.st0{clip-path:url(#SVGID_2_);fill:#DB955A;}
	.st1{clip-path:url(#SVGID_2_);fill:#BF8051;}
	.st2{clip-path:url(#SVGID_2_);fill:#BF8051;stroke:#BF8051;stroke-width:0.5;stroke-miterlimit:10;}
</style>
<g>
	<g>
		<g>
			<defs>
				<path id="SVGID_1_" d="M4.6,32.2c1.6-1.6,13.9-7.3,22.1,0.6c2.3-2,6.8-3.3,11-1.2c0.6-6.7-0.6-15.3-0.6-15.3L35,17.3
					c-0.2,0.1-0.5,0.2-0.7,0.2h-2.9c-0.3,0-0.5-0.1-0.7-0.2l-5.8-2.9c-0.8-0.4-1.2-1.2-1.1-2l0.4-3.8c0-0.2,0.1-0.4,0.2-0.5l1.4-2.8
					c0.6-1.2,1.7-2,3-2.1l8.6-0.8c1.4-0.1,2.8,0.4,3.7,1.3l1.6,2.9l1.2,5.9c0,0,14.1,20.2,9.8,31.9c-3.1,6.7-10.4,6.1-10.4,6.1
					c-3.1,2.5-18.4,5.5-23.9,0c-3.7,1.2-8,0-8,0C8.6,53-1,37.9,4.6,32.2z"/>
			</defs>
			<clipPath id="SVGID_2_">
				<use xlink:href="#SVGID_1_"  style="overflow:visible;"/>
			</clipPath>
			<path class="st0" d="M4.6,32.2c1.4-1.8,13.9-7.3,22.1,0.6c2.3-2,6.8-3.3,11-1.2c0.6-6.7-0.6-15.3-0.6-15.3L35,17.3
				c-0.2,0.1-0.5,0.2-0.7,0.2h-2.9c-0.3,0-0.5-0.1-0.7-0.2l-5.8-2.9c-0.8-0.4-1.2-1.2-1.1-2l0.4-3.8c0-0.2,0.1-0.4,0.2-0.5l1.4-2.8
				c0.6-1.2,1.7-2,3-2.1l6.7,0.4C36.9,3.5,38.3,4,39.3,5l2.1,3.2C41.7,8.5,42,9,42.1,9.5c0.1,0.6,0.5,1.2,0.8,1.7l1,1.4
				c0,0,14.1,20.2,9.8,31.9c-3.1,6.7-10.4,6.1-10.4,6.1c-3.1,2.5-18.4,5.5-23.9,0c-3.7,1.2-8,0-8,0s-5-2.8-6.9-7
				C2.5,39.4,3.5,33.6,4.6,32.2z"/>
			<path class="st1" d="M42.6,10.7c1.9,4.4,18.5,37.8,2.3,39.9l15.5-3.9l-4-27.1C56.4,19.6,48.7,21.1,42.6,10.7z"/>
			<path class="st1" d="M29.1,31.2c10.6-4,13.2,6.6,12.6,5.8C35.7,29.7,32.1,31.5,29.1,31.2z"/>
			<path class="st1" d="M30,39.1c-1.9-4.9-12.1-10.4-12.6-10.8c7.1,0.4,10.6,6,11.3,7.3"/>
			<path class="st2" d="M29.5,8.4l-1.7,1.6c-0.2,0.2-0.3,0.4-0.4,0.6c-0.2,0.9-0.3,2.5-0.4,3.6c0,0.3,0,0.5,0.2,0.7l1.1,1.5
				l-0.2,0.1L27,14.9c-0.2-0.3-0.3-0.6-0.3-1l0.2-3.6c0-0.3,0.2-0.6,0.5-0.8C28.1,9.1,29.2,8.3,29.5,8.4z"/>
			<path class="st2" d="M32.2,9.9l-1.9,1.8c-0.2,0.2-0.3,0.4-0.4,0.6c-0.2,0.9-0.2,2.3-0.3,3.4c0,0.3,0,0.5,0.2,0.7l1,1.2l-0.1,0
				l-1.2-1.2c-0.2-0.3-0.3-0.6-0.3-1l0.1-3.4c0-0.3,0.2-0.6,0.5-0.8C30.5,10.8,31.8,9.8,32.2,9.9z"/>
			<path class="st2" d="M34.4,11.1l-1.4,1.7c-0.1,0.1-0.2,0.3-0.2,0.4c-0.2,0.6-0.1,1.1-0.4,2.3c-0.2,0.8,0.2,1.6,0.9,2l1,0.5
				l-1.1-0.5c-0.8-0.4-1.2-1.2-1.1-2l0.1-2.3c0.1-0.3,0.2-0.5,0.3-0.8C33,11.8,34,11.1,34.4,11.1z"/>
			<path class="st1" d="M28.7,35.6c1.3,2.2,1.3,3.6,1.3,3.6c-1.9-4.9-12.1-10.4-12.6-10.8"/>
		</g>
	</g>
</g>
</svg>
