<svg xmlns="http://www.w3.org/2000/svg" viewBox="0 0 80 80"><path d="M47.4 55.4c-.1-.1 0-.3.1-.3L10.3 14.3c-.2 0-.3.1-.4.2C6.4 18 42.3 57.2 46.7 61.9c1.6-1.4 2.2-3.4.7-6.5z" fill="#969696"/><path d="M47.7 55.2c3.1 1.7 5.2 1 6.8-.6-2.5-2.7-38.7-41.4-44.2-40.3l37.2 41c.1-.1.2-.1.2-.1z" fill="#b5b5b6"/><path d="M65.5 70.6c-1.8-2.2-5.6-6.7-8.3-9.9-.7 1-1.2 2-1.9 2.8-.5.5-1.6.8-2.4 1.3 3.1 3.3 7.5 7.5 8.9 8.8.6-1.5 2-2.7 3.7-3z" fill="#896e30"/><path d="M65.8 70.3c-.2 0-.4 0-.6.1-1.7.3-3.2 1.5-3.7 3.1-.2.5-.3 1-.3 1.6 0 2.6 2.2 4.7 4.8 4.7 2.6 0 4.7-2.2 4.7-4.8-.1-2.6-2.2-4.7-4.9-4.7z" fill="#cc9212"/><path d="M63 47.6c-1-1-3.9-2.9-4.8-.9-1 2-2 5.5-3.9 7.6-.6.6-1.3 1.1-2.1 1.4-1 .3-2.4.3-3.9-.3-.3-.1-.5-.3-.9-.4h-.2c-.1.1-.2.2-.1.3.1.3.3.4.3.7a6 6 0 0 1 .4 3.4c-.2 1-.7 1.8-1.5 2.4-2.4 2.2-7 2.9-8.1 3.5-1.2.6-.9 3.8.1 4.8.8.8 10.2-1.3 15.3-4.5.8-.4 1.4-1 1.9-1.5.8-.8 1.5-1.7 2.1-2.6 4-5.6 6.3-13 5.4-13.9z" fill="#917d56"/></svg>