<?xml version="1.0" encoding="utf-8"?>
<!-- Generator: Adobe Illustrator 22.1.0, SVG Export Plug-In . SVG Version: 6.00 Build 0)  -->
<svg version="1.0" id="Layer_1" xmlns="http://www.w3.org/2000/svg" xmlns:xlink="http://www.w3.org/1999/xlink" x="0px" y="0px"
	 viewBox="0 0 80 80" style="enable-background:new 0 0 80 80;" xml:space="preserve">
<style type="text/css">
	.st0{fill:#CC9A69;}
	.st1{fill:#9E8B51;}
	.st2{fill:#A07755;}
	.st3{fill:#B5A978;}
</style>
<path class="st0" d="M78,19.6c-1.1-2.5-4.6-0.4-7.5,1.9c-0.9,0.7-5.2,4.2-6.1,6.3c-0.9,2.1,2.4,0.6-3.2,5.3
	c-5.9,4.9-14.4,6.6-17,7.5c-0.5-0.3-0.9-0.8,0-1.3c1.6-0.7,8.9-1.9,13.9-6.1c5-4.2,3.1-6.3,0.8-7.2s-8.6,2.8-11,3.8
	c-2.5,1.1-14.6,2.5-19.5,4.6s-7.5,6.2-10.1,10.3C12.9,53,1.1,57.2,1.4,60s15.8,11.6,18.3,10.6s9.7-14.5,17.1-17.7s20.1-5.9,24.3-9.7
	C83.2,23.2,79.1,22.1,78,19.6z"/>
<path class="st1" d="M43.3,25.5c-1.3,3.5-0.8,4.7,2.6,2.6s5.4-1.9,4.8-4.4S44.9,21.2,43.3,25.5z"/>
<path class="st2" d="M38,21.1c-0.1,3.7,0.8,4.8,3.3,1.6c2.5-3.1,4.5-3.6,3.1-5.7S38.1,16.6,38,21.1z"/>
<path class="st3" d="M54.9,20.1c-2.1,3-2,4.4,1.8,3.2s5.7-0.5,5.8-3C62.5,17.8,57.5,16.4,54.9,20.1z"/>
<path class="st2" d="M63.9,19.7c-0.3,3.7,0.5,4.8,3.2,1.9c2.7-2.9,4.7-3.3,3.5-5.5C69.3,13.8,64.3,15.1,63.9,19.7z"/>
<path class="st1" d="M53.2,13.3c3.7,0,4.7,0.9,1.6,3.3c-3.2,2.5-3.7,4.4-5.8,3S48.6,13.3,53.2,13.3z"/>
</svg>
