<?xml version="1.0" encoding="utf-8"?>
<!-- Generator: Adobe Illustrator 22.1.0, SVG Export Plug-In . SVG Version: 6.00 Build 0)  -->
<svg version="1.0" id="Layer_1" xmlns="http://www.w3.org/2000/svg" xmlns:xlink="http://www.w3.org/1999/xlink" x="0px" y="0px"
	 viewBox="0 0 80 80" style="enable-background:new 0 0 80 80;" xml:space="preserve">
<style type="text/css">
	.st0{fill:#9E8B51;}
	.st1{fill:#A07755;}
	.st2{fill:#B5A978;}
	.st3{fill:#CC9A69;}
	.st4{fill:#B5885E;}
</style>
<g>
	<path class="st0" d="M45.1,32.9c-1.7,3.1-1.5,4.4,2.1,2.9c3.5-1.5,5.4-1.1,5.2-3.5C52.2,29.8,47.2,29,45.1,32.9z"/>
	<path class="st1" d="M43.6,30c2.8-2.7,4.8-2.8,3.7-5.1c-1-2.2-5.9-1.2-6.6,3.1C40.1,31.5,40.8,32.7,43.6,30z"/>
	<path class="st2" d="M58.2,32.7c3.8-0.6,5.5,0.3,5.9-2.1c0.5-2.4-4.1-4.4-7.2-1.2C54.4,32,54.4,33.3,58.2,32.7z"/>
	<path class="st1" d="M68.4,32.4c3-2.5,4.9-2.5,4.1-4.8c-0.9-2.3-5.9-1.7-6.9,2.6C64.8,33.7,65.4,34.9,68.4,32.4z"/>
	<path class="st0" d="M57.3,26c3.3-1.9,2.4-2.9-1.1-3.4c-4.3-0.6-6.7,3.9-4.8,5.5C53.2,29.7,53.9,27.9,57.3,26z"/>
	<path class="st3" d="M26.5,60.8c3.7-4.8,20.3-6.5,30-9.5c9.2-2.9,21.2-15.4,23-18.1c-0.1-0.4-0.3-0.7-0.4-1.1
		c-0.7-2.5-4.4-1-7.5,0.7c-1,0.6-5.6,3.3-6.7,5.2c-1.1,1.9,2.2,0.9-3.8,4.6c-6.4,3.9-14.7,4.3-17.3,4.8C43.4,47,43,46.5,44,46.2
		c1.7-0.5,8.8-0.6,14.2-3.9c5.4-3.3,3.9-5.6,1.7-6.8c-2.2-1.2-8.6,1.5-11.1,2.2s-14.3,0.4-19.3,1.7c-5,1.4-8,4.9-11.1,8.5
		c-6.1,7.1-18,9.5-18.2,12.2c-0.2,2.3,9.4,10,14,12.1C16.8,69.7,23.4,64.8,26.5,60.8z"/>
	<path class="st4" d="M56.5,51.3c-9.7,3-26.3,4.7-30,9.5c-3.1,4-9.7,8.9-12.3,11.4c0.9,0.4,1.7,0.6,2.1,0.5
		c2.5-0.7,11.3-12.5,18.8-14.6c7.5-2.1,20.1-2.9,24.6-6c20.5-13.6,20.6-16.7,19.8-18.9C77.7,35.9,65.7,48.4,56.5,51.3z"/>
</g>
</svg>
