<?xml version="1.0" encoding="utf-8"?>
<!-- Generator: Adobe Illustrator 22.1.0, SVG Export Plug-In . SVG Version: 6.00 Build 0)  -->
<svg version="1.0" id="Layer_1" xmlns="http://www.w3.org/2000/svg" xmlns:xlink="http://www.w3.org/1999/xlink" x="0px" y="0px"
	 viewBox="0 0 80 80" style="enable-background:new 0 0 80 80;" xml:space="preserve">
<style type="text/css">
	.st0{fill:#CC9A69;}
	.st1{fill:#9E8B51;}
	.st2{fill:#A07755;}
	.st3{fill:#B5A978;}
</style>
<path class="st0" d="M79.1,32.1c-0.7-2.5-4.4-1-7.5,0.7c-1,0.6-5.6,3.3-6.7,5.2c-1.1,1.9,2.2,0.9-3.8,4.6
	c-6.4,3.9-14.7,4.3-17.3,4.8c-0.4-0.4-0.8-0.9,0.2-1.2c1.7-0.5,8.8-0.6,14.2-3.9s3.9-5.6,1.7-6.8s-8.6,1.5-11.1,2.2
	c-2.5,0.7-14.3,0.4-19.3,1.7c-5,1.4-8,4.9-11.1,8.5c-6.1,7.1-18,9.5-18.2,12.2s13.6,13.3,16.1,12.6c2.5-0.7,11.3-12.5,18.8-14.6
	c7.5-2.1,20.1-2.9,24.6-6C83.6,36.2,79.8,34.6,79.1,32.1z"/>
<path class="st1" d="M45.1,32.9c-1.7,3.1-1.5,4.4,2.1,2.9c3.5-1.5,5.4-1.1,5.2-3.5C52.2,29.8,47.2,29,45.1,32.9z"/>
<path class="st2" d="M40.7,28c-0.6,3.5,0.1,4.7,2.9,2s4.8-2.8,3.7-5.1C46.3,22.7,41.4,23.7,40.7,28z"/>
<path class="st3" d="M56.9,29.4c-2.5,2.6-2.5,3.9,1.3,3.3s5.5,0.3,5.9-2.1C64.6,28.2,60,26.2,56.9,29.4z"/>
<path class="st2" d="M65.6,30.2c-0.8,3.5-0.2,4.7,2.8,2.2s4.9-2.5,4.1-4.8C71.6,25.3,66.6,25.9,65.6,30.2z"/>
<path class="st1" d="M56.2,22.6c3.5,0.5,4.4,1.5,1.1,3.4c-3.4,1.9-4.1,3.7-5.9,2.1C49.5,26.5,51.9,22,56.2,22.6z"/>
</svg>
