<?xml version="1.0" encoding="utf-8"?>
<!-- Generator: Adobe Illustrator 22.1.0, SVG Export Plug-In . SVG Version: 6.00 Build 0)  -->
<svg version="1.1" id="Layer_1" xmlns="http://www.w3.org/2000/svg" xmlns:xlink="http://www.w3.org/1999/xlink" x="0px" y="0px"
	 viewBox="0 0 80 80" style="enable-background:new 0 0 80 80;" xml:space="preserve">
<style type="text/css">
	.st0{fill:#B34A30;}
	.st1{fill:#213533;}
	.st2{fill:#936342;}
	.st3{fill:#AB734C;}
	.st4{fill:#684730;}
	.st5{fill:#AAAAAA;}
</style>
<g>
	<polygon class="st0" points="52.5,54.9 69,62.6 61.8,62.8 63,70 	"/>
	<polygon class="st1" points="66.7,18.7 63.1,62.6 61.9,63.8 19.5,73.8 19.9,74.4 63.6,66 65.4,63.3 67.4,18.9 	"/>
	<polygon class="st0" points="61.8,62.8 63,70 53,55.5 	"/>
	<path class="st2" d="M23.4,29.8c-18.9,22.3-3.5,44.6-3.5,44.6S13.7,52,29.6,33.3s37.8-14.4,37.8-14.4S41.4,8.6,23.4,29.8z"/>
	<path class="st3" d="M23.4,29.7c-19,22.3-3.5,44.7-3.5,44.7s1.6,0.9,0.9-0.2c-3.6-5.9-6.2-26.4,7-41.9
		c15.9-18.7,39.6-13.5,39.6-13.5s1.4-0.4-0.1-0.8C60.6,16.1,38.2,12.3,23.4,29.7z"/>
	<polygon class="st4" points="63.1,62.6 19.6,25.3 18.3,26.9 62.1,64.2 	"/>
	<polygon class="st5" points="25,25.8 11,19.5 19.6,32.3 19.8,26.8 	"/>
</g>
</svg>
