<?xml version="1.0" encoding="utf-8"?>
<!-- Generator: Adobe Illustrator 22.1.0, SVG Export Plug-In . SVG Version: 6.00 Build 0)  -->
<svg version="1.1" id="Layer_1" xmlns="http://www.w3.org/2000/svg" xmlns:xlink="http://www.w3.org/1999/xlink" x="0px" y="0px"
	 viewBox="0 0 220 220" style="enable-background:new 0 0 220 220;" xml:space="preserve">
<style type="text/css">
	.st0{fill:#FFB0A2;}
	.st1{fill:#FFCCC3;}
	.st2{fill:#FFE6D5;}
	.st3{fill:#FFC8B7;}
	.st4{fill:#A14A53;}
	.st5{fill:#BB586A;}
	.st6{fill:#B24F5B;}
	.st7{fill:#B84445;}
</style>
<g>
	<polygon class="st0" points="82.8,125.8 77.3,145.9 83.1,186.9 99.3,202.9 118,201.2 135.1,186.9 139.7,163.1 146.3,152.1 
		146.9,129.6 154.9,108.8 158.7,96.3 95.1,86.5 79.7,93 83.7,115.6 	"/>
	<path class="st1" d="M25.8,84.4l4.8-1L29.2,87L42,89.4l17.6-2.1l2.6,2.1L109,80l35.1-21.9l8.1-8.5c0,0-26.4-15.7-31.4-17.2
		s-66.6,0.5-66.6,0.5S36,45.8,32.9,47.1S17,55.5,17,55.5l-1,13l3.9,5.3L25.8,84.4z"/>
	<polyline class="st1" points="52,78.5 66.6,90.6 73.8,110.4 82,129.4 100.2,140.7 101,117.3 90,97.5 93.8,86.5 109,76.7 	"/>
	<g>
		<polygon class="st0" points="35.2,62.1 36.6,68.9 46.7,74.6 56.1,77.1 67.1,81.7 71.8,89.3 74.8,97.1 72.9,87.8 67.9,79.5 
			56.9,74.4 50,73.4 40.8,68.1 37.6,63.5 35.5,55.9 		"/>
		<path class="st0" d="M82.5,47.9l2.9,4.8l-0.1,4.5c0,0-2.6,5.4-2.9,5.8c-0.3,0.5-4.4,8.8-4.4,8.8l-1.7,11.6l2.3,11.2l5.9,18.7
			l-3.2-5.3l-3.8-14l-3.2-12.7L77,69.8l4.4-7.8l2.7-6.2l-1-4.1L78.7,45L82.5,47.9z"/>
		<path class="st0" d="M57.6,51.4l-0.8,10.4l4,5.5l6.5,5.6l3.9,6.3l-2.4-5.5L68,70.8L62.6,67l-3.7-4.4c0,0-1.2-2.4-0.7-3.4
			s0.4-6.4,0.4-6.4L57.6,51.4z"/>
	</g>
	<polyline class="st2" points="159.6,148.4 153.5,162.3 143.4,170 132,173.8 135.7,165.6 137.3,157.1 145.8,150.5 156.3,142.7 	"/>
	<path class="st2" d="M80.4,95.3l4.9,0.2L83,98.6l11.8,5.6l17.6,2.6l2,2.6l47.6,3l35.7-16.1l13.9-9.6c0,0-4.9-14.4-9.3-17.2
		c-4.4-2.8-81-16.7-81-16.7s-20.9,7.7-24.2,8.2c-3.3,0.5-17.6,4-17.6,4l-4.4,12.3l2.4,6.1L80.4,95.3z"/>
	<polyline class="st2" points="107.2,96.3 118.2,111.8 120.1,132.7 123.1,153.2 137.4,153.3 144.6,146.5 139,124.5 145.6,114.8 
		162.8,109.3 	"/>
	<polygon class="st3" points="106.1,124.8 107.2,130.8 104.9,146.3 102.8,157.9 105.7,163.3 116.2,152.6 119.9,140.6 123.9,127.3 
		128.3,123 122.5,115.6 109,116.3 	"/>
	<path class="st3" d="M60.8,115.6l0.8,1.4l2.5,2.6l4.3,8.8l6.7,16.3l1,20.7l5.8,12.9l3.3-9.6c0,0-1-11.8-1.5-12.6
		s-5.2-15.3-5.2-15.3l-2.7-11.4L73,118.7l2.1-1.4l1.2-4.9l-6.7-6.6l-6.5,2.6L60.8,115.6z"/>
	<path class="st2" d="M94.9,140.3l0.9,6.5l1.2,16.4c0,0,5,12.4,5.5,12.6c0.5,0.2,6.4,8.3,6.4,8.3l3.5-5.6l-2.3-8.1l-3.5-12.8
		l-0.4-14.5l2.7-6.7l-3.2-3.2l-5.7-0.9L94.9,140.3z"/>
	<polygon class="st3" points="119,151.4 117.8,161.7 112.7,172 104.5,180.7 102.8,186.9 110.6,184.5 116.8,178.1 122.5,172.7 
		128.6,161.9 131.4,152.5 126.1,148 	"/>
	<g>
		<polygon class="st1" points="94.9,77.4 94.9,84.4 103.7,92 112.5,96.3 122.3,103.1 125.4,111.3 126.8,119.6 126.8,110.1 
			123.5,101.1 113.8,93.9 107.2,91.5 99.2,84.4 97,79.3 96.5,71.4 		"/>
		<polygon class="st1" points="179.9,81 179,85.5 175,90.1 168.3,92.9 157.6,97.2 148.7,101.3 138,109.4 135,118 135,111.3 
			138.9,104.4 143.3,100.1 154.2,95.5 161.4,93.2 169.8,89.4 174.5,87.3 177.4,84.4 		"/>
		<path class="st1" d="M144.2,73l1.9,5.3l-1,4.4c0,0-3.7,4.8-4,5.1c-0.4,0.4-6.1,7.7-6.1,7.7l-3.9,11V118l2.1,19.5l-2.1-5.8
			l-0.9-14.5l-0.6-13.1l4.9-10.8l5.9-6.8l3.9-5.5l-0.1-4.2l-3-7.4L144.2,73z"/>
		<path class="st1" d="M119,71.4l-2.8,10.1l2.8,6.2l5.3,6.8l2.5,6.9l-1.2-5.9l-0.3-3l-4.5-4.9l-2.8-5c0,0-0.7-2.6,0-3.5
			s1.6-6.2,1.6-6.2L119,71.4z"/>
	</g>
	<polygon class="st4" points="151.4,50.7 154.7,45.9 149.4,38.1 123.1,26.4 94.2,23.3 60.1,26.8 38.9,32.1 23.1,43.4 14.2,56.9 
		12.7,68.6 20.3,78.3 25.8,84.4 24.7,81 21.3,73.8 19.6,66.8 23.4,57.8 36.9,49.2 65.9,43.1 90.8,39.4 117.2,40.9 132.7,44.6 
		145.5,46.4 148.9,48.7 	"/>
	<polygon class="st5" points="75.1,77.6 75.1,70.1 78.8,63.2 104.9,50.9 133.6,47.1 167.9,49.9 189.1,54.7 205.2,65.6 214.4,79 
		212.7,87.9 202.1,95.1 192,98.9 194.2,96.1 200.1,89.6 205.9,86.2 205.2,80 191.5,71.8 162.4,66.3 137.4,63.2 111,65.3 97.7,67.2 
		82.9,71.4 79.5,73.8 	"/>
	<polygon class="st6" points="132,146.4 150.1,136.6 164.2,136.6 175,146.4 177.3,153.7 168.9,155.7 162.2,152.9 161.7,149.1 
		157.1,151.7 149.6,150.1 144.5,146.1 138.8,147.8 	"/>
	<polygon class="st4" points="102.8,121.4 110.8,111.4 119.5,110.1 129.5,117.3 129.5,125.8 122.8,121.3 118.8,118 114.6,120.4 
		109,122.7 107.2,125.8 102.8,125.8 	"/>
	<polygon class="st4" points="62,119.6 59.9,112.5 62,106 71.1,103.1 75.1,106 79.2,111.3 75.1,117.3 75.1,112.5 71.7,108.6 
		65.8,110.1 63.3,111.3 	"/>
	<polygon class="st7" points="115.1,151.3 121.2,146.4 127.6,146.4 133.2,151.3 133.2,156.9 128.9,160.8 130.4,156.9 128.1,152.3 
		124,150.8 118.6,153.6 115.1,156.9 	"/>
	<polygon class="st5" points="94.2,142.3 93.2,135.6 97.7,130.8 101.6,130.8 108.3,133.4 110,139 107.2,135.6 102,134.6 98.4,135.6 
		95.4,139.9 	"/>
</g>
</svg>
