<svg id="Layer_2_1_" xmlns="http://www.w3.org/2000/svg" viewBox="0 0 300 350"><style>.st1{fill:#4d4d4d}.st2{fill:#736357}.st3{fill:#c7b299}</style><path fill="#333" d="M0 0h300.1v350H0z"/><path class="st1" d="M300.1 0h-2.8l2.8 2.8zM300.1 350v-.6l-.6.6z"/><path class="st2" d="M293.2 16.6c2.3 0 4.1-1.8 4.1-4.1s-1.8-4.1-4.1-4.1-4.1 1.8-4.1 4.1c0 2.2 1.8 4.1 4.1 4.1zM293.2 49.3c-2.3 0-4.1 1.8-4.1 4.1s1.8 4.1 4.1 4.1 4.1-1.8 4.1-4.1-1.8-4.1-4.1-4.1z"/><circle class="st2" cx="252.3" cy="94.2" r="4.1"/><path class="st2" d="M293.2 90.1c-2.3 0-4.1 1.8-4.1 4.1s1.8 4.1 4.1 4.1 4.1-1.8 4.1-4.1c0-2.2-1.8-4.1-4.1-4.1z"/><ellipse transform="rotate(-80.78 252.3 135.1)" class="st2" cx="252.3" cy="135.1" rx="4.1" ry="4.1"/><path class="st2" d="M293.2 131c-2.3 0-4.1 1.8-4.1 4.1s1.8 4.1 4.1 4.1 4.1-1.8 4.1-4.1-1.8-4.1-4.1-4.1z"/><ellipse transform="rotate(-80.78 252.3 175.9)" class="st2" cx="252.3" cy="175.9" rx="4.1" ry="4.1"/><path class="st2" d="M293.2 171.8c-2.3 0-4.1 1.8-4.1 4.1s1.8 4.1 4.1 4.1 4.1-1.8 4.1-4.1c0-2.2-1.8-4.1-4.1-4.1zM293.2 212.7c-2.3 0-4.1 1.8-4.1 4.1s1.8 4.1 4.1 4.1 4.1-1.8 4.1-4.1-1.8-4.1-4.1-4.1z"/><ellipse transform="rotate(-80.78 252.3 257.7)" class="st2" cx="252.3" cy="257.7" rx="4.1" ry="4.1"/><path class="st2" d="M293.2 253.6c-2.3 0-4.1 1.8-4.1 4.1s1.8 4.1 4.1 4.1 4.1-1.8 4.1-4.1-1.8-4.1-4.1-4.1z"/><ellipse transform="rotate(-80.78 252.3 298.5)" class="st2" cx="252.3" cy="298.5" rx="4.1" ry="4.1"/><path class="st2" d="M293.2 294.4c-2.3 0-4.1 1.8-4.1 4.1s1.8 4.1 4.1 4.1 4.1-1.8 4.1-4.1c0-2.2-1.8-4.1-4.1-4.1z"/><ellipse transform="rotate(-80.78 252.3 339.4)" class="st2" cx="252.3" cy="339.4" rx="4.1" ry="4.1"/><path class="st2" d="M293.2 335.3c-2.3 0-4.1 1.8-4.1 4.1s1.8 4.1 4.1 4.1 4.1-1.8 4.1-4.1-1.8-4.1-4.1-4.1z"/><circle class="st2" cx="252.3" cy="12.5" r="4.1"/><circle class="st2" cx="252.3" cy="53.3" r="4.1"/><circle class="st2" cx="211.5" cy="135.1" r="4.1"/><circle class="st2" cx="211.5" cy="298.5" r="4.1"/><circle class="st2" cx="211.5" cy="339.4" r="4.1"/><circle class="st2" cx="211.5" cy="12.5" r="4.1"/><circle class="st2" cx="211.5" cy="53.3" r="4.1"/><circle class="st2" cx="211.5" cy="94.2" r="4.1"/><circle class="st2" cx="211.5" cy="257.7" r="4.1"/><path class="st2" d="M170.6 294.4c-2.3 0-4.1 1.8-4.1 4.1s1.8 4.1 4.1 4.1 4.1-1.8 4.1-4.1c0-2.2-1.8-4.1-4.1-4.1zM170.6 335.3c-2.3 0-4.1 1.8-4.1 4.1s1.8 4.1 4.1 4.1 4.1-1.8 4.1-4.1-1.8-4.1-4.1-4.1zM170.6 16.6c2.3 0 4.1-1.8 4.1-4.1s-1.8-4.1-4.1-4.1-4.1 1.8-4.1 4.1c0 2.2 1.9 4.1 4.1 4.1zM170.6 57.4c2.3 0 4.1-1.8 4.1-4.1s-1.8-4.1-4.1-4.1-4.1 1.8-4.1 4.1 1.9 4.1 4.1 4.1zM170.6 98.3c2.3 0 4.1-1.8 4.1-4.1s-1.8-4.1-4.1-4.1-4.1 1.8-4.1 4.1 1.9 4.1 4.1 4.1zM170.6 261.8c2.3 0 4.1-1.8 4.1-4.1s-1.8-4.1-4.1-4.1-4.1 1.8-4.1 4.1c0 2.2 1.9 4.1 4.1 4.1z"/><circle class="st2" cx="129.8" cy="298.5" r="4.1"/><circle class="st2" cx="129.8" cy="339.4" r="4.1"/><circle class="st2" cx="129.8" cy="12.5" r="4.1"/><circle class="st2" cx="129.8" cy="53.3" r="4.1"/><circle class="st2" cx="129.8" cy="94.2" r="4.1"/><circle class="st2" cx="129.8" cy="257.7" r="4.1"/><path class="st2" d="M88.9 294.4c-2.3 0-4.1 1.8-4.1 4.1s1.8 4.1 4.1 4.1 4.1-1.8 4.1-4.1c0-2.2-1.8-4.1-4.1-4.1zM88.9 335.3c-2.3 0-4.1 1.8-4.1 4.1s1.8 4.1 4.1 4.1 4.1-1.8 4.1-4.1-1.8-4.1-4.1-4.1zM88.9 16.6c2.3 0 4.1-1.8 4.1-4.1s-1.8-4.1-4.1-4.1-4.1 1.8-4.1 4.1c0 2.2 1.8 4.1 4.1 4.1zM88.9 57.4c2.3 0 4.1-1.8 4.1-4.1s-1.8-4.1-4.1-4.1-4.1 1.8-4.1 4.1 1.8 4.1 4.1 4.1zM88.9 98.3c2.3 0 4.1-1.8 4.1-4.1s-1.8-4.1-4.1-4.1-4.1 1.8-4.1 4.1 1.8 4.1 4.1 4.1zM88.9 261.8c2.3 0 4.1-1.8 4.1-4.1s-1.8-4.1-4.1-4.1-4.1 1.8-4.1 4.1c0 2.2 1.8 4.1 4.1 4.1z"/><circle class="st2" cx="48" cy="298.5" r="4.1"/><circle class="st2" cx="48" cy="339.4" r="4.1"/><path class="st1" d="M9.8 26.8l-2.6 2.6L0 22.3v7l3.7 3.6L0 36.6v7.1l.4-.4L7 36.6l17 16.8L9.8 67.6l-2.6 2.6L0 63.1v7l3.7 3.6L0 77.4v7.1l.4-.4L7 77.5l17 16.8-14.2 14.2-2.6 2.6L0 104v7l3.7 3.6-3.7 3.7v7.1l.4-.4 6.6-6.6 17 16.8-14.2 14.2-2.6 2.6-7.2-7.1v7l3.7 3.6-3.7 3.7v7.1l.4-.4 6.6-6.6L24 176 9.8 190.2l-2.6 2.6-7.2-7.1v7l3.7 3.6L0 200v7.1l.4-.4 6.6-6.6 17 16.8-14.2 14.2-2.6 2.6-7.2-7.1v7l3.7 3.6-3.7 3.7v7.1l.4-.4L7 241l17 16.8L9.8 272l-2.6 2.6-7.2-7.1v7l3.7 3.6-3.7 3.7v7.1l.4-.4 6.6-6.6 17 16.8-14.2 14.1-2.6 2.6-7.2-7.1v7l3.6 3.6-3.6 3.7v7.1l7-7 17 16.8L13.5 350h7.1l7-7 7.1 7h7.1l-10.6-10.5L48 322.7l17 16.8L54.3 350h7.1l7-7 7.1 7h7.1L72 339.5l16.8-16.8 17 16.8L95.2 350h7.1l7-7 7.1 7h7.1l-10.6-10.5 16.8-16.8 17 16.8-10.6 10.5h7.1l7-7 7.1 7h7.1l-10.6-10.5 16.8-16.8 17 16.8-10.7 10.5h7.1l7-7 7.1 7h7.1l-10.6-10.5 16.8-16.8 17 16.8-10.6 10.5h7.1l7-7 7.1 7h7.1l-10.6-10.5 16.8-16.8 17 16.8-10.6 10.5h7.1l7-7 7.1 7h7.1l-10.6-10.5 16.8-16.8 7 7v-7l-3.5-3.5 3.5-3.5v-7.1l-4.3 4.3-2.6 2.6-17-16.8 16.8-16.8 7 7v-7l-3.5-3.5 3.5-3.5v-7.1l-4.3 4.3-2.6 2.6-17-16.8L293 241l7 7v-7l-3.5-3.5 3.5-3.5v-7.1l-4.3 4.3-2.6 2.6-17-16.8 16.8-16.8 7 7v-7l-3.5-3.5 3.5-3.5V186l-4.3 4.3-2.6 2.6-17-16.8 16.8-16.8 7 7v-7l-3.5-3.5 3.5-3.5v-7.1l-4.3 4.3-2.6 2.6-17-16.8 16.8-16.8 7 7v-7l-3.5-3.5 3.5-3.5v-7.1l-4.3 4.3-2.6 2.6-17-16.8 17.2-17 7 7v-7l-3.5-3.5 3.5-3.5v-7.1l-4.3 4.3-2.6 2.6-17-16.8L293 36.6l7 7v-7l-3.5-3.5 3.5-3.5v-7.1l-4.3 4.3-2.6 2.6-17-16.8L288.8 0h-7.1l-9.1 9.1-9.1-9.1h-7.1l12.7 12.6L255 26.8l-2.6 2.6-17-16.8 10.2-10.2L248 0h-7.1l-9.1 9.1-9.1-9.1h-7.1l12.7 12.6-14.2 14.2-2.6 2.6-17-16.8L207.1 0H200l-9 9.1-9.2-9.1h-7.1l12.7 12.6-14.2 14.2-2.6 2.6-17-16.8L166.2 0h-7.1L150 9.1 141 0h-7.1l12.7 12.6-14.2 14.2-2.6 2.6-17-16.8L125.4 0h-7.1l-9.1 9.1-9.1-9.1H93l12.7 12.6-14.2 14.2-2.6 2.6-17-16.8L84.5 0h-7.1l-9.1 9.1L59.2 0h-7.1l12.7 12.6-14.1 14.2-2.7 2.6-17-16.8L43.6 0h-7.1l-9.1 9.1-9-9.1h-7.1L24 12.6 9.8 26.8zm.7 47.2l2.8-2.8L27.5 57l17 16.8-6.8 6.8-10.2 10.2-17-16.8zm37.4-37.4l17 16.8-14.2 14.2-2.7 2.7-17-16.8 10.2-10.2 6.7-6.7zm40.8 0l17 16.8-14.2 14.2-2.6 2.6-17-16.8 10.2-10.2 6.6-6.6zm40.9 0l17 16.8-14.2 14.2-2.6 2.6-17-16.8L123 43.3l6.6-6.7zm40.9 0l17 16.8-14.2 14.2-2.6 2.6-17-16.8 10.2-10.2 6.6-6.6zm40.8 0l17 16.8-14.2 14.2-2.6 2.6-17-16.8 10.2-10.2 6.6-6.6zm40.9 0l17 16.8L255 67.6l-2.6 2.6-17-16.8 16.8-16.8zm17.1 180.3l-37.5 37.4-20.6-20.4-3.3 3.3.1.1-6.8 6.8-5.1 5.1-5.1 5.1-9.6-9.6-7.4-7.3-3.6-3.6-3.4 3.4-6.8 6.8-1.3 1.3-8.9 9-20.5-20.4-3.7 3.6-6.5 6.5-10.2 10.2-17-16.8-3.6-3.5-3.4 3.4-6.8 6.8-10.2 10.2-17-16.8.1-.1L30.9 217l1.8-1.8 8.5-8.5 6.6-6.6 3.5-3.5.3-.3-3.6-3.5-.1.1-9.3-9.2-7.8-7.6 20.6-20.4L72.2 135l9.8-9.8 6.6-6.6 3.5-3.5 2.8-2.8 14.2-14.2.1.1.1-.1 10.5 10.6 6.3 6.3-.1.1 18.7 18.8 1.7 1.7 3.5 3.5 3.5-3.5 10.2-10.2 6-6 .6-.6 1.7 1.7 15.3 15.2-.1.1 3.5 3.5.1-.1 17 16.8-.1.1 3.6 3.6 3.5-3.5-.1-.1 2.8-2.8 14.2-14.2 17 16.8-12.4 12.4-8.1 8.1 4.5 4.5 16 15.8-.1.1 20.8 20.1zM255 312.8l-2.6 2.6-17-16.8 16.8-16.8 17 16.8-14.2 14.2zm-43.5 2.6l-17-16.8 10.2-10.2 6.6-6.6 17 16.8-14.2 14.2-2.6 2.6zm-40.9 0l-17-16.8 10.2-10.2 6.6-6.6 17 16.8-14.2 14.2-2.6 2.6zm-40.8 0l-17-16.8 10.2-10.2 6.6-6.6 17 16.8-14.2 14.2-2.6 2.6zm-40.9 0l-17-16.8 10.2-10.2 6.6-6.6 17 16.8-14.2 14.2-2.6 2.6zm-40.9 0l-17-16.8 10.2-10.2 6.6-6.6 17 16.8-14.2 14.2-2.6 2.6zm-.1-74.4l17 16.8L50.7 272l-2.6 2.6-17-16.8 10.2-10.2 6.6-6.6zm3.5 37.3l2.8-2.8 14.2-14.2 17 16.8-6.8 6.8-10.2 10.2-17-16.8zM88.7 241l17 16.8L91.5 272l-2.6 2.6-17-16.8 10.2-10.2 6.6-6.6zm3.6 37.3l2.8-2.8 14.2-14.2 17 16.8-6.8 6.8-10.2 10.2-17-16.8zm37.3-37.3l17 16.8-14.2 14.2-2.6 2.6-17-16.8 10.2-10.2 6.6-6.6zm3.5 37.3l2.8-2.8 14.2-14.2 17 16.8-6.8 6.8-10.2 10.2-17-16.8zm37.4-37.3l17 16.8-14.3 14.2-2.6 2.6-17-16.8 10.2-10.2 6.7-6.6zm3.5 37.3l2.8-2.8 14.2-14.2 17 16.8-6.8 6.8-10.2 10.2-17-16.8zm37.3-37.3l17 16.8-14.2 14.2-2.6 2.6-17-16.8 10.2-10.2 6.6-6.6zm3.5 37.3l2.8-2.8 14.2-14.2 17 16.8-17 17-17-16.8zM255 272l-2.6 2.6-17-16.8 16.8-16.8 17 16.8L255 272zM47.9 77.5l17 16.8-14.2 14.2-2.6 2.6-17-16.8 10.2-10.2 6.6-6.6zm40.8 0l17 16.8-14.2 14.2-2.6 2.6-17-16.8 10.2-10.2 6.6-6.6zm-3.3 37.2l-6.8 6.8-10.2 10.2-17-16.8 2.8-2.8 14.2-14.2 17 16.8zm-37.5 3.7l17 16.8-14.2 14.2L48 152l-17-16.8L41.2 125l6.7-6.6zm81.7-40.9l17 16.8-14.2 14.2-2.6 2.6-17-16.8L123 84.1l6.6-6.6zm40.9 0l17 16.8-14.2 14.2-2.6 2.6-17-16.8 10.2-10.2 6.6-6.6zm40.8 0l17 16.8-14.2 14.2-2.6 2.6-17-16.8 10.2-10.2 6.6-6.6zm20.5 54.1l-17-16.8 2.8-2.8 14.2-14.2 17 16.8-17 17zM211.5 152l-17-16.8 10.2-10.2 6.6-6.6 17 16.8-14.2 14.2-2.6 2.6zm-3.5-37.3l-6.8 6.8-10.2 10.1-17-16.8 2.8-2.8L191 97.8l17 16.9zm-40.9 0l-6.8 6.8-10.2 10.2-17-16.8 2.8-2.8 14.2-14.2 17 16.8zm87.9 75.5l-2.6 2.6-17-16.8 16.8-16.8 17 16.8-14.2 14.2zm0-40.8l-2.6 2.6-17-16.8 16.8-16.8 17 16.8-14.2 14.2zm0-40.9l-2.6 2.6-17-16.8 16.8-16.8 17 16.8-14.2 14.2zm-6.2-34.7l-17 17-17-16.8 2.8-2.8L231.8 57l17 16.8zm-40.8 0l-6.8 6.8L191 90.8 174 74l2.8-2.8L191 57l17 16.8zm-40.9 0l-6.8 6.8-10.2 10.2-17-16.8 2.8-2.8L150.1 57l17 16.8zm-40.9 0l-6.8 6.8-10.2 10.2L92.3 74l2.8-2.8L109.3 57l16.9 16.8zm-40.8 0l-6.8 6.8-10.2 10.2-17-16.8 2.8-2.8L68.4 57l17 16.8zm-74.9 41l2.8-2.8 14.2-14.2 17 16.8-6.8 6.8-10.2 10.2-17-16.8zm0 40.9l2.8-2.8 14.2-14.2 17 16.8-6.8 6.8-10.2 10.2-17-16.8zm0 40.9l2.8-2.8 14.2-14.2 17 16.8-6.8 6.8-10.2 10.2-17-16.8zm0 40.8l2.8-2.8 14.2-14.2 17 16.8-6.8 6.8-10.2 10.2-17-16.8zm0 40.9l2.8-2.8 14.2-14.2 17 16.8-6.8 6.8-10.2 10.2-17-16.8zm0 40.9l17-17 17 16.8-17 17-17-16.8zm40.9 0l17-17 17 16.8-17 17-17-16.8zm40.9 0l17-17 17 16.8-17 17-17-16.8zm40.8 0l17-17 17 16.8-17 17-17-16.8zm40.9 0l17-17 17 16.8-17 17-17-16.8zm40.8 0l17-17 17 16.8-17 17-17-16.8zm74.9-.2l-17 17-17-16.8 17-17 17 16.8zm0-40.9l-17 17-17-16.8 17-17 17 16.8zm0-40.9l-17 17-17-16.8 17-17 17 16.8zm0-40.8l-17 17-17-16.8 17-17 17 16.8zm0-40.9l-17 17-17-16.8 17-17 17 16.8zm0-40.8l-17 17-17-16.8 17-17 17 16.8zm0-40.9l-17 17-17-16.8 17-17 17 16.8zm0-40.9l-17 17-17-16.8 17-17 17 16.8zm-57.9-16.8l17 16.8-17 17-17-16.8 2.8-2.8 14.2-14.2zm-40.8 0l17 16.8-6.8 6.8L191 49.9l-17-16.8 2.8-2.8L191 16.1zm-40.9 0l17 16.8-6.8 6.8-10.2 10.2-17-16.8 2.8-2.8 14.2-14.2zm-40.8 0l17 16.8-6.8 6.8-10.2 10.2-17-16.8 2.8-2.8 14.2-14.2zm-40.9 0l17 16.8-6.8 6.8-10.2 10.2-17-16.8 2.8-2.8 14.2-14.2zM44.5 32.9l-6.8 6.8-10.2 10.2-17-16.8 2.8-2.8 14.2-14.2 17 16.8z"/><circle class="st2" cx="48" cy="12.5" r="4.1"/><circle class="st2" cx="7.2" cy="53.3" r="4.1"/><circle class="st2" cx="48" cy="53.3" r="4.1"/><path class="st2" d="M11.3 94.2c0-2.3-1.8-4.1-4.1-4.1s-4.1 1.8-4.1 4.1 1.8 4.1 4.1 4.1c2.2 0 4.1-1.8 4.1-4.1z"/><circle class="st2" cx="48" cy="94.2" r="4.1"/><circle class="st2" cx="7.2" cy="135.1" r="4.1"/><circle class="st2" cx="48" cy="135.1" r="4.1"/><path class="st2" d="M11.3 175.9c0-2.3-1.8-4.1-4.1-4.1s-4.1 1.8-4.1 4.1 1.8 4.1 4.1 4.1c2.2 0 4.1-1.8 4.1-4.1z"/><circle class="st2" cx="7.2" cy="216.8" r="4.1"/><circle class="st2" cx="7.2" cy="257.7" r="4.1"/><circle class="st2" cx="48" cy="257.7" r="4.1"/><path class="st2" d="M11.3 298.5c0-2.3-1.8-4.1-4.1-4.1s-4.1 1.8-4.1 4.1 1.8 4.1 4.1 4.1c2.2 0 4.1-1.8 4.1-4.1z"/><circle class="st2" cx="7.2" cy="339.4" r="4.1"/><path class="st1" d="M0 2.8L2.8 0H0z"/><circle class="st2" cx="7.2" cy="12.5" r="4.1"/><path class="st1" d="M0 350h.8l-.8-.8z"/><path class="st3" d="M126.4 127c-3.9-1.7-8.2-2.6-13.1-2.6-5 0-9.5.8-13.5 2.4-4 1.6-7.1 3.8-9.3 6.7-2.2 2.9-3.3 6.2-3.3 9.9 0 7.5 4.4 13.4 13.1 17.7 2.7 1.3 6.2 2.7 10.4 4.1 4.2 1.4 7.2 2.8 8.9 4.1 1.7 1.3 2.5 3.2 2.5 5.6 0 2.1-.8 3.7-2.3 4.9-1.6 1.2-3.7 1.7-6.4 1.7-4.2 0-7.3-.9-9.1-2.6-1.9-1.7-2.8-4.4-2.8-8H85.3c0 4.5 1.1 8.4 3.4 11.8 2.2 3.4 5.6 6.1 10 8.1s9.4 2.9 14.9 2.9c7.8 0 13.9-1.7 18.3-5.1 4.5-3.4 6.7-8 6.7-13.9 0-7.4-3.7-13.2-11-17.4-3-1.7-6.8-3.4-11.5-4.9s-7.9-3-9.8-4.4-2.8-3-2.8-4.7c0-2 .8-3.6 2.5-4.9 1.7-1.3 4-1.9 6.9-1.9s5.2.8 6.8 2.3c1.7 1.5 2.5 3.7 2.5 6.4h16.3c0-4.1-1.1-7.8-3.2-11-2.1-3-5.1-5.5-8.9-7.2zM147.6 192.2h5.2l3.2-11.6 3.3 11.6h5.2l4.6-19.6h-5.9l-2 11.6-3-11.6h-4.3l-3.1 11.8-2-11.8h-5.9zM171.4 172.6h6.1v19.7h-6.1zM174.4 164.5c-1 0-1.8.3-2.5.8-.6.6-.9 1.3-.9 2.1 0 .9.3 1.6.9 2.1.6.6 1.4.8 2.5.8 1 0 1.8-.3 2.5-.8.6-.6.9-1.3.9-2.1 0-.9-.3-1.6-.9-2.1-.7-.5-1.5-.8-2.5-.8zM213.1 192.6c1.6 0 3.1-.3 4.5-.9 1.4-.6 2.5-1.5 3.2-2.5l-2.8-3.3c-1.1 1.4-2.6 2-4.5 2-1.2 0-2.1-.3-2.9-.9a4.4 4.4 0 0 1-1.4-2.6h12.2V182c0-3.1-.8-5.5-2.4-7.2a8.58 8.58 0 0 0-6.5-2.6c-2 0-3.7.4-5.1 1.3-1.4.8-2.5 2-3.3 3.6-.7 1.5-1.1 3.3-1.1 5.3v.5c0 2.9.9 5.2 2.8 7 1.9 1.8 4.3 2.7 7.3 2.7zm-.6-15.7c1 0 1.7.3 2.2.8s.8 1.3.7 2.3v.5h-6.2c.4-2.4 1.5-3.6 3.3-3.6zM74.5 181h-9.6l-15.6 42.5h10.9l2.5-7.9h14l2.5 7.9h11L74.5 181zm-4.8 11.9l4.6 14.7h-9.1l4.5-14.7zM108.1 199.8h-6v6.5c-1.2-1.4-2.6-2-4.3-2-2.4 0-4.2.9-5.5 2.6-1.3 1.8-2 4.2-2 7.2 0 3.2.7 5.7 2 7.5s3.2 2.6 5.4 2.6c1.9 0 3.5-.8 4.7-2.4l.3 2.1h5.4v-24.1zm-11.9 14.6v-1.1c.2-3 1.2-4.5 3-4.5 1.3 0 2.3.6 2.8 1.7v7.3c-.6 1.1-1.5 1.7-2.8 1.7-2 0-3-1.7-3-5.1zM122.2 223.8l6.3-19.2h-6.3l-3.1 12.1-2.9-12.1h-6.4l6.3 19.2zM138.7 204.2c-1.9 0-3.6.4-5 1.2s-2.5 2-3.2 3.5-1.1 3.2-1.1 5.2v.5c0 2.8.9 5.1 2.7 6.9 1.8 1.8 4.2 2.6 7.2 2.6 1.6 0 3-.3 4.4-.9s2.4-1.4 3.2-2.5l-2.7-3.2c-1.1 1.3-2.5 2-4.4 2-1.1 0-2.1-.3-2.8-.9-.7-.6-1.2-1.5-1.4-2.5h11.9v-2.3c0-3-.8-5.3-2.3-7a8.74 8.74 0 0 0-6.5-2.6zm2.9 8.1h-6c.3-2.3 1.4-3.5 3.1-3.5.9 0 1.7.3 2.2.8s.8 1.3.7 2.2v.5zM155.7 210.2c.6-.9 1.4-1.4 2.6-1.4 1 0 1.7.2 2.1.7.4.5.6 1.2.6 2.1v12.1h6v-12.4c0-2.4-.5-4.2-1.5-5.4s-2.5-1.8-4.5-1.8c-2.3 0-4.2.9-5.5 2.6l-.2-2.3h-5.6v19.2h6v-13.4zM171.4 199.8v4.8h-2.5v4.2h2.5v9.5c0 2 .5 3.5 1.5 4.4 1 1 2.5 1.5 4.6 1.5 1.2 0 2.3-.2 3.4-.5v-4.3c-.4.1-.9.1-1.5.1-.8 0-1.1-.1-1.4-.4-.3-.3-.4-.8-.4-1.5v-8.8h3v-4.2h-3v-4.8h-6.2zM194.3 221.7l.2 2.1h5.6v-19.2h-6v13.5c-.6 1-1.6 1.5-2.9 1.5-1.6 0-2.4-.8-2.4-2.5v-12.5l.1-14c1.2 1.3 2.6 2 4.5 2 2.3 0 4.2-.9 5.6-2.7 1.4-1.8 2.1-4.3 2.1-7.3v-.3c0-3.1-.7-5.6-2-7.4a6.53 6.53 0 0 0-5.6-2.7c-1.9 0-3.5.7-4.6 2.2l-.2-1.8H183V217c0 2.3.5 4.1 1.6 5.3s2.7 1.8 4.8 1.8c2 .1 3.7-.8 4.9-2.4zm-5.4-43.2c.5-1 1.5-1.6 2.9-1.6 2 0 3.1 1.7 3.1 5.2v.7c-.1 3.4-1.1 5.1-3 5.1-1.4 0-2.4-.5-2.9-1.6v-7.8h-.1zM209.4 211.6c.5-1.2 1.7-1.8 3.6-1.8l2 .1.1-5.6c-.5-.1-1-.2-1.7-.2-1.8 0-3.2.9-4.2 2.8l-.2-2.5h-5.6v19.2h6v-12zM225.5 204.2c-1.9 0-3.6.4-5 1.2s-2.5 2-3.2 3.5-1.1 3.2-1.1 5.2v.5c0 2.8.9 5.1 2.7 6.9 1.8 1.8 4.2 2.6 7.2 2.6 1.6 0 3-.3 4.4-.9 1.4-.6 2.4-1.4 3.2-2.5l-2.7-3.2c-1.1 1.3-2.5 2-4.4 2-1.1 0-2.1-.3-2.8-.9-.7-.6-1.2-1.5-1.4-2.5h11.9v-2.3c0-3-.8-5.3-2.3-7a8.58 8.58 0 0 0-6.5-2.6zm2.9 8.1h-6c.3-2.3 1.4-3.5 3.1-3.5.9 0 1.7.3 2.2.8s.8 1.3.7 2.2v.5z"/></svg>