<?xml version="1.0" encoding="utf-8"?>
<!-- Generator: Adobe Illustrator 22.1.0, SVG Export Plug-In . SVG Version: 6.00 Build 0)  -->
<svg version="1.1" id="Layer_2_1_" xmlns="http://www.w3.org/2000/svg" xmlns:xlink="http://www.w3.org/1999/xlink" x="0px" y="0px"
	 viewBox="0 0 300 340" style="enable-background:new 0 0 300 340;" xml:space="preserve">
<style type="text/css">
	.st0{fill:#333333;}
	.st1{fill:#4D4D4D;}
	.st2{fill:#736357;}
	.st3{fill:#C7B299;}
</style>
<path class="st0" d="M0,0h300.1v340H0V0z"/>
<path class="st1" d="M300.1-5h-2.8l2.8,2.8V-5z M300.1,345v-0.6l-0.6,0.6H300.1z"/>
<path class="st2" d="M293.2,11.6c2.3,0,4.1-1.8,4.1-4.1s-1.8-4.1-4.1-4.1s-4.1,1.8-4.1,4.1C289.1,9.7,290.9,11.6,293.2,11.6z
	 M293.2,44.3c-2.3,0-4.1,1.8-4.1,4.1s1.8,4.1,4.1,4.1s4.1-1.8,4.1-4.1S295.5,44.3,293.2,44.3z"/>
<circle class="st2" cx="252.3" cy="89.2" r="4.1"/>
<path class="st2" d="M293.2,85.1c-2.3,0-4.1,1.8-4.1,4.1s1.8,4.1,4.1,4.1s4.1-1.8,4.1-4.1C297.3,87,295.5,85.1,293.2,85.1z"/>
<ellipse transform="matrix(0.3163 -0.9487 0.9487 0.3163 49.0832 328.3026)" class="st2" cx="252.3" cy="130.1" rx="4.1" ry="4.1"/>
<path class="st2" d="M293.2,126c-2.3,0-4.1,1.8-4.1,4.1s1.8,4.1,4.1,4.1s4.1-1.8,4.1-4.1S295.5,126,293.2,126z"/>
<ellipse transform="matrix(0.3163 -0.9487 0.9487 0.3163 10.3776 356.1988)" class="st2" cx="252.3" cy="170.9" rx="4.1" ry="4.1"/>
<path class="st2" d="M293.2,166.8c-2.3,0-4.1,1.8-4.1,4.1s1.8,4.1,4.1,4.1s4.1-1.8,4.1-4.1C297.3,168.7,295.5,166.8,293.2,166.8z
	 M293.2,207.7c-2.3,0-4.1,1.8-4.1,4.1s1.8,4.1,4.1,4.1s4.1-1.8,4.1-4.1S295.5,207.7,293.2,207.7z"/>
<ellipse transform="matrix(0.3163 -0.9487 0.9487 0.3163 -67.2236 412.1279)" class="st2" cx="252.3" cy="252.7" rx="4.1" ry="4.1"/>
<path class="st2" d="M293.2,248.6c-2.3,0-4.1,1.8-4.1,4.1c0,2.3,1.8,4.1,4.1,4.1s4.1-1.8,4.1-4.1S295.5,248.6,293.2,248.6z"/>
<ellipse transform="matrix(0.3163 -0.9487 0.9487 0.3163 -105.9293 440.0241)" class="st2" cx="252.3" cy="293.5" rx="4.1" ry="4.1"/>
<path class="st2" d="M293.2,289.4c-2.3,0-4.1,1.8-4.1,4.1s1.8,4.1,4.1,4.1s4.1-1.8,4.1-4.1C297.3,291.3,295.5,289.4,293.2,289.4z"/>
<ellipse transform="matrix(0.3163 -0.9487 0.9487 0.3163 -144.7299 467.9887)" class="st2" cx="252.3" cy="334.4" rx="4.1" ry="4.1"/>
<path class="st2" d="M293.2,330.3c-2.3,0-4.1,1.8-4.1,4.1s1.8,4.1,4.1,4.1s4.1-1.8,4.1-4.1S295.5,330.3,293.2,330.3z"/>
<circle class="st2" cx="252.3" cy="7.5" r="4.1"/>
<circle class="st2" cx="252.3" cy="48.3" r="4.1"/>
<circle class="st2" cx="211.5" cy="130.1" r="4.1"/>
<circle class="st2" cx="211.5" cy="293.5" r="4.1"/>
<circle class="st2" cx="211.5" cy="334.4" r="4.1"/>
<circle class="st2" cx="211.5" cy="7.5" r="4.1"/>
<circle class="st2" cx="211.5" cy="48.3" r="4.1"/>
<circle class="st2" cx="211.5" cy="89.2" r="4.1"/>
<circle class="st2" cx="211.5" cy="252.7" r="4.1"/>
<path class="st2" d="M170.6,289.4c-2.3,0-4.1,1.8-4.1,4.1s1.8,4.1,4.1,4.1s4.1-1.8,4.1-4.1C174.7,291.3,172.9,289.4,170.6,289.4z
	 M170.6,330.3c-2.3,0-4.1,1.8-4.1,4.1s1.8,4.1,4.1,4.1s4.1-1.8,4.1-4.1S172.9,330.3,170.6,330.3z M170.6,11.6c2.3,0,4.1-1.8,4.1-4.1
	s-1.8-4.1-4.1-4.1s-4.1,1.8-4.1,4.1C166.5,9.7,168.4,11.6,170.6,11.6z M170.6,52.4c2.3,0,4.1-1.8,4.1-4.1s-1.8-4.1-4.1-4.1
	s-4.1,1.8-4.1,4.1S168.4,52.4,170.6,52.4z M170.6,93.3c2.3,0,4.1-1.8,4.1-4.1s-1.8-4.1-4.1-4.1s-4.1,1.8-4.1,4.1
	S168.4,93.3,170.6,93.3z M170.6,256.8c2.3,0,4.1-1.8,4.1-4.1s-1.8-4.1-4.1-4.1s-4.1,1.8-4.1,4.1
	C166.5,254.9,168.4,256.8,170.6,256.8z"/>
<circle class="st2" cx="129.8" cy="293.5" r="4.1"/>
<circle class="st2" cx="129.8" cy="334.4" r="4.1"/>
<circle class="st2" cx="129.8" cy="7.5" r="4.1"/>
<circle class="st2" cx="129.8" cy="48.3" r="4.1"/>
<circle class="st2" cx="129.8" cy="89.2" r="4.1"/>
<circle class="st2" cx="129.8" cy="252.7" r="4.1"/>
<path class="st2" d="M88.9,289.4c-2.3,0-4.1,1.8-4.1,4.1s1.8,4.1,4.1,4.1s4.1-1.8,4.1-4.1C93,291.3,91.2,289.4,88.9,289.4z
	 M88.9,330.3c-2.3,0-4.1,1.8-4.1,4.1s1.8,4.1,4.1,4.1s4.1-1.8,4.1-4.1S91.2,330.3,88.9,330.3z M88.9,11.6c2.3,0,4.1-1.8,4.1-4.1
	s-1.8-4.1-4.1-4.1s-4.1,1.8-4.1,4.1C84.8,9.7,86.6,11.6,88.9,11.6z M88.9,52.4c2.3,0,4.1-1.8,4.1-4.1s-1.8-4.1-4.1-4.1
	s-4.1,1.8-4.1,4.1S86.6,52.4,88.9,52.4z M88.9,93.3c2.3,0,4.1-1.8,4.1-4.1s-1.8-4.1-4.1-4.1s-4.1,1.8-4.1,4.1S86.6,93.3,88.9,93.3z
	 M88.9,256.8c2.3,0,4.1-1.8,4.1-4.1s-1.8-4.1-4.1-4.1s-4.1,1.8-4.1,4.1C84.8,254.9,86.6,256.8,88.9,256.8z"/>
<circle class="st2" cx="48" cy="293.5" r="4.1"/>
<circle class="st2" cx="48" cy="334.4" r="4.1"/>
<circle class="st2" cx="48" cy="7.5" r="4.1"/>
<circle class="st2" cx="7.2" cy="48.3" r="4.1"/>
<circle class="st2" cx="48" cy="48.3" r="4.1"/>
<path class="st2" d="M11.3,89.2c0-2.3-1.8-4.1-4.1-4.1s-4.1,1.8-4.1,4.1s1.8,4.1,4.1,4.1C9.4,93.3,11.3,91.5,11.3,89.2z"/>
<circle class="st2" cx="48" cy="89.2" r="4.1"/>
<circle class="st2" cx="7.2" cy="130.1" r="4.1"/>
<circle class="st2" cx="48" cy="130.1" r="4.1"/>
<path class="st2" d="M11.3,170.9c0-2.3-1.8-4.1-4.1-4.1s-4.1,1.8-4.1,4.1s1.8,4.1,4.1,4.1C9.4,175,11.3,173.2,11.3,170.9z"/>
<circle class="st2" cx="7.2" cy="211.8" r="4.1"/>
<circle class="st2" cx="7.2" cy="252.7" r="4.1"/>
<circle class="st2" cx="48" cy="252.7" r="4.1"/>
<path class="st2" d="M11.3,293.5c0-2.3-1.8-4.1-4.1-4.1s-4.1,1.8-4.1,4.1s1.8,4.1,4.1,4.1C9.4,297.6,11.3,295.8,11.3,293.5z"/>
<circle class="st2" cx="7.2" cy="334.4" r="4.1"/>
<path class="st1" d="M0-2.2L2.8-5H0V-2.2z"/>
<circle class="st2" cx="7.2" cy="7.5" r="4.1"/>
<path class="st1" d="M0,339h0.8L0,338.2V339z"/>
<path class="st3" d="M126.4,122c-3.9-1.7-8.2-2.6-13.1-2.6c-5,0-9.5,0.8-13.5,2.4c-4,1.6-7.1,3.8-9.3,6.7c-2.2,2.9-3.3,6.2-3.3,9.9
	c0,7.5,4.4,13.4,13.1,17.7c2.7,1.3,6.2,2.7,10.4,4.1c4.2,1.4,7.2,2.8,8.9,4.1c1.7,1.3,2.5,3.2,2.5,5.6c0,2.1-0.8,3.7-2.3,4.9
	c-1.6,1.2-3.7,1.7-6.4,1.7c-4.2,0-7.3-0.9-9.1-2.6c-1.9-1.7-2.8-4.4-2.8-8H85.3c0,4.5,1.1,8.4,3.4,11.8c2.2,3.4,5.6,6.1,10,8.1
	s9.4,2.9,14.9,2.9c7.8,0,13.9-1.7,18.3-5.1c4.5-3.4,6.7-8,6.7-13.9c0-7.4-3.7-13.2-11-17.4c-3-1.7-6.8-3.4-11.5-4.9s-7.9-3-9.8-4.4
	s-2.8-3-2.8-4.7c0-2,0.8-3.6,2.5-4.9c1.7-1.3,4-1.9,6.9-1.9s5.2,0.8,6.8,2.3c1.7,1.5,2.5,3.7,2.5,6.4h16.3c0-4.1-1.1-7.8-3.2-11
	C133.2,126.2,130.2,123.7,126.4,122L126.4,122z M147.6,187.2h5.2l3.2-11.6l3.3,11.6h5.2l4.6-19.6h-5.9l-2,11.6l-3-11.6h-4.3
	l-3.1,11.8l-2-11.8h-5.9L147.6,187.2z M171.4,167.6h6.1v19.7h-6.1V167.6z M174.4,159.5c-1,0-1.8,0.3-2.5,0.8
	c-0.6,0.6-0.9,1.3-0.9,2.1c0,0.9,0.3,1.6,0.9,2.1c0.6,0.6,1.4,0.8,2.5,0.8c1,0,1.8-0.3,2.5-0.8c0.6-0.6,0.9-1.3,0.9-2.1
	c0-0.9-0.3-1.6-0.9-2.1C176.2,159.8,175.4,159.5,174.4,159.5z M213.1,187.6c1.6,0,3.1-0.3,4.5-0.9c1.4-0.6,2.5-1.5,3.2-2.5l-2.8-3.3
	c-1.1,1.4-2.6,2-4.5,2c-1.2,0-2.1-0.3-2.9-0.9c-0.8-0.7-1.2-1.6-1.4-2.6h12.2V177c0-3.1-0.8-5.5-2.4-7.2c-1.7-1.8-4.1-2.7-6.5-2.6
	c-2,0-3.7,0.4-5.1,1.3c-1.4,0.8-2.5,2-3.3,3.6c-0.7,1.5-1.1,3.3-1.1,5.3v0.5c0,2.9,0.9,5.2,2.8,7
	C207.7,186.7,210.1,187.6,213.1,187.6z M212.5,171.9c1,0,1.7,0.3,2.2,0.8s0.8,1.3,0.7,2.3v0.5h-6.2
	C209.6,173.1,210.7,171.9,212.5,171.9z M74.5,176h-9.6l-15.6,42.5h10.9l2.5-7.9h14l2.5,7.9h11L74.5,176z M69.7,187.9l4.6,14.7h-9.1
	L69.7,187.9z M108.1,194.8h-6v6.5c-1.2-1.4-2.6-2-4.3-2c-2.4,0-4.2,0.9-5.5,2.6c-1.3,1.8-2,4.2-2,7.2c0,3.2,0.7,5.7,2,7.5
	s3.2,2.6,5.4,2.6c1.9,0,3.5-0.8,4.7-2.4l0.3,2.1h5.4V194.8L108.1,194.8z M96.2,209.4v-1.1c0.2-3,1.2-4.5,3-4.5
	c1.3,0,2.3,0.6,2.8,1.7v7.3c-0.6,1.1-1.5,1.7-2.8,1.7C97.2,214.5,96.2,212.8,96.2,209.4L96.2,209.4z M122.2,218.8l6.3-19.2h-6.3
	l-3.1,12.1l-2.9-12.1h-6.4l6.3,19.2H122.2z M138.7,199.2c-1.9,0-3.6,0.4-5,1.2s-2.5,2-3.2,3.5s-1.1,3.2-1.1,5.2v0.5
	c0,2.8,0.9,5.1,2.7,6.9c1.8,1.8,4.2,2.6,7.2,2.6c1.6,0,3-0.3,4.4-0.9s2.4-1.4,3.2-2.5l-2.7-3.2c-1.1,1.3-2.5,2-4.4,2
	c-1.1,0-2.1-0.3-2.8-0.9c-0.7-0.6-1.2-1.5-1.4-2.5h11.9v-2.3c0-3-0.8-5.3-2.3-7C143.5,200.1,141.1,199.1,138.7,199.2L138.7,199.2z
	 M141.6,207.3h-6c0.3-2.3,1.4-3.5,3.1-3.5c0.9,0,1.7,0.3,2.2,0.8s0.8,1.3,0.7,2.2V207.3z M155.7,205.2c0.6-0.9,1.4-1.4,2.6-1.4
	c1,0,1.7,0.2,2.1,0.7c0.4,0.5,0.6,1.2,0.6,2.1v12.1h6v-12.4c0-2.4-0.5-4.2-1.5-5.4s-2.5-1.8-4.5-1.8c-2.3,0-4.2,0.9-5.5,2.6
	l-0.2-2.3h-5.6v19.2h6L155.7,205.2L155.7,205.2z M171.4,194.8v4.8h-2.5v4.2h2.5v9.5c0,2,0.5,3.5,1.5,4.4c1,1,2.5,1.5,4.6,1.5
	c1.2,0,2.3-0.2,3.4-0.5v-4.3c-0.4,0.1-0.9,0.1-1.5,0.1c-0.8,0-1.1-0.1-1.4-0.4c-0.3-0.3-0.4-0.8-0.4-1.5v-8.8h3v-4.2h-3v-4.8H171.4
	L171.4,194.8z M194.3,216.7l0.2,2.1h5.6v-19.2h-6v13.5c-0.6,1-1.6,1.5-2.9,1.5c-1.6,0-2.4-0.8-2.4-2.5v-12.5l0.1-14
	c1.2,1.3,2.6,2,4.5,2c2.3,0,4.2-0.9,5.6-2.7c1.4-1.8,2.1-4.3,2.1-7.3v-0.3c0-3.1-0.7-5.6-2-7.4c-1.3-1.8-3.4-2.8-5.6-2.7
	c-1.9,0-3.5,0.7-4.6,2.2l-0.2-1.8H183V212c0,2.3,0.5,4.1,1.6,5.3s2.7,1.8,4.8,1.8C191.4,219.2,193.1,218.3,194.3,216.7L194.3,216.7z
	 M188.9,173.5c0.5-1,1.5-1.6,2.9-1.6c2,0,3.1,1.7,3.1,5.2v0.7c-0.1,3.4-1.1,5.1-3,5.1c-1.4,0-2.4-0.5-2.9-1.6v-7.8L188.9,173.5
	L188.9,173.5z M209.4,206.6c0.5-1.2,1.7-1.8,3.6-1.8l2,0.1l0.1-5.6c-0.5-0.1-1-0.2-1.7-0.2c-1.8,0-3.2,0.9-4.2,2.8l-0.2-2.5h-5.6
	v19.2h6L209.4,206.6L209.4,206.6z M225.5,199.2c-1.9,0-3.6,0.4-5,1.2s-2.5,2-3.2,3.5s-1.1,3.2-1.1,5.2v0.5c0,2.8,0.9,5.1,2.7,6.9
	c1.8,1.8,4.2,2.6,7.2,2.6c1.6,0,3-0.3,4.4-0.9c1.4-0.6,2.4-1.4,3.2-2.5l-2.7-3.2c-1.1,1.3-2.5,2-4.4,2c-1.1,0-2.1-0.3-2.8-0.9
	c-0.7-0.6-1.2-1.5-1.4-2.5h11.9v-2.3c0-3-0.8-5.3-2.3-7C230.3,200,227.9,199.1,225.5,199.2L225.5,199.2z M228.4,207.3h-6
	c0.3-2.3,1.4-3.5,3.1-3.5c0.9,0,1.7,0.3,2.2,0.8s0.8,1.3,0.7,2.2V207.3z"/>
<path class="st1" d="M24,334.5l-5.5,5.5h7.1l2-2l2,2h7.1l-5.6-5.5L48,317.7l17,16.8l-5.6,5.5h7l2-2l2,2h7.1l-5.6-5.5l16.8-16.8
	l17,16.8l-5.6,5.5h7.1l2-2l2,2h7.1l-5.6-5.5l16.8-16.8l17,16.8l-5.6,5.5h7.1l2-2l2,2h7.1l-5.6-5.5l16.8-16.8l17,16.8L182,340h7l2-2
	l2,2h7.1l-5.6-5.5l16.8-16.8l17,16.8l-5.6,5.5h7.1l2-2l2,2h7.1l-5.6-5.5l16.8-16.8l17,16.8l-5.6,5.5h7.1l2-2l2,2h7.1l-5.6-5.5
	l16.8-16.8l7,7v-7l-3.5-3.5l3.5-3.5v-7.1l-4.3,4.3l-2.6,2.6l-17-16.8l16.8-16.8l7,7v-7l-3.5-3.5l3.5-3.5v-7.1l-4.3,4.3l-2.6,2.6
	l-17-16.8L293,236l7,7v-7l-3.5-3.5l3.5-3.5v-7.1l-4.3,4.3l-2.6,2.6l-17-16.8l16.8-16.8l7,7v-7l-3.5-3.5l3.5-3.5V181l-4.3,4.3
	l-2.6,2.6l-17-16.8l16.8-16.8l7,7v-7l-3.5-3.5l3.5-3.5v-7.1l-4.3,4.3l-2.6,2.6l-17-16.8l16.8-16.8l7,7v-7l-3.5-3.5l3.5-3.5v-7.1
	l-4.3,4.3l-2.6,2.6l-17-16.8l17.2-17l7,7v-7l-3.5-3.5l3.5-3.5v-7.1l-4.3,4.3l-2.6,2.6l-17-16.8L293,31.6l7,7v-7l-3.5-3.5l3.5-3.5
	v-7.1l-4.3,4.3l-2.6,2.6l-17-16.8l7.7-7.6h-7.1l-4.1,4.1L268.5,0h-7.1l7.7,7.6L255,21.8l-2.6,2.6l-17-16.8L243,0h-7.1l-4.1,4.1
	L227.7,0h-7.1l7.7,7.6l-14.2,14.2l-2.6,2.6l-17-16.8l7.6-7.6h-7L191,4.1L186.9,0h-7.1l7.7,7.6l-14.2,14.2l-2.6,2.6l-17-16.8l7.6-7.6
	h-7.1L150,4.1L145.9,0h-7l7.7,7.6l-14.2,14.2l-2.6,2.6l-17-16.8l7.6-7.6h-7.1l-4.1,4.1L105.1,0H98l7.7,7.6L91.5,21.8l-2.6,2.6
	l-17-16.8L79.5,0h-7.1l-4.1,4.1L64.2,0h-7.1l7.7,7.6L50.7,21.8L48,24.4L31,7.6L38.6,0h-7.1l-4.1,4.1L23.3,0h-7L24,7.6L9.8,21.8
	l-2.6,2.6L0,17.3v7l3.7,3.6L0,31.6v7.1l0.4-0.4L7,31.6l17,16.8L9.8,62.6l-2.6,2.6L0,58.1v7l3.7,3.6L0,72.4v7.1l0.4-0.4L7,72.5
	l17,16.8L9.8,103.5l-2.6,2.6L0,99v7l3.7,3.6L0,113.3v7.1l0.4-0.4l6.6-6.6l17,16.8L9.8,144.4L7.2,147L0,139.9v7l3.7,3.6L0,154.2v7.1
	l0.4-0.4l6.6-6.6L24,171L9.8,185.2l-2.6,2.6L0,180.7v7l3.7,3.6L0,195v7.1l0.4-0.4l6.6-6.6l17,16.8L9.8,226.1l-2.6,2.6L0,221.6v7
	l3.7,3.6L0,235.9v7.1l0.4-0.4L7,236l17,16.8L9.8,267l-2.6,2.6L0,262.5v7l3.7,3.6L0,276.8v7.1l0.4-0.4l6.6-6.6l17,16.8L9.8,307.8
	l-2.6,2.6L0,303.3v7l3.6,3.6L0,317.6v7.1l7-7L24,334.5z M48,310.4l-17-16.8l10.2-10.2l6.6-6.6l17,16.8l-14.2,14.2L48,310.4z
	 M48,187.8l-0.1,0.1l-9.3-9.2l-7.8-7.6l20.6-20.4L72.2,130l9.8-9.8l6.6-6.6l3.5-3.5l2.8-2.8l14.2-14.2l0.1,0.1l0.1-0.1l10.5,10.6
	l6.3,6.3l-0.1,0.1l18.7,18.8l1.7,1.7l3.5,3.5l3.5-3.5l10.2-10.2l6-6l0.6-0.6l1.7,1.7l15.3,15.2l-0.1,0.1l3.5,3.5l0.1-0.1l17,16.8
	l-0.1,0.1l3.6,3.6l3.5-3.5l-0.1-0.1l2.8-2.8l14.2-14.2l17,16.8l-12.4,12.4l-8.1,8.1l4.5,4.5l16,15.8l-0.1,0.1l20.8,20.1h0
	l-37.5,37.4l-20.6-20.4l-3.3,3.3l0.1,0.1l-6.8,6.8l-5.1,5.1l-5.1,5.1l-9.6-9.6l-7.4-7.3l-3.6-3.6l-3.4,3.4l-6.8,6.8l-1.3,1.3l-8.9,9
	l-20.5-20.4l-3.7,3.6l-6.5,6.5l-10.2,10.2l-17-16.8l-3.6-3.5l-3.4,3.4l-6.8,6.8l-10.2,10.2l-17-16.8l0.1-0.1L30.9,212l1.8-1.8
	l8.5-8.5l6.6-6.6l3.5-3.5l0.3-0.3L48,187.8z M252.4,147l-17-16.8l16.8-16.8l17,16.8L255,144.4L252.4,147z M269.2,171L255,185.2
	l-2.6,2.6l-17-16.8l16.8-16.8L269.2,171z M204.7,120l6.6-6.6l17,16.8l-14.2,14.2l-2.6,2.6l-17-16.8L204.7,120z M191,126.6l-17-16.8
	l2.8-2.8L191,92.8l17,16.9l-6.8,6.8L191,126.6z M214.8,109.8l2.8-2.8l14.2-14.2l17,16.8l-17,17L214.8,109.8z M252.4,106.1l-17-16.8
	l16.8-16.8l17,16.8L255,103.5L252.4,106.1z M231.8,85.8l-17-16.8l2.8-2.8L231.8,52l17,16.8L231.8,85.8z M228.3,89.3l-14.2,14.2
	l-2.6,2.6l-17-16.8l10.2-10.2l6.6-6.6L228.3,89.3z M201.2,75.6L191,85.8L174,69l2.8-2.8L191,52l17,16.8L201.2,75.6z M187.5,89.3
	l-14.2,14.2l-2.6,2.6l-17-16.8l10.2-10.2l6.6-6.6L187.5,89.3z M167.1,109.7l-6.8,6.8l-10.2,10.2l-17-16.8l2.8-2.8l14.2-14.2
	L167.1,109.7z M160.3,75.6l-10.2,10.2l-17-16.8l2.8-2.8L150.1,52l17,16.8L160.3,75.6z M146.6,89.3l-14.2,14.2l-2.6,2.6l-17-16.8
	L123,79.1l6.6-6.6L146.6,89.3z M119.4,75.6l-10.2,10.2L92.3,69l2.8-2.8L109.3,52l16.9,16.8L119.4,75.6z M105.7,89.3l-14.2,14.2
	l-2.6,2.6l-17-16.8l10.2-10.2l6.6-6.6L105.7,89.3z M85.4,109.7l-6.8,6.8l-10.2,10.2l-17-16.8l2.8-2.8l14.2-14.2L85.4,109.7z
	 M78.6,75.6L68.4,85.8L51.4,69l2.8-2.8L68.4,52l17,16.8L78.6,75.6z M64.9,89.3l-14.2,14.2l-2.6,2.6l-17-16.8l10.2-10.2l6.6-6.6
	L64.9,89.3z M64.9,130.2l-14.2,14.2L48,147l-17-16.8L41.2,120c0,0,6.7-6.6,6.7-6.6L64.9,130.2z M71.9,252.8l10.2-10.2l6.6-6.6
	l17,16.8L91.5,267l-2.6,2.6L71.9,252.8z M85.4,273.1l-6.8,6.8l-10.2,10.2l-17-16.8l2.8-2.8l14.2-14.2L85.4,273.1z M95.1,270.5
	l14.2-14.2l17,16.8l-6.8,6.8l-10.2,10.2l-17-16.8L95.1,270.5z M112.8,252.8l10.2-10.2l6.6-6.6l17,16.8L132.4,267l-2.6,2.6
	L112.8,252.8z M135.9,270.5l14.2-14.2l17,16.8l-6.8,6.8l-10.2,10.2l-17-16.8L135.9,270.5z M153.6,252.8l10.2-10.2l6.7-6.6l17,16.8
	L173.2,267l-2.6,2.6L153.6,252.8z M176.8,270.5l14.2-14.2l17,16.8l-6.8,6.8L191,290.1l-17-16.8L176.8,270.5z M194.5,252.8l10.2-10.2
	l6.6-6.6l17,16.8L214.1,267l-2.6,2.6L194.5,252.8z M217.6,270.5l14.2-14.2l17,16.8l-17,17l-17-16.8L217.6,270.5z M235.4,252.8
	l16.8-16.8l17,16.8L255,267l-2.6,2.6L235.4,252.8z M64.9,252.8L50.7,267l-2.6,2.6l-17-16.8l10.2-10.2l6.6-6.6L64.9,252.8z M68.4,331
	l-17-16.8l17-17l17,16.8L68.4,331z M88.9,310.4l-17-16.8l10.2-10.2l6.6-6.6l17,16.8l-14.2,14.2L88.9,310.4z M109.3,331l-17-16.8
	l17-17l17,16.8L109.3,331z M129.8,310.4l-17-16.8l10.2-10.2l6.6-6.6l17,16.8l-14.2,14.2L129.8,310.4z M150.1,331l-17-16.8l17-17
	l17,16.8L150.1,331z M170.6,310.4l-17-16.8l10.2-10.2l6.6-6.6l17,16.8l-14.2,14.2L170.6,310.4z M191,331l-17-16.8l17-17l17,16.8
	L191,331z M211.5,310.4l-17-16.8l10.2-10.2l6.6-6.6l17,16.8l-14.2,14.2L211.5,310.4z M231.8,331l-17-16.8l17-17l17,16.8L231.8,331z
	 M252.4,310.4l-17-16.8l16.8-16.8l17,16.8L255,307.8v0L252.4,310.4z M289.7,314l-17,17l-17-16.8l17-17L289.7,314z M289.7,273.1
	l-17,17l-17-16.8l17-17L289.7,273.1z M289.7,232.2l-17,17l-17-16.8l17-17L289.7,232.2z M289.7,191.4l-17,17l-17-16.8l17-17
	L289.7,191.4z M289.7,150.5l-17,17l-17-16.8l17-17L289.7,150.5z M289.7,109.7l-17,17l-17-16.8l17-17L289.7,109.7z M289.7,68.8
	l-17,17l-17-16.8l17-17L289.7,68.8z M272.7,11.1l17,16.8l-17,17l-17-16.8L272.7,11.1z M269.2,48.4L255,62.6l-2.6,2.6l-17-16.8
	l16.8-16.8L269.2,48.4z M217.6,25.3l14.2-14.2l17,16.8l-17,17l-17-16.8L217.6,25.3z M228.3,48.4l-14.2,14.2l-2.6,2.6l-17-16.8
	l10.2-10.2l6.6-6.6L228.3,48.4z M176.8,25.3L191,11.1l17,16.8l-6.8,6.8L191,44.9l-17-16.8L176.8,25.3z M187.5,48.4l-14.2,14.2
	l-2.6,2.6l-17-16.8l10.2-10.2l6.6-6.6L187.5,48.4z M135.9,25.3l14.2-14.2l17,16.8l-6.8,6.8l-10.2,10.2l-17-16.8L135.9,25.3z
	 M146.6,48.4l-14.2,14.2l-2.6,2.6l-17-16.8L123,38.3l6.6-6.7L146.6,48.4z M95.1,25.3l14.2-14.2l17,16.8l-6.8,6.8l-10.2,10.2
	l-17-16.8L95.1,25.3z M105.7,48.4L91.5,62.6l-2.6,2.6l-17-16.8l10.2-10.2l6.6-6.6L105.7,48.4z M54.2,25.3l14.2-14.2l17,16.8
	l-6.8,6.8L68.4,44.9l-17-16.8L54.2,25.3z M64.9,48.4L50.7,62.6L48,65.3L31,48.5l10.2-10.2l6.7-6.7L64.9,48.4z M10.5,28.1l2.8-2.8
	l14.2-14.2l17,16.8l-6.8,6.8L27.5,44.9L10.5,28.1z M10.5,69l2.8-2.8L27.5,52l17,16.8l-6.8,6.8L27.5,85.8L10.5,69z M10.5,109.8
	l2.8-2.8l14.2-14.2l17,16.8l-6.8,6.8l-10.2,10.2L10.5,109.8z M10.5,150.7l2.8-2.8l14.2-14.2l17,16.8l-6.8,6.8l-10.2,10.2L10.5,150.7
	z M10.5,191.6l2.8-2.8l14.2-14.2l17,16.8l-6.8,6.8l-10.2,10.2L10.5,191.6z M10.5,232.4l2.8-2.8l14.2-14.2l17,16.8l-6.8,6.8
	l-10.2,10.2L10.5,232.4z M10.5,273.3l2.8-2.8l14.2-14.2l17,16.8l-6.8,6.8l-10.2,10.2L10.5,273.3z M27.5,297.2l17,16.8l-17,17
	l-17-16.8L27.5,297.2z"/>
</svg>
