<?xml version="1.0" encoding="utf-8"?>
<!-- Generator: Adobe Illustrator 21.0.0, SVG Export Plug-In . SVG Version: 6.00 Build 0)  -->
<svg version="1.1" id="Layer_1" xmlns="http://www.w3.org/2000/svg" xmlns:xlink="http://www.w3.org/1999/xlink" x="0px" y="0px"
	 viewBox="0 0 118.5 147.3" style="enable-background:new 0 0 118.5 147.3;" xml:space="preserve">
<g>
	<path d="M94.7,142c-30.5,15-49.6-4.2-73.6-28.4c-4.6-4.6-9.2-9.3-14.3-14.2c-5.2-4.9-9.7-9.2-4.6-15.2c5.3-6.3,14.7-7,21-1.6
		l4.2,3.6L4.9,40c-2-4-1.6-8.8,1-12.4c2.7-3.8,7.2-5.8,12.3-5.1c3.5,0.4,6.6,2.6,8.3,6L40,56c0.2-0.3,0.4-0.6,0.6-0.8
		c2.7-3.8,7.2-5.8,12.3-5.1c2.7,0.3,5.3,1.7,7,3.9c0.3-0.6,0.7-1.1,1.1-1.6c2.8-3.5,7.1-5.3,11.9-4.7c2.5,0.2,4.7,1.4,6.4,3.2
		c1.1-1.6,2.6-2.9,4.4-3.7c5-2.2,11,0,13.6,5c0.7,1.5,16,31.3,17,33.4C124.4,106.4,115.7,131.7,94.7,142z M9.5,85.5
		c-1.1,0.5-2.2,1.3-3,2.3c-1.5,1.7-1.7,2,4.2,7.6c5.1,4.8,9.9,9.6,14.4,14.2c23.4,23.6,40.3,40.6,67.3,27.4
		c18.2-8.9,25.8-31,16.9-49.2c-1-2.1-16.8-33-17-33.3l0,0c-1.2-2.4-4.1-3.6-6.4-2.6c-1.2,0.6-2.1,1.5-2.6,2.7
		c-0.4,1.2-0.3,2.5,0.2,3.7l2.6,5.3c0.7,1.3,0.2,3-1.3,3.7c-1.4,0.7-3,0.2-3.7-1.3l-5-10.1c-0.8-1.6-2.3-2.7-4-2.9
		c-2.9-0.3-5.4,0.6-7,2.6c-1.4,1.8-1.8,4.3-1,6.5c0.2,0.4,2,4.1,2.3,4.8l0,0c0.7,1.3,0.2,3-1.3,3.7s-3,0.2-3.7-1.3l-5.4-11
		c-0.8-1.6-2.3-2.7-4-2.9c-3-0.3-5.6,0.8-7.2,2.8c-1.4,2-1.6,4.7-0.5,6.8l2.7,5.6c0.7,1.3,0.2,3-1.3,3.7c-1.4,0.7-3,0.2-3.7-1.3
		L21.3,30.8c-0.8-1.6-2.3-2.7-4-2.9c-3-0.3-5.7,0.7-7.2,2.8c-1.4,2-1.6,4.7-0.5,6.8l28.5,58.2c0.6,1.2,0.2,2.6-0.8,3.4
		c-1,0.8-2.5,0.8-3.5-0.1L19.5,86.9C16.8,84.3,12.7,83.9,9.5,85.5z M97.2,52.1L97.2,52.1L97.2,52.1z"/>
</g>
<path d="M90.3,17.5c-7.2-3.5-14.9-5.6-22.8-6.3c-6.9-0.6-13.7,0-20.4,1.7L51.7,5c0.8-1.4,0.3-3.3-1.1-4.1c-1.4-0.8-3.3-0.3-4.1,1.1
	l-8.7,15.1c-0.8,1.4-0.4,3.1,1,4l14.6,9.6c0.5,0.3,1.1,0.5,1.6,0.5c1,0,1.9-0.5,2.5-1.4c0.9-1.4,0.5-3.2-0.9-4.2l-9.9-6.5
	c6.6-1.9,13.4-2.6,20.3-2c7.2,0.6,14.2,2.5,20.7,5.7c0.4,0.2,0.9,0.3,1.3,0.3c1.1,0,2.2-0.6,2.7-1.7C92.5,20,91.8,18.2,90.3,17.5z"
	/>
</svg>
