<?xml version="1.0" encoding="utf-8"?>
<!-- Generator: Adobe Illustrator 22.1.0, SVG Export Plug-In . SVG Version: 6.00 Build 0)  -->
<svg version="1.1" id="Layer_1" xmlns="http://www.w3.org/2000/svg" xmlns:xlink="http://www.w3.org/1999/xlink" x="0px" y="0px"
	 viewBox="0 0 410.6 214.1" style="enable-background:new 0 0 410.6 214.1;" xml:space="preserve">
<style type="text/css">
	.st0{fill:#CCB79E;}
	.st1{fill:#E5CEAC;}
</style>
<g>
	<path class="st0" d="M3.6,8L8,16.1c1,1.8,3.6,1.9,4.7,0.2l4.2-6.3c1.3-2,4.5-1.4,5,0.9l4.5,20.9c0.5,2.5,3.9,3,5.1,0.7l11.8-22
		c1.1-2.1,4.2-1.9,5,0.3l3.6,9.7c0.8,2.2,3.8,2.4,5,0.4l8.7-15.5c1-1.9,3.7-1.9,4.8,0l4.6,8.3c1.2,2.2,4.6,1.7,5.1-0.8
		c0.6-2.9,4.6-3,5.4-0.1l4.4,17.4c0.6,2.2,3.5,2.8,4.9,1l15-19.8c1.2-1.6,3.6-1.4,4.6,0.3l8.2,15c0.9,1.7,3.3,1.9,4.5,0.4L139.8,12
		c1.7-2,4.7-1.9,6.3,0.1l4.1,5.1c0.8,1,2.1,1.3,3.2,0.8l8.6-3.5c1.5-0.6,3.3,0.2,3.7,1.9l3.8,15c0.6,2.3,3.6,2.8,4.9,0.9l11.2-16
		c1.2-1.7,3.9-1.5,4.8,0.4l7.1,15.7c0.9,1.9,3.5,2.2,4.7,0.5l9.9-13.9c1.3-1.8,3.7-1.4,4.6,0.2l0.3-2.2c0.4-2.9-3.3-4.3-5-2
		l-9.9,13.9c-1.2,1.7-3.9,1.5-4.7-0.5l-7.1-15.7c-0.9-1.9-3.5-2.2-4.8-0.4l-11.2,16c-1.3,1.9-4.3,1.4-4.9-0.9l-3.8-15
		c-0.4-1.6-2.2-2.5-3.7-1.9l-8.6,3.5c-1.1,0.5-2.4,0.1-3.2-0.8l-4.1-5.1c-1.6-2-4.6-2-6.3-0.1l-12.8,15.1c-1.2,1.5-3.6,1.2-4.5-0.4
		l-8.2-15c-1-1.7-3.4-1.9-4.6-0.3l-15,19.8c-1.4,1.8-4.3,1.2-4.9-1L85.5,8.7c-0.7-2.8-4.8-2.7-5.4,0.1c-0.5,2.5-3.8,3-5.1,0.8
		l-4.6-8.3c-1-1.9-3.7-1.9-4.8,0l-8.7,15.5c-1.1,2-4.2,1.8-5-0.4l-3.6-9.7c-0.8-2.2-3.9-2.4-5-0.3l-11.8,22
		c-1.2,2.3-4.6,1.8-5.1-0.7L21.9,7c-0.5-2.4-3.6-3-5-0.9l-4.2,6.3C11.6,14.1,9,13.9,8,12.1L3.6,4C2.6,2.2,1.2,0.8,0,2.5v4
		C1.2,4.8,2.6,6.2,3.6,8z"/>
	<path class="st0" d="M390.6,26.2c-1.2,1.5-3.6,1.2-4.5-0.4l-8.2-15c-1-1.7-3.4-1.9-4.6-0.3l-15,19.8c-1.4,1.8-4.3,1.2-4.9-1
		L349,11.9c-0.7-2.8-4.8-2.7-5.4,0.1c-0.5,2.5-3.8,3-5.1,0.8l-4.6-8.3c-1-1.9-3.7-1.9-4.8,0l-8.7,15.5c-1.1,2-4.2,1.8-5-0.4
		l-3.6-9.7c-0.8-2.2-3.9-2.4-5-0.3l-11.8,22c-1.2,2.3-4.6,1.8-5.1-0.7l-4.5-20.9c-0.5-2.4-3.6-3-5-0.9l-4.2,6.3
		c-1.1,1.7-3.7,1.6-4.7-0.2l-4.4-8.2c-1-1.8-3.5-1.9-4.6-0.3l-3.4,4.7c-1.3,1.8-4.2,1.4-4.9-0.8L253,7c-0.7-2.4-4-2.6-5.1-0.4
		l-4.2,8.8c-1.1,2.4-4.7,1.9-5.2-0.7l-0.9-5.2c-0.4-2.3-3.3-3.1-4.8-1.3l-11.3,13.3c-1.3,1.6-3.6,1.1-4.5-0.4l-0.3,2.2
		c-0.4,2.7,3,4.3,4.8,2.2l11.3-13.3c1.5-1.8,4.4-1,4.8,1.3l0.9,5.2c0.5,2.6,4,3.1,5.2,0.7l4.2-8.8c1.1-2.3,4.4-2,5.1,0.4l1.2,3.7
		c0.7,2.2,3.5,2.6,4.9,0.8l3.4-4.7c1.2-1.6,3.7-1.5,4.6,0.3l4.4,8.2c1,1.8,3.6,1.9,4.7,0.2l4.2-6.3c1.3-2,4.5-1.4,5,0.9l4.5,20.9
		c0.5,2.5,3.9,3,5.1,0.7l11.8-22c1.1-2.1,4.2-1.9,5,0.3l3.6,9.7c0.8,2.2,3.8,2.4,5,0.4l8.7-15.5c1-1.9,3.7-1.9,4.8,0l4.6,8.3
		c1.2,2.2,4.6,1.7,5.1-0.8c0.6-2.9,4.6-3,5.4-0.1l4.4,17.4c0.6,2.2,3.5,2.8,4.9,1l15-19.8c1.2-1.6,3.6-1.4,4.6,0.3l8.2,15
		c0.9,1.7,3.3,1.9,4.5,0.4l20.1-23.7V3.7V2.5L390.6,26.2z"/>
	<path class="st0" d="M217.1,21.2l0-0.2c0.1-0.7,0-1.3-0.3-1.8l0,0.2C216.6,20.1,216.8,20.7,217.1,21.2z"/>
	<path class="st1" d="M390.6,30.2c-1.2,1.5-3.6,1.2-4.5-0.4l-8.2-15c-1-1.7-3.4-1.9-4.6-0.3l-15,19.8c-1.4,1.8-4.3,1.2-4.9-1
		L349,15.9c-0.7-2.8-4.8-2.7-5.4,0.1c-0.5,2.5-3.8,3-5.1,0.8l-4.6-8.3c-1-1.9-3.7-1.9-4.8,0l-8.7,15.5c-1.1,2-4.2,1.8-5-0.4
		l-3.6-9.7c-0.8-2.2-3.9-2.4-5-0.3l-11.8,22c-1.2,2.3-4.6,1.8-5.1-0.7l-4.5-20.9c-0.5-2.4-3.6-3-5-0.9l-4.2,6.3
		c-1.1,1.7-3.7,1.6-4.7-0.2l-4.4-8.2c-1-1.8-3.5-1.9-4.6-0.3l-3.4,4.7c-1.3,1.8-4.2,1.4-4.9-0.8L253,11c-0.7-2.4-4-2.6-5.1-0.4
		l-4.2,8.8c-1.1,2.4-4.7,1.9-5.2-0.7l-0.9-5.2c-0.4-2.3-3.3-3.1-4.8-1.3l-11.3,13.3c-1.8,2.1-5.2,0.6-4.8-2.2l0.3-2.2
		c-0.3-0.5-0.4-1.1-0.3-1.8l0-0.2c-0.9-1.6-3.4-2-4.6-0.2l-9.9,13.9c-1.2,1.7-3.9,1.5-4.7-0.5l-7.1-15.7c-0.9-1.9-3.5-2.2-4.8-0.4
		l-11.2,16c-1.3,1.9-4.3,1.4-4.9-0.9l-3.8-15c-0.4-1.6-2.2-2.5-3.7-1.9l-8.6,3.5c-1.1,0.5-2.4,0.1-3.2-0.8l-4.1-5.1
		c-1.6-2-4.6-2-6.3-0.1l-12.8,15.1c-1.2,1.5-3.6,1.2-4.5-0.4l-8.2-15c-1-1.7-3.4-1.9-4.6-0.3l-15,19.8c-1.4,1.8-4.3,1.2-4.9-1
		l-4.4-17.4c-0.7-2.8-4.8-2.7-5.4,0.1c-0.5,2.5-3.8,3-5.1,0.8l-4.6-8.3c-1-1.9-3.7-1.9-4.8,0l-8.7,15.5c-1.1,2-4.2,1.8-5-0.4
		l-3.6-9.7c-0.8-2.2-3.9-2.4-5-0.3l-11.8,22c-1.2,2.3-4.6,1.8-5.1-0.7L21.9,11c-0.5-2.4-3.6-3-5-0.9l-4.2,6.3
		C11.6,18.1,9,17.9,8,16.1L3.6,8C2.6,6.2,1.2,4.8,0,6.5V157v57.1h410.6V157V7.7V6.5L390.6,30.2z"/>
</g>
</svg>
