<?xml version="1.0" encoding="utf-8"?>
<!-- Generator: Adobe Illustrator 22.1.0, SVG Export Plug-In . SVG Version: 6.00 Build 0)  -->
<svg version="1.0" id="Layer_1" xmlns="http://www.w3.org/2000/svg" xmlns:xlink="http://www.w3.org/1999/xlink" x="0px" y="0px"
	 viewBox="0 0 417.8 629.3" style="enable-background:new 0 0 417.8 629.3;" xml:space="preserve">
<style type="text/css">
	.st0{fill:#AF7643;}
	.st1{fill:none;}
	.st2{fill:#A06D42;}
	.st3{fill:#91613D;}
	.st4{opacity:0.71;fill:#91613D;}
</style>
<rect x="0" class="st0" width="417.8" height="629.3"/>
<g>
	<path class="st1" d="M388,592c-4.3,1.4-65.7-7.2-67.8-8c-4.8-1.8,35.8-4.3,64-1.1c11.3,1.3,22.6,2.8,33.6,4.3v-21.9
		c-22.8-3.2-66.1-10.3-99.1-15.8c0.8,0.2,1.6,0.4,2.4,0.6c14.7,3.1,23.5,5.5,22.1,5.3c-1-0.2-9.9-2.3-22.1-5.3
		c-1.4-0.3-2.9-0.6-4.4-0.9c-24-4-42.1-7.1-42.1-7.1s1.3,0.1,3.5,0.2c-13.8-2.1-28.6-3.9-43.2-4.8c-19.5-1.3-39.5-7.8-51.6-11
		c-7.5-0.4-12.3-0.8-10.9-1.5c1.5-0.7,5.4,0,10.9,1.5c18.7,0.9,54.5,1.2,57.3,2.7c2,1.1,27.6,7.7,52.7,14
		c29.4,1.7,86.9,5.2,124.6,7.9v-28.6c-9.3-0.4-18.7-0.7-28.1-0.8c-19.6-0.2-40-3.9-52.4-5.7c-7.5,0-12.3-0.1-11-0.6
		c1.4-0.6,5.4-0.2,11,0.6c18.7-0.1,54.5-1.3,57.4-0.3c1.2,0.4,10.5,1.8,23.1,3.5v-22.3c-47.1-2.6-90-6.9-86.9-7
		c2.7,0,57.8,1.6,86.9,2V487c-0.7-0.1-1.4-0.2-2.1-0.3c-21.3-2.3-54.8-5.2-87.1-5.5c-19.6-0.2-40-3.9-52.4-5.7
		c-7.5,0-12.3-0.1-11-0.6c1.4-0.6,5.4-0.2,11,0.6c18.7-0.1,54.5-1.3,57.4-0.3c2.9,0.9,52.2,7.6,82.1,11.5c0.7,0.1,1.4,0.2,2.1,0.2
		V481c-15-1.3-24.1-2.3-22.6-2.3c4.9,0.2,12.9,0.5,22.6,0.8v-5c-32.8-1.4-59.1-13.2-76-18.4c-13.1-4-56.7-3.9-79-3.3
		c-4.9,0.5-8.8,0.8-11.4,0.7c-5.1-0.1,0.7-0.5,11.4-0.7c25.3-2.5,76.1-9.7,89.6,1.5c11.1,9.3,45.4,15.3,65.4,18.2v-6.3
		c-9.1-1.8-17.4-4.7-24.1-9.3c-17.2-11.7-2.1-18.3,24.1-20v-7.5c-21.5-0.2-41,0.5-44.8,3.5c-7.8,6-18.9-8.7,44.8-7v-12.7
		c-16-2.6-35.3-6-58.3-10.6c-5.1-1,25.2,3.8,58.3,8.4v-9.9c-34.6-2.6-62.8-6.1-61.1-8c4-4.5,42.2-7,61.1-9.1v-13.5
		c-26.6,2.3-61.9,4.6-72.5-4.6c-15.6-13.7-76.8-18.8-76.8-18.8c39.8-1.6,68.3,10.9,87.5,17.2c10.1,3.3,39.1,4.5,61.8,4.7v-10.4
		c-17.3-0.6-59.4-3.8-61.1-4.3c-4.7-1.2,32.9-3.6,61.1-2.2V346c-19.4-0.1-50.3,0.2-53-0.7c-2.9-1-51.9-8.5-81.7-13
		c-14.9-1.9-23.8-3.4-22.4-3.2c1,0.1,10,1.4,22.4,3.2c21.3,2.7,54.6,6.2,86.9,7.1c17.4,0.5,35.3,3.8,47.8,5.9v-12.1
		c-10.5-0.8-18.5-1.5-18.5-1.5s7.6-0.1,18.5-0.1v-7.5c-20-1-38.4-2.5-49.7-4.5c0,0,22.2-1.8,49.7-2.9v-13.5
		c-21.1-4.5-53.8-10.4-85.7-12.5c-19.5-1.3-39.5-7.8-51.6-11c-7.5-0.4-12.3-0.8-10.9-1.5c1.5-0.7,5.4,0,10.9,1.5
		c18.7,0.9,54.5,1.2,57.3,2.7c2.8,1.5,50.7,13.6,80.1,20.8v-8.4c-12.9-2.4-20.4-4-19.1-3.9c4.2,0.5,11,1.2,19.1,2v-7.4
		c-30.6-4.8-54.2-21.9-69.8-29.9c-11.3-5.8-47.8-6.5-71.5-5.9c-8.7,1.2-15.7,2.1-19.4,1.8c-6.2-0.5,3.9-1.4,19.4-1.8
		c27.3-3.8,71.2-11.1,82.3,4c9.4,12.9,39.1,22.9,59,28.4v-9.6c-6.9-3-13.1-7.1-18.1-12.7c-14.1-15.7-3.1-24.2,18.1-26.6v-20
		c-18.4-1.5-39.8-2.7-60.7-2.9c-20.1-0.2-41.1-3.9-53.8-5.7c-7.7,0-12.6-0.1-11.3-0.6c1.4-0.6,5.5-0.2,11.3,0.6
		c19.2-0.1,55.9-1.3,58.9-0.3c2.2,0.7,29.1,4.3,55.5,7.8v-25.4c-3.1,0-6.1,0-9.2-0.1c-56.2-2.2-115.5-7.9-111.8-8
		c3.6-0.1,102.9,2.9,107.2,1.8c1.1-0.3,6.5-0.1,13.8,0.3v-8.4c-32.9-2.4-57.4-4.9-55-4.8c9.8,0.3,32.4,1.1,55,1.8v-12.1
		c-21.5,0.6-42.4-2.1-56.5-11.4c-23.9-15.9,13-22.3,56.5-20.1V119c-30.8-0.9-72-1.5-77.7,2.8c-9.1,6.9-22.6-13.2,77.7-5.2v-10.1
		c-14.8-1.7-34-4.5-58.7-8.8c-34.7-0.6-62.5-13.1-80.1-18.5c-13.1-4-56.7-3.9-79-3.3c-4.9,0.5-8.8,0.8-11.4,0.7
		c-5.1-0.1,0.7-0.5,11.4-0.7c25.3-2.5,76.1-9.7,89.6,1.5c16.1,13.4,80.2,20.1,80.2,20.1c-0.5,0-1,0-1.5,0.1
		c15.7,2.2,33.4,4.7,49.4,6.6V92c-48.1-2.3-96.7-7.5-94.5-9.9c4.4-4.7,47.6-7.3,65.6-9.5c10.3-1.3,20-2.3,28.9-3V47.7
		c-13.3-0.4-23.2-0.7-24.6-0.3c-4.4,1.1-67.8-3.7-70-4.2c-5-1.2,36.5-3.7,65.6-2.1c9.7,0.5,19.4,1.2,28.9,1.9V24.2
		C397,23,367,20.6,367,20.6s25.5-0.3,50.8,0.1v-6.6c-31.1-0.6-65.3-2.5-82.9-5.5c0,0,42.2-3.4,82.9-3.6V0.7H0V5
		c22.1-0.1,43.7,0.7,57.8,3.6C81.2,13.3,43.7,15,0,14.1v6.6c10.5,0.2,20.9,0.5,29.4,0.9c56.1,3.2,100.6,6.8,96.9,6.8
		c-3.6,0-102.8-4.7-107.2-3.7c-1.4,0.3-9.2,0-19.2-0.6V43c45.7,3.4,85.6,8.1,82.6,8.1c-2.5,0-51.7-2.3-82.6-3.3v21.9
		c58.7-5,88.3,0.6,92.1,15.6C94.2,93.8,47.3,94.2,0,92v12.2c24.3,3,44.3,4.9,46.2,3.1c3.7-3.5,10.6,5.7-46.2-0.8v10.1
		c9.9,0.8,20.8,1.8,33,3.2c6.2,0.7-10.6-0.2-33-0.9v6.7c31.3,1.6,66.1,7.5,84.1,17.6c0,0-43,12.8-84.1,13.9v12.1
		c38.9,1.1,77.9,2,52.2,0c-3.3-0.3,36,2.4,57.2,3.2c6.7-0.6,11.3-0.9,12.9-0.2c1.3,0.6-4.3,0.6-12.9,0.2c-12.9,1.2-33.4,3.8-52.7,3
		c-19.5-0.7-39.3-2-56.8-3.2v8.4c13.2,0.7,32.7,2.1,45,2.8c5.9-0.5,10-0.7,11.3-0.1c1.3,0.6-3.6,0.5-11.3,0.1
		c-10.9,1-27.8,3.1-45,3.3v25.4c10.1,1.3,20.2,2.6,28.7,3.7c15.3,1.6,24.5,2.9,23.1,2.8c-1.1-0.1-10.4-1.2-23.1-2.8
		c-8.1-0.9-17.9-1.8-28.7-2.6v20c34.1-3.9,94.7,8,118.9,30.6c0,0-74.8,27.6-118.9,8.6v9.6c10.9,3,18.8,4.7,18.8,4.7
		C12.3,287,6,286.6,0,285.6v7.4c41.1,4.3,117.7,11.8,85,6.3c-3.2-0.5,34.8,5.3,55.3,7.6c6.5-0.5,11.1-0.7,12.5,0.4
		c1.2,0.9-4.3,0.6-12.5-0.4c-12.7,1-32.9,3.6-51.5,1.5c-33.5-3.8-68-9.7-88.8-13.5v8.4c0.2,0,0.3,0.1,0.5,0.1
		c14.7,3.1,23.5,5.5,22.1,5.3c-1-0.2-9.9-2.3-22.1-5.3c-0.2,0-0.3-0.1-0.5-0.1v13.5c30.3-1.2,66.9-1.4,87.3,2.9
		c28.3,5.9-34.8,7-87.3,4.5v7.5c17.1,0,42.3,0.2,59.6,1.2c54.7,3.2,98,6.8,94.5,6.8c-3.6,0-100.2-4.7-104.4-3.7
		c-2.8,0.7-30.5-1.3-49.7-2.7v12.1c1.6,0.3,3.1,0.5,4.4,0.7c7.5,0.1,12.3,0.3,11,0.8c-1.4,0.5-5.4,0.1-11-0.8c-1.4,0-2.9,0-4.4,0
		v6.1c1,0,1.9,0.1,2.8,0.1c54.7,3.2,96.1,14,92.6,14c-3.6,0-84-8.7-88.3-7.7c-0.8,0.2-3.3,0.2-7.1,0.1V369c6.3,0.1,12.2,0.1,17,0
		c4.9-0.4,8.9-0.6,11.4-0.5c5.1,0.2-0.7,0.5-11.4,0.5c-4.9,0.4-10.7,0.9-17,1.5v13.5c1-0.1,1.9-0.2,2.8-0.3
		c76-9.5,113.7-4.7,117.9,12.6c2.6,10.5-66.9,8.8-120.7,4.8v9.9c35.1,4.9,73.4,9.8,76,7.3c4.2-4,12.5,8.9-76-5.2V426
		c16,0.4,36.6,1.9,63.2,5c8.8,1-29.6-1.3-63.2-1.5v7.5c34.7-2.3,89,3.8,113,17.6c0,0-67.4,20.7-113,11.8v6.3
		c8.8,1.3,14.9,1.9,14.9,1.9c-5.1,0.3-10.1,0.3-14.9,0.1v5c42,1.4,114.1,3.5,81.9,1c-3.2-0.3,35.1,2.4,55.8,3.2
		c6.5-0.6,11.1-0.9,12.5-0.2c1.2,0.6-4.2,0.6-12.5,0.2c-12.6,1.2-32.5,3.8-51.3,3c-32.1-1.3-65.1-3.8-86.3-5.7v5.9
		c13.7,1.5,21.7,2.7,20.4,2.6c-1-0.1-9.1-1.1-20.4-2.6v4.9c9.7,0.1,16.5,0.1,17.6-0.2c3-0.8,38.6,2.1,57.3,3.1
		c5.7-0.5,9.7-0.7,11.1-0.1c1.2,0.6-3.5,0.5-11.1,0.1c-12.5,1.2-33.3,3.9-52.8,3.2c-7.4-0.3-14.8-0.6-22.1-1v22.3
		c17.6,2.5,41.6,5.7,59,7.9c14.9,1.6,23.9,2.9,22.5,2.8c-1-0.1-10.1-1.2-22.5-2.8c-15.1-1.6-36.4-3.6-59-4.7v28.6
		c14.1,1,25.5,1.9,31.5,2.6c54.4,6.1,90.7,15.8,87.1,15.7s-99.7-9.7-104.1-8.3c-0.8,0.2-6.2-0.2-14.5-1.1v27.2
		c41.8,6,77.1,13.2,74.3,13.1c-2.3-0.1-44.3-4.2-74.3-6.7v35.6h417.8v-35.6C401.9,592.4,389.5,591.5,388,592z M339.4,533.6
		c-39.9,1.1-69.9-21.5-88.6-31.1c-12.6-6.4-56.2-8.7-78.4-9.1c-4.9,0.4-8.9,0.6-11.4,0.4c-5.1-0.4,0.7-0.6,11.4-0.4
		c25.5-2.1,77-9.5,89.2,7.2C276.1,520.5,339.4,533.6,339.4,533.6z M136.4,429.4c-39.3-7.4,95.6-8.9,137.1-2.5
		C273.4,426.9,175.7,436.8,136.4,429.4z M380.4,415.5c-1-0.1-10.1-1.2-22.5-2.8c-21.3-2.3-54.8-5.2-87.1-5.5
		c-19.6-0.2-40-3.9-52.4-5.7c-7.5,0-12.3-0.1-11-0.6c1.4-0.6,5.4-0.2,11,0.6c18.7-0.1,54.5-1.3,57.4-0.3c2.9,0.9,52.2,7.6,82.1,11.5
		C372.8,414.3,381.8,415.6,380.4,415.5z M374.9,400.4c-39.7,2.3-71.5-12.4-90.8-18.3c-13.1-4-56.7-3.9-79-3.3
		c-4.9,0.5-8.8,0.8-11.4,0.7c-5.1-0.1,0.7-0.5,11.4-0.7c25.3-2.5,76.1-9.7,89.6,1.5C310.7,393.7,374.9,400.4,374.9,400.4z
		 M368,330.7c-3.6,0-100.2-4.7-104.4-3.7c-3,0.7-38.5-2.8-57.1-4.1c-5.7,0.4-9.7,0.5-11.1-0.1c-1.2-0.6,3.5-0.4,11.1,0.1
		c12.5-0.9,33.4-3.3,52.9-2.2C314,323.9,371.6,330.7,368,330.7z M301.1,266.9c3.6,0.1-54.2,5.8-109,8c-19.5,0.8-40.3-2-52.8-3.2
		c-7.5,0.4-12.3,0.5-11.1-0.1c1.4-0.6,5.3-0.4,11.1,0.1c18.7-1,54.2-3.9,57.3-3.1C200.8,269.8,297.5,266.8,301.1,266.9z
		 M369.1,229.8c10.7,0.3,16.5,0.7,11.4,0.7C377.9,230.6,373.9,230.3,369.1,229.8c-22.2-0.6-65.9-0.7-79,3.3
		c-19.4,6-51.1,20.6-90.8,18.3c0,0,64.2-6.7,80.2-20.1C293,220.1,343.7,227.3,369.1,229.8z M258.9,209.9c-9.7-7.5-122.4-0.3-107.9-2
		C283.6,192.5,268.6,217.5,258.9,209.9z M297.1,189.7c0,0-100.3,9.9-140.6,2.5C116.1,184.8,254.6,183.3,297.1,189.7z M130.3,150.2
		c3.6-0.1,102.9,2.9,107.2,1.8c4.3-1.1,67.9,2.5,70.1,3c5,1.1-36.3,4.4-65.5,3.3C185.9,156,126.6,150.2,130.3,150.2z M406.8,178.4
		c-1.1-0.1-10.4-1.2-23.1-2.8c-21.9-2.3-56.2-5.2-89.4-5.5c-20.1-0.2-41.1-3.9-53.8-5.7c-7.7,0-12.6-0.1-11.3-0.6
		c1.4-0.6,5.5-0.2,11.3,0.6c19.2-0.1,55.9-1.3,58.9-0.3c3,0.9,53.6,7.6,84.2,11.5C399.1,177.2,408.3,178.5,406.8,178.4z
		 M401.2,163.3c-40.8,2.3-73.3-12.4-93.2-18.3c-13.4-4-58.2-3.9-81-3.3c-5,0.5-9.1,0.8-11.7,0.7c-5.2-0.1,0.7-0.5,11.7-0.7
		c26-2.5,78.1-9.7,91.9,1.5C335.4,156.5,401.2,163.3,401.2,163.3z M375.4,112.5c-1-0.1-10.1-1.2-22.5-2.8
		c-21.3-2.3-54.8-5.2-87.1-5.5c-19.6-0.2-40-3.9-52.4-5.7c-7.5,0-12.3-0.1-11-0.6c1.4-0.6,5.4-0.2,11,0.6
		c18.7-0.1,54.5-1.3,57.4-0.3c2.9,0.9,52.2,7.6,82.1,11.5C367.8,111.3,376.8,112.6,375.4,112.5z M390.5,34.9
		c7.7,0.1,12.6,0.3,11.3,0.8C400.3,36.3,396.3,35.8,390.5,34.9c-19.2-0.2-55.9,0.3-58.9-0.7c-4.2-1.4-108.8-9.4-112.4-9.7
		c-3.6-0.3,61.5,2.3,117.7,3.8C357,28.8,377.9,32.9,390.5,34.9z M169.1,11.8c12.9-0.9,34.2-3.3,54.3-2.2c56.1,3.2,115.2,10,111.5,10
		s-102.8-4.7-107.2-3.7C224.6,16.6,188.2,13.1,169.1,11.8c-5.9,0.4-10,0.5-11.3-0.1C156.5,11.1,161.4,11.3,169.1,11.8z M274.2,40.8
		c10.6,1.9-129.9-18.1-134.7-13.3C134.7,32.3,123.4,13.6,274.2,40.8z M95.5,50.4c-4.8-17.2,186-4.9,181.9-0.1
		c-4.1,4.8-46.1,8.1-63.6,10.6C138.1,71.7,100.3,67.6,95.5,50.4z M105.8,84.3c3.6-0.1,100.3,2.9,104.5,1.8c4.2-1.1,66.2,2.5,68.3,3
		c4.9,1.1-35.4,4.4-63.8,3.3C160,90.2,102.3,84.4,105.8,84.3z M119.6,116.2c-5-17.2,190.9-4.9,186.7-0.1
		c-4.2,4.8-47.3,8.1-65.3,10.6C163.4,137.5,124.6,133.5,119.6,116.2z M101.1,231.5c42-24.1,177-24.8,137.1,2.5
		C198.2,261.3,101.1,231.5,101.1,231.5z M128,293.4c14.1-1.3,105.1,0.6,109.2-0.7c2.9-0.9,38.7,0.2,57.4,0.3c5.7-0.8,9.6-1.2,11-0.6
		c1.3,0.5-3.5,0.7-11,0.6c-12.4,1.8-32.8,5.5-52.4,5.7C187.4,299.1,124.5,293.7,128,293.4z M130.1,328.7c-6.5,1.9-1.7-12,149.1,15.2
		C289.8,345.7,141,325.5,130.1,328.7z M100.5,353.4c-4.8-17.2,186-4.9,181.9-0.1c-4.1,4.8-46.1,8.1-63.6,10.6
		C143.1,374.7,105.3,370.6,100.5,353.4z M113,377.6c13.6,0,98.1,12.6,102.4,11.5c4.2-1.1,66.2,2.5,68.3,3c4.9,1.1-35.4,4.4-63.8,3.3
		C165,393.2,109.4,377.6,113,377.6z M69,410.7c3.6-0.1,100.3,2.9,104.5,1.8s68.3,3,68.3,3s-49.7,1.5-78.1,0.4
		C108.9,413.6,65.4,410.7,69,410.7z M132.2,457.7c-7.5,0.7-12.3,0.9-11.1,0.3C122.5,457.4,126.5,457.4,132.2,457.7
		c18.6-1.6,53.9-5.8,57-5.1c3,0.7,53,3.2,83.3,4.6c15.1,0.4,24.2,0.9,22.8,0.9c-1,0-10.2-0.4-22.8-0.9c-21.6-0.5-55.2-0.6-87.4,1.8
		C165.7,460.5,144.8,458.5,132.2,457.7z M77.4,500.4c3.5,0.1,99.7,9.7,104.1,8.3s65.7,7.2,67.8,8c4.8,1.8-35.8,4.3-64,1.1
		C130.8,511.7,73.9,500.3,77.4,500.4z M33.1,531.3c3.5,0.1,99.7,9.7,104.1,8.3c4.3-1.4,157.8,19,157.8,19s-146.5-8.4-174.7-11.6
		C65.8,540.9,29.5,531.2,33.1,531.3z M130,590c0,0,100.1-37,137,4.1C303.9,635.1,169.3,626.7,130,590z M397.1,607.3
		c-25.5,2.1-77,9.5-89.2-7.2c-14.6-19.9-77.8-33-77.8-33c39.9-1.1,69.9,21.5,88.6,31.1C331.3,604.6,374.8,606.9,397.1,607.3
		c4.9-0.4,8.9-0.6,11.4-0.4C413.6,607.2,407.8,607.5,397.1,607.3z"/>
	<path class="st2" d="M417.8,324.2v-3.1c-4.2-0.4-7.9-0.8-10.7-1.3c0,0,4.2-0.3,10.7-0.7v-2.2c-27.5,1.1-49.7,2.9-49.7,2.9
		C379.4,321.7,397.8,323.2,417.8,324.2z"/>
	<path class="st3" d="M417.8,321.1v-2c-6.5,0.4-10.7,0.7-10.7,0.7C409.9,320.3,413.6,320.7,417.8,321.1z"/>
	<path class="st2" d="M268.4,347.1c0,0,61.2,5.1,76.8,18.8c10.6,9.2,45.9,6.9,72.5,4.6V369c-22.8-0.2-51.7-1.4-61.8-4.7
		C336.8,358,308.2,345.6,268.4,347.1z"/>
	<path class="st2" d="M417.8,401.2v-4.8c-15.5-1.6-26-3.3-25.1-4.3c1.9-2.1,13.3-4,25.1-5.3v-2.6c-18.9,2.1-57.1,4.6-61.1,9.1
		C355,395.1,383.1,398.6,417.8,401.2z"/>
	<path class="st3" d="M417.8,396.3v-9.6c-11.9,1.3-23.3,3.2-25.1,5.3C391.7,393.1,402.2,394.7,417.8,396.3z"/>
	<path class="st2" d="M359.5,402.7c23,4.6,42.2,8,58.3,10.6v-2.2C384.7,406.4,354.4,401.6,359.5,402.7z"/>
	<path class="st2" d="M356.6,354.3c1.8,0.4,43.8,3.7,61.1,4.3v-6.5C389.6,350.8,351.9,353.2,356.6,354.3z"/>
	<path class="st2" d="M283.1,332.4c-12.3-1.8-21.3-3.1-22.4-3.2C259.3,329,268.3,330.5,283.1,332.4z"/>
	<path class="st2" d="M283.1,332.4c29.7,4.4,78.8,12,81.7,13c2.7,0.9,33.6,0.6,53,0.7v-0.7c-12.4-2.1-30.4-5.4-47.8-5.9
		C337.7,338.6,304.4,335.1,283.1,332.4z"/>
	<path class="st2" d="M195.4,322.8c1.3,0.7,5.3,0.5,11.1,0.1C198.9,322.4,194.2,322.2,195.4,322.8z"/>
	<path class="st2" d="M206.5,322.9c18.6,1.3,54.1,4.8,57.1,4.1c4.3-1.1,100.9,3.7,104.4,3.7c3.6,0-54-6.8-108.7-10
		C239.8,319.6,219,322,206.5,322.9z"/>
	<path class="st2" d="M417.8,333.2v-1.6c-10.9,0-18.5,0.1-18.5,0.1S407.3,332.4,417.8,333.2z"/>
	<path class="st2" d="M399.7,259.9c5,5.6,11.2,9.7,18.1,12.7v-39.3C396.6,235.7,385.5,244.2,399.7,259.9z"/>
	<path class="st2" d="M358.8,253.8c-11.1-15.1-55-7.8-82.3-4c23.7-0.6,60.2,0.2,71.5,5.9c15.6,8,39.2,25.1,69.8,29.9v-3.4
		C397.9,276.7,368.2,266.7,358.8,253.8z"/>
	<path class="st2" d="M257,251.6c3.8,0.3,10.8-0.6,19.4-1.8C260.9,250.2,250.9,251.2,257,251.6z"/>
	<path class="st2" d="M417.8,294.9V293c-8.1-0.8-14.8-1.6-19.1-2C397.3,290.8,404.9,292.5,417.8,294.9z"/>
	<path class="st2" d="M280.4,279.8c12.1,3.2,32.1,9.7,51.6,11c31.9,2.2,64.7,8.1,85.7,12.5v0c-29.4-7.2-77.3-19.3-80.1-20.8
		C334.8,281,299,280.7,280.4,279.8z"/>
	<path class="st2" d="M269.4,278.3c-1.3,0.7,3.4,1.1,10.9,1.5C274.8,278.3,270.9,277.6,269.4,278.3z"/>
	<path class="st2" d="M130,590c39.2,36.7,173.9,45.1,137,4.1C230.1,553,130,590,130,590z M145.6,591.6c0,0,72.2-26.7,98.8,2.9
		C270.9,624.2,173.9,618.1,145.6,591.6z"/>
	<path class="st3" d="M145.6,591.6c28.3,26.4,125.4,32.5,98.8,2.9C217.7,565,145.6,591.6,145.6,591.6z"/>
	<path class="st2" d="M230.1,567.1c0,0,63.3,13.1,77.8,33c12.2,16.7,63.6,9.3,89.2,7.2c-22.2-0.4-65.8-2.6-78.4-9.1
		C300,588.6,269.9,566,230.1,567.1z"/>
	<path class="st2" d="M397.1,607.3c10.7,0.2,16.5,0,11.4-0.4C406,606.6,402,606.9,397.1,607.3z"/>
	<path class="st2" d="M320.1,584c2.1,0.8,63.5,9.4,67.8,8c1.5-0.5,14,0.4,29.8,1.7v-6.4c-10.9-1.6-22.3-3.1-33.6-4.3
		C355.9,579.7,315.4,582.2,320.1,584z"/>
	<path class="st2" d="M318.7,549.6c33,5.5,76.2,12.6,99.1,15.8v-14.3c-37.7-2.7-95.2-6.1-124.6-7.9
		C302.1,545.5,310.9,547.7,318.7,549.6z"/>
	<path class="st2" d="M274.5,542.1c0,0,18.1,3.1,42.1,7.1c-10.8-2.2-24.1-4.7-38.6-6.9C275.7,542.2,274.5,542.1,274.5,542.1z"/>
	<path class="st2" d="M393.7,457c6.7,4.6,14.9,7.5,24.1,9.3v-9.6c-0.5-0.3-1-0.6-1.5-1c-8.2-5.6-6.2-9.5,1.5-11.9v-6.9
		C391.6,438.7,376.5,445.3,393.7,457z"/>
	<path class="st2" d="M416.3,455.7c0.5,0.3,1,0.6,1.5,1v-12.9C410.1,446.2,408.1,450.2,416.3,455.7z"/>
	<path class="st4" d="M416.3,455.7c0.5,0.3,1,0.6,1.5,1v-12.9C410.1,446.2,408.1,450.2,416.3,455.7z"/>
	<path class="st2" d="M251.5,453.5c2.5,0,6.5-0.3,11.4-0.7C252.1,453.1,246.4,453.4,251.5,453.5z"/>
	<path class="st2" d="M262.8,452.8c22.2-0.6,65.9-0.7,79,3.3c16.9,5.2,43.2,17,76,18.4v-2c-20-2.9-54.2-8.9-65.4-18.2
		C338.9,443.1,288.1,450.3,262.8,452.8z"/>
	<path class="st2" d="M373,432.9c3.8-2.9,23.3-3.6,44.8-3.5V426C354.1,424.2,365.2,439,373,432.9z"/>
	<path class="st2" d="M417.8,481v-1.5c-9.7-0.3-17.8-0.6-22.6-0.8C393.7,478.7,402.7,479.7,417.8,481z"/>
	<path class="st2" d="M417.8,487L417.8,487c-0.7-0.1-1.4-0.2-2.1-0.3C416.4,486.8,417.1,486.9,417.8,487z"/>
	<path class="st2" d="M265.1,474.9c-1.3,0.5,3.5,0.7,11,0.6C270.5,474.7,266.5,474.3,265.1,474.9z"/>
	<path class="st2" d="M276.2,475.5c12.4,1.8,32.8,5.5,52.4,5.7c32.3,0.3,65.7,3.2,87.1,5.5c-29.9-3.9-79.2-10.6-82.1-11.5
		C330.6,474.3,294.9,475.4,276.2,475.5z"/>
	<path class="st2" d="M337.3,516c12.4,1.8,32.8,5.5,52.4,5.7c9.4,0.1,18.9,0.4,28.1,0.8v-3.3c-12.6-1.8-21.9-3.2-23.1-3.5
		C391.7,514.7,356,515.9,337.3,516z"/>
	<path class="st2" d="M326.2,515.3c-1.3,0.5,3.5,0.7,11,0.6C331.6,515.2,327.6,514.8,326.2,515.3z"/>
	<path class="st2" d="M330.8,489.9c-3.1,0.1,39.8,4.4,86.9,7v-5C388.6,491.5,333.5,489.9,330.8,489.9z"/>
	<path class="st2" d="M417.8,14.1v-2.6c-16.1-0.3-33.7-1.3-42.8-2.9c0,0,21.8-1.8,42.8-1.9V5c-40.6,0.2-82.9,3.6-82.9,3.6
		C352.5,11.6,386.7,13.5,417.8,14.1z"/>
	<path class="st3" d="M417.8,11.5V6.8c-21,0.1-42.8,1.9-42.8,1.9C384.1,10.2,401.7,11.2,417.8,11.5z"/>
	<path class="st2" d="M323.2,82c-2.2,2.4,46.4,7.6,94.5,9.9v-4.2c-31.2-2-59.1-5.2-57.6-6.8c3.3-3.6,35.6-6.6,49.3-7.3
		c2.9-0.1,5.6-0.3,8.3-0.4v-3.6c-9,0.8-18.6,1.8-28.9,3C370.8,74.8,327.6,77.3,323.2,82z"/>
	<path class="st3" d="M360.1,80.9c-1.5,1.6,26.4,4.9,57.6,6.8V73.2c-2.7,0.1-5.5,0.3-8.3,0.4C395.7,74.3,363.4,77.3,360.1,80.9z"/>
	<path class="st2" d="M359.1,97.6c24.7,4.4,43.8,7.1,58.7,8.8v-2.4c-16-2-33.7-4.4-49.4-6.6C365.2,97.6,362.1,97.7,359.1,97.6z"/>
	<path class="st2" d="M323.2,43.2c2.2,0.5,65.6,5.3,70,4.2c1.3-0.3,11.2-0.1,24.6,0.3V43c-9.5-0.7-19.3-1.4-28.9-1.9
		C359.7,39.5,318.2,42,323.2,43.2z"/>
	<path class="st2" d="M219.2,24.5c3.6,0.3,108.2,8.3,112.4,9.7c3,1,39.7,0.5,58.9,0.7c-12.6-2-33.5-6.1-53.6-6.6
		C280.7,26.8,215.6,24.2,219.2,24.5z"/>
	<path class="st2" d="M401.8,35.7c1.3-0.5-3.5-0.7-11.3-0.8C396.3,35.8,400.3,36.3,401.8,35.7z"/>
	<path class="st2" d="M227.7,15.9c4.4-1.1,103.5,3.7,107.2,3.7s-55.4-6.8-111.5-10c-20-1.1-41.4,1.3-54.3,2.2
		C188.2,13.1,224.6,16.6,227.7,15.9z"/>
	<path class="st2" d="M157.8,11.7c1.4,0.7,5.5,0.5,11.3,0.1C161.4,11.3,156.5,11.1,157.8,11.7z"/>
	<path class="st2" d="M367,20.6c0,0,30,2.4,50.8,3.6v-3.5C392.5,20.3,367,20.6,367,20.6z"/>
	<path class="st2" d="M361.2,145.8c14.1,9.4,35,12,56.5,11.4v-4.4c-12.8-0.3-24.8-2.6-33.3-8.3c-15.8-10.5,5.4-15.3,33.3-14.8v-4.1
		C374.2,123.5,337.4,129.9,361.2,145.8z"/>
	<path class="st3" d="M384.4,144.6c8.5,5.7,20.5,7.9,33.3,8.3v-23C389.8,129.3,368.6,134.1,384.4,144.6z"/>
	<path class="st2" d="M156.5,192.2c40.4,7.4,140.6-2.5,140.6-2.5C254.6,183.3,116.1,184.8,156.5,192.2z M257,190.4
		c0,0-52,5.1-72.9,1.3S235,187,257,190.4z"/>
	<path class="st3" d="M184.1,191.7c20.9,3.8,72.9-1.3,72.9-1.3C235,187,163.2,187.8,184.1,191.7z"/>
	<path class="st2" d="M227,141.6c22.8-0.6,67.6-0.7,81,3.3c19.9,6,52.5,20.6,93.2,18.3c0,0-65.9-6.7-82.3-20.1
		C305,132,252.9,139.1,227,141.6z"/>
	<path class="st2" d="M215.3,142.4c2.6,0,6.7-0.3,11.7-0.7C216,141.9,210.1,142.3,215.3,142.4z"/>
	<path class="st2" d="M340,121.8c5.8-4.4,47-3.8,77.7-2.8v-2.4C317.4,108.6,331,128.6,340,121.8z"/>
	<path class="st2" d="M241,126.7c17.9-2.5,61.1-5.8,65.3-10.6c4.2-4.8-191.6-17.1-186.7,0.1C124.6,133.5,163.4,137.5,241,126.7z
		 M269.4,117.9c-3.2,3.7-35.3,7.2-49,8.1c-62.4,4.2-87.5,5.2-91.2-8.1C125.5,104.7,272.6,114.2,269.4,117.9z"/>
	<path class="st3" d="M220.4,126c13.7-0.9,45.9-4.4,49-8.1c3.2-3.7-143.9-13.2-140.2,0.1C133,131.2,158,130.3,220.4,126z"/>
	<path class="st2" d="M307.6,154.9c-2.2-0.5-65.8-4.1-70.1-3c-4.3,1.1-103.6-1.8-107.2-1.8c-3.6,0.1,55.6,5.8,111.8,8
		C271.3,159.3,312.6,156,307.6,154.9z"/>
	<path class="st2" d="M417.8,172.4v-3c-22.6-0.7-45.2-1.4-55-1.8C360.3,167.5,384.8,170,417.8,172.4z"/>
	<path class="st2" d="M229.3,163.8c-1.3,0.5,3.6,0.7,11.3,0.6C234.8,163.6,230.8,163.2,229.3,163.8z"/>
	<path class="st2" d="M383.8,175.6c12.7,1.6,22,2.8,23.1,2.8C408.3,178.5,399.1,177.2,383.8,175.6z"/>
	<path class="st2" d="M240.6,164.4c12.7,1.8,33.7,5.5,53.8,5.7c33.1,0.3,67.5,3.2,89.4,5.5c-30.7-3.9-81.2-10.6-84.2-11.5
		C296.5,163.1,259.8,164.3,240.6,164.4z"/>
	<path class="st2" d="M303.3,204.8c12.7,1.8,33.7,5.5,53.8,5.7c20.9,0.2,42.2,1.4,60.7,2.9v-1.1c-26.4-3.5-53.4-7.1-55.5-7.8
		C359.2,203.6,322.5,204.7,303.3,204.8z"/>
	<path class="st2" d="M292,204.2c-1.3,0.5,3.6,0.7,11.3,0.6C297.5,204,293.5,203.6,292,204.2z"/>
	<path class="st2" d="M404,180.5c-4.3,1.1-103.6-1.8-107.2-1.8c-3.6,0.1,55.6,5.8,111.8,8c3,0.1,6.1,0.1,9.2,0.1v-6.1
		C410.5,180.4,405.1,180.3,404,180.5z"/>
	<path class="st2" d="M160.9,493.8c2.5,0.2,6.5,0,11.4-0.4C161.6,493.2,155.9,493.4,160.9,493.8z"/>
	<path class="st2" d="M261.5,500.6c-12.2-16.7-63.6-9.3-89.2-7.2c22.2,0.4,65.8,2.6,78.4,9.1c18.7,9.5,48.7,32.2,88.6,31.1
		C339.4,533.6,276.1,520.5,261.5,500.6z"/>
	<path class="st2" d="M249.3,516.7c-2.1-0.8-63.5-9.4-67.8-8S81,500.5,77.4,500.4c-3.5-0.1,53.4,11.3,107.8,17.4
		C213.5,521,254,518.5,249.3,516.7z"/>
	<path class="st2" d="M240.4,529.2c-2.8-1.5-38.6-1.8-57.3-2.7c12.1,3.2,32.1,9.7,51.6,11c14.6,1,29.5,2.8,43.2,4.8
		c14.5,2.2,27.8,4.7,38.6,6.9c1.5,0.3,3,0.6,4.4,0.9c-0.8-0.2-1.6-0.4-2.4-0.6c-7.7-1.9-16.6-4.1-25.5-6.3
		C268,536.9,242.4,530.3,240.4,529.2z"/>
	<path class="st2" d="M172.2,525c-1.3,0.7,3.4,1.1,10.9,1.5C177.6,525.1,173.7,524.3,172.2,525z"/>
	<path class="st2" d="M321,550.1c12.2,3,21.1,5.1,22.1,5.3C344.6,555.6,335.7,553.3,321,550.1z"/>
	<path class="st2" d="M137.1,539.6c-4.3,1.4-100.5-8.2-104.1-8.3c-3.5-0.1,32.7,9.6,87.1,15.7c28.3,3.2,174.7,11.6,174.7,11.6
		S141.5,538.2,137.1,539.6z"/>
	<path class="st2" d="M87.3,319.7c-20.5-4.2-57.1-4-87.3-2.9v2.2c16-1,46-2.3,60.4,0.7c17.6,3.6-32.8,3.8-60.4,1.3v3.1
		C52.6,326.7,115.7,325.6,87.3,319.7z"/>
	<path class="st3" d="M60.4,319.8C46,316.8,16,318.1,0,319v2C27.6,323.6,78,323.4,60.4,319.8z"/>
	<path class="st2" d="M0,369v1.5c6.3-0.5,12.1-1.1,17-1.5C12.2,369.1,6.3,369.1,0,369z"/>
	<path class="st2" d="M28.4,368.5c-2.5-0.1-6.5,0.1-11.4,0.5C27.7,369,33.5,368.7,28.4,368.5z"/>
	<path class="st2" d="M120.7,396.4c-4.3-17.3-41.9-22.1-117.9-12.6C1.9,383.9,1,384,0,384.1v2.6c8.5-1,17.3-1.6,22.9-1.9
		c60.9-3.1,85.4-3.6,88.6,9.7c2.3,9.6-71.3,6-111.4,1.9v4.8C53.8,405.2,123.3,406.9,120.7,396.4z"/>
	<path class="st3" d="M111.4,394.5c-3.2-13.3-27.7-12.8-88.6-9.7c-5.6,0.3-14.3,1-22.9,1.9v9.6C40.1,400.4,113.8,404,111.4,394.5z"
		/>
	<path class="st2" d="M76,418.4c-2.6,2.4-40.9-2.4-76-7.3v2.2C88.5,427.3,80.2,414.4,76,418.4z"/>
	<path class="st2" d="M7.1,358.5c4.3-1.1,84.7,7.7,88.3,7.7c3.6,0-37.9-10.8-92.6-14c-0.9-0.1-1.9-0.1-2.8-0.1v6.5
		C3.7,358.7,6.3,358.7,7.1,358.5z"/>
	<path class="st2" d="M15.4,346.9c1.3-0.5-3.5-0.7-11-0.8C10.1,347,14,347.4,15.4,346.9z"/>
	<path class="st2" d="M0,345.3v0.7c1.6,0,3,0,4.4,0C3.1,345.9,1.6,345.6,0,345.3z"/>
	<path class="st2" d="M49.7,336c4.3-1.1,100.9,3.7,104.4,3.7c3.6,0-39.8-3.7-94.5-6.8c-17.3-1-42.6-1.2-59.6-1.2v1.6
		C19.2,334.7,46.9,336.6,49.7,336z"/>
	<path class="st2" d="M118.9,263.9C94.7,241.3,34.1,229.4,0,233.3v39.3C44.1,291.6,118.9,263.9,118.9,263.9z M4.6,259.4
		c-26.6-29.6,70.5-23.5,98.8,2.9C103.3,262.3,31.2,289,4.6,259.4z"/>
	<path class="st3" d="M103.3,262.3C75,235.9-22,229.8,4.6,259.4C31.2,289,103.3,262.3,103.3,262.3z"/>
	<path class="st2" d="M18.8,286.8c0,0-7.9-1.6-18.8-4.7v3.4C6,286.6,12.3,287,18.8,286.8z"/>
	<path class="st2" d="M140.3,306.9c-20.5-2.3-58.4-8.2-55.3-7.6c32.8,5.5-43.8-2-85-6.3v1.9c20.7,3.9,55.2,9.8,88.8,13.5
		C107.4,310.5,127.6,308,140.3,306.9z"/>
	<path class="st2" d="M152.8,307.3c-1.4-1.1-6-0.9-12.5-0.4C148.5,307.9,154,308.2,152.8,307.3z"/>
	<path class="st2" d="M0,303.3L0,303.3c0.2,0.1,0.3,0.1,0.5,0.1C0.3,303.4,0.2,303.3,0,303.3z"/>
	<path class="st2" d="M0.5,303.4c12.2,3,21.1,5.1,22.1,5.3C24.1,308.9,15.2,306.5,0.5,303.4z"/>
	<path class="st2" d="M0,587.2v6.4c30,2.5,71.9,6.6,74.3,6.7C77.1,600.4,41.8,593.2,0,587.2z"/>
	<path class="st2" d="M14.5,561.1c4.3-1.4,100.5,8.2,104.1,8.3s-32.7-9.6-87.1-15.7c-6-0.7-17.3-1.6-31.5-2.6v8.9
		C8.4,560.9,13.8,561.3,14.5,561.1z"/>
	<path class="st2" d="M113,454.5c-24-13.8-78.2-19.9-113-17.6v6.9c19.5-6.1,75.6-2.3,97.3,10.1c0,0-67.7,20.8-97.3,2.7v9.6
		C45.6,475.1,113,454.5,113,454.5z"/>
	<path class="st2" d="M97.3,454C75.6,441.5,19.5,437.7,0,443.8v12.9C29.7,474.7,97.3,454,97.3,454z"/>
	<path class="st4" d="M97.3,454C75.6,441.5,19.5,437.7,0,443.8v12.9C29.7,474.7,97.3,454,97.3,454z"/>
	<path class="st2" d="M14.9,474.4c0,0-6-0.6-14.9-1.9v2C4.8,474.7,9.8,474.7,14.9,474.4z"/>
	<path class="st2" d="M63.2,431c-26.6-3.1-47.2-4.6-63.2-5v3.5C33.6,429.7,72,432,63.2,431z"/>
	<path class="st2" d="M150.2,483.5c-1.5-0.7-6-0.4-12.5,0.2C146,484.1,151.4,484.1,150.2,483.5z"/>
	<path class="st2" d="M137.7,483.7c-20.7-0.8-59-3.4-55.8-3.2c32.2,2.5-39.8,0.4-81.9-1v1.5c21.2,1.9,54.3,4.5,86.3,5.7
		C105.1,487.5,125,485,137.7,483.7z"/>
	<path class="st2" d="M0,486.9L0,486.9c11.3,1.5,19.4,2.5,20.4,2.6C21.7,489.6,13.7,488.4,0,486.9z"/>
	<path class="st2" d="M59,527.1c12.4,1.6,21.4,2.8,22.5,2.8C82.9,530.1,73.9,528.8,59,527.1z"/>
	<path class="st2" d="M0,519.2v3.3c22.6,1.1,43.8,3,59,4.7C41.6,524.9,17.6,521.7,0,519.2z"/>
	<path class="st2" d="M85.9,494.7c-1.4-0.6-5.3-0.4-11.1,0.1C82.4,495.1,87.1,495.2,85.9,494.7z"/>
	<path class="st2" d="M74.8,494.7c-18.7-1-54.2-3.9-57.3-3.1C16.5,492,9.7,492,0,491.9v5c7.3,0.4,14.7,0.8,22.1,1
		C41.6,498.7,62.3,495.9,74.8,494.7z"/>
	<path class="st2" d="M136.4,429.4c39.3,7.4,137.1-2.5,137.1-2.5C232,420.4,97.1,422,136.4,429.4z M234.4,427.5c0,0-50.7,5.1-71,1.3
		S212.9,424.2,234.4,427.5z"/>
	<path class="st3" d="M163.3,428.8c20.4,3.8,71-1.3,71-1.3C212.9,424.2,143,425,163.3,428.8z"/>
	<path class="st2" d="M193.7,379.5c2.5,0,6.5-0.3,11.4-0.7C194.4,379.1,188.6,379.4,193.7,379.5z"/>
	<path class="st2" d="M205.1,378.8c22.2-0.6,65.9-0.7,79,3.3c19.4,6,51.1,20.6,90.8,18.3c0,0-64.2-6.7-80.2-20.1
		C281.2,369.1,230.4,376.3,205.1,378.8z"/>
	<path class="st2" d="M218.8,363.8c17.5-2.5,59.5-5.8,63.6-10.6c4.1-4.8-186.7-17.1-181.9,0.1S143.1,374.7,218.8,363.8z
		 M109.8,355.1c-3.6-13.2,139.7-3.7,136.6-0.1c-3.1,3.7-34.4,7.2-47.8,8.1C137.9,367.4,113.5,368.3,109.8,355.1z"/>
	<path class="st3" d="M246.4,355c3.1-3.7-140.3-13.2-136.6,0.1c3.6,13.2,28.1,12.3,88.9,8.1C212,362.2,243.4,358.7,246.4,355z"/>
	<path class="st2" d="M279.2,343.8c-150.8-27.2-155.6-13.2-149.1-15.2C141,325.5,289.8,345.7,279.2,343.8z"/>
	<path class="st2" d="M283.7,392.1c-2.1-0.5-64.1-4.1-68.3-3c-4.2,1.1-88.8-11.5-102.4-11.5c-3.6,0,52,15.5,106.8,17.7
		C248.3,396.5,288.6,393.2,283.7,392.1z"/>
	<path class="st2" d="M380.4,415.5c1.5,0.1-7.5-1.2-22.5-2.8C370.3,414.3,379.3,415.5,380.4,415.5z"/>
	<path class="st2" d="M218.4,401.5c12.4,1.8,32.8,5.5,52.4,5.7c32.3,0.3,65.7,3.2,87.1,5.5c-29.9-3.9-79.2-10.6-82.1-11.5
		C272.9,400.3,237.1,401.4,218.4,401.5z"/>
	<path class="st2" d="M207.4,400.9c-1.3,0.5,3.5,0.7,11,0.6C212.8,400.7,208.8,400.3,207.4,400.9z"/>
	<path class="st2" d="M185.2,459c32.1-2.4,65.8-2.3,87.4-1.8c-30.3-1.4-80.3-3.9-83.3-4.6c-3.1-0.7-38.4,3.4-57,5.1
		C144.8,458.5,165.7,460.5,185.2,459z"/>
	<path class="st2" d="M272.5,457.2c12.5,0.6,21.7,1,22.8,0.9C296.8,458.2,287.6,457.6,272.5,457.2z"/>
	<path class="st2" d="M121.2,458c-1.2,0.6,3.6,0.4,11.1-0.3C126.5,457.4,122.5,457.4,121.2,458z"/>
	<path class="st2" d="M241.8,415.4c0,0-64.1-4.1-68.3-3s-101-1.8-104.5-1.8s39.9,3,94.7,5.1C192.1,416.9,241.8,415.4,241.8,415.4z"
		/>
	<path class="st2" d="M238.2,234c40-27.3-95-26.6-137.1-2.5C101.1,231.5,198.2,261.3,238.2,234z M116.8,231
		c30.3-17.4,127.7-17.9,98.8,1.8C186.8,252.4,116.8,231,116.8,231z"/>
	<path class="st3" d="M116.8,231c0,0,70,21.5,98.8,1.8C244.4,213.1,147.1,213.6,116.8,231z"/>
	<path class="st2" d="M199.3,251.4c39.7,2.3,71.5-12.4,90.8-18.3c13.1-4,56.7-3.9,79-3.3c-25.3-2.5-76.1-9.7-89.6,1.5
		C263.4,244.7,199.3,251.4,199.3,251.4z"/>
	<path class="st2" d="M380.4,230.5c5.1-0.1-0.7-0.5-11.4-0.7C373.9,230.3,377.9,230.6,380.4,230.5z"/>
	<path class="st2" d="M151,208c-14.5,1.7,98.2-5.6,107.9,2C268.6,217.5,283.6,192.5,151,208z"/>
	<path class="st2" d="M242.2,298.6c19.6-0.2,40-3.9,52.4-5.7c-18.7-0.1-54.5-1.3-57.4-0.3c-4.1,1.3-95.1-0.6-109.2,0.7
		C124.5,293.7,187.4,299.1,242.2,298.6z"/>
	<path class="st2" d="M305.7,292.3c-1.4-0.6-5.4-0.2-11,0.6C302.2,293,307,292.9,305.7,292.3z"/>
	<path class="st2" d="M128.2,271.7c-1.2,0.6,3.5,0.5,11.1,0.1C133.6,271.2,129.6,271,128.2,271.7z"/>
	<path class="st2" d="M196.5,268.7c-3-0.8-38.6,2.1-57.3,3.1c12.5,1.2,33.3,3.9,52.8,3.2c54.8-2.2,112.5-7.9,109-8
		C297.5,266.8,200.8,269.8,196.5,268.7z"/>
	<path class="st2" d="M188.7,76.5c2.5,0,6.5-0.3,11.4-0.7C189.4,76.1,183.6,76.4,188.7,76.5z"/>
	<path class="st2" d="M368.4,97.5c0.5,0,1,0,1.5-0.1c0,0-64.2-6.7-80.2-20.1c-13.5-11.2-64.2-4-89.6-1.5c22.2-0.6,65.9-0.7,79,3.3
		c17.6,5.4,45.4,18,80.1,18.5C362.1,97.7,365.2,97.6,368.4,97.5z"/>
	<path class="st2" d="M213.8,60.8c17.5-2.5,59.5-5.8,63.6-10.6c4.1-4.8-186.7-17.1-181.9,0.1S138.1,71.7,213.8,60.8z M112.8,51.3
		c-3.1-11.4,120.1-3.2,117.5,0c-2.6,3.2-29.6,6.2-41.1,7C136.9,61.9,115.9,62.6,112.8,51.3z"/>
	<path class="st3" d="M230.2,51.2c2.6-3.2-120.6-11.3-117.5,0c3.1,11.4,24.1,10.6,76.4,6.9C200.6,57.4,227.6,54.4,230.2,51.2z"/>
	<path class="st2" d="M139.5,27.5c4.8-4.8,145.3,15.2,134.7,13.3C123.4,13.6,134.7,32.3,139.5,27.5z"/>
	<path class="st2" d="M278.7,89.1c-2.1-0.5-64.1-4.1-68.3-3c-4.2,1.1-101-1.8-104.5-1.8c-3.6,0.1,54.2,5.8,109,8
		C243.3,93.5,283.6,90.2,278.7,89.1z"/>
	<path class="st2" d="M375.4,112.5c1.5,0.1-7.5-1.2-22.5-2.8C365.3,111.3,374.3,112.5,375.4,112.5z"/>
	<path class="st2" d="M202.4,97.9c-1.3,0.5,3.5,0.7,11,0.6C207.8,97.7,203.8,97.3,202.4,97.9z"/>
	<path class="st2" d="M213.4,98.5c12.4,1.8,32.8,5.5,52.4,5.7c32.3,0.3,65.7,3.2,87.1,5.5c-29.9-3.9-79.2-10.6-82.1-11.5
		C267.9,97.3,232.1,98.4,213.4,98.5z"/>
	<path class="st2" d="M57.8,8.6C43.7,5.7,22.1,4.9,0,5v1.8c11.5-0.1,22.8,0.4,30.1,1.9c12.2,2.5-7.4,3.3-30.1,2.9v2.6
		C43.7,15,81.2,13.3,57.8,8.6z"/>
	<path class="st3" d="M30.1,8.6C22.8,7.1,11.5,6.7,0,6.8v4.7C22.7,11.9,42.3,11.1,30.1,8.6z"/>
	<path class="st2" d="M92.1,85.2C88.3,70.2,58.7,64.6,0,69.6v3.6c56.4-2.7,79.4-2.6,82.5,10.1c1.8,7.4-43.1,6.9-82.5,4.4V92
		C47.3,94.2,94.2,93.8,92.1,85.2z"/>
	<path class="st3" d="M82.5,83.3C79.4,70.6,56.4,70.5,0,73.2v14.5C39.5,90.2,84.4,90.7,82.5,83.3z"/>
	<path class="st2" d="M46.2,107.3c-1.8,1.7-21.9-0.2-46.2-3.1v2.4C56.7,113,49.9,103.8,46.2,107.3z"/>
	<path class="st2" d="M0,43v4.7c30.9,1,80.1,3.3,82.6,3.3C85.6,51.1,45.7,46.4,0,43z"/>
	<path class="st2" d="M19.2,24.8c4.4-1.1,103.5,3.7,107.2,3.7c3.6,0-40.8-3.7-96.9-6.8c-8.5-0.5-18.9-0.8-29.4-0.9v3.5
		C9.9,24.8,17.8,25.1,19.2,24.8z"/>
	<path class="st2" d="M0,125.7v4.1c24.3,0.4,53.6,4.9,68.1,13c0,0-36.4,10.9-68.1,10v4.4c41.1-1.1,84.1-13.9,84.1-13.9
		C66.1,133.2,31.3,127.2,0,125.7z"/>
	<path class="st3" d="M68.1,142.8c-14.5-8.1-43.8-12.5-68.1-13v23C31.7,153.7,68.1,142.8,68.1,142.8z"/>
	<path class="st2" d="M33,119.8c-12.2-1.4-23.1-2.4-33-3.2v2.4C22.4,119.7,39.3,120.5,33,119.8z"/>
	<path class="st2" d="M109.4,172.6c-21.2-0.8-60.5-3.4-57.2-3.2c25.7,2-13.3,1.1-52.2,0v3c17.5,1.3,37.3,2.5,56.8,3.2
		C76.1,176.4,96.5,173.8,109.4,172.6z"/>
	<path class="st2" d="M122.3,172.4c-1.5-0.7-6.2-0.4-12.9,0.2C118,172.9,123.6,172.9,122.3,172.4z"/>
	<path class="st2" d="M28.7,216c12.7,1.6,22,2.8,23.1,2.8C53.3,218.9,44,217.6,28.7,216z"/>
	<path class="st2" d="M0,212.3v1.1c10.8,0.9,20.6,1.8,28.7,2.6C20.2,214.9,10.1,213.6,0,212.3z"/>
	<path class="st2" d="M0,180.8v6.1c17.1-0.2,34.1-2.3,45-3.3C32.7,183,13.2,181.5,0,180.8z"/>
	<path class="st2" d="M56.3,183.5c-1.4-0.6-5.5-0.4-11.3,0.1C52.7,184,57.6,184.1,56.3,183.5z"/>
</g>
</svg>
